G04 Layer_Color=8388736*
%FSLAX25Y25*%
%MOIN*%
G70*
G01*
G75*
%ADD45R,0.06706X0.06312*%
%ADD46R,0.05328X0.03162*%
%ADD47R,0.06312X0.06706*%
%ADD48R,0.09461X0.03162*%
%ADD49O,0.09461X0.03162*%
%ADD50R,0.09855X0.09855*%
%ADD51R,0.03162X0.05328*%
%ADD52R,0.09855X0.09855*%
%ADD53C,0.06800*%
%ADD54C,0.06312*%
%ADD55R,0.05800X0.05800*%
%ADD56C,0.05800*%
%ADD57R,0.05524X0.05524*%
%ADD58C,0.05524*%
%ADD59R,0.12800X0.12800*%
%ADD60C,0.12800*%
%ADD61R,0.06800X0.06800*%
%ADD62R,0.10800X0.10800*%
%ADD63C,0.10800*%
%ADD64C,0.15800*%
%ADD65C,0.40800*%
%ADD66R,0.06800X0.06800*%
%ADD67C,0.09800*%
%ADD68R,0.09800X0.09800*%
%ADD69R,0.10800X0.05800*%
%ADD70O,0.10800X0.05800*%
%ADD71C,0.16800*%
%ADD72O,0.21800X0.15800*%
%ADD73R,0.21800X0.15800*%
%ADD74C,0.04737*%
D45*
X383500Y304626D02*
D03*
Y312500D02*
D03*
X584000Y206437D02*
D03*
Y198563D02*
D03*
X360000Y305126D02*
D03*
Y313000D02*
D03*
X371000Y305126D02*
D03*
Y313000D02*
D03*
X394500Y304626D02*
D03*
Y312500D02*
D03*
X376500Y174563D02*
D03*
Y182437D02*
D03*
X362500Y181815D02*
D03*
Y173941D02*
D03*
X348500Y386563D02*
D03*
Y394437D02*
D03*
X392000Y386441D02*
D03*
Y394315D02*
D03*
X348500Y428941D02*
D03*
Y436815D02*
D03*
X348000Y304626D02*
D03*
Y312500D02*
D03*
X393000Y174685D02*
D03*
Y182559D02*
D03*
X362500Y386063D02*
D03*
Y393937D02*
D03*
X172500Y147937D02*
D03*
Y140063D02*
D03*
X363000Y429063D02*
D03*
Y436937D02*
D03*
X392000Y427441D02*
D03*
Y435315D02*
D03*
D46*
X373142Y433240D02*
D03*
X382000Y436980D02*
D03*
Y429500D02*
D03*
X546071Y119500D02*
D03*
X554929Y123240D02*
D03*
Y115760D02*
D03*
X546571Y145000D02*
D03*
X555429Y148740D02*
D03*
Y141260D02*
D03*
X398429Y477051D02*
D03*
X389571Y473311D02*
D03*
Y480791D02*
D03*
D47*
X527185Y139000D02*
D03*
X535059D02*
D03*
X527441Y113000D02*
D03*
X535315D02*
D03*
X480437Y160500D02*
D03*
X472563D02*
D03*
X472941Y210000D02*
D03*
X480815D02*
D03*
X475441Y260000D02*
D03*
X483315D02*
D03*
X474563Y300000D02*
D03*
X482437D02*
D03*
X378937Y480500D02*
D03*
X371063D02*
D03*
X448059Y350000D02*
D03*
X440185D02*
D03*
X527063Y148500D02*
D03*
X534937D02*
D03*
X527441Y125500D02*
D03*
X535315D02*
D03*
D48*
X416602Y205000D02*
D03*
D49*
Y200000D02*
D03*
Y195000D02*
D03*
Y190000D02*
D03*
X435500Y205000D02*
D03*
Y200000D02*
D03*
Y195000D02*
D03*
Y190000D02*
D03*
X645051Y210500D02*
D03*
Y205500D02*
D03*
Y200500D02*
D03*
Y195500D02*
D03*
X663949Y210500D02*
D03*
Y205500D02*
D03*
Y200500D02*
D03*
Y195500D02*
D03*
D50*
X406500Y438717D02*
D03*
Y421000D02*
D03*
Y391500D02*
D03*
Y373783D02*
D03*
D51*
X615500Y423500D02*
D03*
X619240Y414642D02*
D03*
X611760D02*
D03*
X379000Y395500D02*
D03*
X382740Y386642D02*
D03*
X375260D02*
D03*
D52*
X419000Y161000D02*
D03*
X436717D02*
D03*
D53*
X218500Y119000D02*
D03*
X142500Y181000D02*
D03*
X505000Y350000D02*
D03*
Y300000D02*
D03*
X505500Y256500D02*
D03*
X505000Y210000D02*
D03*
Y160000D02*
D03*
X624000Y461000D02*
D03*
Y471000D02*
D03*
Y481000D02*
D03*
X604000Y441000D02*
D03*
Y461000D02*
D03*
Y471000D02*
D03*
Y481000D02*
D03*
X429000Y298500D02*
D03*
X444000D02*
D03*
X459000D02*
D03*
X559500Y299000D02*
D03*
X574500D02*
D03*
X589500D02*
D03*
D54*
X613500Y118000D02*
D03*
Y178000D02*
D03*
X635500Y176000D02*
D03*
Y116000D02*
D03*
X629000Y323000D02*
D03*
X569000D02*
D03*
X628500Y345500D02*
D03*
X568500D02*
D03*
D55*
X547500Y197500D02*
D03*
D56*
Y208000D02*
D03*
D57*
X413500Y253000D02*
D03*
X546500Y254500D02*
D03*
D58*
X443500Y253000D02*
D03*
X576500Y254500D02*
D03*
D59*
X552000Y371500D02*
D03*
D60*
Y396500D02*
D03*
X424000Y371500D02*
D03*
Y396500D02*
D03*
Y456500D02*
D03*
Y431500D02*
D03*
X552000Y456500D02*
D03*
Y431500D02*
D03*
D61*
X495000Y350000D02*
D03*
Y300000D02*
D03*
X495500Y256500D02*
D03*
X495000Y210000D02*
D03*
Y160000D02*
D03*
X414000Y298500D02*
D03*
X544500Y299000D02*
D03*
D62*
X422700Y136551D02*
D03*
X572000Y130000D02*
D03*
D63*
X439000Y136551D02*
D03*
X455300D02*
D03*
X588300Y130000D02*
D03*
X572000Y146300D02*
D03*
X588300D02*
D03*
D64*
X472700Y136551D02*
D03*
D65*
X675000Y125000D02*
D03*
Y475000D02*
D03*
X150000D02*
D03*
Y125000D02*
D03*
D66*
X624000Y441000D02*
D03*
D67*
X594500Y376500D02*
D03*
D68*
X614500D02*
D03*
D69*
X333000Y140500D02*
D03*
D70*
Y150500D02*
D03*
Y160500D02*
D03*
Y170500D02*
D03*
Y180500D02*
D03*
Y190500D02*
D03*
Y200500D02*
D03*
Y210500D02*
D03*
Y220500D02*
D03*
Y230500D02*
D03*
Y240500D02*
D03*
Y250500D02*
D03*
Y260500D02*
D03*
Y270500D02*
D03*
Y280500D02*
D03*
Y290500D02*
D03*
Y300500D02*
D03*
Y310500D02*
D03*
Y320500D02*
D03*
Y330500D02*
D03*
Y340500D02*
D03*
Y350500D02*
D03*
Y360500D02*
D03*
Y370500D02*
D03*
Y380500D02*
D03*
Y390500D02*
D03*
Y400500D02*
D03*
Y410500D02*
D03*
Y420500D02*
D03*
Y430500D02*
D03*
Y440500D02*
D03*
Y450500D02*
D03*
Y460500D02*
D03*
X183000Y140500D02*
D03*
Y150500D02*
D03*
Y160500D02*
D03*
Y170500D02*
D03*
Y180500D02*
D03*
Y190500D02*
D03*
Y200500D02*
D03*
Y210500D02*
D03*
Y220500D02*
D03*
Y230500D02*
D03*
Y240500D02*
D03*
Y250500D02*
D03*
Y260500D02*
D03*
Y270500D02*
D03*
Y280500D02*
D03*
Y290500D02*
D03*
Y300500D02*
D03*
Y310500D02*
D03*
Y320500D02*
D03*
Y330500D02*
D03*
Y340500D02*
D03*
Y350500D02*
D03*
Y360500D02*
D03*
Y370500D02*
D03*
Y380500D02*
D03*
Y390500D02*
D03*
Y400500D02*
D03*
Y410500D02*
D03*
Y420500D02*
D03*
Y430500D02*
D03*
Y440500D02*
D03*
Y450500D02*
D03*
Y460500D02*
D03*
D71*
X572000Y164000D02*
D03*
D72*
X661000Y251551D02*
D03*
Y276551D02*
D03*
Y301551D02*
D03*
Y326551D02*
D03*
Y351551D02*
D03*
Y376551D02*
D03*
Y401551D02*
D03*
D73*
Y426551D02*
D03*
D74*
X642500Y243300D02*
D03*
X419401Y235800D02*
D03*
X375400Y150500D02*
D03*
X318300Y429800D02*
D03*
X348100Y443100D02*
D03*
X513100Y309100D02*
D03*
X460100Y325100D02*
D03*
X406500Y382700D02*
D03*
X454800Y441000D02*
D03*
X409500Y271800D02*
D03*
X387300Y318000D02*
D03*
X326000Y335000D02*
D03*
X470400Y308400D02*
D03*
X455000Y393600D02*
D03*
X446900Y231200D02*
D03*
X479000Y153300D02*
D03*
X258000Y135800D02*
D03*
X309400Y378800D02*
D03*
X322200Y225500D02*
D03*
X406300Y195000D02*
D03*
X328300Y480500D02*
D03*
X448100Y394400D02*
D03*
X376500Y161000D02*
D03*
X426800D02*
D03*
X412400Y428300D02*
D03*
X568500Y412600D02*
D03*
X463700Y340500D02*
D03*
X603000Y436500D02*
D03*
X440185Y356600D02*
D03*
X635500Y205500D02*
D03*
X583800Y183500D02*
D03*
X439500Y240000D02*
D03*
M02*
