G04 Layer_Color=8388736*
%FSLAX25Y25*%
%MOIN*%
G70*
G01*
G75*
%ADD46O,0.09461X0.03162*%
%ADD47R,0.05328X0.03162*%
%ADD48R,0.02768X0.01981*%
%ADD49R,0.01981X0.02768*%
%ADD50R,0.09855X0.09855*%
%ADD51R,0.03162X0.05328*%
%ADD52R,0.09855X0.09855*%
%ADD53R,0.09461X0.03162*%
%ADD54R,0.21800X0.15800*%
%ADD55O,0.21800X0.15800*%
%ADD56C,0.06800*%
%ADD57C,0.16800*%
%ADD58C,0.10800*%
%ADD59R,0.10800X0.10800*%
%ADD60C,0.06312*%
%ADD61O,0.10800X0.05800*%
%ADD62R,0.10800X0.05800*%
%ADD63R,0.09800X0.09800*%
%ADD64C,0.09800*%
%ADD65R,0.06800X0.06800*%
%ADD66R,0.06800X0.06800*%
%ADD67C,0.40800*%
%ADD68C,0.15800*%
%ADD69C,0.12800*%
%ADD70R,0.12800X0.12800*%
%ADD71C,0.05524*%
%ADD72R,0.05524X0.05524*%
%ADD73C,0.05800*%
%ADD74R,0.05800X0.05800*%
D46*
X663949Y195500D02*
D03*
Y200500D02*
D03*
Y205500D02*
D03*
Y210500D02*
D03*
X645051Y195500D02*
D03*
Y200500D02*
D03*
Y205500D02*
D03*
Y210500D02*
D03*
X435500Y190000D02*
D03*
Y195000D02*
D03*
Y200000D02*
D03*
Y205000D02*
D03*
X416602Y190000D02*
D03*
Y195000D02*
D03*
Y200000D02*
D03*
D47*
X382000Y429500D02*
D03*
Y436980D02*
D03*
X373142Y433240D02*
D03*
X389571Y480791D02*
D03*
Y473311D02*
D03*
X398429Y477051D02*
D03*
X555429Y141260D02*
D03*
Y148740D02*
D03*
X546571Y145000D02*
D03*
X554929Y115760D02*
D03*
Y123240D02*
D03*
X546071Y119500D02*
D03*
D48*
X442744Y350000D02*
D03*
X445500D02*
D03*
X373622Y480500D02*
D03*
X376378D02*
D03*
X475122Y160500D02*
D03*
X477878D02*
D03*
X478256Y210000D02*
D03*
X475500D02*
D03*
X480756Y260000D02*
D03*
X478000D02*
D03*
X479878Y300000D02*
D03*
X477122D02*
D03*
X532756Y125500D02*
D03*
X530000D02*
D03*
X532378Y148500D02*
D03*
X529622D02*
D03*
X532500Y139000D02*
D03*
X529744D02*
D03*
X532756Y113000D02*
D03*
X530000D02*
D03*
D49*
X375500Y310878D02*
D03*
Y308122D02*
D03*
X392000Y391756D02*
D03*
Y389000D02*
D03*
X346500Y310000D02*
D03*
Y307244D02*
D03*
X172500Y142622D02*
D03*
Y145378D02*
D03*
X362500Y176500D02*
D03*
Y179256D02*
D03*
X376500Y179878D02*
D03*
Y177122D02*
D03*
X393000Y180000D02*
D03*
Y177244D02*
D03*
X348500Y391878D02*
D03*
Y389122D02*
D03*
X355500Y310256D02*
D03*
Y307500D02*
D03*
X367000Y310378D02*
D03*
Y307622D02*
D03*
X384500Y310500D02*
D03*
Y307744D02*
D03*
X392000Y432756D02*
D03*
Y430000D02*
D03*
X362500Y391378D02*
D03*
Y388622D02*
D03*
X363000Y434378D02*
D03*
Y431622D02*
D03*
X348500Y434256D02*
D03*
Y431500D02*
D03*
D50*
X436717Y161000D02*
D03*
X419000D02*
D03*
D51*
X375260Y386642D02*
D03*
X382740D02*
D03*
X379000Y395500D02*
D03*
X611760Y414642D02*
D03*
X619240D02*
D03*
X615500Y423500D02*
D03*
D52*
X406500Y373783D02*
D03*
Y391500D02*
D03*
Y421000D02*
D03*
Y438717D02*
D03*
D53*
X416602Y205000D02*
D03*
D54*
X661000Y426551D02*
D03*
D55*
Y401551D02*
D03*
Y376551D02*
D03*
Y351551D02*
D03*
Y326551D02*
D03*
Y301551D02*
D03*
Y276551D02*
D03*
Y251551D02*
D03*
D56*
X520000Y228000D02*
D03*
X468500Y247500D02*
D03*
X193500Y118000D02*
D03*
X143500Y179000D02*
D03*
X589500Y299000D02*
D03*
X574500D02*
D03*
X559500D02*
D03*
X459000Y298500D02*
D03*
X444000D02*
D03*
X429000D02*
D03*
X604000Y481000D02*
D03*
Y471000D02*
D03*
Y461000D02*
D03*
Y441000D02*
D03*
X624000Y481000D02*
D03*
Y471000D02*
D03*
Y461000D02*
D03*
X505000Y160000D02*
D03*
Y210000D02*
D03*
X505500Y256500D02*
D03*
X505000Y300000D02*
D03*
Y350000D02*
D03*
D57*
X572000Y164000D02*
D03*
D58*
X588300Y146300D02*
D03*
X572000D02*
D03*
X588300Y130000D02*
D03*
X455300Y136551D02*
D03*
X439000D02*
D03*
D59*
X572000Y130000D02*
D03*
X422700Y136551D02*
D03*
D60*
X568500Y345500D02*
D03*
X628500D02*
D03*
X569000Y323000D02*
D03*
X629000D02*
D03*
X635500Y116000D02*
D03*
Y176000D02*
D03*
X613500Y178000D02*
D03*
Y118000D02*
D03*
D61*
X183000Y460500D02*
D03*
Y450500D02*
D03*
Y440500D02*
D03*
Y430500D02*
D03*
Y420500D02*
D03*
Y410500D02*
D03*
Y400500D02*
D03*
Y390500D02*
D03*
Y380500D02*
D03*
Y370500D02*
D03*
Y360500D02*
D03*
Y350500D02*
D03*
Y340500D02*
D03*
Y330500D02*
D03*
Y320500D02*
D03*
Y310500D02*
D03*
Y300500D02*
D03*
Y290500D02*
D03*
Y280500D02*
D03*
Y270500D02*
D03*
Y260500D02*
D03*
Y250500D02*
D03*
Y240500D02*
D03*
Y230500D02*
D03*
Y220500D02*
D03*
Y210500D02*
D03*
Y200500D02*
D03*
Y190500D02*
D03*
Y180500D02*
D03*
Y170500D02*
D03*
Y160500D02*
D03*
Y150500D02*
D03*
Y140500D02*
D03*
X333000Y460500D02*
D03*
Y450500D02*
D03*
Y440500D02*
D03*
Y430500D02*
D03*
Y420500D02*
D03*
Y410500D02*
D03*
Y400500D02*
D03*
Y390500D02*
D03*
Y380500D02*
D03*
Y370500D02*
D03*
Y360500D02*
D03*
Y350500D02*
D03*
Y340500D02*
D03*
Y330500D02*
D03*
Y320500D02*
D03*
Y310500D02*
D03*
Y300500D02*
D03*
Y290500D02*
D03*
Y280500D02*
D03*
Y270500D02*
D03*
Y260500D02*
D03*
Y250500D02*
D03*
Y240500D02*
D03*
Y230500D02*
D03*
Y220500D02*
D03*
Y210500D02*
D03*
Y200500D02*
D03*
Y190500D02*
D03*
Y180500D02*
D03*
Y170500D02*
D03*
Y160500D02*
D03*
Y150500D02*
D03*
D62*
Y140500D02*
D03*
D63*
X614500Y376500D02*
D03*
D64*
X594500D02*
D03*
D65*
X544500Y299000D02*
D03*
X414000Y298500D02*
D03*
X495000Y160000D02*
D03*
Y210000D02*
D03*
X495500Y256500D02*
D03*
X495000Y300000D02*
D03*
Y350000D02*
D03*
D66*
X624000Y441000D02*
D03*
D67*
X150000Y125000D02*
D03*
Y475000D02*
D03*
X675000D02*
D03*
Y125000D02*
D03*
D68*
X472700Y136551D02*
D03*
D69*
X552000Y431500D02*
D03*
Y456500D02*
D03*
X424000Y431500D02*
D03*
Y456500D02*
D03*
Y396500D02*
D03*
Y371500D02*
D03*
X552000Y396500D02*
D03*
D70*
Y371500D02*
D03*
D71*
X576500Y254500D02*
D03*
X443500Y253000D02*
D03*
X584000Y197500D02*
D03*
Y207500D02*
D03*
D72*
X546500Y254500D02*
D03*
X413500Y253000D02*
D03*
D73*
X547500Y208000D02*
D03*
X644500Y376500D02*
D03*
X631500D02*
D03*
X170500Y224500D02*
D03*
X583000Y471000D02*
D03*
X572500Y462500D02*
D03*
X345600Y316300D02*
D03*
X445300Y344100D02*
D03*
X532200Y285400D02*
D03*
X478300Y203800D02*
D03*
X412700Y212700D02*
D03*
X458100Y210000D02*
D03*
X440100Y366900D02*
D03*
X477300Y324900D02*
D03*
X404300Y247100D02*
D03*
X631600Y210500D02*
D03*
X463200Y228000D02*
D03*
X653000Y220500D02*
D03*
X683000D02*
D03*
D74*
X547500Y197500D02*
D03*
M02*
