M48
;Layer_Color=9474304
;FILE_FORMAT=2:5
INCH,TZ
;TYPE=PLATED
T1F00S00C0.02500
T2F00S00C0.02600
T3F00S00C0.02756
T4F00S00C0.02800
T5F00S00C0.03000
T6F00S00C0.03200
T7F00S00C0.03346
T8F00S00C0.05500
T9F00S00C0.06000
T10F00S00C0.07000
T11F00S00C0.12500
T12F00S00C0.22500
%
T01
X183000Y140500
Y150500
X333000
Y140500
Y160500
Y170500
Y180500
Y190500
Y200500
Y210500
Y220500
Y230500
Y240500
Y250500
Y260500
Y270500
Y280500
Y290500
Y300500
Y310500
X183000
Y300500
Y290500
Y280500
Y270500
Y260500
Y250500
Y240500
Y230500
Y220500
Y210500
Y200500
Y190500
Y180500
Y170500
Y160500
Y320500
Y330500
Y340500
Y350500
Y360500
Y370500
Y380500
Y390500
Y400500
Y410500
Y420500
Y430500
Y440500
Y450500
Y460500
X333000
Y450500
Y440500
Y430500
Y420500
Y410500
Y400500
Y390500
Y380500
Y370500
Y360500
Y350500
Y340500
Y330500
Y320500
T02
X594500Y376500
X614500
T03
X584000Y197500
Y207500
X576500Y254500
X546500
X443500Y253000
X413500
T04
X631600Y210500
X653000Y220500
X683000
X547500Y208000
Y197500
X478300Y203800
X532200Y285400
X544500Y299000
X559500
X574500
X589500
X459000Y298500
X444000
X429000
X414000
X404300Y247100
X412700Y212700
X458100Y210000
X463200Y228000
X170500Y224500
X345600Y316300
X445300Y344100
X440100Y366900
X477300Y324900
X572500Y462500
X631500Y376500
X644500
X583000Y471000
T05
X193500Y118000
X520000Y228000
X468500Y247500
X143500Y179000
T06
X495000Y160000
X505000
Y210000
X495000
X495500Y256500
X505500
X505000Y300000
X495000
Y350000
X505000
X604000Y441000
Y461000
X624000
Y441000
Y471000
Y481000
X604000
Y471000
T07
X613500Y118000
X635500Y116000
Y176000
X613500Y178000
X569000Y323000
X568500Y345500
X628500
X629000Y323000
T08
X422700Y136551
X439000
X455300
X572000Y130000
Y146300
X588300
Y130000
T09
X424000Y371500
Y396500
Y431500
Y456500
X552000
Y431500
Y396500
Y371500
T10
X661000Y251551
Y276551
Y301551
Y326551
Y351551
Y376551
Y401551
Y426551
T11
X472700Y136551
X572000Y164000
T12
X150000Y125000
X675000
Y475000
X150000
M30
