M48
;Layer_Color=9474304
;FILE_FORMAT=2:5
INCH,TZ
;TYPE=PLATED
T1F00S00C0.01968
T2F00S00C0.02500
T3F00S00C0.02600
T4F00S00C0.02756
T5F00S00C0.02800
T6F00S00C0.03000
T7F00S00C0.03200
T8F00S00C0.03346
T9F00S00C0.05500
T10F00S00C0.06000
T11F00S00C0.07000
T12F00S00C0.12500
T13F00S00C0.22500
%
T01
X258000Y135800
X375400Y150500
X479000Y153300
X635500Y205500
X642500Y243300
X583800Y183500
X513100Y309100
X470400Y308400
X409500Y271800
X419401Y235800
X439500Y240000
X446900Y231200
X406300Y195000
X426800Y161000
X376500
X322200Y225500
X309400Y378800
X318300Y429800
X348100Y443100
X412400Y428300
X406500Y382700
X448100Y394400
X455000Y393600
X454800Y441000
X440185Y356600
X463700Y340500
X460100Y325100
X387300Y318000
X326000Y335000
X568500Y412600
X603000Y436500
X328300Y480500
T02
X183000Y140500
Y150500
X333000
Y140500
Y160500
Y170500
Y180500
Y190500
Y200500
Y210500
Y220500
Y230500
Y240500
Y250500
Y260500
Y270500
Y280500
Y290500
Y300500
Y310500
X183000
Y300500
Y290500
Y280500
Y270500
Y260500
Y250500
Y240500
Y230500
Y220500
Y210500
Y200500
Y190500
Y180500
Y170500
Y160500
Y320500
Y330500
Y340500
Y350500
Y360500
Y370500
Y380500
Y390500
Y400500
Y410500
Y420500
Y430500
Y440500
Y450500
Y460500
X333000
Y450500
Y440500
Y430500
Y420500
Y410500
Y400500
Y390500
Y380500
Y370500
Y360500
Y350500
Y340500
Y330500
Y320500
T03
X594500Y376500
X614500
T04
X546500Y254500
X576500
X443500Y253000
X413500
T05
X547500Y197500
Y208000
X544500Y299000
X559500
X574500
X589500
X459000Y298500
X444000
X429000
X414000
T06
X218500Y119000
X142500Y181000
T07
X495000Y160000
X505000
Y210000
X495000
X495500Y256500
X505500
X505000Y300000
X495000
Y350000
X505000
X604000Y441000
X624000
Y461000
X604000
Y471000
Y481000
X624000
Y471000
T08
X613500Y118000
X635500Y116000
Y176000
X613500Y178000
X569000Y323000
X568500Y345500
X628500
X629000Y323000
T09
X422700Y136551
X439000
X455300
X572000Y130000
X588300
Y146300
X572000
T10
X424000Y371500
Y396500
Y431500
Y456500
X552000
Y431500
Y396500
Y371500
T11
X661000Y251551
Y276551
Y301551
Y326551
Y351551
Y376551
Y401551
Y426551
T12
X472700Y136551
X572000Y164000
T13
X150000Y125000
X675000
Y475000
X150000
M30
