G04 Layer_Physical_Order=1*
G04 Layer_Color=255*
%FSLAX25Y25*%
%MOIN*%
G70*
G01*
G75*
%ADD10R,0.04528X0.02362*%
%ADD11R,0.05512X0.05905*%
%ADD12R,0.09842X0.04331*%
%ADD13O,0.09842X0.04331*%
%ADD14R,0.09055X0.09055*%
%ADD15R,0.02362X0.04528*%
%ADD16R,0.05905X0.05512*%
%ADD17R,0.08661X0.02362*%
%ADD18O,0.08661X0.02362*%
%ADD19R,0.09055X0.09055*%
%ADD20C,0.01500*%
%ADD21R,0.05905X0.05905*%
%ADD22C,0.05905*%
%ADD23R,0.10000X0.05000*%
%ADD24O,0.10000X0.05000*%
%ADD25C,0.09000*%
%ADD26R,0.09000X0.09000*%
%ADD27C,0.16000*%
%ADD28C,0.10000*%
%ADD29R,0.10000X0.10000*%
%ADD30C,0.15000*%
%ADD31R,0.12000X0.12000*%
%ADD32C,0.12000*%
%ADD33R,0.06000X0.06000*%
%ADD34C,0.06000*%
%ADD35O,0.21000X0.15000*%
%ADD36R,0.21000X0.15000*%
%ADD37R,0.06000X0.06000*%
%ADD38R,0.08000X0.08000*%
%ADD39C,0.08000*%
%ADD40R,0.05000X0.05000*%
%ADD41C,0.05000*%
%ADD42C,0.05512*%
%ADD43R,0.08000X0.08000*%
%ADD44C,0.40000*%
%ADD45C,0.03937*%
G36*
X599000Y1326D02*
X2325D01*
Y398675D01*
X599000D01*
Y1326D01*
D02*
G37*
%LPC*%
G36*
X316605Y89000D02*
X312500D01*
Y87776D01*
X314650D01*
X315501Y87945D01*
X316222Y88428D01*
X316605Y89000D01*
D02*
G37*
G36*
X310500Y92224D02*
X308350D01*
X307499Y92054D01*
X306778Y91572D01*
X306395Y91000D01*
X310500D01*
Y92224D01*
D02*
G37*
G36*
X314650D02*
X312500D01*
Y91000D01*
X316605D01*
X316222Y91572D01*
X315501Y92054D01*
X314650Y92224D01*
D02*
G37*
G36*
X310500Y89000D02*
X306395D01*
X306778Y88428D01*
X307499Y87945D01*
X308350Y87776D01*
X310500D01*
Y89000D01*
D02*
G37*
G36*
X19500Y84903D02*
Y82000D01*
X22403D01*
X22397Y82044D01*
X21994Y83017D01*
X21353Y83853D01*
X20517Y84494D01*
X19544Y84897D01*
X19500Y84903D01*
D02*
G37*
G36*
X61500Y93828D02*
X56500D01*
X55638Y93715D01*
X54836Y93383D01*
X54146Y92854D01*
X53617Y92164D01*
X53285Y91361D01*
X53171Y90500D01*
X53285Y89639D01*
X53617Y88836D01*
X54146Y88146D01*
X54836Y87617D01*
X55638Y87285D01*
X56500Y87172D01*
X61500D01*
X62362Y87285D01*
X63164Y87617D01*
X63854Y88146D01*
X64383Y88836D01*
X64715Y89639D01*
X64828Y90500D01*
X64715Y91361D01*
X64383Y92164D01*
X63854Y92854D01*
X63164Y93383D01*
X62362Y93715D01*
X61500Y93828D01*
D02*
G37*
G36*
X211500D02*
X206500D01*
X205639Y93715D01*
X204836Y93383D01*
X204146Y92854D01*
X203618Y92164D01*
X203285Y91361D01*
X203171Y90500D01*
X203285Y89639D01*
X203618Y88836D01*
X204146Y88146D01*
X204836Y87617D01*
X205639Y87285D01*
X206500Y87172D01*
X211500D01*
X212362Y87285D01*
X213164Y87617D01*
X213854Y88146D01*
X214383Y88836D01*
X214715Y89639D01*
X214828Y90500D01*
X214715Y91361D01*
X214383Y92164D01*
X213854Y92854D01*
X213164Y93383D01*
X212362Y93715D01*
X211500Y93828D01*
D02*
G37*
G36*
X314650Y102020D02*
X308350D01*
X307577Y101866D01*
X306922Y101428D01*
X306484Y100773D01*
X306330Y100000D01*
X306484Y99227D01*
X306922Y98572D01*
X307577Y98134D01*
X308350Y97980D01*
X309920D01*
Y97020D01*
X308350D01*
X307577Y96866D01*
X306922Y96428D01*
X306484Y95773D01*
X306330Y95000D01*
X306484Y94227D01*
X306922Y93572D01*
X307577Y93134D01*
X308350Y92980D01*
X314650D01*
X315423Y93134D01*
X316078Y93572D01*
X316516Y94227D01*
X316670Y95000D01*
X316516Y95773D01*
X316078Y96428D01*
X315423Y96866D01*
X314650Y97020D01*
X313080D01*
Y97980D01*
X314650D01*
X315423Y98134D01*
X316078Y98572D01*
X316516Y99227D01*
X316670Y100000D01*
X316516Y100773D01*
X316078Y101428D01*
X315423Y101866D01*
X314650Y102020D01*
D02*
G37*
G36*
X545053Y99500D02*
X539949D01*
X534844D01*
X535227Y98927D01*
X535948Y98445D01*
X536799Y98276D01*
X538368D01*
Y97724D01*
X536799D01*
X535948Y97554D01*
X535239Y97080D01*
X525762D01*
X525052Y97554D01*
X524201Y97724D01*
X522051D01*
Y95500D01*
Y93276D01*
X524201D01*
X525052Y93445D01*
X525762Y93920D01*
X535239D01*
X535948Y93445D01*
X536799Y93276D01*
X538949D01*
Y95500D01*
X539949D01*
Y96500D01*
X545053D01*
X544671Y97072D01*
X543949Y97554D01*
X543098Y97724D01*
X541529D01*
Y98276D01*
X543098D01*
X543949Y98445D01*
X544671Y98927D01*
X545053Y99500D01*
D02*
G37*
G36*
X26500Y140785D02*
X25520Y140656D01*
X24607Y140278D01*
X23823Y139676D01*
X23222Y138893D01*
X22844Y137980D01*
X22715Y137000D01*
X22844Y136020D01*
X23222Y135107D01*
X23823Y134324D01*
X24607Y133722D01*
X25520Y133344D01*
X26500Y133215D01*
X27480Y133344D01*
X28393Y133722D01*
X29177Y134324D01*
X29778Y135107D01*
X29907Y135420D01*
X33845D01*
X39420Y129845D01*
Y112500D01*
X39540Y111895D01*
X39882Y111382D01*
X51882Y99383D01*
X52395Y99040D01*
X53000Y98920D01*
X53583D01*
X53617Y98836D01*
X54146Y98146D01*
X54836Y97617D01*
X55638Y97285D01*
X56500Y97171D01*
X61500D01*
X62362Y97285D01*
X63164Y97617D01*
X63854Y98146D01*
X64383Y98836D01*
X64715Y99638D01*
X64828Y100500D01*
X64715Y101362D01*
X64383Y102164D01*
X63854Y102854D01*
X63164Y103383D01*
X62362Y103715D01*
X61500Y103829D01*
X56500D01*
X55638Y103715D01*
X54836Y103383D01*
X54146Y102854D01*
X53904Y102538D01*
X53241Y102494D01*
X42580Y113155D01*
Y130500D01*
X42460Y131105D01*
X42118Y131617D01*
X35618Y138118D01*
X35105Y138460D01*
X34500Y138580D01*
X29907D01*
X29778Y138893D01*
X29177Y139676D01*
X28393Y140278D01*
X27480Y140656D01*
X26500Y140785D01*
D02*
G37*
G36*
X211500Y103829D02*
X206500D01*
X205639Y103715D01*
X204836Y103383D01*
X204146Y102854D01*
X203618Y102164D01*
X203285Y101362D01*
X203171Y100500D01*
X203285Y99638D01*
X203618Y98836D01*
X204146Y98146D01*
X204836Y97617D01*
X205639Y97285D01*
X206500Y97171D01*
X211500D01*
X212362Y97285D01*
X213164Y97617D01*
X213854Y98146D01*
X214383Y98836D01*
X214715Y99638D01*
X214828Y100500D01*
X214715Y101362D01*
X214383Y102164D01*
X213854Y102854D01*
X213164Y103383D01*
X212362Y103715D01*
X211500Y103829D01*
D02*
G37*
G36*
X520051Y97724D02*
X517902D01*
X517051Y97554D01*
X516329Y97072D01*
X515947Y96500D01*
X520051D01*
Y97724D01*
D02*
G37*
G36*
Y94500D02*
X515947D01*
X516329Y93928D01*
X517051Y93445D01*
X517902Y93276D01*
X520051D01*
Y94500D01*
D02*
G37*
G36*
X545053D02*
X540949D01*
Y93276D01*
X543098D01*
X543949Y93445D01*
X544671Y93928D01*
X545053Y94500D01*
D02*
G37*
G36*
X426000Y100816D02*
X421000D01*
X420688Y100754D01*
X420423Y100577D01*
X420246Y100312D01*
X420184Y100000D01*
Y95000D01*
X420246Y94688D01*
X420423Y94423D01*
X420688Y94246D01*
X421000Y94184D01*
X426000D01*
X426312Y94246D01*
X426577Y94423D01*
X426754Y94688D01*
X426816Y95000D01*
Y100000D01*
X426754Y100312D01*
X426577Y100577D01*
X426312Y100754D01*
X426000Y100816D01*
D02*
G37*
G36*
X17500Y84903D02*
X17456Y84897D01*
X16483Y84494D01*
X15647Y83853D01*
X15006Y83017D01*
X14603Y82044D01*
X14597Y82000D01*
X17500D01*
Y84903D01*
D02*
G37*
G36*
X511500Y79587D02*
X510572Y79464D01*
X509707Y79106D01*
X508964Y78536D01*
X508394Y77793D01*
X508036Y76928D01*
X507913Y76000D01*
X508036Y75072D01*
X508394Y74207D01*
X508964Y73464D01*
X509707Y72894D01*
X510572Y72536D01*
X511500Y72413D01*
X512428Y72536D01*
X513293Y72894D01*
X514036Y73464D01*
X514606Y74207D01*
X514964Y75072D01*
X515087Y76000D01*
X514964Y76928D01*
X514606Y77793D01*
X514036Y78536D01*
X513293Y79106D01*
X512428Y79464D01*
X511500Y79587D01*
D02*
G37*
G36*
X489500Y81587D02*
X488572Y81464D01*
X487707Y81106D01*
X486964Y80536D01*
X486394Y79793D01*
X486036Y78928D01*
X485913Y78000D01*
X486036Y77072D01*
X486394Y76207D01*
X486964Y75464D01*
X487707Y74894D01*
X488572Y74536D01*
X489500Y74413D01*
X490428Y74536D01*
X491293Y74894D01*
X492036Y75464D01*
X492606Y76207D01*
X492964Y77072D01*
X493087Y78000D01*
X492964Y78928D01*
X492606Y79793D01*
X492036Y80536D01*
X491293Y81106D01*
X490428Y81464D01*
X489500Y81587D01*
D02*
G37*
G36*
X251500Y78338D02*
X249547D01*
X249157Y78261D01*
X248826Y78040D01*
X248605Y77709D01*
X248528Y77319D01*
Y75563D01*
X251500D01*
Y78338D01*
D02*
G37*
G36*
X272972Y73685D02*
X270000D01*
Y70910D01*
X271953D01*
X272343Y70987D01*
X272674Y71208D01*
X272895Y71539D01*
X272972Y71929D01*
Y73685D01*
D02*
G37*
G36*
X402240Y69642D02*
X402059D01*
X401669Y69564D01*
X401338Y69343D01*
X401117Y69012D01*
X401040Y68622D01*
Y67358D01*
X402240D01*
Y69642D01*
D02*
G37*
G36*
X404421D02*
X404240D01*
Y67358D01*
X405441D01*
Y68622D01*
X405363Y69012D01*
X405142Y69343D01*
X404811Y69564D01*
X404421Y69642D01*
D02*
G37*
G36*
X268000Y73685D02*
X265028D01*
Y71929D01*
X265105Y71539D01*
X265326Y71208D01*
X265657Y70987D01*
X266047Y70910D01*
X268000D01*
Y73685D01*
D02*
G37*
G36*
X255453Y78338D02*
X253500D01*
Y75563D01*
X256472D01*
Y77319D01*
X256395Y77709D01*
X256174Y78040D01*
X255843Y78261D01*
X255453Y78338D01*
D02*
G37*
G36*
X61500Y83829D02*
X56500D01*
X55638Y83715D01*
X54836Y83383D01*
X54146Y82854D01*
X53617Y82164D01*
X53285Y81362D01*
X53171Y80500D01*
X53285Y79638D01*
X53617Y78836D01*
X54146Y78146D01*
X54836Y77617D01*
X55638Y77285D01*
X56500Y77171D01*
X61500D01*
X62362Y77285D01*
X63164Y77617D01*
X63854Y78146D01*
X64383Y78836D01*
X64715Y79638D01*
X64828Y80500D01*
X64715Y81362D01*
X64383Y82164D01*
X63854Y82854D01*
X63164Y83383D01*
X62362Y83715D01*
X61500Y83829D01*
D02*
G37*
G36*
X211500D02*
X206500D01*
X205639Y83715D01*
X204836Y83383D01*
X204146Y82854D01*
X203618Y82164D01*
X203285Y81362D01*
X203171Y80500D01*
X203285Y79638D01*
X203618Y78836D01*
X204146Y78146D01*
X204836Y77617D01*
X205639Y77285D01*
X206500Y77171D01*
X211500D01*
X212362Y77285D01*
X213164Y77617D01*
X213854Y78146D01*
X214383Y78836D01*
X214715Y79638D01*
X214828Y80500D01*
X214715Y81362D01*
X214383Y82164D01*
X213854Y82854D01*
X213164Y83383D01*
X212362Y83715D01*
X211500Y83829D01*
D02*
G37*
G36*
X327453Y92135D02*
X321547D01*
X321235Y92072D01*
X320971Y91896D01*
X320794Y91631D01*
X320732Y91319D01*
Y85807D01*
X320794Y85495D01*
X320971Y85230D01*
X321235Y85053D01*
X321547Y84991D01*
X322920D01*
Y81655D01*
X322345Y81080D01*
X320917D01*
X320883Y81164D01*
X320354Y81854D01*
X319664Y82383D01*
X318862Y82715D01*
X318000Y82828D01*
X317139Y82715D01*
X316336Y82383D01*
X315646Y81854D01*
X315118Y81164D01*
X314785Y80361D01*
X314671Y79500D01*
X314785Y78638D01*
X315118Y77836D01*
X315646Y77146D01*
X316336Y76617D01*
X317139Y76285D01*
X318000Y76171D01*
X318862Y76285D01*
X319664Y76617D01*
X320354Y77146D01*
X320883Y77836D01*
X320917Y77920D01*
X323000D01*
X323605Y78040D01*
X324117Y78382D01*
X325618Y79883D01*
X325960Y80395D01*
X326080Y81000D01*
Y84991D01*
X327453D01*
X327765Y85053D01*
X328029Y85230D01*
X328206Y85495D01*
X328268Y85807D01*
Y91319D01*
X328206Y91631D01*
X328029Y91896D01*
X327765Y92072D01*
X327453Y92135D01*
D02*
G37*
G36*
X22403Y80000D02*
X19500D01*
Y77097D01*
X19544Y77103D01*
X20517Y77506D01*
X21353Y78147D01*
X21994Y78983D01*
X22397Y79956D01*
X22403Y80000D01*
D02*
G37*
G36*
X268000Y78461D02*
X266047D01*
X265657Y78383D01*
X265326Y78162D01*
X265105Y77831D01*
X265028Y77441D01*
Y75685D01*
X268000D01*
Y78461D01*
D02*
G37*
G36*
X271953D02*
X270000D01*
Y75685D01*
X272972D01*
Y77441D01*
X272895Y77831D01*
X272674Y78162D01*
X272343Y78383D01*
X271953Y78461D01*
D02*
G37*
G36*
X17500Y80000D02*
X14597D01*
X14603Y79956D01*
X15006Y78983D01*
X15647Y78147D01*
X16483Y77506D01*
X17456Y77103D01*
X17500Y77097D01*
Y80000D01*
D02*
G37*
G36*
X26500Y130785D02*
X25520Y130656D01*
X24607Y130278D01*
X23823Y129676D01*
X23222Y128893D01*
X22844Y127980D01*
X22715Y127000D01*
X22844Y126020D01*
X23222Y125107D01*
X23823Y124323D01*
X24607Y123722D01*
X25520Y123344D01*
X26500Y123215D01*
X27480Y123344D01*
X28393Y123722D01*
X29177Y124323D01*
X29778Y125107D01*
X30156Y126020D01*
X30285Y127000D01*
X30156Y127980D01*
X29778Y128893D01*
X29177Y129676D01*
X28393Y130278D01*
X27480Y130656D01*
X26500Y130785D01*
D02*
G37*
G36*
X61500Y133828D02*
X56500D01*
X55638Y133715D01*
X54836Y133382D01*
X54146Y132854D01*
X53617Y132164D01*
X53285Y131361D01*
X53171Y130500D01*
X53285Y129639D01*
X53617Y128836D01*
X54146Y128146D01*
X54836Y127618D01*
X55638Y127285D01*
X56500Y127172D01*
X61500D01*
X62362Y127285D01*
X63164Y127618D01*
X63854Y128146D01*
X64383Y128836D01*
X64715Y129639D01*
X64828Y130500D01*
X64715Y131361D01*
X64383Y132164D01*
X63854Y132854D01*
X63164Y133382D01*
X62362Y133715D01*
X61500Y133828D01*
D02*
G37*
G36*
X211500D02*
X206500D01*
X205639Y133715D01*
X204836Y133382D01*
X204146Y132854D01*
X203618Y132164D01*
X203285Y131361D01*
X203171Y130500D01*
X203285Y129639D01*
X203618Y128836D01*
X204146Y128146D01*
X204836Y127618D01*
X205639Y127285D01*
X206500Y127172D01*
X211500D01*
X212362Y127285D01*
X213164Y127618D01*
X213854Y128146D01*
X214383Y128836D01*
X214715Y129639D01*
X214828Y130500D01*
X214715Y131361D01*
X214383Y132164D01*
X213854Y132854D01*
X213164Y133382D01*
X212362Y133715D01*
X211500Y133828D01*
D02*
G37*
G36*
X61500Y193828D02*
X56500D01*
X55638Y193715D01*
X54836Y193383D01*
X54146Y192854D01*
X53617Y192164D01*
X53285Y191361D01*
X53171Y190500D01*
X53285Y189638D01*
X53617Y188836D01*
X54146Y188146D01*
X54836Y187618D01*
X55638Y187285D01*
X56500Y187171D01*
X61500D01*
X62362Y187285D01*
X63164Y187618D01*
X63854Y188146D01*
X64383Y188836D01*
X64417Y188920D01*
X79345D01*
X131082Y137182D01*
X131595Y136840D01*
X132200Y136720D01*
X184745D01*
X195473Y125993D01*
X195408Y125500D01*
X195503Y124777D01*
X195782Y124104D01*
X196226Y123526D01*
X196804Y123082D01*
X197477Y122803D01*
X198200Y122708D01*
X198923Y122803D01*
X199596Y123082D01*
X200174Y123526D01*
X200618Y124104D01*
X200897Y124777D01*
X200992Y125500D01*
X200897Y126223D01*
X200618Y126896D01*
X200174Y127474D01*
X199596Y127918D01*
X198923Y128197D01*
X198200Y128292D01*
X197707Y128227D01*
X186518Y139418D01*
X186005Y139760D01*
X185400Y139880D01*
X132855D01*
X81117Y191618D01*
X80605Y191960D01*
X80000Y192080D01*
X64417D01*
X64383Y192164D01*
X63854Y192854D01*
X63164Y193383D01*
X62362Y193715D01*
X61500Y193828D01*
D02*
G37*
G36*
X538949Y112724D02*
X536799D01*
X535948Y112555D01*
X535227Y112073D01*
X534844Y111500D01*
X538949D01*
Y112724D01*
D02*
G37*
G36*
X543098D02*
X540949D01*
Y111500D01*
X545053D01*
X544671Y112073D01*
X543949Y112555D01*
X543098Y112724D01*
D02*
G37*
G36*
X211500Y123828D02*
X206500D01*
X205639Y123715D01*
X204836Y123382D01*
X204146Y122854D01*
X203618Y122164D01*
X203285Y121361D01*
X203171Y120500D01*
X203285Y119639D01*
X203618Y118836D01*
X204146Y118146D01*
X204836Y117617D01*
X205639Y117285D01*
X206500Y117172D01*
X211500D01*
X212362Y117285D01*
X213164Y117617D01*
X213854Y118146D01*
X214383Y118836D01*
X214715Y119639D01*
X214828Y120500D01*
X214715Y121361D01*
X214383Y122164D01*
X213854Y122854D01*
X213164Y123382D01*
X212362Y123715D01*
X211500Y123828D01*
D02*
G37*
G36*
X61500Y143828D02*
X56500D01*
X55638Y143715D01*
X54836Y143383D01*
X54146Y142854D01*
X53617Y142164D01*
X53285Y141361D01*
X53171Y140500D01*
X53285Y139638D01*
X53617Y138836D01*
X54146Y138146D01*
X54836Y137618D01*
X55638Y137285D01*
X56500Y137171D01*
X61500D01*
X62362Y137285D01*
X63164Y137618D01*
X63854Y138146D01*
X64383Y138836D01*
X64715Y139638D01*
X64828Y140500D01*
X64715Y141361D01*
X64383Y142164D01*
X63854Y142854D01*
X63164Y143383D01*
X62362Y143715D01*
X61500Y143828D01*
D02*
G37*
G36*
X26500Y150785D02*
X25520Y150656D01*
X24607Y150278D01*
X23823Y149677D01*
X23222Y148893D01*
X22844Y147980D01*
X22715Y147000D01*
X22844Y146020D01*
X23222Y145107D01*
X23823Y144324D01*
X24607Y143722D01*
X25520Y143344D01*
X26500Y143215D01*
X27480Y143344D01*
X28393Y143722D01*
X29177Y144324D01*
X29778Y145107D01*
X30156Y146020D01*
X30285Y147000D01*
X30156Y147980D01*
X29778Y148893D01*
X29177Y149677D01*
X28393Y150278D01*
X27480Y150656D01*
X26500Y150785D01*
D02*
G37*
G36*
X61500Y153829D02*
X56500D01*
X55638Y153715D01*
X54836Y153383D01*
X54146Y152854D01*
X53617Y152164D01*
X53285Y151362D01*
X53171Y150500D01*
X53285Y149638D01*
X53617Y148836D01*
X54146Y148146D01*
X54836Y147617D01*
X55638Y147285D01*
X56500Y147171D01*
X61500D01*
X62362Y147285D01*
X63164Y147617D01*
X63854Y148146D01*
X64383Y148836D01*
X64715Y149638D01*
X64828Y150500D01*
X64715Y151362D01*
X64383Y152164D01*
X63854Y152854D01*
X63164Y153383D01*
X62362Y153715D01*
X61500Y153829D01*
D02*
G37*
G36*
X211500D02*
X206500D01*
X205639Y153715D01*
X204836Y153383D01*
X204146Y152854D01*
X203618Y152164D01*
X203285Y151362D01*
X203171Y150500D01*
X203285Y149638D01*
X203618Y148836D01*
X204146Y148146D01*
X204836Y147617D01*
X205639Y147285D01*
X206500Y147171D01*
X211500D01*
X212362Y147285D01*
X213164Y147617D01*
X213854Y148146D01*
X214383Y148836D01*
X214715Y149638D01*
X214828Y150500D01*
X214715Y151362D01*
X214383Y152164D01*
X213854Y152854D01*
X213164Y153383D01*
X212362Y153715D01*
X211500Y153829D01*
D02*
G37*
G36*
X548443Y150551D02*
X538000D01*
Y143010D01*
X540000D01*
X541666Y143174D01*
X543269Y143660D01*
X544745Y144449D01*
X546039Y145512D01*
X547102Y146806D01*
X547891Y148283D01*
X548377Y149885D01*
X548443Y150551D01*
D02*
G37*
G36*
X211500Y143828D02*
X206500D01*
X205639Y143715D01*
X204836Y143383D01*
X204146Y142854D01*
X203618Y142164D01*
X203285Y141361D01*
X203171Y140500D01*
X203285Y139638D01*
X203618Y138836D01*
X204146Y138146D01*
X204836Y137618D01*
X205639Y137285D01*
X206500Y137171D01*
X211500D01*
X212362Y137285D01*
X213164Y137618D01*
X213854Y138146D01*
X214383Y138836D01*
X214715Y139638D01*
X214828Y140500D01*
X214715Y141361D01*
X214383Y142164D01*
X213854Y142854D01*
X213164Y143383D01*
X212362Y143715D01*
X211500Y143828D01*
D02*
G37*
G36*
X315500Y142792D02*
X314777Y142697D01*
X314104Y142418D01*
X313526Y141974D01*
X313082Y141396D01*
X312803Y140723D01*
X312708Y140000D01*
X312772Y139507D01*
X310383Y137118D01*
X310040Y136605D01*
X309920Y136000D01*
Y107020D01*
X308350D01*
X307577Y106866D01*
X306922Y106428D01*
X306484Y105773D01*
X306330Y105000D01*
X306484Y104227D01*
X306922Y103572D01*
X307577Y103134D01*
X308350Y102980D01*
X314650D01*
X315423Y103134D01*
X315850Y103420D01*
X320345D01*
X322920Y100845D01*
Y100009D01*
X321547D01*
X321235Y99946D01*
X320971Y99770D01*
X320794Y99505D01*
X320732Y99193D01*
Y93681D01*
X320794Y93369D01*
X320971Y93104D01*
X321235Y92927D01*
X321547Y92865D01*
X327453D01*
X327765Y92927D01*
X328029Y93104D01*
X328206Y93369D01*
X328268Y93681D01*
Y99193D01*
X328206Y99505D01*
X328029Y99770D01*
X327765Y99946D01*
X327453Y100009D01*
X326080D01*
Y101500D01*
X325960Y102105D01*
X325618Y102618D01*
X322117Y106117D01*
X321605Y106460D01*
X321000Y106580D01*
X315850D01*
X315423Y106866D01*
X314650Y107020D01*
X313080D01*
Y135345D01*
X315007Y137273D01*
X315500Y137208D01*
X316223Y137303D01*
X316896Y137582D01*
X317475Y138025D01*
X317918Y138604D01*
X318197Y139277D01*
X318292Y140000D01*
X318197Y140723D01*
X317918Y141396D01*
X317475Y141974D01*
X316896Y142418D01*
X316223Y142697D01*
X315500Y142792D01*
D02*
G37*
G36*
X536000Y150551D02*
X525557D01*
X525623Y149885D01*
X526109Y148283D01*
X526898Y146806D01*
X527960Y145512D01*
X529255Y144449D01*
X530731Y143660D01*
X532334Y143174D01*
X534000Y143010D01*
X536000D01*
Y150551D01*
D02*
G37*
G36*
X382000Y113903D02*
Y111000D01*
X384903D01*
X384897Y111044D01*
X384494Y112017D01*
X383853Y112853D01*
X383017Y113494D01*
X382044Y113897D01*
X382000Y113903D01*
D02*
G37*
G36*
X426874Y107000D02*
X424500D01*
Y104626D01*
X425265Y104943D01*
X425996Y105504D01*
X426557Y106235D01*
X426874Y107000D01*
D02*
G37*
G36*
X384903Y109000D02*
X382000D01*
Y106097D01*
X382044Y106103D01*
X383017Y106506D01*
X383853Y107147D01*
X384494Y107983D01*
X384897Y108956D01*
X384903Y109000D01*
D02*
G37*
G36*
X322900Y133992D02*
X322177Y133897D01*
X321504Y133618D01*
X320925Y133175D01*
X320482Y132596D01*
X320203Y131923D01*
X320108Y131200D01*
X320203Y130477D01*
X320482Y129804D01*
X320925Y129226D01*
X321504Y128782D01*
X322177Y128503D01*
X322900Y128408D01*
X323393Y128472D01*
X342983Y108882D01*
X343495Y108540D01*
X344100Y108420D01*
X345369D01*
Y107047D01*
X345431Y106735D01*
X345608Y106471D01*
X345873Y106294D01*
X346185Y106232D01*
X351697D01*
X352009Y106294D01*
X352274Y106471D01*
X352450Y106735D01*
X352513Y107047D01*
Y112953D01*
X352450Y113265D01*
X352274Y113530D01*
X352009Y113706D01*
X351697Y113768D01*
X346185D01*
X345873Y113706D01*
X345608Y113530D01*
X345431Y113265D01*
X345369Y112953D01*
Y111580D01*
X344755D01*
X325627Y130707D01*
X325692Y131200D01*
X325597Y131923D01*
X325318Y132596D01*
X324874Y133175D01*
X324296Y133618D01*
X323623Y133897D01*
X322900Y133992D01*
D02*
G37*
G36*
X422500Y107000D02*
X420126D01*
X420443Y106235D01*
X421004Y105504D01*
X421735Y104943D01*
X422500Y104626D01*
Y107000D01*
D02*
G37*
G36*
X545053Y104500D02*
X539949D01*
X534844D01*
X535227Y103928D01*
X535948Y103445D01*
X536799Y103276D01*
X538368D01*
Y102724D01*
X536799D01*
X535948Y102555D01*
X535227Y102073D01*
X534844Y101500D01*
X539949D01*
X545053D01*
X544671Y102073D01*
X543949Y102555D01*
X543098Y102724D01*
X541529D01*
Y103276D01*
X543098D01*
X543949Y103445D01*
X544671Y103928D01*
X545053Y104500D01*
D02*
G37*
G36*
X459000Y105437D02*
X456028D01*
Y103681D01*
X456105Y103291D01*
X456326Y102960D01*
X456657Y102739D01*
X457047Y102662D01*
X459000D01*
Y105437D01*
D02*
G37*
G36*
X463972D02*
X461000D01*
Y102662D01*
X462953D01*
X463343Y102739D01*
X463674Y102960D01*
X463895Y103291D01*
X463972Y103681D01*
Y105437D01*
D02*
G37*
G36*
X545053Y109500D02*
X539949D01*
X534844D01*
X535227Y108928D01*
X535948Y108446D01*
X536799Y108276D01*
X538368D01*
Y107724D01*
X536799D01*
X535948Y107554D01*
X535227Y107072D01*
X534844Y106500D01*
X539949D01*
X545053D01*
X544671Y107072D01*
X543949Y107554D01*
X543098Y107724D01*
X541529D01*
Y108276D01*
X543098D01*
X543949Y108446D01*
X544671Y108928D01*
X545053Y109500D01*
D02*
G37*
G36*
X480000Y344833D02*
X479008Y344702D01*
X478084Y344319D01*
X477290Y343710D01*
X476681Y342916D01*
X476298Y341992D01*
X476167Y341000D01*
X476298Y340008D01*
X476681Y339084D01*
X477290Y338290D01*
X478084Y337681D01*
X479008Y337298D01*
X480000Y337167D01*
X480992Y337298D01*
X481328Y337437D01*
X486179Y332586D01*
Y317601D01*
X486002Y317482D01*
X485825Y317218D01*
X485763Y316905D01*
Y312378D01*
X485825Y312066D01*
X486002Y311801D01*
X486267Y311624D01*
X486579Y311562D01*
X488941D01*
X489253Y311624D01*
X489518Y311801D01*
X489694Y312066D01*
X489757Y312378D01*
Y316905D01*
X489694Y317218D01*
X489518Y317482D01*
X489340Y317601D01*
Y320373D01*
X489488Y320478D01*
X489840Y320594D01*
X490007Y320483D01*
X490319Y320421D01*
X492681D01*
X492993Y320483D01*
X493258Y320659D01*
X493435Y320924D01*
X493497Y321236D01*
Y321920D01*
X499345D01*
X509468Y311797D01*
Y255497D01*
X509420Y255251D01*
X509540Y254646D01*
X509882Y254134D01*
X515420Y248596D01*
Y147431D01*
X513864Y145875D01*
X513521Y145362D01*
X513401Y144757D01*
Y141843D01*
X513521Y141238D01*
X513864Y140725D01*
X515420Y139170D01*
Y116630D01*
X506864Y108075D01*
X506521Y107562D01*
X506401Y106957D01*
Y102136D01*
X506345Y102080D01*
X491437D01*
X490832Y101960D01*
X490319Y101618D01*
X488845Y100143D01*
X463768D01*
Y101319D01*
X463706Y101631D01*
X463529Y101896D01*
X463265Y102073D01*
X462953Y102135D01*
X457047D01*
X456735Y102073D01*
X456470Y101896D01*
X456294Y101631D01*
X456232Y101319D01*
Y95807D01*
X456294Y95495D01*
X456470Y95230D01*
X456735Y95053D01*
X457047Y94991D01*
X458420D01*
Y85925D01*
X458404Y85918D01*
X457826Y85474D01*
X457382Y84896D01*
X457103Y84223D01*
X457008Y83500D01*
X457103Y82777D01*
X457382Y82104D01*
X457826Y81525D01*
X458404Y81082D01*
X458420Y81075D01*
Y61400D01*
X458540Y60795D01*
X458883Y60282D01*
X467354Y51811D01*
X467053Y51405D01*
X466530Y51684D01*
X465437Y52016D01*
X464300Y52128D01*
X463163Y52016D01*
X462070Y51684D01*
X461471Y51364D01*
X458418Y54418D01*
X457905Y54760D01*
X457300Y54880D01*
X450663D01*
X450589Y55380D01*
X451461Y55645D01*
X453024Y56481D01*
X454395Y57605D01*
X455519Y58976D01*
X456355Y60539D01*
X456870Y62236D01*
X456945Y63000D01*
X448000D01*
X439055D01*
X439130Y62236D01*
X439645Y60539D01*
X440481Y58976D01*
X441605Y57605D01*
X442976Y56481D01*
X444539Y55645D01*
X445411Y55380D01*
X445337Y54880D01*
X433509D01*
Y54953D01*
X433447Y55265D01*
X433270Y55529D01*
X433005Y55706D01*
X432693Y55768D01*
X427181D01*
X426869Y55706D01*
X426604Y55529D01*
X426428Y55265D01*
X426365Y54953D01*
Y49047D01*
X426428Y48735D01*
X426604Y48471D01*
X426869Y48294D01*
X427181Y48232D01*
X432693D01*
X433005Y48294D01*
X433270Y48471D01*
X433447Y48735D01*
X433509Y49047D01*
Y51720D01*
X444400D01*
X444537Y51220D01*
X443737Y50563D01*
X442987Y49650D01*
X442430Y48607D01*
X442087Y47476D01*
X442069Y47300D01*
X448000D01*
X453931D01*
X453913Y47476D01*
X453570Y48607D01*
X453013Y49650D01*
X452263Y50563D01*
X451463Y51220D01*
X451600Y51720D01*
X456645D01*
X459236Y49129D01*
X458916Y48530D01*
X458584Y47437D01*
X458472Y46300D01*
X458584Y45163D01*
X458916Y44070D01*
X459454Y43062D01*
X460179Y42179D01*
X461062Y41454D01*
X462070Y40916D01*
X463163Y40584D01*
X464300Y40472D01*
X465437Y40584D01*
X466530Y40916D01*
X467538Y41454D01*
X468421Y42179D01*
X469146Y43062D01*
X469684Y44070D01*
X470016Y45163D01*
X470128Y46300D01*
X470016Y47437D01*
X469684Y48530D01*
X469405Y49053D01*
X469811Y49354D01*
X487920Y31245D01*
Y21194D01*
X487707Y21106D01*
X486964Y20536D01*
X486394Y19793D01*
X486036Y18928D01*
X485913Y18000D01*
X486036Y17072D01*
X486394Y16207D01*
X486964Y15464D01*
X487707Y14894D01*
X488572Y14536D01*
X489500Y14413D01*
X490428Y14536D01*
X491293Y14894D01*
X492036Y15464D01*
X492606Y16207D01*
X492964Y17072D01*
X493087Y18000D01*
X492964Y18928D01*
X492606Y19793D01*
X492036Y20536D01*
X491293Y21106D01*
X491080Y21194D01*
Y31900D01*
X490960Y32505D01*
X490618Y33018D01*
X461580Y62055D01*
Y81376D01*
X461774Y81525D01*
X462218Y82104D01*
X462497Y82777D01*
X462592Y83500D01*
X462497Y84223D01*
X462218Y84896D01*
X461774Y85474D01*
X461580Y85624D01*
Y94991D01*
X462953D01*
X463265Y95053D01*
X463529Y95230D01*
X463706Y95495D01*
X463768Y95807D01*
Y96983D01*
X489500D01*
X490105Y97103D01*
X490618Y97445D01*
X492092Y98920D01*
X516701D01*
X517129Y98634D01*
X517902Y98480D01*
X524201D01*
X524974Y98634D01*
X525629Y99072D01*
X526067Y99727D01*
X526221Y100500D01*
X526067Y101273D01*
X525629Y101928D01*
X524974Y102366D01*
X524201Y102520D01*
X517902D01*
X517129Y102366D01*
X516701Y102080D01*
X509562D01*
Y102932D01*
X510010Y103154D01*
X510104Y103082D01*
X510777Y102803D01*
X511500Y102708D01*
X512223Y102803D01*
X512896Y103082D01*
X513475Y103525D01*
X513777Y103920D01*
X516701D01*
X517129Y103634D01*
X517902Y103480D01*
X524201D01*
X524974Y103634D01*
X525629Y104072D01*
X526067Y104727D01*
X526221Y105500D01*
X526067Y106273D01*
X525629Y106928D01*
X524974Y107366D01*
X524201Y107520D01*
X517902D01*
X517129Y107366D01*
X516701Y107080D01*
X513777D01*
X513475Y107475D01*
X512896Y107918D01*
X512223Y108197D01*
X512106Y108213D01*
X511945Y108686D01*
X518118Y114858D01*
X518460Y115371D01*
X518580Y115976D01*
Y139824D01*
X518963Y140219D01*
X519096Y140230D01*
X519520Y139835D01*
Y112520D01*
X517902D01*
X517129Y112366D01*
X516473Y111928D01*
X516035Y111273D01*
X515882Y110500D01*
X516035Y109727D01*
X516473Y109072D01*
X517129Y108634D01*
X517902Y108480D01*
X524201D01*
X524974Y108634D01*
X525629Y109072D01*
X526067Y109727D01*
X526221Y110500D01*
X526067Y111273D01*
X525629Y111928D01*
X524974Y112366D01*
X524201Y112520D01*
X522680D01*
Y140700D01*
X522560Y141305D01*
X522218Y141817D01*
X521228Y142807D01*
X521292Y143300D01*
X521197Y144023D01*
X520918Y144696D01*
X520474Y145274D01*
X519896Y145718D01*
X519223Y145997D01*
X518926Y146036D01*
X518542Y146582D01*
X518580Y146776D01*
Y249251D01*
X518460Y249856D01*
X518118Y250368D01*
X512629Y255857D01*
Y312451D01*
X512509Y313056D01*
X512166Y313569D01*
X501523Y324212D01*
X501580Y324500D01*
Y337184D01*
X503000D01*
X503312Y337246D01*
X503577Y337423D01*
X503754Y337688D01*
X503816Y338000D01*
Y344000D01*
X503754Y344312D01*
X503577Y344577D01*
X503312Y344754D01*
X503000Y344816D01*
X497000D01*
X496688Y344754D01*
X496423Y344577D01*
X496246Y344312D01*
X496184Y344000D01*
Y338000D01*
X496246Y337688D01*
X496423Y337423D01*
X496688Y337246D01*
X497000Y337184D01*
X498420D01*
Y325155D01*
X498345Y325080D01*
X493497D01*
Y325764D01*
X493435Y326076D01*
X493258Y326341D01*
X492993Y326517D01*
X492681Y326579D01*
X490319D01*
X490007Y326517D01*
X489840Y326406D01*
X489488Y326522D01*
X489340Y326627D01*
Y333240D01*
X489220Y333845D01*
X488877Y334358D01*
X483563Y339672D01*
X483702Y340008D01*
X483833Y341000D01*
X483702Y341992D01*
X483319Y342916D01*
X482710Y343710D01*
X481916Y344319D01*
X480992Y344702D01*
X480000Y344833D01*
D02*
G37*
G36*
X422500Y111374D02*
X421735Y111057D01*
X421004Y110496D01*
X420443Y109765D01*
X420126Y109000D01*
X422500D01*
Y111374D01*
D02*
G37*
G36*
X424500Y111374D02*
Y109000D01*
X426874D01*
X426557Y109765D01*
X425996Y110496D01*
X425265Y111057D01*
X424500Y111374D01*
D02*
G37*
G36*
X462953Y110213D02*
X461000D01*
Y107437D01*
X463972D01*
Y109193D01*
X463895Y109583D01*
X463674Y109914D01*
X463343Y110135D01*
X462953Y110213D01*
D02*
G37*
G36*
X61500Y113829D02*
X56500D01*
X55638Y113715D01*
X54836Y113382D01*
X54146Y112854D01*
X53617Y112164D01*
X53285Y111362D01*
X53171Y110500D01*
X53285Y109639D01*
X53617Y108836D01*
X54146Y108146D01*
X54836Y107617D01*
X55638Y107285D01*
X56500Y107171D01*
X61500D01*
X62362Y107285D01*
X63164Y107617D01*
X63854Y108146D01*
X64383Y108836D01*
X64715Y109639D01*
X64828Y110500D01*
X64715Y111362D01*
X64383Y112164D01*
X63854Y112854D01*
X63164Y113382D01*
X62362Y113715D01*
X61500Y113829D01*
D02*
G37*
G36*
X211500D02*
X206500D01*
X205639Y113715D01*
X204836Y113382D01*
X204146Y112854D01*
X203618Y112164D01*
X203285Y111362D01*
X203171Y110500D01*
X203285Y109639D01*
X203618Y108836D01*
X204146Y108146D01*
X204836Y107617D01*
X205639Y107285D01*
X206500Y107171D01*
X211500D01*
X212362Y107285D01*
X213164Y107617D01*
X213854Y108146D01*
X214383Y108836D01*
X214715Y109639D01*
X214828Y110500D01*
X214715Y111362D01*
X214383Y112164D01*
X213854Y112854D01*
X213164Y113382D01*
X212362Y113715D01*
X211500Y113829D01*
D02*
G37*
G36*
X459000Y110213D02*
X457047D01*
X456657Y110135D01*
X456326Y109914D01*
X456105Y109583D01*
X456028Y109193D01*
Y107437D01*
X459000D01*
Y110213D01*
D02*
G37*
G36*
X577000Y45979D02*
Y26000D01*
X596980D01*
X596865Y27747D01*
X596328Y30447D01*
X595443Y33054D01*
X594226Y35522D01*
X592696Y37811D01*
X590881Y39881D01*
X588811Y41696D01*
X586522Y43226D01*
X584054Y44443D01*
X581447Y45328D01*
X578747Y45865D01*
X577000Y45979D01*
D02*
G37*
G36*
X329800Y31500D02*
X324780D01*
Y27500D01*
X324858Y27110D01*
X325079Y26779D01*
X325410Y26558D01*
X325800Y26480D01*
X329800D01*
Y31500D01*
D02*
G37*
G36*
X336820D02*
X331800D01*
Y26480D01*
X335800D01*
X336190Y26558D01*
X336521Y26779D01*
X336742Y27110D01*
X336820Y27500D01*
Y31500D01*
D02*
G37*
G36*
X575000Y45979D02*
X573253Y45865D01*
X570553Y45328D01*
X567946Y44443D01*
X565478Y43226D01*
X563189Y41696D01*
X561119Y39881D01*
X559304Y37811D01*
X557774Y35522D01*
X556557Y33054D01*
X555672Y30447D01*
X555135Y27747D01*
X555021Y26000D01*
X575000D01*
Y45979D01*
D02*
G37*
G36*
X407275Y34500D02*
X403500D01*
X399725D01*
Y32547D01*
X399802Y32157D01*
X400023Y31826D01*
X400354Y31605D01*
X400744Y31528D01*
X401920D01*
Y29472D01*
X400685D01*
X400295Y29395D01*
X399964Y29174D01*
X399743Y28843D01*
X399665Y28453D01*
Y25439D01*
X393941D01*
Y26122D01*
X393863Y26512D01*
X393642Y26843D01*
X393311Y27064D01*
X392921Y27142D01*
X392740D01*
Y23858D01*
Y20575D01*
X392921D01*
X393311Y20652D01*
X393642Y20874D01*
X393863Y21204D01*
X393941Y21595D01*
Y22278D01*
X399719D01*
X399743Y22157D01*
X399964Y21826D01*
X400295Y21605D01*
X400685Y21528D01*
X401861D01*
Y16972D01*
X400685D01*
X400295Y16895D01*
X399964Y16674D01*
X399743Y16343D01*
X399665Y15953D01*
Y14000D01*
X403441D01*
X407217D01*
Y15953D01*
X407139Y16343D01*
X406918Y16674D01*
X406587Y16895D01*
X406197Y16972D01*
X405021D01*
Y21528D01*
X406197D01*
X406587Y21605D01*
X406918Y21826D01*
X407139Y22157D01*
X407217Y22547D01*
Y24500D01*
X403441D01*
Y26500D01*
X407217D01*
Y28453D01*
X407139Y28843D01*
X406918Y29174D01*
X406587Y29395D01*
X406197Y29472D01*
X405080D01*
Y31528D01*
X406256D01*
X406646Y31605D01*
X406977Y31826D01*
X407198Y32157D01*
X407275Y32547D01*
Y34500D01*
D02*
G37*
G36*
X25000Y45979D02*
X23253Y45865D01*
X20553Y45328D01*
X17946Y44443D01*
X15477Y43226D01*
X13189Y41696D01*
X11119Y39881D01*
X9304Y37811D01*
X7774Y35522D01*
X6557Y33054D01*
X5672Y30447D01*
X5135Y27747D01*
X5020Y26000D01*
X25000D01*
Y45979D01*
D02*
G37*
G36*
X27000D02*
Y26000D01*
X46979D01*
X46865Y27747D01*
X46328Y30447D01*
X45443Y33054D01*
X44226Y35522D01*
X42696Y37811D01*
X40881Y39881D01*
X38811Y41696D01*
X36522Y43226D01*
X34054Y44443D01*
X31447Y45328D01*
X28747Y45865D01*
X27000Y45979D01*
D02*
G37*
G36*
X313500Y31500D02*
X308570D01*
X308587Y31324D01*
X308930Y30193D01*
X309487Y29151D01*
X310237Y28237D01*
X311150Y27487D01*
X312193Y26930D01*
X313324Y26587D01*
X313500Y26570D01*
Y31500D01*
D02*
G37*
G36*
X329800Y38520D02*
X325800D01*
X325410Y38442D01*
X325079Y38221D01*
X324858Y37890D01*
X324780Y37500D01*
Y33500D01*
X329800D01*
Y38520D01*
D02*
G37*
G36*
X313500Y38431D02*
X313324Y38413D01*
X312193Y38070D01*
X311150Y37513D01*
X310237Y36763D01*
X309487Y35850D01*
X308930Y34807D01*
X308587Y33676D01*
X308570Y33500D01*
X313500D01*
Y38431D01*
D02*
G37*
G36*
X315500Y38431D02*
Y33500D01*
X320430D01*
X320413Y33676D01*
X320070Y34807D01*
X319513Y35850D01*
X318763Y36763D01*
X317849Y37513D01*
X316807Y38070D01*
X315676Y38413D01*
X315500Y38431D01*
D02*
G37*
G36*
X61500Y123828D02*
X56500D01*
X55638Y123715D01*
X54836Y123382D01*
X54146Y122854D01*
X53617Y122164D01*
X53285Y121361D01*
X53171Y120500D01*
X53285Y119639D01*
X53617Y118836D01*
X54146Y118146D01*
X54836Y117617D01*
X55638Y117285D01*
X56500Y117172D01*
X61500D01*
X62362Y117285D01*
X63164Y117617D01*
X63854Y118146D01*
X64383Y118836D01*
X64388Y118848D01*
X132420Y117941D01*
Y38077D01*
X132026Y37775D01*
X131582Y37196D01*
X131303Y36523D01*
X131208Y35800D01*
X131303Y35077D01*
X131582Y34404D01*
X132026Y33825D01*
X132604Y33382D01*
X133277Y33103D01*
X134000Y33008D01*
X134723Y33103D01*
X135396Y33382D01*
X135975Y33825D01*
X136418Y34404D01*
X136697Y35077D01*
X136792Y35800D01*
X136697Y36523D01*
X136418Y37196D01*
X135975Y37775D01*
X135580Y38077D01*
Y119500D01*
X135522Y119792D01*
X135468Y120085D01*
X135462Y120094D01*
X135460Y120105D01*
X135295Y120352D01*
X135132Y120603D01*
X135124Y120609D01*
X135117Y120617D01*
X134870Y120783D01*
X134624Y120952D01*
X134614Y120954D01*
X134605Y120960D01*
X134313Y121018D01*
X134021Y121080D01*
X64447Y122008D01*
X64383Y122164D01*
X63854Y122854D01*
X63164Y123382D01*
X62362Y123715D01*
X61500Y123828D01*
D02*
G37*
G36*
X320430Y31500D02*
X315500D01*
Y26570D01*
X315676Y26587D01*
X316807Y26930D01*
X317849Y27487D01*
X318763Y28237D01*
X319513Y29151D01*
X320070Y30193D01*
X320413Y31324D01*
X320430Y31500D01*
D02*
G37*
G36*
X463300Y35930D02*
X463124Y35913D01*
X461993Y35570D01*
X460951Y35013D01*
X460037Y34263D01*
X459287Y33349D01*
X458730Y32307D01*
X458387Y31176D01*
X458369Y31000D01*
X463300D01*
Y35930D01*
D02*
G37*
G36*
X465300D02*
Y31000D01*
X470230D01*
X470213Y31176D01*
X469870Y32307D01*
X469313Y33349D01*
X468563Y34263D01*
X467650Y35013D01*
X466607Y35570D01*
X465476Y35913D01*
X465300Y35930D01*
D02*
G37*
G36*
X390740Y27142D02*
X390559D01*
X390169Y27064D01*
X389838Y26843D01*
X389617Y26512D01*
X389540Y26122D01*
Y24858D01*
X390740D01*
Y27142D01*
D02*
G37*
G36*
X510500Y15000D02*
X507849D01*
X508219Y14106D01*
X508821Y13321D01*
X509606Y12719D01*
X510500Y12349D01*
Y15000D01*
D02*
G37*
G36*
X515151D02*
X512500D01*
Y12349D01*
X513394Y12719D01*
X514179Y13321D01*
X514781Y14106D01*
X515151Y15000D01*
D02*
G37*
G36*
X510500Y19651D02*
X509606Y19281D01*
X508821Y18679D01*
X508219Y17894D01*
X507849Y17000D01*
X510500D01*
Y19651D01*
D02*
G37*
G36*
X596980Y24000D02*
X577000D01*
Y4021D01*
X578747Y4135D01*
X581447Y4672D01*
X584054Y5557D01*
X586522Y6774D01*
X588811Y8304D01*
X590881Y10119D01*
X592696Y12189D01*
X594226Y14478D01*
X595443Y16946D01*
X596328Y19553D01*
X596865Y22253D01*
X596980Y24000D01*
D02*
G37*
G36*
X25000D02*
X5020D01*
X5135Y22253D01*
X5672Y19553D01*
X6557Y16946D01*
X7774Y14478D01*
X9304Y12189D01*
X11119Y10119D01*
X13189Y8304D01*
X15477Y6774D01*
X17946Y5557D01*
X20553Y4672D01*
X23253Y4135D01*
X25000Y4021D01*
Y24000D01*
D02*
G37*
G36*
X46979D02*
X27000D01*
Y4021D01*
X28747Y4135D01*
X31447Y4672D01*
X34054Y5557D01*
X36522Y6774D01*
X38811Y8304D01*
X40881Y10119D01*
X42696Y12189D01*
X44226Y14478D01*
X45443Y16946D01*
X46328Y19553D01*
X46865Y22253D01*
X46979Y24000D01*
D02*
G37*
G36*
X575000D02*
X555021D01*
X555135Y22253D01*
X555672Y19553D01*
X556557Y16946D01*
X557774Y14478D01*
X559304Y12189D01*
X561119Y10119D01*
X563189Y8304D01*
X565478Y6774D01*
X567946Y5557D01*
X570553Y4672D01*
X573253Y4135D01*
X575000Y4021D01*
Y24000D01*
D02*
G37*
G36*
X512500Y19651D02*
Y17000D01*
X515151D01*
X514781Y17894D01*
X514179Y18679D01*
X513394Y19281D01*
X512500Y19651D01*
D02*
G37*
G36*
X463300Y29000D02*
X458369D01*
X458387Y28824D01*
X458730Y27693D01*
X459287Y26651D01*
X460037Y25737D01*
X460951Y24987D01*
X461993Y24430D01*
X463124Y24087D01*
X463300Y24069D01*
Y29000D01*
D02*
G37*
G36*
X470230D02*
X465300D01*
Y24069D01*
X465476Y24087D01*
X466607Y24430D01*
X467650Y24987D01*
X468563Y25737D01*
X469313Y26651D01*
X469870Y27693D01*
X470213Y28824D01*
X470230Y29000D01*
D02*
G37*
G36*
X280800Y40840D02*
X279173Y40680D01*
X277608Y40205D01*
X276166Y39435D01*
X274903Y38397D01*
X273865Y37134D01*
X273095Y35692D01*
X272620Y34127D01*
X272460Y32500D01*
X272620Y30873D01*
X273095Y29308D01*
X273865Y27867D01*
X274903Y26603D01*
X276166Y25565D01*
X277608Y24795D01*
X279173Y24320D01*
X280800Y24160D01*
X282427Y24320D01*
X283992Y24795D01*
X285434Y25565D01*
X286697Y26603D01*
X287735Y27867D01*
X288505Y29308D01*
X288980Y30873D01*
X289140Y32500D01*
X288980Y34127D01*
X288505Y35692D01*
X287735Y37134D01*
X286697Y38397D01*
X285434Y39435D01*
X283992Y40205D01*
X282427Y40680D01*
X280800Y40840D01*
D02*
G37*
G36*
X433193Y25237D02*
X428665D01*
X428353Y25175D01*
X428089Y24998D01*
X427912Y24733D01*
X427850Y24421D01*
Y22059D01*
X427912Y21747D01*
X428089Y21482D01*
X428353Y21305D01*
X428665Y21243D01*
X433193D01*
X433505Y21305D01*
X433770Y21482D01*
X433947Y21747D01*
X434009Y22059D01*
Y24421D01*
X433947Y24733D01*
X433770Y24998D01*
X433505Y25175D01*
X433193Y25237D01*
D02*
G37*
G36*
X453000Y35816D02*
X443000D01*
X442688Y35754D01*
X442423Y35577D01*
X442246Y35312D01*
X442184Y35000D01*
Y26419D01*
X433467Y17702D01*
X433193Y17757D01*
X428665D01*
X428353Y17695D01*
X428089Y17518D01*
X427912Y17253D01*
X427850Y16941D01*
Y14579D01*
X427912Y14267D01*
X428089Y14002D01*
X428353Y13825D01*
X428665Y13763D01*
X433193D01*
X433505Y13825D01*
X433770Y14002D01*
X433908Y14209D01*
X434365Y14300D01*
X434877Y14642D01*
X444419Y24184D01*
X453000D01*
X453312Y24246D01*
X453577Y24423D01*
X453754Y24688D01*
X453816Y25000D01*
Y35000D01*
X453754Y35312D01*
X453577Y35577D01*
X453312Y35754D01*
X453000Y35816D01*
D02*
G37*
G36*
X390740Y22858D02*
X389540D01*
Y21595D01*
X389617Y21204D01*
X389838Y20874D01*
X390169Y20652D01*
X390559Y20575D01*
X390740D01*
Y22858D01*
D02*
G37*
G36*
X385441Y26938D02*
X383079D01*
X382767Y26876D01*
X382502Y26699D01*
X382325Y26434D01*
X382263Y26122D01*
Y21595D01*
X382325Y21282D01*
X382502Y21018D01*
X382767Y20841D01*
X383079Y20779D01*
X385441D01*
X385753Y20841D01*
X386018Y21018D01*
X386194Y21282D01*
X386257Y21595D01*
Y26122D01*
X386194Y26434D01*
X386018Y26699D01*
X385753Y26876D01*
X385441Y26938D01*
D02*
G37*
G36*
X61500Y63828D02*
X56500D01*
X55638Y63715D01*
X54836Y63383D01*
X54146Y62854D01*
X53617Y62164D01*
X53285Y61361D01*
X53171Y60500D01*
X53285Y59639D01*
X53617Y58836D01*
X54146Y58146D01*
X54836Y57617D01*
X55638Y57285D01*
X56500Y57171D01*
X61500D01*
X62362Y57285D01*
X63164Y57617D01*
X63854Y58146D01*
X64383Y58836D01*
X64715Y59639D01*
X64828Y60500D01*
X64715Y61361D01*
X64383Y62164D01*
X63854Y62854D01*
X63164Y63383D01*
X62362Y63715D01*
X61500Y63828D01*
D02*
G37*
G36*
X211500D02*
X206500D01*
X205639Y63715D01*
X204836Y63383D01*
X204146Y62854D01*
X203618Y62164D01*
X203285Y61361D01*
X203171Y60500D01*
X203285Y59639D01*
X203618Y58836D01*
X204146Y58146D01*
X204836Y57617D01*
X205639Y57285D01*
X206500Y57171D01*
X211500D01*
X212362Y57285D01*
X213164Y57617D01*
X213854Y58146D01*
X214383Y58836D01*
X214715Y59639D01*
X214828Y60500D01*
X214715Y61361D01*
X214383Y62164D01*
X213854Y62854D01*
X213164Y63383D01*
X212362Y63715D01*
X211500Y63828D01*
D02*
G37*
G36*
X382000Y63903D02*
Y61000D01*
X384903D01*
X384897Y61044D01*
X384494Y62017D01*
X383853Y62853D01*
X383017Y63494D01*
X382044Y63897D01*
X382000Y63903D01*
D02*
G37*
G36*
X384903Y59000D02*
X382000D01*
Y56097D01*
X382044Y56103D01*
X383017Y56506D01*
X383853Y57147D01*
X384494Y57983D01*
X384897Y58956D01*
X384903Y59000D01*
D02*
G37*
G36*
X389100Y211892D02*
X388377Y211797D01*
X387704Y211518D01*
X387125Y211074D01*
X386682Y210496D01*
X386403Y209823D01*
X386308Y209100D01*
X386403Y208377D01*
X386682Y207704D01*
X387125Y207125D01*
X387704Y206682D01*
X388377Y206403D01*
X389100Y206308D01*
X389593Y206372D01*
X409357Y186608D01*
Y53580D01*
X401655D01*
X401151Y54084D01*
X401186Y54611D01*
X401258Y54659D01*
X401435Y54924D01*
X401497Y55236D01*
Y59764D01*
X401435Y60076D01*
X401258Y60340D01*
X400993Y60517D01*
X400681Y60579D01*
X398319D01*
X398007Y60517D01*
X397742Y60340D01*
X397565Y60076D01*
X397503Y59764D01*
Y55236D01*
X397565Y54924D01*
X397742Y54659D01*
X397920Y54541D01*
Y53500D01*
X398040Y52895D01*
X398382Y52382D01*
X399883Y50883D01*
X400395Y50540D01*
X401000Y50420D01*
X409357D01*
Y48768D01*
X408618D01*
X408306Y48706D01*
X408041Y48529D01*
X407865Y48265D01*
X407802Y47953D01*
Y42047D01*
X407865Y41735D01*
X408041Y41471D01*
X408306Y41294D01*
X408618Y41232D01*
X409794D01*
Y39268D01*
X408618D01*
X408306Y39206D01*
X408041Y39029D01*
X407865Y38765D01*
X407802Y38453D01*
Y32547D01*
X407865Y32235D01*
X408041Y31971D01*
X408306Y31794D01*
X408618Y31732D01*
X414130D01*
X414442Y31794D01*
X414707Y31971D01*
X414884Y32235D01*
X414946Y32547D01*
Y38453D01*
X414884Y38765D01*
X414707Y39029D01*
X414442Y39206D01*
X414130Y39268D01*
X412954D01*
Y41232D01*
X414130D01*
X414442Y41294D01*
X414707Y41471D01*
X414884Y41735D01*
X414946Y42047D01*
Y47953D01*
X414884Y48265D01*
X414707Y48529D01*
X414442Y48706D01*
X414130Y48768D01*
X412517D01*
Y50420D01*
X418491D01*
Y49047D01*
X418553Y48735D01*
X418730Y48471D01*
X418995Y48294D01*
X419307Y48232D01*
X424819D01*
X425131Y48294D01*
X425396Y48471D01*
X425572Y48735D01*
X425635Y49047D01*
Y54953D01*
X425572Y55265D01*
X425396Y55529D01*
X425131Y55706D01*
X424819Y55768D01*
X419307D01*
X418995Y55706D01*
X418730Y55529D01*
X418553Y55265D01*
X418491Y54953D01*
Y53580D01*
X412517D01*
Y187263D01*
X412397Y187868D01*
X412054Y188381D01*
X391828Y208607D01*
X391892Y209100D01*
X391797Y209823D01*
X391518Y210496D01*
X391074Y211074D01*
X390496Y211518D01*
X389823Y211797D01*
X389100Y211892D01*
D02*
G37*
G36*
X311717Y66547D02*
X308189D01*
X307799Y66470D01*
X307468Y66249D01*
X307247Y65918D01*
X307170Y65528D01*
Y62580D01*
X302800D01*
X302195Y62460D01*
X301682Y62117D01*
X301340Y61605D01*
X301220Y61000D01*
X301340Y60395D01*
X301682Y59882D01*
X302195Y59540D01*
X302800Y59420D01*
X307170D01*
Y56472D01*
X307247Y56082D01*
X307468Y55752D01*
X307799Y55531D01*
X308189Y55453D01*
X311717D01*
Y61000D01*
Y66547D01*
D02*
G37*
G36*
X318264Y60000D02*
X313717D01*
Y55453D01*
X317244D01*
X317634Y55531D01*
X317965Y55752D01*
X318186Y56082D01*
X318264Y56472D01*
Y60000D01*
D02*
G37*
G36*
X317244Y66547D02*
X313717D01*
Y62000D01*
X318264D01*
Y65528D01*
X318186Y65918D01*
X317965Y66249D01*
X317634Y66470D01*
X317244Y66547D01*
D02*
G37*
G36*
X449000Y72945D02*
Y65000D01*
X456945D01*
X456870Y65764D01*
X456355Y67461D01*
X455519Y69024D01*
X454395Y70395D01*
X453024Y71519D01*
X451461Y72355D01*
X449764Y72870D01*
X449000Y72945D01*
D02*
G37*
G36*
X29453Y120768D02*
X23547D01*
X23235Y120706D01*
X22971Y120529D01*
X22794Y120265D01*
X22732Y119953D01*
Y114047D01*
X22794Y113735D01*
X22971Y113470D01*
X23235Y113294D01*
X23547Y113232D01*
X28033D01*
X35920Y105345D01*
Y77000D01*
X36040Y76395D01*
X36382Y75883D01*
X42882Y69383D01*
X43395Y69040D01*
X44000Y68920D01*
X53583D01*
X53617Y68836D01*
X54146Y68146D01*
X54836Y67617D01*
X55638Y67285D01*
X56500Y67172D01*
X61500D01*
X62362Y67285D01*
X63164Y67617D01*
X63854Y68146D01*
X64383Y68836D01*
X64715Y69639D01*
X64828Y70500D01*
X64715Y71362D01*
X64383Y72164D01*
X63854Y72854D01*
X63164Y73383D01*
X62362Y73715D01*
X61500Y73829D01*
X56500D01*
X55638Y73715D01*
X54836Y73383D01*
X54146Y72854D01*
X53617Y72164D01*
X53583Y72080D01*
X44655D01*
X39080Y77655D01*
Y106000D01*
X38960Y106605D01*
X38618Y107117D01*
X30268Y115467D01*
Y119953D01*
X30206Y120265D01*
X30029Y120529D01*
X29765Y120706D01*
X29453Y120768D01*
D02*
G37*
G36*
X211500Y73829D02*
X206500D01*
X205639Y73715D01*
X204836Y73383D01*
X204146Y72854D01*
X203618Y72164D01*
X203285Y71362D01*
X203171Y70500D01*
X203285Y69639D01*
X203618Y68836D01*
X204146Y68146D01*
X204836Y67617D01*
X205639Y67285D01*
X206500Y67172D01*
X211500D01*
X212362Y67285D01*
X213164Y67617D01*
X213854Y68146D01*
X214383Y68836D01*
X214715Y69639D01*
X214828Y70500D01*
X214715Y71362D01*
X214383Y72164D01*
X213854Y72854D01*
X213164Y73383D01*
X212362Y73715D01*
X211500Y73829D01*
D02*
G37*
G36*
X447000Y72945D02*
X446236Y72870D01*
X444539Y72355D01*
X442976Y71519D01*
X441605Y70395D01*
X440481Y69024D01*
X439645Y67461D01*
X439130Y65764D01*
X439055Y65000D01*
X447000D01*
Y72945D01*
D02*
G37*
G36*
X402240Y65358D02*
X401040D01*
Y64095D01*
X401117Y63704D01*
X401338Y63374D01*
X401669Y63152D01*
X402059Y63075D01*
X402240D01*
Y65358D01*
D02*
G37*
G36*
X405441D02*
X404240D01*
Y63075D01*
X404421D01*
X404811Y63152D01*
X405142Y63374D01*
X405363Y63704D01*
X405441Y64095D01*
Y65358D01*
D02*
G37*
G36*
X396941Y69438D02*
X394579D01*
X394267Y69376D01*
X394002Y69199D01*
X393825Y68934D01*
X393763Y68622D01*
Y64095D01*
X393825Y63782D01*
X394002Y63518D01*
X394267Y63341D01*
X394579Y63279D01*
X396941D01*
X397253Y63341D01*
X397518Y63518D01*
X397694Y63782D01*
X397757Y64095D01*
Y68622D01*
X397694Y68934D01*
X397518Y69199D01*
X397253Y69376D01*
X396941Y69438D01*
D02*
G37*
G36*
X61500Y54030D02*
X60000D01*
Y51500D01*
X64874D01*
X64557Y52265D01*
X63996Y52996D01*
X63265Y53557D01*
X62414Y53910D01*
X61500Y54030D01*
D02*
G37*
G36*
Y43828D02*
X56500D01*
X55638Y43715D01*
X54836Y43382D01*
X54146Y42854D01*
X53617Y42164D01*
X53551Y42004D01*
X53332Y41960D01*
X52858Y41643D01*
X52268D01*
Y42819D01*
X52206Y43131D01*
X52030Y43396D01*
X51765Y43573D01*
X51453Y43635D01*
X45547D01*
X45235Y43573D01*
X44971Y43396D01*
X44794Y43131D01*
X44732Y42819D01*
Y37307D01*
X44794Y36995D01*
X44971Y36730D01*
X45235Y36553D01*
X45547Y36491D01*
X51453D01*
X51765Y36553D01*
X52030Y36730D01*
X52206Y36995D01*
X52268Y37307D01*
Y38483D01*
X53500D01*
X53837Y38550D01*
X54146Y38146D01*
X54836Y37617D01*
X55638Y37285D01*
X56500Y37172D01*
X60093D01*
X64382Y32882D01*
X64895Y32540D01*
X65500Y32420D01*
X78845D01*
X90937Y20328D01*
X90798Y19992D01*
X90667Y19000D01*
X90798Y18008D01*
X91181Y17084D01*
X91790Y16290D01*
X92584Y15681D01*
X93508Y15298D01*
X94500Y15167D01*
X95492Y15298D01*
X96416Y15681D01*
X97210Y16290D01*
X97819Y17084D01*
X98202Y18008D01*
X98333Y19000D01*
X98202Y19992D01*
X97819Y20916D01*
X97210Y21710D01*
X96416Y22319D01*
X95492Y22702D01*
X94500Y22833D01*
X93508Y22702D01*
X93172Y22563D01*
X80617Y35118D01*
X80105Y35460D01*
X79500Y35580D01*
X66155D01*
X63837Y37898D01*
X63854Y38146D01*
X64383Y38836D01*
X64715Y39639D01*
X64828Y40500D01*
X64715Y41361D01*
X64383Y42164D01*
X63854Y42854D01*
X63164Y43382D01*
X62362Y43715D01*
X61500Y43828D01*
D02*
G37*
G36*
X47500Y46937D02*
X44528D01*
Y45181D01*
X44605Y44791D01*
X44826Y44460D01*
X45157Y44239D01*
X45547Y44161D01*
X47500D01*
Y46937D01*
D02*
G37*
G36*
X402500Y48972D02*
X400744D01*
X400354Y48895D01*
X400023Y48674D01*
X399802Y48343D01*
X399725Y47953D01*
Y46000D01*
X402500D01*
Y48972D01*
D02*
G37*
G36*
X453931Y45300D02*
X449000D01*
Y40369D01*
X449176Y40387D01*
X450307Y40730D01*
X451349Y41287D01*
X452263Y42037D01*
X453013Y42950D01*
X453570Y43993D01*
X453913Y45124D01*
X453931Y45300D01*
D02*
G37*
G36*
X335800Y38520D02*
X331800D01*
Y33500D01*
X336820D01*
Y37500D01*
X336742Y37890D01*
X336521Y38221D01*
X336190Y38442D01*
X335800Y38520D01*
D02*
G37*
G36*
X407275Y44000D02*
X403500D01*
X399725D01*
Y42047D01*
X399802Y41657D01*
X400023Y41326D01*
X400354Y41105D01*
X400744Y41028D01*
X401920D01*
Y39472D01*
X400744D01*
X400354Y39395D01*
X400023Y39174D01*
X399802Y38843D01*
X399725Y38453D01*
Y36500D01*
X403500D01*
X407275D01*
Y38453D01*
X407198Y38843D01*
X406977Y39174D01*
X406646Y39395D01*
X406256Y39472D01*
X405080D01*
Y41028D01*
X406256D01*
X406646Y41105D01*
X406977Y41326D01*
X407198Y41657D01*
X407275Y42047D01*
Y44000D01*
D02*
G37*
G36*
X447000Y45300D02*
X442069D01*
X442087Y45124D01*
X442430Y43993D01*
X442987Y42950D01*
X443737Y42037D01*
X444651Y41287D01*
X445693Y40730D01*
X446824Y40387D01*
X447000Y40369D01*
Y45300D01*
D02*
G37*
G36*
X406256Y48972D02*
X404500D01*
Y46000D01*
X407275D01*
Y47953D01*
X407198Y48343D01*
X406977Y48674D01*
X406646Y48895D01*
X406256Y48972D01*
D02*
G37*
G36*
X256472Y73563D02*
X252500D01*
X248528D01*
Y71807D01*
X248605Y71417D01*
X248826Y71086D01*
X249157Y70865D01*
X249547Y70788D01*
X250920D01*
Y61000D01*
Y52255D01*
X250283Y51617D01*
X249940Y51105D01*
X249820Y50500D01*
X249940Y49895D01*
X250283Y49382D01*
X250795Y49040D01*
X251400Y48920D01*
X252005Y49040D01*
X252518Y49382D01*
X253618Y50482D01*
X253960Y50995D01*
X254080Y51600D01*
Y61000D01*
Y70788D01*
X255453D01*
X255843Y70865D01*
X256174Y71086D01*
X256395Y71417D01*
X256472Y71807D01*
Y73563D01*
D02*
G37*
G36*
X208000Y54030D02*
X206500D01*
X205586Y53910D01*
X204735Y53557D01*
X204004Y52996D01*
X203443Y52265D01*
X203126Y51500D01*
X208000D01*
Y54030D01*
D02*
G37*
G36*
X211500D02*
X210000D01*
Y51500D01*
X214874D01*
X214557Y52265D01*
X213996Y52996D01*
X213265Y53557D01*
X212414Y53910D01*
X211500Y54030D01*
D02*
G37*
G36*
X214874Y49500D02*
X210000D01*
Y46970D01*
X211500D01*
X212414Y47090D01*
X213265Y47443D01*
X213996Y48004D01*
X214557Y48735D01*
X214874Y49500D01*
D02*
G37*
G36*
X58000Y54030D02*
X56500D01*
X55586Y53910D01*
X54735Y53557D01*
X54004Y52996D01*
X53443Y52265D01*
X53366Y52080D01*
X48500D01*
X47895Y51960D01*
X47525Y51713D01*
X45547D01*
X45157Y51635D01*
X44826Y51414D01*
X44605Y51083D01*
X44528Y50693D01*
Y48937D01*
X48500D01*
Y47937D01*
X49500D01*
Y44161D01*
X51453D01*
X51843Y44239D01*
X52174Y44460D01*
X52395Y44791D01*
X52472Y45181D01*
Y48920D01*
X53366D01*
X53443Y48735D01*
X54004Y48004D01*
X54735Y47443D01*
X55586Y47090D01*
X56500Y46970D01*
X58000D01*
Y50500D01*
Y54030D01*
D02*
G37*
G36*
X64874Y49500D02*
X60000D01*
Y46970D01*
X61500D01*
X62414Y47090D01*
X63265Y47443D01*
X63996Y48004D01*
X64557Y48735D01*
X64874Y49500D01*
D02*
G37*
G36*
X208000D02*
X203126D01*
X203443Y48735D01*
X204004Y48004D01*
X204735Y47443D01*
X205586Y47090D01*
X206500Y46970D01*
X208000D01*
Y49500D01*
D02*
G37*
G36*
X17524Y284185D02*
X13602D01*
Y282000D01*
X18543D01*
Y283165D01*
X18466Y283556D01*
X18245Y283886D01*
X17914Y284107D01*
X17524Y284185D01*
D02*
G37*
G36*
X61500Y293829D02*
X56500D01*
X55638Y293715D01*
X54836Y293383D01*
X54146Y292854D01*
X53617Y292164D01*
X53285Y291361D01*
X53171Y290500D01*
X53285Y289638D01*
X53617Y288836D01*
X54146Y288146D01*
X54836Y287617D01*
X55638Y287285D01*
X56500Y287172D01*
X61500D01*
X62362Y287285D01*
X63164Y287617D01*
X63854Y288146D01*
X64383Y288836D01*
X64715Y289638D01*
X64828Y290500D01*
X64715Y291361D01*
X64383Y292164D01*
X63854Y292854D01*
X63164Y293383D01*
X62362Y293715D01*
X61500Y293829D01*
D02*
G37*
G36*
X428000Y338333D02*
X426667Y338202D01*
X425385Y337813D01*
X424204Y337181D01*
X423168Y336332D01*
X422319Y335296D01*
X421687Y334115D01*
X421298Y332833D01*
X421167Y331500D01*
X421298Y330167D01*
X421687Y328885D01*
X422319Y327704D01*
X423168Y326668D01*
X424204Y325819D01*
X425385Y325187D01*
X426420Y324873D01*
Y303127D01*
X425385Y302813D01*
X424204Y302181D01*
X423168Y301332D01*
X422319Y300296D01*
X421687Y299115D01*
X421298Y297833D01*
X421167Y296500D01*
X421298Y295167D01*
X421687Y293885D01*
X422319Y292704D01*
X423168Y291668D01*
X424204Y290819D01*
X425385Y290187D01*
X426667Y289798D01*
X428000Y289667D01*
X429333Y289798D01*
X430615Y290187D01*
X431796Y290819D01*
X432832Y291668D01*
X433681Y292704D01*
X434313Y293885D01*
X434702Y295167D01*
X434833Y296500D01*
X434702Y297833D01*
X434313Y299115D01*
X433681Y300296D01*
X432832Y301332D01*
X431796Y302181D01*
X430615Y302813D01*
X429580Y303127D01*
Y324873D01*
X430615Y325187D01*
X431796Y325819D01*
X432832Y326668D01*
X433681Y327704D01*
X434313Y328885D01*
X434702Y330167D01*
X434833Y331500D01*
X434702Y332833D01*
X434313Y334115D01*
X433681Y335296D01*
X432832Y336332D01*
X431796Y337181D01*
X430615Y337813D01*
X429333Y338202D01*
X428000Y338333D01*
D02*
G37*
G36*
X18543Y280000D02*
X13602D01*
Y277815D01*
X17524D01*
X17914Y277893D01*
X18245Y278114D01*
X18466Y278445D01*
X18543Y278835D01*
Y280000D01*
D02*
G37*
G36*
X15358Y274193D02*
X13602D01*
Y272000D01*
X18370D01*
X18123Y272596D01*
X17616Y273257D01*
X16955Y273765D01*
X16185Y274084D01*
X15358Y274193D01*
D02*
G37*
G36*
X49256Y283991D02*
X43744D01*
X42970Y283889D01*
X42249Y283590D01*
X41629Y283115D01*
X41154Y282495D01*
X40855Y281774D01*
X40753Y281000D01*
X40855Y280226D01*
X41154Y279504D01*
X41629Y278885D01*
X42249Y278410D01*
X42970Y278111D01*
X43744Y278009D01*
X49256D01*
X50030Y278111D01*
X50751Y278410D01*
X51371Y278885D01*
X51397Y278920D01*
X53583D01*
X53617Y278836D01*
X54146Y278146D01*
X54836Y277618D01*
X55638Y277285D01*
X56500Y277171D01*
X61500D01*
X62362Y277285D01*
X63164Y277618D01*
X63854Y278146D01*
X64383Y278836D01*
X64715Y279639D01*
X64828Y280500D01*
X64715Y281362D01*
X64383Y282164D01*
X63854Y282854D01*
X63164Y283383D01*
X62362Y283715D01*
X61500Y283828D01*
X56500D01*
X55638Y283715D01*
X54836Y283383D01*
X54146Y282854D01*
X53617Y282164D01*
X53583Y282080D01*
X52018D01*
X51846Y282495D01*
X51371Y283115D01*
X50751Y283590D01*
X50030Y283889D01*
X49256Y283991D01*
D02*
G37*
G36*
X11602Y284185D02*
X7681D01*
X7291Y284107D01*
X6960Y283886D01*
X6739Y283556D01*
X6662Y283165D01*
Y281287D01*
X6540Y281105D01*
X6420Y280500D01*
X6540Y279895D01*
X6662Y279713D01*
Y278835D01*
X6739Y278445D01*
X6960Y278114D01*
X7291Y277893D01*
X7681Y277815D01*
X11602D01*
Y281000D01*
Y284185D01*
D02*
G37*
G36*
X500000Y384833D02*
X499008Y384702D01*
X498084Y384319D01*
X497290Y383710D01*
X496681Y382916D01*
X496298Y381992D01*
X496167Y381000D01*
X496298Y380008D01*
X496681Y379084D01*
X497290Y378290D01*
X498084Y377681D01*
X499008Y377298D01*
X500000Y377167D01*
X500992Y377298D01*
X501916Y377681D01*
X502710Y378290D01*
X503319Y379084D01*
X503458Y379420D01*
X504845D01*
X520420Y363845D01*
Y310000D01*
X520540Y309395D01*
X520883Y308882D01*
X525998Y303766D01*
X525820Y303178D01*
X525660Y301551D01*
X525820Y299924D01*
X526295Y298359D01*
X527065Y296918D01*
X528103Y295654D01*
X529366Y294617D01*
X530808Y293846D01*
X532373Y293371D01*
X534000Y293211D01*
X540000D01*
X541627Y293371D01*
X543192Y293846D01*
X544634Y294617D01*
X545897Y295654D01*
X546935Y296918D01*
X547705Y298359D01*
X548180Y299924D01*
X548340Y301551D01*
X548180Y303178D01*
X547705Y304743D01*
X546935Y306185D01*
X545897Y307449D01*
X544634Y308486D01*
X543192Y309257D01*
X541627Y309731D01*
X540000Y309891D01*
X534000D01*
X532373Y309731D01*
X530808Y309257D01*
X529366Y308486D01*
X528103Y307449D01*
X527745Y307013D01*
X527246Y306989D01*
X523580Y310655D01*
Y364500D01*
X523460Y365105D01*
X523117Y365617D01*
X506617Y382118D01*
X506105Y382460D01*
X505500Y382580D01*
X503458D01*
X503319Y382916D01*
X502710Y383710D01*
X501916Y384319D01*
X500992Y384702D01*
X500000Y384833D01*
D02*
G37*
G36*
X281500Y320000D02*
X276953D01*
Y316472D01*
X277030Y316082D01*
X277252Y315752D01*
X277582Y315530D01*
X277972Y315453D01*
X281500D01*
Y320000D01*
D02*
G37*
G36*
X61500Y323829D02*
X56500D01*
X55638Y323715D01*
X54836Y323382D01*
X54146Y322854D01*
X53617Y322164D01*
X53285Y321361D01*
X53171Y320500D01*
X53285Y319638D01*
X53617Y318836D01*
X54146Y318146D01*
X54836Y317618D01*
X55638Y317285D01*
X56500Y317172D01*
X61500D01*
X62362Y317285D01*
X63164Y317618D01*
X63854Y318146D01*
X64383Y318836D01*
X64715Y319638D01*
X64828Y320500D01*
X64715Y321361D01*
X64383Y322164D01*
X63854Y322854D01*
X63164Y323382D01*
X62362Y323715D01*
X61500Y323829D01*
D02*
G37*
G36*
X211500D02*
X206500D01*
X205639Y323715D01*
X204836Y323382D01*
X204146Y322854D01*
X203618Y322164D01*
X203285Y321361D01*
X203171Y320500D01*
X203285Y319638D01*
X203618Y318836D01*
X204146Y318146D01*
X204836Y317618D01*
X205639Y317285D01*
X206500Y317172D01*
X211500D01*
X212362Y317285D01*
X213164Y317618D01*
X213854Y318146D01*
X214383Y318836D01*
X214715Y319638D01*
X214828Y320500D01*
X214715Y321361D01*
X214383Y322164D01*
X213854Y322854D01*
X213164Y323382D01*
X212362Y323715D01*
X211500Y323829D01*
D02*
G37*
G36*
X496421Y317721D02*
X494059D01*
X493747Y317659D01*
X493482Y317482D01*
X493305Y317218D01*
X493243Y316905D01*
Y312378D01*
X493305Y312066D01*
X493482Y311801D01*
X493747Y311624D01*
X494059Y311562D01*
X496421D01*
X496733Y311624D01*
X496998Y311801D01*
X497175Y312066D01*
X497237Y312378D01*
Y316905D01*
X497175Y317218D01*
X496998Y317482D01*
X496733Y317659D01*
X496421Y317721D01*
D02*
G37*
G36*
X61500Y303829D02*
X56500D01*
X55638Y303715D01*
X54836Y303382D01*
X54146Y302854D01*
X53617Y302164D01*
X53285Y301361D01*
X53171Y300500D01*
X53285Y299639D01*
X53617Y298836D01*
X54146Y298146D01*
X54836Y297618D01*
X55638Y297285D01*
X56500Y297171D01*
X61500D01*
X62362Y297285D01*
X63164Y297618D01*
X63854Y298146D01*
X64383Y298836D01*
X64715Y299639D01*
X64828Y300500D01*
X64715Y301361D01*
X64383Y302164D01*
X63854Y302854D01*
X63164Y303382D01*
X62362Y303715D01*
X61500Y303829D01*
D02*
G37*
G36*
Y313828D02*
X56500D01*
X55638Y313715D01*
X54836Y313383D01*
X54146Y312854D01*
X53617Y312164D01*
X53285Y311362D01*
X53171Y310500D01*
X53285Y309639D01*
X53617Y308836D01*
X54146Y308146D01*
X54836Y307617D01*
X55638Y307285D01*
X56500Y307172D01*
X61500D01*
X62362Y307285D01*
X63164Y307617D01*
X63854Y308146D01*
X64383Y308836D01*
X64715Y309639D01*
X64828Y310500D01*
X64715Y311362D01*
X64383Y312164D01*
X63854Y312854D01*
X63164Y313383D01*
X62362Y313715D01*
X61500Y313828D01*
D02*
G37*
G36*
X288047Y320000D02*
X283500D01*
Y315453D01*
X285812D01*
X287020Y314245D01*
Y296843D01*
X277972D01*
X277660Y296781D01*
X277396Y296604D01*
X277219Y296340D01*
X277157Y296028D01*
Y295895D01*
X271768D01*
Y297071D01*
X271706Y297383D01*
X271530Y297648D01*
X271265Y297825D01*
X270953Y297887D01*
X265047D01*
X264735Y297825D01*
X264471Y297648D01*
X264294Y297383D01*
X264232Y297071D01*
Y292980D01*
X257207D01*
X256997Y293236D01*
Y297764D01*
X256935Y298076D01*
X256758Y298341D01*
X256493Y298517D01*
X256181Y298579D01*
X253819D01*
X253507Y298517D01*
X253242Y298341D01*
X253065Y298076D01*
X253003Y297764D01*
Y297080D01*
X247463D01*
X246858Y296960D01*
X246345Y296618D01*
X245245Y295517D01*
X242268D01*
Y296693D01*
X242206Y297005D01*
X242030Y297270D01*
X241765Y297446D01*
X241453Y297509D01*
X235547D01*
X235235Y297446D01*
X234970Y297270D01*
X234794Y297005D01*
X234732Y296693D01*
Y295517D01*
X232355D01*
X232317Y295554D01*
X231805Y295897D01*
X231200Y296017D01*
X228268D01*
Y297193D01*
X228206Y297505D01*
X228029Y297770D01*
X227765Y297947D01*
X227453Y298009D01*
X221547D01*
X221235Y297947D01*
X220971Y297770D01*
X220794Y297505D01*
X220732Y297193D01*
Y296017D01*
X220000D01*
X219395Y295897D01*
X218882Y295554D01*
X217683Y294355D01*
X217340Y293842D01*
X217220Y293237D01*
Y227655D01*
X217145Y227580D01*
X213937D01*
X213768Y228080D01*
X213854Y228146D01*
X214383Y228836D01*
X214715Y229639D01*
X214828Y230500D01*
X214715Y231362D01*
X214383Y232164D01*
X213854Y232854D01*
X213164Y233383D01*
X212362Y233715D01*
X211500Y233828D01*
X206500D01*
X205639Y233715D01*
X204861Y233393D01*
X204779Y233437D01*
X204472Y233734D01*
X204697Y234277D01*
X204792Y235000D01*
X204697Y235723D01*
X204418Y236396D01*
X203975Y236975D01*
X203580Y237277D01*
Y238063D01*
X204080Y238232D01*
X204146Y238146D01*
X204836Y237617D01*
X205639Y237285D01*
X206500Y237172D01*
X211500D01*
X212362Y237285D01*
X213164Y237617D01*
X213854Y238146D01*
X214383Y238836D01*
X214715Y239638D01*
X214828Y240500D01*
X214715Y241361D01*
X214383Y242164D01*
X213854Y242854D01*
X213164Y243383D01*
X212362Y243715D01*
X211500Y243829D01*
X206500D01*
X205639Y243715D01*
X204836Y243383D01*
X204146Y242854D01*
X204080Y242768D01*
X203580Y242937D01*
Y248063D01*
X204080Y248233D01*
X204146Y248146D01*
X204836Y247618D01*
X205639Y247285D01*
X206500Y247171D01*
X211500D01*
X212362Y247285D01*
X213164Y247618D01*
X213854Y248146D01*
X214383Y248836D01*
X214715Y249639D01*
X214828Y250500D01*
X214715Y251361D01*
X214383Y252164D01*
X213854Y252854D01*
X213164Y253382D01*
X212362Y253715D01*
X211500Y253829D01*
X206500D01*
X205639Y253715D01*
X204836Y253382D01*
X204146Y252854D01*
X204080Y252767D01*
X203580Y252937D01*
Y258063D01*
X204080Y258232D01*
X204146Y258146D01*
X204836Y257617D01*
X205639Y257285D01*
X206500Y257172D01*
X211500D01*
X212362Y257285D01*
X213164Y257617D01*
X213854Y258146D01*
X214383Y258836D01*
X214715Y259639D01*
X214828Y260500D01*
X214715Y261362D01*
X214383Y262164D01*
X213854Y262854D01*
X213164Y263383D01*
X212362Y263715D01*
X211500Y263828D01*
X206500D01*
X205639Y263715D01*
X204836Y263383D01*
X204146Y262854D01*
X204080Y262768D01*
X203580Y262937D01*
Y268063D01*
X204080Y268232D01*
X204146Y268146D01*
X204836Y267618D01*
X205639Y267285D01*
X206500Y267172D01*
X211500D01*
X212362Y267285D01*
X213164Y267618D01*
X213854Y268146D01*
X214383Y268836D01*
X214715Y269638D01*
X214828Y270500D01*
X214715Y271361D01*
X214383Y272164D01*
X213854Y272854D01*
X213164Y273382D01*
X212362Y273715D01*
X211500Y273829D01*
X206500D01*
X205639Y273715D01*
X204836Y273382D01*
X204146Y272854D01*
X204080Y272767D01*
X203580Y272937D01*
Y278063D01*
X204080Y278233D01*
X204146Y278146D01*
X204836Y277618D01*
X205639Y277285D01*
X206500Y277171D01*
X211500D01*
X212362Y277285D01*
X213164Y277618D01*
X213854Y278146D01*
X214383Y278836D01*
X214715Y279639D01*
X214828Y280500D01*
X214715Y281362D01*
X214383Y282164D01*
X213854Y282854D01*
X213164Y283383D01*
X212362Y283715D01*
X211500Y283828D01*
X206500D01*
X205639Y283715D01*
X204836Y283383D01*
X204146Y282854D01*
X204080Y282768D01*
X203580Y282937D01*
Y288063D01*
X204080Y288232D01*
X204146Y288146D01*
X204836Y287617D01*
X205639Y287285D01*
X206500Y287172D01*
X211500D01*
X212362Y287285D01*
X213164Y287617D01*
X213854Y288146D01*
X214383Y288836D01*
X214715Y289638D01*
X214828Y290500D01*
X214715Y291361D01*
X214383Y292164D01*
X213854Y292854D01*
X213164Y293383D01*
X212362Y293715D01*
X211500Y293829D01*
X206500D01*
X205639Y293715D01*
X204836Y293383D01*
X204146Y292854D01*
X204080Y292768D01*
X203580Y292937D01*
Y298063D01*
X204080Y298233D01*
X204146Y298146D01*
X204836Y297618D01*
X205639Y297285D01*
X206500Y297171D01*
X211500D01*
X212362Y297285D01*
X213164Y297618D01*
X213854Y298146D01*
X214383Y298836D01*
X214715Y299639D01*
X214828Y300500D01*
X214715Y301361D01*
X214383Y302164D01*
X213854Y302854D01*
X213164Y303382D01*
X212362Y303715D01*
X211500Y303829D01*
X206500D01*
X205639Y303715D01*
X204836Y303382D01*
X204146Y302854D01*
X204080Y302767D01*
X203580Y302937D01*
Y308063D01*
X204080Y308232D01*
X204146Y308146D01*
X204836Y307617D01*
X205639Y307285D01*
X206500Y307172D01*
X211500D01*
X212362Y307285D01*
X213164Y307617D01*
X213854Y308146D01*
X214383Y308836D01*
X214715Y309639D01*
X214828Y310500D01*
X214715Y311362D01*
X214383Y312164D01*
X213854Y312854D01*
X213164Y313383D01*
X212362Y313715D01*
X211500Y313828D01*
X206500D01*
X205639Y313715D01*
X204836Y313383D01*
X204146Y312854D01*
X203618Y312164D01*
X203583Y312080D01*
X203000D01*
X202395Y311960D01*
X201883Y311617D01*
X200883Y310617D01*
X200540Y310105D01*
X200420Y309500D01*
Y237277D01*
X200026Y236975D01*
X199582Y236396D01*
X199303Y235723D01*
X199208Y235000D01*
X199303Y234277D01*
X199582Y233604D01*
X200026Y233026D01*
X200604Y232582D01*
X201277Y232303D01*
X202000Y232208D01*
X202723Y232303D01*
X203266Y232528D01*
X203563Y232221D01*
X203607Y232139D01*
X203285Y231362D01*
X203171Y230500D01*
X203285Y229639D01*
X203618Y228836D01*
X204146Y228146D01*
X204233Y228080D01*
X204063Y227580D01*
X203100D01*
X202495Y227460D01*
X201982Y227117D01*
X198983Y224117D01*
X198640Y223605D01*
X198520Y223000D01*
Y202000D01*
X198640Y201395D01*
X198983Y200883D01*
X200483Y199382D01*
X200995Y199040D01*
X201600Y198920D01*
X203583D01*
X203618Y198836D01*
X204146Y198146D01*
X204836Y197617D01*
X205639Y197285D01*
X206500Y197171D01*
X211500D01*
X212362Y197285D01*
X213164Y197617D01*
X213854Y198146D01*
X214383Y198836D01*
X214715Y199638D01*
X214828Y200500D01*
X214715Y201361D01*
X214383Y202164D01*
X214090Y202546D01*
X214336Y203046D01*
X220028D01*
Y201870D01*
X220105Y201480D01*
X220326Y201149D01*
X220657Y200928D01*
X221047Y200851D01*
X223000D01*
Y204626D01*
Y208401D01*
X221047D01*
X220657Y208324D01*
X220326Y208103D01*
X220105Y207772D01*
X220028Y207382D01*
Y206206D01*
X204429D01*
X203980Y206655D01*
Y207644D01*
X204480Y207890D01*
X204836Y207617D01*
X205639Y207285D01*
X206500Y207172D01*
X211500D01*
X212362Y207285D01*
X213164Y207617D01*
X213854Y208146D01*
X214383Y208836D01*
X214417Y208920D01*
X216500D01*
X217105Y209040D01*
X217618Y209383D01*
X219155Y210920D01*
X220232D01*
Y209744D01*
X220294Y209432D01*
X220470Y209167D01*
X220735Y208991D01*
X221047Y208928D01*
X226953D01*
X227265Y208991D01*
X227530Y209167D01*
X227706Y209432D01*
X227768Y209744D01*
Y210920D01*
X229700D01*
X230305Y211040D01*
X230818Y211383D01*
X230855Y211420D01*
X232232D01*
Y210244D01*
X232294Y209932D01*
X232470Y209667D01*
X232735Y209490D01*
X233047Y209428D01*
X238953D01*
X239265Y209490D01*
X239529Y209667D01*
X240128Y209686D01*
X242832Y206982D01*
X243232Y206716D01*
Y202370D01*
X243294Y202058D01*
X243471Y201793D01*
X243735Y201617D01*
X244047Y201554D01*
X249953D01*
X250020Y201500D01*
Y189055D01*
X232783Y171818D01*
X232440Y171305D01*
X232320Y170700D01*
Y75000D01*
X232440Y74395D01*
X232783Y73883D01*
X233841Y72824D01*
X234354Y72481D01*
X234732Y72406D01*
Y71185D01*
X234794Y70873D01*
X234970Y70608D01*
X235235Y70432D01*
X235547Y70369D01*
X236920D01*
Y42655D01*
X236345Y42080D01*
X214816D01*
Y43000D01*
X214754Y43312D01*
X214577Y43577D01*
X214312Y43754D01*
X214000Y43816D01*
X204000D01*
X203688Y43754D01*
X203423Y43577D01*
X203246Y43312D01*
X203184Y43000D01*
Y42080D01*
X193655D01*
X158580Y77155D01*
Y102000D01*
X158460Y102605D01*
X158117Y103118D01*
X94617Y166618D01*
X94105Y166960D01*
X93500Y167080D01*
X63174D01*
X63075Y167580D01*
X63164Y167617D01*
X63854Y168146D01*
X64383Y168836D01*
X64715Y169639D01*
X64828Y170500D01*
X64715Y171361D01*
X64383Y172164D01*
X63854Y172854D01*
X63164Y173382D01*
X62362Y173715D01*
X61500Y173828D01*
X56500D01*
X55638Y173715D01*
X54836Y173382D01*
X54146Y172854D01*
X53617Y172164D01*
X53285Y171361D01*
X53171Y170500D01*
X53285Y169639D01*
X53617Y168836D01*
X54146Y168146D01*
X54836Y167617D01*
X54925Y167580D01*
X54826Y167080D01*
X30275D01*
X30156Y167980D01*
X29778Y168893D01*
X29177Y169676D01*
X28393Y170278D01*
X27480Y170656D01*
X26500Y170785D01*
X25520Y170656D01*
X24607Y170278D01*
X23823Y169676D01*
X23222Y168893D01*
X22844Y167980D01*
X22715Y167000D01*
X22844Y166020D01*
X23222Y165107D01*
X23823Y164323D01*
X24607Y163722D01*
X25520Y163344D01*
X26500Y163215D01*
X27480Y163344D01*
X28393Y163722D01*
X28650Y163920D01*
X54826D01*
X54925Y163420D01*
X54836Y163382D01*
X54146Y162854D01*
X53617Y162164D01*
X53285Y161362D01*
X53171Y160500D01*
X53285Y159639D01*
X53617Y158836D01*
X54146Y158146D01*
X54836Y157617D01*
X55638Y157285D01*
X56500Y157171D01*
X61500D01*
X62362Y157285D01*
X63164Y157617D01*
X63854Y158146D01*
X64383Y158836D01*
X64715Y159639D01*
X64828Y160500D01*
X64715Y161362D01*
X64383Y162164D01*
X63854Y162854D01*
X63164Y163382D01*
X63075Y163420D01*
X63174Y163920D01*
X92845D01*
X155420Y101345D01*
Y76500D01*
X155540Y75895D01*
X155883Y75383D01*
X191883Y39382D01*
X192395Y39040D01*
X193000Y38920D01*
X203184D01*
Y38000D01*
X203246Y37688D01*
X203423Y37423D01*
X203688Y37246D01*
X204000Y37184D01*
X214000D01*
X214312Y37246D01*
X214577Y37423D01*
X214754Y37688D01*
X214816Y38000D01*
Y38920D01*
X237000D01*
X237605Y39040D01*
X238118Y39382D01*
X239617Y40883D01*
X239960Y41395D01*
X240080Y42000D01*
Y70369D01*
X241453D01*
X241765Y70432D01*
X242030Y70608D01*
X242206Y70873D01*
X242268Y71185D01*
Y76697D01*
X242206Y77009D01*
X242030Y77274D01*
X241765Y77451D01*
X241453Y77513D01*
X235547D01*
X235480Y77567D01*
Y78189D01*
X235547Y78243D01*
X241453D01*
X241765Y78306D01*
X242030Y78482D01*
X242206Y78747D01*
X242268Y79059D01*
Y80235D01*
X245100D01*
X245705Y80355D01*
X246217Y80698D01*
X246377Y80857D01*
X248732D01*
Y79681D01*
X248794Y79369D01*
X248971Y79104D01*
X249235Y78927D01*
X249547Y78865D01*
X255453D01*
X255765Y78927D01*
X256030Y79104D01*
X256206Y79369D01*
X256268Y79681D01*
Y80857D01*
X260600D01*
X261205Y80977D01*
X261207Y80979D01*
X265232D01*
Y79803D01*
X265294Y79491D01*
X265471Y79226D01*
X265735Y79049D01*
X266047Y78987D01*
X271953D01*
X272265Y79049D01*
X272530Y79226D01*
X272706Y79491D01*
X272768Y79803D01*
Y85315D01*
X272706Y85627D01*
X272530Y85892D01*
X272265Y86068D01*
X271953Y86131D01*
X270580D01*
Y98345D01*
X270655Y98420D01*
X288252D01*
X288680Y98134D01*
X289453Y97980D01*
X295752D01*
X296420Y98113D01*
X296920Y97842D01*
Y97158D01*
X296420Y96887D01*
X295752Y97020D01*
X289453D01*
X288680Y96866D01*
X288252Y96580D01*
X284577D01*
X284275Y96974D01*
X283696Y97418D01*
X283023Y97697D01*
X282300Y97792D01*
X281577Y97697D01*
X280904Y97418D01*
X280326Y96974D01*
X279882Y96396D01*
X279603Y95723D01*
X279508Y95000D01*
X279603Y94277D01*
X279882Y93604D01*
X280326Y93025D01*
X280904Y92582D01*
X281577Y92303D01*
X282300Y92208D01*
X283023Y92303D01*
X283696Y92582D01*
X284275Y93025D01*
X284577Y93420D01*
X288252D01*
X288680Y93134D01*
X289453Y92980D01*
X295752D01*
X296420Y93113D01*
X296920Y92842D01*
Y92204D01*
X296774Y92079D01*
X296420Y91887D01*
X295752Y92020D01*
X289453D01*
X288680Y91866D01*
X288252Y91580D01*
X286000D01*
X285395Y91460D01*
X284882Y91118D01*
X281883Y88117D01*
X281540Y87605D01*
X281420Y87000D01*
Y81500D01*
X281540Y80895D01*
X281883Y80383D01*
X283882Y78382D01*
X284395Y78040D01*
X285000Y77920D01*
X291583D01*
X291617Y77836D01*
X292146Y77146D01*
X292836Y76617D01*
X293638Y76285D01*
X294500Y76171D01*
X295361Y76285D01*
X296164Y76617D01*
X296854Y77146D01*
X297382Y77836D01*
X297715Y78638D01*
X297829Y79500D01*
X297715Y80361D01*
X297382Y81164D01*
X296854Y81854D01*
X296164Y82383D01*
X295361Y82715D01*
X294500Y82828D01*
X293638Y82715D01*
X292836Y82383D01*
X292146Y81854D01*
X291617Y81164D01*
X291583Y81080D01*
X285655D01*
X284580Y82155D01*
Y86345D01*
X286655Y88420D01*
X288252D01*
X288680Y88134D01*
X289453Y87980D01*
X295752D01*
X296525Y88134D01*
X296953Y88420D01*
X297500D01*
X298105Y88540D01*
X298618Y88882D01*
X298758Y89023D01*
X299220Y88831D01*
Y67455D01*
X298108Y66343D01*
X290472D01*
X290160Y66281D01*
X289896Y66104D01*
X289719Y65840D01*
X289657Y65528D01*
Y56472D01*
X289719Y56160D01*
X289896Y55896D01*
X290160Y55719D01*
X290472Y55657D01*
X293420D01*
Y50600D01*
X293540Y49995D01*
X293882Y49483D01*
X297120Y46245D01*
Y38222D01*
X297063Y38216D01*
X295970Y37884D01*
X294962Y37346D01*
X294079Y36621D01*
X293354Y35738D01*
X292816Y34730D01*
X292484Y33637D01*
X292372Y32500D01*
X292484Y31363D01*
X292816Y30270D01*
X293354Y29262D01*
X294079Y28379D01*
X294962Y27654D01*
X295970Y27116D01*
X297063Y26784D01*
X298200Y26672D01*
X299337Y26784D01*
X300430Y27116D01*
X301438Y27654D01*
X302321Y28379D01*
X303046Y29262D01*
X303584Y30270D01*
X303916Y31363D01*
X304028Y32500D01*
X303916Y33637D01*
X303584Y34730D01*
X303046Y35738D01*
X302321Y36621D01*
X301438Y37346D01*
X300430Y37884D01*
X300280Y37930D01*
Y46900D01*
X300160Y47505D01*
X299817Y48017D01*
X296580Y51255D01*
Y55657D01*
X299528D01*
X299840Y55719D01*
X300104Y55896D01*
X300281Y56160D01*
X300343Y56472D01*
Y64108D01*
X301918Y65683D01*
X302260Y66195D01*
X302380Y66800D01*
Y136400D01*
X302260Y137005D01*
X301918Y137517D01*
X292318Y147117D01*
X291805Y147460D01*
X291703Y147480D01*
X291752Y147980D01*
X293500D01*
X293890Y148058D01*
X294221Y148279D01*
X294442Y148610D01*
X294520Y149000D01*
Y152000D01*
X289500D01*
Y153000D01*
X288500D01*
Y158020D01*
X285500D01*
X285110Y157942D01*
X285080Y157922D01*
X284580Y158190D01*
Y177723D01*
X284975Y178025D01*
X285418Y178604D01*
X285697Y179277D01*
X285792Y180000D01*
X285697Y180723D01*
X285418Y181396D01*
X284975Y181974D01*
X284396Y182418D01*
X283723Y182697D01*
X283000Y182792D01*
X282277Y182697D01*
X281604Y182418D01*
X281080Y182017D01*
X280856Y182066D01*
X280580Y182216D01*
Y215000D01*
X280460Y215605D01*
X280118Y216118D01*
X271618Y224618D01*
X271105Y224960D01*
X270500Y225080D01*
X261500D01*
X260895Y224960D01*
X260383Y224618D01*
X258383Y222618D01*
X258040Y222105D01*
X257920Y221500D01*
Y216072D01*
X256547D01*
X256380Y216038D01*
X255983Y216269D01*
X255880Y216374D01*
Y217100D01*
X255760Y217705D01*
X255417Y218217D01*
X255118Y218517D01*
X254605Y218860D01*
X254000Y218980D01*
X237000D01*
X236395Y218860D01*
X235882Y218517D01*
X234882Y217517D01*
X234540Y217005D01*
X234454Y216572D01*
X233047D01*
X232735Y216510D01*
X232470Y216333D01*
X232294Y216068D01*
X232232Y215756D01*
Y214580D01*
X230200D01*
X229595Y214460D01*
X229082Y214118D01*
X229045Y214080D01*
X227768D01*
Y215256D01*
X227706Y215568D01*
X227530Y215833D01*
X227265Y216009D01*
X226953Y216072D01*
X221047D01*
X220735Y216009D01*
X220470Y215833D01*
X220294Y215568D01*
X220232Y215256D01*
Y214080D01*
X218500D01*
X217895Y213960D01*
X217383Y213617D01*
X215845Y212080D01*
X214417D01*
X214383Y212164D01*
X213854Y212854D01*
X213164Y213383D01*
X213075Y213420D01*
X213174Y213920D01*
X215000D01*
X215605Y214040D01*
X216118Y214383D01*
X225618Y223883D01*
X225960Y224395D01*
X226080Y225000D01*
Y282787D01*
X227453D01*
X227843Y282865D01*
X228174Y283086D01*
X228395Y283417D01*
X228472Y283807D01*
Y284983D01*
X230545D01*
X230582Y284946D01*
X231095Y284603D01*
X231700Y284483D01*
X234528D01*
Y283307D01*
X234605Y282917D01*
X234826Y282586D01*
X235157Y282365D01*
X235547Y282288D01*
X237045D01*
X237383Y281783D01*
X237882Y281282D01*
X238395Y280940D01*
X239000Y280820D01*
X267000D01*
X267605Y280940D01*
X268117Y281282D01*
X269117Y282282D01*
X269373Y282665D01*
X270953D01*
X271343Y282743D01*
X271674Y282964D01*
X271895Y283295D01*
X271972Y283685D01*
Y284861D01*
X273345D01*
X273720Y284486D01*
Y280983D01*
X273840Y280379D01*
X274183Y279866D01*
X276953Y277096D01*
Y274783D01*
X281500D01*
Y279330D01*
X279188D01*
X276880Y281638D01*
Y285141D01*
X276760Y285746D01*
X276417Y286259D01*
X275117Y287559D01*
X274605Y287901D01*
X274000Y288021D01*
X271972D01*
Y289197D01*
X271895Y289587D01*
X271674Y289918D01*
X271343Y290139D01*
X270953Y290216D01*
X270227D01*
X269944Y290717D01*
X269960Y290743D01*
X270953D01*
X271265Y290806D01*
X271530Y290982D01*
X271706Y291247D01*
X271768Y291559D01*
Y292735D01*
X277157D01*
Y286972D01*
X277219Y286660D01*
X277396Y286396D01*
X277660Y286219D01*
X277972Y286157D01*
X280920D01*
Y284977D01*
X280525Y284675D01*
X280082Y284096D01*
X279803Y283423D01*
X279708Y282700D01*
X279803Y281977D01*
X280082Y281304D01*
X280525Y280726D01*
X281104Y280282D01*
X281777Y280003D01*
X282500Y279908D01*
X283223Y280003D01*
X283896Y280282D01*
X284474Y280726D01*
X284918Y281304D01*
X285197Y281977D01*
X285292Y282700D01*
X285197Y283423D01*
X284918Y284096D01*
X284474Y284675D01*
X284080Y284977D01*
Y286157D01*
X287020D01*
Y280538D01*
X285812Y279330D01*
X283500D01*
Y274783D01*
X288047D01*
Y277096D01*
X289718Y278766D01*
X290060Y279279D01*
X290180Y279883D01*
Y314900D01*
X290060Y315505D01*
X289718Y316018D01*
X288047Y317688D01*
Y320000D01*
D02*
G37*
G36*
X11602Y274193D02*
X9847D01*
X9020Y274084D01*
X8250Y273765D01*
X7589Y273257D01*
X7081Y272596D01*
X6835Y272000D01*
X11602D01*
Y274193D01*
D02*
G37*
G36*
Y260000D02*
X6835D01*
X7081Y259404D01*
X7589Y258742D01*
X8250Y258235D01*
X9020Y257916D01*
X9847Y257807D01*
X11602D01*
Y260000D01*
D02*
G37*
G36*
X18370D02*
X13602D01*
Y257807D01*
X15358D01*
X16185Y257916D01*
X16955Y258235D01*
X17616Y258742D01*
X18123Y259404D01*
X18370Y260000D01*
D02*
G37*
G36*
X11602Y264193D02*
X9847D01*
X9020Y264084D01*
X8250Y263765D01*
X7589Y263258D01*
X7081Y262596D01*
X6835Y262000D01*
X11602D01*
Y264193D01*
D02*
G37*
G36*
X49256Y263991D02*
X43744D01*
X42970Y263889D01*
X42249Y263590D01*
X41629Y263115D01*
X41154Y262495D01*
X40855Y261774D01*
X40753Y261000D01*
X40855Y260226D01*
X41154Y259505D01*
X41629Y258885D01*
X42249Y258410D01*
X42970Y258111D01*
X43744Y258009D01*
X49256D01*
X50030Y258111D01*
X50751Y258410D01*
X51371Y258885D01*
X51397Y258920D01*
X53583D01*
X53617Y258836D01*
X54146Y258146D01*
X54836Y257617D01*
X55638Y257285D01*
X56500Y257172D01*
X61500D01*
X62362Y257285D01*
X63164Y257617D01*
X63854Y258146D01*
X64383Y258836D01*
X64715Y259639D01*
X64828Y260500D01*
X64715Y261362D01*
X64383Y262164D01*
X63854Y262854D01*
X63164Y263383D01*
X62362Y263715D01*
X61500Y263828D01*
X56500D01*
X55638Y263715D01*
X54836Y263383D01*
X54146Y262854D01*
X53617Y262164D01*
X53583Y262080D01*
X52018D01*
X51846Y262495D01*
X51371Y263115D01*
X50751Y263590D01*
X50030Y263889D01*
X49256Y263991D01*
D02*
G37*
G36*
X382000Y253903D02*
Y251000D01*
X384903D01*
X384897Y251044D01*
X384494Y252017D01*
X383853Y252853D01*
X383017Y253494D01*
X382044Y253897D01*
X382000Y253903D01*
D02*
G37*
G36*
X11602Y254193D02*
X9847D01*
X9020Y254084D01*
X8250Y253765D01*
X7589Y253257D01*
X7081Y252596D01*
X6835Y252000D01*
X11602D01*
Y254193D01*
D02*
G37*
G36*
X15358D02*
X13602D01*
Y252000D01*
X18370D01*
X18123Y252596D01*
X17616Y253257D01*
X16955Y253765D01*
X16185Y254084D01*
X15358Y254193D01*
D02*
G37*
G36*
Y264193D02*
X13602D01*
Y262000D01*
X18370D01*
X18123Y262596D01*
X17616Y263258D01*
X16955Y263765D01*
X16185Y264084D01*
X15358Y264193D01*
D02*
G37*
G36*
X540000Y284891D02*
X534000D01*
X532373Y284731D01*
X530808Y284257D01*
X529366Y283486D01*
X528103Y282449D01*
X527065Y281185D01*
X526295Y279743D01*
X525820Y278178D01*
X525660Y276551D01*
X525820Y274924D01*
X526295Y273359D01*
X527065Y271918D01*
X528103Y270654D01*
X529366Y269617D01*
X530808Y268846D01*
X532373Y268371D01*
X534000Y268211D01*
X540000D01*
X541627Y268371D01*
X543192Y268846D01*
X544634Y269617D01*
X545897Y270654D01*
X546935Y271918D01*
X547705Y273359D01*
X548180Y274924D01*
X548340Y276551D01*
X548180Y278178D01*
X547705Y279743D01*
X546935Y281185D01*
X545897Y282449D01*
X544634Y283486D01*
X543192Y284257D01*
X541627Y284731D01*
X540000Y284891D01*
D02*
G37*
G36*
X281500Y272783D02*
X276953D01*
Y269256D01*
X277030Y268866D01*
X277252Y268535D01*
X277582Y268314D01*
X277972Y268236D01*
X281500D01*
Y272783D01*
D02*
G37*
G36*
X470500Y281846D02*
X469116Y281664D01*
X467827Y281130D01*
X466720Y280280D01*
X465871Y279173D01*
X465336Y277884D01*
X465154Y276500D01*
X465336Y275116D01*
X465871Y273827D01*
X466720Y272720D01*
X467827Y271870D01*
X469116Y271336D01*
X470500Y271154D01*
X471884Y271336D01*
X473173Y271870D01*
X474280Y272720D01*
X475130Y273827D01*
X475664Y275116D01*
X475846Y276500D01*
X475664Y277884D01*
X475130Y279173D01*
X474280Y280280D01*
X473173Y281130D01*
X471884Y281664D01*
X470500Y281846D01*
D02*
G37*
G36*
X18370Y270000D02*
X13602D01*
Y267807D01*
X15358D01*
X16185Y267916D01*
X16955Y268235D01*
X17616Y268742D01*
X18123Y269404D01*
X18370Y270000D01*
D02*
G37*
G36*
X434000Y278316D02*
X422000D01*
X421688Y278254D01*
X421423Y278077D01*
X421246Y277812D01*
X421184Y277500D01*
Y265500D01*
X421246Y265188D01*
X421423Y264923D01*
X421688Y264746D01*
X422000Y264684D01*
X434000D01*
X434312Y264746D01*
X434577Y264923D01*
X434754Y265188D01*
X434816Y265500D01*
Y277500D01*
X434754Y277812D01*
X434577Y278077D01*
X434312Y278254D01*
X434000Y278316D01*
D02*
G37*
G36*
X49256Y273991D02*
X43744D01*
X42970Y273889D01*
X42249Y273590D01*
X41629Y273115D01*
X41154Y272496D01*
X40855Y271774D01*
X40753Y271000D01*
X40855Y270226D01*
X41154Y269504D01*
X41629Y268885D01*
X42249Y268410D01*
X42970Y268111D01*
X43744Y268009D01*
X49256D01*
X50030Y268111D01*
X50751Y268410D01*
X51371Y268885D01*
X51397Y268920D01*
X53583D01*
X53617Y268836D01*
X54146Y268146D01*
X54836Y267618D01*
X55638Y267285D01*
X56500Y267172D01*
X61500D01*
X62362Y267285D01*
X63164Y267618D01*
X63854Y268146D01*
X64383Y268836D01*
X64715Y269638D01*
X64828Y270500D01*
X64715Y271361D01*
X64383Y272164D01*
X63854Y272854D01*
X63164Y273382D01*
X62362Y273715D01*
X61500Y273829D01*
X56500D01*
X55638Y273715D01*
X54836Y273382D01*
X54146Y272854D01*
X53617Y272164D01*
X53583Y272080D01*
X52018D01*
X51846Y272496D01*
X51371Y273115D01*
X50751Y273590D01*
X50030Y273889D01*
X49256Y273991D01*
D02*
G37*
G36*
X11602Y270000D02*
X6835D01*
X7081Y269404D01*
X7589Y268742D01*
X8250Y268235D01*
X9020Y267916D01*
X9847Y267807D01*
X11602D01*
Y270000D01*
D02*
G37*
G36*
X61500Y363828D02*
X56500D01*
X55638Y363715D01*
X54836Y363383D01*
X54146Y362854D01*
X53617Y362164D01*
X53285Y361362D01*
X53171Y360500D01*
X53285Y359639D01*
X53617Y358836D01*
X54146Y358146D01*
X54836Y357617D01*
X55638Y357285D01*
X56500Y357172D01*
X61500D01*
X62362Y357285D01*
X63164Y357617D01*
X63854Y358146D01*
X64383Y358836D01*
X64715Y359639D01*
X64828Y360500D01*
X64715Y361362D01*
X64383Y362164D01*
X63854Y362854D01*
X63164Y363383D01*
X62362Y363715D01*
X61500Y363828D01*
D02*
G37*
G36*
X208000Y364030D02*
X206500D01*
X205586Y363910D01*
X204735Y363557D01*
X204004Y362996D01*
X203443Y362265D01*
X203126Y361500D01*
X208000D01*
Y364030D01*
D02*
G37*
G36*
X480000Y374833D02*
X479008Y374702D01*
X478084Y374319D01*
X477290Y373710D01*
X476681Y372916D01*
X476298Y371992D01*
X476167Y371000D01*
X476298Y370008D01*
X476437Y369672D01*
X467632Y360868D01*
X467290Y360355D01*
X467170Y359750D01*
Y298250D01*
X467290Y297645D01*
X467632Y297132D01*
X485184Y279581D01*
Y272000D01*
X485246Y271688D01*
X485423Y271423D01*
X485688Y271246D01*
X486000Y271184D01*
X495000D01*
X495312Y271246D01*
X495577Y271423D01*
X495754Y271688D01*
X495816Y272000D01*
Y281000D01*
X495754Y281312D01*
X495577Y281577D01*
X495312Y281754D01*
X495000Y281816D01*
X487419D01*
X470330Y298905D01*
Y359095D01*
X478672Y367437D01*
X479008Y367298D01*
X480000Y367167D01*
X480992Y367298D01*
X481916Y367681D01*
X482710Y368290D01*
X483319Y369084D01*
X483702Y370008D01*
X483833Y371000D01*
X483702Y371992D01*
X483319Y372916D01*
X482710Y373710D01*
X481916Y374319D01*
X480992Y374702D01*
X480000Y374833D01*
D02*
G37*
G36*
X500000Y364833D02*
X499008Y364702D01*
X498084Y364319D01*
X497290Y363710D01*
X496681Y362916D01*
X496298Y361992D01*
X496167Y361000D01*
X496298Y360008D01*
X496681Y359084D01*
X497290Y358290D01*
X498084Y357681D01*
X499008Y357298D01*
X500000Y357167D01*
X500992Y357298D01*
X501916Y357681D01*
X502710Y358290D01*
X503319Y359084D01*
X503702Y360008D01*
X503833Y361000D01*
X503702Y361992D01*
X503319Y362916D01*
X502710Y363710D01*
X501916Y364319D01*
X500992Y364702D01*
X500000Y364833D01*
D02*
G37*
G36*
X596980Y374000D02*
X577000D01*
Y354021D01*
X578747Y354135D01*
X581447Y354672D01*
X584054Y355557D01*
X586522Y356774D01*
X588811Y358304D01*
X590881Y360119D01*
X592696Y362189D01*
X594226Y364477D01*
X595443Y366946D01*
X596328Y369553D01*
X596865Y372253D01*
X596980Y374000D01*
D02*
G37*
G36*
X208000Y359500D02*
X203126D01*
X203443Y358735D01*
X204004Y358004D01*
X204735Y357443D01*
X205586Y357090D01*
X206500Y356970D01*
X208000D01*
Y359500D01*
D02*
G37*
G36*
X480000Y364833D02*
X479008Y364702D01*
X478084Y364319D01*
X477290Y363710D01*
X476681Y362916D01*
X476298Y361992D01*
X476167Y361000D01*
X476298Y360008D01*
X476681Y359084D01*
X477290Y358290D01*
X478084Y357681D01*
X479008Y357298D01*
X480000Y357167D01*
X480992Y357298D01*
X481916Y357681D01*
X482710Y358290D01*
X483319Y359084D01*
X483702Y360008D01*
X483833Y361000D01*
X483702Y361992D01*
X483319Y362916D01*
X482710Y363710D01*
X481916Y364319D01*
X480992Y364702D01*
X480000Y364833D01*
D02*
G37*
G36*
X264571Y375512D02*
X263307D01*
X262917Y375434D01*
X262586Y375213D01*
X262365Y374882D01*
X262287Y374492D01*
Y374311D01*
X264571D01*
Y375512D01*
D02*
G37*
G36*
X577000Y395979D02*
Y376000D01*
X596980D01*
X596865Y377747D01*
X596328Y380447D01*
X595443Y383054D01*
X594226Y385523D01*
X592696Y387811D01*
X590881Y389881D01*
X588811Y391696D01*
X586522Y393226D01*
X584054Y394443D01*
X581447Y395328D01*
X578747Y395865D01*
X577000Y395979D01*
D02*
G37*
G36*
X255693Y384768D02*
X250181D01*
X249869Y384706D01*
X249604Y384529D01*
X249428Y384265D01*
X249365Y383953D01*
Y378047D01*
X249428Y377735D01*
X249604Y377470D01*
X249869Y377294D01*
X250181Y377232D01*
X255693D01*
X256005Y377294D01*
X256270Y377470D01*
X256447Y377735D01*
X256509Y378047D01*
Y379211D01*
X262612D01*
X262730Y379033D01*
X262995Y378857D01*
X263307Y378795D01*
X267835D01*
X268147Y378857D01*
X268411Y379033D01*
X268588Y379298D01*
X268650Y379610D01*
Y381972D01*
X268588Y382285D01*
X268411Y382549D01*
X268147Y382726D01*
X267835Y382788D01*
X263307D01*
X262995Y382726D01*
X262730Y382549D01*
X262612Y382372D01*
X256509D01*
Y383953D01*
X256447Y384265D01*
X256270Y384529D01*
X256005Y384706D01*
X255693Y384768D01*
D02*
G37*
G36*
X247819D02*
X242307D01*
X241995Y384706D01*
X241730Y384529D01*
X241553Y384265D01*
X241491Y383953D01*
Y382580D01*
X121917D01*
X121882Y382664D01*
X121354Y383354D01*
X120664Y383882D01*
X119861Y384215D01*
X119000Y384329D01*
X118139Y384215D01*
X117336Y383882D01*
X116646Y383354D01*
X116118Y382664D01*
X115785Y381861D01*
X115672Y381000D01*
X115785Y380138D01*
X116118Y379336D01*
X116646Y378646D01*
X117336Y378117D01*
X118139Y377785D01*
X119000Y377672D01*
X119861Y377785D01*
X120664Y378117D01*
X121354Y378646D01*
X121882Y379336D01*
X121917Y379420D01*
X241491D01*
Y378047D01*
X241553Y377735D01*
X241730Y377470D01*
X241995Y377294D01*
X242307Y377232D01*
X247819D01*
X248131Y377294D01*
X248396Y377470D01*
X248572Y377735D01*
X248635Y378047D01*
Y383953D01*
X248572Y384265D01*
X248396Y384529D01*
X248131Y384706D01*
X247819Y384768D01*
D02*
G37*
G36*
X575000Y395979D02*
X573253Y395865D01*
X570553Y395328D01*
X567946Y394443D01*
X565478Y393226D01*
X563189Y391696D01*
X561119Y389881D01*
X559304Y387811D01*
X557774Y385523D01*
X556557Y383054D01*
X555672Y380447D01*
X555135Y377747D01*
X555021Y376000D01*
X575000D01*
Y395979D01*
D02*
G37*
G36*
X267835Y375512D02*
X266571D01*
Y374311D01*
X268854D01*
Y374492D01*
X268777Y374882D01*
X268556Y375213D01*
X268225Y375434D01*
X267835Y375512D01*
D02*
G37*
G36*
X25000Y395979D02*
X23253Y395865D01*
X20553Y395328D01*
X17946Y394443D01*
X15477Y393226D01*
X13189Y391696D01*
X11119Y389881D01*
X9304Y387811D01*
X7774Y385523D01*
X6557Y383054D01*
X5672Y380447D01*
X5135Y377747D01*
X5020Y376000D01*
X25000D01*
Y395979D01*
D02*
G37*
G36*
X27000D02*
Y376000D01*
X46979D01*
X46865Y377747D01*
X46328Y380447D01*
X45443Y383054D01*
X44226Y385523D01*
X42696Y387811D01*
X40881Y389881D01*
X38811Y391696D01*
X36522Y393226D01*
X34054Y394443D01*
X31447Y395328D01*
X28747Y395865D01*
X27000Y395979D01*
D02*
G37*
G36*
X575000Y374000D02*
X555021D01*
X555135Y372253D01*
X555672Y369553D01*
X556557Y366946D01*
X557774Y364477D01*
X559304Y362189D01*
X561119Y360119D01*
X563189Y358304D01*
X565478Y356774D01*
X567946Y355557D01*
X570553Y354672D01*
X573253Y354135D01*
X575000Y354021D01*
Y374000D01*
D02*
G37*
G36*
X211500Y333828D02*
X206500D01*
X205639Y333715D01*
X204836Y333383D01*
X204146Y332854D01*
X203618Y332164D01*
X203285Y331362D01*
X203171Y330500D01*
X203285Y329639D01*
X203618Y328836D01*
X204146Y328146D01*
X204836Y327618D01*
X205639Y327285D01*
X206500Y327171D01*
X211500D01*
X212362Y327285D01*
X213164Y327618D01*
X213854Y328146D01*
X214383Y328836D01*
X214715Y329639D01*
X214828Y330500D01*
X214715Y331362D01*
X214383Y332164D01*
X213854Y332854D01*
X213164Y333383D01*
X212362Y333715D01*
X211500Y333828D01*
D02*
G37*
G36*
X238000Y332839D02*
X236047D01*
X235657Y332761D01*
X235326Y332540D01*
X235105Y332209D01*
X235028Y331819D01*
Y330643D01*
X228472D01*
Y331697D01*
X228395Y332087D01*
X228174Y332418D01*
X227843Y332639D01*
X227453Y332716D01*
X225500D01*
Y328941D01*
Y325166D01*
X227453D01*
X227843Y325243D01*
X228174Y325464D01*
X228395Y325795D01*
X228472Y326185D01*
Y327483D01*
X235028D01*
Y326307D01*
X235105Y325917D01*
X235326Y325586D01*
X235657Y325365D01*
X236047Y325288D01*
X238000D01*
Y329063D01*
Y332839D01*
D02*
G37*
G36*
X268854Y372311D02*
X265571D01*
X262287D01*
Y372130D01*
X262365Y371740D01*
X262586Y371409D01*
X262917Y371188D01*
X263307Y371110D01*
X264020D01*
Y342555D01*
X262282Y340817D01*
X261940Y340305D01*
X261820Y339700D01*
Y336904D01*
X261576Y336711D01*
X261079Y336933D01*
Y338161D01*
X261017Y338474D01*
X260841Y338738D01*
X260576Y338915D01*
X260264Y338977D01*
X255736D01*
X255424Y338915D01*
X255159Y338738D01*
X254983Y338474D01*
X254921Y338161D01*
Y335799D01*
X254983Y335487D01*
X255123Y335276D01*
X255077Y334996D01*
X254983Y334739D01*
X254722Y334687D01*
X254209Y334344D01*
X252982Y333118D01*
X252721Y332726D01*
X252221Y332867D01*
Y334421D01*
X252159Y334733D01*
X251982Y334998D01*
X251718Y335175D01*
X251406Y335237D01*
X246878D01*
X246566Y335175D01*
X246345Y335027D01*
X243318Y338054D01*
X242805Y338397D01*
X242768Y338404D01*
Y339693D01*
X242706Y340005D01*
X242530Y340270D01*
X242265Y340446D01*
X241953Y340509D01*
X236047D01*
X235735Y340446D01*
X235471Y340270D01*
X235294Y340005D01*
X235232Y339693D01*
Y338517D01*
X231722D01*
X231117Y338397D01*
X231115Y338395D01*
X228268D01*
Y339571D01*
X228206Y339883D01*
X228029Y340148D01*
X227765Y340324D01*
X227453Y340387D01*
X226080D01*
Y341133D01*
X226518Y341704D01*
X226797Y342377D01*
X226892Y343100D01*
X226797Y343823D01*
X226518Y344496D01*
X226075Y345075D01*
X225496Y345518D01*
X224823Y345797D01*
X224100Y345892D01*
X223377Y345797D01*
X222704Y345518D01*
X222126Y345075D01*
X221682Y344496D01*
X221403Y343823D01*
X221308Y343100D01*
X221403Y342377D01*
X221682Y341704D01*
X222126Y341125D01*
X222437Y340887D01*
X222267Y340387D01*
X221547D01*
X221235Y340324D01*
X220971Y340148D01*
X220794Y339883D01*
X220732Y339571D01*
Y334059D01*
X220794Y333747D01*
X220971Y333482D01*
X221235Y333306D01*
X221547Y333243D01*
X227453D01*
X227765Y333306D01*
X228029Y333482D01*
X228206Y333747D01*
X228268Y334059D01*
Y335235D01*
X231600D01*
X232205Y335355D01*
X232207Y335357D01*
X235232D01*
Y334181D01*
X235294Y333869D01*
X235471Y333604D01*
X235735Y333428D01*
X236047Y333365D01*
X241953D01*
X242265Y333428D01*
X242530Y333604D01*
X242554Y333641D01*
X243153Y333749D01*
X244779Y332123D01*
X245292Y331780D01*
X245897Y331660D01*
X246183D01*
X246301Y331482D01*
X246566Y331306D01*
X246878Y331243D01*
X251406D01*
X251718Y331306D01*
X251982Y331482D01*
X252020Y331538D01*
X252520Y331386D01*
Y330466D01*
X252020Y330271D01*
X251642Y330523D01*
X251037Y330643D01*
X242972D01*
Y331819D01*
X242895Y332209D01*
X242674Y332540D01*
X242343Y332761D01*
X241953Y332839D01*
X240000D01*
Y329063D01*
Y325288D01*
X241953D01*
X242343Y325365D01*
X242674Y325586D01*
X242895Y325917D01*
X242972Y326307D01*
Y327483D01*
X250382D01*
X252982Y324883D01*
X254533Y323333D01*
X255045Y322990D01*
X255650Y322870D01*
X268000D01*
X268605Y322990D01*
X269117Y323333D01*
X269340Y323665D01*
X270953D01*
X271343Y323743D01*
X271674Y323964D01*
X271895Y324295D01*
X271972Y324685D01*
Y325861D01*
X275404D01*
X276953Y324312D01*
Y322000D01*
X281500D01*
Y326547D01*
X279188D01*
X277176Y328558D01*
X276664Y328901D01*
X276059Y329021D01*
X271972D01*
Y330197D01*
X271895Y330587D01*
X271674Y330918D01*
X271343Y331139D01*
X270953Y331217D01*
X269000D01*
Y327441D01*
X267000D01*
Y331217D01*
X265047D01*
X264657Y331139D01*
X264221Y331449D01*
X264225Y331490D01*
X264618Y331884D01*
X264735Y331805D01*
X265047Y331743D01*
X270953D01*
X271265Y331805D01*
X271530Y331982D01*
X271706Y332247D01*
X271768Y332559D01*
Y333735D01*
X273500D01*
X274105Y333855D01*
X274618Y334197D01*
X276695Y336275D01*
X277157Y336084D01*
Y334189D01*
X277219Y333877D01*
X277396Y333612D01*
X277660Y333436D01*
X277972Y333373D01*
X285608D01*
X287478Y331504D01*
X287303Y331081D01*
X287208Y330358D01*
X287303Y329636D01*
X287582Y328962D01*
X288025Y328384D01*
X288604Y327940D01*
X289277Y327661D01*
X290000Y327566D01*
X290723Y327661D01*
X291396Y327940D01*
X291974Y328384D01*
X292418Y328962D01*
X292697Y329636D01*
X292784Y330292D01*
X293287Y330284D01*
X293298Y330167D01*
X293687Y328885D01*
X294319Y327704D01*
X295168Y326668D01*
X296204Y325819D01*
X297385Y325187D01*
X298667Y324798D01*
X300000Y324667D01*
X301333Y324798D01*
X302615Y325187D01*
X303568Y325697D01*
X334520Y294745D01*
Y227377D01*
X334125Y227075D01*
X333682Y226496D01*
X333403Y225823D01*
X333308Y225100D01*
X333403Y224377D01*
X333682Y223704D01*
X334125Y223126D01*
X334704Y222682D01*
X335377Y222403D01*
X336100Y222308D01*
X336823Y222403D01*
X337496Y222682D01*
X338074Y223126D01*
X338518Y223704D01*
X338797Y224377D01*
X338892Y225100D01*
X338797Y225823D01*
X338518Y226496D01*
X338074Y227075D01*
X337680Y227377D01*
Y237930D01*
X338180Y238176D01*
X338304Y238082D01*
X338977Y237803D01*
X339700Y237708D01*
X340193Y237772D01*
X373649Y204316D01*
X373442Y203816D01*
X368000D01*
X367688Y203754D01*
X367423Y203577D01*
X367246Y203312D01*
X367184Y203000D01*
Y201580D01*
X362009D01*
Y202953D01*
X361947Y203265D01*
X361770Y203530D01*
X361505Y203706D01*
X361193Y203768D01*
X355681D01*
X355369Y203706D01*
X355104Y203530D01*
X354927Y203265D01*
X354865Y202953D01*
Y197047D01*
X354927Y196735D01*
X355104Y196470D01*
X355369Y196294D01*
X355681Y196232D01*
X361193D01*
X361505Y196294D01*
X361770Y196470D01*
X361947Y196735D01*
X362009Y197047D01*
Y198420D01*
X367184D01*
Y197000D01*
X367246Y196688D01*
X367423Y196423D01*
X367688Y196246D01*
X368000Y196184D01*
X374000D01*
X374020Y196188D01*
X374520Y195829D01*
Y160332D01*
X374500Y160316D01*
X369919D01*
X369117Y161117D01*
X368605Y161460D01*
X368000Y161580D01*
X362887D01*
Y162953D01*
X362825Y163265D01*
X362648Y163530D01*
X362383Y163706D01*
X362071Y163768D01*
X356559D01*
X356247Y163706D01*
X355982Y163530D01*
X355805Y163265D01*
X355743Y162953D01*
Y157047D01*
X355805Y156735D01*
X355982Y156471D01*
X356247Y156294D01*
X356559Y156232D01*
X362071D01*
X362383Y156294D01*
X362648Y156471D01*
X362825Y156735D01*
X362887Y157047D01*
Y158420D01*
X367345D01*
X367684Y158081D01*
Y153500D01*
X367746Y153188D01*
X367923Y152923D01*
X368188Y152746D01*
X368500Y152684D01*
X374500D01*
X374520Y152668D01*
Y114171D01*
X374020Y113812D01*
X374000Y113816D01*
X368000D01*
X367688Y113754D01*
X367423Y113577D01*
X367246Y113312D01*
X367184Y113000D01*
Y111580D01*
X360387D01*
Y112953D01*
X360325Y113265D01*
X360148Y113530D01*
X359883Y113706D01*
X359571Y113768D01*
X354059D01*
X353747Y113706D01*
X353482Y113530D01*
X353306Y113265D01*
X353243Y112953D01*
Y107047D01*
X353306Y106735D01*
X353482Y106471D01*
X353747Y106294D01*
X354059Y106232D01*
X359571D01*
X359883Y106294D01*
X360148Y106471D01*
X360325Y106735D01*
X360387Y107047D01*
Y108420D01*
X367184D01*
Y107000D01*
X367246Y106688D01*
X367423Y106423D01*
X367688Y106246D01*
X368000Y106184D01*
X374000D01*
X374020Y106188D01*
X374520Y105830D01*
Y64170D01*
X374020Y63812D01*
X374000Y63816D01*
X368000D01*
X367688Y63754D01*
X367423Y63577D01*
X367246Y63312D01*
X367184Y63000D01*
Y58419D01*
X360060Y51295D01*
X357581D01*
X357334Y51795D01*
X357418Y51904D01*
X357697Y52577D01*
X357792Y53300D01*
X357718Y53864D01*
X357897Y54132D01*
X358017Y54737D01*
Y56732D01*
X359193D01*
X359505Y56794D01*
X359770Y56971D01*
X359946Y57235D01*
X360009Y57547D01*
Y63453D01*
X359946Y63765D01*
X359770Y64030D01*
X359505Y64206D01*
X359193Y64268D01*
X353681D01*
X353369Y64206D01*
X353104Y64030D01*
X352927Y63765D01*
X352865Y63453D01*
Y57547D01*
X352927Y57235D01*
X353104Y56971D01*
X353369Y56794D01*
X353681Y56732D01*
X354857D01*
Y56073D01*
X354277Y55997D01*
X353604Y55718D01*
X353026Y55274D01*
X352582Y54696D01*
X352303Y54023D01*
X352208Y53300D01*
X352303Y52577D01*
X352582Y51904D01*
X352665Y51795D01*
X352419Y51295D01*
X350503D01*
X350143Y51655D01*
Y56732D01*
X351319D01*
X351631Y56794D01*
X351896Y56971D01*
X352073Y57235D01*
X352135Y57547D01*
Y63453D01*
X352073Y63765D01*
X351896Y64030D01*
X351631Y64206D01*
X351319Y64268D01*
X345807D01*
X345495Y64206D01*
X345230Y64030D01*
X345054Y63765D01*
X344991Y63453D01*
Y57547D01*
X345054Y57235D01*
X345230Y56971D01*
X345495Y56794D01*
X345807Y56732D01*
X346983D01*
Y51000D01*
X347103Y50395D01*
X347446Y49883D01*
X348731Y48597D01*
X349244Y48254D01*
X349849Y48134D01*
X360714D01*
X361319Y48254D01*
X361832Y48597D01*
X369419Y56184D01*
X374000D01*
X374020Y56188D01*
X374520Y55830D01*
Y12300D01*
X374640Y11695D01*
X374983Y11182D01*
X378883Y7282D01*
X379395Y6940D01*
X380000Y6820D01*
X410000D01*
X410605Y6940D01*
X411118Y7282D01*
X412432Y8597D01*
X412775Y9110D01*
X412799Y9232D01*
X414071D01*
X414383Y9294D01*
X414648Y9471D01*
X414824Y9735D01*
X414887Y10047D01*
Y15953D01*
X414824Y16265D01*
X414648Y16530D01*
X414383Y16706D01*
X414071Y16768D01*
X412895D01*
Y21732D01*
X414071D01*
X414383Y21794D01*
X414648Y21971D01*
X414872Y21993D01*
X418482Y18383D01*
X418995Y18040D01*
X419049Y18029D01*
X419054Y18007D01*
X419230Y17742D01*
X419495Y17565D01*
X419807Y17503D01*
X424335D01*
X424647Y17565D01*
X424911Y17742D01*
X425088Y18007D01*
X425150Y18319D01*
Y20681D01*
X425088Y20993D01*
X424911Y21258D01*
X424647Y21435D01*
X424335Y21497D01*
X419838D01*
X414887Y26448D01*
Y28453D01*
X414824Y28765D01*
X414648Y29030D01*
X414383Y29206D01*
X414071Y29268D01*
X408559D01*
X408247Y29206D01*
X407982Y29030D01*
X407805Y28765D01*
X407743Y28453D01*
Y22547D01*
X407805Y22235D01*
X407982Y21971D01*
X408247Y21794D01*
X408559Y21732D01*
X409735D01*
Y16768D01*
X408559D01*
X408247Y16706D01*
X407982Y16530D01*
X407805Y16265D01*
X407743Y15953D01*
Y10047D01*
X407736Y10039D01*
X407713D01*
X407217Y10536D01*
Y12000D01*
X403441D01*
X399665D01*
Y10047D01*
X399611Y9980D01*
X389580D01*
Y12041D01*
X389758Y12159D01*
X389935Y12424D01*
X389997Y12736D01*
Y17264D01*
X389935Y17576D01*
X389758Y17841D01*
X389493Y18017D01*
X389181Y18079D01*
X386819D01*
X386507Y18017D01*
X386242Y17841D01*
X386065Y17576D01*
X386003Y17264D01*
Y12736D01*
X386065Y12424D01*
X386242Y12159D01*
X386420Y12041D01*
Y9980D01*
X380655D01*
X377680Y12955D01*
Y56989D01*
X377950Y57080D01*
X378180Y57122D01*
X378983Y56506D01*
X379956Y56103D01*
X380000Y56097D01*
Y60000D01*
Y63903D01*
X379956Y63897D01*
X378983Y63494D01*
X378180Y62878D01*
X377950Y62920D01*
X377680Y63011D01*
Y106989D01*
X377950Y107080D01*
X378180Y107122D01*
X378983Y106506D01*
X379956Y106103D01*
X380000Y106097D01*
Y110000D01*
Y113903D01*
X379956Y113897D01*
X378983Y113494D01*
X378180Y112878D01*
X377950Y112920D01*
X377680Y113011D01*
Y154086D01*
X378180Y154255D01*
X378647Y153647D01*
X379483Y153006D01*
X380456Y152603D01*
X380500Y152597D01*
Y156500D01*
Y160403D01*
X380456Y160397D01*
X379483Y159994D01*
X378647Y159353D01*
X378180Y158745D01*
X377680Y158914D01*
Y196989D01*
X377950Y197080D01*
X378180Y197122D01*
X378983Y196506D01*
X379956Y196103D01*
X380000Y196097D01*
Y200000D01*
Y203903D01*
X379956Y203897D01*
X378983Y203494D01*
X378180Y202878D01*
X377950Y202920D01*
X377680Y203011D01*
Y204100D01*
X377560Y204705D01*
X377218Y205218D01*
X342427Y240007D01*
X342492Y240500D01*
X342397Y241223D01*
X342118Y241896D01*
X341674Y242475D01*
X341096Y242918D01*
X340423Y243197D01*
X339700Y243292D01*
X338977Y243197D01*
X338304Y242918D01*
X338180Y242824D01*
X337680Y243070D01*
Y295400D01*
X337560Y296005D01*
X337217Y296517D01*
X305803Y327932D01*
X306313Y328885D01*
X306702Y330167D01*
X306833Y331500D01*
X306702Y332833D01*
X306313Y334115D01*
X305681Y335296D01*
X304832Y336332D01*
X303796Y337181D01*
X302615Y337813D01*
X301333Y338202D01*
X300000Y338333D01*
X298667Y338202D01*
X297385Y337813D01*
X296204Y337181D01*
X295168Y336332D01*
X294319Y335296D01*
X293687Y334115D01*
X293298Y332833D01*
X293167Y331500D01*
X293229Y330876D01*
X292732Y330819D01*
X292697Y331081D01*
X292418Y331754D01*
X291974Y332333D01*
X291396Y332777D01*
X290723Y333055D01*
X290347Y333105D01*
X287843Y335608D01*
Y343244D01*
X287781Y343556D01*
X287604Y343821D01*
X287340Y343998D01*
X287028Y344060D01*
X277972D01*
X277660Y343998D01*
X277396Y343821D01*
X277219Y343556D01*
X277157Y343244D01*
Y340297D01*
X276902D01*
X276297Y340177D01*
X275784Y339834D01*
X272845Y336895D01*
X271768D01*
Y338071D01*
X271706Y338383D01*
X271530Y338648D01*
X271265Y338825D01*
X270953Y338887D01*
X265529D01*
X265321Y339387D01*
X266718Y340782D01*
X267060Y341295D01*
X267180Y341900D01*
Y371110D01*
X267835D01*
X268225Y371188D01*
X268556Y371409D01*
X268777Y371740D01*
X268854Y372130D01*
Y372311D01*
D02*
G37*
G36*
X61500Y333828D02*
X56500D01*
X55638Y333715D01*
X54836Y333383D01*
X54146Y332854D01*
X53617Y332164D01*
X53285Y331362D01*
X53171Y330500D01*
X53285Y329639D01*
X53617Y328836D01*
X54146Y328146D01*
X54836Y327618D01*
X55638Y327285D01*
X56500Y327171D01*
X61500D01*
X62362Y327285D01*
X63164Y327618D01*
X63854Y328146D01*
X64383Y328836D01*
X64715Y329639D01*
X64828Y330500D01*
X64715Y331362D01*
X64383Y332164D01*
X63854Y332854D01*
X63164Y333383D01*
X62362Y333715D01*
X61500Y333828D01*
D02*
G37*
G36*
X509000Y391080D02*
X483500D01*
X482895Y390960D01*
X482382Y390617D01*
X478883Y387118D01*
X478540Y386605D01*
X478420Y386000D01*
Y384458D01*
X478084Y384319D01*
X477290Y383710D01*
X476681Y382916D01*
X476298Y381992D01*
X476167Y381000D01*
X476298Y380008D01*
X476681Y379084D01*
X477290Y378290D01*
X478084Y377681D01*
X479008Y377298D01*
X480000Y377167D01*
X480992Y377298D01*
X481916Y377681D01*
X482710Y378290D01*
X483319Y379084D01*
X483702Y380008D01*
X483833Y381000D01*
X483702Y381992D01*
X483319Y382916D01*
X482710Y383710D01*
X481916Y384319D01*
X481580Y384458D01*
Y385345D01*
X484155Y387920D01*
X508345D01*
X535420Y360845D01*
Y334867D01*
X526500D01*
X526188Y334805D01*
X525923Y334628D01*
X525746Y334363D01*
X525684Y334051D01*
Y319051D01*
X525746Y318739D01*
X525923Y318474D01*
X526188Y318298D01*
X526500Y318235D01*
X547500D01*
X547812Y318298D01*
X548077Y318474D01*
X548254Y318739D01*
X548316Y319051D01*
Y334051D01*
X548254Y334363D01*
X548077Y334628D01*
X547812Y334805D01*
X547500Y334867D01*
X538580D01*
Y361500D01*
X538460Y362105D01*
X538118Y362617D01*
X510117Y390617D01*
X509605Y390960D01*
X509000Y391080D01*
D02*
G37*
G36*
X287028Y326547D02*
X283500D01*
Y322000D01*
X288047D01*
Y325528D01*
X287969Y325918D01*
X287749Y326249D01*
X287418Y326469D01*
X287028Y326547D01*
D02*
G37*
G36*
X211500Y364030D02*
X210000D01*
Y360500D01*
Y356970D01*
X211500D01*
X212414Y357090D01*
X213265Y357443D01*
X213996Y358004D01*
X214339Y358026D01*
X215638Y356727D01*
Y330000D01*
X215676Y329808D01*
X215686Y329612D01*
X215736Y329508D01*
X215758Y329395D01*
X215867Y329232D01*
X215951Y329055D01*
X216037Y328978D01*
X216101Y328883D01*
X216264Y328773D01*
X216409Y328642D01*
X216518Y328604D01*
X216613Y328540D01*
X216806Y328502D01*
X216991Y328436D01*
X220528Y327922D01*
Y326185D01*
X220605Y325795D01*
X220826Y325464D01*
X221157Y325243D01*
X221547Y325166D01*
X223500D01*
Y328941D01*
Y332716D01*
X221547D01*
X221157Y332639D01*
X220826Y332418D01*
X220605Y332087D01*
X220528Y331697D01*
Y331498D01*
X220149Y331171D01*
X218798Y331367D01*
Y357382D01*
X218678Y357987D01*
X218336Y358500D01*
X215217Y361617D01*
X214705Y361960D01*
X214682Y361965D01*
X214557Y362265D01*
X213996Y362996D01*
X213265Y363557D01*
X212414Y363910D01*
X211500Y364030D01*
D02*
G37*
G36*
X61500Y343829D02*
X56500D01*
X55638Y343715D01*
X54836Y343383D01*
X54146Y342854D01*
X53617Y342164D01*
X53285Y341361D01*
X53171Y340500D01*
X53285Y339638D01*
X53617Y338836D01*
X54146Y338146D01*
X54836Y337617D01*
X55638Y337285D01*
X56500Y337172D01*
X61500D01*
X62362Y337285D01*
X63164Y337617D01*
X63854Y338146D01*
X64383Y338836D01*
X64715Y339638D01*
X64828Y340500D01*
X64715Y341361D01*
X64383Y342164D01*
X63854Y342854D01*
X63164Y343383D01*
X62362Y343715D01*
X61500Y343829D01*
D02*
G37*
G36*
X428000Y363333D02*
X426667Y363202D01*
X425385Y362813D01*
X424204Y362181D01*
X423168Y361332D01*
X422319Y360296D01*
X421687Y359115D01*
X421298Y357833D01*
X421167Y356500D01*
X421298Y355167D01*
X421687Y353885D01*
X422319Y352704D01*
X423168Y351668D01*
X424204Y350819D01*
X425385Y350187D01*
X426667Y349798D01*
X428000Y349667D01*
X429333Y349798D01*
X430615Y350187D01*
X431796Y350819D01*
X432832Y351668D01*
X433681Y352704D01*
X434313Y353885D01*
X434702Y355167D01*
X434833Y356500D01*
X434702Y357833D01*
X434313Y359115D01*
X433681Y360296D01*
X432832Y361332D01*
X431796Y362181D01*
X430615Y362813D01*
X429333Y363202D01*
X428000Y363333D01*
D02*
G37*
G36*
X25000Y374000D02*
X5020D01*
X5135Y372253D01*
X5672Y369553D01*
X6557Y366946D01*
X7774Y364477D01*
X9304Y362189D01*
X11119Y360119D01*
X13189Y358304D01*
X15477Y356774D01*
X17946Y355557D01*
X20553Y354672D01*
X23253Y354135D01*
X25000Y354021D01*
Y374000D01*
D02*
G37*
G36*
X46979D02*
X27000D01*
Y354021D01*
X28747Y354135D01*
X31447Y354672D01*
X34054Y355557D01*
X36522Y356774D01*
X38811Y358304D01*
X40881Y360119D01*
X42696Y362189D01*
X44226Y364477D01*
X45443Y366946D01*
X46328Y369553D01*
X46865Y372253D01*
X46979Y374000D01*
D02*
G37*
G36*
X211500Y353829D02*
X206500D01*
X205639Y353715D01*
X204836Y353382D01*
X204146Y352854D01*
X203618Y352164D01*
X203285Y351361D01*
X203171Y350500D01*
X203285Y349639D01*
X203618Y348836D01*
X204146Y348146D01*
X204836Y347618D01*
X205639Y347285D01*
X206500Y347171D01*
X211500D01*
X212362Y347285D01*
X213164Y347618D01*
X213854Y348146D01*
X214383Y348836D01*
X214715Y349639D01*
X214828Y350500D01*
X214715Y351361D01*
X214383Y352164D01*
X213854Y352854D01*
X213164Y353382D01*
X212362Y353715D01*
X211500Y353829D01*
D02*
G37*
G36*
Y343829D02*
X206500D01*
X205639Y343715D01*
X204836Y343383D01*
X204146Y342854D01*
X203618Y342164D01*
X203285Y341361D01*
X203171Y340500D01*
X203285Y339638D01*
X203618Y338836D01*
X204146Y338146D01*
X204836Y337617D01*
X205639Y337285D01*
X206500Y337172D01*
X211500D01*
X212362Y337285D01*
X213164Y337617D01*
X213854Y338146D01*
X214383Y338836D01*
X214715Y339638D01*
X214828Y340500D01*
X214715Y341361D01*
X214383Y342164D01*
X213854Y342854D01*
X213164Y343383D01*
X212362Y343715D01*
X211500Y343829D01*
D02*
G37*
G36*
X276693Y379048D02*
X272165D01*
X271853Y378986D01*
X271589Y378809D01*
X271412Y378544D01*
X271350Y378232D01*
Y375870D01*
X271412Y375558D01*
X271589Y375293D01*
X271853Y375116D01*
X272165Y375054D01*
X276693D01*
X277005Y375116D01*
X277270Y375293D01*
X277388Y375471D01*
X294094D01*
X328073Y341493D01*
X328008Y341000D01*
X328103Y340277D01*
X328382Y339604D01*
X328825Y339025D01*
X329404Y338582D01*
X330077Y338303D01*
X330800Y338208D01*
X331523Y338303D01*
X332196Y338582D01*
X332774Y339025D01*
X333218Y339604D01*
X333497Y340277D01*
X333592Y341000D01*
X333497Y341723D01*
X333218Y342396D01*
X332774Y342974D01*
X332196Y343418D01*
X331523Y343697D01*
X330800Y343792D01*
X330307Y343727D01*
X295866Y378169D01*
X295354Y378511D01*
X294749Y378632D01*
X277388D01*
X277270Y378809D01*
X277005Y378986D01*
X276693Y379048D01*
D02*
G37*
G36*
X61500Y353829D02*
X56500D01*
X55638Y353715D01*
X54836Y353382D01*
X54146Y352854D01*
X53617Y352164D01*
X53285Y351361D01*
X53171Y350500D01*
X53285Y349639D01*
X53617Y348836D01*
X54146Y348146D01*
X54836Y347618D01*
X55638Y347285D01*
X56500Y347171D01*
X61500D01*
X62362Y347285D01*
X63164Y347618D01*
X63854Y348146D01*
X64383Y348836D01*
X64715Y349639D01*
X64828Y350500D01*
X64715Y351361D01*
X64383Y352164D01*
X63854Y352854D01*
X63164Y353382D01*
X62362Y353715D01*
X61500Y353829D01*
D02*
G37*
G36*
X540000Y209891D02*
X534000D01*
X532373Y209731D01*
X530808Y209257D01*
X529366Y208486D01*
X528103Y207449D01*
X527065Y206185D01*
X526295Y204743D01*
X525820Y203178D01*
X525660Y201551D01*
X525820Y199924D01*
X526295Y198360D01*
X527065Y196918D01*
X528103Y195654D01*
X529366Y194617D01*
X530808Y193846D01*
X532373Y193371D01*
X534000Y193211D01*
X540000D01*
X541627Y193371D01*
X543192Y193846D01*
X544634Y194617D01*
X545897Y195654D01*
X546935Y196918D01*
X547705Y198360D01*
X548180Y199924D01*
X548340Y201551D01*
X548180Y203178D01*
X547705Y204743D01*
X546935Y206185D01*
X545897Y207449D01*
X544634Y208486D01*
X543192Y209257D01*
X541627Y209731D01*
X540000Y209891D01*
D02*
G37*
G36*
X289000Y197500D02*
X284980D01*
Y194500D01*
X285058Y194110D01*
X285279Y193779D01*
X285610Y193558D01*
X286000Y193480D01*
X289000D01*
Y197500D01*
D02*
G37*
G36*
X295020D02*
X291000D01*
Y193480D01*
X294000D01*
X294390Y193558D01*
X294721Y193779D01*
X294942Y194110D01*
X295020Y194500D01*
Y197500D01*
D02*
G37*
G36*
X194300Y332592D02*
X193577Y332497D01*
X192904Y332218D01*
X192325Y331774D01*
X191882Y331196D01*
X191603Y330523D01*
X191508Y329800D01*
X191603Y329077D01*
X191882Y328404D01*
X192325Y327825D01*
X192744Y327504D01*
X194220Y190483D01*
X194281Y190189D01*
X194340Y189895D01*
X194345Y189888D01*
X194346Y189880D01*
X194516Y189632D01*
X194683Y189383D01*
X194690Y189378D01*
X194695Y189371D01*
X194946Y189207D01*
X195195Y189040D01*
X195204Y189038D01*
X195211Y189033D01*
X195506Y188978D01*
X195800Y188920D01*
X203583D01*
X203618Y188836D01*
X204146Y188146D01*
X204836Y187618D01*
X205639Y187285D01*
X206500Y187171D01*
X211500D01*
X212362Y187285D01*
X213164Y187618D01*
X213854Y188146D01*
X214383Y188836D01*
X214715Y189638D01*
X214828Y190500D01*
X214715Y191361D01*
X214383Y192164D01*
X213854Y192854D01*
X213164Y193383D01*
X212362Y193715D01*
X211500Y193828D01*
X206500D01*
X205639Y193715D01*
X204836Y193383D01*
X204146Y192854D01*
X203618Y192164D01*
X203583Y192080D01*
X197363D01*
X195905Y327542D01*
X196274Y327825D01*
X196718Y328404D01*
X196997Y329077D01*
X197092Y329800D01*
X196997Y330523D01*
X196718Y331196D01*
X196274Y331774D01*
X195696Y332218D01*
X195023Y332497D01*
X194300Y332592D01*
D02*
G37*
G36*
X540000Y184891D02*
X534000D01*
X532373Y184731D01*
X530808Y184256D01*
X529366Y183486D01*
X528103Y182449D01*
X527065Y181185D01*
X526295Y179743D01*
X525820Y178178D01*
X525660Y176551D01*
X525820Y174924D01*
X526295Y173360D01*
X527065Y171918D01*
X528103Y170654D01*
X529366Y169617D01*
X530808Y168846D01*
X532373Y168371D01*
X534000Y168211D01*
X540000D01*
X541627Y168371D01*
X543192Y168846D01*
X544634Y169617D01*
X545897Y170654D01*
X546935Y171918D01*
X547705Y173360D01*
X548180Y174924D01*
X548340Y176551D01*
X548180Y178178D01*
X547705Y179743D01*
X546935Y181185D01*
X545897Y182449D01*
X544634Y183486D01*
X543192Y184256D01*
X541627Y184731D01*
X540000Y184891D01*
D02*
G37*
G36*
X61500Y183828D02*
X56500D01*
X55638Y183715D01*
X54836Y183382D01*
X54146Y182854D01*
X53617Y182164D01*
X53285Y181361D01*
X53171Y180500D01*
X53285Y179639D01*
X53617Y178836D01*
X54146Y178146D01*
X54836Y177618D01*
X55638Y177285D01*
X56500Y177172D01*
X61500D01*
X62362Y177285D01*
X63164Y177618D01*
X63854Y178146D01*
X64383Y178836D01*
X64715Y179639D01*
X64828Y180500D01*
X64715Y181361D01*
X64383Y182164D01*
X63854Y182854D01*
X63164Y183382D01*
X62362Y183715D01*
X61500Y183828D01*
D02*
G37*
G36*
X211500D02*
X206500D01*
X205639Y183715D01*
X204836Y183382D01*
X204146Y182854D01*
X203618Y182164D01*
X203285Y181361D01*
X203171Y180500D01*
X203285Y179639D01*
X203618Y178836D01*
X204146Y178146D01*
X204836Y177618D01*
X205639Y177285D01*
X206500Y177172D01*
X211500D01*
X212362Y177285D01*
X213164Y177618D01*
X213854Y178146D01*
X214383Y178836D01*
X214715Y179639D01*
X214828Y180500D01*
X214715Y181361D01*
X214383Y182164D01*
X213854Y182854D01*
X213164Y183382D01*
X212362Y183715D01*
X211500Y183828D01*
D02*
G37*
G36*
X300000Y278333D02*
X298667Y278202D01*
X297385Y277813D01*
X296204Y277181D01*
X295168Y276332D01*
X294319Y275296D01*
X293687Y274115D01*
X293298Y272833D01*
X293167Y271500D01*
X293298Y270167D01*
X293687Y268885D01*
X294319Y267704D01*
X295168Y266668D01*
X296204Y265819D01*
X297385Y265187D01*
X298420Y264873D01*
Y203500D01*
X298540Y202895D01*
X298883Y202382D01*
X300672Y200593D01*
X300324Y199753D01*
X300159Y198500D01*
X300324Y197247D01*
X300807Y196079D01*
X301577Y195077D01*
X302579Y194307D01*
X303747Y193824D01*
X305000Y193659D01*
X306253Y193824D01*
X307421Y194307D01*
X308423Y195077D01*
X309193Y196079D01*
X309677Y197247D01*
X309841Y198500D01*
X309677Y199753D01*
X309193Y200921D01*
X308423Y201923D01*
X307421Y202693D01*
X306253Y203176D01*
X305000Y203341D01*
X303747Y203176D01*
X302907Y202828D01*
X301580Y204155D01*
Y264873D01*
X302615Y265187D01*
X303796Y265819D01*
X304832Y266668D01*
X305681Y267704D01*
X306313Y268885D01*
X306702Y270167D01*
X306833Y271500D01*
X306702Y272833D01*
X306313Y274115D01*
X305681Y275296D01*
X304832Y276332D01*
X303796Y277181D01*
X302615Y277813D01*
X301333Y278202D01*
X300000Y278333D01*
D02*
G37*
G36*
Y363333D02*
X298667Y363202D01*
X297385Y362813D01*
X296204Y362181D01*
X295168Y361332D01*
X294319Y360296D01*
X293687Y359115D01*
X293298Y357833D01*
X293167Y356500D01*
X293298Y355167D01*
X293687Y353885D01*
X294319Y352704D01*
X295168Y351668D01*
X296204Y350819D01*
X297385Y350187D01*
X298667Y349798D01*
X300000Y349667D01*
X301333Y349798D01*
X302615Y350187D01*
X303568Y350697D01*
X448920Y205345D01*
Y203541D01*
X448079Y203193D01*
X447077Y202423D01*
X446307Y201421D01*
X445823Y200253D01*
X445659Y199000D01*
X445823Y197747D01*
X446307Y196579D01*
X447077Y195577D01*
X448079Y194807D01*
X449247Y194324D01*
X450500Y194159D01*
X451753Y194324D01*
X452921Y194807D01*
X453923Y195577D01*
X454693Y196579D01*
X455176Y197747D01*
X455341Y199000D01*
X455176Y200253D01*
X454693Y201421D01*
X453923Y202423D01*
X452921Y203193D01*
X452080Y203541D01*
Y206000D01*
X451960Y206605D01*
X451617Y207118D01*
X305803Y352932D01*
X306313Y353885D01*
X306702Y355167D01*
X306833Y356500D01*
X306702Y357833D01*
X306313Y359115D01*
X305681Y360296D01*
X304832Y361332D01*
X303796Y362181D01*
X302615Y362813D01*
X301333Y363202D01*
X300000Y363333D01*
D02*
G37*
G36*
X384903Y199000D02*
X382000D01*
Y196097D01*
X382044Y196103D01*
X383017Y196506D01*
X383853Y197147D01*
X384494Y197983D01*
X384897Y198956D01*
X384903Y199000D01*
D02*
G37*
G36*
X346400Y211192D02*
X345677Y211097D01*
X345004Y210818D01*
X344426Y210374D01*
X343982Y209796D01*
X343703Y209123D01*
X343608Y208400D01*
X343703Y207677D01*
X343982Y207004D01*
X344426Y206425D01*
X344820Y206123D01*
Y201000D01*
X344940Y200395D01*
X345283Y199882D01*
X346283Y198882D01*
X346795Y198540D01*
X346991Y198501D01*
Y197047D01*
X347054Y196735D01*
X347230Y196470D01*
X347495Y196294D01*
X347807Y196232D01*
X353319D01*
X353631Y196294D01*
X353896Y196470D01*
X354072Y196735D01*
X354135Y197047D01*
Y202953D01*
X354072Y203265D01*
X353896Y203530D01*
X353631Y203706D01*
X353319Y203768D01*
X347980D01*
Y206123D01*
X348375Y206425D01*
X348818Y207004D01*
X349097Y207677D01*
X349192Y208400D01*
X349097Y209123D01*
X348818Y209796D01*
X348375Y210374D01*
X347796Y210818D01*
X347123Y211097D01*
X346400Y211192D01*
D02*
G37*
G36*
X435500Y203841D02*
X434247Y203676D01*
X433079Y203193D01*
X432077Y202423D01*
X431307Y201421D01*
X430824Y200253D01*
X430659Y199000D01*
X430824Y197747D01*
X431307Y196579D01*
X432077Y195577D01*
X433079Y194807D01*
X434247Y194324D01*
X435500Y194159D01*
X436753Y194324D01*
X437921Y194807D01*
X438923Y195577D01*
X439693Y196579D01*
X440176Y197747D01*
X440341Y199000D01*
X440176Y200253D01*
X439693Y201421D01*
X438923Y202423D01*
X437921Y203193D01*
X436753Y203676D01*
X435500Y203841D01*
D02*
G37*
G36*
X300000Y303333D02*
X298667Y303202D01*
X297385Y302813D01*
X296204Y302181D01*
X295168Y301332D01*
X294319Y300296D01*
X293687Y299115D01*
X293298Y297833D01*
X293167Y296500D01*
X293298Y295167D01*
X293687Y293885D01*
X294319Y292704D01*
X295168Y291668D01*
X296204Y290819D01*
X297385Y290187D01*
X298667Y289798D01*
X300000Y289667D01*
X301333Y289798D01*
X302615Y290187D01*
X303568Y290697D01*
X307420Y286845D01*
Y224500D01*
X307540Y223895D01*
X307882Y223382D01*
X318420Y212845D01*
Y203041D01*
X317579Y202693D01*
X316577Y201923D01*
X315807Y200921D01*
X315323Y199753D01*
X315159Y198500D01*
X315323Y197247D01*
X315807Y196079D01*
X316577Y195077D01*
X317579Y194307D01*
X318747Y193824D01*
X320000Y193659D01*
X321253Y193824D01*
X322421Y194307D01*
X323423Y195077D01*
X324193Y196079D01*
X324676Y197247D01*
X324841Y198500D01*
X324676Y199753D01*
X324193Y200921D01*
X323423Y201923D01*
X322421Y202693D01*
X321580Y203041D01*
Y213500D01*
X321460Y214105D01*
X321117Y214617D01*
X310580Y225155D01*
Y287500D01*
X310460Y288105D01*
X310118Y288617D01*
X305803Y292932D01*
X306313Y293885D01*
X306702Y295167D01*
X306833Y296500D01*
X306702Y297833D01*
X306313Y299115D01*
X305681Y300296D01*
X304832Y301332D01*
X303796Y302181D01*
X302615Y302813D01*
X301333Y303202D01*
X300000Y303333D01*
D02*
G37*
G36*
X464500Y198000D02*
X460589D01*
X460629Y197695D01*
X461132Y196478D01*
X461934Y195434D01*
X462978Y194632D01*
X464195Y194129D01*
X464500Y194088D01*
Y198000D01*
D02*
G37*
G36*
X470411D02*
X466500D01*
Y194088D01*
X466805Y194129D01*
X468022Y194632D01*
X469066Y195434D01*
X469868Y196478D01*
X470371Y197695D01*
X470411Y198000D01*
D02*
G37*
G36*
X211500Y173828D02*
X206500D01*
X205639Y173715D01*
X204836Y173382D01*
X204146Y172854D01*
X203618Y172164D01*
X203285Y171361D01*
X203171Y170500D01*
X203285Y169639D01*
X203618Y168836D01*
X204146Y168146D01*
X204836Y167617D01*
X205639Y167285D01*
X206500Y167172D01*
X211500D01*
X212362Y167285D01*
X213164Y167617D01*
X213854Y168146D01*
X214383Y168836D01*
X214715Y169639D01*
X214828Y170500D01*
X214715Y171361D01*
X214383Y172164D01*
X213854Y172854D01*
X213164Y173382D01*
X212362Y173715D01*
X211500Y173828D01*
D02*
G37*
G36*
X540000Y160092D02*
X538000D01*
Y152551D01*
X548443D01*
X548377Y153217D01*
X547891Y154820D01*
X547102Y156296D01*
X546039Y157591D01*
X544745Y158653D01*
X543269Y159442D01*
X541666Y159928D01*
X540000Y160092D01*
D02*
G37*
G36*
X385403Y155500D02*
X382500D01*
Y152597D01*
X382544Y152603D01*
X383517Y153006D01*
X384353Y153647D01*
X384994Y154483D01*
X385397Y155456D01*
X385403Y155500D01*
D02*
G37*
G36*
X25500Y156000D02*
X22645D01*
X22649Y155968D01*
X23047Y155007D01*
X23681Y154181D01*
X24507Y153547D01*
X25468Y153149D01*
X25500Y153145D01*
Y156000D01*
D02*
G37*
G36*
X536000Y160092D02*
X534000D01*
X532334Y159928D01*
X530731Y159442D01*
X529255Y158653D01*
X527960Y157591D01*
X526898Y156296D01*
X526109Y154820D01*
X525623Y153217D01*
X525557Y152551D01*
X536000D01*
Y160092D01*
D02*
G37*
G36*
X451500Y153500D02*
X447588D01*
X447629Y153195D01*
X448133Y151978D01*
X448934Y150934D01*
X449978Y150133D01*
X451195Y149629D01*
X451500Y149589D01*
Y153500D01*
D02*
G37*
G36*
X457411D02*
X453500D01*
Y149589D01*
X453805Y149629D01*
X455022Y150133D01*
X456066Y150934D01*
X456868Y151978D01*
X457371Y153195D01*
X457411Y153500D01*
D02*
G37*
G36*
X424500Y203816D02*
X416500D01*
X416188Y203754D01*
X415923Y203577D01*
X415746Y203312D01*
X415684Y203000D01*
Y195000D01*
X415746Y194688D01*
X415923Y194423D01*
X416188Y194246D01*
X416500Y194184D01*
X418920D01*
Y178800D01*
X419040Y178195D01*
X419382Y177682D01*
X420920Y176145D01*
Y159316D01*
X418500D01*
X418188Y159254D01*
X417923Y159077D01*
X417746Y158812D01*
X417684Y158500D01*
Y150500D01*
X417746Y150188D01*
X417923Y149923D01*
X418188Y149746D01*
X418500Y149684D01*
X426500D01*
X426812Y149746D01*
X427077Y149923D01*
X427254Y150188D01*
X427316Y150500D01*
Y158500D01*
X427254Y158812D01*
X427077Y159077D01*
X426812Y159254D01*
X426500Y159316D01*
X424080D01*
Y176800D01*
X423960Y177405D01*
X423618Y177918D01*
X422080Y179455D01*
Y194184D01*
X424500D01*
X424812Y194246D01*
X425077Y194423D01*
X425254Y194688D01*
X425316Y195000D01*
Y203000D01*
X425254Y203312D01*
X425077Y203577D01*
X424812Y203754D01*
X424500Y203816D01*
D02*
G37*
G36*
X30355Y156000D02*
X27500D01*
Y153145D01*
X27532Y153149D01*
X28493Y153547D01*
X29319Y154181D01*
X29953Y155007D01*
X30351Y155968D01*
X30355Y156000D01*
D02*
G37*
G36*
X382500Y160403D02*
Y157500D01*
X385403D01*
X385397Y157544D01*
X384994Y158517D01*
X384353Y159353D01*
X383517Y159994D01*
X382544Y160397D01*
X382500Y160403D01*
D02*
G37*
G36*
X25500Y160855D02*
X25468Y160851D01*
X24507Y160453D01*
X23681Y159819D01*
X23047Y158993D01*
X22649Y158032D01*
X22645Y158000D01*
X25500D01*
Y160855D01*
D02*
G37*
G36*
X27500D02*
Y158000D01*
X30355D01*
X30351Y158032D01*
X29953Y158993D01*
X29319Y159819D01*
X28493Y160453D01*
X27532Y160851D01*
X27500Y160855D01*
D02*
G37*
G36*
X211500Y163829D02*
X206500D01*
X205639Y163715D01*
X204836Y163382D01*
X204146Y162854D01*
X203618Y162164D01*
X203285Y161362D01*
X203171Y160500D01*
X203285Y159639D01*
X203618Y158836D01*
X204146Y158146D01*
X204836Y157617D01*
X205639Y157285D01*
X206500Y157171D01*
X211500D01*
X212362Y157285D01*
X213164Y157617D01*
X213854Y158146D01*
X214383Y158836D01*
X214715Y159639D01*
X214828Y160500D01*
X214715Y161362D01*
X214383Y162164D01*
X213854Y162854D01*
X213164Y163382D01*
X212362Y163715D01*
X211500Y163829D01*
D02*
G37*
G36*
X293500Y158020D02*
X290500D01*
Y154000D01*
X294520D01*
Y157000D01*
X294442Y157390D01*
X294221Y157721D01*
X293890Y157942D01*
X293500Y158020D01*
D02*
G37*
G36*
X451500Y159412D02*
X451195Y159371D01*
X449978Y158868D01*
X448934Y158066D01*
X448133Y157022D01*
X447629Y155805D01*
X447588Y155500D01*
X451500D01*
Y159412D01*
D02*
G37*
G36*
X453500D02*
Y155500D01*
X457411D01*
X457371Y155805D01*
X456868Y157022D01*
X456066Y158066D01*
X455022Y158868D01*
X453805Y159371D01*
X453500Y159412D01*
D02*
G37*
G36*
X61500Y203829D02*
X56500D01*
X55638Y203715D01*
X54836Y203382D01*
X54146Y202854D01*
X53617Y202164D01*
X53285Y201361D01*
X53171Y200500D01*
X53285Y199638D01*
X53617Y198836D01*
X54146Y198146D01*
X54836Y197617D01*
X55638Y197285D01*
X56500Y197171D01*
X61500D01*
X62362Y197285D01*
X63164Y197617D01*
X63854Y198146D01*
X64383Y198836D01*
X64715Y199638D01*
X64828Y200500D01*
X64715Y201361D01*
X64383Y202164D01*
X63854Y202854D01*
X63164Y203382D01*
X62362Y203715D01*
X61500Y203829D01*
D02*
G37*
G36*
X504500Y249087D02*
X503572Y248964D01*
X502707Y248606D01*
X501964Y248036D01*
X501394Y247293D01*
X501036Y246428D01*
X500913Y245500D01*
X501036Y244572D01*
X501394Y243707D01*
X501964Y242964D01*
X502707Y242394D01*
X503572Y242036D01*
X504500Y241913D01*
X505428Y242036D01*
X506293Y242394D01*
X507036Y242964D01*
X507606Y243707D01*
X507964Y244572D01*
X508087Y245500D01*
X507964Y246428D01*
X507606Y247293D01*
X507036Y248036D01*
X506293Y248606D01*
X505428Y248964D01*
X504500Y249087D01*
D02*
G37*
G36*
X500000Y374833D02*
X499008Y374702D01*
X498084Y374319D01*
X497290Y373710D01*
X496681Y372916D01*
X496298Y371992D01*
X496167Y371000D01*
X496298Y370008D01*
X496681Y369084D01*
X497290Y368290D01*
X498084Y367681D01*
X499008Y367298D01*
X500000Y367167D01*
X500992Y367298D01*
X501916Y367681D01*
X502710Y368290D01*
X503169Y368888D01*
X503773Y368992D01*
X515420Y357345D01*
Y265000D01*
X515540Y264395D01*
X515882Y263882D01*
X525998Y253766D01*
X525820Y253178D01*
X525660Y251551D01*
X525820Y249924D01*
X526295Y248359D01*
X527065Y246918D01*
X528103Y245654D01*
X529366Y244617D01*
X530808Y243846D01*
X532373Y243371D01*
X534000Y243211D01*
X540000D01*
X541627Y243371D01*
X543192Y243846D01*
X544634Y244617D01*
X545897Y245654D01*
X546935Y246918D01*
X547705Y248359D01*
X548180Y249924D01*
X548340Y251551D01*
X548180Y253178D01*
X547705Y254743D01*
X546935Y256185D01*
X545897Y257449D01*
X544634Y258486D01*
X543192Y259257D01*
X541627Y259731D01*
X540000Y259891D01*
X534000D01*
X532373Y259731D01*
X530808Y259257D01*
X529366Y258486D01*
X528103Y257449D01*
X527745Y257013D01*
X527246Y256989D01*
X518580Y265655D01*
Y358000D01*
X518460Y358605D01*
X518118Y359118D01*
X505118Y372117D01*
X504605Y372460D01*
X504000Y372580D01*
X503458D01*
X503319Y372916D01*
X502710Y373710D01*
X501916Y374319D01*
X500992Y374702D01*
X500000Y374833D01*
D02*
G37*
G36*
X380000Y249000D02*
X377097D01*
X377103Y248956D01*
X377506Y247983D01*
X378147Y247147D01*
X378983Y246506D01*
X379956Y246103D01*
X380000Y246097D01*
Y249000D01*
D02*
G37*
G36*
X444500Y315392D02*
X443777Y315297D01*
X443104Y315018D01*
X442525Y314575D01*
X442082Y313996D01*
X441803Y313323D01*
X441708Y312600D01*
X441803Y311877D01*
X442082Y311204D01*
X442525Y310626D01*
X442920Y310323D01*
Y248694D01*
X442707Y248606D01*
X441964Y248036D01*
X441394Y247293D01*
X441036Y246428D01*
X440913Y245500D01*
X441036Y244572D01*
X441394Y243707D01*
X441964Y242964D01*
X442707Y242394D01*
X443572Y242036D01*
X444500Y241913D01*
X445428Y242036D01*
X446293Y242394D01*
X447036Y242964D01*
X447606Y243707D01*
X447964Y244572D01*
X448087Y245500D01*
X447964Y246428D01*
X447606Y247293D01*
X447036Y248036D01*
X446293Y248606D01*
X446080Y248694D01*
Y310323D01*
X446475Y310626D01*
X446918Y311204D01*
X447197Y311877D01*
X447292Y312600D01*
X447197Y313323D01*
X446918Y313996D01*
X446475Y314575D01*
X445896Y315018D01*
X445223Y315297D01*
X444500Y315392D01*
D02*
G37*
G36*
X505000Y226587D02*
X504072Y226464D01*
X503207Y226106D01*
X502464Y225536D01*
X501894Y224793D01*
X501536Y223928D01*
X501413Y223000D01*
X501536Y222072D01*
X501894Y221207D01*
X502464Y220464D01*
X503207Y219894D01*
X504072Y219536D01*
X505000Y219413D01*
X505928Y219536D01*
X506793Y219894D01*
X507536Y220464D01*
X508106Y221207D01*
X508464Y222072D01*
X508587Y223000D01*
X508464Y223928D01*
X508106Y224793D01*
X507536Y225536D01*
X506793Y226106D01*
X505928Y226464D01*
X505000Y226587D01*
D02*
G37*
G36*
X61500Y233828D02*
X56500D01*
X55638Y233715D01*
X54836Y233383D01*
X54146Y232854D01*
X53617Y232164D01*
X53285Y231362D01*
X53171Y230500D01*
X53285Y229639D01*
X53617Y228836D01*
X54146Y228146D01*
X54836Y227618D01*
X55638Y227285D01*
X56500Y227171D01*
X61500D01*
X62362Y227285D01*
X63164Y227618D01*
X63854Y228146D01*
X64383Y228836D01*
X64715Y229639D01*
X64828Y230500D01*
X64715Y231362D01*
X64383Y232164D01*
X63854Y232854D01*
X63164Y233383D01*
X62362Y233715D01*
X61500Y233828D01*
D02*
G37*
G36*
Y243829D02*
X56500D01*
X55638Y243715D01*
X54836Y243383D01*
X54146Y242854D01*
X53617Y242164D01*
X53285Y241361D01*
X53171Y240500D01*
X53285Y239638D01*
X53617Y238836D01*
X54146Y238146D01*
X54836Y237617D01*
X55638Y237285D01*
X56500Y237172D01*
X61500D01*
X62362Y237285D01*
X63164Y237617D01*
X63854Y238146D01*
X64383Y238836D01*
X64715Y239638D01*
X64828Y240500D01*
X64715Y241361D01*
X64383Y242164D01*
X63854Y242854D01*
X63164Y243383D01*
X62362Y243715D01*
X61500Y243829D01*
D02*
G37*
G36*
X384903Y249000D02*
X382000D01*
Y246097D01*
X382044Y246103D01*
X383017Y246506D01*
X383853Y247147D01*
X384494Y247983D01*
X384897Y248956D01*
X384903Y249000D01*
D02*
G37*
G36*
X11602Y250000D02*
X6835D01*
X7081Y249404D01*
X7589Y248743D01*
X8250Y248235D01*
X9020Y247916D01*
X9847Y247807D01*
X11602D01*
Y250000D01*
D02*
G37*
G36*
X18370D02*
X13602D01*
Y247807D01*
X15358D01*
X16185Y247916D01*
X16955Y248235D01*
X17616Y248743D01*
X18123Y249404D01*
X18370Y250000D01*
D02*
G37*
G36*
X380000Y253903D02*
X379956Y253897D01*
X378983Y253494D01*
X378147Y252853D01*
X377506Y252017D01*
X377103Y251044D01*
X377097Y251000D01*
X380000D01*
Y253903D01*
D02*
G37*
G36*
X49256Y253991D02*
X43744D01*
X42970Y253889D01*
X42249Y253590D01*
X41629Y253115D01*
X41154Y252496D01*
X40855Y251774D01*
X40753Y251000D01*
X40855Y250226D01*
X41154Y249504D01*
X41629Y248885D01*
X42249Y248410D01*
X42970Y248111D01*
X43744Y248009D01*
X49256D01*
X50030Y248111D01*
X50751Y248410D01*
X51371Y248885D01*
X51397Y248920D01*
X53583D01*
X53617Y248836D01*
X54146Y248146D01*
X54836Y247618D01*
X55638Y247285D01*
X56500Y247171D01*
X61500D01*
X62362Y247285D01*
X63164Y247618D01*
X63854Y248146D01*
X64383Y248836D01*
X64715Y249639D01*
X64828Y250500D01*
X64715Y251361D01*
X64383Y252164D01*
X63854Y252854D01*
X63164Y253382D01*
X62362Y253715D01*
X61500Y253829D01*
X56500D01*
X55638Y253715D01*
X54836Y253382D01*
X54146Y252854D01*
X53617Y252164D01*
X53583Y252080D01*
X52018D01*
X51846Y252496D01*
X51371Y253115D01*
X50751Y253590D01*
X50030Y253889D01*
X49256Y253991D01*
D02*
G37*
G36*
X374000Y253816D02*
X368000D01*
X367688Y253754D01*
X367423Y253577D01*
X367246Y253312D01*
X367184Y253000D01*
Y247000D01*
X367246Y246688D01*
X367423Y246423D01*
X367688Y246246D01*
X368000Y246184D01*
X374000D01*
X374312Y246246D01*
X374577Y246423D01*
X374754Y246688D01*
X374816Y247000D01*
Y253000D01*
X374754Y253312D01*
X374577Y253577D01*
X374312Y253754D01*
X374000Y253816D01*
D02*
G37*
G36*
X316185Y259392D02*
X315462Y259297D01*
X314789Y259018D01*
X314211Y258575D01*
X313767Y257996D01*
X313488Y257323D01*
X313393Y256600D01*
X313488Y255877D01*
X313767Y255204D01*
X314211Y254626D01*
X314605Y254323D01*
Y253768D01*
X313429D01*
X313117Y253706D01*
X312852Y253530D01*
X312675Y253265D01*
X312613Y252953D01*
Y247047D01*
X312675Y246735D01*
X312852Y246470D01*
X313117Y246294D01*
X313429Y246232D01*
X318941D01*
X319253Y246294D01*
X319518Y246470D01*
X319694Y246735D01*
X319757Y247047D01*
Y252953D01*
X319694Y253265D01*
X319518Y253530D01*
X319253Y253706D01*
X318941Y253768D01*
X317765D01*
Y254323D01*
X318160Y254626D01*
X318603Y255204D01*
X318882Y255877D01*
X318977Y256600D01*
X318882Y257323D01*
X318603Y257996D01*
X318160Y258575D01*
X317581Y259018D01*
X316908Y259297D01*
X316185Y259392D01*
D02*
G37*
G36*
X324100Y297192D02*
X323377Y297097D01*
X322704Y296818D01*
X322126Y296375D01*
X321682Y295796D01*
X321403Y295123D01*
X321308Y294400D01*
X321403Y293677D01*
X321682Y293004D01*
X322126Y292425D01*
X322479Y292155D01*
Y253768D01*
X321303D01*
X320991Y253706D01*
X320726Y253530D01*
X320550Y253265D01*
X320487Y252953D01*
Y247047D01*
X320550Y246735D01*
X320726Y246470D01*
X320991Y246294D01*
X321303Y246232D01*
X326815D01*
X327127Y246294D01*
X327392Y246470D01*
X327569Y246735D01*
X327631Y247047D01*
Y252953D01*
X327569Y253265D01*
X327392Y253530D01*
X327127Y253706D01*
X326815Y253768D01*
X325639D01*
Y292092D01*
X326075Y292425D01*
X326518Y293004D01*
X326797Y293677D01*
X326892Y294400D01*
X326797Y295123D01*
X326518Y295796D01*
X326075Y296375D01*
X325496Y296818D01*
X324823Y297097D01*
X324100Y297192D01*
D02*
G37*
G36*
X445000Y226587D02*
X444072Y226464D01*
X443207Y226106D01*
X442464Y225536D01*
X441894Y224793D01*
X441536Y223928D01*
X441413Y223000D01*
X441536Y222072D01*
X441894Y221207D01*
X442464Y220464D01*
X443207Y219894D01*
X444072Y219536D01*
X445000Y219413D01*
X445928Y219536D01*
X446793Y219894D01*
X447536Y220464D01*
X448106Y221207D01*
X448464Y222072D01*
X448587Y223000D01*
X448464Y223928D01*
X448106Y224793D01*
X447536Y225536D01*
X446793Y226106D01*
X445928Y226464D01*
X445000Y226587D01*
D02*
G37*
G36*
X382000Y203903D02*
Y201000D01*
X384903D01*
X384897Y201044D01*
X384494Y202017D01*
X383853Y202853D01*
X383017Y203494D01*
X382044Y203897D01*
X382000Y203903D01*
D02*
G37*
G36*
X239972Y204126D02*
X237000D01*
Y201350D01*
X238953D01*
X239343Y201428D01*
X239674Y201649D01*
X239895Y201980D01*
X239972Y202370D01*
Y204126D01*
D02*
G37*
G36*
X331000Y296392D02*
X330277Y296297D01*
X329604Y296018D01*
X329026Y295574D01*
X328582Y294996D01*
X328303Y294323D01*
X328208Y293600D01*
X328303Y292877D01*
X328582Y292204D01*
X329026Y291625D01*
X329420Y291323D01*
Y216800D01*
X329540Y216195D01*
X329883Y215683D01*
X339220Y206345D01*
Y201707D01*
X338720Y201537D01*
X338423Y201923D01*
X337421Y202693D01*
X336253Y203176D01*
X335000Y203341D01*
X333747Y203176D01*
X332579Y202693D01*
X331577Y201923D01*
X330807Y200921D01*
X330324Y199753D01*
X330159Y198500D01*
X330324Y197247D01*
X330807Y196079D01*
X331577Y195077D01*
X332579Y194307D01*
X333420Y193959D01*
Y178746D01*
X320530Y157706D01*
X319500Y157841D01*
X318247Y157676D01*
X317079Y157193D01*
X316077Y156423D01*
X315307Y155421D01*
X314824Y154253D01*
X314659Y153000D01*
X314824Y151747D01*
X315307Y150579D01*
X316077Y149577D01*
X317079Y148807D01*
X318247Y148324D01*
X319500Y148159D01*
X320753Y148324D01*
X321921Y148807D01*
X322923Y149577D01*
X323693Y150579D01*
X324177Y151747D01*
X324341Y153000D01*
X324177Y154253D01*
X323693Y155421D01*
X323217Y156041D01*
X336348Y177474D01*
X336391Y177592D01*
X336460Y177695D01*
X336496Y177878D01*
X336561Y178053D01*
X336556Y178178D01*
X336580Y178300D01*
Y193959D01*
X337421Y194307D01*
X338423Y195077D01*
X338720Y195463D01*
X339220Y195293D01*
Y186800D01*
X339340Y186195D01*
X339683Y185682D01*
X349861Y175504D01*
Y163768D01*
X348685D01*
X348373Y163706D01*
X348108Y163530D01*
X347932Y163265D01*
X347869Y162953D01*
Y157047D01*
X347932Y156735D01*
X348108Y156471D01*
X348373Y156294D01*
X348685Y156232D01*
X354197D01*
X354509Y156294D01*
X354774Y156471D01*
X354950Y156735D01*
X355013Y157047D01*
Y162953D01*
X354950Y163265D01*
X354774Y163530D01*
X354509Y163706D01*
X354197Y163768D01*
X353021D01*
Y176159D01*
X352901Y176764D01*
X352558Y177277D01*
X342380Y187455D01*
Y207000D01*
X342260Y207605D01*
X341917Y208118D01*
X332580Y217455D01*
Y291323D01*
X332975Y291625D01*
X333418Y292204D01*
X333697Y292877D01*
X333792Y293600D01*
X333697Y294323D01*
X333418Y294996D01*
X332975Y295574D01*
X332396Y296018D01*
X331723Y296297D01*
X331000Y296392D01*
D02*
G37*
G36*
X288047Y272783D02*
X283500D01*
Y268236D01*
X285812D01*
X288420Y265629D01*
Y203520D01*
X286000D01*
X285610Y203442D01*
X285279Y203221D01*
X285058Y202890D01*
X284980Y202500D01*
Y199500D01*
X290000D01*
X295020D01*
Y202500D01*
X294942Y202890D01*
X294721Y203221D01*
X294390Y203442D01*
X294000Y203520D01*
X291580D01*
Y266283D01*
X291460Y266888D01*
X291118Y267401D01*
X288047Y270471D01*
Y272783D01*
D02*
G37*
G36*
X464500Y203911D02*
X464195Y203871D01*
X462978Y203367D01*
X461934Y202566D01*
X461132Y201522D01*
X460629Y200305D01*
X460589Y200000D01*
X464500D01*
Y203911D01*
D02*
G37*
G36*
X466500D02*
Y200000D01*
X470411D01*
X470371Y200305D01*
X469868Y201522D01*
X469066Y202566D01*
X468022Y203367D01*
X466805Y203871D01*
X466500Y203911D01*
D02*
G37*
G36*
X238953Y208902D02*
X237000D01*
Y206126D01*
X239972D01*
Y207882D01*
X239895Y208272D01*
X239674Y208603D01*
X239343Y208824D01*
X238953Y208902D01*
D02*
G37*
G36*
X61500Y213828D02*
X56500D01*
X55638Y213715D01*
X54836Y213383D01*
X54146Y212854D01*
X53617Y212164D01*
X53285Y211362D01*
X53171Y210500D01*
X53285Y209639D01*
X53617Y208836D01*
X54146Y208146D01*
X54836Y207617D01*
X55638Y207285D01*
X56500Y207172D01*
X61500D01*
X62362Y207285D01*
X63164Y207617D01*
X63854Y208146D01*
X64383Y208836D01*
X64715Y209639D01*
X64828Y210500D01*
X64715Y211362D01*
X64383Y212164D01*
X63854Y212854D01*
X63164Y213383D01*
X62362Y213715D01*
X61500Y213828D01*
D02*
G37*
G36*
Y223829D02*
X56500D01*
X55638Y223715D01*
X54836Y223382D01*
X54146Y222854D01*
X53617Y222164D01*
X53285Y221361D01*
X53171Y220500D01*
X53285Y219638D01*
X53617Y218836D01*
X54146Y218146D01*
X54836Y217618D01*
X55638Y217285D01*
X56500Y217172D01*
X61500D01*
X62362Y217285D01*
X63164Y217618D01*
X63854Y218146D01*
X64383Y218836D01*
X64715Y219638D01*
X64828Y220500D01*
X64715Y221361D01*
X64383Y222164D01*
X63854Y222854D01*
X63164Y223382D01*
X62362Y223715D01*
X61500Y223829D01*
D02*
G37*
G36*
X540000Y234891D02*
X534000D01*
X532373Y234731D01*
X530808Y234257D01*
X529366Y233486D01*
X528103Y232449D01*
X527065Y231185D01*
X526295Y229743D01*
X525820Y228178D01*
X525660Y226551D01*
X525820Y224924D01*
X526295Y223359D01*
X527065Y221918D01*
X528103Y220654D01*
X529366Y219617D01*
X530808Y218846D01*
X532373Y218371D01*
X534000Y218211D01*
X540000D01*
X541627Y218371D01*
X543192Y218846D01*
X544634Y219617D01*
X545897Y220654D01*
X546935Y221918D01*
X547705Y223359D01*
X548180Y224924D01*
X548340Y226551D01*
X548180Y228178D01*
X547705Y229743D01*
X546935Y231185D01*
X545897Y232449D01*
X544634Y233486D01*
X543192Y234257D01*
X541627Y234731D01*
X540000Y234891D01*
D02*
G37*
G36*
X235000Y208902D02*
X233047D01*
X232657Y208824D01*
X232326Y208603D01*
X232105Y208272D01*
X232028Y207882D01*
Y206706D01*
X230200D01*
X229595Y206586D01*
X229082Y206243D01*
X229045Y206206D01*
X227972D01*
Y207382D01*
X227895Y207772D01*
X227674Y208103D01*
X227343Y208324D01*
X226953Y208401D01*
X225000D01*
Y204626D01*
Y200851D01*
X226953D01*
X227343Y200928D01*
X227674Y201149D01*
X227895Y201480D01*
X227972Y201870D01*
Y203046D01*
X229700D01*
X230305Y203166D01*
X230818Y203508D01*
X230855Y203546D01*
X232028D01*
Y202370D01*
X232105Y201980D01*
X232326Y201649D01*
X232657Y201428D01*
X233047Y201350D01*
X235000D01*
Y205126D01*
Y208902D01*
D02*
G37*
%LPD*%
G36*
X253003Y293236D02*
X252895Y292860D01*
X252382Y292517D01*
X250142Y290277D01*
X249800Y289765D01*
X249779Y289662D01*
X249767Y289659D01*
X249502Y289482D01*
X249325Y289218D01*
X249263Y288906D01*
Y284378D01*
X248832Y283980D01*
X242472D01*
Y285063D01*
X238500D01*
Y286063D01*
X237500D01*
Y289839D01*
X235547D01*
X235157Y289761D01*
X234826Y289540D01*
X234605Y289209D01*
X234528Y288819D01*
Y287643D01*
X232355D01*
X232317Y287681D01*
X231805Y288023D01*
X231200Y288143D01*
X228472D01*
Y289319D01*
X228395Y289709D01*
X228174Y290040D01*
X227843Y290261D01*
X227453Y290338D01*
X225500D01*
Y286563D01*
X223500D01*
Y290338D01*
X221547D01*
X221157Y290261D01*
X220880Y290076D01*
X220638Y290138D01*
X220380Y290272D01*
Y291088D01*
X220880Y291239D01*
X220971Y291104D01*
X221235Y290928D01*
X221547Y290865D01*
X227453D01*
X227765Y290928D01*
X228029Y291104D01*
X228206Y291369D01*
X228268Y291681D01*
Y292857D01*
X230545D01*
X230582Y292819D01*
X231095Y292477D01*
X231700Y292357D01*
X234732D01*
Y291181D01*
X234794Y290869D01*
X234970Y290604D01*
X235235Y290427D01*
X235547Y290365D01*
X241453D01*
X241765Y290427D01*
X242030Y290604D01*
X242206Y290869D01*
X242268Y291181D01*
Y292357D01*
X245900D01*
X246505Y292477D01*
X247018Y292819D01*
X248118Y293920D01*
X253003D01*
Y293236D01*
D02*
G37*
G36*
X277420Y214345D02*
Y144263D01*
X277540Y143658D01*
X277883Y143145D01*
X291120Y129908D01*
Y106997D01*
X288272D01*
X287960Y106935D01*
X287695Y106758D01*
X287518Y106493D01*
X287456Y106181D01*
Y103819D01*
X287518Y103507D01*
X287695Y103242D01*
X287960Y103065D01*
X288272Y103003D01*
X296920D01*
Y102158D01*
X296420Y101887D01*
X295752Y102020D01*
X289453D01*
X288680Y101866D01*
X288252Y101580D01*
X270000D01*
X269395Y101460D01*
X268882Y101118D01*
X267882Y100118D01*
X267540Y99605D01*
X267420Y99000D01*
Y86131D01*
X266047D01*
X265735Y86068D01*
X265471Y85892D01*
X265294Y85627D01*
X265232Y85315D01*
Y84139D01*
X260722D01*
X260117Y84019D01*
X260115Y84017D01*
X256268D01*
Y85193D01*
X256206Y85505D01*
X256030Y85770D01*
X255765Y85947D01*
X255453Y86009D01*
X249547D01*
X249235Y85947D01*
X248971Y85770D01*
X248794Y85505D01*
X248732Y85193D01*
Y84017D01*
X245722D01*
X245117Y83897D01*
X244604Y83555D01*
X244445Y83395D01*
X242268D01*
Y84571D01*
X242206Y84883D01*
X242030Y85148D01*
X241765Y85325D01*
X241453Y85387D01*
X235547D01*
X235480Y85441D01*
Y170045D01*
X252717Y187283D01*
X253060Y187795D01*
X253180Y188400D01*
Y199178D01*
X253680Y199385D01*
X253883Y199182D01*
X254395Y198840D01*
X255000Y198720D01*
X269000D01*
X269605Y198840D01*
X270117Y199182D01*
X271618Y200682D01*
X271866Y201054D01*
X273453D01*
X273765Y201116D01*
X274029Y201293D01*
X274206Y201558D01*
X274268Y201870D01*
Y207382D01*
X274206Y207694D01*
X274029Y207959D01*
X273765Y208136D01*
X273453Y208198D01*
X267676D01*
X267672Y208201D01*
X267484Y208551D01*
X267459Y208686D01*
X267648Y208928D01*
X273453D01*
X273765Y208991D01*
X274029Y209167D01*
X274206Y209432D01*
X274268Y209744D01*
Y215256D01*
X274206Y215568D01*
X274029Y215833D01*
X273765Y216009D01*
X273453Y216072D01*
X267547D01*
X267235Y216009D01*
X267080Y215906D01*
X266696Y216040D01*
X266580Y216128D01*
Y216723D01*
X266974Y217025D01*
X267418Y217604D01*
X267697Y218277D01*
X267792Y219000D01*
X267697Y219723D01*
X267418Y220396D01*
X266974Y220974D01*
X266396Y221418D01*
X266393Y221420D01*
X266492Y221920D01*
X269845D01*
X277420Y214345D01*
D02*
G37*
G36*
X281420Y177657D02*
Y147500D01*
X281540Y146895D01*
X281883Y146382D01*
X283383Y144883D01*
X283895Y144540D01*
X284500Y144420D01*
X290545D01*
X295939Y139026D01*
X295706Y138552D01*
X295401Y138592D01*
X294679Y138497D01*
X294005Y138218D01*
X293427Y137775D01*
X292983Y137196D01*
X292704Y136523D01*
X292609Y135800D01*
X292704Y135077D01*
X292983Y134404D01*
X293427Y133826D01*
X294005Y133382D01*
X294679Y133103D01*
X295401Y133008D01*
X295894Y133072D01*
X296920Y132047D01*
Y106997D01*
X294280D01*
Y130563D01*
X294160Y131168D01*
X293817Y131680D01*
X280580Y144917D01*
Y177784D01*
X280856Y177934D01*
X281022Y177970D01*
X281420Y177657D01*
D02*
G37*
G36*
X221157Y282865D02*
X221547Y282787D01*
X222920D01*
Y225655D01*
X214345Y217080D01*
X213174D01*
X213075Y217580D01*
X213164Y217618D01*
X213854Y218146D01*
X214383Y218836D01*
X214715Y219638D01*
X214828Y220500D01*
X214715Y221361D01*
X214383Y222164D01*
X213854Y222854D01*
X213164Y223382D01*
X212362Y223715D01*
X211500Y223829D01*
X206500D01*
X205639Y223715D01*
X204836Y223382D01*
X204146Y222854D01*
X203618Y222164D01*
X203285Y221361D01*
X203171Y220500D01*
X203285Y219638D01*
X203618Y218836D01*
X204146Y218146D01*
X204836Y217618D01*
X204925Y217580D01*
X204826Y217080D01*
X203900D01*
X203295Y216960D01*
X202783Y216617D01*
X202142Y215977D01*
X201680Y216169D01*
Y222345D01*
X203755Y224420D01*
X217800D01*
X218405Y224540D01*
X218917Y224883D01*
X219917Y225883D01*
X220260Y226395D01*
X220380Y227000D01*
Y282854D01*
X220638Y282988D01*
X220880Y283050D01*
X221157Y282865D01*
D02*
G37*
%LPC*%
G36*
X241453Y289839D02*
X239500D01*
Y287063D01*
X242472D01*
Y288819D01*
X242395Y289209D01*
X242174Y289540D01*
X241843Y289761D01*
X241453Y289839D01*
D02*
G37*
%LPD*%
D10*
X422071Y19500D02*
D03*
X430929Y23240D02*
D03*
Y15760D02*
D03*
X274429Y377051D02*
D03*
X265571Y373311D02*
D03*
Y380791D02*
D03*
X249142Y333240D02*
D03*
X258000Y336980D02*
D03*
Y329500D02*
D03*
D11*
X403500Y35500D02*
D03*
X411374D02*
D03*
X324059Y250000D02*
D03*
X316185D02*
D03*
X252937Y381000D02*
D03*
X245063D02*
D03*
X429937Y52000D02*
D03*
X422063D02*
D03*
X403500Y45000D02*
D03*
X411374D02*
D03*
X403441Y13000D02*
D03*
X411315D02*
D03*
X356437Y60500D02*
D03*
X348563D02*
D03*
X348941Y110000D02*
D03*
X356815D02*
D03*
X351441Y160000D02*
D03*
X359315D02*
D03*
X350563Y200000D02*
D03*
X358437D02*
D03*
X403441Y25500D02*
D03*
X411315D02*
D03*
D12*
X12602Y281000D02*
D03*
D13*
Y271000D02*
D03*
Y261000D02*
D03*
Y251000D02*
D03*
X46500Y281000D02*
D03*
Y271000D02*
D03*
Y261000D02*
D03*
Y251000D02*
D03*
D14*
X282500Y291500D02*
D03*
Y273783D02*
D03*
Y338717D02*
D03*
Y321000D02*
D03*
D15*
X388000Y15000D02*
D03*
X384260Y23858D02*
D03*
X391740D02*
D03*
X399500Y57500D02*
D03*
X395760Y66358D02*
D03*
X403240D02*
D03*
X255000Y295500D02*
D03*
X258740Y286642D02*
D03*
X251260D02*
D03*
X491500Y323500D02*
D03*
X495240Y314642D02*
D03*
X487760D02*
D03*
D16*
X324500Y88563D02*
D03*
Y96437D02*
D03*
X259500Y204626D02*
D03*
Y212500D02*
D03*
X460000Y106437D02*
D03*
Y98563D02*
D03*
X236000Y205126D02*
D03*
Y213000D02*
D03*
X247000Y205126D02*
D03*
Y213000D02*
D03*
X270500Y204626D02*
D03*
Y212500D02*
D03*
X252500Y74563D02*
D03*
Y82437D02*
D03*
X238500Y81815D02*
D03*
Y73941D02*
D03*
X224500Y286563D02*
D03*
Y294437D02*
D03*
X268000Y286441D02*
D03*
Y294315D02*
D03*
X224500Y328941D02*
D03*
Y336815D02*
D03*
X224000Y204626D02*
D03*
Y212500D02*
D03*
X269000Y74685D02*
D03*
Y82559D02*
D03*
X238500Y286063D02*
D03*
Y293937D02*
D03*
X48500Y47937D02*
D03*
Y40063D02*
D03*
X239000Y329063D02*
D03*
Y336937D02*
D03*
X268000Y327441D02*
D03*
Y335315D02*
D03*
D17*
X292602Y105000D02*
D03*
D18*
Y100000D02*
D03*
Y95000D02*
D03*
Y90000D02*
D03*
X311500Y105000D02*
D03*
Y100000D02*
D03*
Y95000D02*
D03*
Y90000D02*
D03*
X521051Y110500D02*
D03*
Y105500D02*
D03*
Y100500D02*
D03*
Y95500D02*
D03*
X539949Y110500D02*
D03*
Y105500D02*
D03*
Y100500D02*
D03*
Y95500D02*
D03*
D19*
X295000Y61000D02*
D03*
X312717D02*
D03*
D20*
X255650Y324450D02*
X268000D01*
X224500Y329063D02*
X239000D01*
X48500Y50500D02*
X59000D01*
X292700Y105000D02*
Y130563D01*
X279000Y144263D02*
Y215000D01*
X270500Y223500D02*
X279000Y215000D01*
X261500Y223500D02*
X270500D01*
X300000Y296500D02*
X309000Y287500D01*
Y224500D02*
Y287500D01*
Y224500D02*
X320000Y213500D01*
X26500Y167000D02*
X28000Y165500D01*
X93500D01*
X157000Y102000D01*
Y76500D02*
Y102000D01*
Y76500D02*
X193000Y40500D01*
X209000D01*
X26500Y137000D02*
X34500D01*
X41000Y130500D01*
Y112500D02*
Y130500D01*
Y112500D02*
X53000Y100500D01*
X59000D01*
X26500Y117000D02*
X37500Y106000D01*
Y77000D02*
Y106000D01*
Y77000D02*
X44000Y70500D01*
X59000D01*
X381000Y60000D02*
X383000D01*
X403500Y35500D02*
Y45000D01*
X403441Y25500D02*
X403500Y25559D01*
Y35500D01*
X411374Y44626D02*
Y45563D01*
X410937Y45063D02*
X411374Y44626D01*
X410937Y46000D02*
Y52000D01*
Y46000D02*
X411374Y45563D01*
X410937Y46000D02*
X410937Y46000D01*
X411374Y35500D02*
Y44626D01*
X42500Y270500D02*
X59000D01*
X42500Y250500D02*
X59000D01*
X42500Y280500D02*
X59000D01*
X42500Y260500D02*
X59000D01*
X243950Y208100D02*
X247000D01*
X460000Y61400D02*
Y83700D01*
X298700Y32500D02*
Y46900D01*
X265000Y213500D02*
Y219000D01*
X259500Y221500D02*
X261500Y223500D01*
X259500Y212500D02*
Y221500D01*
X282500Y338717D02*
X290000Y331217D01*
Y330358D02*
Y331217D01*
X26000Y25000D02*
Y35500D01*
X505500Y381000D02*
X522000Y364500D01*
Y310000D02*
Y364500D01*
Y310000D02*
X530449Y301551D01*
X537000D01*
X500000Y381000D02*
X505500D01*
X537000Y326551D02*
Y361500D01*
X509000Y389500D02*
X537000Y361500D01*
X483500Y389500D02*
X509000D01*
X517000Y265000D02*
Y358000D01*
X504000Y371000D02*
X517000Y358000D01*
X500000Y371000D02*
X504000D01*
X517000Y146776D02*
Y249251D01*
X511000Y255251D02*
X517000Y249251D01*
Y265000D02*
X530449Y251551D01*
X537000D01*
X514982Y144757D02*
X517000Y146776D01*
X514982Y141843D02*
Y144757D01*
Y141843D02*
X517000Y139824D01*
Y115976D02*
Y139824D01*
X507981Y106957D02*
X517000Y115976D01*
X500000Y323500D02*
X511049Y312451D01*
Y255300D02*
Y312451D01*
X511000Y255251D02*
X511049Y255300D01*
X468750Y359750D02*
X480000Y371000D01*
X468750Y298250D02*
Y359750D01*
X59000Y190500D02*
X80000D01*
X132200Y138300D01*
X185400D01*
X314500Y32500D02*
X315000D01*
X499000Y323500D02*
X500000D01*
X507981Y101481D02*
Y106957D01*
X507000Y100500D02*
X507981Y101481D01*
X480000Y386000D02*
X483500Y389500D01*
X480000Y381000D02*
Y386000D01*
X487760Y314642D02*
Y333240D01*
X480000Y341000D02*
X487760Y333240D01*
X500000Y324500D02*
Y341000D01*
X499000Y323500D02*
X500000Y324500D01*
X268000Y294315D02*
X282500D01*
X253500Y291400D02*
X268000D01*
X428000Y296500D02*
Y331500D01*
X300000Y203500D02*
Y271500D01*
X285000Y79500D02*
X294500D01*
X300800Y66800D02*
Y136400D01*
X295000Y61000D02*
X300800Y66800D01*
X283000Y81500D02*
X285000Y79500D01*
X283000Y81500D02*
Y87000D01*
X286000Y90000D01*
X292602D01*
X318000Y79500D02*
X323000D01*
X324500Y81000D01*
Y88563D01*
X521100Y110500D02*
Y140700D01*
X311500Y105000D02*
X321000D01*
X324500Y101500D01*
Y96437D02*
Y101500D01*
X119000Y381000D02*
X245063D01*
X254937Y380500D02*
X255228Y380791D01*
X8000Y280500D02*
X12500D01*
X401799Y23858D02*
X403441Y25500D01*
X391740Y23858D02*
X401799D01*
X388000Y8400D02*
X410000D01*
X380000D02*
X388000D01*
Y15000D01*
X410937Y52000D02*
X422063D01*
X429937D02*
X431237Y53300D01*
X403441Y13000D02*
Y25500D01*
X411315Y9715D02*
Y13000D01*
X410937Y52000D02*
Y187263D01*
X401000Y52000D02*
X410937D01*
X399500Y53500D02*
X401000Y52000D01*
X399500Y53500D02*
Y57500D01*
X335000Y198500D02*
Y200500D01*
Y178300D02*
Y198500D01*
X320000D02*
Y213500D01*
X284500Y146000D02*
X291200D01*
X283000Y147500D02*
X284500Y146000D01*
X283000Y147500D02*
Y180000D01*
X291200Y146000D02*
X300800Y136400D01*
X279000Y144263D02*
X292700Y130563D01*
X450500Y199000D02*
Y206000D01*
X265600Y341900D02*
Y373311D01*
X297500Y90000D02*
X298500Y91000D01*
X292602Y90000D02*
X297500D01*
X298500Y91000D02*
Y132701D01*
X311500Y105000D02*
Y136000D01*
Y95000D02*
Y100000D01*
X302800Y61000D02*
X312717D01*
X468750Y298250D02*
X490500Y276500D01*
X360714Y49714D02*
X371000Y60000D01*
X59000Y40500D02*
X65500Y34000D01*
X79500D01*
X94500Y19000D01*
X460000Y83700D02*
Y98563D01*
X251037Y329063D02*
X254100Y326000D01*
X252500Y51600D02*
Y61000D01*
X268874Y212500D02*
X270500D01*
X266000D02*
X268874D01*
X507000Y100500D02*
X521051D01*
X491437D02*
X507000D01*
X489500Y98563D02*
X491437Y100500D01*
X460000Y98563D02*
X489500D01*
X460000Y61400D02*
X489500Y31900D01*
Y18000D02*
Y31900D01*
X521051Y110500D02*
X521100D01*
X518500Y143300D02*
X521100Y140700D01*
X420500Y178800D02*
Y199000D01*
Y178800D02*
X422500Y176800D01*
Y154500D02*
Y176800D01*
X295401Y135800D02*
X298500Y132701D01*
X319500Y153000D02*
X335000Y178300D01*
X48500Y47937D02*
Y50500D01*
X311500Y90000D02*
X312717D01*
X251400Y50500D02*
X252500Y51600D01*
X290000Y198500D02*
Y266283D01*
X282500Y273783D02*
X290000Y266283D01*
X268000Y327441D02*
X276059D01*
X282500Y321000D01*
X268000Y324450D02*
Y327441D01*
X239000Y329063D02*
X251037D01*
X209000Y360500D02*
X214100D01*
X217218Y357382D01*
Y330000D02*
Y357382D01*
Y330000D02*
X224500Y328941D01*
X195800Y190500D02*
X209000D01*
X194300Y329800D02*
X195800Y190500D01*
X224100Y343100D02*
X224500Y342700D01*
Y336815D02*
Y342700D01*
X220000Y294437D02*
X224500D01*
X218800Y293237D02*
X220000Y294437D01*
X218800Y227000D02*
Y293237D01*
X217800Y226000D02*
X218800Y227000D01*
X203100Y226000D02*
X217800D01*
X200100Y223000D02*
X203100Y226000D01*
X200100Y202000D02*
Y223000D01*
Y202000D02*
X201600Y200500D01*
X209000D01*
X389100Y209100D02*
X410937Y187263D01*
X300000Y331500D02*
X336100Y295400D01*
Y225100D02*
Y295400D01*
X300000Y356500D02*
X450500Y206000D01*
X300000Y203500D02*
X305000Y198500D01*
X282500Y282700D02*
Y291500D01*
X251260Y286642D02*
Y289160D01*
X253500Y291400D01*
X268000D02*
Y294315D01*
X294749Y377051D02*
X330800Y341000D01*
X274429Y377051D02*
X294749D01*
X265000Y213500D02*
X266000Y212500D01*
X359315Y160000D02*
X368000D01*
X371500Y156500D01*
X203000Y310500D02*
X209000D01*
X202000Y309500D02*
X203000Y310500D01*
X202000Y235000D02*
Y309500D01*
X346400Y201000D02*
Y208400D01*
Y201000D02*
X347400Y200000D01*
X350563D01*
X351441Y160000D02*
Y176159D01*
X340800Y186800D02*
X351441Y176159D01*
X340800Y186800D02*
Y207000D01*
X331000Y216800D02*
X340800Y207000D01*
X331000Y216800D02*
Y293600D01*
X322900Y131200D02*
X344100Y110000D01*
X348941D01*
X356437Y54737D02*
Y60500D01*
X355000Y53300D02*
X356437Y54737D01*
X134000Y35800D02*
Y119500D01*
X59000Y120500D02*
X134000Y119500D01*
X292602Y105000D02*
X292700D01*
X236000Y213000D02*
Y216400D01*
X237000Y217400D01*
X254000D01*
X254300Y217100D01*
Y201000D02*
Y217100D01*
Y201000D02*
X255000Y200300D01*
X269000D01*
X270500Y201800D01*
Y204626D01*
X236000Y213000D02*
X239050D01*
X243950Y208100D01*
X247000Y205126D02*
Y208100D01*
X185400Y138300D02*
X198200Y125500D01*
X282300Y95000D02*
X292602D01*
X224500Y328941D02*
Y329063D01*
X349849Y49714D02*
X360714D01*
X348563Y51000D02*
X349849Y49714D01*
X348563Y51000D02*
Y60500D01*
X324059Y250000D02*
Y294359D01*
X324100Y294400D01*
X269000Y82559D02*
Y99000D01*
X270000Y100000D01*
X292602D01*
X252500Y61000D02*
Y74563D01*
X444500Y245500D02*
Y312600D01*
X410000Y8400D02*
X411315Y9715D01*
X376100Y12300D02*
X380000Y8400D01*
X376100Y12300D02*
Y204100D01*
X339700Y240500D02*
X376100Y204100D01*
X234959Y73941D02*
X238500D01*
X233900Y75000D02*
X234959Y73941D01*
X233900Y75000D02*
Y170700D01*
X251600Y188400D01*
Y212000D01*
X250600Y213000D02*
X251600Y212000D01*
X247000Y213000D02*
X250600D01*
X316185Y250000D02*
Y256600D01*
X521051Y95500D02*
X539949D01*
X511500Y105500D02*
X521051D01*
X459800Y83500D02*
X460000Y83700D01*
X311500Y136000D02*
X315500Y140000D01*
X265571Y373311D02*
X265600D01*
X263400Y339700D02*
X265600Y341900D01*
X263400Y336153D02*
Y339700D01*
X260474Y333227D02*
X263400Y336153D01*
X255327Y333227D02*
X260474D01*
X254100Y332000D02*
X255327Y333227D01*
X254100Y326000D02*
Y332000D01*
Y326000D02*
X255650Y324450D01*
X282500Y273783D02*
X288600Y279883D01*
Y314900D01*
X282500Y321000D02*
X288600Y314900D01*
X282500Y291500D02*
Y294315D01*
X275300Y280983D02*
X282500Y273783D01*
X275300Y280983D02*
Y285141D01*
X274000Y286441D02*
X275300Y285141D01*
X268000Y286441D02*
X274000D01*
X238500Y282900D02*
Y286063D01*
Y282900D02*
X239000Y282400D01*
X267000D01*
X268000Y283400D01*
Y286441D01*
X238500Y42000D02*
Y73941D01*
X237000Y40500D02*
X238500Y42000D01*
X209000Y40500D02*
X237000D01*
X430929Y15760D02*
X433760D01*
X448000Y30000D01*
X491500Y323500D02*
X499000D01*
X431237Y53300D02*
X457300D01*
X464300Y46300D01*
X265815Y335315D02*
X268000D01*
X260000Y329500D02*
X265815Y335315D01*
X258000Y329500D02*
X260000D01*
X218500Y212500D02*
X224000D01*
X216500Y210500D02*
X218500Y212500D01*
X209000Y210500D02*
X216500D01*
X224500Y225000D02*
Y286563D01*
X215000Y215500D02*
X224500Y225000D01*
X203900Y215500D02*
X215000D01*
X202400Y214000D02*
X203900Y215500D01*
X202400Y206000D02*
Y214000D01*
Y206000D02*
X203774Y204626D01*
X224000D01*
X53937Y40500D02*
X59000D01*
X53500Y40063D02*
X53937Y40500D01*
X48500Y40063D02*
X53500D01*
X539949Y95500D02*
Y100500D01*
Y105500D01*
Y110500D01*
X403063Y43722D02*
X403185Y43600D01*
X230200Y205126D02*
X236000D01*
X229700Y204626D02*
X230200Y205126D01*
X224000Y204626D02*
X229700D01*
X231700Y286063D02*
X238500D01*
X231200Y286563D02*
X231700Y286063D01*
X224500Y286563D02*
X231200D01*
X231722Y336937D02*
X239000D01*
X231600Y336815D02*
X231722Y336937D01*
X224500Y336815D02*
X231600D01*
X245897Y333240D02*
X249142D01*
X242200Y336937D02*
X245897Y333240D01*
X239000Y336937D02*
X242200D01*
X247463Y295500D02*
X255000D01*
X245900Y293937D02*
X247463Y295500D01*
X238500Y293937D02*
X245900D01*
X231700D02*
X238500D01*
X231200Y294437D02*
X231700Y293937D01*
X224500Y294437D02*
X231200D01*
X419600Y19500D02*
X422071D01*
X413600Y25500D02*
X419600Y19500D01*
X411315Y25500D02*
X413600D01*
X411315Y13000D02*
Y25500D01*
X260722Y82559D02*
X269000D01*
X260600Y82437D02*
X260722Y82559D01*
X252500Y82437D02*
X260600D01*
X245722D02*
X252500D01*
X245100Y81815D02*
X245722Y82437D01*
X238500Y81815D02*
X245100D01*
X276902Y338717D02*
X282500D01*
X273500Y335315D02*
X276902Y338717D01*
X268000Y335315D02*
X273500D01*
X295000Y50600D02*
Y61000D01*
Y50600D02*
X298700Y46900D01*
X261000Y204626D02*
X268874Y212500D01*
X259500Y204626D02*
X261000D01*
X358437Y200000D02*
X371000D01*
X356815Y110000D02*
X371000D01*
X255228Y380791D02*
X265571D01*
X230200Y213000D02*
X236000D01*
X229700Y212500D02*
X230200Y213000D01*
X224000Y212500D02*
X229700D01*
D21*
X26500Y117000D02*
D03*
D22*
Y127000D02*
D03*
Y137000D02*
D03*
Y147000D02*
D03*
Y157000D02*
D03*
Y167000D02*
D03*
D23*
X209000Y40500D02*
D03*
D24*
Y50500D02*
D03*
Y60500D02*
D03*
Y70500D02*
D03*
Y80500D02*
D03*
Y90500D02*
D03*
Y100500D02*
D03*
Y110500D02*
D03*
Y120500D02*
D03*
Y130500D02*
D03*
Y140500D02*
D03*
Y150500D02*
D03*
Y160500D02*
D03*
Y170500D02*
D03*
Y180500D02*
D03*
Y190500D02*
D03*
Y200500D02*
D03*
Y210500D02*
D03*
Y220500D02*
D03*
Y230500D02*
D03*
Y240500D02*
D03*
Y250500D02*
D03*
Y260500D02*
D03*
Y270500D02*
D03*
Y280500D02*
D03*
Y290500D02*
D03*
Y300500D02*
D03*
Y310500D02*
D03*
Y320500D02*
D03*
Y330500D02*
D03*
Y340500D02*
D03*
Y350500D02*
D03*
Y360500D02*
D03*
X59000Y40500D02*
D03*
Y50500D02*
D03*
Y60500D02*
D03*
Y70500D02*
D03*
Y80500D02*
D03*
Y90500D02*
D03*
Y100500D02*
D03*
Y110500D02*
D03*
Y120500D02*
D03*
Y130500D02*
D03*
Y140500D02*
D03*
Y150500D02*
D03*
Y160500D02*
D03*
Y170500D02*
D03*
Y180500D02*
D03*
Y190500D02*
D03*
Y200500D02*
D03*
Y210500D02*
D03*
Y220500D02*
D03*
Y230500D02*
D03*
Y240500D02*
D03*
Y250500D02*
D03*
Y260500D02*
D03*
Y270500D02*
D03*
Y280500D02*
D03*
Y290500D02*
D03*
Y300500D02*
D03*
Y310500D02*
D03*
Y320500D02*
D03*
Y330500D02*
D03*
Y340500D02*
D03*
Y350500D02*
D03*
Y360500D02*
D03*
D25*
X470500Y276500D02*
D03*
D26*
X490500D02*
D03*
D27*
X448000Y64000D02*
D03*
D28*
X464300Y46300D02*
D03*
X448000D02*
D03*
X464300Y30000D02*
D03*
X298200Y32500D02*
D03*
X314500D02*
D03*
D29*
X448000Y30000D02*
D03*
X330800Y32500D02*
D03*
D30*
X280800D02*
D03*
D31*
X428000Y271500D02*
D03*
D32*
Y296500D02*
D03*
X300000Y271500D02*
D03*
Y296500D02*
D03*
Y356500D02*
D03*
Y331500D02*
D03*
X428000Y356500D02*
D03*
Y331500D02*
D03*
D33*
X371000Y250000D02*
D03*
Y200000D02*
D03*
X371500Y156500D02*
D03*
X371000Y110000D02*
D03*
Y60000D02*
D03*
D34*
X381000Y250000D02*
D03*
Y200000D02*
D03*
X381500Y156500D02*
D03*
X381000Y110000D02*
D03*
Y60000D02*
D03*
X500000Y361000D02*
D03*
Y371000D02*
D03*
Y381000D02*
D03*
X480000Y341000D02*
D03*
Y361000D02*
D03*
Y371000D02*
D03*
Y381000D02*
D03*
X94500Y19000D02*
D03*
X18500Y81000D02*
D03*
D35*
X537000Y151551D02*
D03*
Y176551D02*
D03*
Y201551D02*
D03*
Y226551D02*
D03*
Y251551D02*
D03*
Y276551D02*
D03*
Y301551D02*
D03*
D36*
Y326551D02*
D03*
D37*
X500000Y341000D02*
D03*
D38*
X420500Y199000D02*
D03*
X290000Y198500D02*
D03*
D39*
X435500Y199000D02*
D03*
X450500D02*
D03*
X465500D02*
D03*
X335000Y198500D02*
D03*
X320000D02*
D03*
X305000D02*
D03*
X319500Y153000D02*
D03*
X452500Y154500D02*
D03*
D40*
X423500Y97500D02*
D03*
D41*
Y108000D02*
D03*
X294500Y79500D02*
D03*
X318000D02*
D03*
X119000Y381000D02*
D03*
D42*
X489500Y18000D02*
D03*
Y78000D02*
D03*
X511500Y76000D02*
D03*
Y16000D02*
D03*
X505000Y223000D02*
D03*
X445000D02*
D03*
X504500Y245500D02*
D03*
X444500D02*
D03*
D43*
X289500Y153000D02*
D03*
X422500Y154500D02*
D03*
D44*
X576000Y25000D02*
D03*
Y375000D02*
D03*
X26000D02*
D03*
Y25000D02*
D03*
D45*
X265000Y219000D02*
D03*
X290000Y330358D02*
D03*
X283000Y180000D02*
D03*
X518500Y143300D02*
D03*
X295401Y135800D02*
D03*
X251400Y50500D02*
D03*
X194300Y329800D02*
D03*
X224100Y343100D02*
D03*
X389100Y209100D02*
D03*
X336100Y225100D02*
D03*
X282500Y282700D02*
D03*
X330800Y341000D02*
D03*
X202000Y235000D02*
D03*
X346400Y208400D02*
D03*
X331000Y293600D02*
D03*
X322900Y131200D02*
D03*
X355000Y53300D02*
D03*
X134000Y35800D02*
D03*
X198200Y125500D02*
D03*
X282300Y95000D02*
D03*
X324100Y294400D02*
D03*
X252500Y61000D02*
D03*
X302800D02*
D03*
X444500Y312600D02*
D03*
X339700Y240500D02*
D03*
X316185Y256600D02*
D03*
X511500Y105500D02*
D03*
X459800Y83500D02*
D03*
X315500Y140000D02*
D03*
M02*
