G04 Layer_Physical_Order=2*
G04 Layer_Color=16711680*
%FSLAX25Y25*%
%MOIN*%
G70*
G01*
G75*
%ADD20C,0.01500*%
%ADD21R,0.05905X0.05905*%
%ADD22C,0.05905*%
%ADD23R,0.10000X0.05000*%
%ADD24O,0.10000X0.05000*%
%ADD25C,0.09000*%
%ADD26R,0.09000X0.09000*%
%ADD27C,0.16000*%
%ADD28C,0.10000*%
%ADD29R,0.10000X0.10000*%
%ADD30C,0.15000*%
%ADD31R,0.12000X0.12000*%
%ADD32C,0.12000*%
%ADD33R,0.06000X0.06000*%
%ADD34C,0.06000*%
%ADD35O,0.21000X0.15000*%
%ADD36R,0.21000X0.15000*%
%ADD37R,0.06000X0.06000*%
%ADD38R,0.08000X0.08000*%
%ADD39C,0.08000*%
%ADD40R,0.05000X0.05000*%
%ADD41C,0.05000*%
%ADD42C,0.05512*%
%ADD43R,0.08000X0.08000*%
%ADD44C,0.40000*%
%ADD45C,0.03937*%
G36*
X599675Y2000D02*
X2325Y2000D01*
Y398000D01*
X573000Y398000D01*
X599675D01*
Y2000D01*
D02*
G37*
%LPC*%
G36*
X384903Y109000D02*
X382000D01*
Y106097D01*
X382044Y106103D01*
X383017Y106506D01*
X383853Y107147D01*
X384494Y107983D01*
X384897Y108956D01*
X384903Y109000D01*
D02*
G37*
G36*
X374000Y113816D02*
X368000D01*
X367688Y113754D01*
X367423Y113577D01*
X367246Y113312D01*
X367184Y113000D01*
Y107000D01*
X367246Y106688D01*
X367423Y106423D01*
X367688Y106246D01*
X368000Y106184D01*
X374000D01*
X374312Y106246D01*
X374577Y106423D01*
X374754Y106688D01*
X374816Y107000D01*
Y113000D01*
X374754Y113312D01*
X374577Y113577D01*
X374312Y113754D01*
X374000Y113816D01*
D02*
G37*
G36*
X26500Y130785D02*
X25520Y130656D01*
X24607Y130278D01*
X23823Y129676D01*
X23222Y128893D01*
X22844Y127980D01*
X22715Y127000D01*
X22844Y126020D01*
X23222Y125107D01*
X23823Y124323D01*
X24607Y123722D01*
X25520Y123344D01*
X26500Y123215D01*
X27480Y123344D01*
X28393Y123722D01*
X29177Y124323D01*
X29778Y125107D01*
X29907Y125420D01*
X35345D01*
X51382Y109382D01*
X51895Y109040D01*
X52500Y108920D01*
X53583D01*
X53617Y108836D01*
X54146Y108146D01*
X54836Y107617D01*
X55638Y107285D01*
X56500Y107171D01*
X61500D01*
X62362Y107285D01*
X63164Y107617D01*
X63854Y108146D01*
X64383Y108836D01*
X64715Y109639D01*
X64828Y110500D01*
X64715Y111362D01*
X64383Y112164D01*
X63854Y112854D01*
X63164Y113382D01*
X62362Y113715D01*
X61500Y113829D01*
X56500D01*
X55638Y113715D01*
X54836Y113382D01*
X54146Y112854D01*
X53944Y112590D01*
X52814Y112493D01*
X52692Y112543D01*
X37117Y128118D01*
X36605Y128460D01*
X36000Y128580D01*
X29907D01*
X29778Y128893D01*
X29177Y129676D01*
X28393Y130278D01*
X27480Y130656D01*
X26500Y130785D01*
D02*
G37*
G36*
X422500Y107000D02*
X420126D01*
X420443Y106235D01*
X421004Y105504D01*
X421735Y104943D01*
X422500Y104626D01*
Y107000D01*
D02*
G37*
G36*
X426874D02*
X424500D01*
Y104626D01*
X425265Y104943D01*
X425996Y105504D01*
X426557Y106235D01*
X426874Y107000D01*
D02*
G37*
G36*
X380000Y109000D02*
X377097D01*
X377103Y108956D01*
X377506Y107983D01*
X378147Y107147D01*
X378983Y106506D01*
X379956Y106103D01*
X380000Y106097D01*
Y109000D01*
D02*
G37*
G36*
Y113903D02*
X379956Y113897D01*
X378983Y113494D01*
X378147Y112853D01*
X377506Y112017D01*
X377103Y111044D01*
X377097Y111000D01*
X380000D01*
Y113903D01*
D02*
G37*
G36*
X382000D02*
Y111000D01*
X384903D01*
X384897Y111044D01*
X384494Y112017D01*
X383853Y112853D01*
X383017Y113494D01*
X382044Y113897D01*
X382000Y113903D01*
D02*
G37*
G36*
X29453Y120768D02*
X23547D01*
X23235Y120706D01*
X22971Y120529D01*
X22794Y120265D01*
X22732Y119953D01*
Y114047D01*
X22794Y113735D01*
X22971Y113470D01*
X23235Y113294D01*
X23547Y113232D01*
X29453D01*
X29765Y113294D01*
X30029Y113470D01*
X30206Y113735D01*
X30268Y114047D01*
Y119953D01*
X30206Y120265D01*
X30029Y120529D01*
X29765Y120706D01*
X29453Y120768D01*
D02*
G37*
G36*
X211500Y113829D02*
X206500D01*
X205639Y113715D01*
X204836Y113382D01*
X204146Y112854D01*
X203618Y112164D01*
X203285Y111362D01*
X203171Y110500D01*
X203285Y109639D01*
X203618Y108836D01*
X204146Y108146D01*
X204836Y107617D01*
X205639Y107285D01*
X206500Y107171D01*
X211500D01*
X212362Y107285D01*
X213164Y107617D01*
X213854Y108146D01*
X214383Y108836D01*
X214715Y109639D01*
X214828Y110500D01*
X214715Y111362D01*
X214383Y112164D01*
X213854Y112854D01*
X213164Y113382D01*
X212362Y113715D01*
X211500Y113829D01*
D02*
G37*
G36*
X422500Y111374D02*
X421735Y111057D01*
X421004Y110496D01*
X420443Y109765D01*
X420126Y109000D01*
X422500D01*
Y111374D01*
D02*
G37*
G36*
X424500Y111374D02*
Y109000D01*
X426874D01*
X426557Y109765D01*
X425996Y110496D01*
X425265Y111057D01*
X424500Y111374D01*
D02*
G37*
G36*
X511500Y108292D02*
X510777Y108197D01*
X510104Y107918D01*
X509525Y107475D01*
X509082Y106896D01*
X508803Y106223D01*
X508708Y105500D01*
X508803Y104777D01*
X509082Y104104D01*
X509525Y103525D01*
X509920Y103223D01*
Y79194D01*
X509707Y79106D01*
X508964Y78536D01*
X508394Y77793D01*
X508306Y77580D01*
X493455D01*
X493087Y78000D01*
X492964Y78928D01*
X492606Y79793D01*
X492036Y80536D01*
X491293Y81106D01*
X490428Y81464D01*
X489500Y81587D01*
X488572Y81464D01*
X487707Y81106D01*
X486964Y80536D01*
X486394Y79793D01*
X486036Y78928D01*
X485913Y78000D01*
X486036Y77072D01*
X486394Y76207D01*
X486964Y75464D01*
X487707Y74894D01*
X488572Y74536D01*
X489500Y74413D01*
X490428Y74536D01*
X490721Y74657D01*
X490895Y74540D01*
X491500Y74420D01*
X508306D01*
X508394Y74207D01*
X508964Y73464D01*
X509707Y72894D01*
X510572Y72536D01*
X511500Y72413D01*
X512428Y72536D01*
X513293Y72894D01*
X514036Y73464D01*
X514606Y74207D01*
X514964Y75072D01*
X515087Y76000D01*
X514964Y76928D01*
X514606Y77793D01*
X514036Y78536D01*
X513293Y79106D01*
X513080Y79194D01*
Y103223D01*
X513475Y103525D01*
X513918Y104104D01*
X514197Y104777D01*
X514292Y105500D01*
X514197Y106223D01*
X513918Y106896D01*
X513475Y107475D01*
X512896Y107918D01*
X512223Y108197D01*
X511500Y108292D01*
D02*
G37*
G36*
X426000Y100816D02*
X421000D01*
X420688Y100754D01*
X420423Y100577D01*
X420246Y100312D01*
X420184Y100000D01*
Y99080D01*
X368300D01*
X367695Y98960D01*
X367182Y98618D01*
X318945Y50380D01*
X263700D01*
X263095Y50260D01*
X262582Y49918D01*
X258845Y46180D01*
X212830D01*
X212632Y47180D01*
X213265Y47443D01*
X213996Y48004D01*
X214557Y48735D01*
X214634Y48920D01*
X251400D01*
X252005Y49040D01*
X252518Y49382D01*
X252860Y49895D01*
X252980Y50500D01*
X252860Y51105D01*
X252518Y51617D01*
X252005Y51960D01*
X251400Y52080D01*
X214634D01*
X214557Y52265D01*
X213996Y52996D01*
X213265Y53557D01*
X212414Y53910D01*
X211500Y54030D01*
X210000D01*
Y50500D01*
X209000D01*
Y49500D01*
X203126D01*
X203443Y48735D01*
X204004Y48004D01*
X204735Y47443D01*
X205368Y47180D01*
X205170Y46180D01*
X202400D01*
X201795Y46060D01*
X201283Y45717D01*
X197645Y42080D01*
X64417D01*
X64383Y42164D01*
X63854Y42854D01*
X63164Y43382D01*
X62362Y43715D01*
X61500Y43828D01*
X56500D01*
X55638Y43715D01*
X54836Y43382D01*
X54146Y42854D01*
X53617Y42164D01*
X53285Y41361D01*
X53171Y40500D01*
X53285Y39639D01*
X53617Y38836D01*
X54146Y38146D01*
X54836Y37617D01*
X55638Y37285D01*
X56500Y37172D01*
X61500D01*
X62362Y37285D01*
X63164Y37617D01*
X63854Y38146D01*
X64383Y38836D01*
X64417Y38920D01*
X131875D01*
X132215Y37920D01*
X132026Y37775D01*
X131582Y37196D01*
X131303Y36523D01*
X131208Y35800D01*
X131303Y35077D01*
X131582Y34404D01*
X132026Y33825D01*
X132604Y33382D01*
X133277Y33103D01*
X134000Y33008D01*
X134723Y33103D01*
X135396Y33382D01*
X135975Y33825D01*
X136277Y34220D01*
X270300D01*
X270905Y34340D01*
X271417Y34683D01*
X271886Y35151D01*
X272770Y34621D01*
X272620Y34127D01*
X272460Y32500D01*
X272620Y30873D01*
X273095Y29308D01*
X273865Y27867D01*
X274903Y26603D01*
X276166Y25565D01*
X277608Y24795D01*
X279173Y24320D01*
X280800Y24160D01*
X282427Y24320D01*
X283992Y24795D01*
X285434Y25565D01*
X286697Y26603D01*
X287735Y27867D01*
X288505Y29308D01*
X288980Y30873D01*
X289140Y32500D01*
X288980Y34127D01*
X288505Y35692D01*
X287735Y37134D01*
X286697Y38397D01*
X285434Y39435D01*
X283992Y40205D01*
X282427Y40680D01*
X280800Y40840D01*
X279173Y40680D01*
X278679Y40530D01*
X278149Y41414D01*
X279655Y42920D01*
X319100D01*
X319705Y43040D01*
X320217Y43382D01*
X328555Y51720D01*
X352723D01*
X353026Y51326D01*
X353604Y50882D01*
X354277Y50603D01*
X355000Y50508D01*
X355723Y50603D01*
X356396Y50882D01*
X356975Y51326D01*
X357418Y51904D01*
X357697Y52577D01*
X357792Y53300D01*
X357697Y54023D01*
X357418Y54696D01*
X356975Y55274D01*
X356396Y55718D01*
X355723Y55997D01*
X355000Y56092D01*
X354277Y55997D01*
X353604Y55718D01*
X353026Y55274D01*
X352723Y54880D01*
X329222D01*
X328839Y55804D01*
X368955Y95920D01*
X420184D01*
Y95000D01*
X420246Y94688D01*
X420423Y94423D01*
X420688Y94246D01*
X421000Y94184D01*
X424581D01*
X436382Y82383D01*
X436895Y82040D01*
X437500Y81920D01*
X457523D01*
X457826Y81525D01*
X458404Y81082D01*
X459077Y80803D01*
X459800Y80708D01*
X460523Y80803D01*
X461196Y81082D01*
X461774Y81525D01*
X462218Y82104D01*
X462497Y82777D01*
X462592Y83500D01*
X462497Y84223D01*
X462218Y84896D01*
X461774Y85474D01*
X461196Y85918D01*
X460523Y86197D01*
X459800Y86292D01*
X459077Y86197D01*
X458404Y85918D01*
X457826Y85474D01*
X457523Y85080D01*
X438155D01*
X426816Y96419D01*
Y100000D01*
X426754Y100312D01*
X426577Y100577D01*
X426312Y100754D01*
X426000Y100816D01*
D02*
G37*
G36*
X318000Y82828D02*
X317139Y82715D01*
X316336Y82383D01*
X315646Y81854D01*
X315118Y81164D01*
X315083Y81080D01*
X297417D01*
X297382Y81164D01*
X296854Y81854D01*
X296164Y82383D01*
X295361Y82715D01*
X294500Y82828D01*
X293638Y82715D01*
X292836Y82383D01*
X292146Y81854D01*
X291617Y81164D01*
X291285Y80361D01*
X291172Y79500D01*
X291285Y78638D01*
X291617Y77836D01*
X292146Y77146D01*
X292836Y76617D01*
X293638Y76285D01*
X294500Y76171D01*
X295361Y76285D01*
X296164Y76617D01*
X296854Y77146D01*
X297382Y77836D01*
X297417Y77920D01*
X315083D01*
X315118Y77836D01*
X315646Y77146D01*
X316336Y76617D01*
X317139Y76285D01*
X318000Y76171D01*
X318862Y76285D01*
X319664Y76617D01*
X320354Y77146D01*
X320883Y77836D01*
X321215Y78638D01*
X321328Y79500D01*
X321215Y80361D01*
X320883Y81164D01*
X320354Y81854D01*
X319664Y82383D01*
X318862Y82715D01*
X318000Y82828D01*
D02*
G37*
G36*
X22403Y80000D02*
X19500D01*
Y77097D01*
X19544Y77103D01*
X20517Y77506D01*
X21353Y78147D01*
X21994Y78983D01*
X22397Y79956D01*
X22403Y80000D01*
D02*
G37*
G36*
X61500Y83829D02*
X56500D01*
X55638Y83715D01*
X54836Y83383D01*
X54146Y82854D01*
X53617Y82164D01*
X53285Y81362D01*
X53171Y80500D01*
X53285Y79638D01*
X53617Y78836D01*
X54146Y78146D01*
X54836Y77617D01*
X55638Y77285D01*
X56500Y77171D01*
X61500D01*
X62362Y77285D01*
X63164Y77617D01*
X63854Y78146D01*
X64383Y78836D01*
X64715Y79638D01*
X64828Y80500D01*
X64715Y81362D01*
X64383Y82164D01*
X63854Y82854D01*
X63164Y83383D01*
X62362Y83715D01*
X61500Y83829D01*
D02*
G37*
G36*
X211500D02*
X206500D01*
X205639Y83715D01*
X204836Y83383D01*
X204146Y82854D01*
X203618Y82164D01*
X203285Y81362D01*
X203171Y80500D01*
X203285Y79638D01*
X203618Y78836D01*
X204146Y78146D01*
X204836Y77617D01*
X205639Y77285D01*
X206500Y77171D01*
X211500D01*
X212362Y77285D01*
X213164Y77617D01*
X213854Y78146D01*
X214383Y78836D01*
X214715Y79638D01*
X214828Y80500D01*
X214715Y81362D01*
X214383Y82164D01*
X213854Y82854D01*
X213164Y83383D01*
X212362Y83715D01*
X211500Y83829D01*
D02*
G37*
G36*
Y93828D02*
X206500D01*
X205639Y93715D01*
X204836Y93383D01*
X204146Y92854D01*
X203618Y92164D01*
X203285Y91361D01*
X203171Y90500D01*
X203285Y89639D01*
X203618Y88836D01*
X204146Y88146D01*
X204836Y87617D01*
X205639Y87285D01*
X206500Y87172D01*
X211500D01*
X212362Y87285D01*
X213164Y87617D01*
X213854Y88146D01*
X214383Y88836D01*
X214715Y89639D01*
X214828Y90500D01*
X214715Y91361D01*
X214383Y92164D01*
X213854Y92854D01*
X213164Y93383D01*
X212362Y93715D01*
X211500Y93828D01*
D02*
G37*
G36*
X61500Y103829D02*
X56500D01*
X55638Y103715D01*
X54836Y103383D01*
X54146Y102854D01*
X53617Y102164D01*
X53285Y101362D01*
X53171Y100500D01*
X53285Y99638D01*
X53617Y98836D01*
X54146Y98146D01*
X54836Y97617D01*
X55638Y97285D01*
X56500Y97171D01*
X61500D01*
X62362Y97285D01*
X63164Y97617D01*
X63854Y98146D01*
X64383Y98836D01*
X64715Y99638D01*
X64828Y100500D01*
X64715Y101362D01*
X64383Y102164D01*
X63854Y102854D01*
X63164Y103383D01*
X62362Y103715D01*
X61500Y103829D01*
D02*
G37*
G36*
X211500D02*
X206500D01*
X205639Y103715D01*
X204836Y103383D01*
X204146Y102854D01*
X203618Y102164D01*
X203285Y101362D01*
X203171Y100500D01*
X203285Y99638D01*
X203618Y98836D01*
X204146Y98146D01*
X204836Y97617D01*
X205639Y97285D01*
X206500Y97171D01*
X211500D01*
X212362Y97285D01*
X213164Y97617D01*
X213854Y98146D01*
X214383Y98836D01*
X214715Y99638D01*
X214828Y100500D01*
X214715Y101362D01*
X214383Y102164D01*
X213854Y102854D01*
X213164Y103383D01*
X212362Y103715D01*
X211500Y103829D01*
D02*
G37*
G36*
X17500Y84903D02*
X17456Y84897D01*
X16483Y84494D01*
X15647Y83853D01*
X15006Y83017D01*
X14603Y82044D01*
X14597Y82000D01*
X17500D01*
Y84903D01*
D02*
G37*
G36*
X19500D02*
Y82000D01*
X22403D01*
X22397Y82044D01*
X21994Y83017D01*
X21353Y83853D01*
X20517Y84494D01*
X19544Y84897D01*
X19500Y84903D01*
D02*
G37*
G36*
X61500Y93828D02*
X56500D01*
X55638Y93715D01*
X54836Y93383D01*
X54146Y92854D01*
X53617Y92164D01*
X53285Y91361D01*
X53171Y90500D01*
X53285Y89639D01*
X53617Y88836D01*
X54146Y88146D01*
X54836Y87617D01*
X55638Y87285D01*
X56500Y87172D01*
X61500D01*
X62362Y87285D01*
X63164Y87617D01*
X63854Y88146D01*
X64383Y88836D01*
X64715Y89639D01*
X64828Y90500D01*
X64715Y91361D01*
X64383Y92164D01*
X63854Y92854D01*
X63164Y93383D01*
X62362Y93715D01*
X61500Y93828D01*
D02*
G37*
G36*
X540000Y160092D02*
X538000D01*
Y152551D01*
X548443D01*
X548377Y153217D01*
X547891Y154820D01*
X547102Y156296D01*
X546039Y157591D01*
X544745Y158653D01*
X543269Y159442D01*
X541666Y159928D01*
X540000Y160092D01*
D02*
G37*
G36*
X380500Y155500D02*
X377597D01*
X377603Y155456D01*
X378006Y154483D01*
X378647Y153647D01*
X379483Y153006D01*
X380456Y152603D01*
X380500Y152597D01*
Y155500D01*
D02*
G37*
G36*
X385403D02*
X382500D01*
Y152597D01*
X382544Y152603D01*
X383517Y153006D01*
X384353Y153647D01*
X384994Y154483D01*
X385397Y155456D01*
X385403Y155500D01*
D02*
G37*
G36*
X451500Y153500D02*
X447588D01*
X447629Y153195D01*
X448133Y151978D01*
X448934Y150934D01*
X449978Y150133D01*
X451195Y149629D01*
X451500Y149589D01*
Y153500D01*
D02*
G37*
G36*
X457411D02*
X453500D01*
Y149589D01*
X453805Y149629D01*
X455022Y150133D01*
X456066Y150934D01*
X456868Y151978D01*
X457371Y153195D01*
X457411Y153500D01*
D02*
G37*
G36*
X536000Y160092D02*
X534000D01*
X532334Y159928D01*
X530731Y159442D01*
X529255Y158653D01*
X527960Y157591D01*
X526898Y156296D01*
X526109Y154820D01*
X525623Y153217D01*
X525557Y152551D01*
X536000D01*
Y160092D01*
D02*
G37*
G36*
X288500Y158020D02*
X285500D01*
X285110Y157942D01*
X284779Y157721D01*
X284558Y157390D01*
X284480Y157000D01*
Y154000D01*
X288500D01*
Y158020D01*
D02*
G37*
G36*
X293500D02*
X290500D01*
Y154000D01*
X294520D01*
Y157000D01*
X294442Y157390D01*
X294221Y157721D01*
X293890Y157942D01*
X293500Y158020D01*
D02*
G37*
G36*
X451500Y159412D02*
X451195Y159371D01*
X449978Y158868D01*
X448934Y158066D01*
X448133Y157022D01*
X447629Y155805D01*
X447588Y155500D01*
X451500D01*
Y159412D01*
D02*
G37*
G36*
X374500Y160316D02*
X368500D01*
X368188Y160254D01*
X367923Y160077D01*
X367746Y159812D01*
X367684Y159500D01*
Y153500D01*
X367746Y153188D01*
X367923Y152923D01*
X368188Y152746D01*
X368500Y152684D01*
X374500D01*
X374812Y152746D01*
X375077Y152923D01*
X375254Y153188D01*
X375316Y153500D01*
Y159500D01*
X375254Y159812D01*
X375077Y160077D01*
X374812Y160254D01*
X374500Y160316D01*
D02*
G37*
G36*
X25500Y156000D02*
X22645D01*
X22649Y155968D01*
X23047Y155007D01*
X23681Y154181D01*
X24507Y153547D01*
X25468Y153149D01*
X25500Y153145D01*
Y156000D01*
D02*
G37*
G36*
X30355D02*
X27500D01*
Y153145D01*
X27532Y153149D01*
X28493Y153547D01*
X29319Y154181D01*
X29953Y155007D01*
X30351Y155968D01*
X30355Y156000D01*
D02*
G37*
G36*
X426500Y159316D02*
X418500D01*
X418188Y159254D01*
X417923Y159077D01*
X417746Y158812D01*
X417684Y158500D01*
Y151919D01*
X407345Y141580D01*
X317777D01*
X317475Y141974D01*
X316896Y142418D01*
X316223Y142697D01*
X315500Y142792D01*
X314777Y142697D01*
X314104Y142418D01*
X313526Y141974D01*
X313082Y141396D01*
X312803Y140723D01*
X312708Y140000D01*
X312803Y139277D01*
X313082Y138604D01*
X313526Y138025D01*
X314104Y137582D01*
X314777Y137303D01*
X315500Y137208D01*
X316223Y137303D01*
X316896Y137582D01*
X317475Y138025D01*
X317777Y138420D01*
X408000D01*
X408605Y138540D01*
X409118Y138883D01*
X419919Y149684D01*
X425081D01*
X432583Y142183D01*
X433095Y141840D01*
X433700Y141720D01*
X516223D01*
X516526Y141325D01*
X517104Y140882D01*
X517777Y140603D01*
X518500Y140508D01*
X519223Y140603D01*
X519896Y140882D01*
X520474Y141325D01*
X520918Y141904D01*
X521197Y142577D01*
X521292Y143300D01*
X521197Y144023D01*
X520918Y144696D01*
X520474Y145274D01*
X519896Y145718D01*
X519223Y145997D01*
X518500Y146092D01*
X517777Y145997D01*
X517104Y145718D01*
X516526Y145274D01*
X516223Y144880D01*
X434355D01*
X427316Y151919D01*
Y158500D01*
X427254Y158812D01*
X427077Y159077D01*
X426812Y159254D01*
X426500Y159316D01*
D02*
G37*
G36*
X536000Y150551D02*
X525557D01*
X525623Y149885D01*
X526109Y148283D01*
X526898Y146806D01*
X527960Y145512D01*
X529255Y144449D01*
X530731Y143660D01*
X532334Y143174D01*
X534000Y143010D01*
X536000D01*
Y150551D01*
D02*
G37*
G36*
X548443D02*
X538000D01*
Y143010D01*
X540000D01*
X541666Y143174D01*
X543269Y143660D01*
X544745Y144449D01*
X546039Y145512D01*
X547102Y146806D01*
X547891Y148283D01*
X548377Y149885D01*
X548443Y150551D01*
D02*
G37*
G36*
X61500Y123828D02*
X56500D01*
X55638Y123715D01*
X54836Y123382D01*
X54146Y122854D01*
X53617Y122164D01*
X53285Y121361D01*
X53171Y120500D01*
X53285Y119639D01*
X53617Y118836D01*
X54146Y118146D01*
X54836Y117617D01*
X55638Y117285D01*
X56500Y117172D01*
X61500D01*
X62362Y117285D01*
X63164Y117617D01*
X63854Y118146D01*
X64383Y118836D01*
X64715Y119639D01*
X64828Y120500D01*
X64715Y121361D01*
X64383Y122164D01*
X63854Y122854D01*
X63164Y123382D01*
X62362Y123715D01*
X61500Y123828D01*
D02*
G37*
G36*
X26500Y140785D02*
X25520Y140656D01*
X24607Y140278D01*
X23823Y139676D01*
X23222Y138893D01*
X22844Y137980D01*
X22715Y137000D01*
X22844Y136020D01*
X23222Y135107D01*
X23823Y134324D01*
X24607Y133722D01*
X25520Y133344D01*
X26500Y133215D01*
X27480Y133344D01*
X28393Y133722D01*
X29177Y134324D01*
X29778Y135107D01*
X30156Y136020D01*
X30285Y137000D01*
X30156Y137980D01*
X29778Y138893D01*
X29177Y139676D01*
X28393Y140278D01*
X27480Y140656D01*
X26500Y140785D01*
D02*
G37*
G36*
X61500Y143828D02*
X56500D01*
X55638Y143715D01*
X54836Y143383D01*
X54146Y142854D01*
X53617Y142164D01*
X53285Y141361D01*
X53171Y140500D01*
X53285Y139638D01*
X53617Y138836D01*
X54146Y138146D01*
X54836Y137618D01*
X55638Y137285D01*
X56500Y137171D01*
X61500D01*
X62362Y137285D01*
X63164Y137618D01*
X63854Y138146D01*
X64383Y138836D01*
X64715Y139638D01*
X64828Y140500D01*
X64715Y141361D01*
X64383Y142164D01*
X63854Y142854D01*
X63164Y143383D01*
X62362Y143715D01*
X61500Y143828D01*
D02*
G37*
G36*
X288500Y152000D02*
X284480D01*
Y149000D01*
X284558Y148610D01*
X284779Y148279D01*
X285110Y148058D01*
X285500Y147980D01*
X288500D01*
Y152000D01*
D02*
G37*
G36*
X294520D02*
X290500D01*
Y147980D01*
X293500D01*
X293890Y148058D01*
X294221Y148279D01*
X294442Y148610D01*
X294520Y149000D01*
Y152000D01*
D02*
G37*
G36*
X319500Y157841D02*
X318247Y157676D01*
X317079Y157193D01*
X316077Y156423D01*
X315307Y155421D01*
X314824Y154253D01*
X314659Y153000D01*
X314824Y151747D01*
X315172Y150907D01*
X301645Y137380D01*
X297678D01*
X297376Y137775D01*
X296798Y138218D01*
X296124Y138497D01*
X295401Y138592D01*
X294679Y138497D01*
X294005Y138218D01*
X293427Y137775D01*
X292983Y137196D01*
X292704Y136523D01*
X292609Y135800D01*
X292704Y135077D01*
X292983Y134404D01*
X293427Y133826D01*
X293486Y133780D01*
X293146Y132780D01*
X219655D01*
X216718Y135717D01*
X216205Y136060D01*
X215600Y136180D01*
X211633D01*
X211567Y137180D01*
X212362Y137285D01*
X213164Y137618D01*
X213854Y138146D01*
X214383Y138836D01*
X214715Y139638D01*
X214828Y140500D01*
X214715Y141361D01*
X214383Y142164D01*
X213854Y142854D01*
X213164Y143383D01*
X212362Y143715D01*
X211500Y143828D01*
X206500D01*
X205639Y143715D01*
X204836Y143383D01*
X204146Y142854D01*
X203618Y142164D01*
X203285Y141361D01*
X203171Y140500D01*
X203285Y139638D01*
X203618Y138836D01*
X204146Y138146D01*
X204836Y137618D01*
X205639Y137285D01*
X206433Y137180D01*
X206367Y136180D01*
X138100D01*
X137495Y136060D01*
X136983Y135717D01*
X133345Y132080D01*
X64417D01*
X64383Y132164D01*
X63854Y132854D01*
X63164Y133382D01*
X62362Y133715D01*
X61500Y133828D01*
X56500D01*
X55638Y133715D01*
X54836Y133382D01*
X54146Y132854D01*
X53617Y132164D01*
X53285Y131361D01*
X53171Y130500D01*
X53285Y129639D01*
X53617Y128836D01*
X54146Y128146D01*
X54836Y127618D01*
X55638Y127285D01*
X56500Y127172D01*
X61500D01*
X62362Y127285D01*
X63164Y127618D01*
X63854Y128146D01*
X64383Y128836D01*
X64417Y128920D01*
X134000D01*
X134605Y129040D01*
X135117Y129383D01*
X138755Y133020D01*
X203013D01*
X203356Y132534D01*
X203557Y132020D01*
X203285Y131361D01*
X203171Y130500D01*
X203285Y129639D01*
X203618Y128836D01*
X204146Y128146D01*
X204233Y128080D01*
X203893Y127080D01*
X200477D01*
X200174Y127474D01*
X199596Y127918D01*
X198923Y128197D01*
X198200Y128292D01*
X197477Y128197D01*
X196804Y127918D01*
X196226Y127474D01*
X195782Y126896D01*
X195503Y126223D01*
X195408Y125500D01*
X195503Y124777D01*
X195782Y124104D01*
X196226Y123526D01*
X196804Y123082D01*
X197477Y122803D01*
X198200Y122708D01*
X198923Y122803D01*
X199596Y123082D01*
X200174Y123526D01*
X200477Y123920D01*
X203893D01*
X204233Y122920D01*
X204146Y122854D01*
X203618Y122164D01*
X203285Y121361D01*
X203171Y120500D01*
X203285Y119639D01*
X203618Y118836D01*
X204146Y118146D01*
X204836Y117617D01*
X205639Y117285D01*
X206500Y117172D01*
X211500D01*
X212362Y117285D01*
X213164Y117617D01*
X213854Y118146D01*
X214383Y118836D01*
X214715Y119639D01*
X214828Y120500D01*
X214715Y121361D01*
X214383Y122164D01*
X213854Y122854D01*
X213768Y122920D01*
X214107Y123920D01*
X251145D01*
X279573Y95493D01*
X279508Y95000D01*
X279603Y94277D01*
X279882Y93604D01*
X280326Y93025D01*
X280904Y92582D01*
X281577Y92303D01*
X282300Y92208D01*
X283023Y92303D01*
X283696Y92582D01*
X284275Y93025D01*
X284718Y93604D01*
X284997Y94277D01*
X285092Y95000D01*
X284997Y95723D01*
X284718Y96396D01*
X284275Y96974D01*
X283696Y97418D01*
X283023Y97697D01*
X282300Y97792D01*
X281807Y97728D01*
X252918Y126618D01*
X252405Y126960D01*
X251800Y127080D01*
X214107D01*
X213768Y128080D01*
X213854Y128146D01*
X214383Y128836D01*
X214715Y129639D01*
X214828Y130500D01*
X214715Y131361D01*
X215356Y132413D01*
X215499Y132466D01*
X217882Y130082D01*
X218395Y129740D01*
X219000Y129620D01*
X320623D01*
X320925Y129226D01*
X321504Y128782D01*
X322177Y128503D01*
X322900Y128408D01*
X323623Y128503D01*
X324296Y128782D01*
X324874Y129226D01*
X325318Y129804D01*
X325597Y130477D01*
X325692Y131200D01*
X325597Y131923D01*
X325318Y132596D01*
X324874Y133175D01*
X324296Y133618D01*
X323623Y133897D01*
X322900Y133992D01*
X322177Y133897D01*
X321504Y133618D01*
X320925Y133175D01*
X320623Y132780D01*
X298338D01*
X297835Y133780D01*
X298161Y134220D01*
X302300D01*
X302905Y134340D01*
X303417Y134683D01*
X317407Y148672D01*
X318247Y148324D01*
X319500Y148159D01*
X320753Y148324D01*
X321921Y148807D01*
X322923Y149577D01*
X323693Y150579D01*
X324177Y151747D01*
X324341Y153000D01*
X324177Y154253D01*
X323693Y155421D01*
X322923Y156423D01*
X321921Y157193D01*
X320753Y157676D01*
X319500Y157841D01*
D02*
G37*
G36*
X26500Y150785D02*
X25520Y150656D01*
X24607Y150278D01*
X23823Y149677D01*
X23222Y148893D01*
X22844Y147980D01*
X22715Y147000D01*
X22844Y146020D01*
X23222Y145107D01*
X23823Y144324D01*
X24607Y143722D01*
X25520Y143344D01*
X26500Y143215D01*
X27480Y143344D01*
X28393Y143722D01*
X29177Y144324D01*
X29778Y145107D01*
X30156Y146020D01*
X30285Y147000D01*
X30156Y147980D01*
X29778Y148893D01*
X29177Y149677D01*
X28393Y150278D01*
X27480Y150656D01*
X26500Y150785D01*
D02*
G37*
G36*
X61500Y153829D02*
X56500D01*
X55638Y153715D01*
X54836Y153383D01*
X54146Y152854D01*
X53617Y152164D01*
X53285Y151362D01*
X53171Y150500D01*
X53285Y149638D01*
X53617Y148836D01*
X54146Y148146D01*
X54836Y147617D01*
X55638Y147285D01*
X56500Y147171D01*
X61500D01*
X62362Y147285D01*
X63164Y147617D01*
X63854Y148146D01*
X64383Y148836D01*
X64715Y149638D01*
X64828Y150500D01*
X64715Y151362D01*
X64383Y152164D01*
X63854Y152854D01*
X63164Y153383D01*
X62362Y153715D01*
X61500Y153829D01*
D02*
G37*
G36*
X211500D02*
X206500D01*
X205639Y153715D01*
X204836Y153383D01*
X204146Y152854D01*
X203618Y152164D01*
X203285Y151362D01*
X203171Y150500D01*
X203285Y149638D01*
X203618Y148836D01*
X204146Y148146D01*
X204836Y147617D01*
X205639Y147285D01*
X206500Y147171D01*
X211500D01*
X212362Y147285D01*
X213164Y147617D01*
X213854Y148146D01*
X214383Y148836D01*
X214715Y149638D01*
X214828Y150500D01*
X214715Y151362D01*
X214383Y152164D01*
X213854Y152854D01*
X213164Y153383D01*
X212362Y153715D01*
X211500Y153829D01*
D02*
G37*
G36*
X577000Y45979D02*
Y26000D01*
X596980D01*
X596865Y27747D01*
X596328Y30447D01*
X595443Y33054D01*
X594226Y35522D01*
X592696Y37811D01*
X590881Y39881D01*
X588811Y41696D01*
X586522Y43226D01*
X584054Y44443D01*
X581447Y45328D01*
X578747Y45865D01*
X577000Y45979D01*
D02*
G37*
G36*
X329800Y31500D02*
X324780D01*
Y27500D01*
X324858Y27110D01*
X325079Y26779D01*
X325410Y26558D01*
X325800Y26480D01*
X329800D01*
Y31500D01*
D02*
G37*
G36*
X336820D02*
X331800D01*
Y26480D01*
X335800D01*
X336190Y26558D01*
X336521Y26779D01*
X336742Y27110D01*
X336820Y27500D01*
Y31500D01*
D02*
G37*
G36*
X25000Y45979D02*
X23253Y45865D01*
X20553Y45328D01*
X17946Y44443D01*
X15477Y43226D01*
X13189Y41696D01*
X11119Y39881D01*
X9304Y37811D01*
X7774Y35522D01*
X6557Y33054D01*
X5672Y30447D01*
X5135Y27747D01*
X5020Y26000D01*
X25000D01*
Y45979D01*
D02*
G37*
G36*
X27000D02*
Y26000D01*
X46979D01*
X46865Y27747D01*
X46328Y30447D01*
X45443Y33054D01*
X44226Y35522D01*
X42696Y37811D01*
X40881Y39881D01*
X38811Y41696D01*
X36522Y43226D01*
X34054Y44443D01*
X31447Y45328D01*
X28747Y45865D01*
X27000Y45979D01*
D02*
G37*
G36*
X575000D02*
X573253Y45865D01*
X570553Y45328D01*
X567946Y44443D01*
X565478Y43226D01*
X563189Y41696D01*
X561119Y39881D01*
X559304Y37811D01*
X557774Y35522D01*
X556557Y33054D01*
X555672Y30447D01*
X555135Y27747D01*
X555021Y26000D01*
X575000D01*
Y45979D01*
D02*
G37*
G36*
X463300Y35930D02*
X463124Y35913D01*
X461993Y35570D01*
X460951Y35013D01*
X460037Y34263D01*
X459287Y33349D01*
X458730Y32307D01*
X458387Y31176D01*
X458369Y31000D01*
X463300D01*
Y35930D01*
D02*
G37*
G36*
X329800Y38520D02*
X325800D01*
X325410Y38442D01*
X325079Y38221D01*
X324858Y37890D01*
X324780Y37500D01*
Y33500D01*
X329800D01*
Y38520D01*
D02*
G37*
G36*
X313500Y38431D02*
X313324Y38413D01*
X312193Y38070D01*
X311150Y37513D01*
X310237Y36763D01*
X309487Y35850D01*
X308930Y34807D01*
X308587Y33676D01*
X308570Y33500D01*
X313500D01*
Y38431D01*
D02*
G37*
G36*
Y31500D02*
X308570D01*
X308587Y31324D01*
X308930Y30193D01*
X309487Y29151D01*
X310237Y28237D01*
X311150Y27487D01*
X312193Y26930D01*
X313324Y26587D01*
X313500Y26570D01*
Y31500D01*
D02*
G37*
G36*
X320430D02*
X315500D01*
Y26570D01*
X315676Y26587D01*
X316807Y26930D01*
X317849Y27487D01*
X318763Y28237D01*
X319513Y29151D01*
X320070Y30193D01*
X320413Y31324D01*
X320430Y31500D01*
D02*
G37*
G36*
X298200Y38328D02*
X297063Y38216D01*
X295970Y37884D01*
X294962Y37346D01*
X294079Y36621D01*
X293354Y35738D01*
X292816Y34730D01*
X292484Y33637D01*
X292372Y32500D01*
X292484Y31363D01*
X292816Y30270D01*
X293354Y29262D01*
X294079Y28379D01*
X294962Y27654D01*
X295970Y27116D01*
X297063Y26784D01*
X298200Y26672D01*
X299337Y26784D01*
X300430Y27116D01*
X301438Y27654D01*
X302321Y28379D01*
X303046Y29262D01*
X303584Y30270D01*
X303916Y31363D01*
X304028Y32500D01*
X303916Y33637D01*
X303584Y34730D01*
X303046Y35738D01*
X302321Y36621D01*
X301438Y37346D01*
X300430Y37884D01*
X299337Y38216D01*
X298200Y38328D01*
D02*
G37*
G36*
X596980Y24000D02*
X577000D01*
Y4021D01*
X578747Y4135D01*
X581447Y4672D01*
X584054Y5557D01*
X586522Y6774D01*
X588811Y8304D01*
X590881Y10119D01*
X592696Y12189D01*
X594226Y14478D01*
X595443Y16946D01*
X596328Y19553D01*
X596865Y22253D01*
X596980Y24000D01*
D02*
G37*
G36*
X510500Y15000D02*
X507849D01*
X508219Y14106D01*
X508821Y13321D01*
X509606Y12719D01*
X510500Y12349D01*
Y15000D01*
D02*
G37*
G36*
X515151D02*
X512500D01*
Y12349D01*
X513394Y12719D01*
X514179Y13321D01*
X514781Y14106D01*
X515151Y15000D01*
D02*
G37*
G36*
X25000Y24000D02*
X5020D01*
X5135Y22253D01*
X5672Y19553D01*
X6557Y16946D01*
X7774Y14478D01*
X9304Y12189D01*
X11119Y10119D01*
X13189Y8304D01*
X15477Y6774D01*
X17946Y5557D01*
X20553Y4672D01*
X23253Y4135D01*
X25000Y4021D01*
Y24000D01*
D02*
G37*
G36*
X46979D02*
X27000D01*
Y4021D01*
X28747Y4135D01*
X31447Y4672D01*
X34054Y5557D01*
X36522Y6774D01*
X38811Y8304D01*
X40881Y10119D01*
X42696Y12189D01*
X44226Y14478D01*
X45443Y16946D01*
X46328Y19553D01*
X46865Y22253D01*
X46979Y24000D01*
D02*
G37*
G36*
X575000D02*
X555021D01*
X555135Y22253D01*
X555672Y19553D01*
X556557Y16946D01*
X557774Y14478D01*
X559304Y12189D01*
X561119Y10119D01*
X563189Y8304D01*
X565478Y6774D01*
X567946Y5557D01*
X570553Y4672D01*
X573253Y4135D01*
X575000Y4021D01*
Y24000D01*
D02*
G37*
G36*
X512500Y19651D02*
Y17000D01*
X515151D01*
X514781Y17894D01*
X514179Y18679D01*
X513394Y19281D01*
X512500Y19651D01*
D02*
G37*
G36*
X463300Y29000D02*
X458369D01*
X458387Y28824D01*
X458730Y27693D01*
X459287Y26651D01*
X460037Y25737D01*
X460951Y24987D01*
X461993Y24430D01*
X463124Y24087D01*
X463300Y24069D01*
Y29000D01*
D02*
G37*
G36*
X453000Y35816D02*
X443000D01*
X442688Y35754D01*
X442423Y35577D01*
X442246Y35312D01*
X442184Y35000D01*
Y25000D01*
X442246Y24688D01*
X442423Y24423D01*
X442688Y24246D01*
X443000Y24184D01*
X453000D01*
X453312Y24246D01*
X453577Y24423D01*
X453754Y24688D01*
X453816Y25000D01*
Y35000D01*
X453754Y35312D01*
X453577Y35577D01*
X453312Y35754D01*
X453000Y35816D01*
D02*
G37*
G36*
X489500Y21587D02*
X488572Y21464D01*
X487707Y21106D01*
X486964Y20536D01*
X486394Y19793D01*
X486036Y18928D01*
X485913Y18000D01*
X486036Y17072D01*
X486394Y16207D01*
X486964Y15464D01*
X487707Y14894D01*
X488572Y14536D01*
X489500Y14413D01*
X490428Y14536D01*
X491293Y14894D01*
X492036Y15464D01*
X492606Y16207D01*
X492964Y17072D01*
X493087Y18000D01*
X492964Y18928D01*
X492606Y19793D01*
X492036Y20536D01*
X491293Y21106D01*
X490428Y21464D01*
X489500Y21587D01*
D02*
G37*
G36*
X94500Y22833D02*
X93508Y22702D01*
X92584Y22319D01*
X91790Y21710D01*
X91181Y20916D01*
X90798Y19992D01*
X90667Y19000D01*
X90798Y18008D01*
X91181Y17084D01*
X91790Y16290D01*
X92584Y15681D01*
X93508Y15298D01*
X94500Y15167D01*
X95492Y15298D01*
X96416Y15681D01*
X97210Y16290D01*
X97819Y17084D01*
X98202Y18008D01*
X98333Y19000D01*
X98202Y19992D01*
X97819Y20916D01*
X97210Y21710D01*
X96416Y22319D01*
X95492Y22702D01*
X94500Y22833D01*
D02*
G37*
G36*
X465300Y35930D02*
Y30000D01*
Y24069D01*
X465476Y24087D01*
X466607Y24430D01*
X467650Y24987D01*
X468563Y25737D01*
X469313Y26651D01*
X469870Y27693D01*
X470091Y28420D01*
X496845D01*
X507971Y17294D01*
X507849Y17000D01*
X510500D01*
Y19651D01*
X510206Y19529D01*
X498618Y31117D01*
X498105Y31460D01*
X497500Y31580D01*
X470091D01*
X469870Y32307D01*
X469313Y33349D01*
X468563Y34263D01*
X467650Y35013D01*
X466607Y35570D01*
X465476Y35913D01*
X465300Y35930D01*
D02*
G37*
G36*
X211500Y63828D02*
X206500D01*
X205639Y63715D01*
X204836Y63383D01*
X204146Y62854D01*
X203618Y62164D01*
X203285Y61361D01*
X203171Y60500D01*
X203285Y59639D01*
X203618Y58836D01*
X204146Y58146D01*
X204836Y57617D01*
X205639Y57285D01*
X206500Y57171D01*
X211500D01*
X212362Y57285D01*
X213164Y57617D01*
X213854Y58146D01*
X214383Y58836D01*
X214715Y59639D01*
X214828Y60500D01*
X214715Y61361D01*
X214383Y62164D01*
X213854Y62854D01*
X213164Y63383D01*
X212362Y63715D01*
X211500Y63828D01*
D02*
G37*
G36*
X302800Y62580D02*
X252500D01*
X251895Y62460D01*
X251382Y62117D01*
X251040Y61605D01*
X250920Y61000D01*
X251040Y60395D01*
X251382Y59882D01*
X251895Y59540D01*
X252500Y59420D01*
X302800D01*
X303405Y59540D01*
X303918Y59882D01*
X304260Y60395D01*
X304380Y61000D01*
X304260Y61605D01*
X303918Y62117D01*
X303405Y62460D01*
X302800Y62580D01*
D02*
G37*
G36*
X380000Y63903D02*
X379956Y63897D01*
X378983Y63494D01*
X378147Y62853D01*
X377506Y62017D01*
X377103Y61044D01*
X377097Y61000D01*
X380000D01*
Y63903D01*
D02*
G37*
G36*
X384903Y59000D02*
X382000D01*
Y56097D01*
X382044Y56103D01*
X383017Y56506D01*
X383853Y57147D01*
X384494Y57983D01*
X384897Y58956D01*
X384903Y59000D01*
D02*
G37*
G36*
X374000Y63816D02*
X368000D01*
X367688Y63754D01*
X367423Y63577D01*
X367246Y63312D01*
X367184Y63000D01*
Y57000D01*
X367246Y56688D01*
X367423Y56423D01*
X367688Y56246D01*
X368000Y56184D01*
X374000D01*
X374312Y56246D01*
X374577Y56423D01*
X374754Y56688D01*
X374816Y57000D01*
Y63000D01*
X374754Y63312D01*
X374577Y63577D01*
X374312Y63754D01*
X374000Y63816D01*
D02*
G37*
G36*
X61500Y63828D02*
X56500D01*
X55638Y63715D01*
X54836Y63383D01*
X54146Y62854D01*
X53617Y62164D01*
X53285Y61361D01*
X53171Y60500D01*
X53285Y59639D01*
X53617Y58836D01*
X54146Y58146D01*
X54836Y57617D01*
X55638Y57285D01*
X56500Y57171D01*
X61500D01*
X62362Y57285D01*
X63164Y57617D01*
X63854Y58146D01*
X64383Y58836D01*
X64715Y59639D01*
X64828Y60500D01*
X64715Y61361D01*
X64383Y62164D01*
X63854Y62854D01*
X63164Y63383D01*
X62362Y63715D01*
X61500Y63828D01*
D02*
G37*
G36*
Y73829D02*
X56500D01*
X55638Y73715D01*
X54836Y73383D01*
X54146Y72854D01*
X53617Y72164D01*
X53285Y71362D01*
X53171Y70500D01*
X53285Y69639D01*
X53617Y68836D01*
X54146Y68146D01*
X54836Y67617D01*
X55638Y67285D01*
X56500Y67172D01*
X61500D01*
X62362Y67285D01*
X63164Y67617D01*
X63854Y68146D01*
X64383Y68836D01*
X64715Y69639D01*
X64828Y70500D01*
X64715Y71362D01*
X64383Y72164D01*
X63854Y72854D01*
X63164Y73383D01*
X62362Y73715D01*
X61500Y73829D01*
D02*
G37*
G36*
X211500D02*
X206500D01*
X205639Y73715D01*
X204836Y73383D01*
X204146Y72854D01*
X203618Y72164D01*
X203285Y71362D01*
X203171Y70500D01*
X203285Y69639D01*
X203618Y68836D01*
X204146Y68146D01*
X204836Y67617D01*
X205639Y67285D01*
X206500Y67172D01*
X211500D01*
X212362Y67285D01*
X213164Y67617D01*
X213854Y68146D01*
X214383Y68836D01*
X214715Y69639D01*
X214828Y70500D01*
X214715Y71362D01*
X214383Y72164D01*
X213854Y72854D01*
X213164Y73383D01*
X212362Y73715D01*
X211500Y73829D01*
D02*
G37*
G36*
X17500Y80000D02*
X14597D01*
X14603Y79956D01*
X15006Y78983D01*
X15647Y78147D01*
X16483Y77506D01*
X17456Y77103D01*
X17500Y77097D01*
Y80000D01*
D02*
G37*
G36*
X382000Y63903D02*
Y61000D01*
X384903D01*
X384897Y61044D01*
X384494Y62017D01*
X383853Y62853D01*
X383017Y63494D01*
X382044Y63897D01*
X382000Y63903D01*
D02*
G37*
G36*
X447000Y72945D02*
X446236Y72870D01*
X444539Y72355D01*
X442976Y71519D01*
X441605Y70395D01*
X440481Y69024D01*
X439645Y67461D01*
X439130Y65764D01*
X439055Y65000D01*
X447000D01*
Y72945D01*
D02*
G37*
G36*
X449000D02*
Y65000D01*
X456945D01*
X456870Y65764D01*
X456355Y67461D01*
X455519Y69024D01*
X454395Y70395D01*
X453024Y71519D01*
X451461Y72355D01*
X449764Y72870D01*
X449000Y72945D01*
D02*
G37*
G36*
X453931Y45300D02*
X449000D01*
Y40369D01*
X449176Y40387D01*
X450307Y40730D01*
X451349Y41287D01*
X452263Y42037D01*
X453013Y42950D01*
X453570Y43993D01*
X453913Y45124D01*
X453931Y45300D01*
D02*
G37*
G36*
X464300Y52128D02*
X463163Y52016D01*
X462070Y51684D01*
X461062Y51146D01*
X460179Y50421D01*
X459454Y49538D01*
X458916Y48530D01*
X458584Y47437D01*
X458472Y46300D01*
X458584Y45163D01*
X458916Y44070D01*
X459454Y43062D01*
X460179Y42179D01*
X461062Y41454D01*
X462070Y40916D01*
X463163Y40584D01*
X464300Y40472D01*
X465437Y40584D01*
X466530Y40916D01*
X467538Y41454D01*
X468421Y42179D01*
X469146Y43062D01*
X469684Y44070D01*
X470016Y45163D01*
X470128Y46300D01*
X470016Y47437D01*
X469684Y48530D01*
X469146Y49538D01*
X468421Y50421D01*
X467538Y51146D01*
X466530Y51684D01*
X465437Y52016D01*
X464300Y52128D01*
D02*
G37*
G36*
X58000Y49500D02*
X53126D01*
X53443Y48735D01*
X54004Y48004D01*
X54735Y47443D01*
X55586Y47090D01*
X56500Y46970D01*
X58000D01*
Y49500D01*
D02*
G37*
G36*
X315500Y38431D02*
Y33500D01*
X320430D01*
X320413Y33676D01*
X320070Y34807D01*
X319513Y35850D01*
X318763Y36763D01*
X317849Y37513D01*
X316807Y38070D01*
X315676Y38413D01*
X315500Y38431D01*
D02*
G37*
G36*
X335800Y38520D02*
X331800D01*
Y33500D01*
X336820D01*
Y37500D01*
X336742Y37890D01*
X336521Y38221D01*
X336190Y38442D01*
X335800Y38520D01*
D02*
G37*
G36*
X447000Y45300D02*
X442069D01*
X442087Y45124D01*
X442430Y43993D01*
X442987Y42950D01*
X443737Y42037D01*
X444651Y41287D01*
X445693Y40730D01*
X446824Y40387D01*
X447000Y40369D01*
Y45300D01*
D02*
G37*
G36*
X58000Y54030D02*
X56500D01*
X55586Y53910D01*
X54735Y53557D01*
X54004Y52996D01*
X53443Y52265D01*
X53126Y51500D01*
X58000D01*
Y54030D01*
D02*
G37*
G36*
X61500D02*
X60000D01*
Y51500D01*
X64874D01*
X64557Y52265D01*
X63996Y52996D01*
X63265Y53557D01*
X62414Y53910D01*
X61500Y54030D01*
D02*
G37*
G36*
X380000Y59000D02*
X377097D01*
X377103Y58956D01*
X377506Y57983D01*
X378147Y57147D01*
X378983Y56506D01*
X379956Y56103D01*
X380000Y56097D01*
Y59000D01*
D02*
G37*
G36*
X64874Y49500D02*
X60000D01*
Y46970D01*
X61500D01*
X62414Y47090D01*
X63265Y47443D01*
X63996Y48004D01*
X64557Y48735D01*
X64874Y49500D01*
D02*
G37*
G36*
X456945Y63000D02*
X448000D01*
X439055D01*
X439130Y62236D01*
X439645Y60539D01*
X440481Y58976D01*
X441605Y57605D01*
X442976Y56481D01*
X444539Y55645D01*
X446236Y55130D01*
X446420Y55112D01*
Y52091D01*
X445693Y51870D01*
X444651Y51313D01*
X443737Y50563D01*
X442987Y49650D01*
X442430Y48607D01*
X442087Y47476D01*
X442069Y47300D01*
X448000D01*
X453931D01*
X453913Y47476D01*
X453570Y48607D01*
X453013Y49650D01*
X452263Y50563D01*
X451349Y51313D01*
X450307Y51870D01*
X449580Y52091D01*
Y55112D01*
X449764Y55130D01*
X451461Y55645D01*
X453024Y56481D01*
X454395Y57605D01*
X455519Y58976D01*
X456355Y60539D01*
X456870Y62236D01*
X456945Y63000D01*
D02*
G37*
G36*
X208000Y54030D02*
X206500D01*
X205586Y53910D01*
X204735Y53557D01*
X204004Y52996D01*
X203443Y52265D01*
X203126Y51500D01*
X208000D01*
Y54030D01*
D02*
G37*
G36*
X61500Y313828D02*
X56500D01*
X55638Y313715D01*
X54836Y313383D01*
X54146Y312854D01*
X53617Y312164D01*
X53285Y311362D01*
X53171Y310500D01*
X53285Y309639D01*
X53617Y308836D01*
X54146Y308146D01*
X54836Y307617D01*
X55638Y307285D01*
X56500Y307172D01*
X61500D01*
X62362Y307285D01*
X63164Y307617D01*
X63854Y308146D01*
X64383Y308836D01*
X64715Y309639D01*
X64828Y310500D01*
X64715Y311362D01*
X64383Y312164D01*
X63854Y312854D01*
X63164Y313383D01*
X62362Y313715D01*
X61500Y313828D01*
D02*
G37*
G36*
X211500D02*
X206500D01*
X205639Y313715D01*
X204836Y313383D01*
X204146Y312854D01*
X203618Y312164D01*
X203285Y311362D01*
X203171Y310500D01*
X203285Y309639D01*
X203618Y308836D01*
X204146Y308146D01*
X204836Y307617D01*
X205639Y307285D01*
X206500Y307172D01*
X211500D01*
X212362Y307285D01*
X213164Y307617D01*
X213854Y308146D01*
X214383Y308836D01*
X214715Y309639D01*
X214828Y310500D01*
X214715Y311362D01*
X214383Y312164D01*
X213854Y312854D01*
X213164Y313383D01*
X212362Y313715D01*
X211500Y313828D01*
D02*
G37*
G36*
X61500Y323829D02*
X56500D01*
X55638Y323715D01*
X54836Y323382D01*
X54146Y322854D01*
X53617Y322164D01*
X53285Y321361D01*
X53171Y320500D01*
X53285Y319638D01*
X53617Y318836D01*
X54146Y318146D01*
X54836Y317618D01*
X55638Y317285D01*
X56500Y317172D01*
X61500D01*
X62362Y317285D01*
X63164Y317618D01*
X63854Y318146D01*
X64383Y318836D01*
X64715Y319638D01*
X64828Y320500D01*
X64715Y321361D01*
X64383Y322164D01*
X63854Y322854D01*
X63164Y323382D01*
X62362Y323715D01*
X61500Y323829D01*
D02*
G37*
G36*
X428000Y303333D02*
X426667Y303202D01*
X425385Y302813D01*
X424204Y302181D01*
X423168Y301332D01*
X422319Y300296D01*
X421687Y299115D01*
X421298Y297833D01*
X421167Y296500D01*
X421298Y295167D01*
X421687Y293885D01*
X422319Y292704D01*
X423168Y291668D01*
X424204Y290819D01*
X425385Y290187D01*
X426667Y289798D01*
X428000Y289667D01*
X429333Y289798D01*
X430615Y290187D01*
X431796Y290819D01*
X432832Y291668D01*
X433681Y292704D01*
X434313Y293885D01*
X434702Y295167D01*
X434833Y296500D01*
X434702Y297833D01*
X434313Y299115D01*
X433681Y300296D01*
X432832Y301332D01*
X431796Y302181D01*
X430615Y302813D01*
X429333Y303202D01*
X428000Y303333D01*
D02*
G37*
G36*
X540000Y309891D02*
X534000D01*
X532373Y309731D01*
X530808Y309257D01*
X529366Y308486D01*
X528103Y307449D01*
X527065Y306185D01*
X526295Y304743D01*
X525820Y303178D01*
X525660Y301551D01*
X525820Y299924D01*
X526295Y298359D01*
X527065Y296918D01*
X528103Y295654D01*
X529366Y294617D01*
X530808Y293846D01*
X532373Y293371D01*
X534000Y293211D01*
X540000D01*
X541627Y293371D01*
X543192Y293846D01*
X544634Y294617D01*
X545897Y295654D01*
X546935Y296918D01*
X547705Y298359D01*
X548180Y299924D01*
X548340Y301551D01*
X548180Y303178D01*
X547705Y304743D01*
X546935Y306185D01*
X545897Y307449D01*
X544634Y308486D01*
X543192Y309257D01*
X541627Y309731D01*
X540000Y309891D01*
D02*
G37*
G36*
X61500Y303829D02*
X56500D01*
X55638Y303715D01*
X54836Y303382D01*
X54146Y302854D01*
X53617Y302164D01*
X53285Y301361D01*
X53171Y300500D01*
X53285Y299639D01*
X53617Y298836D01*
X54146Y298146D01*
X54836Y297618D01*
X55638Y297285D01*
X56500Y297171D01*
X61500D01*
X62362Y297285D01*
X63164Y297618D01*
X63854Y298146D01*
X64383Y298836D01*
X64715Y299639D01*
X64828Y300500D01*
X64715Y301361D01*
X64383Y302164D01*
X63854Y302854D01*
X63164Y303382D01*
X62362Y303715D01*
X61500Y303829D01*
D02*
G37*
G36*
X224100Y345892D02*
X223377Y345797D01*
X222704Y345518D01*
X222126Y345075D01*
X221682Y344496D01*
X221403Y343823D01*
X221308Y343100D01*
X221373Y342607D01*
X215845Y337080D01*
X214107D01*
X213768Y338080D01*
X213854Y338146D01*
X214383Y338836D01*
X214715Y339638D01*
X214828Y340500D01*
X214715Y341361D01*
X214383Y342164D01*
X213854Y342854D01*
X213164Y343383D01*
X212362Y343715D01*
X211500Y343829D01*
X206500D01*
X205639Y343715D01*
X204836Y343383D01*
X204146Y342854D01*
X203618Y342164D01*
X203285Y341361D01*
X203171Y340500D01*
X203285Y339638D01*
X203618Y338836D01*
X204146Y338146D01*
X204233Y338080D01*
X203893Y337080D01*
X200000D01*
X199395Y336960D01*
X198882Y336617D01*
X194793Y332527D01*
X194300Y332592D01*
X193577Y332497D01*
X192904Y332218D01*
X192325Y331774D01*
X191882Y331196D01*
X191603Y330523D01*
X191508Y329800D01*
X191603Y329077D01*
X191882Y328404D01*
X192325Y327825D01*
X192904Y327382D01*
X193577Y327103D01*
X194300Y327008D01*
X195023Y327103D01*
X195696Y327382D01*
X196274Y327825D01*
X196718Y328404D01*
X196997Y329077D01*
X197092Y329800D01*
X197028Y330293D01*
X200655Y333920D01*
X203893D01*
X204233Y332920D01*
X204146Y332854D01*
X203618Y332164D01*
X203285Y331362D01*
X203171Y330500D01*
X203285Y329639D01*
X203618Y328836D01*
X204146Y328146D01*
X204836Y327618D01*
X205639Y327285D01*
X206500Y327171D01*
X211500D01*
X212362Y327285D01*
X213164Y327618D01*
X213854Y328146D01*
X214383Y328836D01*
X214715Y329639D01*
X214828Y330500D01*
X214715Y331362D01*
X214383Y332164D01*
X213854Y332854D01*
X213768Y332920D01*
X214107Y333920D01*
X216500D01*
X217105Y334040D01*
X217618Y334383D01*
X223607Y340372D01*
X224100Y340308D01*
X224823Y340403D01*
X225496Y340682D01*
X226075Y341125D01*
X226518Y341704D01*
X226797Y342377D01*
X226892Y343100D01*
X226797Y343823D01*
X226518Y344496D01*
X226075Y345075D01*
X225496Y345518D01*
X224823Y345797D01*
X224100Y345892D01*
D02*
G37*
G36*
X61500Y343829D02*
X56500D01*
X55638Y343715D01*
X54836Y343383D01*
X54146Y342854D01*
X53617Y342164D01*
X53285Y341361D01*
X53171Y340500D01*
X53285Y339638D01*
X53617Y338836D01*
X54146Y338146D01*
X54836Y337617D01*
X55638Y337285D01*
X56500Y337172D01*
X61500D01*
X62362Y337285D01*
X63164Y337617D01*
X63854Y338146D01*
X64383Y338836D01*
X64715Y339638D01*
X64828Y340500D01*
X64715Y341361D01*
X64383Y342164D01*
X63854Y342854D01*
X63164Y343383D01*
X62362Y343715D01*
X61500Y343829D01*
D02*
G37*
G36*
X503000Y344816D02*
X497000D01*
X496688Y344754D01*
X496423Y344577D01*
X496246Y344312D01*
X496184Y344000D01*
Y338000D01*
X496246Y337688D01*
X496423Y337423D01*
X496688Y337246D01*
X497000Y337184D01*
X503000D01*
X503312Y337246D01*
X503577Y337423D01*
X503754Y337688D01*
X503816Y338000D01*
Y344000D01*
X503754Y344312D01*
X503577Y344577D01*
X503312Y344754D01*
X503000Y344816D01*
D02*
G37*
G36*
X547500Y334867D02*
X526500D01*
X526188Y334805D01*
X525923Y334628D01*
X525746Y334363D01*
X525684Y334051D01*
Y319051D01*
X525746Y318739D01*
X525923Y318474D01*
X526188Y318298D01*
X526500Y318235D01*
X547500D01*
X547812Y318298D01*
X548077Y318474D01*
X548254Y318739D01*
X548316Y319051D01*
Y334051D01*
X548254Y334363D01*
X548077Y334628D01*
X547812Y334805D01*
X547500Y334867D01*
D02*
G37*
G36*
X428000Y338333D02*
X426667Y338202D01*
X425385Y337813D01*
X424204Y337181D01*
X423168Y336332D01*
X422319Y335296D01*
X421687Y334115D01*
X421298Y332833D01*
X421167Y331500D01*
X421298Y330167D01*
X421687Y328885D01*
X422319Y327704D01*
X423168Y326668D01*
X424204Y325819D01*
X425385Y325187D01*
X426667Y324798D01*
X428000Y324667D01*
X429333Y324798D01*
X430615Y325187D01*
X431796Y325819D01*
X432832Y326668D01*
X433681Y327704D01*
X434313Y328885D01*
X434702Y330167D01*
X434833Y331500D01*
X434702Y332833D01*
X434313Y334115D01*
X433681Y335296D01*
X432832Y336332D01*
X431796Y337181D01*
X430615Y337813D01*
X429333Y338202D01*
X428000Y338333D01*
D02*
G37*
G36*
X300000D02*
X298667Y338202D01*
X297385Y337813D01*
X296204Y337181D01*
X295168Y336332D01*
X294319Y335296D01*
X293687Y334115D01*
X293298Y332833D01*
X293241Y332253D01*
X292214Y332021D01*
X291974Y332333D01*
X291396Y332777D01*
X290723Y333055D01*
X290000Y333151D01*
X289277Y333055D01*
X288604Y332777D01*
X288025Y332333D01*
X287582Y331754D01*
X287303Y331081D01*
X287208Y330358D01*
X287303Y329636D01*
X287582Y328962D01*
X288025Y328384D01*
X288420Y328081D01*
Y326700D01*
X288540Y326095D01*
X288882Y325583D01*
X291461Y323004D01*
X291078Y322080D01*
X214417D01*
X214383Y322164D01*
X213854Y322854D01*
X213164Y323382D01*
X212362Y323715D01*
X211500Y323829D01*
X206500D01*
X205639Y323715D01*
X204836Y323382D01*
X204146Y322854D01*
X203618Y322164D01*
X203285Y321361D01*
X203171Y320500D01*
X203285Y319638D01*
X203618Y318836D01*
X204146Y318146D01*
X204836Y317618D01*
X205639Y317285D01*
X206500Y317172D01*
X211500D01*
X212362Y317285D01*
X213164Y317618D01*
X213854Y318146D01*
X214383Y318836D01*
X214417Y318920D01*
X292245D01*
X303682Y307483D01*
X304195Y307140D01*
X304800Y307020D01*
X315345D01*
X323525Y298840D01*
X323169Y297782D01*
X322979Y297756D01*
X315217Y305518D01*
X314705Y305860D01*
X314100Y305980D01*
X258400D01*
X257795Y305860D01*
X257282Y305518D01*
X253845Y302080D01*
X214417D01*
X214383Y302164D01*
X213854Y302854D01*
X213164Y303382D01*
X212362Y303715D01*
X211500Y303829D01*
X206500D01*
X205639Y303715D01*
X204836Y303382D01*
X204146Y302854D01*
X203618Y302164D01*
X203285Y301361D01*
X203171Y300500D01*
X203285Y299639D01*
X203618Y298836D01*
X204146Y298146D01*
X204836Y297618D01*
X205639Y297285D01*
X206500Y297171D01*
X211500D01*
X212362Y297285D01*
X213164Y297618D01*
X213854Y298146D01*
X214383Y298836D01*
X214417Y298920D01*
X254500D01*
X255105Y299040D01*
X255617Y299382D01*
X259055Y302820D01*
X295405D01*
X295763Y301820D01*
X295168Y301332D01*
X294319Y300296D01*
X293687Y299115D01*
X293298Y297833D01*
X293167Y296500D01*
X293298Y295167D01*
X293687Y293885D01*
X294319Y292704D01*
X295168Y291668D01*
X296204Y290819D01*
X297385Y290187D01*
X298667Y289798D01*
X300000Y289667D01*
X301333Y289798D01*
X302615Y290187D01*
X303796Y290819D01*
X304832Y291668D01*
X305681Y292704D01*
X306313Y293885D01*
X306702Y295167D01*
X306833Y296500D01*
X306702Y297833D01*
X306313Y299115D01*
X305681Y300296D01*
X304832Y301332D01*
X304237Y301820D01*
X304595Y302820D01*
X313445D01*
X321373Y294893D01*
X321308Y294400D01*
X321403Y293677D01*
X321682Y293004D01*
X322126Y292425D01*
X322704Y291982D01*
X323377Y291703D01*
X324100Y291608D01*
X324823Y291703D01*
X325496Y291982D01*
X326075Y292425D01*
X326518Y293004D01*
X326753Y293570D01*
X327027Y293754D01*
X327829Y294024D01*
X328015Y293904D01*
X328211Y293625D01*
X328208Y293600D01*
X328303Y292877D01*
X328582Y292204D01*
X329026Y291625D01*
X329604Y291182D01*
X330277Y290903D01*
X331000Y290808D01*
X331723Y290903D01*
X332396Y291182D01*
X332975Y291625D01*
X333418Y292204D01*
X333697Y292877D01*
X333792Y293600D01*
X333697Y294323D01*
X333418Y294996D01*
X332975Y295574D01*
X332396Y296018D01*
X331723Y296297D01*
X331000Y296392D01*
X330507Y296327D01*
X317118Y309717D01*
X316605Y310060D01*
X316000Y310180D01*
X305455D01*
X299839Y315796D01*
X300222Y316720D01*
X438145D01*
X441773Y313093D01*
X441708Y312600D01*
X441803Y311877D01*
X442082Y311204D01*
X442525Y310626D01*
X443104Y310182D01*
X443777Y309903D01*
X444500Y309808D01*
X445223Y309903D01*
X445896Y310182D01*
X446475Y310626D01*
X446918Y311204D01*
X447197Y311877D01*
X447292Y312600D01*
X447197Y313323D01*
X446918Y313996D01*
X446475Y314575D01*
X445896Y315018D01*
X445223Y315297D01*
X444500Y315392D01*
X444007Y315328D01*
X439918Y319418D01*
X439405Y319760D01*
X438800Y319880D01*
X299055D01*
X291762Y327173D01*
X291812Y328259D01*
X291974Y328384D01*
X292418Y328962D01*
X292534Y329242D01*
X293595Y329190D01*
X293687Y328885D01*
X294319Y327704D01*
X295168Y326668D01*
X296204Y325819D01*
X297385Y325187D01*
X298667Y324798D01*
X300000Y324667D01*
X301333Y324798D01*
X302615Y325187D01*
X303796Y325819D01*
X304832Y326668D01*
X305681Y327704D01*
X306313Y328885D01*
X306702Y330167D01*
X306833Y331500D01*
X306702Y332833D01*
X306313Y334115D01*
X305681Y335296D01*
X304832Y336332D01*
X303796Y337181D01*
X302615Y337813D01*
X301333Y338202D01*
X300000Y338333D01*
D02*
G37*
G36*
Y278333D02*
X298667Y278202D01*
X297385Y277813D01*
X296204Y277181D01*
X295168Y276332D01*
X294319Y275296D01*
X293687Y274115D01*
X293298Y272833D01*
X293167Y271500D01*
X293298Y270167D01*
X293687Y268885D01*
X294319Y267704D01*
X295168Y266668D01*
X296204Y265819D01*
X297385Y265187D01*
X298667Y264798D01*
X300000Y264667D01*
X301333Y264798D01*
X302615Y265187D01*
X303796Y265819D01*
X304832Y266668D01*
X305681Y267704D01*
X306313Y268885D01*
X306702Y270167D01*
X306833Y271500D01*
X306702Y272833D01*
X306313Y274115D01*
X305681Y275296D01*
X304832Y276332D01*
X303796Y277181D01*
X302615Y277813D01*
X301333Y278202D01*
X300000Y278333D01*
D02*
G37*
G36*
X61500Y273829D02*
X56500D01*
X55638Y273715D01*
X54836Y273382D01*
X54146Y272854D01*
X53617Y272164D01*
X53285Y271361D01*
X53171Y270500D01*
X53285Y269638D01*
X53617Y268836D01*
X54146Y268146D01*
X54836Y267618D01*
X55638Y267285D01*
X56500Y267172D01*
X61500D01*
X62362Y267285D01*
X63164Y267618D01*
X63854Y268146D01*
X64383Y268836D01*
X64715Y269638D01*
X64828Y270500D01*
X64715Y271361D01*
X64383Y272164D01*
X63854Y272854D01*
X63164Y273382D01*
X62362Y273715D01*
X61500Y273829D01*
D02*
G37*
G36*
X211500D02*
X206500D01*
X205639Y273715D01*
X204836Y273382D01*
X204146Y272854D01*
X203618Y272164D01*
X203285Y271361D01*
X203171Y270500D01*
X203285Y269638D01*
X203618Y268836D01*
X204146Y268146D01*
X204836Y267618D01*
X205639Y267285D01*
X206500Y267172D01*
X211500D01*
X212362Y267285D01*
X213164Y267618D01*
X213854Y268146D01*
X214383Y268836D01*
X214715Y269638D01*
X214828Y270500D01*
X214715Y271361D01*
X214383Y272164D01*
X213854Y272854D01*
X213164Y273382D01*
X212362Y273715D01*
X211500Y273829D01*
D02*
G37*
G36*
X382000Y253903D02*
Y251000D01*
X384903D01*
X384897Y251044D01*
X384494Y252017D01*
X383853Y252853D01*
X383017Y253494D01*
X382044Y253897D01*
X382000Y253903D01*
D02*
G37*
G36*
X61500Y263828D02*
X56500D01*
X55638Y263715D01*
X54836Y263383D01*
X54146Y262854D01*
X53617Y262164D01*
X53285Y261362D01*
X53171Y260500D01*
X53285Y259639D01*
X53617Y258836D01*
X54146Y258146D01*
X54836Y257617D01*
X55638Y257285D01*
X56500Y257172D01*
X61500D01*
X62362Y257285D01*
X63164Y257617D01*
X63854Y258146D01*
X64383Y258836D01*
X64715Y259639D01*
X64828Y260500D01*
X64715Y261362D01*
X64383Y262164D01*
X63854Y262854D01*
X63164Y263383D01*
X62362Y263715D01*
X61500Y263828D01*
D02*
G37*
G36*
X211500D02*
X206500D01*
X205639Y263715D01*
X204836Y263383D01*
X204146Y262854D01*
X203618Y262164D01*
X203285Y261362D01*
X203171Y260500D01*
X203285Y259639D01*
X203618Y258836D01*
X204146Y258146D01*
X204836Y257617D01*
X205639Y257285D01*
X206500Y257172D01*
X211500D01*
X212362Y257285D01*
X213164Y257617D01*
X213854Y258146D01*
X214383Y258836D01*
X214715Y259639D01*
X214828Y260500D01*
X214715Y261362D01*
X214383Y262164D01*
X213854Y262854D01*
X213164Y263383D01*
X212362Y263715D01*
X211500Y263828D01*
D02*
G37*
G36*
X540000Y284891D02*
X534000D01*
X532373Y284731D01*
X530808Y284257D01*
X529366Y283486D01*
X528103Y282449D01*
X527065Y281185D01*
X526295Y279743D01*
X525820Y278178D01*
X525815Y278132D01*
X513751D01*
X513494Y278080D01*
X495816D01*
Y281000D01*
X495754Y281312D01*
X495577Y281577D01*
X495312Y281754D01*
X495000Y281816D01*
X486000D01*
X485688Y281754D01*
X485423Y281577D01*
X485246Y281312D01*
X485184Y281000D01*
Y272000D01*
X485246Y271688D01*
X485423Y271423D01*
X485688Y271246D01*
X486000Y271184D01*
X495000D01*
X495312Y271246D01*
X495577Y271423D01*
X495754Y271688D01*
X495816Y272000D01*
Y274920D01*
X513700D01*
X513957Y274971D01*
X525815D01*
X525820Y274924D01*
X526295Y273359D01*
X527065Y271918D01*
X528103Y270654D01*
X529366Y269617D01*
X530808Y268846D01*
X532373Y268371D01*
X534000Y268211D01*
X540000D01*
X541627Y268371D01*
X543192Y268846D01*
X544634Y269617D01*
X545897Y270654D01*
X546935Y271918D01*
X547705Y273359D01*
X548180Y274924D01*
X548340Y276551D01*
X548180Y278178D01*
X547705Y279743D01*
X546935Y281185D01*
X545897Y282449D01*
X544634Y283486D01*
X543192Y284257D01*
X541627Y284731D01*
X540000Y284891D01*
D02*
G37*
G36*
X61500Y293829D02*
X56500D01*
X55638Y293715D01*
X54836Y293383D01*
X54146Y292854D01*
X53617Y292164D01*
X53285Y291361D01*
X53171Y290500D01*
X53285Y289638D01*
X53617Y288836D01*
X54146Y288146D01*
X54836Y287617D01*
X55638Y287285D01*
X56500Y287172D01*
X61500D01*
X62362Y287285D01*
X63164Y287617D01*
X63854Y288146D01*
X64383Y288836D01*
X64715Y289638D01*
X64828Y290500D01*
X64715Y291361D01*
X64383Y292164D01*
X63854Y292854D01*
X63164Y293383D01*
X62362Y293715D01*
X61500Y293829D01*
D02*
G37*
G36*
X211500D02*
X206500D01*
X205639Y293715D01*
X204836Y293383D01*
X204146Y292854D01*
X203618Y292164D01*
X203285Y291361D01*
X203171Y290500D01*
X203285Y289638D01*
X203618Y288836D01*
X204146Y288146D01*
X204836Y287617D01*
X205639Y287285D01*
X206500Y287172D01*
X211500D01*
X212362Y287285D01*
X213164Y287617D01*
X213854Y288146D01*
X214383Y288836D01*
X214715Y289638D01*
X214828Y290500D01*
X214715Y291361D01*
X214383Y292164D01*
X213854Y292854D01*
X213164Y293383D01*
X212362Y293715D01*
X211500Y293829D01*
D02*
G37*
G36*
X470500Y281846D02*
X469116Y281664D01*
X467827Y281130D01*
X466720Y280280D01*
X465871Y279173D01*
X465336Y277884D01*
X465154Y276500D01*
X465336Y275116D01*
X465789Y274024D01*
X464845Y273080D01*
X434816D01*
Y277500D01*
X434754Y277812D01*
X434577Y278077D01*
X434312Y278254D01*
X434000Y278316D01*
X422000D01*
X421688Y278254D01*
X421423Y278077D01*
X421246Y277812D01*
X421184Y277500D01*
Y265500D01*
X421246Y265188D01*
X421423Y264923D01*
X421688Y264746D01*
X422000Y264684D01*
X434000D01*
X434312Y264746D01*
X434577Y264923D01*
X434754Y265188D01*
X434816Y265500D01*
Y269920D01*
X465500D01*
X466105Y270040D01*
X466617Y270382D01*
X468024Y271789D01*
X469116Y271336D01*
X470500Y271154D01*
X471884Y271336D01*
X473173Y271870D01*
X474280Y272720D01*
X475130Y273827D01*
X475664Y275116D01*
X475846Y276500D01*
X475664Y277884D01*
X475130Y279173D01*
X474280Y280280D01*
X473173Y281130D01*
X471884Y281664D01*
X470500Y281846D01*
D02*
G37*
G36*
X61500Y283828D02*
X56500D01*
X55638Y283715D01*
X54836Y283383D01*
X54146Y282854D01*
X53617Y282164D01*
X53285Y281362D01*
X53171Y280500D01*
X53285Y279639D01*
X53617Y278836D01*
X54146Y278146D01*
X54836Y277618D01*
X55638Y277285D01*
X56500Y277171D01*
X61500D01*
X62362Y277285D01*
X63164Y277618D01*
X63854Y278146D01*
X64383Y278836D01*
X64715Y279639D01*
X64828Y280500D01*
X64715Y281362D01*
X64383Y282164D01*
X63854Y282854D01*
X63164Y283383D01*
X62362Y283715D01*
X61500Y283828D01*
D02*
G37*
G36*
X211500D02*
X206500D01*
X205639Y283715D01*
X204836Y283383D01*
X204146Y282854D01*
X203618Y282164D01*
X203285Y281362D01*
X203171Y280500D01*
X203285Y279639D01*
X203618Y278836D01*
X204146Y278146D01*
X204836Y277618D01*
X205639Y277285D01*
X206500Y277171D01*
X211500D01*
X212362Y277285D01*
X213164Y277618D01*
X213854Y278146D01*
X214383Y278836D01*
X214715Y279639D01*
X214828Y280500D01*
X214715Y281362D01*
X214383Y282164D01*
X213854Y282854D01*
X213164Y283383D01*
X212362Y283715D01*
X211500Y283828D01*
D02*
G37*
G36*
X480000Y374833D02*
X479008Y374702D01*
X478084Y374319D01*
X477290Y373710D01*
X476681Y372916D01*
X476298Y371992D01*
X476167Y371000D01*
X476298Y370008D01*
X476681Y369084D01*
X477290Y368290D01*
X478084Y367681D01*
X479008Y367298D01*
X480000Y367167D01*
X480992Y367298D01*
X481916Y367681D01*
X482710Y368290D01*
X483319Y369084D01*
X483702Y370008D01*
X483833Y371000D01*
X483702Y371992D01*
X483319Y372916D01*
X482710Y373710D01*
X481916Y374319D01*
X480992Y374702D01*
X480000Y374833D01*
D02*
G37*
G36*
X500000D02*
X499008Y374702D01*
X498084Y374319D01*
X497290Y373710D01*
X496681Y372916D01*
X496542Y372580D01*
X494000D01*
X493395Y372460D01*
X492882Y372117D01*
X488882Y368117D01*
X488540Y367605D01*
X488420Y367000D01*
Y354655D01*
X485845Y352080D01*
X456655D01*
X451118Y357617D01*
X450605Y357960D01*
X450000Y358080D01*
X434627D01*
X434313Y359115D01*
X433681Y360296D01*
X432832Y361332D01*
X431796Y362181D01*
X430615Y362813D01*
X429333Y363202D01*
X428000Y363333D01*
X426667Y363202D01*
X425385Y362813D01*
X424204Y362181D01*
X423168Y361332D01*
X422319Y360296D01*
X421687Y359115D01*
X421298Y357833D01*
X421167Y356500D01*
X421298Y355167D01*
X421687Y353885D01*
X422319Y352704D01*
X423168Y351668D01*
X424204Y350819D01*
X425385Y350187D01*
X426667Y349798D01*
X428000Y349667D01*
X429333Y349798D01*
X430615Y350187D01*
X431796Y350819D01*
X432832Y351668D01*
X433681Y352704D01*
X434313Y353885D01*
X434627Y354920D01*
X449345D01*
X454882Y349382D01*
X455395Y349040D01*
X456000Y348920D01*
X486500D01*
X487105Y349040D01*
X487617Y349382D01*
X491117Y352883D01*
X491460Y353395D01*
X491580Y354000D01*
Y366345D01*
X494655Y369420D01*
X496542D01*
X496681Y369084D01*
X497290Y368290D01*
X498084Y367681D01*
X499008Y367298D01*
X500000Y367167D01*
X500992Y367298D01*
X501916Y367681D01*
X502710Y368290D01*
X503319Y369084D01*
X503702Y370008D01*
X503833Y371000D01*
X503702Y371992D01*
X503319Y372916D01*
X502710Y373710D01*
X501916Y374319D01*
X500992Y374702D01*
X500000Y374833D01*
D02*
G37*
G36*
X25000Y395979D02*
X23253Y395865D01*
X20553Y395328D01*
X17946Y394443D01*
X15477Y393226D01*
X13189Y391696D01*
X11119Y389881D01*
X9304Y387811D01*
X7774Y385523D01*
X6557Y383054D01*
X5672Y380447D01*
X5135Y377747D01*
X5020Y376000D01*
X25000D01*
Y395979D01*
D02*
G37*
G36*
X61500Y363828D02*
X56500D01*
X55638Y363715D01*
X54836Y363383D01*
X54146Y362854D01*
X53617Y362164D01*
X53285Y361362D01*
X53171Y360500D01*
X53285Y359639D01*
X53617Y358836D01*
X54146Y358146D01*
X54836Y357617D01*
X55638Y357285D01*
X56500Y357172D01*
X61500D01*
X62362Y357285D01*
X63164Y357617D01*
X63854Y358146D01*
X64383Y358836D01*
X64715Y359639D01*
X64828Y360500D01*
X64715Y361362D01*
X64383Y362164D01*
X63854Y362854D01*
X63164Y363383D01*
X62362Y363715D01*
X61500Y363828D01*
D02*
G37*
G36*
X208000Y364030D02*
X206500D01*
X205586Y363910D01*
X204735Y363557D01*
X204004Y362996D01*
X203443Y362265D01*
X203126Y361500D01*
X208000D01*
Y364030D01*
D02*
G37*
G36*
X211500D02*
X210000D01*
Y361500D01*
X214874D01*
X214557Y362265D01*
X213996Y362996D01*
X213265Y363557D01*
X212414Y363910D01*
X211500Y364030D01*
D02*
G37*
G36*
X480000Y384833D02*
X479008Y384702D01*
X478084Y384319D01*
X477290Y383710D01*
X476681Y382916D01*
X476298Y381992D01*
X476167Y381000D01*
X476298Y380008D01*
X476681Y379084D01*
X477290Y378290D01*
X478084Y377681D01*
X479008Y377298D01*
X480000Y377167D01*
X480992Y377298D01*
X481916Y377681D01*
X482710Y378290D01*
X483319Y379084D01*
X483702Y380008D01*
X483833Y381000D01*
X483702Y381992D01*
X483319Y382916D01*
X482710Y383710D01*
X481916Y384319D01*
X480992Y384702D01*
X480000Y384833D01*
D02*
G37*
G36*
X500000D02*
X499008Y384702D01*
X498084Y384319D01*
X497290Y383710D01*
X496681Y382916D01*
X496298Y381992D01*
X496167Y381000D01*
X496298Y380008D01*
X496681Y379084D01*
X497290Y378290D01*
X498084Y377681D01*
X499008Y377298D01*
X500000Y377167D01*
X500992Y377298D01*
X501916Y377681D01*
X502710Y378290D01*
X503319Y379084D01*
X503702Y380008D01*
X503833Y381000D01*
X503702Y381992D01*
X503319Y382916D01*
X502710Y383710D01*
X501916Y384319D01*
X500992Y384702D01*
X500000Y384833D01*
D02*
G37*
G36*
X119000Y384329D02*
X118139Y384215D01*
X117336Y383882D01*
X116646Y383354D01*
X116118Y382664D01*
X115785Y381861D01*
X115672Y381000D01*
X115785Y380138D01*
X115966Y379701D01*
X68345Y332080D01*
X64417D01*
X64383Y332164D01*
X63854Y332854D01*
X63164Y333383D01*
X62362Y333715D01*
X61500Y333828D01*
X56500D01*
X55638Y333715D01*
X54836Y333383D01*
X54146Y332854D01*
X53617Y332164D01*
X53285Y331362D01*
X53171Y330500D01*
X53285Y329639D01*
X53617Y328836D01*
X54146Y328146D01*
X54836Y327618D01*
X55638Y327285D01*
X56500Y327171D01*
X61500D01*
X62362Y327285D01*
X63164Y327618D01*
X63854Y328146D01*
X64383Y328836D01*
X64417Y328920D01*
X69000D01*
X69605Y329040D01*
X70117Y329382D01*
X118475Y377741D01*
X119000Y377672D01*
X119861Y377785D01*
X120664Y378117D01*
X121354Y378646D01*
X121882Y379336D01*
X122215Y380138D01*
X122328Y381000D01*
X122215Y381861D01*
X121882Y382664D01*
X121354Y383354D01*
X120664Y383882D01*
X119861Y384215D01*
X119000Y384329D01*
D02*
G37*
G36*
X27000Y395979D02*
Y376000D01*
X46979D01*
X46865Y377747D01*
X46328Y380447D01*
X45443Y383054D01*
X44226Y385523D01*
X42696Y387811D01*
X40881Y389881D01*
X38811Y391696D01*
X36522Y393226D01*
X34054Y394443D01*
X31447Y395328D01*
X28747Y395865D01*
X27000Y395979D01*
D02*
G37*
G36*
X575000D02*
X573253Y395865D01*
X570553Y395328D01*
X567946Y394443D01*
X565478Y393226D01*
X563189Y391696D01*
X561119Y389881D01*
X559304Y387811D01*
X557774Y385523D01*
X556557Y383054D01*
X555672Y380447D01*
X555135Y377747D01*
X555021Y376000D01*
X575000D01*
Y395979D01*
D02*
G37*
G36*
X577000D02*
Y376000D01*
X596980D01*
X596865Y377747D01*
X596328Y380447D01*
X595443Y383054D01*
X594226Y385523D01*
X592696Y387811D01*
X590881Y389881D01*
X588811Y391696D01*
X586522Y393226D01*
X584054Y394443D01*
X581447Y395328D01*
X578747Y395865D01*
X577000Y395979D01*
D02*
G37*
G36*
X300000Y363333D02*
X298667Y363202D01*
X297385Y362813D01*
X296204Y362181D01*
X295168Y361332D01*
X294319Y360296D01*
X293687Y359115D01*
X293298Y357833D01*
X293167Y356500D01*
X293298Y355167D01*
X293687Y353885D01*
X294319Y352704D01*
X295168Y351668D01*
X296204Y350819D01*
X297385Y350187D01*
X298667Y349798D01*
X300000Y349667D01*
X301333Y349798D01*
X302615Y350187D01*
X303796Y350819D01*
X304832Y351668D01*
X305681Y352704D01*
X306313Y353885D01*
X306702Y355167D01*
X306833Y356500D01*
X306702Y357833D01*
X306313Y359115D01*
X305681Y360296D01*
X304832Y361332D01*
X303796Y362181D01*
X302615Y362813D01*
X301333Y363202D01*
X300000Y363333D01*
D02*
G37*
G36*
X25000Y374000D02*
X5020D01*
X5135Y372253D01*
X5672Y369553D01*
X6557Y366946D01*
X7774Y364477D01*
X9304Y362189D01*
X11119Y360119D01*
X13189Y358304D01*
X15477Y356774D01*
X17946Y355557D01*
X20553Y354672D01*
X23253Y354135D01*
X25000Y354021D01*
Y374000D01*
D02*
G37*
G36*
X46979D02*
X27000D01*
Y354021D01*
X28747Y354135D01*
X31447Y354672D01*
X34054Y355557D01*
X36522Y356774D01*
X38811Y358304D01*
X40881Y360119D01*
X42696Y362189D01*
X44226Y364477D01*
X45443Y366946D01*
X46328Y369553D01*
X46865Y372253D01*
X46979Y374000D01*
D02*
G37*
G36*
X480000Y344833D02*
X479008Y344702D01*
X478084Y344319D01*
X477290Y343710D01*
X476681Y342916D01*
X476542Y342580D01*
X333077D01*
X332774Y342974D01*
X332196Y343418D01*
X331523Y343697D01*
X330800Y343792D01*
X330077Y343697D01*
X329404Y343418D01*
X328825Y342974D01*
X328382Y342396D01*
X328103Y341723D01*
X328008Y341000D01*
X328103Y340277D01*
X328382Y339604D01*
X328825Y339025D01*
X329404Y338582D01*
X330077Y338303D01*
X330800Y338208D01*
X331523Y338303D01*
X332196Y338582D01*
X332774Y339025D01*
X333077Y339420D01*
X476542D01*
X476681Y339084D01*
X477290Y338290D01*
X478084Y337681D01*
X479008Y337298D01*
X480000Y337167D01*
X480992Y337298D01*
X481916Y337681D01*
X482710Y338290D01*
X483319Y339084D01*
X483702Y340008D01*
X483833Y341000D01*
X483702Y341992D01*
X483319Y342916D01*
X482710Y343710D01*
X481916Y344319D01*
X480992Y344702D01*
X480000Y344833D01*
D02*
G37*
G36*
X61500Y353829D02*
X56500D01*
X55638Y353715D01*
X54836Y353382D01*
X54146Y352854D01*
X53617Y352164D01*
X53285Y351361D01*
X53171Y350500D01*
X53285Y349639D01*
X53617Y348836D01*
X54146Y348146D01*
X54836Y347618D01*
X55638Y347285D01*
X56500Y347171D01*
X61500D01*
X62362Y347285D01*
X63164Y347618D01*
X63854Y348146D01*
X64383Y348836D01*
X64715Y349639D01*
X64828Y350500D01*
X64715Y351361D01*
X64383Y352164D01*
X63854Y352854D01*
X63164Y353382D01*
X62362Y353715D01*
X61500Y353829D01*
D02*
G37*
G36*
X211500D02*
X206500D01*
X205639Y353715D01*
X204836Y353382D01*
X204146Y352854D01*
X203618Y352164D01*
X203285Y351361D01*
X203171Y350500D01*
X203285Y349639D01*
X203618Y348836D01*
X204146Y348146D01*
X204836Y347618D01*
X205639Y347285D01*
X206500Y347171D01*
X211500D01*
X212362Y347285D01*
X213164Y347618D01*
X213854Y348146D01*
X214383Y348836D01*
X214715Y349639D01*
X214828Y350500D01*
X214715Y351361D01*
X214383Y352164D01*
X213854Y352854D01*
X213164Y353382D01*
X212362Y353715D01*
X211500Y353829D01*
D02*
G37*
G36*
X214874Y359500D02*
X210000D01*
Y356970D01*
X211500D01*
X212414Y357090D01*
X213265Y357443D01*
X213996Y358004D01*
X214557Y358735D01*
X214874Y359500D01*
D02*
G37*
G36*
X480000Y364833D02*
X479008Y364702D01*
X478084Y364319D01*
X477290Y363710D01*
X476681Y362916D01*
X476298Y361992D01*
X476167Y361000D01*
X476298Y360008D01*
X476681Y359084D01*
X477290Y358290D01*
X478084Y357681D01*
X479008Y357298D01*
X480000Y357167D01*
X480992Y357298D01*
X481916Y357681D01*
X482710Y358290D01*
X483319Y359084D01*
X483702Y360008D01*
X483833Y361000D01*
X483702Y361992D01*
X483319Y362916D01*
X482710Y363710D01*
X481916Y364319D01*
X480992Y364702D01*
X480000Y364833D01*
D02*
G37*
G36*
X500000D02*
X499008Y364702D01*
X498084Y364319D01*
X497290Y363710D01*
X496681Y362916D01*
X496298Y361992D01*
X496167Y361000D01*
X496298Y360008D01*
X496681Y359084D01*
X497290Y358290D01*
X498084Y357681D01*
X499008Y357298D01*
X500000Y357167D01*
X500992Y357298D01*
X501916Y357681D01*
X502710Y358290D01*
X503319Y359084D01*
X503702Y360008D01*
X503833Y361000D01*
X503702Y361992D01*
X503319Y362916D01*
X502710Y363710D01*
X501916Y364319D01*
X500992Y364702D01*
X500000Y364833D01*
D02*
G37*
G36*
X575000Y374000D02*
X555021D01*
X555135Y372253D01*
X555672Y369553D01*
X556557Y366946D01*
X557774Y364477D01*
X559304Y362189D01*
X561119Y360119D01*
X563189Y358304D01*
X565478Y356774D01*
X567946Y355557D01*
X570553Y354672D01*
X573253Y354135D01*
X575000Y354021D01*
Y374000D01*
D02*
G37*
G36*
X596980D02*
X577000D01*
Y354021D01*
X578747Y354135D01*
X581447Y354672D01*
X584054Y355557D01*
X586522Y356774D01*
X588811Y358304D01*
X590881Y360119D01*
X592696Y362189D01*
X594226Y364477D01*
X595443Y366946D01*
X596328Y369553D01*
X596865Y372253D01*
X596980Y374000D01*
D02*
G37*
G36*
X208000Y359500D02*
X203126D01*
X203443Y358735D01*
X204004Y358004D01*
X204735Y357443D01*
X205586Y357090D01*
X206500Y356970D01*
X208000D01*
Y359500D01*
D02*
G37*
G36*
X380000Y253903D02*
X379956Y253897D01*
X378983Y253494D01*
X378147Y252853D01*
X377506Y252017D01*
X377103Y251044D01*
X377097Y251000D01*
X380000D01*
Y253903D01*
D02*
G37*
G36*
X505000Y226587D02*
X504072Y226464D01*
X503207Y226106D01*
X502464Y225536D01*
X501894Y224793D01*
X501536Y223928D01*
X501413Y223000D01*
X501536Y222072D01*
X501894Y221207D01*
X502464Y220464D01*
X503207Y219894D01*
X504072Y219536D01*
X505000Y219413D01*
X505928Y219536D01*
X506141Y219624D01*
X525331Y200434D01*
X525801Y200120D01*
X525820Y199924D01*
X526295Y198360D01*
X527065Y196918D01*
X528103Y195654D01*
X529366Y194617D01*
X530808Y193846D01*
X532373Y193371D01*
X534000Y193211D01*
X540000D01*
X541627Y193371D01*
X543192Y193846D01*
X544634Y194617D01*
X545897Y195654D01*
X546935Y196918D01*
X547705Y198360D01*
X548180Y199924D01*
X548340Y201551D01*
X548180Y203178D01*
X547705Y204743D01*
X546935Y206185D01*
X545897Y207449D01*
X544634Y208486D01*
X543192Y209257D01*
X541627Y209731D01*
X540000Y209891D01*
X534000D01*
X532373Y209731D01*
X530808Y209257D01*
X529366Y208486D01*
X528103Y207449D01*
X527065Y206185D01*
X526508Y205141D01*
X525378Y204857D01*
X508376Y221859D01*
X508464Y222072D01*
X508587Y223000D01*
X508464Y223928D01*
X508106Y224793D01*
X507536Y225536D01*
X506793Y226106D01*
X505928Y226464D01*
X505000Y226587D01*
D02*
G37*
G36*
X289000Y197500D02*
X284980D01*
Y194500D01*
X285058Y194110D01*
X285279Y193779D01*
X285610Y193558D01*
X286000Y193480D01*
X289000D01*
Y197500D01*
D02*
G37*
G36*
X295020D02*
X291000D01*
Y193480D01*
X294000D01*
X294390Y193558D01*
X294721Y193779D01*
X294942Y194110D01*
X295020Y194500D01*
Y197500D01*
D02*
G37*
G36*
X265000Y221792D02*
X264277Y221697D01*
X263604Y221418D01*
X263025Y220974D01*
X262582Y220396D01*
X262303Y219723D01*
X262208Y219000D01*
X262303Y218277D01*
X262582Y217604D01*
X263025Y217025D01*
X263420Y216723D01*
Y196355D01*
X262182Y195117D01*
X261840Y194605D01*
X261720Y194000D01*
X261840Y193395D01*
X262182Y192883D01*
X276183Y178883D01*
X276695Y178540D01*
X277300Y178420D01*
X280723D01*
X281026Y178025D01*
X281604Y177582D01*
X282277Y177303D01*
X283000Y177208D01*
X283723Y177303D01*
X284396Y177582D01*
X284975Y178025D01*
X285418Y178604D01*
X285697Y179277D01*
X285792Y180000D01*
X285697Y180723D01*
X285418Y181396D01*
X284975Y181974D01*
X284396Y182418D01*
X283723Y182697D01*
X283000Y182792D01*
X282277Y182697D01*
X281604Y182418D01*
X281026Y181974D01*
X280723Y181580D01*
X277955D01*
X265535Y194000D01*
X266118Y194582D01*
X266460Y195095D01*
X266580Y195700D01*
Y216723D01*
X266974Y217025D01*
X267418Y217604D01*
X267697Y218277D01*
X267792Y219000D01*
X267697Y219723D01*
X267418Y220396D01*
X266974Y220974D01*
X266396Y221418D01*
X265723Y221697D01*
X265000Y221792D01*
D02*
G37*
G36*
X61500Y193828D02*
X56500D01*
X55638Y193715D01*
X54836Y193383D01*
X54146Y192854D01*
X53617Y192164D01*
X53285Y191361D01*
X53171Y190500D01*
X53285Y189638D01*
X53617Y188836D01*
X54146Y188146D01*
X54836Y187618D01*
X55638Y187285D01*
X56500Y187171D01*
X61500D01*
X62362Y187285D01*
X63164Y187618D01*
X63854Y188146D01*
X64383Y188836D01*
X64715Y189638D01*
X64828Y190500D01*
X64715Y191361D01*
X64383Y192164D01*
X63854Y192854D01*
X63164Y193383D01*
X62362Y193715D01*
X61500Y193828D01*
D02*
G37*
G36*
X211500D02*
X206500D01*
X205639Y193715D01*
X204836Y193383D01*
X204146Y192854D01*
X203618Y192164D01*
X203285Y191361D01*
X203171Y190500D01*
X203285Y189638D01*
X203618Y188836D01*
X204146Y188146D01*
X204836Y187618D01*
X205639Y187285D01*
X206500Y187171D01*
X211500D01*
X212362Y187285D01*
X213164Y187618D01*
X213854Y188146D01*
X214383Y188836D01*
X214715Y189638D01*
X214828Y190500D01*
X214715Y191361D01*
X214383Y192164D01*
X213854Y192854D01*
X213164Y193383D01*
X212362Y193715D01*
X211500Y193828D01*
D02*
G37*
G36*
X464500Y198000D02*
X460589D01*
X460629Y197695D01*
X461132Y196478D01*
X461934Y195434D01*
X462978Y194632D01*
X464195Y194129D01*
X464500Y194088D01*
Y198000D01*
D02*
G37*
G36*
X470411D02*
X466500D01*
Y194088D01*
X466805Y194129D01*
X468022Y194632D01*
X469066Y195434D01*
X469868Y196478D01*
X470371Y197695D01*
X470411Y198000D01*
D02*
G37*
G36*
X450500Y203841D02*
X449247Y203676D01*
X448079Y203193D01*
X447077Y202423D01*
X446307Y201421D01*
X445823Y200253D01*
X445659Y199000D01*
X445823Y197747D01*
X446307Y196579D01*
X447077Y195577D01*
X448079Y194807D01*
X449247Y194324D01*
X450500Y194159D01*
X451753Y194324D01*
X452921Y194807D01*
X453923Y195577D01*
X454693Y196579D01*
X455176Y197747D01*
X455341Y199000D01*
X455176Y200253D01*
X454693Y201421D01*
X453923Y202423D01*
X452921Y203193D01*
X451753Y203676D01*
X450500Y203841D01*
D02*
G37*
G36*
X305000Y203341D02*
X303747Y203176D01*
X302579Y202693D01*
X301577Y201923D01*
X300807Y200921D01*
X300324Y199753D01*
X300159Y198500D01*
X300324Y197247D01*
X300807Y196079D01*
X301577Y195077D01*
X302579Y194307D01*
X303747Y193824D01*
X305000Y193659D01*
X306253Y193824D01*
X307421Y194307D01*
X308423Y195077D01*
X309193Y196079D01*
X309677Y197247D01*
X309841Y198500D01*
X309677Y199753D01*
X309193Y200921D01*
X308423Y201923D01*
X307421Y202693D01*
X306253Y203176D01*
X305000Y203341D01*
D02*
G37*
G36*
X320000D02*
X318747Y203176D01*
X317579Y202693D01*
X316577Y201923D01*
X315807Y200921D01*
X315323Y199753D01*
X315159Y198500D01*
X315323Y197247D01*
X315807Y196079D01*
X316577Y195077D01*
X317579Y194307D01*
X318747Y193824D01*
X320000Y193659D01*
X321253Y193824D01*
X322421Y194307D01*
X323423Y195077D01*
X324193Y196079D01*
X324676Y197247D01*
X324841Y198500D01*
X324676Y199753D01*
X324193Y200921D01*
X323423Y201923D01*
X322421Y202693D01*
X321253Y203176D01*
X320000Y203341D01*
D02*
G37*
G36*
X335000D02*
X333747Y203176D01*
X332579Y202693D01*
X331577Y201923D01*
X330807Y200921D01*
X330324Y199753D01*
X330159Y198500D01*
X330324Y197247D01*
X330807Y196079D01*
X331577Y195077D01*
X332579Y194307D01*
X333747Y193824D01*
X335000Y193659D01*
X336253Y193824D01*
X337421Y194307D01*
X338423Y195077D01*
X339193Y196079D01*
X339676Y197247D01*
X339841Y198500D01*
X339676Y199753D01*
X339193Y200921D01*
X338423Y201923D01*
X337421Y202693D01*
X336253Y203176D01*
X335000Y203341D01*
D02*
G37*
G36*
X211500Y183828D02*
X206500D01*
X205639Y183715D01*
X204836Y183382D01*
X204146Y182854D01*
X203618Y182164D01*
X203285Y181361D01*
X203171Y180500D01*
X203285Y179639D01*
X203618Y178836D01*
X204146Y178146D01*
X204836Y177618D01*
X205639Y177285D01*
X206500Y177172D01*
X211500D01*
X212362Y177285D01*
X213164Y177618D01*
X213854Y178146D01*
X214383Y178836D01*
X214715Y179639D01*
X214828Y180500D01*
X214715Y181361D01*
X214383Y182164D01*
X213854Y182854D01*
X213164Y183382D01*
X212362Y183715D01*
X211500Y183828D01*
D02*
G37*
G36*
X380500Y160403D02*
X380456Y160397D01*
X379483Y159994D01*
X378647Y159353D01*
X378006Y158517D01*
X377603Y157544D01*
X377597Y157500D01*
X380500D01*
Y160403D01*
D02*
G37*
G36*
X382500D02*
Y157500D01*
X385403D01*
X385397Y157544D01*
X384994Y158517D01*
X384353Y159353D01*
X383517Y159994D01*
X382544Y160397D01*
X382500Y160403D01*
D02*
G37*
G36*
X25500Y160855D02*
X25468Y160851D01*
X24507Y160453D01*
X23681Y159819D01*
X23047Y158993D01*
X22649Y158032D01*
X22645Y158000D01*
X25500D01*
Y160855D01*
D02*
G37*
G36*
X453500Y159412D02*
Y155500D01*
X457411D01*
X457371Y155805D01*
X456868Y157022D01*
X456066Y158066D01*
X455022Y158868D01*
X453805Y159371D01*
X453500Y159412D01*
D02*
G37*
G36*
X61500Y163829D02*
X56500D01*
X55638Y163715D01*
X54836Y163382D01*
X54146Y162854D01*
X53617Y162164D01*
X53285Y161362D01*
X53171Y160500D01*
X53285Y159639D01*
X53617Y158836D01*
X54146Y158146D01*
X54836Y157617D01*
X55638Y157285D01*
X56500Y157171D01*
X61500D01*
X62362Y157285D01*
X63164Y157617D01*
X63854Y158146D01*
X64383Y158836D01*
X64715Y159639D01*
X64828Y160500D01*
X64715Y161362D01*
X64383Y162164D01*
X63854Y162854D01*
X63164Y163382D01*
X62362Y163715D01*
X61500Y163829D01*
D02*
G37*
G36*
X211500D02*
X206500D01*
X205639Y163715D01*
X204836Y163382D01*
X204146Y162854D01*
X203618Y162164D01*
X203285Y161362D01*
X203171Y160500D01*
X203285Y159639D01*
X203618Y158836D01*
X204146Y158146D01*
X204836Y157617D01*
X205639Y157285D01*
X206500Y157171D01*
X211500D01*
X212362Y157285D01*
X213164Y157617D01*
X213854Y158146D01*
X214383Y158836D01*
X214715Y159639D01*
X214828Y160500D01*
X214715Y161362D01*
X214383Y162164D01*
X213854Y162854D01*
X213164Y163382D01*
X212362Y163715D01*
X211500Y163829D01*
D02*
G37*
G36*
Y173828D02*
X206500D01*
X205639Y173715D01*
X204836Y173382D01*
X204146Y172854D01*
X203618Y172164D01*
X203285Y171361D01*
X203171Y170500D01*
X203285Y169639D01*
X203618Y168836D01*
X204146Y168146D01*
X204836Y167617D01*
X205639Y167285D01*
X206500Y167172D01*
X211500D01*
X212362Y167285D01*
X213164Y167617D01*
X213854Y168146D01*
X214383Y168836D01*
X214715Y169639D01*
X214828Y170500D01*
X214715Y171361D01*
X214383Y172164D01*
X213854Y172854D01*
X213164Y173382D01*
X212362Y173715D01*
X211500Y173828D01*
D02*
G37*
G36*
X540000Y184891D02*
X534000D01*
X532373Y184731D01*
X530808Y184256D01*
X529366Y183486D01*
X528103Y182449D01*
X527065Y181185D01*
X526295Y179743D01*
X525820Y178178D01*
X525660Y176551D01*
X525820Y174924D01*
X526295Y173360D01*
X527065Y171918D01*
X528103Y170654D01*
X529366Y169617D01*
X530808Y168846D01*
X532373Y168371D01*
X534000Y168211D01*
X540000D01*
X541627Y168371D01*
X543192Y168846D01*
X544634Y169617D01*
X545897Y170654D01*
X546935Y171918D01*
X547705Y173360D01*
X548180Y174924D01*
X548340Y176551D01*
X548180Y178178D01*
X547705Y179743D01*
X546935Y181185D01*
X545897Y182449D01*
X544634Y183486D01*
X543192Y184256D01*
X541627Y184731D01*
X540000Y184891D01*
D02*
G37*
G36*
X61500Y183828D02*
X56500D01*
X55638Y183715D01*
X54836Y183382D01*
X54146Y182854D01*
X53617Y182164D01*
X53285Y181361D01*
X53171Y180500D01*
X53285Y179639D01*
X53617Y178836D01*
X54146Y178146D01*
X54836Y177618D01*
X55638Y177285D01*
X56500Y177172D01*
X61500D01*
X62362Y177285D01*
X63164Y177618D01*
X63854Y178146D01*
X64383Y178836D01*
X64715Y179639D01*
X64828Y180500D01*
X64715Y181361D01*
X64383Y182164D01*
X63854Y182854D01*
X63164Y183382D01*
X62362Y183715D01*
X61500Y183828D01*
D02*
G37*
G36*
X27500Y160855D02*
Y158000D01*
X30355D01*
X30351Y158032D01*
X29953Y158993D01*
X29319Y159819D01*
X28493Y160453D01*
X27532Y160851D01*
X27500Y160855D01*
D02*
G37*
G36*
X26500Y170785D02*
X25520Y170656D01*
X24607Y170278D01*
X23823Y169676D01*
X23222Y168893D01*
X22844Y167980D01*
X22715Y167000D01*
X22844Y166020D01*
X23222Y165107D01*
X23823Y164323D01*
X24607Y163722D01*
X25520Y163344D01*
X26500Y163215D01*
X27480Y163344D01*
X28393Y163722D01*
X29177Y164323D01*
X29778Y165107D01*
X30156Y166020D01*
X30285Y167000D01*
X30156Y167980D01*
X29778Y168893D01*
X29177Y169676D01*
X28393Y170278D01*
X27480Y170656D01*
X26500Y170785D01*
D02*
G37*
G36*
X61500Y173828D02*
X56500D01*
X55638Y173715D01*
X54836Y173382D01*
X54146Y172854D01*
X53617Y172164D01*
X53285Y171361D01*
X53171Y170500D01*
X53285Y169639D01*
X53617Y168836D01*
X54146Y168146D01*
X54836Y167617D01*
X55638Y167285D01*
X56500Y167172D01*
X61500D01*
X62362Y167285D01*
X63164Y167617D01*
X63854Y168146D01*
X64383Y168836D01*
X64715Y169639D01*
X64828Y170500D01*
X64715Y171361D01*
X64383Y172164D01*
X63854Y172854D01*
X63164Y173382D01*
X62362Y173715D01*
X61500Y173828D01*
D02*
G37*
G36*
X211500Y223829D02*
X206500D01*
X205639Y223715D01*
X204836Y223382D01*
X204146Y222854D01*
X203618Y222164D01*
X203285Y221361D01*
X203171Y220500D01*
X203285Y219638D01*
X203618Y218836D01*
X204146Y218146D01*
X204836Y217618D01*
X205639Y217285D01*
X206500Y217172D01*
X211500D01*
X212362Y217285D01*
X213164Y217618D01*
X213854Y218146D01*
X214383Y218836D01*
X214715Y219638D01*
X214828Y220500D01*
X214715Y221361D01*
X214383Y222164D01*
X213854Y222854D01*
X213164Y223382D01*
X212362Y223715D01*
X211500Y223829D01*
D02*
G37*
G36*
X504500Y249087D02*
X503572Y248964D01*
X502707Y248606D01*
X501964Y248036D01*
X501394Y247293D01*
X501036Y246428D01*
X500913Y245500D01*
X501036Y244572D01*
X501394Y243707D01*
X501964Y242964D01*
X502707Y242394D01*
X503572Y242036D01*
X504500Y241913D01*
X505428Y242036D01*
X505641Y242124D01*
X522331Y225434D01*
X522844Y225091D01*
X523449Y224971D01*
X525815D01*
X525820Y224924D01*
X526295Y223359D01*
X527065Y221918D01*
X528103Y220654D01*
X529366Y219617D01*
X530808Y218846D01*
X532373Y218371D01*
X534000Y218211D01*
X540000D01*
X541627Y218371D01*
X543192Y218846D01*
X544634Y219617D01*
X545897Y220654D01*
X546935Y221918D01*
X547705Y223359D01*
X548180Y224924D01*
X548340Y226551D01*
X548180Y228178D01*
X547705Y229743D01*
X546935Y231185D01*
X545897Y232449D01*
X544634Y233486D01*
X543192Y234257D01*
X541627Y234731D01*
X540000Y234891D01*
X534000D01*
X532373Y234731D01*
X530808Y234257D01*
X529366Y233486D01*
X528103Y232449D01*
X527065Y231185D01*
X526295Y229743D01*
X525820Y228178D01*
X525815Y228132D01*
X524103D01*
X507876Y244359D01*
X507964Y244572D01*
X508087Y245500D01*
X507964Y246428D01*
X507606Y247293D01*
X507036Y248036D01*
X506293Y248606D01*
X505428Y248964D01*
X504500Y249087D01*
D02*
G37*
G36*
X61500Y233828D02*
X56500D01*
X55638Y233715D01*
X54836Y233383D01*
X54146Y232854D01*
X53617Y232164D01*
X53285Y231362D01*
X53171Y230500D01*
X53285Y229639D01*
X53617Y228836D01*
X54146Y228146D01*
X54836Y227618D01*
X55638Y227285D01*
X56500Y227171D01*
X61500D01*
X62362Y227285D01*
X63164Y227618D01*
X63854Y228146D01*
X64383Y228836D01*
X64715Y229639D01*
X64828Y230500D01*
X64715Y231362D01*
X64383Y232164D01*
X63854Y232854D01*
X63164Y233383D01*
X62362Y233715D01*
X61500Y233828D01*
D02*
G37*
G36*
Y213828D02*
X56500D01*
X55638Y213715D01*
X54836Y213383D01*
X54146Y212854D01*
X53617Y212164D01*
X53285Y211362D01*
X53171Y210500D01*
X53285Y209639D01*
X53617Y208836D01*
X54146Y208146D01*
X54836Y207617D01*
X55638Y207285D01*
X56500Y207172D01*
X61500D01*
X62362Y207285D01*
X63164Y207617D01*
X63854Y208146D01*
X64383Y208836D01*
X64715Y209639D01*
X64828Y210500D01*
X64715Y211362D01*
X64383Y212164D01*
X63854Y212854D01*
X63164Y213383D01*
X62362Y213715D01*
X61500Y213828D01*
D02*
G37*
G36*
X211500D02*
X206500D01*
X205639Y213715D01*
X204836Y213383D01*
X204146Y212854D01*
X203618Y212164D01*
X203285Y211362D01*
X203171Y210500D01*
X203285Y209639D01*
X203618Y208836D01*
X204146Y208146D01*
X204836Y207617D01*
X205639Y207285D01*
X206500Y207172D01*
X211500D01*
X212362Y207285D01*
X213164Y207617D01*
X213854Y208146D01*
X214383Y208836D01*
X214715Y209639D01*
X214828Y210500D01*
X214715Y211362D01*
X214383Y212164D01*
X213854Y212854D01*
X213164Y213383D01*
X212362Y213715D01*
X211500Y213828D01*
D02*
G37*
G36*
X61500Y223829D02*
X56500D01*
X55638Y223715D01*
X54836Y223382D01*
X54146Y222854D01*
X53617Y222164D01*
X53285Y221361D01*
X53171Y220500D01*
X53285Y219638D01*
X53617Y218836D01*
X54146Y218146D01*
X54836Y217618D01*
X55638Y217285D01*
X56500Y217172D01*
X61500D01*
X62362Y217285D01*
X63164Y217618D01*
X63854Y218146D01*
X64383Y218836D01*
X64715Y219638D01*
X64828Y220500D01*
X64715Y221361D01*
X64383Y222164D01*
X63854Y222854D01*
X63164Y223382D01*
X62362Y223715D01*
X61500Y223829D01*
D02*
G37*
G36*
X540000Y259891D02*
X534000D01*
X532373Y259731D01*
X530808Y259257D01*
X529366Y258486D01*
X528103Y257449D01*
X527065Y256185D01*
X526295Y254743D01*
X525820Y253178D01*
X525660Y251551D01*
X525820Y249924D01*
X526295Y248359D01*
X527065Y246918D01*
X528103Y245654D01*
X529366Y244617D01*
X530808Y243846D01*
X532373Y243371D01*
X534000Y243211D01*
X540000D01*
X541627Y243371D01*
X543192Y243846D01*
X544634Y244617D01*
X545897Y245654D01*
X546935Y246918D01*
X547705Y248359D01*
X548180Y249924D01*
X548340Y251551D01*
X548180Y253178D01*
X547705Y254743D01*
X546935Y256185D01*
X545897Y257449D01*
X544634Y258486D01*
X543192Y259257D01*
X541627Y259731D01*
X540000Y259891D01*
D02*
G37*
G36*
X61500Y253829D02*
X56500D01*
X55638Y253715D01*
X54836Y253382D01*
X54146Y252854D01*
X53617Y252164D01*
X53285Y251361D01*
X53171Y250500D01*
X53285Y249639D01*
X53617Y248836D01*
X54146Y248146D01*
X54836Y247618D01*
X55638Y247285D01*
X56500Y247171D01*
X61500D01*
X62362Y247285D01*
X63164Y247618D01*
X63854Y248146D01*
X64383Y248836D01*
X64715Y249639D01*
X64828Y250500D01*
X64715Y251361D01*
X64383Y252164D01*
X63854Y252854D01*
X63164Y253382D01*
X62362Y253715D01*
X61500Y253829D01*
D02*
G37*
G36*
X282500Y285492D02*
X281777Y285397D01*
X281104Y285118D01*
X280525Y284675D01*
X280082Y284096D01*
X279803Y283423D01*
X279708Y282700D01*
X279803Y281977D01*
X280082Y281304D01*
X280525Y280726D01*
X280920Y280423D01*
Y259000D01*
X280973Y258732D01*
X281014Y258461D01*
X281033Y258431D01*
X281040Y258395D01*
X281192Y258168D01*
X281333Y257934D01*
X281363Y257912D01*
X281382Y257882D01*
X281610Y257731D01*
X281830Y257569D01*
X281865Y257560D01*
X281895Y257540D01*
X282164Y257487D01*
X282429Y257421D01*
X306316Y256349D01*
X310985Y251680D01*
X310928Y251273D01*
X310633Y250680D01*
X309111D01*
X214449Y252004D01*
X214383Y252164D01*
X213854Y252854D01*
X213164Y253382D01*
X212362Y253715D01*
X211500Y253829D01*
X206500D01*
X205639Y253715D01*
X204836Y253382D01*
X204146Y252854D01*
X203618Y252164D01*
X203285Y251361D01*
X203171Y250500D01*
X203285Y249639D01*
X203618Y248836D01*
X204146Y248146D01*
X204836Y247618D01*
X205639Y247285D01*
X206500Y247171D01*
X211500D01*
X212362Y247285D01*
X213164Y247618D01*
X213854Y248146D01*
X214383Y248836D01*
X214386Y248844D01*
X309078Y247520D01*
X309089Y247522D01*
X309100Y247520D01*
X348445D01*
X386372Y209593D01*
X386308Y209100D01*
X386403Y208377D01*
X386682Y207704D01*
X387125Y207125D01*
X387704Y206682D01*
X388377Y206403D01*
X389100Y206308D01*
X389823Y206403D01*
X390496Y206682D01*
X391074Y207125D01*
X391518Y207704D01*
X391797Y208377D01*
X391892Y209100D01*
X391797Y209823D01*
X391518Y210496D01*
X391074Y211074D01*
X390496Y211518D01*
X389823Y211797D01*
X389100Y211892D01*
X388607Y211827D01*
X350315Y250120D01*
X350372Y250527D01*
X350667Y251120D01*
X354645D01*
X362483Y243283D01*
X362995Y242940D01*
X363600Y242820D01*
X422945D01*
X441624Y224141D01*
X441536Y223928D01*
X441413Y223000D01*
X441536Y222072D01*
X441894Y221207D01*
X442464Y220464D01*
X443207Y219894D01*
X444072Y219536D01*
X445000Y219413D01*
X445928Y219536D01*
X446793Y219894D01*
X447536Y220464D01*
X448106Y221207D01*
X448464Y222072D01*
X448587Y223000D01*
X448464Y223928D01*
X448106Y224793D01*
X447536Y225536D01*
X446793Y226106D01*
X445928Y226464D01*
X445000Y226587D01*
X444072Y226464D01*
X443859Y226376D01*
X424718Y245517D01*
X424205Y245860D01*
X423600Y245980D01*
X383975D01*
X383635Y246980D01*
X383853Y247147D01*
X384494Y247983D01*
X384897Y248956D01*
X384903Y249000D01*
X381000D01*
X377097D01*
X377103Y248956D01*
X377506Y247983D01*
X378147Y247147D01*
X378364Y246980D01*
X378025Y245980D01*
X375484D01*
X375274Y246183D01*
X374812Y246980D01*
X374816Y247000D01*
Y253000D01*
X374754Y253312D01*
X374577Y253577D01*
X374312Y253754D01*
X374000Y253816D01*
X369419D01*
X365517Y257717D01*
X365005Y258060D01*
X364400Y258180D01*
X318462D01*
X318160Y258575D01*
X317581Y259018D01*
X316908Y259297D01*
X316185Y259392D01*
X315462Y259297D01*
X314789Y259018D01*
X314211Y258575D01*
X313767Y257996D01*
X313488Y257323D01*
X313393Y256600D01*
X313484Y255907D01*
X313486Y255874D01*
X312873Y254836D01*
X312354Y254781D01*
X308118Y259017D01*
X307890Y259170D01*
X307670Y259331D01*
X307635Y259340D01*
X307605Y259360D01*
X307336Y259413D01*
X307071Y259479D01*
X284080Y260511D01*
Y280423D01*
X284474Y280726D01*
X284918Y281304D01*
X285197Y281977D01*
X285292Y282700D01*
X285197Y283423D01*
X284918Y284096D01*
X284474Y284675D01*
X283896Y285118D01*
X283223Y285397D01*
X282500Y285492D01*
D02*
G37*
G36*
X61500Y243829D02*
X56500D01*
X55638Y243715D01*
X54836Y243383D01*
X54146Y242854D01*
X53617Y242164D01*
X53285Y241361D01*
X53171Y240500D01*
X53285Y239638D01*
X53617Y238836D01*
X54146Y238146D01*
X54836Y237617D01*
X55638Y237285D01*
X56500Y237172D01*
X61500D01*
X62362Y237285D01*
X63164Y237617D01*
X63854Y238146D01*
X64383Y238836D01*
X64715Y239638D01*
X64828Y240500D01*
X64715Y241361D01*
X64383Y242164D01*
X63854Y242854D01*
X63164Y243383D01*
X62362Y243715D01*
X61500Y243829D01*
D02*
G37*
G36*
X211500D02*
X206500D01*
X205639Y243715D01*
X204836Y243383D01*
X204146Y242854D01*
X203618Y242164D01*
X203285Y241361D01*
X203171Y240500D01*
X203285Y239638D01*
X203618Y238836D01*
X204146Y238146D01*
X203856Y237108D01*
X203810Y237101D01*
X203396Y237418D01*
X202723Y237697D01*
X202000Y237792D01*
X201277Y237697D01*
X200604Y237418D01*
X200026Y236975D01*
X199582Y236396D01*
X199303Y235723D01*
X199208Y235000D01*
X199303Y234277D01*
X199582Y233604D01*
X200026Y233026D01*
X200604Y232582D01*
X201277Y232303D01*
X202000Y232208D01*
X202585Y232285D01*
X202962Y231976D01*
X203331Y231472D01*
X203285Y231362D01*
X203171Y230500D01*
X203285Y229639D01*
X203618Y228836D01*
X204146Y228146D01*
X204836Y227618D01*
X205639Y227285D01*
X206500Y227171D01*
X211500D01*
X212362Y227285D01*
X213164Y227618D01*
X213854Y228146D01*
X214383Y228836D01*
X214715Y229639D01*
X214828Y230500D01*
X214715Y231362D01*
X214383Y232164D01*
X214187Y232420D01*
X214680Y233420D01*
X319145D01*
X343672Y208893D01*
X343608Y208400D01*
X343703Y207677D01*
X343982Y207004D01*
X344426Y206425D01*
X345004Y205982D01*
X345677Y205703D01*
X346400Y205608D01*
X347123Y205703D01*
X347796Y205982D01*
X348375Y206425D01*
X348818Y207004D01*
X349097Y207677D01*
X349188Y208363D01*
X349300Y208447D01*
X350146Y208819D01*
X367083Y191883D01*
X367595Y191540D01*
X368200Y191420D01*
X429500D01*
X430105Y191540D01*
X430618Y191883D01*
X433407Y194672D01*
X434247Y194324D01*
X435500Y194159D01*
X436753Y194324D01*
X437921Y194807D01*
X438923Y195577D01*
X439693Y196579D01*
X440176Y197747D01*
X440341Y199000D01*
X440176Y200253D01*
X439693Y201421D01*
X438923Y202423D01*
X437921Y203193D01*
X436753Y203676D01*
X435500Y203841D01*
X434247Y203676D01*
X433079Y203193D01*
X432077Y202423D01*
X431307Y201421D01*
X430824Y200253D01*
X430659Y199000D01*
X430824Y197747D01*
X431172Y196907D01*
X428845Y194580D01*
X426252D01*
X425316Y195000D01*
Y203000D01*
X425254Y203312D01*
X425077Y203577D01*
X424812Y203754D01*
X424500Y203816D01*
X416500D01*
X416188Y203754D01*
X415923Y203577D01*
X415746Y203312D01*
X415684Y203000D01*
Y195000D01*
X414748Y194580D01*
X368953D01*
X368366Y195308D01*
X368742Y196184D01*
X374000D01*
X374312Y196246D01*
X374577Y196423D01*
X374754Y196688D01*
X374816Y197000D01*
Y203000D01*
X374754Y203312D01*
X374577Y203577D01*
X374312Y203754D01*
X374000Y203816D01*
X368000D01*
X367688Y203754D01*
X367423Y203577D01*
X367246Y203312D01*
X367184Y203000D01*
Y197665D01*
X366184Y197251D01*
X338827Y224607D01*
X338892Y225100D01*
X338797Y225823D01*
X338518Y226496D01*
X338074Y227075D01*
X337496Y227518D01*
X336823Y227797D01*
X336100Y227892D01*
X335377Y227797D01*
X334704Y227518D01*
X334125Y227075D01*
X333682Y226496D01*
X333403Y225823D01*
X333312Y225137D01*
X333200Y225053D01*
X332354Y224681D01*
X320918Y236118D01*
X320405Y236460D01*
X319800Y236580D01*
X213274D01*
X213075Y237580D01*
X213164Y237617D01*
X213854Y238146D01*
X214383Y238836D01*
X214417Y238920D01*
X337423D01*
X337725Y238526D01*
X338304Y238082D01*
X338977Y237803D01*
X339700Y237708D01*
X340423Y237803D01*
X341096Y238082D01*
X341674Y238526D01*
X342118Y239104D01*
X342397Y239777D01*
X342492Y240500D01*
X342397Y241223D01*
X342118Y241896D01*
X341674Y242475D01*
X341096Y242918D01*
X340423Y243197D01*
X339700Y243292D01*
X338977Y243197D01*
X338304Y242918D01*
X337725Y242475D01*
X337423Y242080D01*
X214417D01*
X214383Y242164D01*
X213854Y242854D01*
X213164Y243383D01*
X212362Y243715D01*
X211500Y243829D01*
D02*
G37*
G36*
X444500Y249087D02*
X443572Y248964D01*
X442707Y248606D01*
X441964Y248036D01*
X441394Y247293D01*
X441036Y246428D01*
X440913Y245500D01*
X441036Y244572D01*
X441394Y243707D01*
X441964Y242964D01*
X442707Y242394D01*
X443572Y242036D01*
X444500Y241913D01*
X445428Y242036D01*
X446293Y242394D01*
X447036Y242964D01*
X447606Y243707D01*
X447964Y244572D01*
X448087Y245500D01*
X447964Y246428D01*
X447606Y247293D01*
X447036Y248036D01*
X446293Y248606D01*
X445428Y248964D01*
X444500Y249087D01*
D02*
G37*
G36*
X211500Y203829D02*
X206500D01*
X205639Y203715D01*
X204836Y203382D01*
X204146Y202854D01*
X203618Y202164D01*
X203285Y201361D01*
X203171Y200500D01*
X203285Y199638D01*
X203618Y198836D01*
X204146Y198146D01*
X204836Y197617D01*
X205639Y197285D01*
X206500Y197171D01*
X211500D01*
X212362Y197285D01*
X213164Y197617D01*
X213854Y198146D01*
X214383Y198836D01*
X214715Y199638D01*
X214828Y200500D01*
X214715Y201361D01*
X214383Y202164D01*
X213854Y202854D01*
X213164Y203382D01*
X212362Y203715D01*
X211500Y203829D01*
D02*
G37*
G36*
X289000Y203520D02*
X286000D01*
X285610Y203442D01*
X285279Y203221D01*
X285058Y202890D01*
X284980Y202500D01*
Y199500D01*
X289000D01*
Y203520D01*
D02*
G37*
G36*
X61500Y203829D02*
X56500D01*
X55638Y203715D01*
X54836Y203382D01*
X54146Y202854D01*
X53617Y202164D01*
X53285Y201361D01*
X53171Y200500D01*
X53285Y199638D01*
X53617Y198836D01*
X54146Y198146D01*
X54836Y197617D01*
X55638Y197285D01*
X56500Y197171D01*
X61500D01*
X62362Y197285D01*
X63164Y197617D01*
X63854Y198146D01*
X64383Y198836D01*
X64715Y199638D01*
X64828Y200500D01*
X64715Y201361D01*
X64383Y202164D01*
X63854Y202854D01*
X63164Y203382D01*
X62362Y203715D01*
X61500Y203829D01*
D02*
G37*
G36*
X380000Y199000D02*
X377097D01*
X377103Y198956D01*
X377506Y197983D01*
X378147Y197147D01*
X378983Y196506D01*
X379956Y196103D01*
X380000Y196097D01*
Y199000D01*
D02*
G37*
G36*
X384903D02*
X382000D01*
Y196097D01*
X382044Y196103D01*
X383017Y196506D01*
X383853Y197147D01*
X384494Y197983D01*
X384897Y198956D01*
X384903Y199000D01*
D02*
G37*
G36*
X382000Y203903D02*
Y201000D01*
X384903D01*
X384897Y201044D01*
X384494Y202017D01*
X383853Y202853D01*
X383017Y203494D01*
X382044Y203897D01*
X382000Y203903D01*
D02*
G37*
G36*
X380000D02*
X379956Y203897D01*
X378983Y203494D01*
X378147Y202853D01*
X377506Y202017D01*
X377103Y201044D01*
X377097Y201000D01*
X380000D01*
Y203903D01*
D02*
G37*
G36*
X466500Y203911D02*
Y200000D01*
X470411D01*
X470371Y200305D01*
X469868Y201522D01*
X469066Y202566D01*
X468022Y203367D01*
X466805Y203871D01*
X466500Y203911D01*
D02*
G37*
G36*
X294000Y203520D02*
X291000D01*
Y199500D01*
X295020D01*
Y202500D01*
X294942Y202890D01*
X294721Y203221D01*
X294390Y203442D01*
X294000Y203520D01*
D02*
G37*
G36*
X464500Y203911D02*
X464195Y203871D01*
X462978Y203367D01*
X461934Y202566D01*
X461132Y201522D01*
X460629Y200305D01*
X460589Y200000D01*
X464500D01*
Y203911D01*
D02*
G37*
%LPD*%
G36*
X317761Y46220D02*
X317668Y46080D01*
X279000D01*
X278395Y45960D01*
X277883Y45617D01*
X269645Y37380D01*
X215659D01*
X214816Y38000D01*
Y43000D01*
X214832Y43020D01*
X259500D01*
X260105Y43140D01*
X260617Y43483D01*
X264355Y47220D01*
X317226D01*
X317761Y46220D01*
D02*
G37*
G36*
X203184Y41735D02*
Y38000D01*
X202341Y37380D01*
X136541D01*
X136118Y37922D01*
X136524Y38920D01*
X198300D01*
X198905Y39040D01*
X199417Y39382D01*
X202184Y42149D01*
X203184Y41735D01*
D02*
G37*
G36*
X367184Y251581D02*
Y247000D01*
X367188Y246980D01*
X366726Y246183D01*
X366516Y245980D01*
X364255D01*
X356417Y253818D01*
X356115Y254020D01*
X356319Y255020D01*
X363745D01*
X367184Y251581D01*
D02*
G37*
D20*
X26500Y127000D02*
X36000D01*
X52500Y110500D01*
X59000D01*
X265000Y195700D02*
Y219000D01*
X263300Y194000D02*
X265000Y195700D01*
X290000Y326700D02*
Y330358D01*
Y326700D02*
X298400Y318300D01*
X428000Y356500D02*
X450000D01*
X456000Y350500D01*
X486500D01*
X490000Y354000D01*
Y367000D01*
X494000Y371000D01*
X500000D01*
X294500Y79500D02*
X318000D01*
X69000Y330500D02*
X119000Y380500D01*
X59000Y330500D02*
X69000D01*
X277300Y180000D02*
X283000D01*
X263300Y194000D02*
X277300Y180000D01*
X314500Y32500D02*
Y36051D01*
X330800Y341000D02*
X480000D01*
X59000Y40500D02*
X198300D01*
X202400Y44600D01*
X259500D01*
X263700Y48800D01*
X319600D01*
X368300Y97500D01*
X423500D01*
X433700Y143300D02*
X518500D01*
X422500Y154500D02*
X433700Y143300D01*
X295401Y135800D02*
X302300D01*
X319500Y153000D01*
X523449Y226551D02*
X537000D01*
X504500Y245500D02*
X523449Y226551D01*
X526449Y201551D02*
X537000D01*
X505000Y223000D02*
X526449Y201551D01*
X209000Y50500D02*
X251400D01*
X497500Y30000D02*
X511500Y16000D01*
X464300Y30000D02*
X497500D01*
X194300Y329800D02*
X200000Y335500D01*
X216500D01*
X224100Y343100D01*
X349100Y249100D02*
X389100Y209100D01*
X309100Y249100D02*
X349100D01*
X209000Y250500D02*
X309100Y249100D01*
X336100Y225100D02*
X368200Y193000D01*
X429500D01*
X435500Y199000D01*
X491500Y76000D02*
X511500D01*
X489500Y78000D02*
X491500Y76000D01*
X282500Y259000D02*
Y282700D01*
Y259000D02*
X307000Y257900D01*
X312200Y252700D01*
X355300D01*
X363600Y244400D01*
X423600D01*
X445000Y223000D01*
X428000Y271500D02*
X465500D01*
X470500Y276500D01*
X202000Y235000D02*
X319800D01*
X346400Y208400D01*
X316000Y308600D02*
X331000Y293600D01*
X304800Y308600D02*
X316000D01*
X292900Y320500D02*
X304800Y308600D01*
X209000Y320500D02*
X292900D01*
X59000Y130500D02*
X134000D01*
X138100Y134600D01*
X215600D01*
X219000Y131200D01*
X322900D01*
X327900Y53300D02*
X355000D01*
X319100Y44500D02*
X327900Y53300D01*
X279000Y44500D02*
X319100D01*
X270300Y35800D02*
X279000Y44500D01*
X134000Y35800D02*
X270300D01*
X198200Y125500D02*
X251800D01*
X282300Y95000D01*
X314100Y304400D02*
X324100Y294400D01*
X258400Y304400D02*
X314100D01*
X254500Y300500D02*
X258400Y304400D01*
X209000Y300500D02*
X254500D01*
X252500Y61000D02*
X302800D01*
X298400Y318300D02*
X438800D01*
X444500Y312600D01*
X209000Y240500D02*
X339700D01*
X316185Y256600D02*
X364400D01*
X371000Y250000D01*
X511500Y76000D02*
Y105500D01*
X437500Y83500D02*
X459800D01*
X423500Y97500D02*
X437500Y83500D01*
X315500Y140000D02*
X408000D01*
X422500Y154500D01*
X448000Y46300D02*
Y64000D01*
X513751Y276551D02*
X537000D01*
X513700Y276500D02*
X513751Y276551D01*
X490500Y276500D02*
X513700D01*
D21*
X26500Y117000D02*
D03*
D22*
Y127000D02*
D03*
Y137000D02*
D03*
Y147000D02*
D03*
Y157000D02*
D03*
Y167000D02*
D03*
D23*
X209000Y40500D02*
D03*
D24*
Y50500D02*
D03*
Y60500D02*
D03*
Y70500D02*
D03*
Y80500D02*
D03*
Y90500D02*
D03*
Y100500D02*
D03*
Y110500D02*
D03*
Y120500D02*
D03*
Y130500D02*
D03*
Y140500D02*
D03*
Y150500D02*
D03*
Y160500D02*
D03*
Y170500D02*
D03*
Y180500D02*
D03*
Y190500D02*
D03*
Y200500D02*
D03*
Y210500D02*
D03*
Y220500D02*
D03*
Y230500D02*
D03*
Y240500D02*
D03*
Y250500D02*
D03*
Y260500D02*
D03*
Y270500D02*
D03*
Y280500D02*
D03*
Y290500D02*
D03*
Y300500D02*
D03*
Y310500D02*
D03*
Y320500D02*
D03*
Y330500D02*
D03*
Y340500D02*
D03*
Y350500D02*
D03*
Y360500D02*
D03*
X59000Y40500D02*
D03*
Y50500D02*
D03*
Y60500D02*
D03*
Y70500D02*
D03*
Y80500D02*
D03*
Y90500D02*
D03*
Y100500D02*
D03*
Y110500D02*
D03*
Y120500D02*
D03*
Y130500D02*
D03*
Y140500D02*
D03*
Y150500D02*
D03*
Y160500D02*
D03*
Y170500D02*
D03*
Y180500D02*
D03*
Y190500D02*
D03*
Y200500D02*
D03*
Y210500D02*
D03*
Y220500D02*
D03*
Y230500D02*
D03*
Y240500D02*
D03*
Y250500D02*
D03*
Y260500D02*
D03*
Y270500D02*
D03*
Y280500D02*
D03*
Y290500D02*
D03*
Y300500D02*
D03*
Y310500D02*
D03*
Y320500D02*
D03*
Y330500D02*
D03*
Y340500D02*
D03*
Y350500D02*
D03*
Y360500D02*
D03*
D25*
X470500Y276500D02*
D03*
D26*
X490500D02*
D03*
D27*
X448000Y64000D02*
D03*
D28*
X464300Y46300D02*
D03*
X448000D02*
D03*
X464300Y30000D02*
D03*
X298200Y32500D02*
D03*
X314500D02*
D03*
D29*
X448000Y30000D02*
D03*
X330800Y32500D02*
D03*
D30*
X280800D02*
D03*
D31*
X428000Y271500D02*
D03*
D32*
Y296500D02*
D03*
X300000Y271500D02*
D03*
Y296500D02*
D03*
Y356500D02*
D03*
Y331500D02*
D03*
X428000Y356500D02*
D03*
Y331500D02*
D03*
D33*
X371000Y250000D02*
D03*
Y200000D02*
D03*
X371500Y156500D02*
D03*
X371000Y110000D02*
D03*
Y60000D02*
D03*
D34*
X381000Y250000D02*
D03*
Y200000D02*
D03*
X381500Y156500D02*
D03*
X381000Y110000D02*
D03*
Y60000D02*
D03*
X500000Y361000D02*
D03*
Y371000D02*
D03*
Y381000D02*
D03*
X480000Y341000D02*
D03*
Y361000D02*
D03*
Y371000D02*
D03*
Y381000D02*
D03*
X94500Y19000D02*
D03*
X18500Y81000D02*
D03*
D35*
X537000Y151551D02*
D03*
Y176551D02*
D03*
Y201551D02*
D03*
Y226551D02*
D03*
Y251551D02*
D03*
Y276551D02*
D03*
Y301551D02*
D03*
D36*
Y326551D02*
D03*
D37*
X500000Y341000D02*
D03*
D38*
X420500Y199000D02*
D03*
X290000Y198500D02*
D03*
D39*
X435500Y199000D02*
D03*
X450500D02*
D03*
X465500D02*
D03*
X335000Y198500D02*
D03*
X320000D02*
D03*
X305000D02*
D03*
X319500Y153000D02*
D03*
X452500Y154500D02*
D03*
D40*
X423500Y97500D02*
D03*
D41*
Y108000D02*
D03*
X294500Y79500D02*
D03*
X318000D02*
D03*
X119000Y381000D02*
D03*
D42*
X489500Y18000D02*
D03*
Y78000D02*
D03*
X511500Y76000D02*
D03*
Y16000D02*
D03*
X505000Y223000D02*
D03*
X445000D02*
D03*
X504500Y245500D02*
D03*
X444500D02*
D03*
D43*
X289500Y153000D02*
D03*
X422500Y154500D02*
D03*
D44*
X576000Y25000D02*
D03*
Y375000D02*
D03*
X26000D02*
D03*
Y25000D02*
D03*
D45*
X265000Y219000D02*
D03*
X290000Y330358D02*
D03*
X283000Y180000D02*
D03*
X518500Y143300D02*
D03*
X295401Y135800D02*
D03*
X251400Y50500D02*
D03*
X194300Y329800D02*
D03*
X224100Y343100D02*
D03*
X389100Y209100D02*
D03*
X336100Y225100D02*
D03*
X282500Y282700D02*
D03*
X330800Y341000D02*
D03*
X202000Y235000D02*
D03*
X346400Y208400D02*
D03*
X331000Y293600D02*
D03*
X322900Y131200D02*
D03*
X355000Y53300D02*
D03*
X134000Y35800D02*
D03*
X198200Y125500D02*
D03*
X282300Y95000D02*
D03*
X324100Y294400D02*
D03*
X252500Y61000D02*
D03*
X302800D02*
D03*
X444500Y312600D02*
D03*
X339700Y240500D02*
D03*
X316185Y256600D02*
D03*
X511500Y105500D02*
D03*
X459800Y83500D02*
D03*
X315500Y140000D02*
D03*
M02*
