G04 Layer_Color=16711935*
%FSLAX25Y25*%
%MOIN*%
G70*
G01*
G75*
%ADD75C,0.00394*%
D75*
X423689Y203799D02*
X423425Y204784D01*
X422705Y205504D01*
X421721Y205768D01*
X420736Y205504D01*
X420016Y204784D01*
X419752Y203799D01*
X420016Y202815D01*
X420736Y202094D01*
X421721Y201831D01*
X422705Y202094D01*
X423425Y202815D01*
X423689Y203799D01*
X652138Y209299D02*
X651874Y210283D01*
X651154Y211004D01*
X650169Y211268D01*
X649185Y211004D01*
X648464Y210283D01*
X648201Y209299D01*
X648464Y208315D01*
X649185Y207594D01*
X650169Y207331D01*
X651154Y207594D01*
X651874Y208315D01*
X652138Y209299D01*
X380744Y304331D02*
X386256D01*
X380744Y312795D02*
X386256D01*
X380744Y304331D02*
Y312795D01*
X386256Y304331D02*
Y312795D01*
X374815Y439146D02*
X380327D01*
X374815Y427335D02*
X380327D01*
X374815D02*
Y439146D01*
X380327Y427335D02*
Y439146D01*
X581244Y206732D02*
X586756D01*
X581244Y198268D02*
X586756D01*
Y206732D01*
X581244Y198268D02*
Y206732D01*
X526890Y136244D02*
Y141756D01*
X535354Y136244D02*
Y141756D01*
X526890D02*
X535354D01*
X526890Y136244D02*
X535354D01*
X527146Y110244D02*
Y115756D01*
X535610Y110244D02*
Y115756D01*
X527146D02*
X535610D01*
X527146Y110244D02*
X535610D01*
X480732Y157744D02*
Y163256D01*
X472268Y157744D02*
Y163256D01*
Y157744D02*
X480732D01*
X472268Y163256D02*
X480732D01*
X472646Y207244D02*
Y212756D01*
X481110Y207244D02*
Y212756D01*
X472646D02*
X481110D01*
X472646Y207244D02*
X481110D01*
X357244Y304831D02*
X362756D01*
X357244Y313295D02*
X362756D01*
X357244Y304831D02*
Y313295D01*
X362756Y304831D02*
Y313295D01*
X475146Y257244D02*
Y262756D01*
X483610Y257244D02*
Y262756D01*
X475146D02*
X483610D01*
X475146Y257244D02*
X483610D01*
X368244Y304831D02*
X373756D01*
X368244Y313295D02*
X373756D01*
X368244Y304831D02*
Y313295D01*
X373756Y304831D02*
Y313295D01*
X391744Y304331D02*
X397256D01*
X391744Y312795D02*
X397256D01*
X391744Y304331D02*
Y312795D01*
X397256Y304331D02*
Y312795D01*
X373744Y174268D02*
X379256D01*
X373744Y182732D02*
X379256D01*
X373744Y174268D02*
Y182732D01*
X379256Y174268D02*
Y182732D01*
X474268Y297244D02*
Y302756D01*
X482732Y297244D02*
Y302756D01*
X474268D02*
X482732D01*
X474268Y297244D02*
X482732D01*
X359744Y182110D02*
X365256D01*
X359744Y173646D02*
X365256D01*
Y182110D01*
X359744Y173646D02*
Y182110D01*
X379232Y477744D02*
Y483256D01*
X370768Y477744D02*
Y483256D01*
Y477744D02*
X379232D01*
X370768Y483256D02*
X379232D01*
X448354Y347244D02*
Y352756D01*
X439890Y347244D02*
Y352756D01*
Y347244D02*
X448354D01*
X439890Y352756D02*
X448354D01*
X345744Y386268D02*
X351256D01*
X345744Y394732D02*
X351256D01*
X345744Y386268D02*
Y394732D01*
X351256Y386268D02*
Y394732D01*
X389244Y386146D02*
X394756D01*
X389244Y394610D02*
X394756D01*
X389244Y386146D02*
Y394610D01*
X394756Y386146D02*
Y394610D01*
X345744Y428646D02*
X351256D01*
X345744Y437110D02*
X351256D01*
X345744Y428646D02*
Y437110D01*
X351256Y428646D02*
Y437110D01*
X526768Y145744D02*
Y151256D01*
X535232Y145744D02*
Y151256D01*
X526768D02*
X535232D01*
X526768Y145744D02*
X535232D01*
X527146Y122744D02*
Y128256D01*
X535610Y122744D02*
Y128256D01*
X527146D02*
X535610D01*
X527146Y122744D02*
X535610D01*
X345244Y304331D02*
X350756D01*
X345244Y312795D02*
X350756D01*
X345244Y304331D02*
Y312795D01*
X350756Y304331D02*
Y312795D01*
X390244Y174390D02*
X395756D01*
X390244Y182854D02*
X395756D01*
X390244Y174390D02*
Y182854D01*
X395756Y174390D02*
Y182854D01*
X359744Y385768D02*
X365256D01*
X359744Y394232D02*
X365256D01*
X359744Y385768D02*
Y394232D01*
X365256Y385768D02*
Y394232D01*
X169744Y148232D02*
X175256D01*
X169744Y139768D02*
X175256D01*
Y148232D01*
X169744Y139768D02*
Y148232D01*
X360244Y428768D02*
X365756D01*
X360244Y437232D02*
X365756D01*
X360244Y428768D02*
Y437232D01*
X365756Y428768D02*
Y437232D01*
X389244Y427146D02*
X394756D01*
X389244Y435610D02*
X394756D01*
X389244Y427146D02*
Y435610D01*
X394756Y427146D02*
Y435610D01*
X418177Y187657D02*
Y207343D01*
X433925Y187657D02*
Y207343D01*
X418177D02*
X433925D01*
X418177Y187657D02*
X433925D01*
X621406Y416315D02*
Y421827D01*
X609594Y416315D02*
Y421827D01*
X621406D01*
X609594Y416315D02*
X621406D01*
X384906Y388315D02*
Y393827D01*
X373094Y388315D02*
Y393827D01*
X384906D01*
X373094Y388315D02*
X384906D01*
X547744Y125406D02*
X553256D01*
X547744Y113594D02*
X553256D01*
X547744D02*
Y125406D01*
X553256Y113594D02*
Y125406D01*
X548244Y150906D02*
X553756D01*
X548244Y139094D02*
X553756D01*
X548244D02*
Y150906D01*
X553756Y139094D02*
Y150906D01*
X391244Y471146D02*
X396756D01*
X391244Y482957D02*
X396756D01*
Y471146D02*
Y482957D01*
X391244Y471146D02*
Y482957D01*
X646626Y193157D02*
Y212843D01*
X662374Y193157D02*
Y212843D01*
X646626D02*
X662374D01*
X646626Y193157D02*
X662374D01*
M02*
