G04 Layer_Color=32768*
%FSLAX25Y25*%
%MOIN*%
G70*
G01*
G75*
%ADD75C,0.00394*%
D75*
X654500Y201032D02*
Y204969D01*
X652531Y203000D02*
X656469D01*
X639736Y192173D02*
X669264D01*
X639736Y213827D02*
X669264D01*
Y192173D02*
Y213827D01*
X639736Y192173D02*
Y213827D01*
X385248Y426350D02*
Y440130D01*
X369894Y426350D02*
Y440130D01*
Y426350D02*
X385248D01*
X369894Y440130D02*
X385248D01*
X375602Y433240D02*
X379539D01*
X377571Y431272D02*
Y435209D01*
X444122Y349311D02*
Y350689D01*
X443433Y350000D02*
X444811D01*
X441366Y350984D02*
X446878D01*
X441366Y349016D02*
X446878D01*
X441366D02*
Y350984D01*
X446878Y349016D02*
Y350984D01*
X374811Y309500D02*
X376189D01*
X375500Y308811D02*
Y310189D01*
X376484Y306744D02*
Y312256D01*
X374516Y306744D02*
Y312256D01*
X376484D01*
X374516Y306744D02*
X376484D01*
X386323Y470161D02*
Y483941D01*
X401677Y470161D02*
Y483941D01*
X386323D02*
X401677D01*
X386323Y470161D02*
X401677D01*
X392032Y477051D02*
X395969D01*
X394000Y475083D02*
Y479020D01*
X558677Y138110D02*
Y151890D01*
X543323Y138110D02*
Y151890D01*
Y138110D02*
X558677D01*
X543323Y151890D02*
X558677D01*
X549031Y145000D02*
X552969D01*
X551000Y143031D02*
Y146969D01*
X558177Y112610D02*
Y126390D01*
X542823Y112610D02*
Y126390D01*
Y112610D02*
X558177D01*
X542823Y126390D02*
X558177D01*
X548531Y119500D02*
X552469D01*
X550500Y117531D02*
Y121469D01*
X375000Y479811D02*
Y481189D01*
X374311Y480500D02*
X375689D01*
X372244Y481484D02*
X377756D01*
X372244Y479516D02*
X377756D01*
X372244D02*
Y481484D01*
X377756Y479516D02*
Y481484D01*
X372110Y383394D02*
X385890D01*
X372110Y398748D02*
X385890D01*
X372110Y383394D02*
Y398748D01*
X385890Y383394D02*
Y398748D01*
X379000Y389102D02*
Y393039D01*
X377031Y391071D02*
X380969D01*
X391311Y390378D02*
X392689D01*
X392000Y389689D02*
Y391067D01*
X392984Y387622D02*
Y393134D01*
X391016Y387622D02*
Y393134D01*
X392984D01*
X391016Y387622D02*
X392984D01*
X345811Y308622D02*
X347189D01*
X346500Y307933D02*
Y309311D01*
X347484Y305866D02*
Y311378D01*
X345516Y305866D02*
Y311378D01*
X347484D01*
X345516Y305866D02*
X347484D01*
X476500Y159811D02*
Y161189D01*
X475811Y160500D02*
X477189D01*
X473744Y161484D02*
X479256D01*
X473744Y159516D02*
X479256D01*
X473744D02*
Y161484D01*
X479256Y159516D02*
Y161484D01*
X476878Y209311D02*
Y210689D01*
X476189Y210000D02*
X477567D01*
X474122Y209016D02*
X479634D01*
X474122Y210984D02*
X479634D01*
Y209016D02*
Y210984D01*
X474122Y209016D02*
Y210984D01*
X479378Y259311D02*
Y260689D01*
X478689Y260000D02*
X480067D01*
X476622Y259016D02*
X482134D01*
X476622Y260984D02*
X482134D01*
Y259016D02*
Y260984D01*
X476622Y259016D02*
Y260984D01*
X478500Y299311D02*
Y300689D01*
X477811Y300000D02*
X479189D01*
X475744Y299016D02*
X481256D01*
X475744Y300984D02*
X481256D01*
Y299016D02*
Y300984D01*
X475744Y299016D02*
Y300984D01*
X531378Y124811D02*
Y126189D01*
X530689Y125500D02*
X532067D01*
X528622Y124516D02*
X534134D01*
X528622Y126484D02*
X534134D01*
Y124516D02*
Y126484D01*
X528622Y124516D02*
Y126484D01*
X531000Y147811D02*
Y149189D01*
X530311Y148500D02*
X531689D01*
X528244Y147516D02*
X533756D01*
X528244Y149484D02*
X533756D01*
Y147516D02*
Y149484D01*
X528244Y147516D02*
Y149484D01*
X531122Y138311D02*
Y139689D01*
X530433Y139000D02*
X531811D01*
X528366Y138016D02*
X533878D01*
X528366Y139984D02*
X533878D01*
Y138016D02*
Y139984D01*
X528366Y138016D02*
Y139984D01*
X531378Y112311D02*
Y113689D01*
X530689Y113000D02*
X532067D01*
X528622Y112016D02*
X534134D01*
X528622Y113984D02*
X534134D01*
Y112016D02*
Y113984D01*
X528622Y112016D02*
Y113984D01*
X171811Y144000D02*
X173189D01*
X172500Y143311D02*
Y144689D01*
X171516Y141244D02*
Y146756D01*
X173484Y141244D02*
Y146756D01*
X171516Y141244D02*
X173484D01*
X171516Y146756D02*
X173484D01*
X608610Y411394D02*
X622390D01*
X608610Y426748D02*
X622390D01*
X608610Y411394D02*
Y426748D01*
X622390Y411394D02*
Y426748D01*
X615500Y417102D02*
Y421039D01*
X613531Y419071D02*
X617469D01*
X361811Y177878D02*
X363189D01*
X362500Y177189D02*
Y178567D01*
X361516Y175122D02*
Y180634D01*
X363484Y175122D02*
Y180634D01*
X361516Y175122D02*
X363484D01*
X361516Y180634D02*
X363484D01*
X375811Y178500D02*
X377189D01*
X376500Y177811D02*
Y179189D01*
X377484Y175744D02*
Y181256D01*
X375516Y175744D02*
Y181256D01*
X377484D01*
X375516Y175744D02*
X377484D01*
X392311Y178622D02*
X393689D01*
X393000Y177933D02*
Y179311D01*
X393984Y175866D02*
Y181378D01*
X392016Y175866D02*
Y181378D01*
X393984D01*
X392016Y175866D02*
X393984D01*
X347811Y390500D02*
X349189D01*
X348500Y389811D02*
Y391189D01*
X349484Y387744D02*
Y393256D01*
X347516Y387744D02*
Y393256D01*
X349484D01*
X347516Y387744D02*
X349484D01*
X354811Y308878D02*
X356189D01*
X355500Y308189D02*
Y309567D01*
X356484Y306122D02*
Y311634D01*
X354516Y306122D02*
Y311634D01*
X356484D01*
X354516Y306122D02*
X356484D01*
X366311Y309000D02*
X367689D01*
X367000Y308311D02*
Y309689D01*
X367984Y306244D02*
Y311756D01*
X366016Y306244D02*
Y311756D01*
X367984D01*
X366016Y306244D02*
X367984D01*
X383811Y309122D02*
X385189D01*
X384500Y308433D02*
Y309811D01*
X385484Y306366D02*
Y311878D01*
X383516Y306366D02*
Y311878D01*
X385484D01*
X383516Y306366D02*
X385484D01*
X391311Y431378D02*
X392689D01*
X392000Y430689D02*
Y432067D01*
X392984Y428622D02*
Y434134D01*
X391016Y428622D02*
Y434134D01*
X392984D01*
X391016Y428622D02*
X392984D01*
X361811Y390000D02*
X363189D01*
X362500Y389311D02*
Y390689D01*
X363484Y387244D02*
Y392756D01*
X361516Y387244D02*
Y392756D01*
X363484D01*
X361516Y387244D02*
X363484D01*
X362311Y433000D02*
X363689D01*
X363000Y432311D02*
Y433689D01*
X363984Y430244D02*
Y435756D01*
X362016Y430244D02*
Y435756D01*
X363984D01*
X362016Y430244D02*
X363984D01*
X347811Y432878D02*
X349189D01*
X348500Y432189D02*
Y433567D01*
X349484Y430122D02*
Y435634D01*
X347516Y430122D02*
Y435634D01*
X349484D01*
X347516Y430122D02*
X349484D01*
X426051Y195532D02*
Y199469D01*
X424083Y197500D02*
X428020D01*
X411287Y186673D02*
X440815D01*
X411287Y208327D02*
X440815D01*
Y186673D02*
Y208327D01*
X411287Y186673D02*
Y208327D01*
M02*
