G04 Layer_Physical_Order=2*
G04 Layer_Color=16711680*
%FSLAX25Y25*%
%MOIN*%
G70*
G01*
G75*
%ADD18C,0.01000*%
%ADD19C,0.01500*%
%ADD20C,0.02000*%
%ADD21C,0.04000*%
%ADD22R,0.21000X0.15000*%
%ADD23O,0.21000X0.15000*%
%ADD24C,0.06000*%
%ADD25C,0.16000*%
%ADD26C,0.10000*%
%ADD27R,0.10000X0.10000*%
%ADD28C,0.05512*%
%ADD29O,0.10000X0.05000*%
%ADD30R,0.10000X0.05000*%
%ADD31R,0.09000X0.09000*%
%ADD32C,0.09000*%
%ADD33R,0.06000X0.06000*%
%ADD34R,0.06000X0.06000*%
%ADD35C,0.40000*%
%ADD36C,0.15000*%
%ADD37C,0.12000*%
%ADD38R,0.12000X0.12000*%
%ADD39C,0.04724*%
%ADD40R,0.04724X0.04724*%
%ADD41C,0.05000*%
%ADD42R,0.05000X0.05000*%
G36*
X698000Y497000D02*
Y102000D01*
X104000D01*
X103000Y103000D01*
X102002Y497292D01*
X102708Y498000D01*
X697000D01*
X698000Y497000D01*
D02*
G37*
%LPC*%
G36*
X185500Y213828D02*
X180500D01*
X179639Y213715D01*
X178836Y213383D01*
X178146Y212854D01*
X177618Y212164D01*
X177285Y211362D01*
X177172Y210500D01*
X177285Y209639D01*
X177618Y208836D01*
X178146Y208146D01*
X178836Y207617D01*
X179639Y207285D01*
X180500Y207172D01*
X185500D01*
X186362Y207285D01*
X187164Y207617D01*
X187854Y208146D01*
X188382Y208836D01*
X188715Y209639D01*
X188829Y210500D01*
X188715Y211362D01*
X188382Y212164D01*
X187854Y212854D01*
X187164Y213383D01*
X186362Y213715D01*
X185500Y213828D01*
D02*
G37*
G36*
X547500Y302816D02*
X541500D01*
X541188Y302754D01*
X540923Y302577D01*
X540746Y302312D01*
X540684Y302000D01*
Y296000D01*
X540746Y295688D01*
X540923Y295423D01*
X541188Y295246D01*
X541500Y295184D01*
X543175D01*
Y278800D01*
X543275Y278293D01*
X543563Y277863D01*
X545175Y276251D01*
Y257678D01*
X544138D01*
X543826Y257616D01*
X543561Y257439D01*
X543384Y257174D01*
X543322Y256862D01*
Y253197D01*
X521583Y231457D01*
X520992Y231702D01*
X520000Y231833D01*
X519008Y231702D01*
X518084Y231319D01*
X517290Y230710D01*
X516681Y229916D01*
X516436Y229326D01*
X466223D01*
X466082Y229664D01*
X465554Y230354D01*
X464864Y230883D01*
X464061Y231215D01*
X463200Y231329D01*
X462338Y231215D01*
X461536Y230883D01*
X460846Y230354D01*
X460318Y229664D01*
X459985Y228861D01*
X459871Y228000D01*
X459985Y227138D01*
X460318Y226336D01*
X460846Y225646D01*
X461536Y225117D01*
X462338Y224785D01*
X463200Y224672D01*
X464061Y224785D01*
X464864Y225117D01*
X465554Y225646D01*
X466082Y226336D01*
X466223Y226675D01*
X516436D01*
X516681Y226084D01*
X517290Y225290D01*
X518084Y224681D01*
X519008Y224298D01*
X520000Y224167D01*
X520992Y224298D01*
X521916Y224681D01*
X522710Y225290D01*
X523319Y226084D01*
X523702Y227008D01*
X523833Y228000D01*
X523702Y228992D01*
X523457Y229583D01*
X545197Y251322D01*
X547803D01*
X589563Y209563D01*
X589993Y209275D01*
X590500Y209174D01*
X628577D01*
X628718Y208836D01*
X629246Y208146D01*
X629936Y207617D01*
X630738Y207285D01*
X631600Y207172D01*
X632462Y207285D01*
X633264Y207617D01*
X633954Y208146D01*
X634482Y208836D01*
X634815Y209639D01*
X634929Y210500D01*
X634815Y211362D01*
X634482Y212164D01*
X633954Y212854D01*
X633264Y213383D01*
X632462Y213715D01*
X631600Y213828D01*
X630738Y213715D01*
X629936Y213383D01*
X629246Y212854D01*
X628718Y212164D01*
X628577Y211825D01*
X591049D01*
X549678Y253197D01*
Y256862D01*
X549616Y257174D01*
X549439Y257439D01*
X549174Y257616D01*
X548862Y257678D01*
X547825D01*
Y276800D01*
X547725Y277307D01*
X547437Y277737D01*
X545825Y279349D01*
Y295184D01*
X547500D01*
X547812Y295246D01*
X548077Y295423D01*
X548254Y295688D01*
X548316Y296000D01*
Y302000D01*
X548254Y302312D01*
X548077Y302577D01*
X547812Y302754D01*
X547500Y302816D01*
D02*
G37*
G36*
X504000Y209000D02*
X501097D01*
X501103Y208956D01*
X501506Y207983D01*
X502147Y207147D01*
X502983Y206506D01*
X503956Y206103D01*
X504000Y206097D01*
Y209000D01*
D02*
G37*
G36*
X498000Y213816D02*
X492000D01*
X491688Y213754D01*
X491423Y213577D01*
X491246Y213312D01*
X491184Y213000D01*
Y207000D01*
X491246Y206688D01*
X491423Y206423D01*
X491688Y206246D01*
X492000Y206184D01*
X498000D01*
X498312Y206246D01*
X498577Y206423D01*
X498754Y206688D01*
X498816Y207000D01*
Y213000D01*
X498754Y213312D01*
X498577Y213577D01*
X498312Y213754D01*
X498000Y213816D01*
D02*
G37*
G36*
X585000Y210725D02*
Y208500D01*
X587225D01*
X586937Y209196D01*
X586398Y209898D01*
X585696Y210437D01*
X585000Y210725D01*
D02*
G37*
G36*
X185500Y233828D02*
X180500D01*
X179639Y233715D01*
X178836Y233383D01*
X178146Y232854D01*
X177618Y232164D01*
X177285Y231362D01*
X177172Y230500D01*
X177285Y229639D01*
X177618Y228836D01*
X178146Y228146D01*
X178836Y227618D01*
X179639Y227285D01*
X180500Y227171D01*
X185500D01*
X186362Y227285D01*
X187164Y227618D01*
X187854Y228146D01*
X188382Y228836D01*
X188523Y229174D01*
X257451D01*
X259546Y227079D01*
X259305Y226609D01*
X258957Y226255D01*
X258600Y226325D01*
X258093Y226225D01*
X257663Y225937D01*
X257551Y225826D01*
X173523D01*
X173382Y226164D01*
X172854Y226854D01*
X172164Y227382D01*
X171361Y227715D01*
X170500Y227829D01*
X169639Y227715D01*
X168836Y227382D01*
X168146Y226854D01*
X167617Y226164D01*
X167285Y225361D01*
X167172Y224500D01*
X167285Y223639D01*
X167617Y222836D01*
X168146Y222146D01*
X168836Y221618D01*
X169639Y221285D01*
X170500Y221171D01*
X171361Y221285D01*
X172164Y221618D01*
X172854Y222146D01*
X173382Y222836D01*
X173523Y223175D01*
X177132D01*
X177625Y222175D01*
X177618Y222164D01*
X177285Y221361D01*
X177172Y220500D01*
X177285Y219638D01*
X177618Y218836D01*
X178146Y218146D01*
X178836Y217618D01*
X179639Y217285D01*
X180500Y217172D01*
X185500D01*
X186362Y217285D01*
X187164Y217618D01*
X187854Y218146D01*
X188382Y218836D01*
X188523Y219175D01*
X257451D01*
X302063Y174563D01*
X302493Y174275D01*
X303000Y174174D01*
X328225D01*
X328565Y173175D01*
X328146Y172854D01*
X327618Y172164D01*
X327285Y171361D01*
X327171Y170500D01*
X327285Y169639D01*
X327618Y168836D01*
X328146Y168146D01*
X328836Y167617D01*
X329639Y167285D01*
X330500Y167172D01*
X335500D01*
X336362Y167285D01*
X337164Y167617D01*
X337854Y168146D01*
X338383Y168836D01*
X338715Y169639D01*
X338828Y170500D01*
X338715Y171361D01*
X338383Y172164D01*
X337854Y172854D01*
X337435Y173175D01*
X337775Y174174D01*
X342400D01*
X342907Y174275D01*
X343337Y174563D01*
X371249Y202474D01*
X475277D01*
X475418Y202136D01*
X475946Y201446D01*
X476636Y200918D01*
X477438Y200585D01*
X478300Y200471D01*
X479162Y200585D01*
X479964Y200918D01*
X480654Y201446D01*
X481182Y202136D01*
X481515Y202939D01*
X481629Y203800D01*
X481515Y204661D01*
X481182Y205464D01*
X480654Y206154D01*
X479964Y206682D01*
X479162Y207015D01*
X478300Y207129D01*
X477438Y207015D01*
X476636Y206682D01*
X475946Y206154D01*
X475418Y205464D01*
X475277Y205125D01*
X403614D01*
X403200Y206125D01*
X408449Y211374D01*
X409677D01*
X409818Y211036D01*
X410346Y210346D01*
X411036Y209818D01*
X411838Y209485D01*
X412700Y209371D01*
X413561Y209485D01*
X414364Y209818D01*
X415054Y210346D01*
X415583Y211036D01*
X415915Y211839D01*
X416028Y212700D01*
X415915Y213562D01*
X415583Y214364D01*
X415572Y214378D01*
X416065Y215378D01*
X450847D01*
X455025Y211200D01*
X454885Y210861D01*
X454772Y210000D01*
X454885Y209138D01*
X455218Y208336D01*
X455746Y207646D01*
X456436Y207118D01*
X457238Y206785D01*
X458100Y206672D01*
X458961Y206785D01*
X459764Y207118D01*
X460454Y207646D01*
X460983Y208336D01*
X461315Y209138D01*
X461428Y210000D01*
X461315Y210861D01*
X460983Y211664D01*
X460454Y212354D01*
X459764Y212882D01*
X458961Y213215D01*
X458100Y213329D01*
X457238Y213215D01*
X456900Y213075D01*
X452333Y217641D01*
X451903Y217928D01*
X451396Y218029D01*
X409604D01*
X409599Y218028D01*
X409595Y218029D01*
X338665Y217561D01*
X338169Y218558D01*
X338383Y218836D01*
X338715Y219638D01*
X338828Y220500D01*
X338715Y221361D01*
X338383Y222164D01*
X337854Y222854D01*
X337164Y223382D01*
X336362Y223715D01*
X335500Y223829D01*
X330500D01*
X329639Y223715D01*
X328836Y223382D01*
X328146Y222854D01*
X327618Y222164D01*
X327285Y221361D01*
X327171Y220500D01*
X327285Y219638D01*
X327618Y218836D01*
X327883Y218490D01*
X327441Y217487D01*
X273245Y217129D01*
X258937Y231437D01*
X258507Y231725D01*
X258000Y231825D01*
X188523D01*
X188382Y232164D01*
X187854Y232854D01*
X187164Y233383D01*
X186362Y233715D01*
X185500Y233828D01*
D02*
G37*
G36*
X335500D02*
X330500D01*
X329639Y233715D01*
X328836Y233383D01*
X328146Y232854D01*
X327618Y232164D01*
X327285Y231362D01*
X327171Y230500D01*
X327285Y229639D01*
X327618Y228836D01*
X328146Y228146D01*
X328836Y227618D01*
X329639Y227285D01*
X330500Y227171D01*
X335500D01*
X336362Y227285D01*
X337164Y227618D01*
X337854Y228146D01*
X338383Y228836D01*
X338715Y229639D01*
X338828Y230500D01*
X338715Y231362D01*
X338383Y232164D01*
X337854Y232854D01*
X337164Y233383D01*
X336362Y233715D01*
X335500Y233828D01*
D02*
G37*
G36*
X504000Y213903D02*
X503956Y213897D01*
X502983Y213494D01*
X502147Y212853D01*
X501506Y212017D01*
X501103Y211044D01*
X501097Y211000D01*
X504000D01*
Y213903D01*
D02*
G37*
G36*
X683000Y223829D02*
X682138Y223715D01*
X681336Y223382D01*
X680646Y222854D01*
X680118Y222164D01*
X679977Y221826D01*
X656023D01*
X655883Y222164D01*
X655354Y222854D01*
X654664Y223382D01*
X653862Y223715D01*
X653000Y223829D01*
X652139Y223715D01*
X651336Y223382D01*
X650646Y222854D01*
X650117Y222164D01*
X649785Y221361D01*
X649672Y220500D01*
X649785Y219638D01*
X650117Y218836D01*
X650646Y218146D01*
X651336Y217618D01*
X652139Y217285D01*
X653000Y217172D01*
X653862Y217285D01*
X654664Y217618D01*
X655354Y218146D01*
X655883Y218836D01*
X656023Y219175D01*
X679977D01*
X680118Y218836D01*
X680646Y218146D01*
X681336Y217618D01*
X682138Y217285D01*
X683000Y217172D01*
X683861Y217285D01*
X684664Y217618D01*
X685354Y218146D01*
X685883Y218836D01*
X686215Y219638D01*
X686329Y220500D01*
X686215Y221361D01*
X685883Y222164D01*
X685354Y222854D01*
X684664Y223382D01*
X683861Y223715D01*
X683000Y223829D01*
D02*
G37*
G36*
X144500Y182903D02*
Y180000D01*
X147403D01*
X147397Y180044D01*
X146994Y181017D01*
X146353Y181853D01*
X145517Y182494D01*
X144544Y182897D01*
X144500Y182903D01*
D02*
G37*
G36*
X185500Y193828D02*
X180500D01*
X179639Y193715D01*
X178836Y193383D01*
X178146Y192854D01*
X177618Y192164D01*
X177285Y191361D01*
X177172Y190500D01*
X177285Y189638D01*
X177618Y188836D01*
X178146Y188146D01*
X178836Y187618D01*
X179639Y187285D01*
X180500Y187171D01*
X185500D01*
X186362Y187285D01*
X187164Y187618D01*
X187854Y188146D01*
X188382Y188836D01*
X188715Y189638D01*
X188829Y190500D01*
X188715Y191361D01*
X188382Y192164D01*
X187854Y192854D01*
X187164Y193383D01*
X186362Y193715D01*
X185500Y193828D01*
D02*
G37*
G36*
Y183828D02*
X180500D01*
X179639Y183715D01*
X178836Y183382D01*
X178146Y182854D01*
X177618Y182164D01*
X177285Y181361D01*
X177172Y180500D01*
X177285Y179639D01*
X177618Y178836D01*
X178146Y178146D01*
X178836Y177618D01*
X179639Y177285D01*
X180500Y177172D01*
X185500D01*
X186362Y177285D01*
X187164Y177618D01*
X187854Y178146D01*
X188382Y178836D01*
X188715Y179639D01*
X188829Y180500D01*
X188715Y181361D01*
X188382Y182164D01*
X187854Y182854D01*
X187164Y183382D01*
X186362Y183715D01*
X185500Y183828D01*
D02*
G37*
G36*
X142500Y182903D02*
X142456Y182897D01*
X141483Y182494D01*
X140647Y181853D01*
X140006Y181017D01*
X139603Y180044D01*
X139597Y180000D01*
X142500D01*
Y182903D01*
D02*
G37*
G36*
X185500Y203829D02*
X180500D01*
X179639Y203715D01*
X178836Y203382D01*
X178146Y202854D01*
X177618Y202164D01*
X177285Y201361D01*
X177172Y200500D01*
X177285Y199638D01*
X177618Y198836D01*
X178146Y198146D01*
X178836Y197617D01*
X179639Y197285D01*
X180500Y197171D01*
X185500D01*
X186362Y197285D01*
X187164Y197617D01*
X187854Y198146D01*
X188382Y198836D01*
X188715Y199638D01*
X188829Y200500D01*
X188715Y201361D01*
X188382Y202164D01*
X187854Y202854D01*
X187164Y203382D01*
X186362Y203715D01*
X185500Y203829D01*
D02*
G37*
G36*
X587225Y206500D02*
X585000D01*
Y204275D01*
X585696Y204563D01*
X586398Y205102D01*
X586937Y205804D01*
X587225Y206500D01*
D02*
G37*
G36*
X506000Y213903D02*
Y210000D01*
Y206097D01*
X506044Y206103D01*
X507017Y206506D01*
X507853Y207147D01*
X508494Y207983D01*
X508781Y208675D01*
X543378D01*
X543970Y208000D01*
X544090Y207086D01*
X544443Y206235D01*
X545004Y205504D01*
X545735Y204943D01*
X546500Y204626D01*
Y208000D01*
Y211374D01*
X546058Y211191D01*
X546007Y211225D01*
X545500Y211326D01*
X508781D01*
X508494Y212017D01*
X507853Y212853D01*
X507017Y213494D01*
X506044Y213897D01*
X506000Y213903D01*
D02*
G37*
G36*
X550000Y200816D02*
X545000D01*
X544688Y200754D01*
X544423Y200577D01*
X544246Y200312D01*
X544184Y200000D01*
Y198826D01*
X426400D01*
X426400Y198826D01*
X425893Y198725D01*
X425463Y198437D01*
X373851Y146826D01*
X338103D01*
X337764Y147826D01*
X337996Y148004D01*
X338557Y148735D01*
X338874Y149500D01*
X333000D01*
Y150500D01*
X332000D01*
Y154030D01*
X330500D01*
X329586Y153910D01*
X328735Y153557D01*
X328004Y152996D01*
X327443Y152265D01*
X327261Y151825D01*
X188739D01*
X188557Y152265D01*
X187996Y152996D01*
X187265Y153557D01*
X186414Y153910D01*
X185500Y154030D01*
X184000D01*
Y150500D01*
Y146970D01*
X185500D01*
X186414Y147090D01*
X187265Y147443D01*
X187996Y148004D01*
X188557Y148735D01*
X188739Y149174D01*
X327261D01*
X327443Y148735D01*
X328004Y148004D01*
X328236Y147826D01*
X327897Y146826D01*
X318300D01*
X317793Y146725D01*
X317363Y146437D01*
X312751Y141825D01*
X188523D01*
X188382Y142164D01*
X187854Y142854D01*
X187164Y143383D01*
X186362Y143715D01*
X185500Y143828D01*
X180500D01*
X179639Y143715D01*
X178836Y143383D01*
X178146Y142854D01*
X177618Y142164D01*
X177285Y141361D01*
X177172Y140500D01*
X177285Y139638D01*
X177618Y138836D01*
X178146Y138146D01*
X178836Y137618D01*
X179639Y137285D01*
X180500Y137171D01*
X185500D01*
X186362Y137285D01*
X187164Y137618D01*
X187854Y138146D01*
X188382Y138836D01*
X188523Y139174D01*
X313300D01*
X313807Y139275D01*
X314237Y139563D01*
X318849Y144175D01*
X326655D01*
X327074Y143563D01*
X327219Y143175D01*
X327184Y143000D01*
Y138000D01*
X327246Y137688D01*
X327423Y137423D01*
X327688Y137246D01*
X328000Y137184D01*
X338000D01*
X338312Y137246D01*
X338577Y137423D01*
X338754Y137688D01*
X338816Y138000D01*
Y143000D01*
X338781Y143175D01*
X338926Y143563D01*
X339345Y144175D01*
X374400D01*
X374907Y144275D01*
X375337Y144563D01*
X426949Y196175D01*
X544184D01*
Y195000D01*
X544246Y194688D01*
X544423Y194423D01*
X544688Y194246D01*
X545000Y194184D01*
X550000D01*
X550312Y194246D01*
X550577Y194423D01*
X550754Y194688D01*
X550816Y195000D01*
Y196175D01*
X581126D01*
X581238Y195905D01*
X581745Y195245D01*
X582405Y194738D01*
X583175Y194419D01*
X584000Y194310D01*
X584826Y194419D01*
X585595Y194738D01*
X586255Y195245D01*
X586762Y195905D01*
X587081Y196675D01*
X587189Y197500D01*
X587081Y198326D01*
X586762Y199095D01*
X586255Y199755D01*
X585595Y200262D01*
X584826Y200581D01*
X584000Y200690D01*
X583175Y200581D01*
X582405Y200262D01*
X581745Y199755D01*
X581238Y199095D01*
X581126Y198826D01*
X550816D01*
Y200000D01*
X550754Y200312D01*
X550577Y200577D01*
X550312Y200754D01*
X550000Y200816D01*
D02*
G37*
G36*
X548500Y211374D02*
Y208000D01*
Y204626D01*
X549265Y204943D01*
X549996Y205504D01*
X550557Y206235D01*
X550704Y206589D01*
X566265Y206175D01*
X566282Y206178D01*
X566300Y206174D01*
X580910D01*
X581063Y205804D01*
X581602Y205102D01*
X582304Y204563D01*
X583000Y204275D01*
Y207500D01*
Y210725D01*
X582304Y210437D01*
X581602Y209898D01*
X581063Y209196D01*
X580910Y208825D01*
X566318D01*
X550775Y209239D01*
X550557Y209765D01*
X549996Y210496D01*
X549265Y211057D01*
X548500Y211374D01*
D02*
G37*
G36*
X185500Y243829D02*
X180500D01*
X179639Y243715D01*
X178836Y243383D01*
X178146Y242854D01*
X177618Y242164D01*
X177285Y241361D01*
X177172Y240500D01*
X177285Y239638D01*
X177618Y238836D01*
X178146Y238146D01*
X178836Y237617D01*
X179639Y237285D01*
X180500Y237172D01*
X185500D01*
X186362Y237285D01*
X187164Y237617D01*
X187854Y238146D01*
X188382Y238836D01*
X188715Y239638D01*
X188829Y240500D01*
X188715Y241361D01*
X188382Y242164D01*
X187854Y242854D01*
X187164Y243383D01*
X186362Y243715D01*
X185500Y243829D01*
D02*
G37*
G36*
X509403Y255500D02*
X506500D01*
Y252597D01*
X506544Y252603D01*
X507517Y253006D01*
X508353Y253647D01*
X508994Y254483D01*
X509397Y255456D01*
X509403Y255500D01*
D02*
G37*
G36*
X498500Y260316D02*
X492500D01*
X492188Y260254D01*
X491923Y260077D01*
X491746Y259812D01*
X491684Y259500D01*
Y253500D01*
X491746Y253188D01*
X491923Y252923D01*
X492188Y252746D01*
X492500Y252684D01*
X498500D01*
X498812Y252746D01*
X499077Y252923D01*
X499254Y253188D01*
X499316Y253500D01*
Y259500D01*
X499254Y259812D01*
X499077Y260077D01*
X498812Y260254D01*
X498500Y260316D01*
D02*
G37*
G36*
X664000Y260092D02*
X662000D01*
Y252551D01*
X672443D01*
X672377Y253218D01*
X671891Y254820D01*
X671102Y256296D01*
X670040Y257591D01*
X668745Y258653D01*
X667269Y259442D01*
X665666Y259928D01*
X664000Y260092D01*
D02*
G37*
G36*
X504500Y255500D02*
X501597D01*
X501603Y255456D01*
X502006Y254483D01*
X502647Y253647D01*
X503483Y253006D01*
X504456Y252603D01*
X504500Y252597D01*
Y255500D01*
D02*
G37*
G36*
X660000Y260092D02*
X658000D01*
X656334Y259928D01*
X654732Y259442D01*
X653255Y258653D01*
X651961Y257591D01*
X650898Y256296D01*
X650109Y254820D01*
X649623Y253218D01*
X649589Y252877D01*
X622198D01*
X619637Y255437D01*
X619207Y255725D01*
X618700Y255825D01*
X579590D01*
X579437Y256196D01*
X578898Y256898D01*
X578196Y257437D01*
X577500Y257725D01*
Y254500D01*
Y251275D01*
X578196Y251563D01*
X578898Y252102D01*
X579437Y252804D01*
X579590Y253174D01*
X618151D01*
X620712Y250614D01*
X621142Y250327D01*
X621649Y250226D01*
X649589D01*
X649623Y249885D01*
X650109Y248283D01*
X650898Y246806D01*
X651961Y245512D01*
X653255Y244449D01*
X654732Y243660D01*
X656334Y243174D01*
X658000Y243010D01*
X660000D01*
Y251551D01*
Y260092D01*
D02*
G37*
G36*
X575500Y257725D02*
X574804Y257437D01*
X574102Y256898D01*
X573563Y256196D01*
X573275Y255500D01*
X575500D01*
Y257725D01*
D02*
G37*
G36*
X185500Y263828D02*
X180500D01*
X179639Y263715D01*
X178836Y263383D01*
X178146Y262854D01*
X177618Y262164D01*
X177285Y261362D01*
X177172Y260500D01*
X177285Y259639D01*
X177618Y258836D01*
X178146Y258146D01*
X178836Y257617D01*
X179639Y257285D01*
X180500Y257172D01*
X185500D01*
X186362Y257285D01*
X187164Y257617D01*
X187854Y258146D01*
X188382Y258836D01*
X188715Y259639D01*
X188829Y260500D01*
X188715Y261362D01*
X188382Y262164D01*
X187854Y262854D01*
X187164Y263383D01*
X186362Y263715D01*
X185500Y263828D01*
D02*
G37*
G36*
X412500Y256382D02*
X411138D01*
X410748Y256304D01*
X410417Y256083D01*
X410196Y255752D01*
X410118Y255362D01*
Y254000D01*
X412500D01*
Y256382D01*
D02*
G37*
G36*
X415862D02*
X414500D01*
Y254000D01*
X416882D01*
Y255362D01*
X416804Y255752D01*
X416583Y256083D01*
X416252Y256304D01*
X415862Y256382D01*
D02*
G37*
G36*
X468500Y251333D02*
X467508Y251202D01*
X466584Y250819D01*
X465790Y250210D01*
X465181Y249416D01*
X464798Y248492D01*
X464667Y247500D01*
X464798Y246508D01*
X465181Y245584D01*
X465790Y244790D01*
X466584Y244181D01*
X467508Y243798D01*
X468500Y243667D01*
X469492Y243798D01*
X470416Y244181D01*
X471210Y244790D01*
X471819Y245584D01*
X472202Y246508D01*
X472333Y247500D01*
X472202Y248492D01*
X471819Y249416D01*
X471210Y250210D01*
X470416Y250819D01*
X469492Y251202D01*
X468500Y251333D01*
D02*
G37*
G36*
X185500Y253829D02*
X180500D01*
X179639Y253715D01*
X178836Y253382D01*
X178146Y252854D01*
X177618Y252164D01*
X177285Y251361D01*
X177172Y250500D01*
X177285Y249639D01*
X177618Y248836D01*
X178146Y248146D01*
X178836Y247618D01*
X179639Y247285D01*
X180500Y247171D01*
X185500D01*
X186362Y247285D01*
X187164Y247618D01*
X187854Y248146D01*
X188382Y248836D01*
X188715Y249639D01*
X188829Y250500D01*
X188715Y251361D01*
X188382Y252164D01*
X187854Y252854D01*
X187164Y253382D01*
X186362Y253715D01*
X185500Y253829D01*
D02*
G37*
G36*
X335500Y243829D02*
X330500D01*
X329639Y243715D01*
X328836Y243383D01*
X328146Y242854D01*
X327618Y242164D01*
X327285Y241361D01*
X327171Y240500D01*
X327285Y239638D01*
X327618Y238836D01*
X328146Y238146D01*
X328836Y237617D01*
X329639Y237285D01*
X330500Y237172D01*
X335500D01*
X336362Y237285D01*
X337164Y237617D01*
X337854Y238146D01*
X338383Y238836D01*
X338715Y239638D01*
X338828Y240500D01*
X338715Y241361D01*
X338383Y242164D01*
X337854Y242854D01*
X337164Y243383D01*
X336362Y243715D01*
X335500Y243829D01*
D02*
G37*
G36*
X672443Y250551D02*
X662000D01*
Y243010D01*
X664000D01*
X665666Y243174D01*
X667269Y243660D01*
X668745Y244449D01*
X670040Y245512D01*
X671102Y246806D01*
X671891Y248283D01*
X672377Y249885D01*
X672443Y250551D01*
D02*
G37*
G36*
X335500Y253829D02*
X330500D01*
X329639Y253715D01*
X328836Y253382D01*
X328146Y252854D01*
X327618Y252164D01*
X327285Y251361D01*
X327171Y250500D01*
X327285Y249639D01*
X327618Y248836D01*
X328146Y248146D01*
X328836Y247618D01*
X329639Y247285D01*
X330500Y247171D01*
X335500D01*
X336362Y247285D01*
X337164Y247618D01*
X337854Y248146D01*
X338383Y248836D01*
X338715Y249639D01*
X338828Y250500D01*
X338715Y251361D01*
X338383Y252164D01*
X337854Y252854D01*
X337164Y253382D01*
X336362Y253715D01*
X335500Y253829D01*
D02*
G37*
G36*
X416882Y252000D02*
X414500D01*
Y249618D01*
X415862D01*
X416252Y249696D01*
X416583Y249917D01*
X416804Y250248D01*
X416882Y250638D01*
Y252000D01*
D02*
G37*
G36*
X575500Y253500D02*
X573275D01*
X573563Y252804D01*
X574102Y252102D01*
X574804Y251563D01*
X575500Y251275D01*
Y253500D01*
D02*
G37*
G36*
X443500Y256189D02*
X442674Y256081D01*
X441905Y255762D01*
X441245Y255255D01*
X440738Y254595D01*
X440419Y253825D01*
X440310Y253000D01*
X440419Y252174D01*
X440531Y251905D01*
X437051Y248426D01*
X407323D01*
X407183Y248764D01*
X406654Y249454D01*
X405964Y249983D01*
X405162Y250315D01*
X404300Y250429D01*
X403439Y250315D01*
X402636Y249983D01*
X401946Y249454D01*
X401417Y248764D01*
X401085Y247961D01*
X400972Y247100D01*
X401085Y246238D01*
X401417Y245436D01*
X401946Y244746D01*
X402636Y244217D01*
X403439Y243885D01*
X404300Y243772D01*
X405162Y243885D01*
X405964Y244217D01*
X406654Y244746D01*
X407183Y245436D01*
X407323Y245775D01*
X437600D01*
X438107Y245875D01*
X438537Y246163D01*
X442405Y250031D01*
X442674Y249919D01*
X443500Y249811D01*
X444325Y249919D01*
X445095Y250238D01*
X445755Y250745D01*
X446262Y251405D01*
X446581Y252174D01*
X446690Y253000D01*
X446581Y253825D01*
X446262Y254595D01*
X445755Y255255D01*
X445095Y255762D01*
X444325Y256081D01*
X443500Y256189D01*
D02*
G37*
G36*
X412500Y252000D02*
X410118D01*
Y250638D01*
X410196Y250248D01*
X410417Y249917D01*
X410748Y249696D01*
X411138Y249618D01*
X412500D01*
Y252000D01*
D02*
G37*
G36*
X444931Y135551D02*
X440000D01*
Y130621D01*
X440176Y130638D01*
X441307Y130981D01*
X442349Y131538D01*
X443263Y132288D01*
X444013Y133202D01*
X444570Y134244D01*
X444913Y135375D01*
X444931Y135551D01*
D02*
G37*
G36*
X455300Y142379D02*
X454163Y142267D01*
X453070Y141936D01*
X452062Y141397D01*
X451179Y140672D01*
X450454Y139789D01*
X449916Y138781D01*
X449584Y137688D01*
X449472Y136551D01*
X449584Y135414D01*
X449916Y134321D01*
X450454Y133313D01*
X451179Y132430D01*
X452062Y131705D01*
X453070Y131167D01*
X454163Y130835D01*
X455300Y130723D01*
X456437Y130835D01*
X457530Y131167D01*
X458538Y131705D01*
X459421Y132430D01*
X460146Y133313D01*
X460684Y134321D01*
X461016Y135414D01*
X461128Y136551D01*
X461016Y137688D01*
X460684Y138781D01*
X460146Y139789D01*
X459421Y140672D01*
X458538Y141397D01*
X457530Y141936D01*
X456437Y142267D01*
X455300Y142379D01*
D02*
G37*
G36*
X472700Y144891D02*
X471073Y144731D01*
X469508Y144256D01*
X468067Y143486D01*
X466803Y142449D01*
X465765Y141185D01*
X464995Y139743D01*
X464520Y138178D01*
X464360Y136551D01*
X464520Y134924D01*
X464995Y133360D01*
X465765Y131918D01*
X466803Y130654D01*
X468067Y129617D01*
X469508Y128846D01*
X471073Y128371D01*
X472700Y128211D01*
X474327Y128371D01*
X475892Y128846D01*
X477333Y129617D01*
X478597Y130654D01*
X479635Y131918D01*
X480405Y133360D01*
X480880Y134924D01*
X481040Y136551D01*
X480880Y138178D01*
X480405Y139743D01*
X479635Y141185D01*
X478597Y142449D01*
X477333Y143486D01*
X475892Y144256D01*
X474327Y144731D01*
X472700Y144891D01*
D02*
G37*
G36*
X438000Y135551D02*
X433070D01*
X433087Y135375D01*
X433430Y134244D01*
X433987Y133202D01*
X434737Y132288D01*
X435650Y131538D01*
X436693Y130981D01*
X437824Y130638D01*
X438000Y130621D01*
Y135551D01*
D02*
G37*
G36*
X427700Y142367D02*
X417700D01*
X417388Y142305D01*
X417123Y142128D01*
X416946Y141863D01*
X416884Y141551D01*
Y131551D01*
X416946Y131239D01*
X417123Y130974D01*
X417388Y130798D01*
X417700Y130736D01*
X427700D01*
X428012Y130798D01*
X428277Y130974D01*
X428454Y131239D01*
X428516Y131551D01*
Y141551D01*
X428454Y141863D01*
X428277Y142128D01*
X428012Y142305D01*
X427700Y142367D01*
D02*
G37*
G36*
X438000Y142482D02*
X437824Y142464D01*
X436693Y142121D01*
X435650Y141564D01*
X434737Y140814D01*
X433987Y139901D01*
X433430Y138858D01*
X433087Y137727D01*
X433070Y137551D01*
X438000D01*
Y142482D01*
D02*
G37*
G36*
X440000D02*
Y137551D01*
X444931D01*
X444913Y137727D01*
X444570Y138858D01*
X444013Y139901D01*
X443263Y140814D01*
X442349Y141564D01*
X441307Y142121D01*
X440176Y142464D01*
X440000Y142482D01*
D02*
G37*
G36*
X577930Y145300D02*
X573000D01*
Y140369D01*
X573176Y140387D01*
X574307Y140730D01*
X575016Y141109D01*
X583109Y133017D01*
X582730Y132307D01*
X582387Y131176D01*
X582370Y131000D01*
X587300D01*
Y135931D01*
X587124Y135913D01*
X585993Y135570D01*
X584950Y135013D01*
X584902Y134973D01*
X576973Y142902D01*
X577013Y142950D01*
X577570Y143993D01*
X577913Y145124D01*
X577930Y145300D01*
D02*
G37*
G36*
X589300Y135931D02*
Y131000D01*
X594231D01*
X594213Y131176D01*
X593870Y132307D01*
X593313Y133350D01*
X592563Y134263D01*
X591649Y135013D01*
X590607Y135570D01*
X589476Y135913D01*
X589300Y135931D01*
D02*
G37*
G36*
X634500Y115000D02*
X631849D01*
X632219Y114106D01*
X632821Y113321D01*
X633606Y112719D01*
X634500Y112349D01*
Y115000D01*
D02*
G37*
G36*
X639151D02*
X636500D01*
Y112349D01*
X637394Y112719D01*
X638179Y113321D01*
X638781Y114106D01*
X639151Y115000D01*
D02*
G37*
G36*
X150000Y145845D02*
X147279Y145666D01*
X144605Y145134D01*
X142023Y144258D01*
X139578Y143052D01*
X137311Y141537D01*
X135261Y139739D01*
X133463Y137689D01*
X131948Y135422D01*
X130742Y132977D01*
X129866Y130395D01*
X129334Y127721D01*
X129155Y125000D01*
X129334Y122279D01*
X129866Y119605D01*
X130742Y117023D01*
X131948Y114578D01*
X133463Y112311D01*
X135261Y110261D01*
X137311Y108463D01*
X139578Y106948D01*
X142023Y105742D01*
X144605Y104866D01*
X147279Y104334D01*
X150000Y104155D01*
X152721Y104334D01*
X155395Y104866D01*
X157977Y105742D01*
X160422Y106948D01*
X162689Y108463D01*
X164739Y110261D01*
X166537Y112311D01*
X168052Y114578D01*
X169258Y117023D01*
X170134Y119605D01*
X170666Y122279D01*
X170845Y125000D01*
X170666Y127721D01*
X170134Y130395D01*
X169258Y132977D01*
X168052Y135422D01*
X166537Y137689D01*
X164739Y139739D01*
X162689Y141537D01*
X160422Y143052D01*
X157977Y144258D01*
X155395Y145134D01*
X152721Y145666D01*
X150000Y145845D01*
D02*
G37*
G36*
X675000D02*
X672279Y145666D01*
X669605Y145134D01*
X667023Y144258D01*
X664578Y143052D01*
X662311Y141537D01*
X660261Y139739D01*
X658463Y137689D01*
X656948Y135422D01*
X655742Y132977D01*
X654866Y130395D01*
X654334Y127721D01*
X654155Y125000D01*
X654334Y122279D01*
X654866Y119605D01*
X655742Y117023D01*
X656948Y114578D01*
X658463Y112311D01*
X660261Y110261D01*
X662311Y108463D01*
X664578Y106948D01*
X667023Y105742D01*
X669605Y104866D01*
X672279Y104334D01*
X675000Y104155D01*
X677721Y104334D01*
X680395Y104866D01*
X682977Y105742D01*
X685422Y106948D01*
X687689Y108463D01*
X689739Y110261D01*
X691537Y112311D01*
X693052Y114578D01*
X694258Y117023D01*
X695134Y119605D01*
X695666Y122279D01*
X695845Y125000D01*
X695666Y127721D01*
X695134Y130395D01*
X694258Y132977D01*
X693052Y135422D01*
X691537Y137689D01*
X689739Y139739D01*
X687689Y141537D01*
X685422Y143052D01*
X682977Y144258D01*
X680395Y145134D01*
X677721Y145666D01*
X675000Y145845D01*
D02*
G37*
G36*
X193500Y121833D02*
X192508Y121702D01*
X191584Y121319D01*
X190790Y120710D01*
X190181Y119916D01*
X189798Y118992D01*
X189667Y118000D01*
X189798Y117008D01*
X190181Y116084D01*
X190790Y115290D01*
X191584Y114681D01*
X192508Y114298D01*
X193500Y114167D01*
X194492Y114298D01*
X195416Y114681D01*
X196210Y115290D01*
X196819Y116084D01*
X197202Y117008D01*
X197333Y118000D01*
X197202Y118992D01*
X196819Y119916D01*
X196210Y120710D01*
X195416Y121319D01*
X194492Y121702D01*
X193500Y121833D01*
D02*
G37*
G36*
X587300Y129000D02*
X582370D01*
X582387Y128824D01*
X582730Y127693D01*
X583287Y126651D01*
X584037Y125737D01*
X584950Y124987D01*
X585993Y124430D01*
X587124Y124087D01*
X587300Y124069D01*
Y129000D01*
D02*
G37*
G36*
X577000Y135816D02*
X567000D01*
X566688Y135754D01*
X566423Y135577D01*
X566246Y135312D01*
X566184Y135000D01*
Y125000D01*
X566246Y124688D01*
X566423Y124423D01*
X566688Y124246D01*
X567000Y124184D01*
X577000D01*
X577312Y124246D01*
X577577Y124423D01*
X577754Y124688D01*
X577816Y125000D01*
Y135000D01*
X577754Y135312D01*
X577577Y135577D01*
X577312Y135754D01*
X577000Y135816D01*
D02*
G37*
G36*
X594231Y129000D02*
X589300D01*
Y124069D01*
X589476Y124087D01*
X590607Y124430D01*
X591317Y124809D01*
X594363Y121763D01*
X594793Y121475D01*
X595300Y121374D01*
X610414D01*
X610677Y120973D01*
X610840Y120375D01*
X610394Y119793D01*
X610036Y118928D01*
X609913Y118000D01*
X610036Y117072D01*
X610394Y116207D01*
X610964Y115464D01*
X611707Y114894D01*
X612572Y114536D01*
X613500Y114413D01*
X614428Y114536D01*
X615293Y114894D01*
X616036Y115464D01*
X616606Y116207D01*
X616964Y117072D01*
X617087Y118000D01*
X616964Y118928D01*
X616606Y119793D01*
X616160Y120375D01*
X616323Y120973D01*
X616586Y121374D01*
X628251D01*
X632076Y117549D01*
X631849Y117000D01*
X634500D01*
Y119651D01*
X633951Y119424D01*
X629737Y123637D01*
X629307Y123925D01*
X628800Y124025D01*
X595849D01*
X593273Y126602D01*
X593313Y126651D01*
X593870Y127693D01*
X594213Y128824D01*
X594231Y129000D01*
D02*
G37*
G36*
X636500Y119651D02*
Y117000D01*
X639151D01*
X638781Y117894D01*
X638179Y118679D01*
X637394Y119281D01*
X636500Y119651D01*
D02*
G37*
G36*
X571000Y145300D02*
X566070D01*
X566087Y145124D01*
X566430Y143993D01*
X566987Y142950D01*
X567737Y142037D01*
X568650Y141287D01*
X569693Y140730D01*
X570824Y140387D01*
X571000Y140369D01*
Y145300D01*
D02*
G37*
G36*
X506000Y163903D02*
Y161000D01*
X508903D01*
X508897Y161044D01*
X508494Y162017D01*
X507853Y162853D01*
X507017Y163494D01*
X506044Y163897D01*
X506000Y163903D01*
D02*
G37*
G36*
X571000Y172945D02*
X570236Y172870D01*
X568539Y172355D01*
X566976Y171519D01*
X565605Y170395D01*
X564481Y169024D01*
X563645Y167461D01*
X563130Y165764D01*
X563055Y165000D01*
X571000D01*
Y172945D01*
D02*
G37*
G36*
X335500Y163829D02*
X330500D01*
X329639Y163715D01*
X328836Y163382D01*
X328146Y162854D01*
X327618Y162164D01*
X327285Y161362D01*
X327171Y160500D01*
X327285Y159639D01*
X327618Y158836D01*
X328146Y158146D01*
X328836Y157617D01*
X329639Y157285D01*
X330500Y157171D01*
X335500D01*
X336362Y157285D01*
X337164Y157617D01*
X337854Y158146D01*
X338383Y158836D01*
X338715Y159639D01*
X338828Y160500D01*
X338715Y161362D01*
X338383Y162164D01*
X337854Y162854D01*
X337164Y163382D01*
X336362Y163715D01*
X335500Y163829D01*
D02*
G37*
G36*
X504000Y163903D02*
X503956Y163897D01*
X502983Y163494D01*
X502147Y162853D01*
X501506Y162017D01*
X501103Y161044D01*
X501097Y161000D01*
X504000D01*
Y163903D01*
D02*
G37*
G36*
X573000Y172945D02*
Y165000D01*
X580945D01*
X580870Y165764D01*
X580355Y167461D01*
X579519Y169024D01*
X578395Y170395D01*
X577024Y171519D01*
X575461Y172355D01*
X573764Y172870D01*
X573000Y172945D01*
D02*
G37*
G36*
X142500Y178000D02*
X139597D01*
X139603Y177956D01*
X140006Y176983D01*
X140647Y176147D01*
X141483Y175506D01*
X142456Y175103D01*
X142500Y175097D01*
Y178000D01*
D02*
G37*
G36*
X147403D02*
X144500D01*
Y175097D01*
X144544Y175103D01*
X145517Y175506D01*
X146353Y176147D01*
X146994Y176983D01*
X147397Y177956D01*
X147403Y178000D01*
D02*
G37*
G36*
X185500Y173828D02*
X180500D01*
X179639Y173715D01*
X178836Y173382D01*
X178146Y172854D01*
X177618Y172164D01*
X177285Y171361D01*
X177172Y170500D01*
X177285Y169639D01*
X177618Y168836D01*
X178146Y168146D01*
X178836Y167617D01*
X179639Y167285D01*
X180500Y167172D01*
X185500D01*
X186362Y167285D01*
X187164Y167617D01*
X187854Y168146D01*
X188382Y168836D01*
X188715Y169639D01*
X188829Y170500D01*
X188715Y171361D01*
X188382Y172164D01*
X187854Y172854D01*
X187164Y173382D01*
X186362Y173715D01*
X185500Y173828D01*
D02*
G37*
G36*
X613500Y181587D02*
X612572Y181464D01*
X611707Y181106D01*
X610964Y180536D01*
X610394Y179793D01*
X610036Y178928D01*
X609913Y178000D01*
X610036Y177072D01*
X610394Y176207D01*
X610964Y175464D01*
X611707Y174894D01*
X612572Y174536D01*
X613500Y174413D01*
X614428Y174536D01*
X615002Y174774D01*
X615500Y174674D01*
X632200D01*
X632394Y174207D01*
X632964Y173464D01*
X633707Y172894D01*
X634572Y172536D01*
X635500Y172413D01*
X636428Y172536D01*
X637293Y172894D01*
X638036Y173464D01*
X638606Y174207D01*
X638964Y175072D01*
X639087Y176000D01*
X638964Y176928D01*
X638606Y177793D01*
X638036Y178536D01*
X637293Y179106D01*
X636428Y179464D01*
X635500Y179587D01*
X634572Y179464D01*
X633707Y179106D01*
X632964Y178536D01*
X632394Y177793D01*
X632200Y177325D01*
X617678D01*
X617087Y178000D01*
X616964Y178928D01*
X616606Y179793D01*
X616036Y180536D01*
X615293Y181106D01*
X614428Y181464D01*
X613500Y181587D01*
D02*
G37*
G36*
X580945Y163000D02*
X572000D01*
X563055D01*
X563130Y162236D01*
X563645Y160539D01*
X564481Y158976D01*
X565605Y157605D01*
X566976Y156481D01*
X568539Y155645D01*
X570236Y155130D01*
X570675Y155087D01*
Y152168D01*
X569693Y151870D01*
X568650Y151313D01*
X567737Y150563D01*
X566987Y149650D01*
X566430Y148607D01*
X566087Y147476D01*
X566070Y147300D01*
X572000D01*
X577930D01*
X577913Y147476D01*
X577570Y148607D01*
X577013Y149650D01*
X576263Y150563D01*
X575350Y151313D01*
X574307Y151870D01*
X573325Y152168D01*
Y155087D01*
X573764Y155130D01*
X575461Y155645D01*
X577024Y156481D01*
X578395Y157605D01*
X579519Y158976D01*
X580355Y160539D01*
X580870Y162236D01*
X580945Y163000D01*
D02*
G37*
G36*
X182000Y154030D02*
X180500D01*
X179586Y153910D01*
X178735Y153557D01*
X178004Y152996D01*
X177443Y152265D01*
X177126Y151500D01*
X182000D01*
Y154030D01*
D02*
G37*
G36*
X588300Y152128D02*
X587163Y152016D01*
X586070Y151684D01*
X585062Y151146D01*
X584179Y150421D01*
X583454Y149538D01*
X582916Y148530D01*
X582584Y147437D01*
X582472Y146300D01*
X582584Y145163D01*
X582916Y144070D01*
X583454Y143062D01*
X584179Y142179D01*
X585062Y141454D01*
X586070Y140916D01*
X587163Y140584D01*
X588300Y140472D01*
X589437Y140584D01*
X590530Y140916D01*
X591538Y141454D01*
X592421Y142179D01*
X593146Y143062D01*
X593684Y144070D01*
X594016Y145163D01*
X594128Y146300D01*
X594016Y147437D01*
X593684Y148530D01*
X593146Y149538D01*
X592421Y150421D01*
X591538Y151146D01*
X590530Y151684D01*
X589437Y152016D01*
X588300Y152128D01*
D02*
G37*
G36*
X182000Y149500D02*
X177126D01*
X177443Y148735D01*
X178004Y148004D01*
X178735Y147443D01*
X179586Y147090D01*
X180500Y146970D01*
X182000D01*
Y149500D01*
D02*
G37*
G36*
X335500Y154030D02*
X334000D01*
Y151500D01*
X338874D01*
X338557Y152265D01*
X337996Y152996D01*
X337265Y153557D01*
X336414Y153910D01*
X335500Y154030D01*
D02*
G37*
G36*
X498000Y163816D02*
X492000D01*
X491688Y163754D01*
X491423Y163577D01*
X491246Y163312D01*
X491184Y163000D01*
Y157000D01*
X491246Y156688D01*
X491423Y156423D01*
X491688Y156246D01*
X492000Y156184D01*
X498000D01*
X498312Y156246D01*
X498577Y156423D01*
X498754Y156688D01*
X498816Y157000D01*
Y163000D01*
X498754Y163312D01*
X498577Y163577D01*
X498312Y163754D01*
X498000Y163816D01*
D02*
G37*
G36*
X185500Y163829D02*
X180500D01*
X179639Y163715D01*
X178836Y163382D01*
X178146Y162854D01*
X177618Y162164D01*
X177285Y161362D01*
X177172Y160500D01*
X177285Y159639D01*
X177618Y158836D01*
X178146Y158146D01*
X178836Y157617D01*
X179639Y157285D01*
X180500Y157171D01*
X185500D01*
X186362Y157285D01*
X187164Y157617D01*
X187854Y158146D01*
X188382Y158836D01*
X188715Y159639D01*
X188829Y160500D01*
X188715Y161362D01*
X188382Y162164D01*
X187854Y162854D01*
X187164Y163382D01*
X186362Y163715D01*
X185500Y163829D01*
D02*
G37*
G36*
X504000Y159000D02*
X501097D01*
X501103Y158956D01*
X501506Y157983D01*
X502147Y157147D01*
X502983Y156506D01*
X503956Y156103D01*
X504000Y156097D01*
Y159000D01*
D02*
G37*
G36*
X508903D02*
X506000D01*
Y156097D01*
X506044Y156103D01*
X507017Y156506D01*
X507853Y157147D01*
X508494Y157983D01*
X508897Y158956D01*
X508903Y159000D01*
D02*
G37*
G36*
X335500Y263828D02*
X330500D01*
X329639Y263715D01*
X328836Y263383D01*
X328146Y262854D01*
X327618Y262164D01*
X327285Y261362D01*
X327171Y260500D01*
X327285Y259639D01*
X327618Y258836D01*
X328146Y258146D01*
X328836Y257617D01*
X329639Y257285D01*
X330500Y257172D01*
X335500D01*
X336362Y257285D01*
X337164Y257617D01*
X337854Y258146D01*
X338383Y258836D01*
X338715Y259639D01*
X338828Y260500D01*
X338715Y261362D01*
X338383Y262164D01*
X337854Y262854D01*
X337164Y263383D01*
X336362Y263715D01*
X335500Y263828D01*
D02*
G37*
G36*
X594500Y384036D02*
X593030Y383892D01*
X591616Y383463D01*
X590313Y382766D01*
X589171Y381829D01*
X588234Y380687D01*
X587537Y379384D01*
X587109Y377970D01*
X586968Y376543D01*
X561026D01*
Y377500D01*
X560923Y378283D01*
X560620Y379013D01*
X560140Y379640D01*
X559513Y380120D01*
X558783Y380423D01*
X558000Y380526D01*
X546000D01*
X545217Y380423D01*
X544487Y380120D01*
X543860Y379640D01*
X543379Y379013D01*
X543077Y378283D01*
X542974Y377500D01*
Y365500D01*
X543077Y364717D01*
X543379Y363987D01*
X543860Y363360D01*
X544487Y362879D01*
X545217Y362577D01*
X546000Y362474D01*
X558000D01*
X558783Y362577D01*
X559513Y362879D01*
X560140Y363360D01*
X560620Y363987D01*
X560923Y364717D01*
X561026Y365500D01*
Y366457D01*
X589500D01*
X590805Y366629D01*
X592022Y367132D01*
X593066Y367934D01*
X594132Y369000D01*
X594500Y368964D01*
X595970Y369109D01*
X597384Y369537D01*
X598687Y370234D01*
X599829Y371171D01*
X600766Y372313D01*
X601463Y373616D01*
X601892Y375030D01*
X602036Y376500D01*
X601892Y377970D01*
X601463Y379384D01*
X600766Y380687D01*
X599829Y381829D01*
X598687Y382766D01*
X597384Y383463D01*
X595970Y383892D01*
X594500Y384036D01*
D02*
G37*
G36*
X185500Y383828D02*
X180500D01*
X179639Y383715D01*
X178836Y383383D01*
X178146Y382854D01*
X177618Y382164D01*
X177285Y381362D01*
X177172Y380500D01*
X177285Y379639D01*
X177618Y378836D01*
X178146Y378146D01*
X178836Y377618D01*
X179639Y377285D01*
X180500Y377171D01*
X185500D01*
X186362Y377285D01*
X187164Y377618D01*
X187854Y378146D01*
X188382Y378836D01*
X188715Y379639D01*
X188829Y380500D01*
X188715Y381362D01*
X188382Y382164D01*
X187854Y382854D01*
X187164Y383383D01*
X186362Y383715D01*
X185500Y383828D01*
D02*
G37*
G36*
Y373829D02*
X180500D01*
X179639Y373715D01*
X178836Y373382D01*
X178146Y372854D01*
X177618Y372164D01*
X177285Y371361D01*
X177172Y370500D01*
X177285Y369638D01*
X177618Y368836D01*
X178146Y368146D01*
X178836Y367618D01*
X179639Y367285D01*
X180500Y367172D01*
X185500D01*
X186362Y367285D01*
X187164Y367618D01*
X187854Y368146D01*
X188382Y368836D01*
X188715Y369638D01*
X188829Y370500D01*
X188715Y371361D01*
X188382Y372164D01*
X187854Y372854D01*
X187164Y373382D01*
X186362Y373715D01*
X185500Y373829D01*
D02*
G37*
G36*
X335500D02*
X330500D01*
X329639Y373715D01*
X328836Y373382D01*
X328146Y372854D01*
X327618Y372164D01*
X327285Y371361D01*
X327171Y370500D01*
X327285Y369638D01*
X327618Y368836D01*
X328146Y368146D01*
X328836Y367618D01*
X329639Y367285D01*
X330500Y367172D01*
X335500D01*
X336362Y367285D01*
X337164Y367618D01*
X337854Y368146D01*
X338383Y368836D01*
X338715Y369638D01*
X338828Y370500D01*
X338715Y371361D01*
X338383Y372164D01*
X337854Y372854D01*
X337164Y373382D01*
X336362Y373715D01*
X335500Y373829D01*
D02*
G37*
G36*
Y383828D02*
X330500D01*
X329639Y383715D01*
X328836Y383383D01*
X328146Y382854D01*
X327618Y382164D01*
X327285Y381362D01*
X327171Y380500D01*
X327285Y379639D01*
X327618Y378836D01*
X328146Y378146D01*
X328836Y377618D01*
X329639Y377285D01*
X330500Y377171D01*
X335500D01*
X336362Y377285D01*
X337164Y377618D01*
X337854Y378146D01*
X338383Y378836D01*
X338715Y379639D01*
X338828Y380500D01*
X338715Y381362D01*
X338383Y382164D01*
X337854Y382854D01*
X337164Y383383D01*
X336362Y383715D01*
X335500Y383828D01*
D02*
G37*
G36*
X552000Y405544D02*
X550236Y405370D01*
X548539Y404855D01*
X546976Y404019D01*
X545605Y402895D01*
X544481Y401524D01*
X543645Y399961D01*
X543130Y398264D01*
X542956Y396500D01*
X543130Y394736D01*
X543645Y393039D01*
X544481Y391476D01*
X545605Y390105D01*
X546976Y388981D01*
X548539Y388145D01*
X550236Y387630D01*
X552000Y387456D01*
X553764Y387630D01*
X555461Y388145D01*
X557024Y388981D01*
X558395Y390105D01*
X559519Y391476D01*
X560355Y393039D01*
X560870Y394736D01*
X561044Y396500D01*
X560870Y398264D01*
X560355Y399961D01*
X559519Y401524D01*
X558395Y402895D01*
X557024Y404019D01*
X555461Y404855D01*
X553764Y405370D01*
X552000Y405544D01*
D02*
G37*
G36*
X185500Y403828D02*
X180500D01*
X179639Y403715D01*
X178836Y403382D01*
X178146Y402854D01*
X177618Y402164D01*
X177285Y401362D01*
X177172Y400500D01*
X177285Y399639D01*
X177618Y398836D01*
X178146Y398146D01*
X178836Y397618D01*
X179639Y397285D01*
X180500Y397171D01*
X185500D01*
X186362Y397285D01*
X187164Y397618D01*
X187854Y398146D01*
X188382Y398836D01*
X188715Y399639D01*
X188829Y400500D01*
X188715Y401362D01*
X188382Y402164D01*
X187854Y402854D01*
X187164Y403382D01*
X186362Y403715D01*
X185500Y403828D01*
D02*
G37*
G36*
Y393829D02*
X180500D01*
X179639Y393715D01*
X178836Y393383D01*
X178146Y392854D01*
X177618Y392164D01*
X177285Y391361D01*
X177172Y390500D01*
X177285Y389638D01*
X177618Y388836D01*
X178146Y388146D01*
X178836Y387617D01*
X179639Y387285D01*
X180500Y387172D01*
X185500D01*
X186362Y387285D01*
X187164Y387617D01*
X187854Y388146D01*
X188382Y388836D01*
X188715Y389638D01*
X188829Y390500D01*
X188715Y391361D01*
X188382Y392164D01*
X187854Y392854D01*
X187164Y393383D01*
X186362Y393715D01*
X185500Y393829D01*
D02*
G37*
G36*
X335500D02*
X330500D01*
X329639Y393715D01*
X328836Y393383D01*
X328146Y392854D01*
X327618Y392164D01*
X327285Y391361D01*
X327171Y390500D01*
X327285Y389638D01*
X327618Y388836D01*
X328146Y388146D01*
X328836Y387617D01*
X329639Y387285D01*
X330500Y387172D01*
X335500D01*
X336362Y387285D01*
X337164Y387617D01*
X337854Y388146D01*
X338383Y388836D01*
X338715Y389638D01*
X338828Y390500D01*
X338715Y391361D01*
X338383Y392164D01*
X337854Y392854D01*
X337164Y393383D01*
X336362Y393715D01*
X335500Y393829D01*
D02*
G37*
G36*
Y363828D02*
X330500D01*
X329639Y363715D01*
X328836Y363383D01*
X328146Y362854D01*
X327618Y362164D01*
X327285Y361362D01*
X327171Y360500D01*
X327285Y359639D01*
X327618Y358836D01*
X328146Y358146D01*
X328836Y357617D01*
X329639Y357285D01*
X330500Y357172D01*
X335500D01*
X336362Y357285D01*
X337164Y357617D01*
X337854Y358146D01*
X338383Y358836D01*
X338715Y359639D01*
X338828Y360500D01*
X338715Y361362D01*
X338383Y362164D01*
X337854Y362854D01*
X337164Y363383D01*
X336362Y363715D01*
X335500Y363828D01*
D02*
G37*
G36*
X504000Y349000D02*
X501097D01*
X501103Y348956D01*
X501506Y347983D01*
X502147Y347147D01*
X502983Y346506D01*
X503956Y346103D01*
X504000Y346097D01*
Y349000D01*
D02*
G37*
G36*
X508903D02*
X506000D01*
Y346097D01*
X506044Y346103D01*
X507017Y346506D01*
X507853Y347147D01*
X508494Y347983D01*
X508897Y348956D01*
X508903Y349000D01*
D02*
G37*
G36*
X335500Y343829D02*
X330500D01*
X329639Y343715D01*
X328836Y343383D01*
X328146Y342854D01*
X327618Y342164D01*
X327285Y341361D01*
X327171Y340500D01*
X327285Y339638D01*
X327618Y338836D01*
X328146Y338146D01*
X328836Y337617D01*
X329639Y337285D01*
X330500Y337172D01*
X335500D01*
X336362Y337285D01*
X337164Y337617D01*
X337854Y338146D01*
X338383Y338836D01*
X338715Y339638D01*
X338828Y340500D01*
X338715Y341361D01*
X338383Y342164D01*
X337854Y342854D01*
X337164Y343383D01*
X336362Y343715D01*
X335500Y343829D01*
D02*
G37*
G36*
X568500Y349087D02*
X567572Y348964D01*
X566707Y348606D01*
X565964Y348036D01*
X565394Y347293D01*
X565036Y346428D01*
X564913Y345500D01*
X565036Y344572D01*
X565394Y343707D01*
X565964Y342964D01*
X566707Y342394D01*
X567572Y342036D01*
X568500Y341913D01*
X569428Y342036D01*
X570293Y342394D01*
X571036Y342964D01*
X571606Y343707D01*
X571964Y344572D01*
X572087Y345500D01*
X571964Y346428D01*
X571606Y347293D01*
X571036Y348036D01*
X570293Y348606D01*
X569428Y348964D01*
X568500Y349087D01*
D02*
G37*
G36*
X498000Y353816D02*
X492000D01*
X491688Y353754D01*
X491423Y353577D01*
X491246Y353312D01*
X491184Y353000D01*
Y347000D01*
X491246Y346688D01*
X491423Y346423D01*
X491688Y346246D01*
X492000Y346184D01*
X498000D01*
X498312Y346246D01*
X498577Y346423D01*
X498754Y346688D01*
X498816Y347000D01*
Y353000D01*
X498754Y353312D01*
X498577Y353577D01*
X498312Y353754D01*
X498000Y353816D01*
D02*
G37*
G36*
X506000Y353903D02*
Y351000D01*
X508903D01*
X508897Y351044D01*
X508494Y352017D01*
X507853Y352853D01*
X507017Y353494D01*
X506044Y353897D01*
X506000Y353903D01*
D02*
G37*
G36*
X185500Y363828D02*
X180500D01*
X179639Y363715D01*
X178836Y363383D01*
X178146Y362854D01*
X177618Y362164D01*
X177285Y361362D01*
X177172Y360500D01*
X177285Y359639D01*
X177618Y358836D01*
X178146Y358146D01*
X178836Y357617D01*
X179639Y357285D01*
X180500Y357172D01*
X185500D01*
X186362Y357285D01*
X187164Y357617D01*
X187854Y358146D01*
X188382Y358836D01*
X188715Y359639D01*
X188829Y360500D01*
X188715Y361362D01*
X188382Y362164D01*
X187854Y362854D01*
X187164Y363383D01*
X186362Y363715D01*
X185500Y363828D01*
D02*
G37*
G36*
Y353829D02*
X180500D01*
X179639Y353715D01*
X178836Y353382D01*
X178146Y352854D01*
X177618Y352164D01*
X177285Y351361D01*
X177172Y350500D01*
X177285Y349639D01*
X177618Y348836D01*
X178146Y348146D01*
X178836Y347618D01*
X179639Y347285D01*
X180500Y347171D01*
X185500D01*
X186362Y347285D01*
X187164Y347618D01*
X187854Y348146D01*
X188382Y348836D01*
X188715Y349639D01*
X188829Y350500D01*
X188715Y351361D01*
X188382Y352164D01*
X187854Y352854D01*
X187164Y353382D01*
X186362Y353715D01*
X185500Y353829D01*
D02*
G37*
G36*
X504000Y353903D02*
X503956Y353897D01*
X502983Y353494D01*
X502147Y352853D01*
X501506Y352017D01*
X501103Y351044D01*
X501097Y351000D01*
X504000D01*
Y353903D01*
D02*
G37*
G36*
X150000Y495845D02*
X147279Y495666D01*
X144605Y495134D01*
X142023Y494258D01*
X139578Y493052D01*
X137311Y491537D01*
X135261Y489739D01*
X133463Y487689D01*
X131948Y485422D01*
X130742Y482977D01*
X129866Y480395D01*
X129334Y477721D01*
X129155Y475000D01*
X129334Y472279D01*
X129866Y469605D01*
X130742Y467023D01*
X131948Y464578D01*
X133463Y462311D01*
X135261Y460261D01*
X137311Y458463D01*
X139578Y456948D01*
X142023Y455742D01*
X144605Y454866D01*
X147279Y454334D01*
X150000Y454155D01*
X152721Y454334D01*
X155395Y454866D01*
X157977Y455742D01*
X160422Y456948D01*
X162689Y458463D01*
X164739Y460261D01*
X166537Y462311D01*
X168052Y464578D01*
X169258Y467023D01*
X170134Y469605D01*
X170666Y472279D01*
X170845Y475000D01*
X170666Y477721D01*
X170134Y480395D01*
X169258Y482977D01*
X168052Y485422D01*
X166537Y487689D01*
X164739Y489739D01*
X162689Y491537D01*
X160422Y493052D01*
X157977Y494258D01*
X155395Y495134D01*
X152721Y495666D01*
X150000Y495845D01*
D02*
G37*
G36*
X332000Y459500D02*
X327126D01*
X327443Y458735D01*
X328004Y458004D01*
X328735Y457443D01*
X329586Y457090D01*
X330500Y456970D01*
X332000D01*
Y459500D01*
D02*
G37*
G36*
X185500Y453828D02*
X180500D01*
X179639Y453715D01*
X178836Y453382D01*
X178146Y452854D01*
X177618Y452164D01*
X177285Y451362D01*
X177172Y450500D01*
X177285Y449639D01*
X177618Y448836D01*
X178146Y448146D01*
X178836Y447617D01*
X179639Y447285D01*
X180500Y447171D01*
X185500D01*
X186362Y447285D01*
X187164Y447617D01*
X187854Y448146D01*
X188382Y448836D01*
X188715Y449639D01*
X188829Y450500D01*
X188715Y451362D01*
X188382Y452164D01*
X187854Y452854D01*
X187164Y453382D01*
X186362Y453715D01*
X185500Y453828D01*
D02*
G37*
G36*
X335500D02*
X330500D01*
X329639Y453715D01*
X328836Y453382D01*
X328146Y452854D01*
X327618Y452164D01*
X327285Y451362D01*
X327171Y450500D01*
X327285Y449639D01*
X327618Y448836D01*
X328146Y448146D01*
X328836Y447617D01*
X329639Y447285D01*
X330500Y447171D01*
X335500D01*
X336362Y447285D01*
X337164Y447617D01*
X337854Y448146D01*
X338383Y448836D01*
X338715Y449639D01*
X338828Y450500D01*
X338715Y451362D01*
X338383Y452164D01*
X337854Y452854D01*
X337164Y453382D01*
X336362Y453715D01*
X335500Y453828D01*
D02*
G37*
G36*
X338874Y459500D02*
X334000D01*
Y456970D01*
X335500D01*
X336414Y457090D01*
X337265Y457443D01*
X337996Y458004D01*
X338557Y458735D01*
X338874Y459500D01*
D02*
G37*
G36*
X335500Y464030D02*
X334000D01*
Y461500D01*
X338874D01*
X338557Y462265D01*
X337996Y462996D01*
X337265Y463557D01*
X336414Y463910D01*
X335500Y464030D01*
D02*
G37*
G36*
X675000Y495845D02*
X672279Y495666D01*
X669605Y495134D01*
X667023Y494258D01*
X664578Y493052D01*
X662311Y491537D01*
X660261Y489739D01*
X658463Y487689D01*
X656948Y485422D01*
X655742Y482977D01*
X654866Y480395D01*
X654334Y477721D01*
X654155Y475000D01*
X654334Y472279D01*
X654866Y469605D01*
X655742Y467023D01*
X655883Y466737D01*
X655060Y466146D01*
X628853Y492353D01*
X628017Y492994D01*
X627044Y493397D01*
X626000Y493535D01*
X626000Y493535D01*
X612500D01*
X612500Y493535D01*
X611456Y493397D01*
X610483Y492994D01*
X609647Y492353D01*
X609647Y492353D01*
X604294Y487000D01*
X604000Y487029D01*
X602824Y486913D01*
X601693Y486570D01*
X600651Y486013D01*
X599737Y485263D01*
X598987Y484349D01*
X598430Y483307D01*
X598087Y482176D01*
X597971Y481000D01*
X598087Y479824D01*
X598430Y478693D01*
X598987Y477650D01*
X599737Y476737D01*
X600025Y476500D01*
Y475500D01*
X599737Y475263D01*
X598987Y474349D01*
X598430Y473307D01*
X598087Y472176D01*
X597971Y471000D01*
X598087Y469824D01*
X598430Y468693D01*
X598987Y467651D01*
X599737Y466737D01*
X600651Y465987D01*
X601693Y465430D01*
X601958Y465349D01*
X602060Y464514D01*
X602034Y464281D01*
X601290Y463710D01*
X600681Y462916D01*
X600298Y461992D01*
X600167Y461000D01*
X600298Y460008D01*
X600681Y459084D01*
X601290Y458290D01*
X602084Y457681D01*
X602384Y457556D01*
X602767Y456376D01*
X602765Y456371D01*
X602524Y456035D01*
X573188D01*
X573123Y457034D01*
X573936Y457142D01*
X575274Y457696D01*
X576423Y458577D01*
X577304Y459726D01*
X577858Y461064D01*
X578048Y462500D01*
X578024Y462675D01*
X581159Y465810D01*
X581564Y465642D01*
X583000Y465452D01*
X584436Y465642D01*
X585774Y466196D01*
X586923Y467077D01*
X587804Y468226D01*
X588358Y469564D01*
X588548Y471000D01*
X588358Y472436D01*
X587804Y473774D01*
X586923Y474923D01*
X585774Y475804D01*
X584436Y476358D01*
X583000Y476547D01*
X581564Y476358D01*
X580226Y475804D01*
X579077Y474923D01*
X578196Y473774D01*
X578034Y473383D01*
X572675Y468024D01*
X572500Y468048D01*
X571064Y467858D01*
X569726Y467304D01*
X568577Y466423D01*
X567696Y465274D01*
X567142Y463936D01*
X566953Y462500D01*
X567142Y461064D01*
X567696Y459726D01*
X568577Y458577D01*
X569726Y457696D01*
X571064Y457142D01*
X571877Y457034D01*
X571812Y456035D01*
X561465D01*
X561044Y456500D01*
X560870Y458264D01*
X560355Y459961D01*
X559519Y461524D01*
X558395Y462895D01*
X557024Y464019D01*
X555461Y464855D01*
X553764Y465370D01*
X552000Y465544D01*
X550236Y465370D01*
X548539Y464855D01*
X546976Y464019D01*
X545605Y462895D01*
X544481Y461524D01*
X543645Y459961D01*
X543130Y458264D01*
X542956Y456500D01*
X543130Y454736D01*
X543645Y453039D01*
X544481Y451476D01*
X545605Y450105D01*
X546976Y448981D01*
X548539Y448145D01*
X550236Y447630D01*
X552000Y447457D01*
X553764Y447630D01*
X555400Y448126D01*
X555456Y448103D01*
X556500Y447965D01*
X605000D01*
X605000Y447965D01*
X606044Y448103D01*
X607017Y448506D01*
X607853Y449147D01*
X619222Y460517D01*
X620278Y460158D01*
X620298Y460008D01*
X620681Y459084D01*
X621290Y458290D01*
X622084Y457681D01*
X623008Y457298D01*
X624000Y457167D01*
X624992Y457298D01*
X625916Y457681D01*
X626710Y458290D01*
X627319Y459084D01*
X627702Y460008D01*
X627833Y461000D01*
X627826Y461055D01*
X628773Y461522D01*
X633965Y456329D01*
Y382332D01*
X633134Y381776D01*
X632936Y381858D01*
X631500Y382048D01*
X630064Y381858D01*
X628726Y381304D01*
X627723Y380535D01*
X622026D01*
Y381000D01*
X621923Y381783D01*
X621621Y382513D01*
X621140Y383140D01*
X620513Y383621D01*
X619783Y383923D01*
X619000Y384026D01*
X610000D01*
X609217Y383923D01*
X608487Y383621D01*
X607860Y383140D01*
X607379Y382513D01*
X607077Y381783D01*
X606974Y381000D01*
Y372000D01*
X607077Y371217D01*
X607379Y370487D01*
X607860Y369860D01*
X608487Y369379D01*
X609217Y369077D01*
X610000Y368974D01*
X619000D01*
X619783Y369077D01*
X620513Y369379D01*
X621140Y369860D01*
X621621Y370487D01*
X621923Y371217D01*
X622026Y372000D01*
Y372465D01*
X627723D01*
X628726Y371696D01*
X630064Y371142D01*
X631500Y370953D01*
X632936Y371142D01*
X634220Y371673D01*
X634506Y370983D01*
X635147Y370147D01*
X648747Y356547D01*
X648616Y356333D01*
X647983Y354806D01*
X647597Y353199D01*
X647468Y351551D01*
X647597Y349904D01*
X647983Y348296D01*
X648616Y346770D01*
X649479Y345360D01*
X650552Y344104D01*
X651809Y343030D01*
X653218Y342167D01*
X654745Y341534D01*
X656352Y341148D01*
X658000Y341019D01*
X664000D01*
X665648Y341148D01*
X667255Y341534D01*
X668782Y342167D01*
X670191Y343030D01*
X671448Y344104D01*
X672521Y345360D01*
X673385Y346770D01*
X674017Y348296D01*
X674403Y349904D01*
X674533Y351551D01*
X674403Y353199D01*
X674017Y354806D01*
X673385Y356333D01*
X672521Y357742D01*
X671448Y358999D01*
X670191Y360072D01*
X668782Y360936D01*
X667255Y361568D01*
X665648Y361954D01*
X664000Y362084D01*
X658000D01*
X656352Y361954D01*
X655062Y361644D01*
X646438Y370267D01*
X646673Y371447D01*
X647274Y371696D01*
X647647Y371982D01*
X648742Y371562D01*
X649479Y370360D01*
X650552Y369104D01*
X651809Y368030D01*
X653218Y367167D01*
X654745Y366534D01*
X656352Y366148D01*
X658000Y366019D01*
X664000D01*
X665648Y366148D01*
X667255Y366534D01*
X668782Y367167D01*
X670191Y368030D01*
X671448Y369104D01*
X672521Y370360D01*
X673385Y371770D01*
X674017Y373296D01*
X674403Y374904D01*
X674533Y376551D01*
X674403Y378199D01*
X674017Y379806D01*
X673385Y381333D01*
X672521Y382742D01*
X671448Y383999D01*
X670191Y385072D01*
X668782Y385936D01*
X667255Y386568D01*
X665648Y386954D01*
X664000Y387084D01*
X658000D01*
X656352Y386954D01*
X654745Y386568D01*
X653218Y385936D01*
X651809Y385072D01*
X650552Y383999D01*
X649479Y382742D01*
X648700Y381470D01*
X648417Y381303D01*
X647462Y381160D01*
X647274Y381304D01*
X645936Y381858D01*
X644500Y382048D01*
X643064Y381858D01*
X642866Y381776D01*
X642034Y382332D01*
Y402720D01*
X642935Y403006D01*
X643035Y402997D01*
X643647Y402198D01*
X647147Y398698D01*
X647147Y398698D01*
X647983Y398057D01*
X648103Y398007D01*
X648616Y396770D01*
X649479Y395360D01*
X650552Y394104D01*
X651809Y393030D01*
X653218Y392167D01*
X654745Y391534D01*
X656352Y391148D01*
X658000Y391019D01*
X664000D01*
X665648Y391148D01*
X667255Y391534D01*
X668782Y392167D01*
X670191Y393030D01*
X671448Y394104D01*
X672521Y395360D01*
X673385Y396770D01*
X674017Y398296D01*
X674403Y399904D01*
X674533Y401551D01*
X674403Y403199D01*
X674017Y404806D01*
X673385Y406333D01*
X672521Y407742D01*
X671448Y408999D01*
X670191Y410072D01*
X668782Y410936D01*
X667255Y411568D01*
X665648Y411954D01*
X664000Y412084D01*
X658000D01*
X656352Y411954D01*
X654745Y411568D01*
X653218Y410936D01*
X651809Y410072D01*
X651535Y409838D01*
X650534Y410299D01*
Y416025D01*
X671500D01*
X672283Y416128D01*
X673013Y416431D01*
X673640Y416912D01*
X674121Y417538D01*
X674423Y418268D01*
X674526Y419051D01*
Y434051D01*
X674423Y434834D01*
X674121Y435564D01*
X673640Y436191D01*
X673013Y436672D01*
X672283Y436974D01*
X671500Y437077D01*
X665034D01*
Y454500D01*
X664897Y455544D01*
X664829Y455709D01*
X665609Y456440D01*
X667023Y455742D01*
X669605Y454866D01*
X672279Y454334D01*
X675000Y454155D01*
X677721Y454334D01*
X680395Y454866D01*
X682977Y455742D01*
X685422Y456948D01*
X687689Y458463D01*
X689739Y460261D01*
X691537Y462311D01*
X693052Y464578D01*
X694258Y467023D01*
X695134Y469605D01*
X695666Y472279D01*
X695845Y475000D01*
X695666Y477721D01*
X695134Y480395D01*
X694258Y482977D01*
X693052Y485422D01*
X691537Y487689D01*
X689739Y489739D01*
X687689Y491537D01*
X685422Y493052D01*
X682977Y494258D01*
X680395Y495134D01*
X677721Y495666D01*
X675000Y495845D01*
D02*
G37*
G36*
X185500Y463829D02*
X180500D01*
X179639Y463715D01*
X178836Y463382D01*
X178146Y462854D01*
X177618Y462164D01*
X177285Y461362D01*
X177172Y460500D01*
X177285Y459639D01*
X177618Y458836D01*
X178146Y458146D01*
X178836Y457618D01*
X179639Y457285D01*
X180500Y457171D01*
X185500D01*
X186362Y457285D01*
X187164Y457618D01*
X187854Y458146D01*
X188382Y458836D01*
X188715Y459639D01*
X188829Y460500D01*
X188715Y461362D01*
X188382Y462164D01*
X187854Y462854D01*
X187164Y463382D01*
X186362Y463715D01*
X185500Y463829D01*
D02*
G37*
G36*
X332000Y464030D02*
X330500D01*
X329586Y463910D01*
X328735Y463557D01*
X328004Y462996D01*
X327443Y462265D01*
X327126Y461500D01*
X332000D01*
Y464030D01*
D02*
G37*
G36*
X627000Y444816D02*
X621000D01*
X620688Y444754D01*
X620423Y444577D01*
X620246Y444312D01*
X620184Y444000D01*
Y438000D01*
X620246Y437688D01*
X620423Y437423D01*
X620688Y437246D01*
X621000Y437184D01*
X627000D01*
X627312Y437246D01*
X627577Y437423D01*
X627754Y437688D01*
X627816Y438000D01*
Y444000D01*
X627754Y444312D01*
X627577Y444577D01*
X627312Y444754D01*
X627000Y444816D01*
D02*
G37*
G36*
X185500Y423829D02*
X180500D01*
X179639Y423715D01*
X178836Y423383D01*
X178146Y422854D01*
X177618Y422164D01*
X177285Y421361D01*
X177172Y420500D01*
X177285Y419638D01*
X177618Y418836D01*
X178146Y418146D01*
X178836Y417618D01*
X179639Y417285D01*
X180500Y417171D01*
X185500D01*
X186362Y417285D01*
X187164Y417618D01*
X187854Y418146D01*
X188382Y418836D01*
X188715Y419638D01*
X188829Y420500D01*
X188715Y421361D01*
X188382Y422164D01*
X187854Y422854D01*
X187164Y423383D01*
X186362Y423715D01*
X185500Y423829D01*
D02*
G37*
G36*
X552000Y440544D02*
X550236Y440370D01*
X548539Y439855D01*
X546976Y439019D01*
X545605Y437895D01*
X544481Y436524D01*
X543645Y434961D01*
X543130Y433264D01*
X542956Y431500D01*
X543130Y429736D01*
X543645Y428039D01*
X544481Y426476D01*
X545605Y425105D01*
X546976Y423981D01*
X548539Y423145D01*
X550236Y422630D01*
X552000Y422457D01*
X553764Y422630D01*
X555461Y423145D01*
X557024Y423981D01*
X558395Y425105D01*
X559519Y426476D01*
X560355Y428039D01*
X560870Y429736D01*
X561044Y431500D01*
X560870Y433264D01*
X560355Y434961D01*
X559519Y436524D01*
X558395Y437895D01*
X557024Y439019D01*
X555461Y439855D01*
X553764Y440370D01*
X552000Y440544D01*
D02*
G37*
G36*
X424000Y438333D02*
X422667Y438202D01*
X421385Y437813D01*
X420204Y437181D01*
X419168Y436332D01*
X418319Y435296D01*
X417687Y434115D01*
X417298Y432833D01*
X417167Y431500D01*
X417298Y430167D01*
X417687Y428885D01*
X418319Y427704D01*
X419168Y426668D01*
X420204Y425819D01*
X421385Y425187D01*
X422667Y424798D01*
X422675Y424798D01*
Y408200D01*
X422775Y407693D01*
X423063Y407263D01*
X426404Y403922D01*
X425874Y403038D01*
X425333Y403202D01*
X424000Y403333D01*
X422667Y403202D01*
X421385Y402813D01*
X420204Y402181D01*
X419168Y401332D01*
X418319Y400296D01*
X417926Y399561D01*
X416925Y399811D01*
Y411200D01*
X416825Y411707D01*
X416537Y412137D01*
X407237Y421437D01*
X406807Y421725D01*
X406300Y421826D01*
X338523D01*
X338383Y422164D01*
X337854Y422854D01*
X337164Y423383D01*
X336362Y423715D01*
X335500Y423829D01*
X330500D01*
X329639Y423715D01*
X328836Y423383D01*
X328146Y422854D01*
X327618Y422164D01*
X327285Y421361D01*
X327171Y420500D01*
X327285Y419638D01*
X327618Y418836D01*
X328146Y418146D01*
X328836Y417618D01*
X329639Y417285D01*
X330500Y417171D01*
X335500D01*
X336362Y417285D01*
X337164Y417618D01*
X337854Y418146D01*
X338383Y418836D01*
X338523Y419174D01*
X405751D01*
X414275Y410651D01*
Y407407D01*
X413351Y407024D01*
X408937Y411437D01*
X408507Y411725D01*
X408000Y411826D01*
X338523D01*
X338383Y412164D01*
X337854Y412854D01*
X337164Y413382D01*
X336362Y413715D01*
X335500Y413829D01*
X330500D01*
X329639Y413715D01*
X328836Y413382D01*
X328146Y412854D01*
X327618Y412164D01*
X327285Y411362D01*
X327171Y410500D01*
X327285Y409639D01*
X327618Y408836D01*
X328146Y408146D01*
X328836Y407618D01*
X329639Y407285D01*
X330500Y407171D01*
X335500D01*
X336362Y407285D01*
X337164Y407618D01*
X337854Y408146D01*
X338383Y408836D01*
X338523Y409174D01*
X407451D01*
X412075Y404551D01*
Y368000D01*
X412175Y367493D01*
X412463Y367063D01*
X418563Y360963D01*
X418993Y360675D01*
X419244Y360626D01*
X419145Y359626D01*
X384549D01*
X379825Y364349D01*
Y396000D01*
X379725Y396507D01*
X379437Y396937D01*
X374937Y401437D01*
X374507Y401725D01*
X374000Y401826D01*
X338523D01*
X338383Y402164D01*
X337854Y402854D01*
X337164Y403382D01*
X336362Y403715D01*
X335500Y403828D01*
X330500D01*
X329639Y403715D01*
X328836Y403382D01*
X328146Y402854D01*
X327618Y402164D01*
X327285Y401362D01*
X327171Y400500D01*
X327285Y399639D01*
X327618Y398836D01*
X328146Y398146D01*
X328836Y397618D01*
X329639Y397285D01*
X330500Y397171D01*
X335500D01*
X336362Y397285D01*
X337164Y397618D01*
X337854Y398146D01*
X338383Y398836D01*
X338523Y399174D01*
X373451D01*
X377174Y395451D01*
Y363800D01*
X377275Y363293D01*
X377563Y362863D01*
X383063Y357363D01*
X383493Y357075D01*
X384000Y356975D01*
X430551D01*
X442225Y345300D01*
X442085Y344962D01*
X441971Y344100D01*
X442085Y343238D01*
X442417Y342436D01*
X442946Y341746D01*
X443636Y341217D01*
X444439Y340885D01*
X445300Y340772D01*
X446162Y340885D01*
X446964Y341217D01*
X447654Y341746D01*
X448182Y342436D01*
X448515Y343238D01*
X448629Y344100D01*
X448515Y344962D01*
X448182Y345764D01*
X447654Y346454D01*
X446964Y346983D01*
X446162Y347315D01*
X445300Y347428D01*
X444439Y347315D01*
X444100Y347175D01*
X432037Y359237D01*
X431607Y359525D01*
X431356Y359575D01*
X431455Y360575D01*
X439751D01*
X474225Y326100D01*
X474085Y325762D01*
X473972Y324900D01*
X474085Y324039D01*
X474417Y323236D01*
X474946Y322546D01*
X475636Y322018D01*
X476439Y321685D01*
X477300Y321571D01*
X478161Y321685D01*
X478964Y322018D01*
X479654Y322546D01*
X480183Y323236D01*
X480515Y324039D01*
X480628Y324900D01*
X480515Y325762D01*
X480183Y326564D01*
X479654Y327254D01*
X478964Y327783D01*
X478161Y328115D01*
X477300Y328228D01*
X476439Y328115D01*
X476100Y327975D01*
X441314Y362761D01*
X441302Y363146D01*
X441460Y363891D01*
X441764Y364018D01*
X442454Y364546D01*
X442982Y365236D01*
X443315Y366038D01*
X443429Y366900D01*
X443315Y367761D01*
X442982Y368564D01*
X442454Y369254D01*
X441764Y369782D01*
X440962Y370115D01*
X440100Y370229D01*
X439239Y370115D01*
X438900Y369975D01*
X416925Y391949D01*
Y393189D01*
X417926Y393439D01*
X418319Y392704D01*
X419168Y391668D01*
X420204Y390819D01*
X421385Y390187D01*
X422667Y389798D01*
X424000Y389667D01*
X425333Y389798D01*
X426615Y390187D01*
X427796Y390819D01*
X428832Y391668D01*
X429681Y392704D01*
X430313Y393885D01*
X430702Y395167D01*
X430833Y396500D01*
X430702Y397833D01*
X430538Y398374D01*
X431422Y398904D01*
X524563Y305763D01*
X524993Y305475D01*
X525500Y305375D01*
X551251D01*
X556043Y300583D01*
X555798Y299992D01*
X555667Y299000D01*
X555798Y298008D01*
X556181Y297084D01*
X556790Y296290D01*
X557584Y295681D01*
X558508Y295298D01*
X559500Y295167D01*
X560492Y295298D01*
X561416Y295681D01*
X562210Y296290D01*
X562819Y297084D01*
X563202Y298008D01*
X563333Y299000D01*
X563202Y299992D01*
X562819Y300916D01*
X562210Y301710D01*
X561416Y302319D01*
X560492Y302702D01*
X559500Y302833D01*
X558508Y302702D01*
X557917Y302457D01*
X552737Y307637D01*
X552307Y307925D01*
X551800Y308026D01*
X526049D01*
X425325Y408749D01*
Y424798D01*
X425333Y424798D01*
X426615Y425187D01*
X427796Y425819D01*
X428832Y426668D01*
X429681Y427704D01*
X430313Y428885D01*
X430702Y430167D01*
X430833Y431500D01*
X430702Y432833D01*
X430313Y434115D01*
X429681Y435296D01*
X428832Y436332D01*
X427796Y437181D01*
X426615Y437813D01*
X425333Y438202D01*
X424000Y438333D01*
D02*
G37*
G36*
X185500Y413829D02*
X180500D01*
X179639Y413715D01*
X178836Y413382D01*
X178146Y412854D01*
X177618Y412164D01*
X177285Y411362D01*
X177172Y410500D01*
X177285Y409639D01*
X177618Y408836D01*
X178146Y408146D01*
X178836Y407618D01*
X179639Y407285D01*
X180500Y407171D01*
X185500D01*
X186362Y407285D01*
X187164Y407618D01*
X187854Y408146D01*
X188382Y408836D01*
X188715Y409639D01*
X188829Y410500D01*
X188715Y411362D01*
X188382Y412164D01*
X187854Y412854D01*
X187164Y413382D01*
X186362Y413715D01*
X185500Y413829D01*
D02*
G37*
G36*
Y433828D02*
X180500D01*
X179639Y433715D01*
X178836Y433383D01*
X178146Y432854D01*
X177618Y432164D01*
X177285Y431361D01*
X177172Y430500D01*
X177285Y429638D01*
X177618Y428836D01*
X178146Y428146D01*
X178836Y427618D01*
X179639Y427285D01*
X180500Y427172D01*
X185500D01*
X186362Y427285D01*
X187164Y427618D01*
X187854Y428146D01*
X188382Y428836D01*
X188715Y429638D01*
X188829Y430500D01*
X188715Y431361D01*
X188382Y432164D01*
X187854Y432854D01*
X187164Y433383D01*
X186362Y433715D01*
X185500Y433828D01*
D02*
G37*
G36*
Y443828D02*
X180500D01*
X179639Y443715D01*
X178836Y443383D01*
X178146Y442854D01*
X177618Y442164D01*
X177285Y441362D01*
X177172Y440500D01*
X177285Y439639D01*
X177618Y438836D01*
X178146Y438146D01*
X178836Y437617D01*
X179639Y437285D01*
X180500Y437172D01*
X185500D01*
X186362Y437285D01*
X187164Y437617D01*
X187854Y438146D01*
X188382Y438836D01*
X188715Y439639D01*
X188829Y440500D01*
X188715Y441362D01*
X188382Y442164D01*
X187854Y442854D01*
X187164Y443383D01*
X186362Y443715D01*
X185500Y443828D01*
D02*
G37*
G36*
X335500D02*
X330500D01*
X329639Y443715D01*
X328836Y443383D01*
X328146Y442854D01*
X327618Y442164D01*
X327285Y441362D01*
X327171Y440500D01*
X327285Y439639D01*
X327618Y438836D01*
X328146Y438146D01*
X328836Y437617D01*
X329639Y437285D01*
X330500Y437172D01*
X335500D01*
X336362Y437285D01*
X337164Y437617D01*
X337854Y438146D01*
X338383Y438836D01*
X338715Y439639D01*
X338828Y440500D01*
X338715Y441362D01*
X338383Y442164D01*
X337854Y442854D01*
X337164Y443383D01*
X336362Y443715D01*
X335500Y443828D01*
D02*
G37*
G36*
Y433828D02*
X330500D01*
X329639Y433715D01*
X328836Y433383D01*
X328146Y432854D01*
X327618Y432164D01*
X327285Y431361D01*
X327171Y430500D01*
X327285Y429638D01*
X327618Y428836D01*
X328146Y428146D01*
X328836Y427618D01*
X329639Y427285D01*
X330500Y427172D01*
X335500D01*
X336362Y427285D01*
X337164Y427618D01*
X337854Y428146D01*
X338383Y428836D01*
X338715Y429638D01*
X338828Y430500D01*
X338715Y431361D01*
X338383Y432164D01*
X337854Y432854D01*
X337164Y433383D01*
X336362Y433715D01*
X335500Y433828D01*
D02*
G37*
G36*
X604000Y444833D02*
X603008Y444702D01*
X602084Y444319D01*
X601290Y443710D01*
X600681Y442916D01*
X600298Y441992D01*
X600167Y441000D01*
X600298Y440008D01*
X600681Y439084D01*
X601290Y438290D01*
X602084Y437681D01*
X603008Y437298D01*
X604000Y437167D01*
X604992Y437298D01*
X605916Y437681D01*
X606710Y438290D01*
X607319Y439084D01*
X607702Y440008D01*
X607833Y441000D01*
X607702Y441992D01*
X607319Y442916D01*
X606710Y443710D01*
X605916Y444319D01*
X604992Y444702D01*
X604000Y444833D01*
D02*
G37*
G36*
X429000Y302333D02*
X428008Y302202D01*
X427084Y301819D01*
X426290Y301210D01*
X425681Y300416D01*
X425298Y299492D01*
X425167Y298500D01*
X425298Y297508D01*
X425681Y296584D01*
X426290Y295790D01*
X427084Y295181D01*
X428008Y294798D01*
X429000Y294667D01*
X429992Y294798D01*
X430916Y295181D01*
X431710Y295790D01*
X432319Y296584D01*
X432702Y297508D01*
X432833Y298500D01*
X432702Y299492D01*
X432319Y300416D01*
X431710Y301210D01*
X430916Y301819D01*
X429992Y302202D01*
X429000Y302333D01*
D02*
G37*
G36*
X444000D02*
X443008Y302202D01*
X442084Y301819D01*
X441290Y301210D01*
X440681Y300416D01*
X440298Y299492D01*
X440167Y298500D01*
X440298Y297508D01*
X440681Y296584D01*
X441290Y295790D01*
X442084Y295181D01*
X443008Y294798D01*
X444000Y294667D01*
X444992Y294798D01*
X445916Y295181D01*
X446710Y295790D01*
X447319Y296584D01*
X447702Y297508D01*
X447833Y298500D01*
X447702Y299492D01*
X447319Y300416D01*
X446710Y301210D01*
X445916Y301819D01*
X444992Y302202D01*
X444000Y302333D01*
D02*
G37*
G36*
X418020Y297500D02*
X415000D01*
Y294480D01*
X417000D01*
X417390Y294558D01*
X417721Y294779D01*
X417942Y295110D01*
X418020Y295500D01*
Y297500D01*
D02*
G37*
G36*
X629000Y328806D02*
X627497Y328608D01*
X626097Y328028D01*
X624895Y327105D01*
X623972Y325903D01*
X623392Y324503D01*
X623194Y323000D01*
X623392Y321497D01*
X623972Y320097D01*
X624895Y318895D01*
X626097Y317972D01*
X627497Y317392D01*
X629000Y317194D01*
X629088Y317206D01*
X647596Y298698D01*
X647596Y298698D01*
X647952Y298425D01*
X647983Y298296D01*
X648616Y296770D01*
X649479Y295360D01*
X650552Y294104D01*
X651809Y293030D01*
X653218Y292167D01*
X654745Y291534D01*
X656352Y291148D01*
X658000Y291019D01*
X664000D01*
X665648Y291148D01*
X667255Y291534D01*
X668782Y292167D01*
X670191Y293030D01*
X671448Y294104D01*
X672521Y295360D01*
X673385Y296770D01*
X674017Y298296D01*
X674403Y299904D01*
X674533Y301551D01*
X674403Y303199D01*
X674017Y304806D01*
X673385Y306333D01*
X672521Y307742D01*
X671448Y308999D01*
X670191Y310072D01*
X668782Y310936D01*
X667255Y311568D01*
X665648Y311954D01*
X664000Y312084D01*
X658000D01*
X656352Y311954D01*
X654745Y311568D01*
X653218Y310936D01*
X651809Y310072D01*
X650552Y308999D01*
X650181Y308563D01*
X649181Y308524D01*
X634794Y322912D01*
X634806Y323000D01*
X634608Y324503D01*
X634028Y325903D01*
X633105Y327105D01*
X631903Y328028D01*
X630503Y328608D01*
X629000Y328806D01*
D02*
G37*
G36*
X413000Y297500D02*
X409980D01*
Y295500D01*
X410058Y295110D01*
X410279Y294779D01*
X410610Y294558D01*
X411000Y294480D01*
X413000D01*
Y297500D01*
D02*
G37*
G36*
X504000Y299000D02*
X501097D01*
X501103Y298956D01*
X501506Y297983D01*
X502147Y297147D01*
X502983Y296506D01*
X503956Y296103D01*
X504000Y296097D01*
Y299000D01*
D02*
G37*
G36*
X508903D02*
X506000D01*
Y296097D01*
X506044Y296103D01*
X507017Y296506D01*
X507853Y297147D01*
X508494Y297983D01*
X508897Y298956D01*
X508903Y299000D01*
D02*
G37*
G36*
X424000Y463333D02*
X422667Y463202D01*
X421385Y462813D01*
X420204Y462181D01*
X419168Y461332D01*
X418319Y460296D01*
X417687Y459115D01*
X417298Y457833D01*
X417167Y456500D01*
X417298Y455167D01*
X417687Y453885D01*
X418319Y452704D01*
X419168Y451668D01*
X420204Y450819D01*
X421385Y450187D01*
X422667Y449798D01*
X424000Y449667D01*
X425333Y449798D01*
X426615Y450187D01*
X427796Y450819D01*
X427802Y450823D01*
X574606Y304019D01*
X574574Y303721D01*
X574214Y302997D01*
X573456Y302897D01*
X572483Y302494D01*
X571647Y301853D01*
X571006Y301017D01*
X570603Y300044D01*
X570597Y300000D01*
X574500D01*
Y299000D01*
X575500D01*
Y295097D01*
X575544Y295103D01*
X576517Y295506D01*
X577353Y296147D01*
X577994Y296983D01*
X578397Y297956D01*
X578497Y298714D01*
X579221Y299074D01*
X579519Y299106D01*
X580563Y298063D01*
X580993Y297775D01*
X581500Y297674D01*
X585936D01*
X586181Y297084D01*
X586790Y296290D01*
X587584Y295681D01*
X588508Y295298D01*
X589500Y295167D01*
X590492Y295298D01*
X591416Y295681D01*
X592210Y296290D01*
X592819Y297084D01*
X593202Y298008D01*
X593333Y299000D01*
X593202Y299992D01*
X592819Y300916D01*
X592210Y301710D01*
X591416Y302319D01*
X590492Y302702D01*
X589500Y302833D01*
X588508Y302702D01*
X587584Y302319D01*
X586790Y301710D01*
X586181Y300916D01*
X585936Y300325D01*
X582049D01*
X429676Y452698D01*
X429681Y452704D01*
X430313Y453885D01*
X430702Y455167D01*
X430833Y456500D01*
X430702Y457833D01*
X430313Y459115D01*
X429681Y460296D01*
X428832Y461332D01*
X427796Y462181D01*
X426615Y462813D01*
X425333Y463202D01*
X424000Y463333D01*
D02*
G37*
G36*
X459000Y302333D02*
X458008Y302202D01*
X457084Y301819D01*
X456290Y301210D01*
X455681Y300416D01*
X455298Y299492D01*
X455167Y298500D01*
X455298Y297508D01*
X455681Y296584D01*
X456290Y295790D01*
X457084Y295181D01*
X458008Y294798D01*
X459000Y294667D01*
X459992Y294798D01*
X460916Y295181D01*
X461710Y295790D01*
X462319Y296584D01*
X462702Y297508D01*
X462833Y298500D01*
X462702Y299492D01*
X462319Y300416D01*
X461710Y301210D01*
X460916Y301819D01*
X459992Y302202D01*
X459000Y302333D01*
D02*
G37*
G36*
X573500Y298000D02*
X570597D01*
X570603Y297956D01*
X571006Y296983D01*
X571647Y296147D01*
X572483Y295506D01*
X573456Y295103D01*
X573500Y295097D01*
Y298000D01*
D02*
G37*
G36*
X335500Y273829D02*
X330500D01*
X329639Y273715D01*
X328836Y273382D01*
X328146Y272854D01*
X327618Y272164D01*
X327285Y271361D01*
X327171Y270500D01*
X327285Y269638D01*
X327618Y268836D01*
X328146Y268146D01*
X328836Y267618D01*
X329639Y267285D01*
X330500Y267172D01*
X335500D01*
X336362Y267285D01*
X337164Y267618D01*
X337854Y268146D01*
X338383Y268836D01*
X338715Y269638D01*
X338828Y270500D01*
X338715Y271361D01*
X338383Y272164D01*
X337854Y272854D01*
X337164Y273382D01*
X336362Y273715D01*
X335500Y273829D01*
D02*
G37*
G36*
X664000Y284891D02*
X658000D01*
X656373Y284731D01*
X654808Y284257D01*
X653367Y283486D01*
X652103Y282449D01*
X651065Y281185D01*
X650295Y279743D01*
X649820Y278178D01*
X649660Y276551D01*
X649820Y274924D01*
X650295Y273360D01*
X651065Y271918D01*
X652103Y270654D01*
X653367Y269617D01*
X654808Y268846D01*
X656373Y268371D01*
X658000Y268211D01*
X664000D01*
X665627Y268371D01*
X667192Y268846D01*
X668634Y269617D01*
X669897Y270654D01*
X670935Y271918D01*
X671705Y273360D01*
X672180Y274924D01*
X672340Y276551D01*
X672180Y278178D01*
X671705Y279743D01*
X670935Y281185D01*
X669897Y282449D01*
X668634Y283486D01*
X667192Y284257D01*
X665627Y284731D01*
X664000Y284891D01*
D02*
G37*
G36*
X185500Y273829D02*
X180500D01*
X179639Y273715D01*
X178836Y273382D01*
X178146Y272854D01*
X177618Y272164D01*
X177285Y271361D01*
X177172Y270500D01*
X177285Y269638D01*
X177618Y268836D01*
X178146Y268146D01*
X178836Y267618D01*
X179639Y267285D01*
X180500Y267172D01*
X185500D01*
X186362Y267285D01*
X187164Y267618D01*
X187854Y268146D01*
X188382Y268836D01*
X188715Y269638D01*
X188829Y270500D01*
X188715Y271361D01*
X188382Y272164D01*
X187854Y272854D01*
X187164Y273382D01*
X186362Y273715D01*
X185500Y273829D01*
D02*
G37*
G36*
X504500Y260403D02*
X504456Y260397D01*
X503483Y259994D01*
X502647Y259353D01*
X502006Y258517D01*
X501603Y257544D01*
X501597Y257500D01*
X504500D01*
Y260403D01*
D02*
G37*
G36*
X506500D02*
Y257500D01*
X509403D01*
X509397Y257544D01*
X508994Y258517D01*
X508353Y259353D01*
X507517Y259994D01*
X506544Y260397D01*
X506500Y260403D01*
D02*
G37*
G36*
X185500Y293829D02*
X180500D01*
X179639Y293715D01*
X178836Y293383D01*
X178146Y292854D01*
X177618Y292164D01*
X177285Y291361D01*
X177172Y290500D01*
X177285Y289638D01*
X177618Y288836D01*
X178146Y288146D01*
X178836Y287617D01*
X179639Y287285D01*
X180500Y287172D01*
X185500D01*
X186362Y287285D01*
X187164Y287617D01*
X187854Y288146D01*
X188382Y288836D01*
X188715Y289638D01*
X188829Y290500D01*
X188715Y291361D01*
X188382Y292164D01*
X187854Y292854D01*
X187164Y293383D01*
X186362Y293715D01*
X185500Y293829D01*
D02*
G37*
G36*
X335500D02*
X330500D01*
X329639Y293715D01*
X328836Y293383D01*
X328146Y292854D01*
X327618Y292164D01*
X327285Y291361D01*
X327171Y290500D01*
X327285Y289638D01*
X327618Y288836D01*
X328146Y288146D01*
X328836Y287617D01*
X329639Y287285D01*
X330500Y287172D01*
X335500D01*
X336362Y287285D01*
X337164Y287617D01*
X337854Y288146D01*
X338383Y288836D01*
X338715Y289638D01*
X338828Y290500D01*
X338715Y291361D01*
X338383Y292164D01*
X337854Y292854D01*
X337164Y293383D01*
X336362Y293715D01*
X335500Y293829D01*
D02*
G37*
G36*
Y353829D02*
X330500D01*
X329639Y353715D01*
X328836Y353382D01*
X328146Y352854D01*
X327618Y352164D01*
X327285Y351361D01*
X327171Y350500D01*
X327285Y349639D01*
X327618Y348836D01*
X328146Y348146D01*
X328836Y347618D01*
X329639Y347285D01*
X330500Y347171D01*
X335500D01*
X336362Y347285D01*
X337164Y347618D01*
X337854Y348146D01*
X338383Y348836D01*
X338523Y349174D01*
X421951D01*
X463463Y307663D01*
X463893Y307375D01*
X464400Y307275D01*
X508451D01*
X529125Y286600D01*
X528985Y286262D01*
X528871Y285400D01*
X528985Y284539D01*
X529318Y283736D01*
X529846Y283046D01*
X530536Y282518D01*
X531339Y282185D01*
X532200Y282071D01*
X533062Y282185D01*
X533864Y282518D01*
X534554Y283046D01*
X535082Y283736D01*
X535415Y284539D01*
X535529Y285400D01*
X535415Y286262D01*
X535082Y287064D01*
X534554Y287754D01*
X533864Y288282D01*
X533062Y288615D01*
X532200Y288728D01*
X531339Y288615D01*
X531000Y288475D01*
X509937Y309537D01*
X509507Y309825D01*
X509000Y309926D01*
X464949D01*
X423437Y351437D01*
X423007Y351725D01*
X422500Y351825D01*
X338523D01*
X338383Y352164D01*
X337854Y352854D01*
X337164Y353382D01*
X336362Y353715D01*
X335500Y353829D01*
D02*
G37*
G36*
X185500Y283828D02*
X180500D01*
X179639Y283715D01*
X178836Y283383D01*
X178146Y282854D01*
X177618Y282164D01*
X177285Y281362D01*
X177172Y280500D01*
X177285Y279639D01*
X177618Y278836D01*
X178146Y278146D01*
X178836Y277618D01*
X179639Y277285D01*
X180500Y277171D01*
X185500D01*
X186362Y277285D01*
X187164Y277618D01*
X187854Y278146D01*
X188382Y278836D01*
X188715Y279639D01*
X188829Y280500D01*
X188715Y281362D01*
X188382Y282164D01*
X187854Y282854D01*
X187164Y283383D01*
X186362Y283715D01*
X185500Y283828D01*
D02*
G37*
G36*
X335500D02*
X330500D01*
X329639Y283715D01*
X328836Y283383D01*
X328146Y282854D01*
X327618Y282164D01*
X327285Y281362D01*
X327171Y280500D01*
X327285Y279639D01*
X327618Y278836D01*
X328146Y278146D01*
X328836Y277618D01*
X329639Y277285D01*
X330500Y277171D01*
X335500D01*
X336362Y277285D01*
X337164Y277618D01*
X337854Y278146D01*
X338383Y278836D01*
X338715Y279639D01*
X338828Y280500D01*
X338715Y281362D01*
X338383Y282164D01*
X337854Y282854D01*
X337164Y283383D01*
X336362Y283715D01*
X335500Y283828D01*
D02*
G37*
G36*
X628500Y351306D02*
X626997Y351108D01*
X625597Y350528D01*
X624395Y349605D01*
X623472Y348403D01*
X622892Y347003D01*
X622694Y345500D01*
X622892Y343997D01*
X623472Y342597D01*
X624395Y341395D01*
X625597Y340472D01*
X626997Y339892D01*
X628500Y339694D01*
X628588Y339706D01*
X644596Y323698D01*
X645432Y323057D01*
X646405Y322654D01*
X647449Y322517D01*
X647449Y322517D01*
X648306D01*
X648616Y321770D01*
X649479Y320360D01*
X650552Y319104D01*
X651809Y318030D01*
X653218Y317167D01*
X654745Y316534D01*
X656352Y316148D01*
X658000Y316019D01*
X664000D01*
X665648Y316148D01*
X667255Y316534D01*
X668782Y317167D01*
X670191Y318030D01*
X671448Y319104D01*
X672521Y320360D01*
X673385Y321770D01*
X674017Y323296D01*
X674403Y324904D01*
X674533Y326551D01*
X674403Y328199D01*
X674017Y329806D01*
X673385Y331333D01*
X672521Y332742D01*
X671448Y333999D01*
X670191Y335072D01*
X668782Y335936D01*
X667255Y336568D01*
X665648Y336954D01*
X664000Y337084D01*
X658000D01*
X656352Y336954D01*
X654745Y336568D01*
X653218Y335936D01*
X651809Y335072D01*
X650552Y333999D01*
X649479Y332742D01*
X649061Y332059D01*
X647796Y331910D01*
X634294Y345412D01*
X634306Y345500D01*
X634108Y347003D01*
X633528Y348403D01*
X632605Y349605D01*
X631403Y350528D01*
X630003Y351108D01*
X628500Y351306D01*
D02*
G37*
G36*
X185500Y323829D02*
X180500D01*
X179639Y323715D01*
X178836Y323382D01*
X178146Y322854D01*
X177618Y322164D01*
X177285Y321361D01*
X177172Y320500D01*
X177285Y319638D01*
X177618Y318836D01*
X178146Y318146D01*
X178836Y317618D01*
X179639Y317285D01*
X180500Y317172D01*
X185500D01*
X186362Y317285D01*
X187164Y317618D01*
X187854Y318146D01*
X188382Y318836D01*
X188715Y319638D01*
X188829Y320500D01*
X188715Y321361D01*
X188382Y322164D01*
X187854Y322854D01*
X187164Y323382D01*
X186362Y323715D01*
X185500Y323829D01*
D02*
G37*
G36*
Y313828D02*
X180500D01*
X179639Y313715D01*
X178836Y313383D01*
X178146Y312854D01*
X177618Y312164D01*
X177285Y311362D01*
X177172Y310500D01*
X177285Y309639D01*
X177618Y308836D01*
X178146Y308146D01*
X178836Y307617D01*
X179639Y307285D01*
X180500Y307172D01*
X185500D01*
X186362Y307285D01*
X187164Y307617D01*
X187854Y308146D01*
X188382Y308836D01*
X188715Y309639D01*
X188829Y310500D01*
X188715Y311362D01*
X188382Y312164D01*
X187854Y312854D01*
X187164Y313383D01*
X186362Y313715D01*
X185500Y313828D01*
D02*
G37*
G36*
X335500D02*
X330500D01*
X329639Y313715D01*
X328836Y313383D01*
X328146Y312854D01*
X327618Y312164D01*
X327285Y311362D01*
X327171Y310500D01*
X327285Y309639D01*
X327618Y308836D01*
X328146Y308146D01*
X328836Y307617D01*
X329639Y307285D01*
X330500Y307172D01*
X335500D01*
X336362Y307285D01*
X337164Y307617D01*
X337854Y308146D01*
X338383Y308836D01*
X338715Y309639D01*
X338828Y310500D01*
X338715Y311362D01*
X338383Y312164D01*
X337854Y312854D01*
X337164Y313383D01*
X336362Y313715D01*
X335500Y313828D01*
D02*
G37*
G36*
Y323829D02*
X330500D01*
X329639Y323715D01*
X328836Y323382D01*
X328146Y322854D01*
X327618Y322164D01*
X327285Y321361D01*
X327171Y320500D01*
X327285Y319638D01*
X327618Y318836D01*
X328146Y318146D01*
X328836Y317618D01*
X329639Y317285D01*
X330500Y317172D01*
X335500D01*
X336362Y317285D01*
X337164Y317618D01*
X337854Y318146D01*
X338383Y318836D01*
X338715Y319638D01*
X338828Y320500D01*
X338715Y321361D01*
X338383Y322164D01*
X337854Y322854D01*
X337164Y323382D01*
X336362Y323715D01*
X335500Y323829D01*
D02*
G37*
G36*
Y333828D02*
X330500D01*
X329639Y333715D01*
X328836Y333383D01*
X328146Y332854D01*
X327618Y332164D01*
X327285Y331362D01*
X327171Y330500D01*
X327285Y329639D01*
X327618Y328836D01*
X328146Y328146D01*
X328836Y327618D01*
X329639Y327285D01*
X330500Y327171D01*
X335500D01*
X336362Y327285D01*
X337164Y327618D01*
X337854Y328146D01*
X338383Y328836D01*
X338715Y329639D01*
X338828Y330500D01*
X338715Y331362D01*
X338383Y332164D01*
X337854Y332854D01*
X337164Y333383D01*
X336362Y333715D01*
X335500Y333828D01*
D02*
G37*
G36*
X185500Y343829D02*
X180500D01*
X179639Y343715D01*
X178836Y343383D01*
X178146Y342854D01*
X177618Y342164D01*
X177285Y341361D01*
X177172Y340500D01*
X177285Y339638D01*
X177618Y338836D01*
X178146Y338146D01*
X178836Y337617D01*
X179639Y337285D01*
X180500Y337172D01*
X185500D01*
X186362Y337285D01*
X187164Y337617D01*
X187854Y338146D01*
X188382Y338836D01*
X188715Y339638D01*
X188829Y340500D01*
X188715Y341361D01*
X188382Y342164D01*
X187854Y342854D01*
X187164Y343383D01*
X186362Y343715D01*
X185500Y343829D01*
D02*
G37*
G36*
X569000Y326587D02*
X568072Y326464D01*
X567207Y326106D01*
X566464Y325536D01*
X565894Y324793D01*
X565536Y323928D01*
X565413Y323000D01*
X565536Y322072D01*
X565894Y321207D01*
X566464Y320464D01*
X567207Y319894D01*
X568072Y319536D01*
X569000Y319413D01*
X569928Y319536D01*
X570793Y319894D01*
X571536Y320464D01*
X572106Y321207D01*
X572464Y322072D01*
X572587Y323000D01*
X572464Y323928D01*
X572106Y324793D01*
X571536Y325536D01*
X570793Y326106D01*
X569928Y326464D01*
X569000Y326587D01*
D02*
G37*
G36*
X185500Y333828D02*
X180500D01*
X179639Y333715D01*
X178836Y333383D01*
X178146Y332854D01*
X177618Y332164D01*
X177285Y331362D01*
X177172Y330500D01*
X177285Y329639D01*
X177618Y328836D01*
X178146Y328146D01*
X178836Y327618D01*
X179639Y327285D01*
X180500Y327171D01*
X185500D01*
X186362Y327285D01*
X187164Y327618D01*
X187854Y328146D01*
X188382Y328836D01*
X188715Y329639D01*
X188829Y330500D01*
X188715Y331362D01*
X188382Y332164D01*
X187854Y332854D01*
X187164Y333383D01*
X186362Y333715D01*
X185500Y333828D01*
D02*
G37*
G36*
X500200Y306125D02*
X420300D01*
X419793Y306025D01*
X419363Y305737D01*
X416145Y302520D01*
X415000D01*
Y299500D01*
X418020D01*
Y300645D01*
X420849Y303474D01*
X490259D01*
X491184Y303000D01*
Y297000D01*
X491246Y296688D01*
X491423Y296423D01*
X491688Y296246D01*
X492000Y296184D01*
X498000D01*
X498312Y296246D01*
X498577Y296423D01*
X498754Y296688D01*
X498816Y297000D01*
Y303000D01*
X499259Y303252D01*
X499763Y303362D01*
X501390Y301736D01*
X501103Y301044D01*
X501097Y301000D01*
X504000D01*
Y303903D01*
X503956Y303897D01*
X503264Y303610D01*
X501137Y305737D01*
X500707Y306025D01*
X500200Y306125D01*
D02*
G37*
G36*
X413000Y302520D02*
X411000D01*
X410610Y302442D01*
X410279Y302221D01*
X410058Y301890D01*
X409980Y301500D01*
Y299500D01*
X413000D01*
Y302520D01*
D02*
G37*
G36*
X506000Y303903D02*
Y301000D01*
X508903D01*
X508897Y301044D01*
X508494Y302017D01*
X507853Y302853D01*
X507017Y303494D01*
X506044Y303897D01*
X506000Y303903D01*
D02*
G37*
G36*
X345600Y319629D02*
X344739Y319515D01*
X343936Y319182D01*
X343246Y318654D01*
X342718Y317964D01*
X342385Y317161D01*
X342271Y316300D01*
X342385Y315439D01*
X342718Y314636D01*
X343246Y313946D01*
X343936Y313418D01*
X344274Y313277D01*
Y306649D01*
X339451Y301825D01*
X338523D01*
X338383Y302164D01*
X337854Y302854D01*
X337164Y303382D01*
X336362Y303715D01*
X335500Y303829D01*
X330500D01*
X329639Y303715D01*
X328836Y303382D01*
X328146Y302854D01*
X327618Y302164D01*
X327285Y301361D01*
X327171Y300500D01*
X327285Y299639D01*
X327618Y298836D01*
X328146Y298146D01*
X328836Y297618D01*
X329639Y297285D01*
X330500Y297171D01*
X335500D01*
X336362Y297285D01*
X337164Y297618D01*
X337854Y298146D01*
X338383Y298836D01*
X338523Y299174D01*
X340000D01*
X340507Y299275D01*
X340937Y299563D01*
X346537Y305163D01*
X346825Y305593D01*
X346925Y306100D01*
Y313277D01*
X347264Y313418D01*
X347954Y313946D01*
X348482Y314636D01*
X348815Y315439D01*
X348928Y316300D01*
X348815Y317161D01*
X348482Y317964D01*
X347954Y318654D01*
X347264Y319182D01*
X346462Y319515D01*
X345600Y319629D01*
D02*
G37*
G36*
X185500Y303829D02*
X180500D01*
X179639Y303715D01*
X178836Y303382D01*
X178146Y302854D01*
X177618Y302164D01*
X177285Y301361D01*
X177172Y300500D01*
X177285Y299639D01*
X177618Y298836D01*
X178146Y298146D01*
X178836Y297618D01*
X179639Y297285D01*
X180500Y297171D01*
X185500D01*
X186362Y297285D01*
X187164Y297618D01*
X187854Y298146D01*
X188382Y298836D01*
X188715Y299639D01*
X188829Y300500D01*
X188715Y301361D01*
X188382Y302164D01*
X187854Y302854D01*
X187164Y303382D01*
X186362Y303715D01*
X185500Y303829D01*
D02*
G37*
%LPD*%
G36*
X276593Y205275D02*
X277100Y205174D01*
X368786D01*
X369200Y204174D01*
X341851Y176825D01*
X337775D01*
X337435Y177825D01*
X337854Y178146D01*
X338383Y178836D01*
X338715Y179639D01*
X338828Y180500D01*
X338715Y181361D01*
X338383Y182164D01*
X337854Y182854D01*
X337164Y183382D01*
X336362Y183715D01*
X335500Y183828D01*
X330500D01*
X329639Y183715D01*
X328836Y183382D01*
X328146Y182854D01*
X327618Y182164D01*
X327285Y181361D01*
X327171Y180500D01*
X327285Y179639D01*
X327618Y178836D01*
X328146Y178146D01*
X328565Y177825D01*
X328225Y176825D01*
X303549D01*
X275716Y204659D01*
X276353Y205435D01*
X276593Y205275D01*
D02*
G37*
G36*
X409300Y214515D02*
X409309Y214376D01*
X408948Y214025D01*
X407900D01*
X407393Y213925D01*
X406963Y213637D01*
X401151Y207825D01*
X338868D01*
X338375Y208825D01*
X338383Y208836D01*
X338715Y209639D01*
X338828Y210500D01*
X338715Y211362D01*
X338383Y212164D01*
X337854Y212854D01*
X337164Y213383D01*
X336362Y213715D01*
X335500Y213828D01*
X330500D01*
X329639Y213715D01*
X328836Y213383D01*
X328146Y212854D01*
X327618Y212164D01*
X327285Y211362D01*
X327171Y210500D01*
X327285Y209639D01*
X327618Y208836D01*
X327625Y208825D01*
X327132Y207825D01*
X277649D01*
X271758Y213716D01*
X272017Y214217D01*
X272344Y214545D01*
X272450Y214524D01*
X272700Y214475D01*
X272704Y214475D01*
X272709Y214475D01*
X408644Y215372D01*
X409300Y214515D01*
D02*
G37*
G36*
X259384Y222341D02*
X258747Y221565D01*
X258507Y221725D01*
X258000Y221826D01*
X189318D01*
X189101Y222175D01*
X189656Y223175D01*
X258100D01*
X258476Y223249D01*
X259384Y222341D01*
D02*
G37*
%LPC*%
G36*
X335500Y203829D02*
X330500D01*
X329639Y203715D01*
X328836Y203382D01*
X328146Y202854D01*
X327618Y202164D01*
X327285Y201361D01*
X327171Y200500D01*
X327285Y199638D01*
X327618Y198836D01*
X328146Y198146D01*
X328836Y197617D01*
X329639Y197285D01*
X330500Y197171D01*
X335500D01*
X336362Y197285D01*
X337164Y197617D01*
X337854Y198146D01*
X338383Y198836D01*
X338715Y199638D01*
X338828Y200500D01*
X338715Y201361D01*
X338383Y202164D01*
X337854Y202854D01*
X337164Y203382D01*
X336362Y203715D01*
X335500Y203829D01*
D02*
G37*
G36*
Y193828D02*
X330500D01*
X329639Y193715D01*
X328836Y193383D01*
X328146Y192854D01*
X327618Y192164D01*
X327285Y191361D01*
X327171Y190500D01*
X327285Y189638D01*
X327618Y188836D01*
X328146Y188146D01*
X328836Y187618D01*
X329639Y187285D01*
X330500Y187171D01*
X335500D01*
X336362Y187285D01*
X337164Y187618D01*
X337854Y188146D01*
X338383Y188836D01*
X338715Y189638D01*
X338828Y190500D01*
X338715Y191361D01*
X338383Y192164D01*
X337854Y192854D01*
X337164Y193383D01*
X336362Y193715D01*
X335500Y193828D01*
D02*
G37*
%LPD*%
G36*
X619082Y484466D02*
X618987Y484349D01*
X618430Y483307D01*
X618087Y482176D01*
X617971Y481000D01*
X618087Y479824D01*
X618430Y478693D01*
X618987Y477650D01*
X619737Y476737D01*
X620025Y476500D01*
Y475500D01*
X619737Y475263D01*
X618987Y474349D01*
X618430Y473307D01*
X618087Y472176D01*
X617971Y471000D01*
X618000Y470706D01*
X608778Y461483D01*
X607722Y461842D01*
X607702Y461992D01*
X607319Y462916D01*
X606710Y463710D01*
X605966Y464281D01*
X605940Y464514D01*
X606042Y465349D01*
X606307Y465430D01*
X607349Y465987D01*
X608263Y466737D01*
X609013Y467651D01*
X609570Y468693D01*
X609913Y469824D01*
X610029Y471000D01*
X609913Y472176D01*
X609570Y473307D01*
X609013Y474349D01*
X608263Y475263D01*
X607975Y475500D01*
Y476500D01*
X608263Y476737D01*
X609013Y477650D01*
X609570Y478693D01*
X609913Y479824D01*
X610029Y481000D01*
X610000Y481294D01*
X614171Y485465D01*
X618609D01*
X619082Y484466D01*
D02*
G37*
G36*
X656965Y452829D02*
Y437077D01*
X650534D01*
Y457846D01*
X651535Y458260D01*
X656965Y452829D01*
D02*
G37*
G36*
X426117Y379009D02*
X425587Y378125D01*
X425333Y378202D01*
X424000Y378333D01*
X422667Y378202D01*
X421385Y377813D01*
X420204Y377181D01*
X419168Y376332D01*
X418319Y375296D01*
X417687Y374115D01*
X417298Y372833D01*
X417167Y371500D01*
X417298Y370167D01*
X417687Y368885D01*
X418319Y367704D01*
X419168Y366668D01*
X420204Y365819D01*
X421385Y365187D01*
X422667Y364798D01*
X424000Y364667D01*
X425333Y364798D01*
X426615Y365187D01*
X427796Y365819D01*
X428832Y366668D01*
X429681Y367704D01*
X430313Y368885D01*
X430702Y370167D01*
X430833Y371500D01*
X430702Y372833D01*
X430625Y373087D01*
X431509Y373617D01*
X437025Y368100D01*
X436885Y367761D01*
X436771Y366900D01*
X436885Y366038D01*
X437218Y365236D01*
X437746Y364546D01*
X438165Y364226D01*
X437825Y363226D01*
X420049D01*
X414725Y368549D01*
Y389093D01*
X415649Y389476D01*
X426117Y379009D01*
D02*
G37*
D18*
X572000Y146000D02*
X595300Y122700D01*
X520000Y228000D02*
X546500Y254500D01*
X463200Y228000D02*
X520000D01*
X644102Y376500D02*
X644500D01*
X644051Y376551D02*
X644102Y376500D01*
X572000Y146300D02*
Y163700D01*
X426400Y197500D02*
X547500D01*
X653000Y220500D02*
X683000D01*
X572000Y146000D02*
Y146300D01*
X170500Y224500D02*
X258100D01*
X258600Y225000D01*
X277100Y206500D01*
X183000Y150500D02*
X333000D01*
X547500Y197500D02*
X584000D01*
X374400Y145500D02*
X426400Y197500D01*
X318300Y145500D02*
X374400D01*
X313300Y140500D02*
X318300Y145500D01*
X183000Y140500D02*
X313300D01*
X414000Y298500D02*
X420300Y304800D01*
X500200D01*
X505000Y300000D01*
X345600Y306100D02*
Y316300D01*
X340000Y300500D02*
X345600Y306100D01*
X333000Y300500D02*
X340000D01*
X618700Y254500D02*
X621649Y251551D01*
X661000D01*
X431100Y358300D02*
X445300Y344100D01*
X384000Y358300D02*
X431100D01*
X378500Y363800D02*
X384000Y358300D01*
X378500Y363800D02*
Y396000D01*
X374000Y400500D02*
X378500Y396000D01*
X333000Y400500D02*
X374000D01*
X333000Y350500D02*
X422500D01*
X464400Y308600D01*
X509000D01*
X532200Y285400D01*
X424000Y408200D02*
Y431500D01*
Y408200D02*
X525500Y306700D01*
X551800D01*
X559500Y299000D01*
X183000Y220500D02*
X258000D01*
X303000Y175500D01*
X342400D01*
X370700Y203800D01*
X478300D01*
X277100Y206500D02*
X401700D01*
X407900Y212700D01*
X412700D01*
X183000Y230500D02*
X258000D01*
X272700Y215800D01*
X409604Y216704D01*
X451396D01*
X458100Y210000D01*
X415600Y391400D02*
X440100Y366900D01*
X415600Y391400D02*
Y411200D01*
X406300Y420500D02*
X415600Y411200D01*
X333000Y420500D02*
X406300D01*
X333000Y410500D02*
X408000D01*
X413400Y405100D01*
Y368000D02*
Y405100D01*
Y368000D02*
X419500Y361900D01*
X440300D01*
X477300Y324900D01*
X613500Y178000D02*
X615500Y176000D01*
X635500D01*
X581500Y299000D02*
X589500D01*
X424000Y456500D02*
X581500Y299000D01*
X547500Y208000D02*
X566300Y207500D01*
X584000D01*
X545500Y210000D02*
X547500Y208000D01*
X505000Y210000D02*
X545500D01*
X628800Y122700D02*
X635500Y116000D01*
X595300Y122700D02*
X628800D01*
X437600Y247100D02*
X443500Y253000D01*
X404300Y247100D02*
X437600D01*
X590500Y210500D02*
X631600D01*
X546500Y254500D02*
X590500Y210500D01*
X546500Y254500D02*
Y276800D01*
X544500Y278800D02*
X546500Y276800D01*
X544500Y278800D02*
Y299000D01*
X576500Y254500D02*
X618700D01*
D19*
X572500Y462500D02*
X581000Y471000D01*
X583000D01*
D20*
X644051Y376551D02*
X661000D01*
X638000Y373000D02*
Y458000D01*
Y373000D02*
X659449Y351551D01*
X625000Y471000D02*
X638000Y458000D01*
X659449Y351551D02*
X661000D01*
X614500Y376500D02*
X631500D01*
X661000Y426551D02*
Y454500D01*
X626000Y489500D02*
X661000Y454500D01*
X612500Y489500D02*
X626000D01*
X605000Y452000D02*
X624000Y471000D01*
X556500Y452000D02*
X605000D01*
X552000Y456500D02*
X556500Y452000D01*
X646500Y405051D02*
Y458500D01*
X624000Y481000D02*
X646500Y458500D01*
X624000Y471000D02*
X625000D01*
X604000Y481000D02*
X612500Y489500D01*
X646500Y405051D02*
X650000Y401551D01*
X661000D01*
X628500Y345500D02*
X647449Y326551D01*
X661000D01*
X629000Y323000D02*
X650449Y301551D01*
X661000D01*
D21*
X589500Y371500D02*
X594500Y376500D01*
X552000Y371500D02*
X589500D01*
D22*
X661000Y426551D02*
D03*
D23*
Y401551D02*
D03*
Y376551D02*
D03*
Y351551D02*
D03*
Y326551D02*
D03*
Y301551D02*
D03*
Y276551D02*
D03*
Y251551D02*
D03*
D24*
X520000Y228000D02*
D03*
X468500Y247500D02*
D03*
X193500Y118000D02*
D03*
X143500Y179000D02*
D03*
X589500Y299000D02*
D03*
X574500D02*
D03*
X559500D02*
D03*
X459000Y298500D02*
D03*
X444000D02*
D03*
X429000D02*
D03*
X604000Y481000D02*
D03*
Y471000D02*
D03*
Y461000D02*
D03*
Y441000D02*
D03*
X624000Y481000D02*
D03*
Y471000D02*
D03*
Y461000D02*
D03*
X505000Y160000D02*
D03*
Y210000D02*
D03*
X505500Y256500D02*
D03*
X505000Y300000D02*
D03*
Y350000D02*
D03*
D25*
X572000Y164000D02*
D03*
D26*
X588300Y146300D02*
D03*
X572000D02*
D03*
X588300Y130000D02*
D03*
X455300Y136551D02*
D03*
X439000D02*
D03*
D27*
X572000Y130000D02*
D03*
X422700Y136551D02*
D03*
D28*
X568500Y345500D02*
D03*
X628500D02*
D03*
X569000Y323000D02*
D03*
X629000D02*
D03*
X635500Y116000D02*
D03*
Y176000D02*
D03*
X613500Y178000D02*
D03*
Y118000D02*
D03*
D29*
X183000Y460500D02*
D03*
Y450500D02*
D03*
Y440500D02*
D03*
Y430500D02*
D03*
Y420500D02*
D03*
Y410500D02*
D03*
Y400500D02*
D03*
Y390500D02*
D03*
Y380500D02*
D03*
Y370500D02*
D03*
Y360500D02*
D03*
Y350500D02*
D03*
Y340500D02*
D03*
Y330500D02*
D03*
Y320500D02*
D03*
Y310500D02*
D03*
Y300500D02*
D03*
Y290500D02*
D03*
Y280500D02*
D03*
Y270500D02*
D03*
Y260500D02*
D03*
Y250500D02*
D03*
Y240500D02*
D03*
Y230500D02*
D03*
Y220500D02*
D03*
Y210500D02*
D03*
Y200500D02*
D03*
Y190500D02*
D03*
Y180500D02*
D03*
Y170500D02*
D03*
Y160500D02*
D03*
Y150500D02*
D03*
Y140500D02*
D03*
X333000Y460500D02*
D03*
Y450500D02*
D03*
Y440500D02*
D03*
Y430500D02*
D03*
Y420500D02*
D03*
Y410500D02*
D03*
Y400500D02*
D03*
Y390500D02*
D03*
Y380500D02*
D03*
Y370500D02*
D03*
Y360500D02*
D03*
Y350500D02*
D03*
Y340500D02*
D03*
Y330500D02*
D03*
Y320500D02*
D03*
Y310500D02*
D03*
Y300500D02*
D03*
Y290500D02*
D03*
Y280500D02*
D03*
Y270500D02*
D03*
Y260500D02*
D03*
Y250500D02*
D03*
Y240500D02*
D03*
Y230500D02*
D03*
Y220500D02*
D03*
Y210500D02*
D03*
Y200500D02*
D03*
Y190500D02*
D03*
Y180500D02*
D03*
Y170500D02*
D03*
Y160500D02*
D03*
Y150500D02*
D03*
D30*
Y140500D02*
D03*
D31*
X614500Y376500D02*
D03*
D32*
X594500D02*
D03*
D33*
X544500Y299000D02*
D03*
X414000Y298500D02*
D03*
X495000Y160000D02*
D03*
Y210000D02*
D03*
X495500Y256500D02*
D03*
X495000Y300000D02*
D03*
Y350000D02*
D03*
D34*
X624000Y441000D02*
D03*
D35*
X150000Y125000D02*
D03*
Y475000D02*
D03*
X675000D02*
D03*
Y125000D02*
D03*
D36*
X472700Y136551D02*
D03*
D37*
X552000Y431500D02*
D03*
Y456500D02*
D03*
X424000Y431500D02*
D03*
Y456500D02*
D03*
Y396500D02*
D03*
Y371500D02*
D03*
X552000Y396500D02*
D03*
D38*
Y371500D02*
D03*
D39*
X576500Y254500D02*
D03*
X443500Y253000D02*
D03*
X584000Y197500D02*
D03*
Y207500D02*
D03*
D40*
X546500Y254500D02*
D03*
X413500Y253000D02*
D03*
D41*
X547500Y208000D02*
D03*
X644500Y376500D02*
D03*
X631500D02*
D03*
X170500Y224500D02*
D03*
X583000Y471000D02*
D03*
X572500Y462500D02*
D03*
X345600Y316300D02*
D03*
X445300Y344100D02*
D03*
X532200Y285400D02*
D03*
X478300Y203800D02*
D03*
X412700Y212700D02*
D03*
X458100Y210000D02*
D03*
X440100Y366900D02*
D03*
X477300Y324900D02*
D03*
X404300Y247100D02*
D03*
X631600Y210500D02*
D03*
X463200Y228000D02*
D03*
X653000Y220500D02*
D03*
X683000D02*
D03*
D42*
X547500Y197500D02*
D03*
M02*
