M48
;Layer_Color=9474304
;FILE_FORMAT=2:5
INCH,TZ
;TYPE=PLATED
T1F00S00C0.01968
T2F00S00C0.02500
T3F00S00C0.02600
T4F00S00C0.02800
T5F00S00C0.03000
T6F00S00C0.03100
T7F00S00C0.03200
T8F00S00C0.03346
T9F00S00C0.03543
T10F00S00C0.05500
T11F00S00C0.06000
T12F00S00C0.07000
T13F00S00C0.12500
T14F00S00C0.22500
%
T01
X134000Y35800
X251400Y50500
X355000Y53300
X511500Y105500
X518500Y143300
X459800Y83500
X389100Y209100
X346400Y208400
X283000Y180000
X295401Y135800
X315500Y140000
X322900Y131200
X282300Y95000
X302800Y61000
X252500
X198200Y125500
X202000Y235000
X265000Y219000
X336100Y225100
X339700Y240500
X316185Y256600
X324100Y294400
X331000Y293600
X330800Y341000
X290000Y330358
X282500Y282700
X224100Y343100
X194300Y329800
X444500Y312600
T02
X59000Y40500
Y50500
X209000
Y40500
Y60500
Y70500
Y80500
Y90500
Y100500
Y110500
Y120500
Y130500
Y140500
Y150500
Y160500
Y170500
Y180500
Y190500
Y200500
Y210500
X59000
Y200500
Y190500
Y180500
Y170500
Y160500
Y150500
Y140500
Y130500
Y120500
Y110500
Y100500
Y90500
Y80500
Y70500
Y60500
Y220500
Y230500
Y240500
Y250500
Y260500
Y270500
Y280500
Y290500
Y300500
Y310500
Y320500
Y330500
Y340500
Y350500
Y360500
X209000
Y350500
Y340500
Y330500
Y320500
Y310500
Y300500
Y290500
Y280500
Y270500
Y260500
Y250500
Y240500
Y230500
Y220500
T03
X470500Y276500
X490500
T04
X423500Y97500
Y108000
X420500Y199000
X435500
X450500
X465500
X335000Y198500
X320000
X305000
X290000
X294500Y79500
X318000
X119000Y381000
T05
X94500Y19000
X18500Y81000
T06
X289500Y153000
X319500
T07
X371000Y60000
X381000
Y110000
X371000
X371500Y156500
X381500
X422500Y154500
X452500
X381000Y200000
X371000
Y250000
X381000
X480000Y341000
Y361000
X500000
Y341000
Y371000
Y381000
X480000
Y371000
T08
X489500Y18000
X511500Y16000
Y76000
X489500Y78000
X445000Y223000
X444500Y245500
X504500
X505000Y223000
T09
X26500Y117000
Y127000
Y137000
Y147000
Y157000
Y167000
T10
X298200Y32500
X314500
X330800
X448000Y30000
Y46300
X464300
Y30000
T11
X300000Y271500
Y296500
Y331500
Y356500
X428000
Y331500
Y296500
Y271500
T12
X537000Y151551
Y176551
Y201551
Y226551
Y251551
Y276551
Y301551
Y326551
T13
X280800Y32500
X448000Y64000
T14
X26000Y25000
X576000
Y375000
X26000
M30
