G04 Layer_Color=65535*
%FSLAX25Y25*%
%MOIN*%
G70*
G01*
G75*
%ADD46C,0.00984*%
%ADD47C,0.00787*%
%ADD48C,0.01000*%
%ADD49C,0.00591*%
D46*
X421677Y16153D02*
X420939Y16580D01*
Y15727D01*
X421677Y16153D01*
X275807Y380398D02*
X275069Y380824D01*
Y379971D01*
X275807Y380398D01*
X391839Y14114D02*
X391100Y14540D01*
Y13688D01*
X391839Y14114D01*
X403339Y56614D02*
X402600Y57040D01*
Y56188D01*
X403339Y56614D01*
X248748Y329894D02*
X248010Y330320D01*
Y329468D01*
X248748Y329894D01*
X252146Y296386D02*
X251408Y296812D01*
Y295960D01*
X252146Y296386D01*
X488646Y324386D02*
X487908Y324812D01*
Y323960D01*
X488646Y324386D01*
X293094Y108346D02*
X292356Y108773D01*
Y107920D01*
X293094Y108346D01*
X521543Y113847D02*
X520805Y114273D01*
Y113420D01*
X521543Y113847D01*
D47*
X27051Y286000D02*
X27242Y285043D01*
X27783Y284232D01*
X28594Y283690D01*
X29551Y283500D01*
X30508Y283690D01*
X31319Y284232D01*
X31861Y285043D01*
X32051Y286000D01*
X334500Y153000D02*
X334483Y154002D01*
X334433Y155004D01*
X334349Y156003D01*
X334232Y156999D01*
X334082Y157990D01*
X333899Y158976D01*
X333683Y159955D01*
X333434Y160926D01*
X333153Y161888D01*
X332840Y162841D01*
X332495Y163782D01*
X332119Y164712D01*
X331713Y165628D01*
X331276Y166530D01*
X330808Y167418D01*
X330312Y168289D01*
X329787Y169142D01*
X329233Y169978D01*
X328652Y170795D01*
X328044Y171592D01*
X327410Y172369D01*
X326750Y173124D01*
X326065Y173856D01*
X325356Y174565D01*
X324623Y175250D01*
X323869Y175910D01*
X323093Y176544D01*
X322295Y177152D01*
X321478Y177733D01*
X320642Y178287D01*
X319789Y178812D01*
X318917Y179308D01*
X318030Y179776D01*
X317128Y180213D01*
X316212Y180620D01*
X315282Y180995D01*
X314341Y181340D01*
X313388Y181653D01*
X312426Y181934D01*
X311455Y182183D01*
X310476Y182399D01*
X309490Y182582D01*
X308499Y182732D01*
X307503Y182849D01*
X306504Y182933D01*
X305502Y182983D01*
X304500Y183000D01*
X303498Y182983D01*
X302496Y182933D01*
X301497Y182849D01*
X300501Y182732D01*
X299510Y182582D01*
X298524Y182399D01*
X297545Y182183D01*
X296574Y181934D01*
X295612Y181653D01*
X294659Y181340D01*
X293718Y180995D01*
X292788Y180620D01*
X291872Y180213D01*
X290970Y179776D01*
X290083Y179308D01*
X289212Y178812D01*
X288357Y178287D01*
X287522Y177733D01*
X286705Y177152D01*
X285908Y176544D01*
X285131Y175910D01*
X284377Y175250D01*
X283644Y174565D01*
X282935Y173856D01*
X282250Y173124D01*
X281590Y172369D01*
X280956Y171592D01*
X280348Y170795D01*
X279767Y169978D01*
X279213Y169142D01*
X278688Y168289D01*
X278191Y167418D01*
X277724Y166530D01*
X277287Y165628D01*
X276881Y164712D01*
X276505Y163782D01*
X276160Y162841D01*
X275847Y161888D01*
X275566Y160926D01*
X275317Y159955D01*
X275101Y158976D01*
X274918Y157990D01*
X274768Y156999D01*
X274651Y156003D01*
X274567Y155004D01*
X274517Y154002D01*
X274500Y153000D01*
X274517Y151998D01*
X274567Y150996D01*
X274651Y149997D01*
X274768Y149002D01*
X274918Y148010D01*
X275101Y147025D01*
X275317Y146045D01*
X275566Y145074D01*
X275847Y144112D01*
X276160Y143159D01*
X276504Y142218D01*
X276881Y141288D01*
X277287Y140372D01*
X277724Y139470D01*
X278191Y138583D01*
X278688Y137712D01*
X279213Y136858D01*
X279767Y136022D01*
X280348Y135205D01*
X280956Y134408D01*
X281590Y133631D01*
X282250Y132877D01*
X282935Y132144D01*
X283644Y131435D01*
X284376Y130751D01*
X285131Y130091D01*
X285907Y129456D01*
X286704Y128848D01*
X287521Y128267D01*
X288357Y127713D01*
X289211Y127188D01*
X290082Y126692D01*
X290969Y126225D01*
X291872Y125787D01*
X292788Y125381D01*
X293718Y125005D01*
X294659Y124660D01*
X295612Y124347D01*
X296574Y124066D01*
X297545Y123817D01*
X298524Y123601D01*
X299510Y123418D01*
X300501Y123268D01*
X301497Y123151D01*
X302496Y123067D01*
X303497Y123017D01*
X304500Y123000D01*
X305502Y123017D01*
X306504Y123067D01*
X307503Y123151D01*
X308498Y123268D01*
X309490Y123418D01*
X310475Y123601D01*
X311454Y123817D01*
X312426Y124066D01*
X313388Y124347D01*
X314340Y124660D01*
X315282Y125004D01*
X316211Y125380D01*
X317128Y125787D01*
X318030Y126224D01*
X318917Y126691D01*
X319788Y127188D01*
X320642Y127713D01*
X321478Y128267D01*
X322295Y128848D01*
X323092Y129456D01*
X323869Y130090D01*
X324623Y130750D01*
X325356Y131435D01*
X326064Y132144D01*
X326749Y132876D01*
X327409Y133631D01*
X328044Y134407D01*
X328652Y135204D01*
X329233Y136021D01*
X329787Y136857D01*
X330312Y137711D01*
X330808Y138582D01*
X331275Y139469D01*
X331713Y140372D01*
X332119Y141288D01*
X332495Y142217D01*
X332840Y143159D01*
X333153Y144111D01*
X333434Y145074D01*
X333683Y146045D01*
X333899Y147024D01*
X334082Y148010D01*
X334232Y149001D01*
X334349Y149997D01*
X334433Y150996D01*
X334483Y151997D01*
X334500Y153000D01*
X467500Y154500D02*
X467483Y155502D01*
X467433Y156504D01*
X467349Y157503D01*
X467232Y158499D01*
X467082Y159490D01*
X466899Y160476D01*
X466683Y161455D01*
X466434Y162426D01*
X466153Y163388D01*
X465840Y164341D01*
X465495Y165282D01*
X465120Y166212D01*
X464713Y167128D01*
X464276Y168030D01*
X463808Y168918D01*
X463312Y169789D01*
X462787Y170642D01*
X462233Y171478D01*
X461652Y172295D01*
X461044Y173092D01*
X460410Y173869D01*
X459750Y174624D01*
X459065Y175356D01*
X458356Y176065D01*
X457623Y176750D01*
X456869Y177410D01*
X456093Y178044D01*
X455295Y178652D01*
X454478Y179233D01*
X453643Y179787D01*
X452788Y180312D01*
X451918Y180808D01*
X451030Y181276D01*
X450128Y181713D01*
X449212Y182120D01*
X448282Y182495D01*
X447341Y182840D01*
X446388Y183153D01*
X445426Y183434D01*
X444455Y183683D01*
X443476Y183899D01*
X442490Y184082D01*
X441499Y184232D01*
X440503Y184349D01*
X439504Y184433D01*
X438502Y184483D01*
X437500Y184500D01*
X436497Y184483D01*
X435496Y184433D01*
X434497Y184349D01*
X433501Y184232D01*
X432510Y184082D01*
X431524Y183899D01*
X430545Y183683D01*
X429574Y183434D01*
X428612Y183153D01*
X427659Y182840D01*
X426718Y182495D01*
X425788Y182120D01*
X424872Y181713D01*
X423970Y181276D01*
X423082Y180808D01*
X422212Y180312D01*
X421357Y179787D01*
X420522Y179233D01*
X419705Y178652D01*
X418907Y178044D01*
X418131Y177410D01*
X417377Y176750D01*
X416644Y176065D01*
X415935Y175356D01*
X415250Y174624D01*
X414590Y173869D01*
X413956Y173092D01*
X413348Y172295D01*
X412767Y171478D01*
X412213Y170642D01*
X411688Y169789D01*
X411192Y168918D01*
X410724Y168030D01*
X410287Y167128D01*
X409880Y166212D01*
X409505Y165282D01*
X409160Y164341D01*
X408847Y163388D01*
X408566Y162426D01*
X408317Y161455D01*
X408101Y160476D01*
X407918Y159490D01*
X407768Y158499D01*
X407651Y157503D01*
X407567Y156504D01*
X407517Y155502D01*
X407500Y154500D01*
X407517Y153498D01*
X407567Y152496D01*
X407651Y151497D01*
X407768Y150502D01*
X407918Y149510D01*
X408101Y148524D01*
X408317Y147546D01*
X408566Y146574D01*
X408847Y145612D01*
X409160Y144659D01*
X409505Y143718D01*
X409880Y142788D01*
X410287Y141872D01*
X410724Y140970D01*
X411191Y140083D01*
X411688Y139212D01*
X412213Y138358D01*
X412767Y137522D01*
X413348Y136705D01*
X413956Y135908D01*
X414590Y135131D01*
X415250Y134377D01*
X415935Y133644D01*
X416644Y132935D01*
X417376Y132251D01*
X418131Y131591D01*
X418907Y130956D01*
X419704Y130348D01*
X420521Y129767D01*
X421357Y129213D01*
X422211Y128688D01*
X423082Y128192D01*
X423970Y127725D01*
X424872Y127287D01*
X425788Y126881D01*
X426718Y126505D01*
X427659Y126160D01*
X428612Y125847D01*
X429574Y125566D01*
X430545Y125317D01*
X431524Y125101D01*
X432510Y124918D01*
X433501Y124768D01*
X434497Y124651D01*
X435496Y124567D01*
X436497Y124517D01*
X437500Y124500D01*
X438502Y124517D01*
X439503Y124567D01*
X440503Y124651D01*
X441498Y124768D01*
X442490Y124918D01*
X443475Y125101D01*
X444454Y125317D01*
X445426Y125566D01*
X446388Y125847D01*
X447340Y126160D01*
X448282Y126505D01*
X449211Y126880D01*
X450128Y127287D01*
X451030Y127724D01*
X451917Y128191D01*
X452788Y128688D01*
X453642Y129213D01*
X454478Y129767D01*
X455295Y130348D01*
X456092Y130956D01*
X456869Y131590D01*
X457623Y132250D01*
X458356Y132935D01*
X459064Y133644D01*
X459749Y134376D01*
X460409Y135131D01*
X461044Y135907D01*
X461652Y136704D01*
X462233Y137521D01*
X462787Y138357D01*
X463312Y139211D01*
X463808Y140082D01*
X464275Y140969D01*
X464713Y141872D01*
X465119Y142788D01*
X465495Y143717D01*
X465840Y144659D01*
X466153Y145611D01*
X466434Y146574D01*
X466683Y147545D01*
X466899Y148524D01*
X467082Y149510D01*
X467232Y150501D01*
X467349Y151497D01*
X467433Y152496D01*
X467483Y153497D01*
X467500Y154500D01*
X21500Y172000D02*
X31500D01*
X21500Y112000D02*
X31500D01*
X21500D02*
Y172000D01*
X31500Y112000D02*
Y172000D01*
X423744Y22256D02*
Y25405D01*
X427287D01*
X423744Y13595D02*
Y16744D01*
Y13595D02*
X427287D01*
X407437Y32941D02*
Y38059D01*
X20811Y286000D02*
X27051D01*
X32051D02*
X38291D01*
Y246000D02*
Y286000D01*
X20811Y246000D02*
X38291D01*
X20811D02*
Y286000D01*
X320122Y247441D02*
Y252559D01*
X288602Y287366D02*
Y297012D01*
X276398Y287366D02*
Y297012D01*
Y267681D02*
Y277917D01*
X288602Y267681D02*
Y277917D01*
X278169Y298783D02*
X286831D01*
X276398Y297012D02*
X278169Y298783D01*
X286831D02*
X288602Y297012D01*
X276398Y267681D02*
X288602D01*
Y334583D02*
Y344228D01*
X276398Y334583D02*
Y344228D01*
Y314898D02*
Y325134D01*
X288602Y314898D02*
Y325134D01*
X278169Y346000D02*
X286831D01*
X276398Y344228D02*
X278169Y346000D01*
X286831D02*
X288602Y344228D01*
X276398Y314898D02*
X288602D01*
X272756Y371146D02*
Y374295D01*
X269213Y371146D02*
X272756D01*
Y379807D02*
Y382957D01*
X269213D02*
X272756D01*
X249000Y378441D02*
Y383559D01*
X382095Y16673D02*
X385244D01*
X382095D02*
Y20216D01*
X390756Y16673D02*
X393905D01*
Y20216D01*
X393595Y59173D02*
X396744D01*
X393595D02*
Y62717D01*
X402256Y59173D02*
X405406D01*
Y62717D01*
X250815Y335996D02*
Y339146D01*
X254358D01*
X250815Y327335D02*
Y330484D01*
Y327335D02*
X254358D01*
X257756Y293827D02*
X260906D01*
Y290283D02*
Y293827D01*
X249095D02*
X252244D01*
X249095Y290283D02*
Y293827D01*
X494256Y321827D02*
X497405D01*
Y318284D02*
Y321827D01*
X485595D02*
X488744D01*
X485595Y318284D02*
Y321827D01*
X321941Y92500D02*
X327059D01*
X426000Y49441D02*
Y54559D01*
X256941Y208563D02*
X262059D01*
X457441Y102500D02*
X462559D01*
X407437Y42441D02*
Y47559D01*
X407378Y10441D02*
Y15559D01*
X352500Y57941D02*
Y63059D01*
X352878Y107441D02*
Y112559D01*
X233441Y209063D02*
X238559D01*
X355378Y157441D02*
Y162559D01*
X244441Y209063D02*
X249559D01*
X267941Y208563D02*
X273059D01*
X249941Y78500D02*
X255059D01*
X354500Y197441D02*
Y202559D01*
X235941Y77878D02*
X241059D01*
X221941Y290500D02*
X227059D01*
X265441Y290378D02*
X270559D01*
X221941Y332878D02*
X227059D01*
X407378Y22941D02*
Y28059D01*
X221441Y208563D02*
X226559D01*
X266441Y78622D02*
X271559D01*
X235941Y290000D02*
X241059D01*
X45941Y44000D02*
X51059D01*
X236441Y333000D02*
X241559D01*
X265441Y331378D02*
X270559D01*
X298508Y87657D02*
Y107343D01*
X305594Y87657D02*
Y107343D01*
X298508D02*
X305594D01*
X298508Y87657D02*
X305594D01*
X494500Y28000D02*
Y68000D01*
X484500Y28000D02*
X494500D01*
X484500D02*
Y68000D01*
X494500D01*
X489500D02*
Y74000D01*
Y22000D02*
Y28000D01*
X506500Y26000D02*
Y66000D01*
X516500D01*
Y26000D02*
Y66000D01*
X506500Y26000D02*
X516500D01*
X511500Y20000D02*
Y26000D01*
Y66000D02*
Y72000D01*
X289488Y67102D02*
X299134D01*
X289488Y54898D02*
X299134D01*
X308583D02*
X318819D01*
X308583Y67102D02*
X318819D01*
X287717Y56669D02*
Y65331D01*
Y56669D02*
X289488Y54898D01*
X287717Y65331D02*
X289488Y67102D01*
X318819Y54898D02*
Y67102D01*
X455000Y228000D02*
X495000D01*
Y218000D02*
Y228000D01*
X455000Y218000D02*
X495000D01*
X455000D02*
Y228000D01*
X449000Y223000D02*
X455000D01*
X495000D02*
X501000D01*
X526957Y93157D02*
Y112843D01*
X534043Y93157D02*
Y112843D01*
X526957D02*
X534043D01*
X526957Y93157D02*
X534043D01*
X454500Y250500D02*
X494500D01*
Y240500D02*
Y250500D01*
X454500Y240500D02*
X494500D01*
X454500D02*
Y250500D01*
X448500Y245500D02*
X454500D01*
X494500D02*
X500500D01*
D48*
X136500Y35500D02*
X136310Y36457D01*
X135768Y37268D01*
X134957Y37810D01*
X134000Y38000D01*
X133043Y37810D01*
X132232Y37268D01*
X131690Y36457D01*
X131500Y35500D01*
X369750Y223000D02*
X369673Y223978D01*
X369444Y224931D01*
X369069Y225837D01*
X368556Y226674D01*
X367919Y227419D01*
X367174Y228056D01*
X366337Y228569D01*
X365431Y228944D01*
X364478Y229173D01*
X363500Y229250D01*
X362522Y229173D01*
X361569Y228944D01*
X360663Y228569D01*
X359826Y228056D01*
X359081Y227419D01*
X358444Y226674D01*
X357931Y225837D01*
X357556Y224931D01*
X357327Y223978D01*
X357250Y223000D01*
X387800Y250000D02*
X387757Y251001D01*
X387630Y251994D01*
X387419Y252973D01*
X387126Y253931D01*
X386753Y254860D01*
X386302Y255755D01*
X385776Y256608D01*
X385181Y257413D01*
X384519Y258165D01*
X383796Y258858D01*
X383017Y259487D01*
X382187Y260048D01*
X381312Y260537D01*
X380400Y260949D01*
X379455Y261283D01*
X378486Y261535D01*
X377499Y261704D01*
X376501Y261789D01*
X375499D01*
X374501Y261704D01*
X373514Y261535D01*
X372545Y261283D01*
X371600Y260949D01*
X370688Y260537D01*
X369813Y260048D01*
X368983Y259487D01*
X368204Y258858D01*
X367481Y258165D01*
X366819Y257413D01*
X366224Y256608D01*
X365698Y255755D01*
X365248Y254860D01*
X364874Y253931D01*
X364581Y252973D01*
X364370Y251994D01*
X364243Y251001D01*
X364200Y250000D01*
X364243Y248999D01*
X364370Y248006D01*
X364581Y247027D01*
X364874Y246069D01*
X365248Y245140D01*
X365698Y244245D01*
X366224Y243392D01*
X366819Y242587D01*
X367481Y241835D01*
X368204Y241142D01*
X368983Y240513D01*
X369813Y239952D01*
X370688Y239463D01*
X371600Y239051D01*
X372545Y238717D01*
X373514Y238465D01*
X374501Y238296D01*
X375499Y238211D01*
X376501D01*
X377499Y238296D01*
X378486Y238465D01*
X379455Y238717D01*
X380400Y239051D01*
X381312Y239463D01*
X382187Y239952D01*
X383017Y240513D01*
X383796Y241142D01*
X384519Y241835D01*
X385181Y242587D01*
X385776Y243392D01*
X386302Y244245D01*
X386753Y245140D01*
X387126Y246069D01*
X387419Y247027D01*
X387630Y248006D01*
X387757Y248999D01*
X387800Y250000D01*
Y200000D02*
X387757Y201001D01*
X387630Y201994D01*
X387419Y202973D01*
X387126Y203931D01*
X386753Y204860D01*
X386302Y205755D01*
X385776Y206608D01*
X385181Y207413D01*
X384519Y208165D01*
X383796Y208858D01*
X383017Y209487D01*
X382187Y210048D01*
X381312Y210537D01*
X380400Y210949D01*
X379455Y211283D01*
X378486Y211535D01*
X377499Y211704D01*
X376501Y211789D01*
X375499D01*
X374501Y211704D01*
X373514Y211535D01*
X372545Y211283D01*
X371600Y210949D01*
X370688Y210537D01*
X369813Y210048D01*
X368983Y209487D01*
X368204Y208858D01*
X367481Y208165D01*
X366819Y207413D01*
X366224Y206608D01*
X365698Y205755D01*
X365248Y204860D01*
X364874Y203931D01*
X364581Y202973D01*
X364370Y201994D01*
X364243Y201001D01*
X364200Y200000D01*
X364243Y198999D01*
X364370Y198006D01*
X364581Y197027D01*
X364874Y196069D01*
X365248Y195140D01*
X365698Y194245D01*
X366224Y193392D01*
X366819Y192587D01*
X367481Y191835D01*
X368204Y191142D01*
X368983Y190513D01*
X369813Y189952D01*
X370688Y189463D01*
X371600Y189051D01*
X372545Y188717D01*
X373514Y188465D01*
X374501Y188296D01*
X375499Y188211D01*
X376501D01*
X377499Y188296D01*
X378486Y188465D01*
X379455Y188717D01*
X380400Y189051D01*
X381312Y189463D01*
X382187Y189952D01*
X383017Y190513D01*
X383796Y191142D01*
X384519Y191835D01*
X385181Y192587D01*
X385776Y193392D01*
X386302Y194245D01*
X386753Y195140D01*
X387126Y196069D01*
X387419Y197027D01*
X387630Y198006D01*
X387757Y198999D01*
X387800Y200000D01*
X388300Y156500D02*
X388258Y157501D01*
X388130Y158494D01*
X387919Y159473D01*
X387626Y160431D01*
X387252Y161360D01*
X386802Y162255D01*
X386276Y163108D01*
X385681Y163913D01*
X385019Y164665D01*
X384296Y165358D01*
X383517Y165987D01*
X382687Y166548D01*
X381812Y167036D01*
X380900Y167449D01*
X379955Y167783D01*
X378986Y168035D01*
X377999Y168204D01*
X377001Y168289D01*
X375999D01*
X375001Y168204D01*
X374014Y168035D01*
X373045Y167783D01*
X372100Y167449D01*
X371188Y167036D01*
X370313Y166548D01*
X369483Y165987D01*
X368704Y165358D01*
X367981Y164665D01*
X367319Y163913D01*
X366724Y163108D01*
X366198Y162255D01*
X365747Y161360D01*
X365374Y160431D01*
X365081Y159473D01*
X364870Y158494D01*
X364742Y157501D01*
X364700Y156500D01*
X364742Y155499D01*
X364870Y154506D01*
X365081Y153527D01*
X365374Y152569D01*
X365747Y151640D01*
X366198Y150745D01*
X366724Y149892D01*
X367319Y149087D01*
X367981Y148335D01*
X368704Y147642D01*
X369483Y147013D01*
X370313Y146452D01*
X371188Y145964D01*
X372100Y145551D01*
X373045Y145217D01*
X374014Y144965D01*
X375001Y144796D01*
X375999Y144711D01*
X377001D01*
X377999Y144796D01*
X378986Y144965D01*
X379955Y145217D01*
X380900Y145551D01*
X381812Y145964D01*
X382687Y146452D01*
X383517Y147013D01*
X384296Y147642D01*
X385019Y148335D01*
X385681Y149087D01*
X386276Y149892D01*
X386802Y150745D01*
X387252Y151640D01*
X387626Y152569D01*
X387919Y153527D01*
X388130Y154506D01*
X388258Y155499D01*
X388300Y156500D01*
X387800Y110000D02*
X387757Y111001D01*
X387630Y111994D01*
X387419Y112973D01*
X387126Y113931D01*
X386753Y114860D01*
X386302Y115755D01*
X385776Y116608D01*
X385181Y117413D01*
X384519Y118165D01*
X383796Y118858D01*
X383017Y119487D01*
X382187Y120048D01*
X381312Y120536D01*
X380400Y120949D01*
X379455Y121283D01*
X378486Y121535D01*
X377499Y121704D01*
X376501Y121789D01*
X375499D01*
X374501Y121704D01*
X373514Y121535D01*
X372545Y121283D01*
X371600Y120949D01*
X370688Y120536D01*
X369813Y120048D01*
X368983Y119487D01*
X368204Y118858D01*
X367481Y118165D01*
X366819Y117413D01*
X366224Y116608D01*
X365698Y115755D01*
X365248Y114860D01*
X364874Y113931D01*
X364581Y112973D01*
X364370Y111994D01*
X364243Y111001D01*
X364200Y110000D01*
X364243Y108999D01*
X364370Y108006D01*
X364581Y107027D01*
X364874Y106069D01*
X365248Y105140D01*
X365698Y104245D01*
X366224Y103392D01*
X366819Y102587D01*
X367481Y101835D01*
X368204Y101142D01*
X368983Y100513D01*
X369813Y99952D01*
X370688Y99463D01*
X371600Y99051D01*
X372545Y98717D01*
X373514Y98465D01*
X374501Y98296D01*
X375499Y98211D01*
X376501D01*
X377499Y98296D01*
X378486Y98465D01*
X379455Y98717D01*
X380400Y99051D01*
X381312Y99463D01*
X382187Y99952D01*
X383017Y100513D01*
X383796Y101142D01*
X384519Y101835D01*
X385181Y102587D01*
X385776Y103392D01*
X386302Y104245D01*
X386753Y105140D01*
X387126Y106069D01*
X387419Y107027D01*
X387630Y108006D01*
X387757Y108999D01*
X387800Y110000D01*
Y60000D02*
X387757Y61001D01*
X387630Y61994D01*
X387419Y62973D01*
X387126Y63931D01*
X386753Y64860D01*
X386302Y65755D01*
X385776Y66608D01*
X385181Y67413D01*
X384519Y68165D01*
X383796Y68858D01*
X383017Y69487D01*
X382187Y70048D01*
X381312Y70537D01*
X380400Y70949D01*
X379455Y71283D01*
X378486Y71535D01*
X377499Y71704D01*
X376501Y71789D01*
X375499D01*
X374501Y71704D01*
X373514Y71535D01*
X372545Y71283D01*
X371600Y70949D01*
X370688Y70537D01*
X369813Y70048D01*
X368983Y69487D01*
X368204Y68858D01*
X367481Y68165D01*
X366819Y67413D01*
X366224Y66608D01*
X365698Y65755D01*
X365248Y64860D01*
X364874Y63931D01*
X364581Y62973D01*
X364370Y61994D01*
X364243Y61001D01*
X364200Y60000D01*
X364243Y58999D01*
X364370Y58006D01*
X364581Y57027D01*
X364874Y56069D01*
X365248Y55139D01*
X365698Y54245D01*
X366224Y53392D01*
X366819Y52587D01*
X367481Y51835D01*
X368204Y51142D01*
X368983Y50513D01*
X369813Y49952D01*
X370688Y49463D01*
X371600Y49051D01*
X372545Y48717D01*
X373514Y48465D01*
X374501Y48296D01*
X375499Y48211D01*
X376501D01*
X377499Y48296D01*
X378486Y48465D01*
X379455Y48717D01*
X380400Y49051D01*
X381312Y49463D01*
X382187Y49952D01*
X383017Y50513D01*
X383796Y51142D01*
X384519Y51835D01*
X385181Y52587D01*
X385776Y53392D01*
X386302Y54245D01*
X386753Y55140D01*
X387126Y56069D01*
X387419Y57027D01*
X387630Y58006D01*
X387757Y58999D01*
X387800Y60000D01*
X492500Y336000D02*
X492310Y336957D01*
X491768Y337768D01*
X490957Y338310D01*
X490000Y338500D01*
X489043Y338310D01*
X488232Y337768D01*
X487690Y336957D01*
X487500Y336000D01*
X436000Y103000D02*
X435960Y103993D01*
X435842Y104980D01*
X435646Y105954D01*
X435373Y106910D01*
X435025Y107841D01*
X434604Y108741D01*
X434112Y109605D01*
X433554Y110427D01*
X432932Y111203D01*
X432250Y111926D01*
X431514Y112593D01*
X430726Y113200D01*
X429893Y113742D01*
X429019Y114216D01*
X428111Y114619D01*
X427173Y114948D01*
X426212Y115202D01*
X425234Y115379D01*
X424245Y115478D01*
X423251Y115498D01*
X422259Y115438D01*
X421275Y115300D01*
X420305Y115085D01*
X419355Y114793D01*
X418431Y114426D01*
X417539Y113987D01*
X416685Y113479D01*
X415874Y112904D01*
X415111Y112267D01*
X414401Y111571D01*
X413749Y110821D01*
X413159Y110022D01*
X412634Y109178D01*
X412177Y108295D01*
X411792Y107379D01*
X411481Y106435D01*
X411246Y105469D01*
X411089Y104488D01*
X411010Y103497D01*
Y102503D01*
X411089Y101512D01*
X411246Y100531D01*
X411481Y99565D01*
X411792Y98621D01*
X412177Y97705D01*
X412634Y96822D01*
X413159Y95978D01*
X413749Y95179D01*
X414401Y94429D01*
X415111Y93733D01*
X415874Y93096D01*
X416685Y92521D01*
X417539Y92013D01*
X418431Y91574D01*
X419355Y91207D01*
X420305Y90915D01*
X421275Y90700D01*
X422259Y90562D01*
X423251Y90503D01*
X424245Y90522D01*
X425234Y90621D01*
X426212Y90798D01*
X427173Y91052D01*
X428111Y91382D01*
X429019Y91785D01*
X429893Y92259D01*
X430726Y92800D01*
X431514Y93407D01*
X432251Y94074D01*
X432932Y94797D01*
X433554Y95573D01*
X434112Y96395D01*
X434604Y97259D01*
X435025Y98159D01*
X435373Y99090D01*
X435646Y100046D01*
X435842Y101020D01*
X435960Y102007D01*
X436000Y103000D01*
X394500Y32500D02*
X399000Y29500D01*
X136500Y35500D02*
X200500D01*
X67500D02*
X131500D01*
X67500D02*
Y365500D01*
X200500D01*
Y35500D02*
Y365500D01*
X460500Y268500D02*
X500500D01*
X460500D02*
Y285000D01*
X500500D01*
Y268500D02*
Y285000D01*
X437500Y74500D02*
X472450D01*
Y22500D02*
Y74500D01*
X437500Y22500D02*
X472450D01*
X437500D02*
Y42225D01*
Y34075D02*
Y74500D01*
X270300Y44000D02*
X338950D01*
X270300Y21500D02*
Y44000D01*
Y21500D02*
X338950D01*
Y22000D02*
Y44000D01*
X369750Y223000D02*
X415000D01*
X312000D02*
X357250D01*
X312000D02*
Y396500D01*
X415000D01*
Y223000D02*
Y396500D01*
X492500Y336000D02*
X504500D01*
X475500D02*
X487500D01*
X475600D02*
Y386000D01*
X504000D01*
X504400Y336000D02*
Y386000D01*
X413000Y189000D02*
Y209000D01*
Y189000D02*
X473000D01*
X473500D02*
Y209000D01*
X413000D02*
X473000D01*
X282500Y208500D02*
X342500D01*
X343000Y188500D02*
Y208500D01*
X282500Y188500D02*
X342500D01*
X282500D02*
Y208500D01*
X433500Y92000D02*
X437500D01*
X435500Y90000D02*
Y94000D01*
X22150Y175350D02*
Y181348D01*
X25149D01*
X26149Y180348D01*
Y178349D01*
X25149Y177349D01*
X22150D01*
X31147Y175350D02*
Y181348D01*
X28148Y178349D01*
X32147D01*
X422500Y10498D02*
Y4500D01*
X425499D01*
X426499Y5500D01*
Y9498D01*
X425499Y10498D01*
X422500D01*
X428498Y4500D02*
X430497D01*
X429498D01*
Y10498D01*
X428498Y9498D01*
X433496D02*
X434496Y10498D01*
X436495D01*
X437495Y9498D01*
Y8499D01*
X436495Y7499D01*
X435496D01*
X436495D01*
X437495Y6499D01*
Y5500D01*
X436495Y4500D01*
X434496D01*
X433496Y5500D01*
X421999Y36498D02*
X420999Y37498D01*
X419000D01*
X418000Y36498D01*
Y32500D01*
X419000Y31500D01*
X420999D01*
X421999Y32500D01*
X423998Y31500D02*
X425997D01*
X424998D01*
Y37498D01*
X423998Y36498D01*
X428996Y31500D02*
X430996D01*
X429996D01*
Y37498D01*
X428996Y36498D01*
X26000Y240001D02*
X31998D01*
X28999Y243000D01*
Y239001D01*
X26000Y293500D02*
Y291501D01*
Y292500D01*
X31998D01*
X30998Y293500D01*
X21999Y306998D02*
X20999Y307998D01*
X19000D01*
X18000Y306998D01*
Y305999D01*
X19000Y304999D01*
X20999D01*
X21999Y303999D01*
Y303000D01*
X20999Y302000D01*
X19000D01*
X18000Y303000D01*
X23998Y302000D02*
X25997D01*
X24998D01*
Y307998D01*
X23998Y306998D01*
X322000Y258500D02*
Y264498D01*
X324999D01*
X325999Y263498D01*
Y261499D01*
X324999Y260499D01*
X322000D01*
X323999D02*
X325999Y258500D01*
X327998Y264498D02*
X331997D01*
Y263498D01*
X327998Y259500D01*
Y258500D01*
X275500Y308498D02*
Y302500D01*
X278499D01*
X279499Y303500D01*
Y307498D01*
X278499Y308498D01*
X275500D01*
X281498Y302500D02*
X283497D01*
X282498D01*
Y308498D01*
X281498Y307498D01*
X290495Y308498D02*
X288496Y307498D01*
X286496Y305499D01*
Y303500D01*
X287496Y302500D01*
X289495D01*
X290495Y303500D01*
Y304499D01*
X289495Y305499D01*
X286496D01*
X274500Y360498D02*
Y354500D01*
X277499D01*
X278499Y355500D01*
Y359498D01*
X277499Y360498D01*
X274500D01*
X280498Y354500D02*
X282497D01*
X281498D01*
Y360498D01*
X280498Y359498D01*
X289495Y360498D02*
X285496D01*
Y357499D01*
X287496Y358499D01*
X288495D01*
X289495Y357499D01*
Y355500D01*
X288495Y354500D01*
X286496D01*
X285496Y355500D01*
X270999Y389500D02*
Y393498D01*
X269999Y394498D01*
X268000D01*
X267000Y393498D01*
Y389500D01*
X268000Y388500D01*
X269999D01*
X268999Y390499D02*
X270999Y388500D01*
X269999D02*
X270999Y389500D01*
X272998Y388500D02*
X274997D01*
X273998D01*
Y394498D01*
X272998Y393498D01*
X245000Y387000D02*
Y392998D01*
X247999D01*
X248999Y391998D01*
Y389999D01*
X247999Y388999D01*
X245000D01*
X246999D02*
X248999Y387000D01*
X250998Y391998D02*
X251998Y392998D01*
X253997D01*
X254997Y391998D01*
Y390999D01*
X253997Y389999D01*
X254997Y388999D01*
Y388000D01*
X253997Y387000D01*
X251998D01*
X250998Y388000D01*
Y388999D01*
X251998Y389999D01*
X250998Y390999D01*
Y391998D01*
X251998Y389999D02*
X253997D01*
X362500Y21998D02*
Y16000D01*
X365499D01*
X366499Y17000D01*
Y20998D01*
X365499Y21998D01*
X362500D01*
X368498Y16000D02*
X370497D01*
X369498D01*
Y21998D01*
X368498Y20998D01*
X373496Y21998D02*
X377495D01*
Y20998D01*
X373496Y17000D01*
Y16000D01*
X392000Y81998D02*
Y76000D01*
X394999D01*
X395999Y77000D01*
Y80998D01*
X394999Y81998D01*
X392000D01*
X397998Y76000D02*
X399997D01*
X398998D01*
Y81998D01*
X397998Y80998D01*
X402996D02*
X403996Y81998D01*
X405996D01*
X406995Y80998D01*
Y79999D01*
X405996Y78999D01*
X406995Y77999D01*
Y77000D01*
X405996Y76000D01*
X403996D01*
X402996Y77000D01*
Y77999D01*
X403996Y78999D01*
X402996Y79999D01*
Y80998D01*
X403996Y78999D02*
X405996D01*
X336498Y96501D02*
X337498Y97501D01*
Y99500D01*
X336498Y100500D01*
X332500D01*
X331500Y99500D01*
Y97501D01*
X332500Y96501D01*
X331500Y94502D02*
Y92503D01*
Y93502D01*
X337498D01*
X336498Y94502D01*
X331500Y85505D02*
Y89504D01*
X335499Y85505D01*
X336498D01*
X337498Y86505D01*
Y88504D01*
X336498Y89504D01*
X418100Y60100D02*
Y66098D01*
X421099D01*
X422099Y65098D01*
Y63099D01*
X421099Y62099D01*
X418100D01*
X420099D02*
X422099Y60100D01*
X428097D02*
X424098D01*
X428097Y64099D01*
Y65098D01*
X427097Y66098D01*
X425098D01*
X424098Y65098D01*
X430096Y60100D02*
X432095D01*
X431096D01*
Y66098D01*
X430096Y65098D01*
X368000Y79498D02*
Y73500D01*
X370999D01*
X371999Y74500D01*
Y78498D01*
X370999Y79498D01*
X368000D01*
X373998Y73500D02*
X375997D01*
X374998D01*
Y79498D01*
X373998Y78498D01*
X382995Y73500D02*
X378996D01*
X382995Y77499D01*
Y78498D01*
X381996Y79498D01*
X379996D01*
X378996Y78498D01*
X370500Y129998D02*
Y124000D01*
X373499D01*
X374499Y125000D01*
Y128998D01*
X373499Y129998D01*
X370500D01*
X376498Y124000D02*
X378497D01*
X377498D01*
Y129998D01*
X376498Y128998D01*
X381496Y124000D02*
X383496D01*
X382496D01*
Y129998D01*
X381496Y128998D01*
X370500Y177498D02*
Y171500D01*
X373499D01*
X374499Y172500D01*
Y176498D01*
X373499Y177498D01*
X370500D01*
X376498Y171500D02*
X378497D01*
X377498D01*
Y177498D01*
X376498Y176498D01*
X381496D02*
X382496Y177498D01*
X384495D01*
X385495Y176498D01*
Y172500D01*
X384495Y171500D01*
X382496D01*
X381496Y172500D01*
Y176498D01*
X372000Y220998D02*
Y215000D01*
X374999D01*
X375999Y216000D01*
Y219998D01*
X374999Y220998D01*
X372000D01*
X377998Y216000D02*
X378998Y215000D01*
X380997D01*
X381997Y216000D01*
Y219998D01*
X380997Y220998D01*
X378998D01*
X377998Y219998D01*
Y218999D01*
X378998Y217999D01*
X381997D01*
X371500Y269998D02*
Y264000D01*
X374499D01*
X375499Y265000D01*
Y268998D01*
X374499Y269998D01*
X371500D01*
X377498Y268998D02*
X378498Y269998D01*
X380497D01*
X381497Y268998D01*
Y267999D01*
X380497Y266999D01*
X381497Y265999D01*
Y265000D01*
X380497Y264000D01*
X378498D01*
X377498Y265000D01*
Y265999D01*
X378498Y266999D01*
X377498Y267999D01*
Y268998D01*
X378498Y266999D02*
X380497D01*
X418000Y39500D02*
Y45498D01*
X420999D01*
X421999Y44498D01*
Y42499D01*
X420999Y41499D01*
X418000D01*
X419999D02*
X421999Y39500D01*
X427997D02*
X423998D01*
X427997Y43499D01*
Y44498D01*
X426997Y45498D01*
X424998D01*
X423998Y44498D01*
X429996D02*
X430996Y45498D01*
X432995D01*
X433995Y44498D01*
Y40500D01*
X432995Y39500D01*
X430996D01*
X429996Y40500D01*
Y44498D01*
X400500Y2000D02*
Y7998D01*
X403499D01*
X404499Y6998D01*
Y4999D01*
X403499Y3999D01*
X400500D01*
X402499D02*
X404499Y2000D01*
X406498D02*
X408497D01*
X407498D01*
Y7998D01*
X406498Y6998D01*
X411496Y3000D02*
X412496Y2000D01*
X414496D01*
X415495Y3000D01*
Y6998D01*
X414496Y7998D01*
X412496D01*
X411496Y6998D01*
Y5999D01*
X412496Y4999D01*
X415495D01*
X501000Y395498D02*
Y389500D01*
Y391499D01*
X504999Y395498D01*
X502000Y392499D01*
X504999Y389500D01*
X506998D02*
X508997D01*
X507998D01*
Y395498D01*
X506998Y394498D01*
X381499Y33498D02*
X380499Y34498D01*
X378500D01*
X377500Y33498D01*
Y29500D01*
X378500Y28500D01*
X380499D01*
X381499Y29500D01*
X383498Y28500D02*
X385497D01*
X384498D01*
Y34498D01*
X383498Y33498D01*
X388496D02*
X389496Y34498D01*
X391495D01*
X392495Y33498D01*
Y29500D01*
X391495Y28500D01*
X389496D01*
X388496Y29500D01*
Y33498D01*
X316500Y119498D02*
Y114500D01*
X317500Y113500D01*
X319499D01*
X320499Y114500D01*
Y119498D01*
X326497Y113500D02*
X322498D01*
X326497Y117499D01*
Y118498D01*
X325497Y119498D01*
X323498D01*
X322498Y118498D01*
X541500Y123798D02*
Y118800D01*
X542500Y117800D01*
X544499D01*
X545499Y118800D01*
Y123798D01*
X547498Y117800D02*
X549497D01*
X548498D01*
Y123798D01*
X547498Y122798D01*
X552000Y340500D02*
Y346498D01*
X554999D01*
X555999Y345498D01*
Y343499D01*
X554999Y342499D01*
X552000D01*
X557998Y340500D02*
X559997D01*
X558998D01*
Y346498D01*
X557998Y345498D01*
X302000Y394498D02*
X305999D01*
X303999D01*
Y388500D01*
X307998D02*
X309997D01*
X308998D01*
Y394498D01*
X307998Y393498D01*
X79600Y369000D02*
Y374998D01*
X81599Y372999D01*
X83599Y374998D01*
Y369000D01*
X85598D02*
X87597D01*
X86598D01*
Y374998D01*
X85598Y373998D01*
X344000Y69500D02*
Y75498D01*
X346999D01*
X347999Y74498D01*
Y72499D01*
X346999Y71499D01*
X344000D01*
X345999D02*
X347999Y69500D01*
X349998D02*
X351997D01*
X350998D01*
Y75498D01*
X349998Y74498D01*
X354996D02*
X355996Y75498D01*
X357996D01*
X358995Y74498D01*
Y73499D01*
X357996Y72499D01*
X358995Y71499D01*
Y70500D01*
X357996Y69500D01*
X355996D01*
X354996Y70500D01*
Y71499D01*
X355996Y72499D01*
X354996Y73499D01*
Y74498D01*
X355996Y72499D02*
X357996D01*
X345500Y116500D02*
Y122498D01*
X348499D01*
X349499Y121498D01*
Y119499D01*
X348499Y118499D01*
X345500D01*
X347499D02*
X349499Y116500D01*
X351498D02*
X353497D01*
X352498D01*
Y122498D01*
X351498Y121498D01*
X356496Y122498D02*
X360495D01*
Y121498D01*
X356496Y117500D01*
Y116500D01*
X229500Y191500D02*
Y197498D01*
X232499D01*
X233499Y196498D01*
Y194499D01*
X232499Y193499D01*
X229500D01*
X231499D02*
X233499Y191500D01*
X235498D02*
X237497D01*
X236498D01*
Y197498D01*
X235498Y196498D01*
X244495Y197498D02*
X242496Y196498D01*
X240496Y194499D01*
Y192500D01*
X241496Y191500D01*
X243495D01*
X244495Y192500D01*
Y193499D01*
X243495Y194499D01*
X240496D01*
X348000Y168500D02*
Y174498D01*
X350999D01*
X351999Y173498D01*
Y171499D01*
X350999Y170499D01*
X348000D01*
X349999D02*
X351999Y168500D01*
X353998D02*
X355997D01*
X354998D01*
Y174498D01*
X353998Y173498D01*
X362995Y174498D02*
X358996D01*
Y171499D01*
X360996Y172499D01*
X361996D01*
X362995Y171499D01*
Y169500D01*
X361996Y168500D01*
X359996D01*
X358996Y169500D01*
X241000Y221000D02*
Y226998D01*
X243999D01*
X244999Y225998D01*
Y223999D01*
X243999Y222999D01*
X241000D01*
X242999D02*
X244999Y221000D01*
X246998D02*
X248997D01*
X247998D01*
Y226998D01*
X246998Y225998D01*
X254995Y221000D02*
Y226998D01*
X251996Y223999D01*
X255995D01*
X266000Y219000D02*
Y224998D01*
X268999D01*
X269999Y223998D01*
Y221999D01*
X268999Y220999D01*
X266000D01*
X267999D02*
X269999Y219000D01*
X271998D02*
X273997D01*
X272998D01*
Y224998D01*
X271998Y223998D01*
X276996D02*
X277996Y224998D01*
X279995D01*
X280995Y223998D01*
Y222999D01*
X279995Y221999D01*
X278996D01*
X279995D01*
X280995Y220999D01*
Y220000D01*
X279995Y219000D01*
X277996D01*
X276996Y220000D01*
X245500Y91500D02*
Y97498D01*
X248499D01*
X249499Y96498D01*
Y94499D01*
X248499Y93499D01*
X245500D01*
X247499D02*
X249499Y91500D01*
X251498D02*
X253497D01*
X252498D01*
Y97498D01*
X251498Y96498D01*
X260495Y91500D02*
X256496D01*
X260495Y95499D01*
Y96498D01*
X259495Y97498D01*
X257496D01*
X256496Y96498D01*
X253500Y191000D02*
Y196998D01*
X256499D01*
X257499Y195998D01*
Y193999D01*
X256499Y192999D01*
X253500D01*
X255499D02*
X257499Y191000D01*
X259498D02*
X261497D01*
X260498D01*
Y196998D01*
X259498Y195998D01*
X264496Y191000D02*
X266496D01*
X265496D01*
Y196998D01*
X264496Y195998D01*
X344500Y206500D02*
Y212498D01*
X347499D01*
X348499Y211498D01*
Y209499D01*
X347499Y208499D01*
X344500D01*
X346499D02*
X348499Y206500D01*
X350498D02*
X352497D01*
X351498D01*
Y212498D01*
X350498Y211498D01*
X355496D02*
X356496Y212498D01*
X358495D01*
X359495Y211498D01*
Y207500D01*
X358495Y206500D01*
X356496D01*
X355496Y207500D01*
Y211498D01*
X230500Y91500D02*
Y97498D01*
X233499D01*
X234499Y96498D01*
Y94499D01*
X233499Y93499D01*
X230500D01*
X232499D02*
X234499Y91500D01*
X236498Y92500D02*
X237498Y91500D01*
X239497D01*
X240497Y92500D01*
Y96498D01*
X239497Y97498D01*
X237498D01*
X236498Y96498D01*
Y95499D01*
X237498Y94499D01*
X240497D01*
X218500Y302500D02*
Y308498D01*
X221499D01*
X222499Y307498D01*
Y305499D01*
X221499Y304499D01*
X218500D01*
X220499D02*
X222499Y302500D01*
X228497Y308498D02*
X226497Y307498D01*
X224498Y305499D01*
Y303500D01*
X225498Y302500D01*
X227497D01*
X228497Y303500D01*
Y304499D01*
X227497Y305499D01*
X224498D01*
X262500Y303000D02*
Y308998D01*
X265499D01*
X266499Y307998D01*
Y305999D01*
X265499Y304999D01*
X262500D01*
X264499D02*
X266499Y303000D01*
X272497Y308998D02*
X268498D01*
Y305999D01*
X270497Y306999D01*
X271497D01*
X272497Y305999D01*
Y304000D01*
X271497Y303000D01*
X269498D01*
X268498Y304000D01*
X467800Y231400D02*
Y237398D01*
X470799D01*
X471799Y236398D01*
Y234399D01*
X470799Y233399D01*
X467800D01*
X469799D02*
X471799Y231400D01*
X476797D02*
Y237398D01*
X473798Y234399D01*
X477797D01*
X220000Y348500D02*
Y354498D01*
X222999D01*
X223999Y353498D01*
Y351499D01*
X222999Y350499D01*
X220000D01*
X221999D02*
X223999Y348500D01*
X225998Y353498D02*
X226998Y354498D01*
X228997D01*
X229997Y353498D01*
Y352499D01*
X228997Y351499D01*
X227997D01*
X228997D01*
X229997Y350499D01*
Y349500D01*
X228997Y348500D01*
X226998D01*
X225998Y349500D01*
X264000Y345000D02*
Y350998D01*
X266999D01*
X267999Y349998D01*
Y347999D01*
X266999Y346999D01*
X264000D01*
X265999D02*
X267999Y345000D01*
X273997D02*
X269998D01*
X273997Y348999D01*
Y349998D01*
X272997Y350998D01*
X270998D01*
X269998Y349998D01*
X467300Y253900D02*
Y259898D01*
X470299D01*
X471299Y258898D01*
Y256899D01*
X470299Y255899D01*
X467300D01*
X469299D02*
X471299Y253900D01*
X473298D02*
X475297D01*
X474298D01*
Y259898D01*
X473298Y258898D01*
X271000Y13000D02*
Y18998D01*
X273999D01*
X274999Y17998D01*
Y15999D01*
X273999Y14999D01*
X271000D01*
X280997Y13000D02*
X276998D01*
X280997Y16999D01*
Y17998D01*
X279997Y18998D01*
X277998D01*
X276998Y17998D01*
X483000Y89498D02*
Y83500D01*
X486999D01*
X488998D02*
X490997D01*
X489998D01*
Y89498D01*
X488998Y88498D01*
X489999Y294498D02*
X486000D01*
Y291499D01*
X487999D01*
X486000D01*
Y288500D01*
X491998D02*
X493997D01*
X492998D01*
Y294498D01*
X491998Y293498D01*
X313358Y76498D02*
Y70500D01*
X316357D01*
X317357Y71500D01*
Y75498D01*
X316357Y76498D01*
X313358D01*
X319356D02*
X323355D01*
Y75498D01*
X319356Y71500D01*
Y70500D01*
X476000Y309998D02*
Y304000D01*
X478999D01*
X479999Y305000D01*
Y308998D01*
X478999Y309998D01*
X476000D01*
X485997D02*
X483997Y308998D01*
X481998Y306999D01*
Y305000D01*
X482998Y304000D01*
X484997D01*
X485997Y305000D01*
Y305999D01*
X484997Y306999D01*
X481998D01*
X248000Y308498D02*
Y302500D01*
X250999D01*
X251999Y303500D01*
Y307498D01*
X250999Y308498D01*
X248000D01*
X257997D02*
X253998D01*
Y305499D01*
X255997Y306499D01*
X256997D01*
X257997Y305499D01*
Y303500D01*
X256997Y302500D01*
X254998D01*
X253998Y303500D01*
X250000Y350998D02*
Y345000D01*
X252999D01*
X253999Y346000D01*
Y349998D01*
X252999Y350998D01*
X250000D01*
X258997Y345000D02*
Y350998D01*
X255998Y347999D01*
X259997D01*
X284500Y216998D02*
Y211000D01*
X287499D01*
X288499Y212000D01*
Y215998D01*
X287499Y216998D01*
X284500D01*
X290498Y215998D02*
X291498Y216998D01*
X293497D01*
X294497Y215998D01*
Y214999D01*
X293497Y213999D01*
X292497D01*
X293497D01*
X294497Y212999D01*
Y212000D01*
X293497Y211000D01*
X291498D01*
X290498Y212000D01*
X504500Y89498D02*
Y83500D01*
X507499D01*
X508499Y84500D01*
Y88498D01*
X507499Y89498D01*
X504500D01*
X514497Y83500D02*
X510498D01*
X514497Y87499D01*
Y88498D01*
X513497Y89498D01*
X511498D01*
X510498Y88498D01*
X414500Y218498D02*
Y212500D01*
X417499D01*
X418499Y213500D01*
Y217498D01*
X417499Y218498D01*
X414500D01*
X420498Y212500D02*
X422497D01*
X421498D01*
Y218498D01*
X420498Y217498D01*
X223999Y225998D02*
X222999Y226998D01*
X221000D01*
X220000Y225998D01*
Y222000D01*
X221000Y221000D01*
X222999D01*
X223999Y222000D01*
X225998D02*
X226998Y221000D01*
X228997D01*
X229997Y222000D01*
Y225998D01*
X228997Y226998D01*
X226998D01*
X225998Y225998D01*
Y224999D01*
X226998Y223999D01*
X229997D01*
X268999Y95998D02*
X267999Y96998D01*
X266000D01*
X265000Y95998D01*
Y92000D01*
X266000Y91000D01*
X267999D01*
X268999Y92000D01*
X270998Y95998D02*
X271998Y96998D01*
X273997D01*
X274997Y95998D01*
Y94999D01*
X273997Y93999D01*
X274997Y92999D01*
Y92000D01*
X273997Y91000D01*
X271998D01*
X270998Y92000D01*
Y92999D01*
X271998Y93999D01*
X270998Y94999D01*
Y95998D01*
X271998Y93999D02*
X273997D01*
X237499Y307498D02*
X236499Y308498D01*
X234500D01*
X233500Y307498D01*
Y303500D01*
X234500Y302500D01*
X236499D01*
X237499Y303500D01*
X239498Y308498D02*
X243497D01*
Y307498D01*
X239498Y303500D01*
Y302500D01*
X42999Y60998D02*
X41999Y61998D01*
X40000D01*
X39000Y60998D01*
Y57000D01*
X40000Y56000D01*
X41999D01*
X42999Y57000D01*
X48997Y61998D02*
X46997Y60998D01*
X44998Y58999D01*
Y57000D01*
X45998Y56000D01*
X47997D01*
X48997Y57000D01*
Y57999D01*
X47997Y58999D01*
X44998D01*
X237499Y353998D02*
X236499Y354998D01*
X234500D01*
X233500Y353998D01*
Y350000D01*
X234500Y349000D01*
X236499D01*
X237499Y350000D01*
X243497Y354998D02*
X239498D01*
Y351999D01*
X241497Y352999D01*
X242497D01*
X243497Y351999D01*
Y350000D01*
X242497Y349000D01*
X240498D01*
X239498Y350000D01*
X265999Y164498D02*
X264999Y165498D01*
X263000D01*
X262000Y164498D01*
Y160500D01*
X263000Y159500D01*
X264999D01*
X265999Y160500D01*
X270997Y159500D02*
Y165498D01*
X267998Y162499D01*
X271997D01*
X462999Y119498D02*
X461999Y120498D01*
X460000D01*
X459000Y119498D01*
Y115500D01*
X460000Y114500D01*
X461999D01*
X462999Y115500D01*
X464998Y119498D02*
X465998Y120498D01*
X467997D01*
X468997Y119498D01*
Y118499D01*
X467997Y117499D01*
X466997D01*
X467997D01*
X468997Y116499D01*
Y115500D01*
X467997Y114500D01*
X465998D01*
X464998Y115500D01*
X402499Y118998D02*
X401499Y119998D01*
X399500D01*
X398500Y118998D01*
Y115000D01*
X399500Y114000D01*
X401499D01*
X402499Y115000D01*
X408497Y114000D02*
X404498D01*
X408497Y117999D01*
Y118998D01*
X407497Y119998D01*
X405498D01*
X404498Y118998D01*
X402499Y169998D02*
X401499Y170998D01*
X399500D01*
X398500Y169998D01*
Y166000D01*
X399500Y165000D01*
X401499D01*
X402499Y166000D01*
X404498Y165000D02*
X406497D01*
X405498D01*
Y170998D01*
X404498Y169998D01*
X463050Y78050D02*
Y84048D01*
X466049D01*
X467049Y83048D01*
Y81049D01*
X466049Y80049D01*
X463050D01*
X469048Y83048D02*
X470048Y84048D01*
X472047D01*
X473047Y83048D01*
Y82049D01*
X472047Y81049D01*
X471047D01*
X472047D01*
X473047Y80049D01*
Y79050D01*
X472047Y78050D01*
X470048D01*
X469048Y79050D01*
X336000Y139499D02*
X339999D01*
X341998Y136500D02*
X343997D01*
X342998D01*
Y142498D01*
X341998Y141498D01*
X350995Y136500D02*
X346996D01*
X350995Y140499D01*
Y141498D01*
X349995Y142498D01*
X347996D01*
X346996Y141498D01*
X386500Y136499D02*
X390499D01*
X388499Y138498D02*
Y134500D01*
X392498Y133500D02*
X394497D01*
X393498D01*
Y139498D01*
X392498Y138498D01*
X401495Y133500D02*
X397496D01*
X401495Y137499D01*
Y138498D01*
X400495Y139498D01*
X398496D01*
X397496Y138498D01*
X75500Y18999D02*
X79499D01*
X77499Y20998D02*
Y17000D01*
X85497Y21998D02*
X81498D01*
Y18999D01*
X83497Y19999D01*
X84497D01*
X85497Y18999D01*
Y17000D01*
X84497Y16000D01*
X82498D01*
X81498Y17000D01*
X15499Y91998D02*
X14499Y92998D01*
X12500D01*
X11500Y91998D01*
Y88000D01*
X12500Y87000D01*
X14499D01*
X15499Y88000D01*
Y89999D01*
X13499D01*
X17498Y87000D02*
Y92998D01*
X21497Y87000D01*
Y92998D01*
X23496D02*
Y87000D01*
X26495D01*
X27495Y88000D01*
Y91998D01*
X26495Y92998D01*
X23496D01*
X54000Y393498D02*
X57999D01*
X55999D01*
Y387500D01*
X62997D02*
X60998D01*
X59998Y388500D01*
Y390499D01*
X60998Y391499D01*
X62997D01*
X63997Y390499D01*
Y389499D01*
X59998D01*
X69995Y391499D02*
X66996D01*
X65996Y390499D01*
Y388500D01*
X66996Y387500D01*
X69995D01*
X71994Y393498D02*
Y387500D01*
Y390499D01*
X72994Y391499D01*
X74993D01*
X75993Y390499D01*
Y387500D01*
X77992D02*
Y391499D01*
X80991D01*
X81991Y390499D01*
Y387500D01*
X84990D02*
X86989D01*
X87989Y388500D01*
Y390499D01*
X86989Y391499D01*
X84990D01*
X83990Y390499D01*
Y388500D01*
X84990Y387500D01*
X89988D02*
X91988D01*
X90988D01*
Y393498D01*
X89988D01*
X95986Y391499D02*
X97986D01*
X98985Y390499D01*
Y387500D01*
X95986D01*
X94987Y388500D01*
X95986Y389499D01*
X98985D01*
X101985Y387500D02*
Y392498D01*
Y390499D01*
X100985D01*
X102984D01*
X101985D01*
Y392498D01*
X102984Y393498D01*
X111981Y387500D02*
X115980Y391499D01*
X123977Y393498D02*
Y389499D01*
X125977Y387500D01*
X127976Y389499D01*
Y393498D01*
X129975Y387500D02*
X131975D01*
X130975D01*
Y393498D01*
X129975Y392498D01*
X134974Y387500D02*
Y388500D01*
X135974D01*
Y387500D01*
X134974D01*
X143971D02*
X139972D01*
X143971Y391499D01*
Y392498D01*
X142971Y393498D01*
X140972D01*
X139972Y392498D01*
X151968Y387500D02*
X155967Y391499D01*
X163964Y385501D02*
X164964D01*
X165964Y386500D01*
Y391499D01*
X170962D02*
X172961D01*
X173961Y390499D01*
Y387500D01*
X170962D01*
X169963Y388500D01*
X170962Y389499D01*
X173961D01*
X175961Y387500D02*
Y391499D01*
X178960D01*
X179959Y390499D01*
Y387500D01*
X191955D02*
X187957D01*
X191955Y391499D01*
Y392498D01*
X190956Y393498D01*
X188956D01*
X187957Y392498D01*
X193955D02*
X194954Y393498D01*
X196954D01*
X197953Y392498D01*
Y388500D01*
X196954Y387500D01*
X194954D01*
X193955Y388500D01*
Y392498D01*
X203952Y387500D02*
X199953D01*
X203952Y391499D01*
Y392498D01*
X202952Y393498D01*
X200953D01*
X199953Y392498D01*
X205951D02*
X206950Y393498D01*
X208950D01*
X209949Y392498D01*
Y388500D01*
X208950Y387500D01*
X206950D01*
X205951Y388500D01*
Y392498D01*
D49*
X272485Y152949D02*
X268549D01*
X270517Y150981D02*
Y154917D01*
X405485Y154449D02*
X401549D01*
X403517Y152481D02*
Y156417D01*
M02*
