G04 Layer_Color=65535*
%FSLAX25Y25*%
%MOIN*%
G70*
G01*
G75*
%ADD41C,0.00984*%
%ADD42C,0.01000*%
%ADD43C,0.00787*%
%ADD44C,0.00591*%
D41*
X372748Y429894D02*
X372010Y430320D01*
Y429467D01*
X372748Y429894D01*
X417095Y208347D02*
X416356Y208773D01*
Y207920D01*
X417095Y208347D01*
X612646Y424386D02*
X611907Y424812D01*
Y423960D01*
X612646Y424386D01*
X376146Y396386D02*
X375408Y396812D01*
Y395960D01*
X376146Y396386D01*
X545677Y116154D02*
X544939Y116580D01*
Y115727D01*
X545677Y116154D01*
X546177Y141654D02*
X545439Y142080D01*
Y141227D01*
X546177Y141654D01*
X399807Y480398D02*
X399069Y480824D01*
Y479971D01*
X399807Y480398D01*
X645543Y213846D02*
X644805Y214273D01*
Y213420D01*
X645543Y213846D01*
D42*
X560000Y203000D02*
X559961Y203993D01*
X559842Y204980D01*
X559646Y205954D01*
X559373Y206910D01*
X559025Y207841D01*
X558603Y208741D01*
X558112Y209605D01*
X557554Y210427D01*
X556932Y211203D01*
X556250Y211926D01*
X555514Y212593D01*
X554726Y213200D01*
X553893Y213741D01*
X553019Y214215D01*
X552111Y214618D01*
X551173Y214948D01*
X550212Y215202D01*
X549234Y215379D01*
X548245Y215478D01*
X547252Y215497D01*
X546259Y215438D01*
X545275Y215300D01*
X544305Y215085D01*
X543355Y214793D01*
X542431Y214426D01*
X541539Y213987D01*
X540685Y213479D01*
X539874Y212904D01*
X539111Y212267D01*
X538402Y211571D01*
X537749Y210821D01*
X537159Y210022D01*
X536633Y209178D01*
X536177Y208295D01*
X535792Y207379D01*
X535481Y206435D01*
X535246Y205469D01*
X535089Y204488D01*
X535010Y203497D01*
Y202503D01*
X535089Y201512D01*
X535246Y200531D01*
X535481Y199565D01*
X535792Y198621D01*
X536177Y197705D01*
X536633Y196822D01*
X537159Y195978D01*
X537749Y195179D01*
X538402Y194429D01*
X539111Y193733D01*
X539874Y193096D01*
X540685Y192521D01*
X541539Y192013D01*
X542431Y191574D01*
X543355Y191207D01*
X544305Y190915D01*
X545275Y190700D01*
X546259Y190562D01*
X547252Y190503D01*
X548245Y190522D01*
X549234Y190621D01*
X550212Y190798D01*
X551173Y191052D01*
X552111Y191382D01*
X553019Y191785D01*
X553893Y192259D01*
X554726Y192800D01*
X555514Y193407D01*
X556251Y194074D01*
X556932Y194797D01*
X557554Y195572D01*
X558112Y196395D01*
X558603Y197259D01*
X559025Y198159D01*
X559373Y199090D01*
X559646Y200046D01*
X559842Y201020D01*
X559961Y202007D01*
X560000Y203000D01*
X493750Y323000D02*
X493673Y323978D01*
X493444Y324931D01*
X493069Y325837D01*
X492556Y326674D01*
X491919Y327419D01*
X491174Y328056D01*
X490337Y328569D01*
X489431Y328944D01*
X488478Y329173D01*
X487500Y329250D01*
X486522Y329173D01*
X485569Y328944D01*
X484663Y328569D01*
X483826Y328056D01*
X483081Y327419D01*
X482444Y326674D01*
X481931Y325837D01*
X481556Y324931D01*
X481327Y323978D01*
X481250Y323000D01*
X511800Y350000D02*
X511758Y351001D01*
X511630Y351994D01*
X511419Y352973D01*
X511126Y353931D01*
X510752Y354860D01*
X510302Y355755D01*
X509776Y356608D01*
X509181Y357413D01*
X508519Y358165D01*
X507796Y358858D01*
X507017Y359487D01*
X506187Y360048D01*
X505312Y360537D01*
X504400Y360949D01*
X503455Y361283D01*
X502486Y361535D01*
X501499Y361704D01*
X500501Y361789D01*
X499499D01*
X498501Y361704D01*
X497514Y361535D01*
X496545Y361283D01*
X495600Y360949D01*
X494688Y360537D01*
X493813Y360048D01*
X492983Y359487D01*
X492204Y358858D01*
X491481Y358165D01*
X490819Y357413D01*
X490224Y356608D01*
X489698Y355755D01*
X489248Y354860D01*
X488874Y353931D01*
X488581Y352973D01*
X488370Y351994D01*
X488242Y351001D01*
X488200Y350000D01*
X488242Y348999D01*
X488370Y348006D01*
X488581Y347027D01*
X488874Y346069D01*
X489248Y345140D01*
X489698Y344245D01*
X490224Y343392D01*
X490819Y342587D01*
X491481Y341835D01*
X492204Y341142D01*
X492983Y340513D01*
X493813Y339952D01*
X494688Y339463D01*
X495600Y339051D01*
X496545Y338717D01*
X497514Y338465D01*
X498501Y338296D01*
X499499Y338211D01*
X500501D01*
X501499Y338296D01*
X502486Y338465D01*
X503455Y338717D01*
X504400Y339051D01*
X505312Y339463D01*
X506187Y339952D01*
X507017Y340513D01*
X507796Y341142D01*
X508519Y341835D01*
X509181Y342587D01*
X509776Y343392D01*
X510302Y344245D01*
X510752Y345140D01*
X511126Y346069D01*
X511419Y347027D01*
X511630Y348006D01*
X511758Y348999D01*
X511800Y350000D01*
Y300000D02*
X511758Y301001D01*
X511630Y301994D01*
X511419Y302973D01*
X511126Y303931D01*
X510752Y304860D01*
X510302Y305755D01*
X509776Y306608D01*
X509181Y307413D01*
X508519Y308165D01*
X507796Y308858D01*
X507017Y309487D01*
X506187Y310048D01*
X505312Y310537D01*
X504400Y310949D01*
X503455Y311283D01*
X502486Y311535D01*
X501499Y311704D01*
X500501Y311789D01*
X499499D01*
X498501Y311704D01*
X497514Y311535D01*
X496545Y311283D01*
X495600Y310949D01*
X494688Y310537D01*
X493813Y310048D01*
X492983Y309487D01*
X492204Y308858D01*
X491481Y308165D01*
X490819Y307413D01*
X490224Y306608D01*
X489698Y305755D01*
X489248Y304860D01*
X488874Y303931D01*
X488581Y302973D01*
X488370Y301994D01*
X488242Y301001D01*
X488200Y300000D01*
X488242Y298999D01*
X488370Y298006D01*
X488581Y297027D01*
X488874Y296069D01*
X489248Y295140D01*
X489698Y294245D01*
X490224Y293392D01*
X490819Y292587D01*
X491481Y291835D01*
X492204Y291142D01*
X492983Y290513D01*
X493813Y289952D01*
X494688Y289463D01*
X495600Y289051D01*
X496545Y288717D01*
X497514Y288465D01*
X498501Y288296D01*
X499499Y288211D01*
X500501D01*
X501499Y288296D01*
X502486Y288465D01*
X503455Y288717D01*
X504400Y289051D01*
X505312Y289463D01*
X506187Y289952D01*
X507017Y290513D01*
X507796Y291142D01*
X508519Y291835D01*
X509181Y292587D01*
X509776Y293392D01*
X510302Y294245D01*
X510752Y295140D01*
X511126Y296069D01*
X511419Y297027D01*
X511630Y298006D01*
X511758Y298999D01*
X511800Y300000D01*
X512300Y256500D02*
X512257Y257501D01*
X512130Y258494D01*
X511919Y259473D01*
X511626Y260431D01*
X511252Y261360D01*
X510802Y262255D01*
X510276Y263108D01*
X509681Y263913D01*
X509019Y264665D01*
X508296Y265358D01*
X507517Y265987D01*
X506687Y266548D01*
X505812Y267037D01*
X504900Y267449D01*
X503955Y267783D01*
X502986Y268035D01*
X501999Y268204D01*
X501001Y268289D01*
X499999D01*
X499001Y268204D01*
X498014Y268035D01*
X497045Y267783D01*
X496100Y267449D01*
X495188Y267037D01*
X494313Y266548D01*
X493483Y265987D01*
X492704Y265358D01*
X491981Y264665D01*
X491319Y263913D01*
X490724Y263108D01*
X490198Y262255D01*
X489747Y261360D01*
X489374Y260431D01*
X489081Y259473D01*
X488870Y258494D01*
X488742Y257501D01*
X488700Y256500D01*
X488742Y255499D01*
X488870Y254506D01*
X489081Y253527D01*
X489374Y252569D01*
X489747Y251640D01*
X490198Y250745D01*
X490724Y249892D01*
X491319Y249087D01*
X491981Y248335D01*
X492704Y247642D01*
X493483Y247013D01*
X494313Y246452D01*
X495188Y245964D01*
X496100Y245551D01*
X497045Y245217D01*
X498014Y244965D01*
X499001Y244796D01*
X499999Y244711D01*
X501001D01*
X501999Y244796D01*
X502986Y244965D01*
X503955Y245217D01*
X504900Y245551D01*
X505812Y245964D01*
X506687Y246452D01*
X507517Y247013D01*
X508296Y247642D01*
X509019Y248335D01*
X509681Y249087D01*
X510276Y249892D01*
X510802Y250745D01*
X511252Y251640D01*
X511626Y252569D01*
X511919Y253527D01*
X512130Y254506D01*
X512257Y255499D01*
X512300Y256500D01*
X511800Y210000D02*
X511758Y211001D01*
X511630Y211994D01*
X511419Y212973D01*
X511126Y213931D01*
X510752Y214860D01*
X510302Y215755D01*
X509776Y216608D01*
X509181Y217413D01*
X508519Y218165D01*
X507796Y218858D01*
X507017Y219487D01*
X506187Y220048D01*
X505312Y220536D01*
X504400Y220949D01*
X503455Y221283D01*
X502486Y221535D01*
X501499Y221704D01*
X500501Y221789D01*
X499499D01*
X498501Y221704D01*
X497514Y221535D01*
X496545Y221283D01*
X495600Y220949D01*
X494688Y220536D01*
X493813Y220048D01*
X492983Y219487D01*
X492204Y218858D01*
X491481Y218165D01*
X490819Y217413D01*
X490224Y216608D01*
X489698Y215755D01*
X489248Y214860D01*
X488874Y213931D01*
X488581Y212973D01*
X488370Y211994D01*
X488242Y211001D01*
X488200Y210000D01*
X488242Y208999D01*
X488370Y208006D01*
X488581Y207027D01*
X488874Y206069D01*
X489248Y205140D01*
X489698Y204245D01*
X490224Y203392D01*
X490819Y202587D01*
X491481Y201835D01*
X492204Y201142D01*
X492983Y200513D01*
X493813Y199952D01*
X494688Y199463D01*
X495600Y199051D01*
X496545Y198717D01*
X497514Y198465D01*
X498501Y198296D01*
X499499Y198211D01*
X500501D01*
X501499Y198296D01*
X502486Y198465D01*
X503455Y198717D01*
X504400Y199051D01*
X505312Y199463D01*
X506187Y199952D01*
X507017Y200513D01*
X507796Y201142D01*
X508519Y201835D01*
X509181Y202587D01*
X509776Y203392D01*
X510302Y204245D01*
X510752Y205140D01*
X511126Y206069D01*
X511419Y207027D01*
X511630Y208006D01*
X511758Y208999D01*
X511800Y210000D01*
Y160000D02*
X511758Y161001D01*
X511630Y161994D01*
X511419Y162973D01*
X511126Y163931D01*
X510752Y164860D01*
X510302Y165755D01*
X509776Y166608D01*
X509181Y167413D01*
X508519Y168165D01*
X507796Y168858D01*
X507017Y169487D01*
X506187Y170048D01*
X505312Y170536D01*
X504400Y170949D01*
X503455Y171283D01*
X502486Y171535D01*
X501499Y171704D01*
X500501Y171789D01*
X499499D01*
X498501Y171704D01*
X497514Y171535D01*
X496545Y171283D01*
X495600Y170949D01*
X494688Y170536D01*
X493813Y170048D01*
X492983Y169487D01*
X492204Y168858D01*
X491481Y168165D01*
X490819Y167413D01*
X490224Y166608D01*
X489698Y165755D01*
X489248Y164860D01*
X488874Y163931D01*
X488581Y162973D01*
X488370Y161994D01*
X488242Y161001D01*
X488200Y160000D01*
X488242Y158999D01*
X488370Y158006D01*
X488581Y157027D01*
X488874Y156069D01*
X489248Y155140D01*
X489698Y154245D01*
X490224Y153392D01*
X490819Y152587D01*
X491481Y151835D01*
X492204Y151142D01*
X492983Y150513D01*
X493813Y149952D01*
X494688Y149463D01*
X495600Y149051D01*
X496545Y148717D01*
X497514Y148465D01*
X498501Y148296D01*
X499499Y148211D01*
X500501D01*
X501499Y148296D01*
X502486Y148465D01*
X503455Y148717D01*
X504400Y149051D01*
X505312Y149463D01*
X506187Y149952D01*
X507017Y150513D01*
X507796Y151142D01*
X508519Y151835D01*
X509181Y152587D01*
X509776Y153392D01*
X510302Y154245D01*
X510752Y155140D01*
X511126Y156069D01*
X511419Y157027D01*
X511630Y158006D01*
X511758Y158999D01*
X511800Y160000D01*
X616500Y436000D02*
X616310Y436957D01*
X615768Y437768D01*
X614957Y438310D01*
X614000Y438500D01*
X613043Y438310D01*
X612232Y437768D01*
X611690Y436957D01*
X611500Y436000D01*
X260500Y135500D02*
X260310Y136457D01*
X259768Y137268D01*
X258957Y137810D01*
X258000Y138000D01*
X257043Y137810D01*
X256232Y137268D01*
X255690Y136457D01*
X255500Y135500D01*
X557500Y192000D02*
X561500D01*
X559500Y190000D02*
Y194000D01*
X493750Y323000D02*
X539000D01*
X436000D02*
X481250D01*
X436000D02*
Y496500D01*
X539000D01*
Y323000D02*
Y496500D01*
X414550Y125051D02*
Y147051D01*
Y147551D02*
X483200D01*
Y125051D02*
Y147551D01*
X414550Y125051D02*
X483200D01*
X616500Y436000D02*
X628500D01*
X599500D02*
X611500D01*
X599600D02*
Y486000D01*
X628000D01*
X628400Y436000D02*
Y486000D01*
X406500Y288500D02*
Y308500D01*
Y288500D02*
X466500D01*
X467000D02*
Y308500D01*
X406500D02*
X466500D01*
X537000Y289000D02*
Y309000D01*
Y289000D02*
X597000D01*
X597500D02*
Y309000D01*
X537000D02*
X597000D01*
X584500Y368500D02*
X624500D01*
X584500D02*
Y385000D01*
X624500D01*
Y368500D02*
Y385000D01*
X260500Y135500D02*
X324500D01*
X191500D02*
X255500D01*
X191500D02*
Y465500D01*
X324500D01*
Y135500D02*
Y465500D01*
X561500Y134075D02*
Y174500D01*
Y122500D02*
Y142225D01*
Y122500D02*
X596450D01*
Y174500D01*
X561500D02*
X596450D01*
X377500Y292000D02*
Y297998D01*
X380499D01*
X381499Y296998D01*
Y294999D01*
X380499Y293999D01*
X377500D01*
X379499D02*
X381499Y292000D01*
X383498D02*
X385497D01*
X384498D01*
Y297998D01*
X383498Y296998D01*
X388496Y292000D02*
X390496D01*
X389496D01*
Y297998D01*
X388496Y296998D01*
X372000Y451498D02*
Y445500D01*
X374999D01*
X375999Y446500D01*
Y450498D01*
X374999Y451498D01*
X372000D01*
X380997Y445500D02*
Y451498D01*
X377998Y448499D01*
X381997D01*
X401000Y408198D02*
Y402200D01*
X403999D01*
X404999Y403200D01*
Y407198D01*
X403999Y408198D01*
X401000D01*
X406998Y402200D02*
X408997D01*
X407998D01*
Y408198D01*
X406998Y407198D01*
X415995Y408198D02*
X413996Y407198D01*
X411996Y405199D01*
Y403200D01*
X412996Y402200D01*
X414995D01*
X415995Y403200D01*
Y404199D01*
X414995Y405199D01*
X411996D01*
X401000Y455415D02*
Y449416D01*
X403999D01*
X404999Y450416D01*
Y454415D01*
X403999Y455415D01*
X401000D01*
X406998Y449416D02*
X408997D01*
X407998D01*
Y455415D01*
X406998Y454415D01*
X415995Y455415D02*
X411996D01*
Y452416D01*
X413996Y453415D01*
X414995D01*
X415995Y452416D01*
Y450416D01*
X414995Y449416D01*
X412996D01*
X411996Y450416D01*
X492500Y180498D02*
Y174500D01*
X495499D01*
X496499Y175500D01*
Y179498D01*
X495499Y180498D01*
X492500D01*
X498498Y174500D02*
X500497D01*
X499498D01*
Y180498D01*
X498498Y179498D01*
X507495Y174500D02*
X503496D01*
X507495Y178499D01*
Y179498D01*
X506496Y180498D01*
X504496D01*
X503496Y179498D01*
X494500Y230998D02*
Y225000D01*
X497499D01*
X498499Y226000D01*
Y229998D01*
X497499Y230998D01*
X494500D01*
X500498Y225000D02*
X502497D01*
X501498D01*
Y230998D01*
X500498Y229998D01*
X505496Y225000D02*
X507496D01*
X506496D01*
Y230998D01*
X505496Y229998D01*
X492500Y277498D02*
Y271500D01*
X495499D01*
X496499Y272500D01*
Y276498D01*
X495499Y277498D01*
X492500D01*
X498498Y271500D02*
X500497D01*
X499498D01*
Y277498D01*
X498498Y276498D01*
X503496D02*
X504496Y277498D01*
X506496D01*
X507495Y276498D01*
Y272500D01*
X506496Y271500D01*
X504496D01*
X503496Y272500D01*
Y276498D01*
X494500Y320998D02*
Y315000D01*
X497499D01*
X498499Y316000D01*
Y319998D01*
X497499Y320998D01*
X494500D01*
X500498Y316000D02*
X501498Y315000D01*
X503497D01*
X504497Y316000D01*
Y319998D01*
X503497Y320998D01*
X501498D01*
X500498Y319998D01*
Y318999D01*
X501498Y317999D01*
X504497D01*
X495000Y370498D02*
Y364500D01*
X497999D01*
X498999Y365500D01*
Y369498D01*
X497999Y370498D01*
X495000D01*
X500998Y369498D02*
X501998Y370498D01*
X503997D01*
X504997Y369498D01*
Y368499D01*
X503997Y367499D01*
X504997Y366499D01*
Y365500D01*
X503997Y364500D01*
X501998D01*
X500998Y365500D01*
Y366499D01*
X501998Y367499D01*
X500998Y368499D01*
Y369498D01*
X501998Y367499D02*
X503997D01*
X373000Y484700D02*
Y490698D01*
X375999D01*
X376999Y489698D01*
Y487699D01*
X375999Y486699D01*
X373000D01*
X374999D02*
X376999Y484700D01*
X378998Y489698D02*
X379998Y490698D01*
X381997D01*
X382997Y489698D01*
Y488699D01*
X381997Y487699D01*
X382997Y486699D01*
Y485700D01*
X381997Y484700D01*
X379998D01*
X378998Y485700D01*
Y486699D01*
X379998Y487699D01*
X378998Y488699D01*
Y489698D01*
X379998Y487699D02*
X381997D01*
X505000Y134500D02*
Y140498D01*
X507999D01*
X508999Y139498D01*
Y137499D01*
X507999Y136499D01*
X505000D01*
X506999D02*
X508999Y134500D01*
X514997D02*
X510998D01*
X514997Y138499D01*
Y139498D01*
X513997Y140498D01*
X511998D01*
X510998Y139498D01*
X516996D02*
X517996Y140498D01*
X519995D01*
X520995Y139498D01*
Y135500D01*
X519995Y134500D01*
X517996D01*
X516996Y135500D01*
Y139498D01*
X506500Y108000D02*
Y113998D01*
X509499D01*
X510499Y112998D01*
Y110999D01*
X509499Y109999D01*
X506500D01*
X508499D02*
X510499Y108000D01*
X512498D02*
X514497D01*
X513498D01*
Y113998D01*
X512498Y112998D01*
X517496Y109000D02*
X518496Y108000D01*
X520496D01*
X521495Y109000D01*
Y112998D01*
X520496Y113998D01*
X518496D01*
X517496Y112998D01*
Y111999D01*
X518496Y110999D01*
X521495D01*
X600000Y495498D02*
Y489500D01*
Y491499D01*
X603999Y495498D01*
X601000Y492499D01*
X603999Y489500D01*
X605998D02*
X607997D01*
X606998D01*
Y495498D01*
X605998Y494498D01*
X544100Y161098D02*
Y155100D01*
X547099D01*
X548099Y156100D01*
Y160098D01*
X547099Y161098D01*
X544100D01*
X550098Y155100D02*
X552097D01*
X551098D01*
Y161098D01*
X550098Y160098D01*
X558096Y155100D02*
Y161098D01*
X555096Y158099D01*
X559095D01*
X543600Y135598D02*
Y129600D01*
X546599D01*
X547599Y130600D01*
Y134598D01*
X546599Y135598D01*
X543600D01*
X549598Y129600D02*
X551597D01*
X550598D01*
Y135598D01*
X549598Y134598D01*
X554596D02*
X555596Y135598D01*
X557595D01*
X558595Y134598D01*
Y133599D01*
X557595Y132599D01*
X556596D01*
X557595D01*
X558595Y131599D01*
Y130600D01*
X557595Y129600D01*
X555596D01*
X554596Y130600D01*
X521999Y160498D02*
X520999Y161498D01*
X519000D01*
X518000Y160498D01*
Y156500D01*
X519000Y155500D01*
X520999D01*
X521999Y156500D01*
X523998Y155500D02*
X525997D01*
X524998D01*
Y161498D01*
X523998Y160498D01*
X528996Y155500D02*
X530996D01*
X529996D01*
Y161498D01*
X528996Y160498D01*
X509999Y126498D02*
X508999Y127498D01*
X507000D01*
X506000Y126498D01*
Y122500D01*
X507000Y121500D01*
X508999D01*
X509999Y122500D01*
X511998Y121500D02*
X513997D01*
X512998D01*
Y127498D01*
X511998Y126498D01*
X516996D02*
X517996Y127498D01*
X519995D01*
X520995Y126498D01*
Y122500D01*
X519995Y121500D01*
X517996D01*
X516996Y122500D01*
Y126498D01*
X427000Y216998D02*
Y212000D01*
X428000Y211000D01*
X429999D01*
X430999Y212000D01*
Y216998D01*
X436997Y211000D02*
X432998D01*
X436997Y214999D01*
Y215998D01*
X435997Y216998D01*
X433998D01*
X432998Y215998D01*
X640500Y223798D02*
Y218800D01*
X641500Y217800D01*
X643499D01*
X644499Y218800D01*
Y223798D01*
X646498Y217800D02*
X648497D01*
X647498D01*
Y223798D01*
X646498Y222798D01*
X651000Y440500D02*
Y446498D01*
X653999D01*
X654999Y445498D01*
Y443499D01*
X653999Y442499D01*
X651000D01*
X656998Y440500D02*
X658997D01*
X657998D01*
Y446498D01*
X656998Y445498D01*
X424500Y493998D02*
X428499D01*
X426499D01*
Y488000D01*
X430498D02*
X432497D01*
X431498D01*
Y493998D01*
X430498Y492998D01*
X178600Y469000D02*
Y474998D01*
X180599Y472999D01*
X182599Y474998D01*
Y469000D01*
X184598D02*
X186597D01*
X185598D01*
Y474998D01*
X184598Y473998D01*
X469000Y167000D02*
Y172998D01*
X471999D01*
X472999Y171998D01*
Y169999D01*
X471999Y168999D01*
X469000D01*
X470999D02*
X472999Y167000D01*
X474998D02*
X476997D01*
X475998D01*
Y172998D01*
X474998Y171998D01*
X479996D02*
X480996Y172998D01*
X482996D01*
X483995Y171998D01*
Y170999D01*
X482996Y169999D01*
X483995Y168999D01*
Y168000D01*
X482996Y167000D01*
X480996D01*
X479996Y168000D01*
Y168999D01*
X480996Y169999D01*
X479996Y170999D01*
Y171998D01*
X480996Y169999D02*
X482996D01*
X470500Y215500D02*
Y221498D01*
X473499D01*
X474499Y220498D01*
Y218499D01*
X473499Y217499D01*
X470500D01*
X472499D02*
X474499Y215500D01*
X476498D02*
X478497D01*
X477498D01*
Y221498D01*
X476498Y220498D01*
X481496Y221498D02*
X485495D01*
Y220498D01*
X481496Y216500D01*
Y215500D01*
X352000Y292500D02*
Y298498D01*
X354999D01*
X355999Y297498D01*
Y295499D01*
X354999Y294499D01*
X352000D01*
X353999D02*
X355999Y292500D01*
X357998D02*
X359997D01*
X358998D01*
Y298498D01*
X357998Y297498D01*
X366995Y298498D02*
X364996Y297498D01*
X362996Y295499D01*
Y293500D01*
X363996Y292500D01*
X365996D01*
X366995Y293500D01*
Y294499D01*
X365996Y295499D01*
X362996D01*
X471500Y264000D02*
Y269998D01*
X474499D01*
X475499Y268998D01*
Y266999D01*
X474499Y265999D01*
X471500D01*
X473499D02*
X475499Y264000D01*
X477498D02*
X479497D01*
X478498D01*
Y269998D01*
X477498Y268998D01*
X486495Y269998D02*
X482496D01*
Y266999D01*
X484496Y267999D01*
X485496D01*
X486495Y266999D01*
Y265000D01*
X485496Y264000D01*
X483496D01*
X482496Y265000D01*
X364500Y319000D02*
Y324998D01*
X367499D01*
X368499Y323998D01*
Y321999D01*
X367499Y320999D01*
X364500D01*
X366499D02*
X368499Y319000D01*
X370498D02*
X372497D01*
X371498D01*
Y324998D01*
X370498Y323998D01*
X378496Y319000D02*
Y324998D01*
X375496Y321999D01*
X379495D01*
X388500Y320000D02*
Y325998D01*
X391499D01*
X392499Y324998D01*
Y322999D01*
X391499Y321999D01*
X388500D01*
X390499D02*
X392499Y320000D01*
X394498D02*
X396497D01*
X395498D01*
Y325998D01*
X394498Y324998D01*
X399496D02*
X400496Y325998D01*
X402495D01*
X403495Y324998D01*
Y323999D01*
X402495Y322999D01*
X401496D01*
X402495D01*
X403495Y321999D01*
Y321000D01*
X402495Y320000D01*
X400496D01*
X399496Y321000D01*
X370000Y188500D02*
Y194498D01*
X372999D01*
X373999Y193498D01*
Y191499D01*
X372999Y190499D01*
X370000D01*
X371999D02*
X373999Y188500D01*
X375998D02*
X377997D01*
X376998D01*
Y194498D01*
X375998Y193498D01*
X384995Y188500D02*
X380996D01*
X384995Y192499D01*
Y193498D01*
X383996Y194498D01*
X381996D01*
X380996Y193498D01*
X469500Y304500D02*
Y310498D01*
X472499D01*
X473499Y309498D01*
Y307499D01*
X472499Y306499D01*
X469500D01*
X471499D02*
X473499Y304500D01*
X475498D02*
X477497D01*
X476498D01*
Y310498D01*
X475498Y309498D01*
X480496D02*
X481496Y310498D01*
X483496D01*
X484495Y309498D01*
Y305500D01*
X483496Y304500D01*
X481496D01*
X480496Y305500D01*
Y309498D01*
X355000Y188000D02*
Y193998D01*
X357999D01*
X358999Y192998D01*
Y190999D01*
X357999Y189999D01*
X355000D01*
X356999D02*
X358999Y188000D01*
X360998Y189000D02*
X361998Y188000D01*
X363997D01*
X364997Y189000D01*
Y192998D01*
X363997Y193998D01*
X361998D01*
X360998Y192998D01*
Y191999D01*
X361998Y190999D01*
X364997D01*
X442200Y354200D02*
Y360198D01*
X445199D01*
X446199Y359198D01*
Y357199D01*
X445199Y356199D01*
X442200D01*
X444199D02*
X446199Y354200D01*
X448198Y360198D02*
X452197D01*
Y359198D01*
X448198Y355200D01*
Y354200D01*
X344000Y402000D02*
Y407998D01*
X346999D01*
X347999Y406998D01*
Y404999D01*
X346999Y403999D01*
X344000D01*
X345999D02*
X347999Y402000D01*
X353997Y407998D02*
X351997Y406998D01*
X349998Y404999D01*
Y403000D01*
X350998Y402000D01*
X352997D01*
X353997Y403000D01*
Y403999D01*
X352997Y404999D01*
X349998D01*
X387000Y401500D02*
Y407498D01*
X389999D01*
X390999Y406498D01*
Y404499D01*
X389999Y403499D01*
X387000D01*
X388999D02*
X390999Y401500D01*
X396997Y407498D02*
X392998D01*
Y404499D01*
X394997Y405499D01*
X395997D01*
X396997Y404499D01*
Y402500D01*
X395997Y401500D01*
X393998D01*
X392998Y402500D01*
X566800Y331400D02*
Y337398D01*
X569799D01*
X570799Y336398D01*
Y334399D01*
X569799Y333399D01*
X566800D01*
X568799D02*
X570799Y331400D01*
X575797D02*
Y337398D01*
X572798Y334399D01*
X576797D01*
X343000Y445500D02*
Y451498D01*
X345999D01*
X346999Y450498D01*
Y448499D01*
X345999Y447499D01*
X343000D01*
X344999D02*
X346999Y445500D01*
X348998Y450498D02*
X349998Y451498D01*
X351997D01*
X352997Y450498D01*
Y449499D01*
X351997Y448499D01*
X350997D01*
X351997D01*
X352997Y447499D01*
Y446500D01*
X351997Y445500D01*
X349998D01*
X348998Y446500D01*
X387000Y447000D02*
Y452998D01*
X389999D01*
X390999Y451998D01*
Y449999D01*
X389999Y448999D01*
X387000D01*
X388999D02*
X390999Y447000D01*
X396997D02*
X392998D01*
X396997Y450999D01*
Y451998D01*
X395997Y452998D01*
X393998D01*
X392998Y451998D01*
X566300Y353900D02*
Y359898D01*
X569299D01*
X570299Y358898D01*
Y356899D01*
X569299Y355899D01*
X566300D01*
X568299D02*
X570299Y353900D01*
X572298D02*
X574297D01*
X573298D01*
Y359898D01*
X572298Y358898D01*
X393049Y490901D02*
Y494900D01*
X392049Y495899D01*
X390050D01*
X389050Y494900D01*
Y490901D01*
X390050Y489901D01*
X392049D01*
X391049Y491900D02*
X393049Y489901D01*
X392049D02*
X393049Y490901D01*
X395048Y489901D02*
X397047D01*
X396048D01*
Y495899D01*
X395048Y494900D01*
X401000Y140500D02*
Y146498D01*
X403999D01*
X404999Y145498D01*
Y143499D01*
X403999Y142499D01*
X401000D01*
X410997Y140500D02*
X406998D01*
X410997Y144499D01*
Y145498D01*
X409997Y146498D01*
X407998D01*
X406998Y145498D01*
X609000Y110998D02*
Y105000D01*
X612999D01*
X614998D02*
X616997D01*
X615998D01*
Y110998D01*
X614998Y109998D01*
X588999Y394498D02*
X585000D01*
Y391499D01*
X586999D01*
X585000D01*
Y388500D01*
X590998D02*
X592997D01*
X591998D01*
Y394498D01*
X590998Y393498D01*
X412358Y176498D02*
Y170500D01*
X415357D01*
X416357Y171500D01*
Y175498D01*
X415357Y176498D01*
X412358D01*
X418356D02*
X422355D01*
Y175498D01*
X418356Y171500D01*
Y170500D01*
X594740Y421640D02*
Y415642D01*
X597739D01*
X598739Y416641D01*
Y420640D01*
X597739Y421640D01*
X594740D01*
X604737D02*
X602738Y420640D01*
X600738Y418641D01*
Y416641D01*
X601738Y415642D01*
X603737D01*
X604737Y416641D01*
Y417641D01*
X603737Y418641D01*
X600738D01*
X373000Y407498D02*
Y401500D01*
X375999D01*
X376999Y402500D01*
Y406498D01*
X375999Y407498D01*
X373000D01*
X382997D02*
X378998D01*
Y404499D01*
X380997Y405499D01*
X381997D01*
X382997Y404499D01*
Y402500D01*
X381997Y401500D01*
X379998D01*
X378998Y402500D01*
X408500Y316498D02*
Y310500D01*
X411499D01*
X412499Y311500D01*
Y315498D01*
X411499Y316498D01*
X408500D01*
X414498Y315498D02*
X415498Y316498D01*
X417497D01*
X418497Y315498D01*
Y314499D01*
X417497Y313499D01*
X416497D01*
X417497D01*
X418497Y312499D01*
Y311500D01*
X417497Y310500D01*
X415498D01*
X414498Y311500D01*
X631500Y109998D02*
Y104000D01*
X634499D01*
X635499Y105000D01*
Y108998D01*
X634499Y109998D01*
X631500D01*
X641497Y104000D02*
X637498D01*
X641497Y107999D01*
Y108998D01*
X640497Y109998D01*
X638498D01*
X637498Y108998D01*
X537500Y317498D02*
Y311500D01*
X540499D01*
X541499Y312500D01*
Y316498D01*
X540499Y317498D01*
X537500D01*
X543498Y311500D02*
X545497D01*
X544498D01*
Y317498D01*
X543498Y316498D01*
X346999Y323998D02*
X345999Y324998D01*
X344000D01*
X343000Y323998D01*
Y320000D01*
X344000Y319000D01*
X345999D01*
X346999Y320000D01*
X348998D02*
X349998Y319000D01*
X351997D01*
X352997Y320000D01*
Y323998D01*
X351997Y324998D01*
X349998D01*
X348998Y323998D01*
Y322999D01*
X349998Y321999D01*
X352997D01*
X393999Y193498D02*
X392999Y194498D01*
X391000D01*
X390000Y193498D01*
Y189500D01*
X391000Y188500D01*
X392999D01*
X393999Y189500D01*
X395998Y193498D02*
X396998Y194498D01*
X398997D01*
X399997Y193498D01*
Y192499D01*
X398997Y191499D01*
X399997Y190499D01*
Y189500D01*
X398997Y188500D01*
X396998D01*
X395998Y189500D01*
Y190499D01*
X396998Y191499D01*
X395998Y192499D01*
Y193498D01*
X396998Y191499D02*
X398997D01*
X362999Y406498D02*
X361999Y407498D01*
X360000D01*
X359000Y406498D01*
Y402500D01*
X360000Y401500D01*
X361999D01*
X362999Y402500D01*
X364998Y407498D02*
X368997D01*
Y406498D01*
X364998Y402500D01*
Y401500D01*
X171002Y157999D02*
X170002Y156999D01*
Y155000D01*
X171002Y154000D01*
X175000D01*
X176000Y155000D01*
Y156999D01*
X175000Y157999D01*
X170002Y163997D02*
X171002Y161997D01*
X173001Y159998D01*
X175000D01*
X176000Y160998D01*
Y162997D01*
X175000Y163997D01*
X174001D01*
X173001Y162997D01*
Y159998D01*
X361499Y450498D02*
X360499Y451498D01*
X358500D01*
X357500Y450498D01*
Y446500D01*
X358500Y445500D01*
X360499D01*
X361499Y446500D01*
X367497Y451498D02*
X363498D01*
Y448499D01*
X365497Y449499D01*
X366497D01*
X367497Y448499D01*
Y446500D01*
X366497Y445500D01*
X364498D01*
X363498Y446500D01*
X399999Y280998D02*
X398999Y281998D01*
X397000D01*
X396000Y280998D01*
Y277000D01*
X397000Y276000D01*
X398999D01*
X399999Y277000D01*
X404997Y276000D02*
Y281998D01*
X401998Y278999D01*
X405997D01*
X580999Y219498D02*
X579999Y220498D01*
X578000D01*
X577000Y219498D01*
Y215500D01*
X578000Y214500D01*
X579999D01*
X580999Y215500D01*
X582998Y219498D02*
X583998Y220498D01*
X585997D01*
X586997Y219498D01*
Y218499D01*
X585997Y217499D01*
X584997D01*
X585997D01*
X586997Y216499D01*
Y215500D01*
X585997Y214500D01*
X583998D01*
X582998Y215500D01*
X531999Y219498D02*
X530999Y220498D01*
X529000D01*
X528000Y219498D01*
Y215500D01*
X529000Y214500D01*
X530999D01*
X531999Y215500D01*
X537997Y214500D02*
X533998D01*
X537997Y218499D01*
Y219498D01*
X536997Y220498D01*
X534998D01*
X533998Y219498D01*
X532999Y281498D02*
X531999Y282498D01*
X530000D01*
X529000Y281498D01*
Y277500D01*
X530000Y276500D01*
X531999D01*
X532999Y277500D01*
X534998Y276500D02*
X536997D01*
X535998D01*
Y282498D01*
X534998Y281498D01*
X562050Y178050D02*
Y184048D01*
X565049D01*
X566049Y183048D01*
Y181049D01*
X565049Y180049D01*
X562050D01*
X568048Y183048D02*
X569048Y184048D01*
X571047D01*
X572047Y183048D01*
Y182049D01*
X571047Y181049D01*
X570047D01*
X571047D01*
X572047Y180049D01*
Y179050D01*
X571047Y178050D01*
X569048D01*
X568048Y179050D01*
X460000Y239499D02*
X463999D01*
X465998Y236500D02*
X467997D01*
X466998D01*
Y242498D01*
X465998Y241498D01*
X474995Y236500D02*
X470996D01*
X474995Y240499D01*
Y241498D01*
X473995Y242498D01*
X471996D01*
X470996Y241498D01*
X510500Y236499D02*
X514499D01*
X512499Y238498D02*
Y234500D01*
X516498Y233500D02*
X518497D01*
X517498D01*
Y239498D01*
X516498Y238498D01*
X525495Y233500D02*
X521496D01*
X525495Y237499D01*
Y238498D01*
X524496Y239498D01*
X522496D01*
X521496Y238498D01*
X199500Y118999D02*
X203499D01*
X201499Y120998D02*
Y117000D01*
X209497Y121998D02*
X205498D01*
Y118999D01*
X207497Y119999D01*
X208497D01*
X209497Y118999D01*
Y117000D01*
X208497Y116000D01*
X206498D01*
X205498Y117000D01*
X139499Y191998D02*
X138499Y192998D01*
X136500D01*
X135500Y191998D01*
Y188000D01*
X136500Y187000D01*
X138499D01*
X139499Y188000D01*
Y189999D01*
X137499D01*
X141498Y187000D02*
Y192998D01*
X145497Y187000D01*
Y192998D01*
X147496D02*
Y187000D01*
X150495D01*
X151495Y188000D01*
Y191998D01*
X150495Y192998D01*
X147496D01*
X178000Y493498D02*
X181999D01*
X179999D01*
Y487500D01*
X186997D02*
X184998D01*
X183998Y488500D01*
Y490499D01*
X184998Y491499D01*
X186997D01*
X187997Y490499D01*
Y489499D01*
X183998D01*
X193995Y491499D02*
X190996D01*
X189996Y490499D01*
Y488500D01*
X190996Y487500D01*
X193995D01*
X195994Y493498D02*
Y487500D01*
Y490499D01*
X196994Y491499D01*
X198993D01*
X199993Y490499D01*
Y487500D01*
X201992D02*
Y491499D01*
X204991D01*
X205991Y490499D01*
Y487500D01*
X208990D02*
X210989D01*
X211989Y488500D01*
Y490499D01*
X210989Y491499D01*
X208990D01*
X207990Y490499D01*
Y488500D01*
X208990Y487500D01*
X213988D02*
X215988D01*
X214988D01*
Y493498D01*
X213988D01*
X219986Y491499D02*
X221986D01*
X222985Y490499D01*
Y487500D01*
X219986D01*
X218987Y488500D01*
X219986Y489499D01*
X222985D01*
X225985Y487500D02*
Y492498D01*
Y490499D01*
X224985D01*
X226984D01*
X225985D01*
Y492498D01*
X226984Y493498D01*
X235981Y487500D02*
X239980Y491499D01*
X247977Y493498D02*
Y489499D01*
X249977Y487500D01*
X251976Y489499D01*
Y493498D01*
X253975Y487500D02*
X255975D01*
X254975D01*
Y493498D01*
X253975Y492498D01*
X258974Y487500D02*
Y488500D01*
X259974D01*
Y487500D01*
X258974D01*
X263972D02*
X265971D01*
X264972D01*
Y493498D01*
X263972Y492498D01*
X268971Y487500D02*
X272969Y491499D01*
X280967Y487500D02*
Y491499D01*
X283966D01*
X284965Y490499D01*
Y487500D01*
X287964D02*
X289964D01*
X290964Y488500D01*
Y490499D01*
X289964Y491499D01*
X287964D01*
X286965Y490499D01*
Y488500D01*
X287964Y487500D01*
X292963Y491499D02*
X294962Y487500D01*
X296961Y491499D01*
X308958Y487500D02*
X304959D01*
X308958Y491499D01*
Y492498D01*
X307958Y493498D01*
X305959D01*
X304959Y492498D01*
X310957D02*
X311957Y493498D01*
X313956D01*
X314956Y492498D01*
Y488500D01*
X313956Y487500D01*
X311957D01*
X310957Y488500D01*
Y492498D01*
X316955Y487500D02*
X318954D01*
X317955D01*
Y493498D01*
X316955Y492498D01*
X321953Y488500D02*
X322953Y487500D01*
X324952D01*
X325952Y488500D01*
Y492498D01*
X324952Y493498D01*
X322953D01*
X321953Y492498D01*
Y491499D01*
X322953Y490499D01*
X325952D01*
D43*
X458500Y253000D02*
X458483Y254002D01*
X458433Y255004D01*
X458349Y256003D01*
X458232Y256999D01*
X458082Y257990D01*
X457899Y258976D01*
X457683Y259955D01*
X457434Y260926D01*
X457153Y261888D01*
X456840Y262841D01*
X456495Y263782D01*
X456119Y264712D01*
X455713Y265628D01*
X455276Y266530D01*
X454809Y267418D01*
X454312Y268288D01*
X453787Y269143D01*
X453233Y269978D01*
X452652Y270795D01*
X452044Y271592D01*
X451410Y272369D01*
X450750Y273124D01*
X450065Y273856D01*
X449356Y274565D01*
X448624Y275250D01*
X447869Y275910D01*
X447092Y276544D01*
X446295Y277152D01*
X445478Y277733D01*
X444642Y278287D01*
X443788Y278812D01*
X442917Y279309D01*
X442030Y279776D01*
X441128Y280213D01*
X440212Y280620D01*
X439282Y280995D01*
X438341Y281340D01*
X437388Y281653D01*
X436426Y281934D01*
X435455Y282183D01*
X434476Y282399D01*
X433490Y282582D01*
X432499Y282732D01*
X431503Y282849D01*
X430504Y282933D01*
X429502Y282983D01*
X428500Y283000D01*
X427497Y282983D01*
X426496Y282933D01*
X425497Y282849D01*
X424501Y282732D01*
X423510Y282582D01*
X422524Y282399D01*
X421545Y282183D01*
X420574Y281934D01*
X419612Y281653D01*
X418659Y281340D01*
X417718Y280995D01*
X416788Y280620D01*
X415872Y280213D01*
X414970Y279776D01*
X414082Y279309D01*
X413211Y278812D01*
X412358Y278287D01*
X411522Y277733D01*
X410705Y277152D01*
X409907Y276544D01*
X409131Y275910D01*
X408377Y275250D01*
X407644Y274565D01*
X406935Y273856D01*
X406250Y273124D01*
X405590Y272369D01*
X404956Y271592D01*
X404348Y270795D01*
X403767Y269978D01*
X403213Y269143D01*
X402688Y268288D01*
X402191Y267418D01*
X401724Y266530D01*
X401287Y265628D01*
X400880Y264712D01*
X400505Y263782D01*
X400160Y262841D01*
X399847Y261888D01*
X399566Y260926D01*
X399317Y259955D01*
X399101Y258976D01*
X398918Y257990D01*
X398768Y256999D01*
X398651Y256003D01*
X398567Y255004D01*
X398517Y254002D01*
X398500Y253000D01*
X398517Y251998D01*
X398567Y250996D01*
X398651Y249997D01*
X398768Y249002D01*
X398918Y248010D01*
X399101Y247024D01*
X399317Y246045D01*
X399566Y245074D01*
X399847Y244112D01*
X400160Y243159D01*
X400504Y242218D01*
X400880Y241288D01*
X401287Y240372D01*
X401724Y239470D01*
X402191Y238583D01*
X402688Y237712D01*
X403213Y236858D01*
X403767Y236022D01*
X404348Y235205D01*
X404956Y234408D01*
X405590Y233631D01*
X406250Y232877D01*
X406935Y232144D01*
X407644Y231435D01*
X408376Y230751D01*
X409131Y230090D01*
X409907Y229456D01*
X410704Y228848D01*
X411521Y228267D01*
X412357Y227713D01*
X413211Y227188D01*
X414082Y226692D01*
X414969Y226224D01*
X415872Y225787D01*
X416788Y225381D01*
X417718Y225005D01*
X418659Y224660D01*
X419612Y224347D01*
X420574Y224066D01*
X421545Y223817D01*
X422524Y223601D01*
X423510Y223418D01*
X424501Y223268D01*
X425497Y223151D01*
X426496Y223067D01*
X427497Y223017D01*
X428500Y223000D01*
X429502Y223017D01*
X430504Y223067D01*
X431503Y223151D01*
X432498Y223268D01*
X433490Y223418D01*
X434475Y223601D01*
X435454Y223817D01*
X436426Y224066D01*
X437388Y224347D01*
X438341Y224660D01*
X439282Y225005D01*
X440211Y225380D01*
X441128Y225787D01*
X442030Y226224D01*
X442917Y226691D01*
X443788Y227188D01*
X444642Y227713D01*
X445478Y228267D01*
X446295Y228848D01*
X447092Y229456D01*
X447869Y230090D01*
X448623Y230750D01*
X449356Y231435D01*
X450065Y232144D01*
X450749Y232876D01*
X451409Y233631D01*
X452044Y234407D01*
X452652Y235204D01*
X453233Y236021D01*
X453787Y236857D01*
X454312Y237711D01*
X454808Y238582D01*
X455275Y239469D01*
X455713Y240372D01*
X456119Y241288D01*
X456495Y242217D01*
X456840Y243159D01*
X457153Y244111D01*
X457434Y245074D01*
X457683Y246045D01*
X457899Y247024D01*
X458082Y248010D01*
X458232Y249001D01*
X458349Y249997D01*
X458433Y250996D01*
X458483Y251997D01*
X458500Y253000D01*
X591500Y254500D02*
X591483Y255502D01*
X591433Y256504D01*
X591349Y257503D01*
X591232Y258499D01*
X591082Y259490D01*
X590899Y260476D01*
X590683Y261455D01*
X590434Y262426D01*
X590153Y263388D01*
X589840Y264341D01*
X589495Y265282D01*
X589119Y266212D01*
X588713Y267128D01*
X588276Y268030D01*
X587809Y268917D01*
X587312Y269789D01*
X586787Y270642D01*
X586233Y271478D01*
X585652Y272295D01*
X585044Y273093D01*
X584410Y273869D01*
X583750Y274623D01*
X583065Y275356D01*
X582356Y276065D01*
X581624Y276750D01*
X580869Y277410D01*
X580092Y278044D01*
X579295Y278652D01*
X578478Y279233D01*
X577642Y279787D01*
X576789Y280312D01*
X575917Y280808D01*
X575030Y281276D01*
X574128Y281713D01*
X573212Y282119D01*
X572282Y282495D01*
X571341Y282840D01*
X570388Y283153D01*
X569426Y283434D01*
X568455Y283683D01*
X567476Y283899D01*
X566490Y284082D01*
X565499Y284232D01*
X564503Y284349D01*
X563504Y284433D01*
X562502Y284483D01*
X561500Y284500D01*
X560498Y284483D01*
X559496Y284433D01*
X558497Y284349D01*
X557501Y284232D01*
X556510Y284082D01*
X555524Y283899D01*
X554545Y283683D01*
X553574Y283434D01*
X552612Y283153D01*
X551659Y282840D01*
X550718Y282495D01*
X549788Y282119D01*
X548872Y281713D01*
X547970Y281276D01*
X547083Y280808D01*
X546211Y280312D01*
X545358Y279787D01*
X544522Y279233D01*
X543705Y278652D01*
X542907Y278044D01*
X542131Y277410D01*
X541376Y276750D01*
X540644Y276065D01*
X539935Y275356D01*
X539250Y274623D01*
X538590Y273869D01*
X537956Y273093D01*
X537348Y272295D01*
X536767Y271478D01*
X536213Y270642D01*
X535688Y269789D01*
X535191Y268917D01*
X534724Y268030D01*
X534287Y267128D01*
X533881Y266212D01*
X533505Y265282D01*
X533160Y264341D01*
X532847Y263388D01*
X532566Y262426D01*
X532317Y261455D01*
X532101Y260476D01*
X531918Y259490D01*
X531768Y258499D01*
X531651Y257503D01*
X531567Y256504D01*
X531517Y255503D01*
X531500Y254500D01*
X531517Y253498D01*
X531567Y252496D01*
X531651Y251497D01*
X531768Y250501D01*
X531918Y249510D01*
X532101Y248524D01*
X532317Y247546D01*
X532566Y246574D01*
X532847Y245612D01*
X533160Y244659D01*
X533504Y243718D01*
X533881Y242788D01*
X534287Y241872D01*
X534724Y240970D01*
X535191Y240083D01*
X535688Y239212D01*
X536213Y238358D01*
X536767Y237522D01*
X537348Y236705D01*
X537956Y235908D01*
X538590Y235131D01*
X539250Y234377D01*
X539935Y233644D01*
X540644Y232935D01*
X541376Y232251D01*
X542131Y231591D01*
X542907Y230956D01*
X543704Y230348D01*
X544521Y229767D01*
X545357Y229213D01*
X546211Y228688D01*
X547082Y228192D01*
X547969Y227725D01*
X548872Y227287D01*
X549788Y226881D01*
X550718Y226505D01*
X551659Y226160D01*
X552611Y225847D01*
X553574Y225566D01*
X554545Y225317D01*
X555524Y225101D01*
X556510Y224918D01*
X557501Y224768D01*
X558497Y224651D01*
X559496Y224567D01*
X560497Y224517D01*
X561500Y224500D01*
X562502Y224517D01*
X563504Y224567D01*
X564503Y224651D01*
X565498Y224768D01*
X566490Y224918D01*
X567475Y225101D01*
X568454Y225317D01*
X569426Y225566D01*
X570388Y225847D01*
X571341Y226160D01*
X572282Y226504D01*
X573211Y226880D01*
X574128Y227287D01*
X575030Y227724D01*
X575917Y228191D01*
X576788Y228688D01*
X577642Y229213D01*
X578478Y229767D01*
X579295Y230348D01*
X580092Y230956D01*
X580869Y231590D01*
X581623Y232250D01*
X582355Y232935D01*
X583065Y233644D01*
X583749Y234376D01*
X584409Y235131D01*
X585044Y235907D01*
X585652Y236704D01*
X586233Y237521D01*
X586787Y238357D01*
X587312Y239211D01*
X587808Y240082D01*
X588275Y240969D01*
X588713Y241872D01*
X589119Y242788D01*
X589495Y243717D01*
X589840Y244659D01*
X590153Y245611D01*
X590434Y246574D01*
X590683Y247545D01*
X590899Y248524D01*
X591082Y249510D01*
X591232Y250501D01*
X591349Y251497D01*
X591433Y252496D01*
X591483Y253497D01*
X591500Y254500D01*
X380941Y308563D02*
X386059D01*
X374815Y435996D02*
Y439146D01*
X378358D01*
X374815Y427335D02*
Y430484D01*
Y427335D02*
X378358D01*
X581441Y202500D02*
X586559D01*
X531122Y136441D02*
Y141559D01*
X531378Y110441D02*
Y115559D01*
X476500Y157941D02*
Y163059D01*
X476878Y207441D02*
Y212559D01*
X357441Y309063D02*
X362559D01*
X479378Y257441D02*
Y262559D01*
X368441Y309063D02*
X373559D01*
X391941Y308563D02*
X397059D01*
X373941Y178500D02*
X379059D01*
X478500Y297441D02*
Y302559D01*
X359941Y177878D02*
X365059D01*
X375000Y477941D02*
Y483059D01*
X444122Y347441D02*
Y352559D01*
X345941Y390500D02*
X351059D01*
X389441Y390378D02*
X394559D01*
X345941Y432878D02*
X351059D01*
X531000Y145941D02*
Y151059D01*
X531378Y122941D02*
Y128059D01*
X345441Y308563D02*
X350559D01*
X390441Y178622D02*
X395559D01*
X359941Y390000D02*
X365059D01*
X169941Y144000D02*
X175059D01*
X360441Y433000D02*
X365559D01*
X389441Y431378D02*
X394559D01*
X422508Y187657D02*
Y207343D01*
X429594Y187657D02*
Y207343D01*
X422508D02*
X429594D01*
X422508Y187657D02*
X429594D01*
X412602Y434583D02*
Y444228D01*
X400398Y434583D02*
Y444228D01*
Y414898D02*
Y425134D01*
X412602Y414898D02*
Y425134D01*
X402169Y446000D02*
X410831D01*
X400398Y444228D02*
X402169Y446000D01*
X410831D02*
X412602Y444228D01*
X400398Y414898D02*
X412602D01*
Y387366D02*
Y397012D01*
X400398Y387366D02*
Y397012D01*
Y367681D02*
Y377917D01*
X412602Y367681D02*
Y377917D01*
X402169Y398783D02*
X410831D01*
X400398Y397012D02*
X402169Y398783D01*
X410831D02*
X412602Y397012D01*
X400398Y367681D02*
X412602D01*
X618500Y128000D02*
Y168000D01*
X608500Y128000D02*
X618500D01*
X608500D02*
Y168000D01*
X618500D01*
X613500D02*
Y174000D01*
Y122000D02*
Y128000D01*
X630500Y126000D02*
Y166000D01*
X640500D01*
Y126000D02*
Y166000D01*
X630500Y126000D02*
X640500D01*
X635500Y120000D02*
Y126000D01*
Y166000D02*
Y172000D01*
X618256Y421827D02*
X621406D01*
Y418283D02*
Y421827D01*
X609594D02*
X612744D01*
X609594Y418283D02*
Y421827D01*
X381756Y393827D02*
X384906D01*
Y390283D02*
Y393827D01*
X373094D02*
X376244D01*
X373094Y390283D02*
Y393827D01*
X413488Y167102D02*
X423134D01*
X413488Y154898D02*
X423134D01*
X432583D02*
X442819D01*
X432583Y167102D02*
X442819D01*
X411717Y156669D02*
Y165331D01*
Y156669D02*
X413488Y154898D01*
X411717Y165331D02*
X413488Y167102D01*
X442819Y154898D02*
Y167102D01*
X547744Y122256D02*
Y125406D01*
X551287D01*
X547744Y113594D02*
Y116744D01*
Y113594D02*
X551287D01*
X548244Y147756D02*
Y150906D01*
X551787D01*
X548244Y139094D02*
Y142244D01*
Y139094D02*
X551787D01*
X396756Y471146D02*
Y474295D01*
X393213Y471146D02*
X396756D01*
Y479807D02*
Y482957D01*
X393213D02*
X396756D01*
X579000Y328000D02*
X619000D01*
Y318000D02*
Y328000D01*
X579000Y318000D02*
X619000D01*
X579000D02*
Y328000D01*
X573000Y323000D02*
X579000D01*
X619000D02*
X625000D01*
X650957Y193157D02*
Y212843D01*
X658043Y193157D02*
Y212843D01*
X650957D02*
X658043D01*
X650957Y193157D02*
X658043D01*
X578500Y350500D02*
X618500D01*
Y340500D02*
Y350500D01*
X578500Y340500D02*
X618500D01*
X578500D02*
Y350500D01*
X572500Y345500D02*
X578500D01*
X618500D02*
X624500D01*
D44*
X396485Y252949D02*
X392549D01*
X394517Y250981D02*
Y254917D01*
X529485Y254449D02*
X525549D01*
X527517Y252481D02*
Y256417D01*
M02*
