G04 Layer_Physical_Order=1*
G04 Layer_Color=255*
%FSLAX25Y25*%
%MOIN*%
G70*
G01*
G75*
%ADD10R,0.05905X0.05512*%
%ADD11R,0.04528X0.02362*%
%ADD12R,0.05512X0.05905*%
%ADD13R,0.08661X0.02362*%
%ADD14O,0.08661X0.02362*%
%ADD15R,0.09055X0.09055*%
%ADD16R,0.02362X0.04528*%
%ADD17R,0.09055X0.09055*%
%ADD18C,0.01500*%
%ADD19C,0.06000*%
%ADD20C,0.05512*%
%ADD21R,0.05000X0.05000*%
%ADD22C,0.05000*%
%ADD23R,0.04724X0.04724*%
%ADD24C,0.04724*%
%ADD25R,0.12000X0.12000*%
%ADD26C,0.12000*%
%ADD27R,0.06000X0.06000*%
%ADD28R,0.10000X0.10000*%
%ADD29C,0.10000*%
%ADD30C,0.15000*%
%ADD31C,0.40000*%
%ADD32R,0.06000X0.06000*%
%ADD33C,0.09000*%
%ADD34R,0.09000X0.09000*%
%ADD35R,0.10000X0.05000*%
%ADD36O,0.10000X0.05000*%
%ADD37C,0.16000*%
%ADD38O,0.21000X0.15000*%
%ADD39R,0.21000X0.15000*%
%ADD40C,0.03937*%
G36*
X698674Y101326D02*
X101326D01*
Y498674D01*
X698674D01*
Y101326D01*
D02*
G37*
%LPC*%
G36*
X644051Y197724D02*
X641902D01*
X641051Y197555D01*
X640329Y197073D01*
X639947Y196500D01*
X644051D01*
Y197724D01*
D02*
G37*
G36*
X669053Y199500D02*
X663949D01*
X658844D01*
X659227Y198927D01*
X659948Y198445D01*
X660799Y198276D01*
X662368D01*
Y197724D01*
X660799D01*
X659948Y197555D01*
X659238Y197080D01*
X649761D01*
X649052Y197555D01*
X648201Y197724D01*
X646051D01*
Y195500D01*
Y193276D01*
X648201D01*
X649052Y193446D01*
X649761Y193920D01*
X659238D01*
X659948Y193446D01*
X660799Y193276D01*
X662949D01*
Y195500D01*
X663949D01*
Y196500D01*
X669053D01*
X668671Y197073D01*
X667949Y197555D01*
X667098Y197724D01*
X665529D01*
Y198276D01*
X667098D01*
X667949Y198445D01*
X668671Y198927D01*
X669053Y199500D01*
D02*
G37*
G36*
X550000Y200816D02*
X545000D01*
X544688Y200754D01*
X544423Y200577D01*
X544246Y200312D01*
X544184Y200000D01*
Y195000D01*
X544246Y194688D01*
X544423Y194423D01*
X544688Y194246D01*
X545000Y194184D01*
X550000D01*
X550312Y194246D01*
X550577Y194423D01*
X550754Y194688D01*
X550816Y195000D01*
Y200000D01*
X550754Y200312D01*
X550577Y200577D01*
X550312Y200754D01*
X550000Y200816D01*
D02*
G37*
G36*
X644051Y194500D02*
X639947D01*
X640329Y193928D01*
X641051Y193446D01*
X641902Y193276D01*
X644051D01*
Y194500D01*
D02*
G37*
G36*
X669053D02*
X664949D01*
Y193276D01*
X667098D01*
X667949Y193446D01*
X668671Y193928D01*
X669053Y194500D01*
D02*
G37*
G36*
X587972Y205437D02*
X585000D01*
Y202661D01*
X586953D01*
X587343Y202739D01*
X587674Y202960D01*
X587895Y203291D01*
X587972Y203681D01*
Y205437D01*
D02*
G37*
G36*
X635500Y208292D02*
X634777Y208197D01*
X634104Y207918D01*
X633526Y207474D01*
X633082Y206896D01*
X632803Y206223D01*
X632708Y205500D01*
X632803Y204777D01*
X633082Y204104D01*
X633526Y203525D01*
X634104Y203082D01*
X634777Y202803D01*
X635500Y202708D01*
X636223Y202803D01*
X636896Y203082D01*
X637474Y203525D01*
X637777Y203920D01*
X640701D01*
X641129Y203634D01*
X641902Y203480D01*
X648201D01*
X648974Y203634D01*
X649629Y204072D01*
X650067Y204727D01*
X650221Y205500D01*
X650067Y206273D01*
X649629Y206928D01*
X648974Y207366D01*
X648201Y207520D01*
X641902D01*
X641129Y207366D01*
X640701Y207080D01*
X637777D01*
X637474Y207474D01*
X636896Y207918D01*
X636223Y208197D01*
X635500Y208292D01*
D02*
G37*
G36*
X669053Y204500D02*
X663949D01*
X658844D01*
X659227Y203927D01*
X659948Y203446D01*
X660799Y203276D01*
X662368D01*
Y202724D01*
X660799D01*
X659948Y202554D01*
X659227Y202073D01*
X658844Y201500D01*
X663949D01*
X669053D01*
X668671Y202073D01*
X667949Y202554D01*
X667098Y202724D01*
X665529D01*
Y203276D01*
X667098D01*
X667949Y203446D01*
X668671Y203927D01*
X669053Y204500D01*
D02*
G37*
G36*
X185500Y203829D02*
X180500D01*
X179639Y203715D01*
X178836Y203382D01*
X178146Y202854D01*
X177618Y202164D01*
X177285Y201361D01*
X177172Y200500D01*
X177285Y199638D01*
X177618Y198836D01*
X178146Y198146D01*
X178836Y197617D01*
X179639Y197285D01*
X180500Y197171D01*
X185500D01*
X186362Y197285D01*
X187164Y197617D01*
X187854Y198146D01*
X188382Y198836D01*
X188715Y199638D01*
X188829Y200500D01*
X188715Y201361D01*
X188382Y202164D01*
X187854Y202854D01*
X187164Y203382D01*
X186362Y203715D01*
X185500Y203829D01*
D02*
G37*
G36*
X335500D02*
X330500D01*
X329639Y203715D01*
X328836Y203382D01*
X328146Y202854D01*
X327618Y202164D01*
X327285Y201361D01*
X327171Y200500D01*
X327285Y199638D01*
X327618Y198836D01*
X328146Y198146D01*
X328836Y197617D01*
X329639Y197285D01*
X330500Y197171D01*
X335500D01*
X336362Y197285D01*
X337164Y197617D01*
X337854Y198146D01*
X338383Y198836D01*
X338715Y199638D01*
X338828Y200500D01*
X338715Y201361D01*
X338383Y202164D01*
X337854Y202854D01*
X337164Y203382D01*
X336362Y203715D01*
X335500Y203829D01*
D02*
G37*
G36*
Y183828D02*
X330500D01*
X329639Y183715D01*
X328836Y183382D01*
X328146Y182854D01*
X327618Y182164D01*
X327285Y181361D01*
X327171Y180500D01*
X327285Y179639D01*
X327618Y178836D01*
X328146Y178146D01*
X328836Y177618D01*
X329639Y177285D01*
X330500Y177172D01*
X335500D01*
X336362Y177285D01*
X337164Y177618D01*
X337854Y178146D01*
X338383Y178836D01*
X338715Y179639D01*
X338828Y180500D01*
X338715Y181361D01*
X338383Y182164D01*
X337854Y182854D01*
X337164Y183382D01*
X336362Y183715D01*
X335500Y183828D01*
D02*
G37*
G36*
X141500Y184903D02*
X141456Y184897D01*
X140483Y184494D01*
X139647Y183853D01*
X139006Y183017D01*
X138603Y182044D01*
X138597Y182000D01*
X141500D01*
Y184903D01*
D02*
G37*
G36*
X185500Y183828D02*
X180500D01*
X179639Y183715D01*
X178836Y183382D01*
X178146Y182854D01*
X177618Y182164D01*
X177285Y181361D01*
X177172Y180500D01*
X177285Y179639D01*
X177618Y178836D01*
X178146Y178146D01*
X178836Y177618D01*
X179639Y177285D01*
X180500Y177172D01*
X185500D01*
X186362Y177285D01*
X187164Y177618D01*
X187854Y178146D01*
X188382Y178836D01*
X188715Y179639D01*
X188829Y180500D01*
X188715Y181361D01*
X188382Y182164D01*
X187854Y182854D01*
X187164Y183382D01*
X186362Y183715D01*
X185500Y183828D01*
D02*
G37*
G36*
X395953Y178461D02*
X394000D01*
Y175685D01*
X396972D01*
Y177441D01*
X396895Y177831D01*
X396674Y178162D01*
X396343Y178383D01*
X395953Y178461D01*
D02*
G37*
G36*
X392000D02*
X390047D01*
X389657Y178383D01*
X389326Y178162D01*
X389105Y177831D01*
X389028Y177441D01*
Y176265D01*
X384722D01*
X384117Y176145D01*
X384115Y176143D01*
X380472D01*
Y177319D01*
X380395Y177709D01*
X380174Y178040D01*
X379843Y178261D01*
X379453Y178339D01*
X377500D01*
Y174563D01*
X376500D01*
Y173563D01*
X372528D01*
Y171807D01*
X372605Y171417D01*
X372826Y171086D01*
X373157Y170865D01*
X373547Y170788D01*
X374920D01*
Y161000D01*
Y152255D01*
X374283Y151618D01*
X373940Y151105D01*
X373820Y150500D01*
X373940Y149895D01*
X374283Y149382D01*
X374795Y149040D01*
X375400Y148920D01*
X376005Y149040D01*
X376518Y149382D01*
X377618Y150482D01*
X377960Y150995D01*
X378080Y151600D01*
Y161000D01*
Y170788D01*
X379453D01*
X379843Y170865D01*
X380174Y171086D01*
X380395Y171417D01*
X380472Y171807D01*
Y172983D01*
X384600D01*
X385205Y173103D01*
X385207Y173105D01*
X389028D01*
Y171929D01*
X389105Y171539D01*
X389326Y171208D01*
X389657Y170987D01*
X390047Y170910D01*
X392000D01*
Y174685D01*
Y178461D01*
D02*
G37*
G36*
X438650Y192224D02*
X436500D01*
Y191000D01*
X440605D01*
X440222Y191572D01*
X439501Y192054D01*
X438650Y192224D01*
D02*
G37*
G36*
Y202020D02*
X432350D01*
X431577Y201866D01*
X430922Y201428D01*
X430484Y200773D01*
X430331Y200000D01*
X430484Y199227D01*
X430922Y198572D01*
X431577Y198134D01*
X432350Y197980D01*
X433920D01*
Y197020D01*
X432350D01*
X431577Y196866D01*
X430922Y196428D01*
X430484Y195773D01*
X430331Y195000D01*
X430484Y194227D01*
X430922Y193572D01*
X431577Y193134D01*
X432350Y192980D01*
X438650D01*
X439423Y193134D01*
X440078Y193572D01*
X440516Y194227D01*
X440669Y195000D01*
X440516Y195773D01*
X440078Y196428D01*
X439423Y196866D01*
X438650Y197020D01*
X437080D01*
Y197980D01*
X438650D01*
X439423Y198134D01*
X440078Y198572D01*
X440516Y199227D01*
X440669Y200000D01*
X440516Y200773D01*
X440078Y201428D01*
X439423Y201866D01*
X438650Y202020D01*
D02*
G37*
G36*
X335500Y193828D02*
X330500D01*
X329639Y193715D01*
X328836Y193383D01*
X328146Y192854D01*
X327618Y192164D01*
X327285Y191361D01*
X327171Y190500D01*
X327285Y189638D01*
X327618Y188836D01*
X328146Y188146D01*
X328836Y187618D01*
X329639Y187285D01*
X330500Y187171D01*
X335500D01*
X336362Y187285D01*
X337164Y187618D01*
X337854Y188146D01*
X338383Y188836D01*
X338715Y189638D01*
X338828Y190500D01*
X338715Y191361D01*
X338383Y192164D01*
X337854Y192854D01*
X337164Y193383D01*
X336362Y193715D01*
X335500Y193828D01*
D02*
G37*
G36*
X143500Y184903D02*
Y182000D01*
X146403D01*
X146397Y182044D01*
X145994Y183017D01*
X145353Y183853D01*
X144517Y184494D01*
X143544Y184897D01*
X143500Y184903D01*
D02*
G37*
G36*
X185500Y193828D02*
X180500D01*
X179639Y193715D01*
X178836Y193383D01*
X178146Y192854D01*
X177618Y192164D01*
X177285Y191361D01*
X177172Y190500D01*
X177285Y189638D01*
X177618Y188836D01*
X178146Y188146D01*
X178836Y187618D01*
X179639Y187285D01*
X180500Y187171D01*
X185500D01*
X186362Y187285D01*
X187164Y187618D01*
X187854Y188146D01*
X188382Y188836D01*
X188715Y189638D01*
X188829Y190500D01*
X188715Y191361D01*
X188382Y192164D01*
X187854Y192854D01*
X187164Y193383D01*
X186362Y193715D01*
X185500Y193828D01*
D02*
G37*
G36*
X335500Y233828D02*
X330500D01*
X329639Y233715D01*
X328836Y233383D01*
X328146Y232854D01*
X327618Y232164D01*
X327285Y231362D01*
X327171Y230500D01*
X327285Y229639D01*
X327618Y228836D01*
X328146Y228146D01*
X328836Y227618D01*
X329639Y227285D01*
X330500Y227171D01*
X335500D01*
X336362Y227285D01*
X337164Y227618D01*
X337854Y228146D01*
X338383Y228836D01*
X338715Y229639D01*
X338828Y230500D01*
X338715Y231362D01*
X338383Y232164D01*
X337854Y232854D01*
X337164Y233383D01*
X336362Y233715D01*
X335500Y233828D01*
D02*
G37*
G36*
X185500Y243829D02*
X180500D01*
X179639Y243715D01*
X178836Y243383D01*
X178146Y242854D01*
X177618Y242164D01*
X177285Y241361D01*
X177172Y240500D01*
X177285Y239638D01*
X177618Y238836D01*
X178146Y238146D01*
X178836Y237617D01*
X179639Y237285D01*
X180500Y237172D01*
X185500D01*
X186362Y237285D01*
X187164Y237617D01*
X187854Y238146D01*
X188382Y238836D01*
X188715Y239638D01*
X188829Y240500D01*
X188715Y241361D01*
X188382Y242164D01*
X187854Y242854D01*
X187164Y243383D01*
X186362Y243715D01*
X185500Y243829D01*
D02*
G37*
G36*
Y233828D02*
X180500D01*
X179639Y233715D01*
X178836Y233383D01*
X178146Y232854D01*
X177618Y232164D01*
X177285Y231362D01*
X177172Y230500D01*
X177285Y229639D01*
X177618Y228836D01*
X178146Y228146D01*
X178836Y227618D01*
X179639Y227285D01*
X180500Y227171D01*
X185500D01*
X186362Y227285D01*
X187164Y227618D01*
X187854Y228146D01*
X188382Y228836D01*
X188715Y229639D01*
X188829Y230500D01*
X188715Y231362D01*
X188382Y232164D01*
X187854Y232854D01*
X187164Y233383D01*
X186362Y233715D01*
X185500Y233828D01*
D02*
G37*
G36*
X335500Y223829D02*
X330500D01*
X329639Y223715D01*
X328836Y223382D01*
X328146Y222854D01*
X327618Y222164D01*
X327285Y221361D01*
X327171Y220500D01*
X327285Y219638D01*
X327618Y218836D01*
X328146Y218146D01*
X328836Y217618D01*
X329639Y217285D01*
X330500Y217172D01*
X335500D01*
X336362Y217285D01*
X337164Y217618D01*
X337854Y218146D01*
X338383Y218836D01*
X338715Y219638D01*
X338828Y220500D01*
X338715Y221361D01*
X338383Y222164D01*
X337854Y222854D01*
X337164Y223382D01*
X336362Y223715D01*
X335500Y223829D01*
D02*
G37*
G36*
X309400Y381592D02*
X308677Y381497D01*
X308004Y381218D01*
X307425Y380774D01*
X306982Y380196D01*
X306703Y379523D01*
X306608Y378800D01*
X306703Y378077D01*
X306982Y377404D01*
X307425Y376825D01*
X307820Y376523D01*
Y238300D01*
X307940Y237695D01*
X308282Y237182D01*
X319473Y225993D01*
X319408Y225500D01*
X319503Y224777D01*
X319782Y224104D01*
X320226Y223526D01*
X320804Y223082D01*
X321477Y222803D01*
X322200Y222708D01*
X322923Y222803D01*
X323596Y223082D01*
X324174Y223526D01*
X324618Y224104D01*
X324897Y224777D01*
X324992Y225500D01*
X324897Y226223D01*
X324618Y226896D01*
X324174Y227474D01*
X323596Y227918D01*
X322923Y228197D01*
X322200Y228292D01*
X321707Y228227D01*
X310980Y238955D01*
Y376523D01*
X311374Y376825D01*
X311818Y377404D01*
X312097Y378077D01*
X312192Y378800D01*
X312097Y379523D01*
X311818Y380196D01*
X311374Y380774D01*
X310796Y381218D01*
X310123Y381497D01*
X309400Y381592D01*
D02*
G37*
G36*
X335500Y253829D02*
X330500D01*
X329639Y253715D01*
X328836Y253382D01*
X328146Y252854D01*
X327618Y252164D01*
X327285Y251361D01*
X327171Y250500D01*
X327285Y249639D01*
X327618Y248836D01*
X328146Y248146D01*
X328836Y247618D01*
X329639Y247285D01*
X330500Y247171D01*
X335500D01*
X336362Y247285D01*
X337164Y247618D01*
X337854Y248146D01*
X338383Y248836D01*
X338715Y249639D01*
X338828Y250500D01*
X338715Y251361D01*
X338383Y252164D01*
X337854Y252854D01*
X337164Y253382D01*
X336362Y253715D01*
X335500Y253829D01*
D02*
G37*
G36*
X444000Y302333D02*
X443008Y302202D01*
X442084Y301819D01*
X441290Y301210D01*
X440681Y300416D01*
X440298Y299492D01*
X440167Y298500D01*
X440298Y297508D01*
X440681Y296584D01*
X441290Y295790D01*
X442084Y295181D01*
X442420Y295041D01*
Y276317D01*
X441979Y255793D01*
X441905Y255762D01*
X441245Y255255D01*
X440738Y254595D01*
X440419Y253825D01*
X440310Y253000D01*
X440419Y252174D01*
X440738Y251405D01*
X441245Y250745D01*
X441905Y250238D01*
X442674Y249919D01*
X443500Y249811D01*
X444325Y249919D01*
X445095Y250238D01*
X445755Y250745D01*
X446262Y251405D01*
X446581Y252174D01*
X446690Y253000D01*
X446581Y253825D01*
X446262Y254595D01*
X445755Y255255D01*
X445139Y255728D01*
X445580Y276266D01*
X445577Y276283D01*
X445580Y276300D01*
Y295041D01*
X445916Y295181D01*
X446710Y295790D01*
X447319Y296584D01*
X447702Y297508D01*
X447833Y298500D01*
X447702Y299492D01*
X447319Y300416D01*
X446710Y301210D01*
X445916Y301819D01*
X444992Y302202D01*
X444000Y302333D01*
D02*
G37*
G36*
X185500Y253829D02*
X180500D01*
X179639Y253715D01*
X178836Y253382D01*
X178146Y252854D01*
X177618Y252164D01*
X177285Y251361D01*
X177172Y250500D01*
X177285Y249639D01*
X177618Y248836D01*
X178146Y248146D01*
X178836Y247618D01*
X179639Y247285D01*
X180500Y247171D01*
X185500D01*
X186362Y247285D01*
X187164Y247618D01*
X187854Y248146D01*
X188382Y248836D01*
X188715Y249639D01*
X188829Y250500D01*
X188715Y251361D01*
X188382Y252164D01*
X187854Y252854D01*
X187164Y253382D01*
X186362Y253715D01*
X185500Y253829D01*
D02*
G37*
G36*
X335500Y243829D02*
X330500D01*
X329639Y243715D01*
X328836Y243383D01*
X328146Y242854D01*
X327618Y242164D01*
X327285Y241361D01*
X327171Y240500D01*
X327285Y239638D01*
X327618Y238836D01*
X328146Y238146D01*
X328836Y237617D01*
X329639Y237285D01*
X330500Y237172D01*
X335500D01*
X336362Y237285D01*
X337164Y237617D01*
X337854Y238146D01*
X338383Y238836D01*
X338715Y239638D01*
X338828Y240500D01*
X338715Y241361D01*
X338383Y242164D01*
X337854Y242854D01*
X337164Y243383D01*
X336362Y243715D01*
X335500Y243829D01*
D02*
G37*
G36*
X439500Y242792D02*
X438777Y242697D01*
X438104Y242418D01*
X437526Y241974D01*
X437082Y241396D01*
X436803Y240723D01*
X436708Y240000D01*
X436772Y239507D01*
X434382Y237118D01*
X434040Y236605D01*
X433920Y236000D01*
Y207020D01*
X432350D01*
X431577Y206866D01*
X430922Y206428D01*
X430484Y205773D01*
X430331Y205000D01*
X430484Y204227D01*
X430922Y203572D01*
X431577Y203134D01*
X432350Y202980D01*
X438650D01*
X439423Y203134D01*
X440078Y203572D01*
X440516Y204227D01*
X440669Y205000D01*
X440516Y205773D01*
X440078Y206428D01*
X439423Y206866D01*
X438650Y207020D01*
X437080D01*
Y235345D01*
X439007Y237273D01*
X439500Y237208D01*
X440223Y237303D01*
X440896Y237582D01*
X441474Y238025D01*
X441918Y238604D01*
X442197Y239277D01*
X442292Y240000D01*
X442197Y240723D01*
X441918Y241396D01*
X441474Y241974D01*
X440896Y242418D01*
X440223Y242697D01*
X439500Y242792D01*
D02*
G37*
G36*
X185500Y213828D02*
X180500D01*
X179639Y213715D01*
X178836Y213383D01*
X178146Y212854D01*
X177618Y212164D01*
X177285Y211362D01*
X177172Y210500D01*
X177285Y209639D01*
X177618Y208836D01*
X178146Y208146D01*
X178836Y207617D01*
X179639Y207285D01*
X180500Y207172D01*
X185500D01*
X186362Y207285D01*
X187164Y207617D01*
X187854Y208146D01*
X188382Y208836D01*
X188715Y209639D01*
X188829Y210500D01*
X188715Y211362D01*
X188382Y212164D01*
X187854Y212854D01*
X187164Y213383D01*
X186362Y213715D01*
X185500Y213828D01*
D02*
G37*
G36*
X335500D02*
X330500D01*
X329639Y213715D01*
X328836Y213383D01*
X328146Y212854D01*
X327618Y212164D01*
X327285Y211362D01*
X327171Y210500D01*
X327285Y209639D01*
X327618Y208836D01*
X328146Y208146D01*
X328836Y207617D01*
X329639Y207285D01*
X330500Y207172D01*
X335500D01*
X336362Y207285D01*
X337164Y207617D01*
X337854Y208146D01*
X338383Y208836D01*
X338715Y209639D01*
X338828Y210500D01*
X338715Y211362D01*
X338383Y212164D01*
X337854Y212854D01*
X337164Y213383D01*
X336362Y213715D01*
X335500Y213828D01*
D02*
G37*
G36*
X669053Y209500D02*
X663949D01*
X658844D01*
X659227Y208927D01*
X659948Y208445D01*
X660799Y208276D01*
X662368D01*
Y207724D01*
X660799D01*
X659948Y207555D01*
X659227Y207072D01*
X658844Y206500D01*
X663949D01*
X669053D01*
X668671Y207072D01*
X667949Y207555D01*
X667098Y207724D01*
X665529D01*
Y208276D01*
X667098D01*
X667949Y208445D01*
X668671Y208927D01*
X669053Y209500D01*
D02*
G37*
G36*
X546500Y207000D02*
X544126D01*
X544443Y206235D01*
X545004Y205504D01*
X545735Y204943D01*
X546500Y204626D01*
Y207000D01*
D02*
G37*
G36*
X446900Y233992D02*
X446177Y233897D01*
X445504Y233618D01*
X444925Y233174D01*
X444482Y232596D01*
X444203Y231923D01*
X444108Y231200D01*
X444203Y230477D01*
X444482Y229804D01*
X444925Y229225D01*
X445504Y228782D01*
X446177Y228503D01*
X446900Y228408D01*
X447393Y228472D01*
X466983Y208882D01*
X467495Y208540D01*
X468100Y208420D01*
X469369D01*
Y207047D01*
X469431Y206735D01*
X469608Y206470D01*
X469873Y206294D01*
X470185Y206232D01*
X475697D01*
X476009Y206294D01*
X476274Y206470D01*
X476450Y206735D01*
X476513Y207047D01*
Y212953D01*
X476450Y213265D01*
X476274Y213529D01*
X476009Y213706D01*
X475697Y213768D01*
X470185D01*
X469873Y213706D01*
X469608Y213529D01*
X469431Y213265D01*
X469369Y212953D01*
Y211580D01*
X468755D01*
X449627Y230707D01*
X449692Y231200D01*
X449597Y231923D01*
X449318Y232596D01*
X448875Y233174D01*
X448296Y233618D01*
X447623Y233897D01*
X446900Y233992D01*
D02*
G37*
G36*
X546500Y211374D02*
X545735Y211057D01*
X545004Y210496D01*
X544443Y209765D01*
X544126Y209000D01*
X546500D01*
Y211374D01*
D02*
G37*
G36*
X672443Y250551D02*
X649557D01*
X649623Y249885D01*
X650109Y248283D01*
X650898Y246806D01*
X651961Y245512D01*
X653255Y244449D01*
X654732Y243660D01*
X656334Y243174D01*
X658000Y243010D01*
X659420D01*
Y213449D01*
X659540Y212844D01*
X659603Y212749D01*
X659506Y212259D01*
X659227Y212072D01*
X658844Y211500D01*
X663949D01*
X669053D01*
X668671Y212072D01*
X667949Y212555D01*
X667098Y212724D01*
X663960D01*
X662580Y214103D01*
Y243010D01*
X664000D01*
X665666Y243174D01*
X667269Y243660D01*
X668745Y244449D01*
X670040Y245512D01*
X671102Y246806D01*
X671891Y248283D01*
X672377Y249885D01*
X672443Y250551D01*
D02*
G37*
G36*
X642500Y246092D02*
X641777Y245997D01*
X641104Y245718D01*
X640525Y245274D01*
X640082Y244696D01*
X639803Y244023D01*
X639708Y243300D01*
X639803Y242577D01*
X640082Y241904D01*
X640525Y241325D01*
X641104Y240882D01*
X641777Y240603D01*
X642500Y240508D01*
X642993Y240573D01*
X643520Y240045D01*
Y212520D01*
X641902D01*
X641129Y212366D01*
X640473Y211928D01*
X640035Y211273D01*
X639882Y210500D01*
X640035Y209727D01*
X640473Y209072D01*
X641129Y208634D01*
X641902Y208480D01*
X648201D01*
X648974Y208634D01*
X649629Y209072D01*
X650067Y209727D01*
X650221Y210500D01*
X650067Y211273D01*
X649629Y211928D01*
X648974Y212366D01*
X648201Y212520D01*
X646680D01*
Y240700D01*
X646560Y241305D01*
X646217Y241817D01*
X645227Y242807D01*
X645292Y243300D01*
X645197Y244023D01*
X644918Y244696D01*
X644475Y245274D01*
X643896Y245718D01*
X643223Y245997D01*
X642500Y246092D01*
D02*
G37*
G36*
X586953Y210212D02*
X585000D01*
Y207437D01*
X587972D01*
Y209193D01*
X587895Y209583D01*
X587674Y209914D01*
X587343Y210135D01*
X586953Y210212D01*
D02*
G37*
G36*
X579725Y253500D02*
X576500D01*
X573275D01*
X573563Y252804D01*
X574102Y252102D01*
X574804Y251563D01*
X574920Y251515D01*
Y208017D01*
X567325D01*
X550738Y209329D01*
X550557Y209765D01*
X549996Y210496D01*
X549265Y211057D01*
X548500Y211374D01*
Y208000D01*
Y204626D01*
X548598Y204667D01*
X570420Y182845D01*
Y172888D01*
X570236Y172870D01*
X568539Y172355D01*
X566976Y171519D01*
X565605Y170395D01*
X564481Y169024D01*
X563645Y167461D01*
X563130Y165764D01*
X563055Y165000D01*
X572000D01*
X580945D01*
X580870Y165764D01*
X580355Y167461D01*
X579519Y169024D01*
X578395Y170395D01*
X577024Y171519D01*
X575461Y172355D01*
X573764Y172870D01*
X573580Y172888D01*
Y183500D01*
X573460Y184105D01*
X573117Y184617D01*
X552159Y205576D01*
X552369Y206030D01*
X567138Y204861D01*
X567201Y204869D01*
X567263Y204857D01*
X580028D01*
Y203681D01*
X580105Y203291D01*
X580326Y202960D01*
X580657Y202739D01*
X581047Y202661D01*
X583000D01*
Y206437D01*
Y210212D01*
X581047D01*
X580657Y210135D01*
X580326Y209914D01*
X580105Y209583D01*
X580058Y209347D01*
X579610Y208927D01*
X578080Y209233D01*
Y251515D01*
X578196Y251563D01*
X578898Y252102D01*
X579437Y252804D01*
X579725Y253500D01*
D02*
G37*
G36*
X375500Y178339D02*
X373547D01*
X373157Y178261D01*
X372826Y178040D01*
X372605Y177709D01*
X372528Y177319D01*
Y175563D01*
X375500D01*
Y178339D01*
D02*
G37*
G36*
X438000Y135551D02*
X433070D01*
X433087Y135375D01*
X433430Y134244D01*
X433987Y133202D01*
X434737Y132288D01*
X435650Y131538D01*
X436693Y130981D01*
X437824Y130638D01*
X438000Y130621D01*
Y135551D01*
D02*
G37*
G36*
X444931D02*
X440000D01*
Y130621D01*
X440176Y130638D01*
X441307Y130981D01*
X442349Y131538D01*
X443263Y132288D01*
X444013Y133202D01*
X444570Y134244D01*
X444913Y135375D01*
X444931Y135551D01*
D02*
G37*
G36*
X472700Y144891D02*
X471073Y144731D01*
X469508Y144256D01*
X468067Y143486D01*
X466803Y142449D01*
X465765Y141185D01*
X464995Y139743D01*
X464520Y138178D01*
X464360Y136551D01*
X464520Y134924D01*
X464995Y133360D01*
X465765Y131918D01*
X466803Y130654D01*
X468067Y129617D01*
X469508Y128846D01*
X471073Y128371D01*
X472700Y128211D01*
X474327Y128371D01*
X475892Y128846D01*
X477333Y129617D01*
X478597Y130654D01*
X479635Y131918D01*
X480405Y133360D01*
X480880Y134924D01*
X481040Y136551D01*
X480880Y138178D01*
X480405Y139743D01*
X479635Y141185D01*
X478597Y142449D01*
X477333Y143486D01*
X475892Y144256D01*
X474327Y144731D01*
X472700Y144891D01*
D02*
G37*
G36*
X594231Y129000D02*
X589300D01*
Y124069D01*
X589476Y124087D01*
X590607Y124430D01*
X591649Y124987D01*
X592563Y125737D01*
X593313Y126651D01*
X593870Y127693D01*
X594213Y128824D01*
X594231Y129000D01*
D02*
G37*
G36*
X530961Y138000D02*
X527185D01*
X523410D01*
Y136047D01*
X523487Y135657D01*
X523708Y135326D01*
X524039Y135105D01*
X524429Y135028D01*
X525605D01*
Y132356D01*
X525725Y131751D01*
X525861Y131548D01*
Y129472D01*
X524685D01*
X524295Y129395D01*
X523964Y129174D01*
X523743Y128843D01*
X523666Y128453D01*
Y126500D01*
X527441D01*
X531216D01*
Y128453D01*
X531139Y128843D01*
X530918Y129174D01*
X530587Y129395D01*
X530197Y129472D01*
X529021D01*
Y132100D01*
X528901Y132705D01*
X528765Y132908D01*
Y135028D01*
X529941D01*
X530331Y135105D01*
X530662Y135326D01*
X530883Y135657D01*
X530961Y136047D01*
Y138000D01*
D02*
G37*
G36*
X185500Y223829D02*
X180500D01*
X179639Y223715D01*
X178836Y223382D01*
X178146Y222854D01*
X177618Y222164D01*
X177285Y221361D01*
X177172Y220500D01*
X177285Y219638D01*
X177618Y218836D01*
X178146Y218146D01*
X178836Y217618D01*
X179639Y217285D01*
X180500Y217172D01*
X185500D01*
X186362Y217285D01*
X187164Y217618D01*
X187854Y218146D01*
X188382Y218836D01*
X188388Y218848D01*
X256420Y217941D01*
Y138077D01*
X256026Y137775D01*
X255582Y137196D01*
X255303Y136523D01*
X255208Y135800D01*
X255303Y135077D01*
X255582Y134404D01*
X256026Y133826D01*
X256604Y133382D01*
X257277Y133103D01*
X258000Y133008D01*
X258723Y133103D01*
X259396Y133382D01*
X259975Y133826D01*
X260418Y134404D01*
X260697Y135077D01*
X260792Y135800D01*
X260697Y136523D01*
X260418Y137196D01*
X259975Y137775D01*
X259580Y138077D01*
Y219500D01*
X259522Y219792D01*
X259468Y220085D01*
X259462Y220094D01*
X259460Y220105D01*
X259295Y220352D01*
X259132Y220602D01*
X259123Y220609D01*
X259118Y220618D01*
X258870Y220783D01*
X258624Y220952D01*
X258614Y220954D01*
X258605Y220960D01*
X258313Y221018D01*
X258021Y221080D01*
X188447Y222008D01*
X188382Y222164D01*
X187854Y222854D01*
X187164Y223382D01*
X186362Y223715D01*
X185500Y223829D01*
D02*
G37*
G36*
X508903Y159000D02*
X506000D01*
Y156097D01*
X506044Y156103D01*
X506481Y156284D01*
X515382Y147382D01*
X515895Y147040D01*
X516500Y146920D01*
X523287D01*
Y145547D01*
X523365Y145157D01*
X523586Y144826D01*
X523917Y144605D01*
X524307Y144528D01*
X525483D01*
Y143722D01*
X525532Y143472D01*
X525144Y142972D01*
X524429D01*
X524039Y142895D01*
X523708Y142674D01*
X523487Y142343D01*
X523410Y141953D01*
Y140000D01*
X527185D01*
X530961D01*
Y141953D01*
X530883Y142343D01*
X530662Y142674D01*
X530331Y142895D01*
X529941Y142972D01*
X528765D01*
Y143600D01*
X528680Y144028D01*
X528971Y144506D01*
X528995Y144528D01*
X529819D01*
X530209Y144605D01*
X530540Y144826D01*
X530761Y145157D01*
X530838Y145547D01*
Y147500D01*
X527063D01*
Y148500D01*
X526063D01*
Y152472D01*
X524307D01*
X523917Y152395D01*
X523586Y152174D01*
X523365Y151843D01*
X523287Y151453D01*
Y150080D01*
X517155D01*
X508716Y158519D01*
X508897Y158956D01*
X508903Y159000D01*
D02*
G37*
G36*
X589300Y135931D02*
Y131000D01*
X594231D01*
X594213Y131176D01*
X593870Y132307D01*
X593313Y133350D01*
X592563Y134263D01*
X591649Y135013D01*
X590607Y135570D01*
X589476Y135913D01*
X589300Y135931D01*
D02*
G37*
G36*
X455300Y142379D02*
X454163Y142267D01*
X453070Y141936D01*
X452062Y141397D01*
X451179Y140672D01*
X450454Y139789D01*
X449916Y138781D01*
X449584Y137688D01*
X449472Y136551D01*
X449584Y135414D01*
X449916Y134321D01*
X450454Y133313D01*
X451179Y132430D01*
X452062Y131705D01*
X453070Y131167D01*
X454163Y130835D01*
X455300Y130723D01*
X456437Y130835D01*
X457530Y131167D01*
X458538Y131705D01*
X459421Y132430D01*
X460146Y133313D01*
X460684Y134321D01*
X461016Y135414D01*
X461128Y136551D01*
X461016Y137688D01*
X460684Y138781D01*
X460146Y139789D01*
X459421Y140672D01*
X458538Y141397D01*
X457530Y141936D01*
X456437Y142267D01*
X455300Y142379D01*
D02*
G37*
G36*
X587300Y135931D02*
X587124Y135913D01*
X585993Y135570D01*
X584950Y135013D01*
X584037Y134263D01*
X583287Y133350D01*
X582730Y132307D01*
X582387Y131176D01*
X582370Y131000D01*
X587300D01*
Y135931D01*
D02*
G37*
G36*
X639151Y115000D02*
X636500D01*
Y112349D01*
X637394Y112719D01*
X638179Y113321D01*
X638781Y114106D01*
X639151Y115000D01*
D02*
G37*
G36*
X531216Y124500D02*
X527441D01*
X523666D01*
Y122547D01*
X523743Y122157D01*
X523964Y121826D01*
X524295Y121605D01*
X524685Y121528D01*
X525861D01*
Y116972D01*
X524685D01*
X524295Y116895D01*
X523964Y116674D01*
X523743Y116343D01*
X523666Y115953D01*
Y114000D01*
X527441D01*
X531216D01*
Y115953D01*
X531139Y116343D01*
X530918Y116674D01*
X530587Y116895D01*
X530197Y116972D01*
X529021D01*
Y121528D01*
X530197D01*
X530587Y121605D01*
X530918Y121826D01*
X531139Y122157D01*
X531216Y122547D01*
Y124500D01*
D02*
G37*
G36*
X634500Y115000D02*
X631849D01*
X632219Y114106D01*
X632821Y113321D01*
X633606Y112719D01*
X634500Y112349D01*
Y115000D01*
D02*
G37*
G36*
X150000Y145845D02*
X147279Y145666D01*
X144605Y145134D01*
X142023Y144258D01*
X139578Y143052D01*
X137311Y141537D01*
X135261Y139739D01*
X133463Y137689D01*
X131948Y135422D01*
X130742Y132977D01*
X129866Y130395D01*
X129334Y127721D01*
X129155Y125000D01*
X129334Y122279D01*
X129866Y119605D01*
X130742Y117023D01*
X131948Y114578D01*
X133463Y112311D01*
X135261Y110261D01*
X137311Y108463D01*
X139578Y106948D01*
X142023Y105742D01*
X144605Y104866D01*
X147279Y104334D01*
X150000Y104155D01*
X152721Y104334D01*
X155395Y104866D01*
X157977Y105742D01*
X160422Y106948D01*
X162689Y108463D01*
X164739Y110261D01*
X166537Y112311D01*
X168052Y114578D01*
X169258Y117023D01*
X170134Y119605D01*
X170666Y122279D01*
X170845Y125000D01*
X170666Y127721D01*
X170134Y130395D01*
X169258Y132977D01*
X168052Y135422D01*
X166537Y137689D01*
X164739Y139739D01*
X162689Y141537D01*
X160422Y143052D01*
X157977Y144258D01*
X155395Y145134D01*
X152721Y145666D01*
X150000Y145845D01*
D02*
G37*
G36*
X675000D02*
X672279Y145666D01*
X669605Y145134D01*
X667023Y144258D01*
X664578Y143052D01*
X662311Y141537D01*
X660261Y139739D01*
X658463Y137689D01*
X656948Y135422D01*
X655742Y132977D01*
X654866Y130395D01*
X654334Y127721D01*
X654155Y125000D01*
X654334Y122279D01*
X654866Y119605D01*
X655742Y117023D01*
X656948Y114578D01*
X658463Y112311D01*
X660261Y110261D01*
X662311Y108463D01*
X664578Y106948D01*
X667023Y105742D01*
X669605Y104866D01*
X672279Y104334D01*
X675000Y104155D01*
X677721Y104334D01*
X680395Y104866D01*
X682977Y105742D01*
X685422Y106948D01*
X687689Y108463D01*
X689739Y110261D01*
X691537Y112311D01*
X693052Y114578D01*
X694258Y117023D01*
X695134Y119605D01*
X695666Y122279D01*
X695845Y125000D01*
X695666Y127721D01*
X695134Y130395D01*
X694258Y132977D01*
X693052Y135422D01*
X691537Y137689D01*
X689739Y139739D01*
X687689Y141537D01*
X685422Y143052D01*
X682977Y144258D01*
X680395Y145134D01*
X677721Y145666D01*
X675000Y145845D01*
D02*
G37*
G36*
X557193Y125237D02*
X552665D01*
X552353Y125175D01*
X552089Y124998D01*
X551912Y124733D01*
X551850Y124421D01*
Y122059D01*
X551912Y121747D01*
X552089Y121482D01*
X552353Y121306D01*
X552665Y121243D01*
X557193D01*
X557505Y121306D01*
X557770Y121482D01*
X557947Y121747D01*
X558009Y122059D01*
Y124421D01*
X557947Y124733D01*
X557770Y124998D01*
X557505Y125175D01*
X557193Y125237D01*
D02*
G37*
G36*
X587300Y129000D02*
X582370D01*
X582387Y128824D01*
X582730Y127693D01*
X583287Y126651D01*
X584037Y125737D01*
X584950Y124987D01*
X585993Y124430D01*
X587124Y124087D01*
X587300Y124069D01*
Y129000D01*
D02*
G37*
G36*
X577000Y135816D02*
X567000D01*
X566688Y135754D01*
X566423Y135577D01*
X566246Y135312D01*
X566184Y135000D01*
Y126419D01*
X557467Y117702D01*
X557193Y117757D01*
X552665D01*
X552353Y117694D01*
X552089Y117518D01*
X551912Y117253D01*
X551850Y116941D01*
Y114579D01*
X551912Y114267D01*
X552089Y114002D01*
X552353Y113825D01*
X552665Y113763D01*
X557193D01*
X557505Y113825D01*
X557770Y114002D01*
X557908Y114209D01*
X558365Y114300D01*
X558877Y114642D01*
X568419Y124184D01*
X577000D01*
X577312Y124246D01*
X577577Y124423D01*
X577754Y124688D01*
X577816Y125000D01*
Y135000D01*
X577754Y135312D01*
X577577Y135577D01*
X577312Y135754D01*
X577000Y135816D01*
D02*
G37*
G36*
X634500Y119651D02*
X633606Y119281D01*
X632821Y118679D01*
X632219Y117894D01*
X631849Y117000D01*
X634500D01*
Y119651D01*
D02*
G37*
G36*
X636500D02*
Y117000D01*
X639151D01*
X638781Y117894D01*
X638179Y118679D01*
X637394Y119281D01*
X636500Y119651D01*
D02*
G37*
G36*
X185500Y163829D02*
X180500D01*
X179639Y163715D01*
X178836Y163382D01*
X178146Y162854D01*
X177618Y162164D01*
X177285Y161362D01*
X177172Y160500D01*
X177285Y159639D01*
X177618Y158836D01*
X178146Y158146D01*
X178836Y157617D01*
X179639Y157285D01*
X180500Y157171D01*
X185500D01*
X186362Y157285D01*
X187164Y157617D01*
X187854Y158146D01*
X188382Y158836D01*
X188715Y159639D01*
X188829Y160500D01*
X188715Y161362D01*
X188382Y162164D01*
X187854Y162854D01*
X187164Y163382D01*
X186362Y163715D01*
X185500Y163829D01*
D02*
G37*
G36*
X335500D02*
X330500D01*
X329639Y163715D01*
X328836Y163382D01*
X328146Y162854D01*
X327618Y162164D01*
X327285Y161362D01*
X327171Y160500D01*
X327285Y159639D01*
X327618Y158836D01*
X328146Y158146D01*
X328836Y157617D01*
X329639Y157285D01*
X330500Y157171D01*
X335500D01*
X336362Y157285D01*
X337164Y157617D01*
X337854Y158146D01*
X338383Y158836D01*
X338715Y159639D01*
X338828Y160500D01*
X338715Y161362D01*
X338383Y162164D01*
X337854Y162854D01*
X337164Y163382D01*
X336362Y163715D01*
X335500Y163829D01*
D02*
G37*
G36*
Y154030D02*
X334000D01*
Y151500D01*
X338874D01*
X338557Y152265D01*
X337996Y152996D01*
X337265Y153557D01*
X336414Y153910D01*
X335500Y154030D01*
D02*
G37*
G36*
X332000D02*
X330500D01*
X329586Y153910D01*
X328735Y153557D01*
X328004Y152996D01*
X327443Y152265D01*
X327126Y151500D01*
X332000D01*
Y154030D01*
D02*
G37*
G36*
X185500D02*
X184000D01*
Y151500D01*
X188874D01*
X188557Y152265D01*
X187996Y152996D01*
X187265Y153557D01*
X186414Y153910D01*
X185500Y154030D01*
D02*
G37*
G36*
X635500Y179587D02*
X634572Y179464D01*
X633707Y179106D01*
X632964Y178536D01*
X632394Y177793D01*
X632036Y176928D01*
X631913Y176000D01*
X632036Y175072D01*
X632394Y174207D01*
X632964Y173464D01*
X633707Y172894D01*
X634572Y172536D01*
X635500Y172413D01*
X636428Y172536D01*
X637293Y172894D01*
X638036Y173464D01*
X638606Y174207D01*
X638964Y175072D01*
X639087Y176000D01*
X638964Y176928D01*
X638606Y177793D01*
X638036Y178536D01*
X637293Y179106D01*
X636428Y179464D01*
X635500Y179587D01*
D02*
G37*
G36*
X613500Y181587D02*
X612572Y181464D01*
X611707Y181106D01*
X610964Y180536D01*
X610394Y179793D01*
X610036Y178928D01*
X609913Y178000D01*
X610036Y177072D01*
X610394Y176207D01*
X610964Y175464D01*
X611707Y174894D01*
X612572Y174536D01*
X613500Y174413D01*
X614428Y174536D01*
X615293Y174894D01*
X616036Y175464D01*
X616606Y176207D01*
X616964Y177072D01*
X617087Y178000D01*
X616964Y178928D01*
X616606Y179793D01*
X616036Y180536D01*
X615293Y181106D01*
X614428Y181464D01*
X613500Y181587D01*
D02*
G37*
G36*
X396972Y173685D02*
X394000D01*
Y170910D01*
X395953D01*
X396343Y170987D01*
X396674Y171208D01*
X396895Y171539D01*
X396972Y171929D01*
Y173685D01*
D02*
G37*
G36*
X185500Y173828D02*
X180500D01*
X179639Y173715D01*
X178836Y173382D01*
X178146Y172854D01*
X177618Y172164D01*
X177285Y171361D01*
X177172Y170500D01*
X177285Y169639D01*
X177618Y168836D01*
X178146Y168146D01*
X178836Y167617D01*
X179639Y167285D01*
X180500Y167172D01*
X185500D01*
X186362Y167285D01*
X187164Y167617D01*
X187854Y168146D01*
X188382Y168836D01*
X188715Y169639D01*
X188829Y170500D01*
X188715Y171361D01*
X188382Y172164D01*
X187854Y172854D01*
X187164Y173382D01*
X186362Y173715D01*
X185500Y173828D01*
D02*
G37*
G36*
X335500D02*
X330500D01*
X329639Y173715D01*
X328836Y173382D01*
X328146Y172854D01*
X327618Y172164D01*
X327285Y171361D01*
X327171Y170500D01*
X327285Y169639D01*
X327618Y168836D01*
X328146Y168146D01*
X328836Y167617D01*
X329639Y167285D01*
X330500Y167172D01*
X335500D01*
X336362Y167285D01*
X337164Y167617D01*
X337854Y168146D01*
X338383Y168836D01*
X338715Y169639D01*
X338828Y170500D01*
X338715Y171361D01*
X338383Y172164D01*
X337854Y172854D01*
X337164Y173382D01*
X336362Y173715D01*
X335500Y173828D01*
D02*
G37*
G36*
X171500Y146937D02*
X168528D01*
Y145181D01*
X168605Y144791D01*
X168826Y144460D01*
X169157Y144239D01*
X169547Y144161D01*
X171500D01*
Y146937D01*
D02*
G37*
G36*
X557693Y150737D02*
X553165D01*
X552853Y150675D01*
X552589Y150498D01*
X552412Y150233D01*
X552350Y149921D01*
Y147559D01*
X552412Y147247D01*
X552589Y146982D01*
X552853Y146806D01*
X553165Y146743D01*
X557693D01*
X558005Y146806D01*
X558270Y146982D01*
X558447Y147247D01*
X558509Y147559D01*
Y149921D01*
X558447Y150233D01*
X558270Y150498D01*
X558005Y150675D01*
X557693Y150737D01*
D02*
G37*
G36*
X513100Y311892D02*
X512377Y311797D01*
X511704Y311518D01*
X511126Y311074D01*
X510682Y310496D01*
X510403Y309823D01*
X510308Y309100D01*
X510403Y308377D01*
X510682Y307704D01*
X511126Y307125D01*
X511704Y306682D01*
X512377Y306403D01*
X513100Y306308D01*
X513593Y306372D01*
X533357Y286608D01*
Y152268D01*
X532181D01*
X531869Y152206D01*
X531604Y152030D01*
X531427Y151765D01*
X531365Y151453D01*
Y145547D01*
X531427Y145235D01*
X531604Y144971D01*
X531869Y144794D01*
X532181Y144732D01*
X533357D01*
Y143722D01*
X533447Y143268D01*
X533154Y142768D01*
X532303D01*
X531991Y142706D01*
X531726Y142529D01*
X531550Y142265D01*
X531487Y141953D01*
Y136047D01*
X531550Y135735D01*
X531726Y135470D01*
X531991Y135294D01*
X532303Y135232D01*
X537815D01*
X538127Y135294D01*
X538392Y135470D01*
X538568Y135735D01*
X538631Y136047D01*
Y141953D01*
X538568Y142265D01*
X538392Y142529D01*
X538127Y142706D01*
X537815Y142768D01*
X536639D01*
Y143600D01*
X536519Y144205D01*
X536517Y144207D01*
Y144732D01*
X537693D01*
X538005Y144794D01*
X538270Y144971D01*
X538447Y145235D01*
X538509Y145547D01*
Y146103D01*
X538971Y146294D01*
X541383Y143883D01*
X541895Y143540D01*
X542500Y143420D01*
X543612D01*
X543730Y143242D01*
X543995Y143065D01*
X544307Y143003D01*
X548835D01*
X549147Y143065D01*
X549411Y143242D01*
X549588Y143507D01*
X549650Y143819D01*
Y146181D01*
X549588Y146493D01*
X549411Y146758D01*
X549147Y146935D01*
X548835Y146997D01*
X544307D01*
X543995Y146935D01*
X543730Y146758D01*
X543638Y146620D01*
X543143Y146592D01*
X540118Y149618D01*
X539605Y149960D01*
X539000Y150080D01*
X538509D01*
Y151453D01*
X538447Y151765D01*
X538270Y152030D01*
X538005Y152206D01*
X537693Y152268D01*
X536517D01*
Y287263D01*
X536397Y287868D01*
X536055Y288381D01*
X515828Y308607D01*
X515892Y309100D01*
X515797Y309823D01*
X515518Y310496D01*
X515074Y311074D01*
X514496Y311518D01*
X513823Y311797D01*
X513100Y311892D01*
D02*
G37*
G36*
X577930Y145300D02*
X573000D01*
Y140369D01*
X573176Y140387D01*
X574307Y140730D01*
X575350Y141287D01*
X576263Y142037D01*
X577013Y142950D01*
X577570Y143993D01*
X577913Y145124D01*
X577930Y145300D01*
D02*
G37*
G36*
X185500Y143828D02*
X180500D01*
X179639Y143715D01*
X178836Y143383D01*
X178146Y142854D01*
X177618Y142164D01*
X177551Y142004D01*
X177332Y141960D01*
X176858Y141643D01*
X176268D01*
Y142819D01*
X176206Y143131D01*
X176030Y143396D01*
X175765Y143572D01*
X175453Y143635D01*
X169547D01*
X169235Y143572D01*
X168971Y143396D01*
X168794Y143131D01*
X168732Y142819D01*
Y137307D01*
X168794Y136995D01*
X168971Y136730D01*
X169235Y136554D01*
X169547Y136491D01*
X175453D01*
X175765Y136554D01*
X176030Y136730D01*
X176206Y136995D01*
X176268Y137307D01*
Y138483D01*
X177500D01*
X177837Y138550D01*
X178146Y138146D01*
X178836Y137618D01*
X179639Y137285D01*
X180500Y137171D01*
X184093D01*
X188382Y132882D01*
X188895Y132540D01*
X189500Y132420D01*
X202845D01*
X214937Y120328D01*
X214798Y119992D01*
X214667Y119000D01*
X214798Y118008D01*
X215181Y117084D01*
X215790Y116290D01*
X216584Y115681D01*
X217508Y115298D01*
X218500Y115167D01*
X219492Y115298D01*
X220416Y115681D01*
X221210Y116290D01*
X221819Y117084D01*
X222202Y118008D01*
X222333Y119000D01*
X222202Y119992D01*
X221819Y120916D01*
X221210Y121710D01*
X220416Y122319D01*
X219492Y122702D01*
X218500Y122833D01*
X217508Y122702D01*
X217172Y122563D01*
X204618Y135117D01*
X204105Y135460D01*
X203500Y135580D01*
X190155D01*
X187837Y137898D01*
X187854Y138146D01*
X188382Y138836D01*
X188715Y139638D01*
X188829Y140500D01*
X188715Y141361D01*
X188382Y142164D01*
X187854Y142854D01*
X187164Y143383D01*
X186362Y143715D01*
X185500Y143828D01*
D02*
G37*
G36*
X338874Y149500D02*
X334000D01*
Y146970D01*
X335500D01*
X336414Y147090D01*
X337265Y147443D01*
X337996Y148004D01*
X338557Y148735D01*
X338874Y149500D01*
D02*
G37*
G36*
X529819Y152472D02*
X528063D01*
Y149500D01*
X530838D01*
Y151453D01*
X530761Y151843D01*
X530540Y152174D01*
X530209Y152395D01*
X529819Y152472D01*
D02*
G37*
G36*
X332000Y149500D02*
X327126D01*
X327443Y148735D01*
X328004Y148004D01*
X328735Y147443D01*
X329586Y147090D01*
X330500Y146970D01*
X332000D01*
Y149500D01*
D02*
G37*
G36*
X146403Y180000D02*
X138597D01*
X138603Y179956D01*
X139006Y178983D01*
X139647Y178147D01*
X140483Y177506D01*
X140920Y177325D01*
Y171000D01*
X141040Y170395D01*
X141383Y169883D01*
X155383Y155883D01*
X155895Y155540D01*
X156500Y155420D01*
X162782D01*
X168528Y149674D01*
Y148937D01*
X172500D01*
Y147937D01*
X173500D01*
Y144161D01*
X175453D01*
X175843Y144239D01*
X176174Y144460D01*
X176395Y144791D01*
X176472Y145181D01*
Y148920D01*
X177366D01*
X177443Y148735D01*
X178004Y148004D01*
X178735Y147443D01*
X179586Y147090D01*
X180500Y146970D01*
X182000D01*
Y150500D01*
Y154030D01*
X180500D01*
X179586Y153910D01*
X178735Y153557D01*
X178004Y152996D01*
X177443Y152265D01*
X177366Y152080D01*
X172500D01*
X171895Y151960D01*
X171525Y151713D01*
X170959D01*
X164555Y158117D01*
X164042Y158460D01*
X163437Y158580D01*
X157155D01*
X144080Y171655D01*
Y177325D01*
X144517Y177506D01*
X145353Y178147D01*
X145994Y178983D01*
X146397Y179956D01*
X146403Y180000D01*
D02*
G37*
G36*
X188874Y149500D02*
X184000D01*
Y146970D01*
X185500D01*
X186414Y147090D01*
X187265Y147443D01*
X187996Y148004D01*
X188557Y148735D01*
X188874Y149500D01*
D02*
G37*
G36*
X185500Y403828D02*
X180500D01*
X179639Y403715D01*
X178836Y403382D01*
X178146Y402854D01*
X177618Y402164D01*
X177285Y401362D01*
X177172Y400500D01*
X177285Y399639D01*
X177618Y398836D01*
X178146Y398146D01*
X178836Y397618D01*
X179639Y397285D01*
X180500Y397171D01*
X185500D01*
X186362Y397285D01*
X187164Y397618D01*
X187854Y398146D01*
X188382Y398836D01*
X188715Y399639D01*
X188829Y400500D01*
X188715Y401362D01*
X188382Y402164D01*
X187854Y402854D01*
X187164Y403382D01*
X186362Y403715D01*
X185500Y403828D01*
D02*
G37*
G36*
Y413829D02*
X180500D01*
X179639Y413715D01*
X178836Y413382D01*
X178146Y412854D01*
X177618Y412164D01*
X177285Y411362D01*
X177172Y410500D01*
X177285Y409639D01*
X177618Y408836D01*
X178146Y408146D01*
X178836Y407618D01*
X179639Y407285D01*
X180500Y407171D01*
X185500D01*
X186362Y407285D01*
X187164Y407618D01*
X187854Y408146D01*
X188382Y408836D01*
X188715Y409639D01*
X188829Y410500D01*
X188715Y411362D01*
X188382Y412164D01*
X187854Y412854D01*
X187164Y413382D01*
X186362Y413715D01*
X185500Y413829D01*
D02*
G37*
G36*
X624000Y487029D02*
X622824Y486913D01*
X621693Y486570D01*
X620650Y486013D01*
X619737Y485263D01*
X618987Y484349D01*
X618430Y483307D01*
X618087Y482176D01*
X617971Y481000D01*
X618087Y479824D01*
X618430Y478693D01*
X618987Y477650D01*
X619737Y476737D01*
X620330Y476250D01*
Y475750D01*
X619737Y475263D01*
X618987Y474349D01*
X618430Y473307D01*
X618087Y472176D01*
X617971Y471000D01*
X618087Y469824D01*
X618430Y468693D01*
X618987Y467651D01*
X619737Y466737D01*
X620650Y465987D01*
X621693Y465430D01*
X622712Y465121D01*
X622782Y464777D01*
X622757Y464598D01*
X622084Y464319D01*
X621290Y463710D01*
X620681Y462916D01*
X620298Y461992D01*
X620167Y461000D01*
X620298Y460008D01*
X620681Y459084D01*
X621290Y458290D01*
X622084Y457681D01*
X623008Y457298D01*
X624000Y457167D01*
X624992Y457298D01*
X625916Y457681D01*
X626710Y458290D01*
X627319Y459084D01*
X627702Y460008D01*
X627833Y461000D01*
X627810Y461171D01*
X628259Y461392D01*
X635766Y453885D01*
Y353000D01*
X635814Y352636D01*
X635838Y352270D01*
X635879Y352148D01*
X635895Y352021D01*
X636036Y351682D01*
X636153Y351334D01*
X636224Y351227D01*
X636273Y351109D01*
X636497Y350817D01*
X636700Y350512D01*
X636796Y350427D01*
X636874Y350325D01*
X637165Y350102D01*
X637441Y349859D01*
X637556Y349802D01*
X637658Y349724D01*
X637997Y349584D01*
X638326Y349421D01*
X638451Y349396D01*
X638570Y349346D01*
X638934Y349299D01*
X639294Y349226D01*
X647899Y348645D01*
X647983Y348296D01*
X648616Y346770D01*
X649479Y345360D01*
X650552Y344104D01*
X651809Y343030D01*
X653218Y342167D01*
X654745Y341534D01*
X656352Y341148D01*
X658000Y341019D01*
X664000D01*
X665648Y341148D01*
X667255Y341534D01*
X668782Y342167D01*
X670191Y343030D01*
X671448Y344104D01*
X672521Y345360D01*
X673385Y346770D01*
X674017Y348296D01*
X674403Y349904D01*
X674533Y351551D01*
X674403Y353199D01*
X674017Y354806D01*
X673385Y356333D01*
X672521Y357742D01*
X671448Y358999D01*
X670191Y360072D01*
X668782Y360936D01*
X667255Y361568D01*
X665648Y361954D01*
X664000Y362084D01*
X658000D01*
X656352Y361954D01*
X654745Y361568D01*
X653218Y360936D01*
X651809Y360072D01*
X650552Y358999D01*
X649479Y357742D01*
X648616Y356333D01*
X648553Y356183D01*
X643331Y356536D01*
Y455451D01*
X643307Y455637D01*
X643780Y455871D01*
X645118Y454533D01*
Y402651D01*
X645247Y401672D01*
X645624Y400760D01*
X646226Y399977D01*
X647326Y398877D01*
X647961Y398389D01*
X647983Y398296D01*
X648616Y396770D01*
X649479Y395360D01*
X650552Y394104D01*
X651809Y393030D01*
X653218Y392167D01*
X654745Y391534D01*
X656352Y391148D01*
X658000Y391019D01*
X664000D01*
X665648Y391148D01*
X667255Y391534D01*
X668782Y392167D01*
X670191Y393030D01*
X671448Y394104D01*
X672521Y395360D01*
X673385Y396770D01*
X674017Y398296D01*
X674403Y399904D01*
X674533Y401551D01*
X674403Y403199D01*
X674017Y404806D01*
X673385Y406333D01*
X672521Y407742D01*
X671448Y408999D01*
X670191Y410072D01*
X668782Y410936D01*
X667255Y411568D01*
X665648Y411954D01*
X664000Y412084D01*
X658000D01*
X656352Y411954D01*
X654745Y411568D01*
X653218Y410936D01*
X653119Y410875D01*
X652682Y411119D01*
Y416025D01*
X671500D01*
X672283Y416128D01*
X673013Y416431D01*
X673640Y416912D01*
X674121Y417538D01*
X674423Y418268D01*
X674526Y419051D01*
Y434051D01*
X674423Y434834D01*
X674121Y435564D01*
X673640Y436191D01*
X673013Y436672D01*
X672283Y436974D01*
X671500Y437077D01*
X652682D01*
Y456100D01*
X652554Y457079D01*
X652176Y457991D01*
X651575Y458775D01*
X629968Y480381D01*
X630029Y481000D01*
X629913Y482176D01*
X629570Y483307D01*
X629013Y484349D01*
X628263Y485263D01*
X627350Y486013D01*
X626307Y486570D01*
X625176Y486913D01*
X624000Y487029D01*
D02*
G37*
G36*
X185500Y393829D02*
X180500D01*
X179639Y393715D01*
X178836Y393383D01*
X178146Y392854D01*
X177618Y392164D01*
X177285Y391361D01*
X177172Y390500D01*
X177285Y389638D01*
X177618Y388836D01*
X178146Y388146D01*
X178836Y387617D01*
X179639Y387285D01*
X180500Y387172D01*
X185500D01*
X186362Y387285D01*
X187164Y387617D01*
X187854Y388146D01*
X188382Y388836D01*
X188715Y389638D01*
X188829Y390500D01*
X188715Y391361D01*
X188382Y392164D01*
X187854Y392854D01*
X187164Y393383D01*
X186362Y393715D01*
X185500Y393829D01*
D02*
G37*
G36*
X552000Y440544D02*
X550236Y440370D01*
X548539Y439855D01*
X546976Y439019D01*
X545605Y437895D01*
X544481Y436524D01*
X543645Y434961D01*
X543130Y433264D01*
X542956Y431500D01*
X543130Y429736D01*
X543645Y428039D01*
X544481Y426476D01*
X545605Y425105D01*
X546976Y423981D01*
X548218Y423317D01*
Y404683D01*
X546976Y404019D01*
X545605Y402895D01*
X544481Y401524D01*
X543645Y399961D01*
X543130Y398264D01*
X542956Y396500D01*
X543130Y394736D01*
X543645Y393039D01*
X544481Y391476D01*
X545605Y390105D01*
X546976Y388981D01*
X548539Y388145D01*
X550236Y387630D01*
X552000Y387456D01*
X553764Y387630D01*
X555461Y388145D01*
X557024Y388981D01*
X558395Y390105D01*
X559519Y391476D01*
X560355Y393039D01*
X560870Y394736D01*
X561044Y396500D01*
X560870Y398264D01*
X560355Y399961D01*
X559519Y401524D01*
X558395Y402895D01*
X557024Y404019D01*
X555782Y404683D01*
Y423317D01*
X557024Y423981D01*
X558395Y425105D01*
X559519Y426476D01*
X560355Y428039D01*
X560870Y429736D01*
X561044Y431500D01*
X560870Y433264D01*
X560355Y434961D01*
X559519Y436524D01*
X558395Y437895D01*
X557024Y439019D01*
X555461Y439855D01*
X553764Y440370D01*
X552000Y440544D01*
D02*
G37*
G36*
X185500Y423829D02*
X180500D01*
X179639Y423715D01*
X178836Y423383D01*
X178146Y422854D01*
X177618Y422164D01*
X177285Y421361D01*
X177172Y420500D01*
X177285Y419638D01*
X177618Y418836D01*
X178146Y418146D01*
X178836Y417618D01*
X179639Y417285D01*
X180500Y417171D01*
X185500D01*
X186362Y417285D01*
X187164Y417618D01*
X187854Y418146D01*
X188382Y418836D01*
X188715Y419638D01*
X188829Y420500D01*
X188715Y421361D01*
X188382Y422164D01*
X187854Y422854D01*
X187164Y423383D01*
X186362Y423715D01*
X185500Y423829D01*
D02*
G37*
G36*
X335500D02*
X330500D01*
X329639Y423715D01*
X328836Y423383D01*
X328146Y422854D01*
X327618Y422164D01*
X327285Y421361D01*
X327171Y420500D01*
X327285Y419638D01*
X327618Y418836D01*
X328146Y418146D01*
X328836Y417618D01*
X329639Y417285D01*
X330500Y417171D01*
X335500D01*
X336362Y417285D01*
X337164Y417618D01*
X337854Y418146D01*
X338383Y418836D01*
X338715Y419638D01*
X338828Y420500D01*
X338715Y421361D01*
X338383Y422164D01*
X337854Y422854D01*
X337164Y423383D01*
X336362Y423715D01*
X335500Y423829D01*
D02*
G37*
G36*
X405500Y420000D02*
X400953D01*
Y416472D01*
X401030Y416082D01*
X401252Y415752D01*
X401582Y415530D01*
X401972Y415453D01*
X405500D01*
Y420000D01*
D02*
G37*
G36*
X412047D02*
X407500D01*
Y415453D01*
X409812D01*
X411020Y414245D01*
Y396843D01*
X401972D01*
X401660Y396781D01*
X401396Y396604D01*
X401219Y396340D01*
X401157Y396028D01*
Y395895D01*
X395768D01*
Y397071D01*
X395706Y397383D01*
X395530Y397648D01*
X395265Y397825D01*
X394953Y397887D01*
X389047D01*
X388735Y397825D01*
X388471Y397648D01*
X388294Y397383D01*
X388232Y397071D01*
Y392980D01*
X381207D01*
X380997Y393236D01*
Y397764D01*
X380935Y398076D01*
X380758Y398341D01*
X380493Y398517D01*
X380181Y398579D01*
X377819D01*
X377507Y398517D01*
X377242Y398341D01*
X377065Y398076D01*
X377003Y397764D01*
Y397080D01*
X371463D01*
X370858Y396960D01*
X370345Y396618D01*
X369245Y395517D01*
X366268D01*
Y396693D01*
X366206Y397005D01*
X366030Y397270D01*
X365765Y397446D01*
X365453Y397509D01*
X359547D01*
X359235Y397446D01*
X358970Y397270D01*
X358794Y397005D01*
X358732Y396693D01*
Y395517D01*
X356355D01*
X356317Y395554D01*
X355805Y395897D01*
X355200Y396017D01*
X352268D01*
Y397193D01*
X352206Y397505D01*
X352029Y397770D01*
X351765Y397947D01*
X351453Y398009D01*
X345547D01*
X345235Y397947D01*
X344970Y397770D01*
X344794Y397505D01*
X344732Y397193D01*
Y396017D01*
X344000D01*
X343395Y395897D01*
X342882Y395554D01*
X341683Y394355D01*
X341340Y393842D01*
X341220Y393237D01*
Y327655D01*
X341145Y327580D01*
X337937D01*
X337768Y328080D01*
X337854Y328146D01*
X338383Y328836D01*
X338715Y329639D01*
X338828Y330500D01*
X338715Y331362D01*
X338383Y332164D01*
X337854Y332854D01*
X337164Y333383D01*
X336362Y333715D01*
X335500Y333828D01*
X330500D01*
X329639Y333715D01*
X328861Y333393D01*
X328779Y333437D01*
X328472Y333734D01*
X328697Y334277D01*
X328792Y335000D01*
X328697Y335723D01*
X328418Y336396D01*
X327975Y336975D01*
X327580Y337277D01*
Y338063D01*
X328080Y338232D01*
X328146Y338146D01*
X328836Y337617D01*
X329639Y337285D01*
X330500Y337172D01*
X335500D01*
X336362Y337285D01*
X337164Y337617D01*
X337854Y338146D01*
X338383Y338836D01*
X338715Y339638D01*
X338828Y340500D01*
X338715Y341361D01*
X338383Y342164D01*
X337854Y342854D01*
X337164Y343383D01*
X336362Y343715D01*
X335500Y343829D01*
X330500D01*
X329639Y343715D01*
X328836Y343383D01*
X328146Y342854D01*
X328080Y342768D01*
X327580Y342937D01*
Y348063D01*
X328080Y348233D01*
X328146Y348146D01*
X328836Y347618D01*
X329639Y347285D01*
X330500Y347171D01*
X335500D01*
X336362Y347285D01*
X337164Y347618D01*
X337854Y348146D01*
X338383Y348836D01*
X338715Y349639D01*
X338828Y350500D01*
X338715Y351361D01*
X338383Y352164D01*
X337854Y352854D01*
X337164Y353382D01*
X336362Y353715D01*
X335500Y353829D01*
X330500D01*
X329639Y353715D01*
X328836Y353382D01*
X328146Y352854D01*
X328080Y352767D01*
X327580Y352937D01*
Y358063D01*
X328080Y358232D01*
X328146Y358146D01*
X328836Y357617D01*
X329639Y357285D01*
X330500Y357172D01*
X335500D01*
X336362Y357285D01*
X337164Y357617D01*
X337854Y358146D01*
X338383Y358836D01*
X338715Y359639D01*
X338828Y360500D01*
X338715Y361362D01*
X338383Y362164D01*
X337854Y362854D01*
X337164Y363383D01*
X336362Y363715D01*
X335500Y363828D01*
X330500D01*
X329639Y363715D01*
X328836Y363383D01*
X328146Y362854D01*
X328080Y362768D01*
X327580Y362937D01*
Y368063D01*
X328080Y368232D01*
X328146Y368146D01*
X328836Y367618D01*
X329639Y367285D01*
X330500Y367172D01*
X335500D01*
X336362Y367285D01*
X337164Y367618D01*
X337854Y368146D01*
X338383Y368836D01*
X338715Y369638D01*
X338828Y370500D01*
X338715Y371361D01*
X338383Y372164D01*
X337854Y372854D01*
X337164Y373382D01*
X336362Y373715D01*
X335500Y373829D01*
X330500D01*
X329639Y373715D01*
X328836Y373382D01*
X328146Y372854D01*
X328080Y372767D01*
X327580Y372937D01*
Y378063D01*
X328080Y378233D01*
X328146Y378146D01*
X328836Y377618D01*
X329639Y377285D01*
X330500Y377171D01*
X335500D01*
X336362Y377285D01*
X337164Y377618D01*
X337854Y378146D01*
X338383Y378836D01*
X338715Y379639D01*
X338828Y380500D01*
X338715Y381362D01*
X338383Y382164D01*
X337854Y382854D01*
X337164Y383383D01*
X336362Y383715D01*
X335500Y383828D01*
X330500D01*
X329639Y383715D01*
X328836Y383383D01*
X328146Y382854D01*
X328080Y382768D01*
X327580Y382937D01*
Y388063D01*
X328080Y388232D01*
X328146Y388146D01*
X328836Y387617D01*
X329639Y387285D01*
X330500Y387172D01*
X335500D01*
X336362Y387285D01*
X337164Y387617D01*
X337854Y388146D01*
X338383Y388836D01*
X338715Y389638D01*
X338828Y390500D01*
X338715Y391361D01*
X338383Y392164D01*
X337854Y392854D01*
X337164Y393383D01*
X336362Y393715D01*
X335500Y393829D01*
X330500D01*
X329639Y393715D01*
X328836Y393383D01*
X328146Y392854D01*
X328080Y392768D01*
X327580Y392937D01*
Y398063D01*
X328080Y398233D01*
X328146Y398146D01*
X328836Y397618D01*
X329639Y397285D01*
X330500Y397171D01*
X335500D01*
X336362Y397285D01*
X337164Y397618D01*
X337854Y398146D01*
X338383Y398836D01*
X338715Y399639D01*
X338828Y400500D01*
X338715Y401362D01*
X338383Y402164D01*
X337854Y402854D01*
X337164Y403382D01*
X336362Y403715D01*
X335500Y403828D01*
X330500D01*
X329639Y403715D01*
X328836Y403382D01*
X328146Y402854D01*
X328080Y402768D01*
X327580Y402937D01*
Y408063D01*
X328080Y408232D01*
X328146Y408146D01*
X328836Y407618D01*
X329639Y407285D01*
X330500Y407171D01*
X335500D01*
X336362Y407285D01*
X337164Y407618D01*
X337854Y408146D01*
X338383Y408836D01*
X338715Y409639D01*
X338828Y410500D01*
X338715Y411362D01*
X338383Y412164D01*
X337854Y412854D01*
X337164Y413382D01*
X336362Y413715D01*
X335500Y413829D01*
X330500D01*
X329639Y413715D01*
X328836Y413382D01*
X328146Y412854D01*
X327618Y412164D01*
X327583Y412080D01*
X327000D01*
X326395Y411960D01*
X325883Y411618D01*
X324883Y410617D01*
X324540Y410105D01*
X324420Y409500D01*
Y337277D01*
X324026Y336975D01*
X323582Y336396D01*
X323303Y335723D01*
X323208Y335000D01*
X323303Y334277D01*
X323582Y333604D01*
X324026Y333026D01*
X324604Y332582D01*
X325277Y332303D01*
X326000Y332208D01*
X326723Y332303D01*
X327266Y332528D01*
X327563Y332221D01*
X327607Y332139D01*
X327285Y331362D01*
X327171Y330500D01*
X327285Y329639D01*
X327618Y328836D01*
X328146Y328146D01*
X328233Y328080D01*
X328063Y327580D01*
X327100D01*
X326495Y327460D01*
X325982Y327117D01*
X322983Y324117D01*
X322640Y323605D01*
X322520Y323000D01*
Y302000D01*
X322640Y301395D01*
X322983Y300883D01*
X324482Y299382D01*
X324995Y299040D01*
X325600Y298920D01*
X327583D01*
X327618Y298836D01*
X328146Y298146D01*
X328836Y297618D01*
X329639Y297285D01*
X330500Y297171D01*
X335500D01*
X336362Y297285D01*
X337164Y297618D01*
X337854Y298146D01*
X338383Y298836D01*
X338715Y299639D01*
X338828Y300500D01*
X338715Y301361D01*
X338383Y302164D01*
X338090Y302546D01*
X338336Y303046D01*
X344028D01*
Y301870D01*
X344105Y301480D01*
X344326Y301149D01*
X344657Y300928D01*
X345047Y300851D01*
X347000D01*
Y304626D01*
Y308401D01*
X345047D01*
X344657Y308324D01*
X344326Y308103D01*
X344105Y307772D01*
X344028Y307382D01*
Y306206D01*
X328429D01*
X327980Y306655D01*
Y307644D01*
X328480Y307890D01*
X328836Y307617D01*
X329639Y307285D01*
X330500Y307172D01*
X335500D01*
X336362Y307285D01*
X337164Y307617D01*
X337854Y308146D01*
X338383Y308836D01*
X338417Y308920D01*
X340500D01*
X341105Y309040D01*
X341617Y309383D01*
X343155Y310920D01*
X344232D01*
Y309744D01*
X344294Y309432D01*
X344471Y309167D01*
X344735Y308991D01*
X345047Y308928D01*
X350953D01*
X351265Y308991D01*
X351530Y309167D01*
X351706Y309432D01*
X351768Y309744D01*
Y310920D01*
X353700D01*
X354305Y311040D01*
X354818Y311383D01*
X354855Y311420D01*
X356232D01*
Y310244D01*
X356294Y309932D01*
X356470Y309667D01*
X356735Y309490D01*
X357047Y309428D01*
X362953D01*
X363265Y309490D01*
X363529Y309667D01*
X364128Y309686D01*
X366832Y306982D01*
X367232Y306716D01*
Y302370D01*
X367294Y302058D01*
X367471Y301793D01*
X367735Y301617D01*
X368047Y301554D01*
X373953D01*
X374020Y301500D01*
Y289055D01*
X356783Y271817D01*
X356440Y271305D01*
X356320Y270700D01*
Y175000D01*
X356440Y174395D01*
X356783Y173882D01*
X357841Y172824D01*
X358354Y172481D01*
X358732Y172406D01*
Y171185D01*
X358794Y170873D01*
X358970Y170608D01*
X359235Y170431D01*
X359547Y170369D01*
X360920D01*
Y142655D01*
X360345Y142080D01*
X338816D01*
Y143000D01*
X338754Y143312D01*
X338577Y143577D01*
X338312Y143754D01*
X338000Y143816D01*
X328000D01*
X327688Y143754D01*
X327423Y143577D01*
X327246Y143312D01*
X327184Y143000D01*
Y138000D01*
X327246Y137688D01*
X327423Y137423D01*
X327688Y137246D01*
X328000Y137184D01*
X338000D01*
X338312Y137246D01*
X338577Y137423D01*
X338754Y137688D01*
X338816Y138000D01*
Y138920D01*
X361000D01*
X361605Y139040D01*
X362118Y139383D01*
X363617Y140883D01*
X363960Y141395D01*
X364080Y142000D01*
Y170369D01*
X365453D01*
X365765Y170431D01*
X366030Y170608D01*
X366206Y170873D01*
X366268Y171185D01*
Y176697D01*
X366206Y177009D01*
X366030Y177274D01*
X365765Y177451D01*
X365453Y177513D01*
X359547D01*
X359480Y177568D01*
Y178189D01*
X359547Y178243D01*
X365453D01*
X365765Y178305D01*
X366030Y178482D01*
X366206Y178747D01*
X366268Y179059D01*
Y180235D01*
X369100D01*
X369705Y180355D01*
X370217Y180698D01*
X370377Y180857D01*
X372732D01*
Y179681D01*
X372794Y179369D01*
X372971Y179104D01*
X373235Y178928D01*
X373547Y178865D01*
X379453D01*
X379765Y178928D01*
X380030Y179104D01*
X380206Y179369D01*
X380268Y179681D01*
Y180857D01*
X384600D01*
X385205Y180977D01*
X385207Y180979D01*
X389232D01*
Y179803D01*
X389294Y179491D01*
X389471Y179226D01*
X389735Y179050D01*
X390047Y178987D01*
X395953D01*
X396265Y179050D01*
X396530Y179226D01*
X396706Y179491D01*
X396768Y179803D01*
Y185315D01*
X396706Y185627D01*
X396530Y185892D01*
X396265Y186068D01*
X395953Y186131D01*
X394580D01*
Y198345D01*
X394655Y198420D01*
X412252D01*
X412680Y198134D01*
X413453Y197980D01*
X419752D01*
X420420Y198113D01*
X420920Y197842D01*
Y197158D01*
X420420Y196887D01*
X419752Y197020D01*
X413453D01*
X412680Y196866D01*
X412252Y196580D01*
X408577D01*
X408275Y196975D01*
X407696Y197418D01*
X407023Y197697D01*
X406300Y197792D01*
X405577Y197697D01*
X404904Y197418D01*
X404325Y196975D01*
X403882Y196396D01*
X403603Y195723D01*
X403508Y195000D01*
X403603Y194277D01*
X403882Y193604D01*
X404325Y193026D01*
X404904Y192582D01*
X405577Y192303D01*
X406300Y192208D01*
X407023Y192303D01*
X407696Y192582D01*
X408275Y193026D01*
X408577Y193420D01*
X412252D01*
X412680Y193134D01*
X413453Y192980D01*
X419752D01*
X420420Y193113D01*
X420920Y192842D01*
Y192204D01*
X420774Y192079D01*
X420420Y191887D01*
X419752Y192020D01*
X413453D01*
X412680Y191866D01*
X412024Y191428D01*
X411587Y190773D01*
X411433Y190000D01*
X411587Y189227D01*
X412024Y188572D01*
X412680Y188134D01*
X413453Y187980D01*
X419752D01*
X420525Y188134D01*
X420953Y188420D01*
X421500D01*
X422105Y188540D01*
X422617Y188883D01*
X422758Y189023D01*
X423220Y188831D01*
Y167455D01*
X422108Y166343D01*
X414472D01*
X414160Y166281D01*
X413896Y166104D01*
X413719Y165840D01*
X413657Y165528D01*
Y156472D01*
X413719Y156160D01*
X413896Y155896D01*
X414160Y155719D01*
X414472Y155657D01*
X417420D01*
Y150600D01*
X417540Y149995D01*
X417882Y149483D01*
X421120Y146245D01*
Y142367D01*
X417700D01*
X417388Y142305D01*
X417123Y142128D01*
X416946Y141863D01*
X416884Y141551D01*
Y131551D01*
X416946Y131239D01*
X417123Y130974D01*
X417388Y130798D01*
X417700Y130736D01*
X427700D01*
X428012Y130798D01*
X428277Y130974D01*
X428454Y131239D01*
X428516Y131551D01*
Y141551D01*
X428454Y141863D01*
X428277Y142128D01*
X428012Y142305D01*
X427700Y142367D01*
X424280D01*
Y146900D01*
X424160Y147505D01*
X423817Y148018D01*
X420580Y151255D01*
Y155657D01*
X423528D01*
X423840Y155719D01*
X424104Y155896D01*
X424281Y156160D01*
X424343Y156472D01*
Y164108D01*
X425917Y165682D01*
X426260Y166195D01*
X426380Y166800D01*
Y188831D01*
X426842Y189023D01*
X426982Y188883D01*
X427495Y188540D01*
X428100Y188420D01*
X430790D01*
X431499Y187945D01*
X432350Y187776D01*
X435136D01*
Y166547D01*
X432189D01*
X431799Y166470D01*
X431468Y166249D01*
X431247Y165918D01*
X431169Y165528D01*
Y162580D01*
X426800D01*
X426195Y162460D01*
X425682Y162118D01*
X425340Y161605D01*
X425220Y161000D01*
X425340Y160395D01*
X425682Y159882D01*
X426195Y159540D01*
X426800Y159420D01*
X431169D01*
Y156472D01*
X431247Y156082D01*
X431468Y155752D01*
X431799Y155531D01*
X432189Y155453D01*
X435136D01*
Y149883D01*
X435256Y149279D01*
X435599Y148766D01*
X437420Y146945D01*
Y142342D01*
X436693Y142121D01*
X435650Y141564D01*
X434737Y140814D01*
X433987Y139901D01*
X433430Y138858D01*
X433087Y137727D01*
X433070Y137551D01*
X439000D01*
Y136551D01*
D01*
Y137551D01*
X444931D01*
X444913Y137727D01*
X444570Y138858D01*
X444013Y139901D01*
X443263Y140814D01*
X442349Y141564D01*
X441307Y142121D01*
X440580Y142342D01*
Y147600D01*
X440460Y148205D01*
X440118Y148717D01*
X438297Y150538D01*
Y155453D01*
X441244D01*
X441634Y155531D01*
X441965Y155752D01*
X442186Y156082D01*
X442264Y156472D01*
Y160000D01*
X436717D01*
Y162000D01*
X442264D01*
Y165528D01*
X442186Y165918D01*
X441965Y166249D01*
X441634Y166470D01*
X441244Y166547D01*
X438297D01*
Y187776D01*
X438650D01*
X439501Y187945D01*
X440222Y188427D01*
X440605Y189000D01*
X435500D01*
Y190000D01*
X434500D01*
Y192224D01*
X432350D01*
X431499Y192054D01*
X430790Y191580D01*
X428755D01*
X428680Y191655D01*
Y239400D01*
X428560Y240005D01*
X428218Y240517D01*
X416882Y251853D01*
Y252000D01*
X413500D01*
Y254000D01*
X416882D01*
Y255362D01*
X416804Y255752D01*
X416583Y256083D01*
X416252Y256304D01*
X415862Y256382D01*
X415511D01*
X415161Y256739D01*
X415580Y276266D01*
X415577Y276283D01*
X415580Y276300D01*
Y294480D01*
X417000D01*
X417390Y294558D01*
X417721Y294779D01*
X417942Y295110D01*
X418020Y295500D01*
Y297500D01*
X414000D01*
X409980D01*
Y295500D01*
X410058Y295110D01*
X410279Y294779D01*
X410610Y294558D01*
X411000Y294480D01*
X412420D01*
Y276317D01*
X412357Y273411D01*
X412180Y273324D01*
X411854Y273280D01*
X411475Y273775D01*
X410896Y274218D01*
X410223Y274497D01*
X409500Y274592D01*
X408777Y274497D01*
X408104Y274218D01*
X407780Y273970D01*
X407280Y274217D01*
Y309441D01*
X407160Y310046D01*
X406817Y310558D01*
X394715Y322660D01*
X394203Y323003D01*
X393598Y323123D01*
X385000D01*
X384395Y323003D01*
X383882Y322660D01*
X382382Y321161D01*
X382040Y320648D01*
X381920Y320043D01*
Y316072D01*
X380547D01*
X380380Y316038D01*
X379983Y316269D01*
X379880Y316374D01*
Y317100D01*
X379760Y317705D01*
X379417Y318217D01*
X379117Y318517D01*
X378605Y318860D01*
X378000Y318980D01*
X361000D01*
X360395Y318860D01*
X359882Y318517D01*
X358882Y317517D01*
X358540Y317005D01*
X358454Y316572D01*
X357047D01*
X356735Y316510D01*
X356470Y316333D01*
X356294Y316068D01*
X356232Y315756D01*
Y314580D01*
X354200D01*
X353595Y314460D01*
X353082Y314118D01*
X353045Y314080D01*
X351768D01*
Y315256D01*
X351706Y315568D01*
X351530Y315833D01*
X351265Y316009D01*
X350953Y316072D01*
X345047D01*
X344735Y316009D01*
X344471Y315833D01*
X344294Y315568D01*
X344232Y315256D01*
Y314080D01*
X342500D01*
X341895Y313960D01*
X341383Y313617D01*
X339845Y312080D01*
X338417D01*
X338383Y312164D01*
X337854Y312854D01*
X337164Y313383D01*
X337075Y313420D01*
X337174Y313920D01*
X339000D01*
X339605Y314040D01*
X340118Y314383D01*
X349618Y323883D01*
X349960Y324395D01*
X350080Y325000D01*
Y382787D01*
X351453D01*
X351843Y382865D01*
X352174Y383086D01*
X352395Y383417D01*
X352472Y383807D01*
Y384983D01*
X354545D01*
X354583Y384946D01*
X355095Y384603D01*
X355700Y384483D01*
X358528D01*
Y383307D01*
X358605Y382917D01*
X358826Y382586D01*
X359157Y382365D01*
X359547Y382288D01*
X361045D01*
X361383Y381783D01*
X361882Y381282D01*
X362395Y380940D01*
X363000Y380820D01*
X391000D01*
X391605Y380940D01*
X392118Y381282D01*
X393117Y382282D01*
X393373Y382665D01*
X394953D01*
X395343Y382743D01*
X395674Y382964D01*
X395895Y383295D01*
X395972Y383685D01*
Y384861D01*
X397345D01*
X397720Y384486D01*
Y380983D01*
X397840Y380379D01*
X398183Y379866D01*
X400953Y377096D01*
Y374783D01*
X405500D01*
Y379330D01*
X403188D01*
X400880Y381638D01*
Y385141D01*
X400760Y385746D01*
X400418Y386259D01*
X399117Y387559D01*
X398605Y387901D01*
X398000Y388021D01*
X395972D01*
Y389197D01*
X395895Y389587D01*
X395674Y389918D01*
X395343Y390139D01*
X394953Y390216D01*
X394227D01*
X393944Y390717D01*
X393960Y390743D01*
X394953D01*
X395265Y390806D01*
X395530Y390982D01*
X395706Y391247D01*
X395768Y391559D01*
Y392735D01*
X401157D01*
Y386972D01*
X401219Y386660D01*
X401396Y386396D01*
X401660Y386219D01*
X401972Y386157D01*
X404920D01*
Y384977D01*
X404526Y384675D01*
X404082Y384096D01*
X403803Y383423D01*
X403708Y382700D01*
X403803Y381977D01*
X404082Y381304D01*
X404526Y380726D01*
X405104Y380282D01*
X405777Y380003D01*
X406500Y379908D01*
X407223Y380003D01*
X407896Y380282D01*
X408474Y380726D01*
X408918Y381304D01*
X409197Y381977D01*
X409292Y382700D01*
X409197Y383423D01*
X408918Y384096D01*
X408474Y384675D01*
X408080Y384977D01*
Y386157D01*
X411020D01*
Y380538D01*
X409812Y379330D01*
X407500D01*
Y374783D01*
X412047D01*
Y377096D01*
X413718Y378766D01*
X414060Y379279D01*
X414180Y379883D01*
Y414900D01*
X414060Y415505D01*
X413718Y416017D01*
X412047Y417688D01*
Y420000D01*
D02*
G37*
G36*
X604000Y487029D02*
X602824Y486913D01*
X601693Y486570D01*
X600651Y486013D01*
X599737Y485263D01*
X598987Y484349D01*
X598430Y483307D01*
X598087Y482176D01*
X597971Y481000D01*
X598087Y479824D01*
X598430Y478693D01*
X598987Y477650D01*
X599737Y476737D01*
X600330Y476250D01*
Y475750D01*
X599737Y475263D01*
X598987Y474349D01*
X598430Y473307D01*
X598087Y472176D01*
X597971Y471000D01*
X598032Y470381D01*
X594476Y466824D01*
X593874Y466041D01*
X593497Y465129D01*
X593368Y464150D01*
Y393850D01*
X593497Y392871D01*
X593874Y391959D01*
X594476Y391176D01*
X606974Y378677D01*
Y372000D01*
X607077Y371217D01*
X607379Y370487D01*
X607860Y369860D01*
X608487Y369379D01*
X609217Y369077D01*
X610000Y368974D01*
X619000D01*
X619783Y369077D01*
X620513Y369379D01*
X621140Y369860D01*
X621621Y370487D01*
X621923Y371217D01*
X622020Y371952D01*
X622520Y371920D01*
Y207400D01*
X622640Y206795D01*
X622983Y206282D01*
X626723Y202542D01*
X626531Y202080D01*
X615437D01*
X614832Y201960D01*
X614320Y201618D01*
X612845Y200143D01*
X587768D01*
Y201319D01*
X587706Y201631D01*
X587530Y201896D01*
X587265Y202073D01*
X586953Y202135D01*
X581047D01*
X580735Y202073D01*
X580471Y201896D01*
X580294Y201631D01*
X580232Y201319D01*
Y195807D01*
X580294Y195495D01*
X580471Y195230D01*
X580735Y195054D01*
X581047Y194991D01*
X582420D01*
Y185925D01*
X582404Y185918D01*
X581825Y185475D01*
X581382Y184896D01*
X581103Y184223D01*
X581008Y183500D01*
X581103Y182777D01*
X581382Y182104D01*
X581825Y181526D01*
X582404Y181082D01*
X582420Y181075D01*
Y161400D01*
X582540Y160795D01*
X582882Y160283D01*
X591354Y151811D01*
X591053Y151405D01*
X590530Y151684D01*
X589437Y152016D01*
X588300Y152128D01*
X587163Y152016D01*
X586070Y151684D01*
X585471Y151364D01*
X582417Y154418D01*
X581905Y154760D01*
X581300Y154880D01*
X574663D01*
X574589Y155380D01*
X575461Y155645D01*
X577024Y156481D01*
X578395Y157605D01*
X579519Y158976D01*
X580355Y160539D01*
X580870Y162236D01*
X580945Y163000D01*
X572000D01*
X563055D01*
X563130Y162236D01*
X563645Y160539D01*
X564481Y158976D01*
X565605Y157605D01*
X566976Y156481D01*
X568539Y155645D01*
X569482Y155359D01*
X569457Y154844D01*
X569035Y154760D01*
X568523Y154418D01*
X557362Y143257D01*
X553165D01*
X552853Y143194D01*
X552589Y143018D01*
X552412Y142753D01*
X552350Y142441D01*
Y140079D01*
X552412Y139767D01*
X552589Y139502D01*
X552853Y139325D01*
X553165Y139263D01*
X557693D01*
X558005Y139325D01*
X558270Y139502D01*
X558447Y139767D01*
X558491Y139991D01*
X558717Y140142D01*
X565533Y146958D01*
X566013Y146731D01*
X565971Y146300D01*
X566087Y145124D01*
X566430Y143993D01*
X566987Y142950D01*
X567737Y142037D01*
X568650Y141287D01*
X569693Y140730D01*
X570824Y140387D01*
X571000Y140369D01*
Y146300D01*
X572000D01*
Y147300D01*
X577930D01*
X577913Y147476D01*
X577570Y148607D01*
X577013Y149650D01*
X576263Y150563D01*
X575463Y151220D01*
X575600Y151720D01*
X580645D01*
X583236Y149129D01*
X582916Y148530D01*
X582584Y147437D01*
X582472Y146300D01*
X582584Y145163D01*
X582916Y144070D01*
X583454Y143062D01*
X584179Y142179D01*
X585062Y141454D01*
X586070Y140916D01*
X587163Y140584D01*
X588300Y140472D01*
X589437Y140584D01*
X590530Y140916D01*
X591538Y141454D01*
X592421Y142179D01*
X593146Y143062D01*
X593684Y144070D01*
X594016Y145163D01*
X594128Y146300D01*
X594016Y147437D01*
X593684Y148530D01*
X593405Y149053D01*
X593811Y149354D01*
X611920Y131245D01*
Y121194D01*
X611707Y121106D01*
X610964Y120536D01*
X610394Y119793D01*
X610036Y118928D01*
X609913Y118000D01*
X610036Y117072D01*
X610394Y116207D01*
X610964Y115464D01*
X611707Y114894D01*
X612572Y114536D01*
X613500Y114413D01*
X614428Y114536D01*
X615293Y114894D01*
X616036Y115464D01*
X616606Y116207D01*
X616964Y117072D01*
X617087Y118000D01*
X616964Y118928D01*
X616606Y119793D01*
X616036Y120536D01*
X615293Y121106D01*
X615080Y121194D01*
Y131900D01*
X614960Y132505D01*
X614617Y133018D01*
X585580Y162055D01*
Y181377D01*
X585775Y181526D01*
X586218Y182104D01*
X586497Y182777D01*
X586592Y183500D01*
X586497Y184223D01*
X586218Y184896D01*
X585775Y185475D01*
X585580Y185624D01*
Y194991D01*
X586953D01*
X587265Y195054D01*
X587530Y195230D01*
X587706Y195495D01*
X587768Y195807D01*
Y196983D01*
X613500D01*
X614105Y197103D01*
X614617Y197445D01*
X616092Y198920D01*
X640701D01*
X641129Y198634D01*
X641902Y198480D01*
X648201D01*
X648974Y198634D01*
X649629Y199072D01*
X650067Y199727D01*
X650221Y200500D01*
X650067Y201273D01*
X649629Y201928D01*
X648974Y202366D01*
X648201Y202520D01*
X641902D01*
X641129Y202366D01*
X640701Y202080D01*
X631655D01*
X625680Y208055D01*
Y317736D01*
X626180Y317938D01*
X627497Y317392D01*
X629000Y317194D01*
X630503Y317392D01*
X631903Y317972D01*
X633105Y318895D01*
X634028Y320097D01*
X634608Y321497D01*
X634806Y323000D01*
X634608Y324503D01*
X634028Y325903D01*
X633105Y327105D01*
X631903Y328028D01*
X630503Y328608D01*
X629000Y328806D01*
X627497Y328608D01*
X626180Y328062D01*
X625680Y328264D01*
Y339988D01*
X626096Y340266D01*
X626997Y339892D01*
X628500Y339694D01*
X630003Y339892D01*
X631403Y340472D01*
X632605Y341395D01*
X633528Y342597D01*
X634108Y343997D01*
X634306Y345500D01*
X634108Y347003D01*
X633528Y348403D01*
X632605Y349605D01*
X631403Y350528D01*
X630003Y351108D01*
X628500Y351306D01*
X626997Y351108D01*
X626096Y350734D01*
X625680Y351012D01*
Y391300D01*
X625560Y391905D01*
X625217Y392418D01*
X617080Y400555D01*
Y411514D01*
X617229Y411620D01*
X617580Y411736D01*
X617747Y411624D01*
X618059Y411562D01*
X620421D01*
X620733Y411624D01*
X620998Y411801D01*
X621175Y412066D01*
X621237Y412378D01*
Y416906D01*
X621175Y417218D01*
X620998Y417482D01*
X620733Y417659D01*
X620421Y417721D01*
X618059D01*
X617747Y417659D01*
X617580Y417548D01*
X617229Y417663D01*
X617080Y417769D01*
Y420541D01*
X617258Y420659D01*
X617435Y420924D01*
X617497Y421236D01*
Y421920D01*
X623000D01*
X623605Y422040D01*
X624118Y422382D01*
X625117Y423383D01*
X625460Y423895D01*
X625580Y424500D01*
Y437184D01*
X627000D01*
X627312Y437246D01*
X627577Y437423D01*
X627754Y437688D01*
X627816Y438000D01*
Y444000D01*
X627754Y444312D01*
X627577Y444577D01*
X627312Y444754D01*
X627000Y444816D01*
X621000D01*
X620688Y444754D01*
X620423Y444577D01*
X620246Y444312D01*
X620184Y444000D01*
Y438000D01*
X620246Y437688D01*
X620423Y437423D01*
X620688Y437246D01*
X621000Y437184D01*
X622420D01*
Y425155D01*
X622345Y425080D01*
X617497D01*
Y425764D01*
X617435Y426076D01*
X617258Y426340D01*
X616993Y426517D01*
X616681Y426579D01*
X614319D01*
X614007Y426517D01*
X613840Y426406D01*
X613488Y426522D01*
X613340Y426627D01*
Y433240D01*
X613220Y433845D01*
X612877Y434358D01*
X607563Y439672D01*
X607702Y440008D01*
X607833Y441000D01*
X607702Y441992D01*
X607319Y442916D01*
X606710Y443710D01*
X605916Y444319D01*
X605393Y444536D01*
X605275Y445126D01*
X611274Y451125D01*
X611876Y451909D01*
X612254Y452821D01*
X612382Y453800D01*
Y476400D01*
X612254Y477379D01*
X611876Y478291D01*
X611274Y479074D01*
X609968Y480381D01*
X610029Y481000D01*
X609913Y482176D01*
X609570Y483307D01*
X609013Y484349D01*
X608263Y485263D01*
X607349Y486013D01*
X606307Y486570D01*
X605176Y486913D01*
X604000Y487029D01*
D02*
G37*
G36*
X558000Y380526D02*
X546000D01*
X545217Y380423D01*
X544487Y380120D01*
X543860Y379640D01*
X543379Y379013D01*
X543077Y378283D01*
X542974Y377500D01*
Y365500D01*
X543077Y364717D01*
X543379Y363987D01*
X543860Y363360D01*
X544487Y362879D01*
X545217Y362577D01*
X546000Y362474D01*
X558000D01*
X558783Y362577D01*
X559513Y362879D01*
X560140Y363360D01*
X560620Y363987D01*
X560923Y364717D01*
X561026Y365500D01*
Y377500D01*
X560923Y378283D01*
X560620Y379013D01*
X560140Y379640D01*
X559513Y380120D01*
X558783Y380423D01*
X558000Y380526D01*
D02*
G37*
G36*
X664000Y387084D02*
X658000D01*
X656352Y386954D01*
X654745Y386568D01*
X653218Y385936D01*
X651809Y385072D01*
X650552Y383999D01*
X649479Y382742D01*
X648616Y381333D01*
X647983Y379806D01*
X647597Y378199D01*
X647468Y376551D01*
X647597Y374904D01*
X647983Y373296D01*
X648616Y371770D01*
X649479Y370360D01*
X650552Y369104D01*
X651809Y368030D01*
X653218Y367167D01*
X654745Y366534D01*
X656352Y366148D01*
X658000Y366019D01*
X664000D01*
X665648Y366148D01*
X667255Y366534D01*
X668782Y367167D01*
X670191Y368030D01*
X671448Y369104D01*
X672521Y370360D01*
X673385Y371770D01*
X674017Y373296D01*
X674403Y374904D01*
X674533Y376551D01*
X674403Y378199D01*
X674017Y379806D01*
X673385Y381333D01*
X672521Y382742D01*
X671448Y383999D01*
X670191Y385072D01*
X668782Y385936D01*
X667255Y386568D01*
X665648Y386954D01*
X664000Y387084D01*
D02*
G37*
G36*
X185500Y363828D02*
X180500D01*
X179639Y363715D01*
X178836Y363383D01*
X178146Y362854D01*
X177618Y362164D01*
X177285Y361362D01*
X177172Y360500D01*
X177285Y359639D01*
X177618Y358836D01*
X178146Y358146D01*
X178836Y357617D01*
X179639Y357285D01*
X180500Y357172D01*
X185500D01*
X186362Y357285D01*
X187164Y357617D01*
X187854Y358146D01*
X188382Y358836D01*
X188715Y359639D01*
X188829Y360500D01*
X188715Y361362D01*
X188382Y362164D01*
X187854Y362854D01*
X187164Y363383D01*
X186362Y363715D01*
X185500Y363828D01*
D02*
G37*
G36*
X504000Y353903D02*
X503956Y353897D01*
X502983Y353494D01*
X502147Y352853D01*
X501506Y352017D01*
X501103Y351044D01*
X501097Y351000D01*
X504000D01*
Y353903D01*
D02*
G37*
G36*
X506000D02*
Y351000D01*
X508903D01*
X508897Y351044D01*
X508494Y352017D01*
X507853Y352853D01*
X507017Y353494D01*
X506044Y353897D01*
X506000Y353903D01*
D02*
G37*
G36*
X424000Y403333D02*
X422667Y403202D01*
X421385Y402813D01*
X420204Y402181D01*
X419168Y401332D01*
X418319Y400296D01*
X417687Y399115D01*
X417298Y397833D01*
X417167Y396500D01*
X417298Y395167D01*
X417687Y393885D01*
X418319Y392704D01*
X419168Y391668D01*
X420204Y390819D01*
X421385Y390187D01*
X422667Y389798D01*
X424000Y389667D01*
X425333Y389798D01*
X426615Y390187D01*
X427568Y390697D01*
X430020Y388245D01*
Y375672D01*
X429520Y375493D01*
X428832Y376332D01*
X427796Y377181D01*
X426615Y377813D01*
X425333Y378202D01*
X424000Y378333D01*
X422667Y378202D01*
X421385Y377813D01*
X420204Y377181D01*
X419168Y376332D01*
X418319Y375296D01*
X417687Y374115D01*
X417298Y372833D01*
X417167Y371500D01*
X417298Y370167D01*
X417687Y368885D01*
X418319Y367704D01*
X419168Y366668D01*
X420204Y365819D01*
X421385Y365187D01*
X422420Y364873D01*
Y303500D01*
X422540Y302895D01*
X422883Y302382D01*
X425437Y299828D01*
X425298Y299492D01*
X425167Y298500D01*
X425298Y297508D01*
X425681Y296584D01*
X426290Y295790D01*
X427084Y295181D01*
X428008Y294798D01*
X429000Y294667D01*
X429992Y294798D01*
X430916Y295181D01*
X431710Y295790D01*
X432319Y296584D01*
X432702Y297508D01*
X432833Y298500D01*
X432702Y299492D01*
X432319Y300416D01*
X431710Y301210D01*
X430916Y301819D01*
X429992Y302202D01*
X429000Y302333D01*
X428008Y302202D01*
X427672Y302063D01*
X425580Y304155D01*
Y364873D01*
X426615Y365187D01*
X427796Y365819D01*
X428832Y366668D01*
X429520Y367507D01*
X430020Y367328D01*
Y325900D01*
X430140Y325295D01*
X430482Y324782D01*
X455437Y299828D01*
X455298Y299492D01*
X455167Y298500D01*
X455298Y297508D01*
X455681Y296584D01*
X456290Y295790D01*
X457084Y295181D01*
X458008Y294798D01*
X459000Y294667D01*
X459992Y294798D01*
X460916Y295181D01*
X461710Y295790D01*
X462319Y296584D01*
X462702Y297508D01*
X462720Y297640D01*
X463220Y297608D01*
Y286800D01*
X463340Y286195D01*
X463683Y285683D01*
X473861Y275504D01*
Y263768D01*
X472685D01*
X472373Y263706D01*
X472108Y263529D01*
X471932Y263265D01*
X471869Y262953D01*
Y257047D01*
X471932Y256735D01*
X472108Y256470D01*
X472373Y256294D01*
X472685Y256232D01*
X478197D01*
X478509Y256294D01*
X478774Y256470D01*
X478951Y256735D01*
X479013Y257047D01*
Y262953D01*
X478951Y263265D01*
X478774Y263529D01*
X478509Y263706D01*
X478197Y263768D01*
X477021D01*
Y276159D01*
X476901Y276764D01*
X476558Y277276D01*
X466380Y287455D01*
Y307000D01*
X466260Y307605D01*
X465917Y308118D01*
X456580Y317455D01*
Y391323D01*
X456975Y391625D01*
X457418Y392204D01*
X457697Y392877D01*
X457792Y393600D01*
X457697Y394323D01*
X457418Y394996D01*
X456975Y395574D01*
X456396Y396018D01*
X455723Y396297D01*
X455000Y396392D01*
X454277Y396297D01*
X453604Y396018D01*
X453025Y395574D01*
X452582Y394996D01*
X452303Y394323D01*
X452208Y393600D01*
X452303Y392877D01*
X452582Y392204D01*
X453025Y391625D01*
X453420Y391323D01*
Y316800D01*
X453540Y316195D01*
X453883Y315683D01*
X463220Y306345D01*
Y299392D01*
X462720Y299359D01*
X462702Y299492D01*
X462319Y300416D01*
X461710Y301210D01*
X460916Y301819D01*
X459992Y302202D01*
X459000Y302333D01*
X458008Y302202D01*
X457672Y302063D01*
X433180Y326555D01*
Y388900D01*
X433060Y389505D01*
X432718Y390018D01*
X429803Y392932D01*
X430313Y393885D01*
X430702Y395167D01*
X430833Y396500D01*
X430702Y397833D01*
X430313Y399115D01*
X429681Y400296D01*
X428832Y401332D01*
X427796Y402181D01*
X426615Y402813D01*
X425333Y403202D01*
X424000Y403333D01*
D02*
G37*
G36*
X185500Y383828D02*
X180500D01*
X179639Y383715D01*
X178836Y383383D01*
X178146Y382854D01*
X177618Y382164D01*
X177285Y381362D01*
X177172Y380500D01*
X177285Y379639D01*
X177618Y378836D01*
X178146Y378146D01*
X178836Y377618D01*
X179639Y377285D01*
X180500Y377171D01*
X185500D01*
X186362Y377285D01*
X187164Y377618D01*
X187854Y378146D01*
X188382Y378836D01*
X188715Y379639D01*
X188829Y380500D01*
X188715Y381362D01*
X188382Y382164D01*
X187854Y382854D01*
X187164Y383383D01*
X186362Y383715D01*
X185500Y383828D01*
D02*
G37*
G36*
X594500Y384036D02*
X593030Y383892D01*
X591616Y383463D01*
X590313Y382766D01*
X589171Y381829D01*
X588234Y380687D01*
X587537Y379384D01*
X587109Y377970D01*
X586964Y376500D01*
X587109Y375030D01*
X587537Y373616D01*
X588234Y372313D01*
X589171Y371171D01*
X590313Y370234D01*
X591616Y369537D01*
X593030Y369109D01*
X594500Y368964D01*
X595970Y369109D01*
X597384Y369537D01*
X598687Y370234D01*
X599829Y371171D01*
X600766Y372313D01*
X601463Y373616D01*
X601892Y375030D01*
X602036Y376500D01*
X601892Y377970D01*
X601463Y379384D01*
X600766Y380687D01*
X599829Y381829D01*
X598687Y382766D01*
X597384Y383463D01*
X595970Y383892D01*
X594500Y384036D01*
D02*
G37*
G36*
X185500Y373829D02*
X180500D01*
X179639Y373715D01*
X178836Y373382D01*
X178146Y372854D01*
X177618Y372164D01*
X177285Y371361D01*
X177172Y370500D01*
X177285Y369638D01*
X177618Y368836D01*
X178146Y368146D01*
X178836Y367618D01*
X179639Y367285D01*
X180500Y367172D01*
X185500D01*
X186362Y367285D01*
X187164Y367618D01*
X187854Y368146D01*
X188382Y368836D01*
X188715Y369638D01*
X188829Y370500D01*
X188715Y371361D01*
X188382Y372164D01*
X187854Y372854D01*
X187164Y373382D01*
X186362Y373715D01*
X185500Y373829D01*
D02*
G37*
G36*
X405500Y372783D02*
X400953D01*
Y369256D01*
X401030Y368866D01*
X401252Y368535D01*
X401582Y368314D01*
X401972Y368236D01*
X405500D01*
Y372783D01*
D02*
G37*
G36*
X332000Y459500D02*
X327126D01*
X327443Y458735D01*
X328004Y458004D01*
X328735Y457443D01*
X329586Y457090D01*
X330500Y456970D01*
X332000D01*
Y459500D01*
D02*
G37*
G36*
X185500Y463829D02*
X180500D01*
X179639Y463715D01*
X178836Y463382D01*
X178146Y462854D01*
X177618Y462164D01*
X177285Y461362D01*
X177172Y460500D01*
X177285Y459639D01*
X177618Y458836D01*
X178146Y458146D01*
X178836Y457618D01*
X179639Y457285D01*
X180500Y457171D01*
X185500D01*
X186362Y457285D01*
X187164Y457618D01*
X187854Y458146D01*
X188382Y458836D01*
X188715Y459639D01*
X188829Y460500D01*
X188715Y461362D01*
X188382Y462164D01*
X187854Y462854D01*
X187164Y463382D01*
X186362Y463715D01*
X185500Y463829D01*
D02*
G37*
G36*
X675000Y495845D02*
X672279Y495666D01*
X669605Y495134D01*
X667023Y494258D01*
X664578Y493052D01*
X662311Y491537D01*
X660261Y489739D01*
X658463Y487689D01*
X656948Y485422D01*
X655742Y482977D01*
X654866Y480395D01*
X654334Y477721D01*
X654155Y475000D01*
X654334Y472279D01*
X654866Y469605D01*
X655742Y467023D01*
X656948Y464578D01*
X658463Y462311D01*
X660261Y460261D01*
X662311Y458463D01*
X664578Y456948D01*
X667023Y455742D01*
X669605Y454866D01*
X672279Y454334D01*
X675000Y454155D01*
X677721Y454334D01*
X680395Y454866D01*
X682977Y455742D01*
X685422Y456948D01*
X687689Y458463D01*
X689739Y460261D01*
X691537Y462311D01*
X693052Y464578D01*
X694258Y467023D01*
X695134Y469605D01*
X695666Y472279D01*
X695845Y475000D01*
X695666Y477721D01*
X695134Y480395D01*
X694258Y482977D01*
X693052Y485422D01*
X691537Y487689D01*
X689739Y489739D01*
X687689Y491537D01*
X685422Y493052D01*
X682977Y494258D01*
X680395Y495134D01*
X677721Y495666D01*
X675000Y495845D01*
D02*
G37*
G36*
X552000Y465544D02*
X550236Y465370D01*
X548539Y464855D01*
X546976Y464019D01*
X545605Y462895D01*
X544481Y461524D01*
X543645Y459961D01*
X543130Y458264D01*
X542956Y456500D01*
X543130Y454736D01*
X543645Y453039D01*
X544481Y451476D01*
X545605Y450105D01*
X546976Y448981D01*
X548539Y448145D01*
X550236Y447630D01*
X552000Y447457D01*
X553764Y447630D01*
X555461Y448145D01*
X557024Y448981D01*
X558395Y450105D01*
X559519Y451476D01*
X560355Y453039D01*
X560870Y454736D01*
X561044Y456500D01*
X560870Y458264D01*
X560355Y459961D01*
X559519Y461524D01*
X558395Y462895D01*
X557024Y464019D01*
X555461Y464855D01*
X553764Y465370D01*
X552000Y465544D01*
D02*
G37*
G36*
X150000Y495845D02*
X147279Y495666D01*
X144605Y495134D01*
X142023Y494258D01*
X139578Y493052D01*
X137311Y491537D01*
X135261Y489739D01*
X133463Y487689D01*
X131948Y485422D01*
X130742Y482977D01*
X129866Y480395D01*
X129334Y477721D01*
X129155Y475000D01*
X129334Y472279D01*
X129866Y469605D01*
X130742Y467023D01*
X131948Y464578D01*
X133463Y462311D01*
X135261Y460261D01*
X137311Y458463D01*
X139578Y456948D01*
X142023Y455742D01*
X144605Y454866D01*
X147279Y454334D01*
X150000Y454155D01*
X152721Y454334D01*
X155395Y454866D01*
X157977Y455742D01*
X160422Y456948D01*
X162689Y458463D01*
X164739Y460261D01*
X166537Y462311D01*
X168052Y464578D01*
X169258Y467023D01*
X170134Y469605D01*
X170666Y472279D01*
X170845Y475000D01*
X170666Y477721D01*
X170134Y480395D01*
X169258Y482977D01*
X168052Y485422D01*
X166537Y487689D01*
X164739Y489739D01*
X162689Y491537D01*
X160422Y493052D01*
X157977Y494258D01*
X155395Y495134D01*
X152721Y495666D01*
X150000Y495845D01*
D02*
G37*
G36*
X381693Y484268D02*
X376181D01*
X375869Y484206D01*
X375604Y484029D01*
X375428Y483765D01*
X375365Y483453D01*
Y477547D01*
X375428Y477235D01*
X375604Y476970D01*
X375869Y476794D01*
X376181Y476732D01*
X381693D01*
X382005Y476794D01*
X382270Y476970D01*
X382447Y477235D01*
X382509Y477547D01*
Y478920D01*
X384100D01*
X384705Y479040D01*
X384961Y479211D01*
X386612D01*
X386730Y479034D01*
X386995Y478857D01*
X387307Y478795D01*
X391835D01*
X392147Y478857D01*
X392411Y479034D01*
X392588Y479298D01*
X392650Y479610D01*
Y481973D01*
X392588Y482285D01*
X392411Y482549D01*
X392147Y482726D01*
X391835Y482788D01*
X387307D01*
X386995Y482726D01*
X386730Y482549D01*
X386612Y482372D01*
X384391D01*
X383787Y482252D01*
X383530Y482080D01*
X382509D01*
Y483453D01*
X382447Y483765D01*
X382270Y484029D01*
X382005Y484206D01*
X381693Y484268D01*
D02*
G37*
G36*
X373819D02*
X368307D01*
X367995Y484206D01*
X367730Y484029D01*
X367553Y483765D01*
X367491Y483453D01*
Y482080D01*
X330577D01*
X330275Y482475D01*
X329696Y482918D01*
X329023Y483197D01*
X328300Y483292D01*
X327577Y483197D01*
X326904Y482918D01*
X326325Y482475D01*
X325882Y481896D01*
X325603Y481223D01*
X325508Y480500D01*
X325603Y479777D01*
X325882Y479104D01*
X326325Y478525D01*
X326904Y478082D01*
X327577Y477803D01*
X328300Y477708D01*
X329023Y477803D01*
X329696Y478082D01*
X330275Y478525D01*
X330577Y478920D01*
X367491D01*
Y477547D01*
X367553Y477235D01*
X367730Y476970D01*
X367995Y476794D01*
X368307Y476732D01*
X373819D01*
X374131Y476794D01*
X374396Y476970D01*
X374572Y477235D01*
X374635Y477547D01*
Y483453D01*
X374572Y483765D01*
X374396Y484029D01*
X374131Y484206D01*
X373819Y484268D01*
D02*
G37*
G36*
X391835Y475512D02*
X390571D01*
Y474311D01*
X392854D01*
Y474492D01*
X392777Y474882D01*
X392555Y475213D01*
X392225Y475434D01*
X391835Y475512D01*
D02*
G37*
G36*
X332000Y464030D02*
X330500D01*
X329586Y463910D01*
X328735Y463557D01*
X328004Y462996D01*
X327443Y462265D01*
X327126Y461500D01*
X332000D01*
Y464030D01*
D02*
G37*
G36*
X388571Y475512D02*
X387307D01*
X386917Y475434D01*
X386586Y475213D01*
X386365Y474882D01*
X386287Y474492D01*
Y474311D01*
X388571D01*
Y475512D01*
D02*
G37*
G36*
X362000Y432838D02*
X360047D01*
X359657Y432761D01*
X359326Y432540D01*
X359105Y432209D01*
X359028Y431819D01*
Y430643D01*
X352472D01*
Y431697D01*
X352395Y432087D01*
X352174Y432418D01*
X351843Y432639D01*
X351453Y432717D01*
X349500D01*
Y428941D01*
Y425166D01*
X351453D01*
X351843Y425243D01*
X352174Y425464D01*
X352395Y425795D01*
X352472Y426185D01*
Y427483D01*
X359028D01*
Y426307D01*
X359105Y425917D01*
X359326Y425586D01*
X359657Y425365D01*
X360047Y425287D01*
X362000D01*
Y429063D01*
Y432838D01*
D02*
G37*
G36*
X392854Y472311D02*
X389571D01*
X386287D01*
Y472130D01*
X386365Y471740D01*
X386586Y471409D01*
X386917Y471188D01*
X387307Y471110D01*
X388020D01*
Y442555D01*
X386282Y440817D01*
X385940Y440305D01*
X385820Y439700D01*
Y436904D01*
X385576Y436711D01*
X385079Y436933D01*
Y438162D01*
X385017Y438474D01*
X384840Y438738D01*
X384576Y438915D01*
X384264Y438977D01*
X379736D01*
X379424Y438915D01*
X379159Y438738D01*
X378983Y438474D01*
X378921Y438162D01*
Y435799D01*
X378983Y435487D01*
X379123Y435276D01*
X379077Y434996D01*
X378983Y434739D01*
X378722Y434687D01*
X378209Y434344D01*
X376982Y433117D01*
X376721Y432726D01*
X376221Y432868D01*
Y434421D01*
X376159Y434733D01*
X375982Y434998D01*
X375718Y435175D01*
X375406Y435237D01*
X370878D01*
X370566Y435175D01*
X370345Y435027D01*
X367318Y438055D01*
X366805Y438397D01*
X366768Y438404D01*
Y439693D01*
X366706Y440005D01*
X366529Y440270D01*
X366265Y440447D01*
X365953Y440509D01*
X360047D01*
X359735Y440447D01*
X359471Y440270D01*
X359294Y440005D01*
X359232Y439693D01*
Y438517D01*
X355722D01*
X355117Y438397D01*
X355115Y438395D01*
X352268D01*
Y439571D01*
X352206Y439883D01*
X352029Y440148D01*
X351765Y440324D01*
X351453Y440387D01*
X350080D01*
Y441133D01*
X350518Y441704D01*
X350797Y442377D01*
X350892Y443100D01*
X350797Y443823D01*
X350518Y444496D01*
X350075Y445075D01*
X349496Y445518D01*
X348823Y445797D01*
X348100Y445892D01*
X347377Y445797D01*
X346704Y445518D01*
X346126Y445075D01*
X345682Y444496D01*
X345403Y443823D01*
X345308Y443100D01*
X345403Y442377D01*
X345682Y441704D01*
X346126Y441125D01*
X346437Y440887D01*
X346267Y440387D01*
X345547D01*
X345235Y440324D01*
X344970Y440148D01*
X344794Y439883D01*
X344732Y439571D01*
Y434059D01*
X344794Y433747D01*
X344970Y433482D01*
X345235Y433306D01*
X345547Y433243D01*
X351453D01*
X351765Y433306D01*
X352029Y433482D01*
X352206Y433747D01*
X352268Y434059D01*
Y435235D01*
X355600D01*
X356205Y435355D01*
X356207Y435357D01*
X359232D01*
Y434181D01*
X359294Y433869D01*
X359471Y433604D01*
X359735Y433427D01*
X360047Y433365D01*
X365953D01*
X366265Y433427D01*
X366529Y433604D01*
X366554Y433641D01*
X367153Y433749D01*
X368779Y432123D01*
X369292Y431780D01*
X369897Y431660D01*
X370183D01*
X370301Y431482D01*
X370566Y431306D01*
X370878Y431243D01*
X375406D01*
X375718Y431306D01*
X375982Y431482D01*
X376020Y431538D01*
X376520Y431386D01*
Y430466D01*
X376020Y430271D01*
X375642Y430523D01*
X375037Y430643D01*
X366972D01*
Y431819D01*
X366895Y432209D01*
X366674Y432540D01*
X366343Y432761D01*
X365953Y432838D01*
X364000D01*
Y429063D01*
Y425287D01*
X365953D01*
X366343Y425365D01*
X366674Y425586D01*
X366895Y425917D01*
X366972Y426307D01*
Y427483D01*
X374382D01*
X376982Y424883D01*
X378533Y423333D01*
X379045Y422990D01*
X379650Y422870D01*
X392000D01*
X392605Y422990D01*
X393117Y423333D01*
X393340Y423666D01*
X394953D01*
X395343Y423743D01*
X395674Y423964D01*
X395895Y424295D01*
X395972Y424685D01*
Y425861D01*
X399404D01*
X400953Y424312D01*
Y422000D01*
X405500D01*
Y426547D01*
X403188D01*
X401177Y428558D01*
X400664Y428901D01*
X400059Y429021D01*
X395972D01*
Y430197D01*
X395895Y430587D01*
X395674Y430918D01*
X395343Y431139D01*
X394953Y431216D01*
X393000D01*
Y427441D01*
X391000D01*
Y431216D01*
X389047D01*
X388657Y431139D01*
X388428Y430986D01*
X388109Y431374D01*
X388618Y431883D01*
X388735Y431806D01*
X389047Y431743D01*
X394953D01*
X395265Y431806D01*
X395530Y431982D01*
X395706Y432247D01*
X395768Y432559D01*
Y433735D01*
X397500D01*
X398105Y433855D01*
X398618Y434198D01*
X400695Y436275D01*
X401157Y436084D01*
Y434189D01*
X401219Y433877D01*
X401396Y433612D01*
X401660Y433435D01*
X401972Y433373D01*
X409608D01*
X410820Y432162D01*
Y430577D01*
X410426Y430274D01*
X409982Y429696D01*
X409703Y429023D01*
X409608Y428300D01*
X409703Y427577D01*
X409922Y427047D01*
X409685Y426547D01*
X407500D01*
Y422000D01*
X412047D01*
Y425050D01*
X412400Y425508D01*
X413123Y425603D01*
X413796Y425882D01*
X414374Y426326D01*
X414818Y426904D01*
X415097Y427577D01*
X415192Y428300D01*
X415097Y429023D01*
X414818Y429696D01*
X414374Y430274D01*
X413980Y430577D01*
Y432817D01*
X413860Y433421D01*
X413518Y433934D01*
X411843Y435608D01*
Y443244D01*
X411781Y443556D01*
X411604Y443821D01*
X411340Y443998D01*
X411028Y444060D01*
X401972D01*
X401660Y443998D01*
X401396Y443821D01*
X401219Y443556D01*
X401157Y443244D01*
Y440297D01*
X400902D01*
X400297Y440177D01*
X399784Y439834D01*
X396845Y436895D01*
X395768D01*
Y438071D01*
X395706Y438383D01*
X395530Y438648D01*
X395265Y438825D01*
X394953Y438887D01*
X389529D01*
X389321Y439387D01*
X390718Y440782D01*
X391060Y441295D01*
X391180Y441900D01*
Y471110D01*
X391835D01*
X392225Y471188D01*
X392555Y471409D01*
X392777Y471740D01*
X392854Y472130D01*
Y472311D01*
D02*
G37*
G36*
X335500Y433828D02*
X330500D01*
X329639Y433715D01*
X328836Y433383D01*
X328146Y432854D01*
X327618Y432164D01*
X327285Y431361D01*
X327171Y430500D01*
X327285Y429638D01*
X327618Y428836D01*
X328146Y428146D01*
X328836Y427618D01*
X329639Y427285D01*
X330500Y427172D01*
X335500D01*
X336362Y427285D01*
X337164Y427618D01*
X337854Y428146D01*
X338383Y428836D01*
X338715Y429638D01*
X338828Y430500D01*
X338715Y431361D01*
X338383Y432164D01*
X337854Y432854D01*
X337164Y433383D01*
X336362Y433715D01*
X335500Y433828D01*
D02*
G37*
G36*
Y464030D02*
X334000D01*
Y460500D01*
Y456970D01*
X335500D01*
X336414Y457090D01*
X337265Y457443D01*
X337996Y458004D01*
X338339Y458026D01*
X339638Y456727D01*
Y430000D01*
X339676Y429808D01*
X339686Y429612D01*
X339736Y429508D01*
X339758Y429395D01*
X339867Y429232D01*
X339951Y429055D01*
X340037Y428978D01*
X340101Y428883D01*
X340264Y428773D01*
X340409Y428642D01*
X340518Y428604D01*
X340613Y428540D01*
X340806Y428502D01*
X340991Y428436D01*
X344528Y427922D01*
Y426185D01*
X344605Y425795D01*
X344826Y425464D01*
X345157Y425243D01*
X345547Y425166D01*
X347500D01*
Y428941D01*
Y432717D01*
X345547D01*
X345157Y432639D01*
X344826Y432418D01*
X344605Y432087D01*
X344528Y431697D01*
Y431498D01*
X344149Y431171D01*
X342798Y431367D01*
Y457382D01*
X342678Y457987D01*
X342336Y458499D01*
X339217Y461618D01*
X338705Y461960D01*
X338682Y461965D01*
X338557Y462265D01*
X337996Y462996D01*
X337265Y463557D01*
X336414Y463910D01*
X335500Y464030D01*
D02*
G37*
G36*
X185500Y433828D02*
X180500D01*
X179639Y433715D01*
X178836Y433383D01*
X178146Y432854D01*
X177618Y432164D01*
X177285Y431361D01*
X177172Y430500D01*
X177285Y429638D01*
X177618Y428836D01*
X178146Y428146D01*
X178836Y427618D01*
X179639Y427285D01*
X180500Y427172D01*
X185500D01*
X186362Y427285D01*
X187164Y427618D01*
X187854Y428146D01*
X188382Y428836D01*
X188715Y429638D01*
X188829Y430500D01*
X188715Y431361D01*
X188382Y432164D01*
X187854Y432854D01*
X187164Y433383D01*
X186362Y433715D01*
X185500Y433828D01*
D02*
G37*
G36*
Y453828D02*
X180500D01*
X179639Y453715D01*
X178836Y453382D01*
X178146Y452854D01*
X177618Y452164D01*
X177285Y451362D01*
X177172Y450500D01*
X177285Y449639D01*
X177618Y448836D01*
X178146Y448146D01*
X178836Y447617D01*
X179639Y447285D01*
X180500Y447171D01*
X185500D01*
X186362Y447285D01*
X187164Y447617D01*
X187854Y448146D01*
X188382Y448836D01*
X188715Y449639D01*
X188829Y450500D01*
X188715Y451362D01*
X188382Y452164D01*
X187854Y452854D01*
X187164Y453382D01*
X186362Y453715D01*
X185500Y453828D01*
D02*
G37*
G36*
X335500D02*
X330500D01*
X329639Y453715D01*
X328836Y453382D01*
X328146Y452854D01*
X327618Y452164D01*
X327285Y451362D01*
X327171Y450500D01*
X327285Y449639D01*
X327618Y448836D01*
X328146Y448146D01*
X328836Y447617D01*
X329639Y447285D01*
X330500Y447171D01*
X335500D01*
X336362Y447285D01*
X337164Y447617D01*
X337854Y448146D01*
X338383Y448836D01*
X338715Y449639D01*
X338828Y450500D01*
X338715Y451362D01*
X338383Y452164D01*
X337854Y452854D01*
X337164Y453382D01*
X336362Y453715D01*
X335500Y453828D01*
D02*
G37*
G36*
X400693Y479048D02*
X396165D01*
X395853Y478986D01*
X395589Y478809D01*
X395412Y478544D01*
X395350Y478232D01*
Y475870D01*
X395412Y475558D01*
X395589Y475293D01*
X395853Y475116D01*
X396165Y475054D01*
X400693D01*
X401005Y475116D01*
X401270Y475293D01*
X401388Y475471D01*
X418094D01*
X452072Y441493D01*
X452008Y441000D01*
X452103Y440277D01*
X452382Y439604D01*
X452825Y439025D01*
X453404Y438582D01*
X454077Y438303D01*
X454800Y438208D01*
X455523Y438303D01*
X456196Y438582D01*
X456775Y439025D01*
X457218Y439604D01*
X457497Y440277D01*
X457592Y441000D01*
X457497Y441723D01*
X457218Y442396D01*
X456775Y442975D01*
X456196Y443418D01*
X455523Y443697D01*
X454800Y443792D01*
X454307Y443727D01*
X419866Y478169D01*
X419354Y478511D01*
X418749Y478632D01*
X401388D01*
X401270Y478809D01*
X401005Y478986D01*
X400693Y479048D01*
D02*
G37*
G36*
X185500Y443828D02*
X180500D01*
X179639Y443715D01*
X178836Y443383D01*
X178146Y442854D01*
X177618Y442164D01*
X177285Y441362D01*
X177172Y440500D01*
X177285Y439639D01*
X177618Y438836D01*
X178146Y438146D01*
X178836Y437617D01*
X179639Y437285D01*
X180500Y437172D01*
X185500D01*
X186362Y437285D01*
X187164Y437617D01*
X187854Y438146D01*
X188382Y438836D01*
X188715Y439639D01*
X188829Y440500D01*
X188715Y441362D01*
X188382Y442164D01*
X187854Y442854D01*
X187164Y443383D01*
X186362Y443715D01*
X185500Y443828D01*
D02*
G37*
G36*
X335500D02*
X330500D01*
X329639Y443715D01*
X328836Y443383D01*
X328146Y442854D01*
X327618Y442164D01*
X327285Y441362D01*
X327171Y440500D01*
X327285Y439639D01*
X327618Y438836D01*
X328146Y438146D01*
X328836Y437617D01*
X329639Y437285D01*
X330500Y437172D01*
X335500D01*
X336362Y437285D01*
X337164Y437617D01*
X337854Y438146D01*
X338383Y438836D01*
X338715Y439639D01*
X338828Y440500D01*
X338715Y441362D01*
X338383Y442164D01*
X337854Y442854D01*
X337164Y443383D01*
X336362Y443715D01*
X335500Y443828D01*
D02*
G37*
G36*
X185500Y353829D02*
X180500D01*
X179639Y353715D01*
X178836Y353382D01*
X178146Y352854D01*
X177618Y352164D01*
X177285Y351361D01*
X177172Y350500D01*
X177285Y349639D01*
X177618Y348836D01*
X178146Y348146D01*
X178836Y347618D01*
X179639Y347285D01*
X180500Y347171D01*
X185500D01*
X186362Y347285D01*
X187164Y347618D01*
X187854Y348146D01*
X188382Y348836D01*
X188715Y349639D01*
X188829Y350500D01*
X188715Y351361D01*
X188382Y352164D01*
X187854Y352854D01*
X187164Y353382D01*
X186362Y353715D01*
X185500Y353829D01*
D02*
G37*
G36*
X424000Y463333D02*
X422667Y463202D01*
X421385Y462813D01*
X420204Y462181D01*
X419168Y461332D01*
X418319Y460296D01*
X417687Y459115D01*
X417298Y457833D01*
X417167Y456500D01*
X417298Y455167D01*
X417687Y453885D01*
X418319Y452704D01*
X419168Y451668D01*
X420204Y450819D01*
X421385Y450187D01*
X422667Y449798D01*
X424000Y449667D01*
X425333Y449798D01*
X426615Y450187D01*
X427568Y450697D01*
X569182Y309083D01*
X569695Y308740D01*
X570300Y308620D01*
X577645D01*
X585937Y300328D01*
X585798Y299992D01*
X585667Y299000D01*
X585798Y298008D01*
X586181Y297084D01*
X586790Y296290D01*
X587584Y295681D01*
X588508Y295298D01*
X589500Y295167D01*
X590492Y295298D01*
X591416Y295681D01*
X592210Y296290D01*
X592819Y297084D01*
X593202Y298008D01*
X593333Y299000D01*
X593202Y299992D01*
X592819Y300916D01*
X592210Y301710D01*
X591416Y302319D01*
X590492Y302702D01*
X589500Y302833D01*
X588508Y302702D01*
X588172Y302563D01*
X579418Y311317D01*
X578905Y311660D01*
X578300Y311780D01*
X570955D01*
X429803Y452932D01*
X430313Y453885D01*
X430702Y455167D01*
X430833Y456500D01*
X430702Y457833D01*
X430313Y459115D01*
X429681Y460296D01*
X428832Y461332D01*
X427796Y462181D01*
X426615Y462813D01*
X425333Y463202D01*
X424000Y463333D01*
D02*
G37*
G36*
X470400Y311192D02*
X469677Y311097D01*
X469004Y310818D01*
X468426Y310374D01*
X467982Y309796D01*
X467703Y309123D01*
X467608Y308400D01*
X467703Y307677D01*
X467982Y307004D01*
X468426Y306425D01*
X468820Y306123D01*
Y301000D01*
X468940Y300395D01*
X469282Y299883D01*
X470283Y298883D01*
X470795Y298540D01*
X470991Y298501D01*
Y297047D01*
X471054Y296735D01*
X471230Y296470D01*
X471495Y296294D01*
X471807Y296232D01*
X477319D01*
X477631Y296294D01*
X477896Y296470D01*
X478073Y296735D01*
X478135Y297047D01*
Y302953D01*
X478073Y303265D01*
X477896Y303530D01*
X477631Y303706D01*
X477319Y303768D01*
X471980D01*
Y306123D01*
X472374Y306425D01*
X472818Y307004D01*
X473097Y307677D01*
X473192Y308400D01*
X473097Y309123D01*
X472818Y309796D01*
X472374Y310374D01*
X471796Y310818D01*
X471123Y311097D01*
X470400Y311192D01*
D02*
G37*
G36*
X664000Y312084D02*
X658000D01*
X656352Y311954D01*
X654745Y311568D01*
X653218Y310936D01*
X651809Y310072D01*
X650552Y308999D01*
X649479Y307742D01*
X648616Y306333D01*
X647983Y304806D01*
X647597Y303199D01*
X647468Y301551D01*
X647597Y299904D01*
X647983Y298296D01*
X648616Y296770D01*
X649479Y295360D01*
X650552Y294104D01*
X651809Y293030D01*
X653218Y292167D01*
X654745Y291534D01*
X656352Y291148D01*
X658000Y291019D01*
X664000D01*
X665648Y291148D01*
X667255Y291534D01*
X668782Y292167D01*
X670191Y293030D01*
X671448Y294104D01*
X672521Y295360D01*
X673385Y296770D01*
X674017Y298296D01*
X674403Y299904D01*
X674533Y301551D01*
X674403Y303199D01*
X674017Y304806D01*
X673385Y306333D01*
X672521Y307742D01*
X671448Y308999D01*
X670191Y310072D01*
X668782Y310936D01*
X667255Y311568D01*
X665648Y311954D01*
X664000Y312084D01*
D02*
G37*
G36*
X559500Y302833D02*
X558508Y302702D01*
X557584Y302319D01*
X556790Y301710D01*
X556181Y300916D01*
X555798Y299992D01*
X555667Y299000D01*
X555798Y298008D01*
X556181Y297084D01*
X556790Y296290D01*
X557584Y295681D01*
X558508Y295298D01*
X559500Y295167D01*
X560492Y295298D01*
X561416Y295681D01*
X562210Y296290D01*
X562819Y297084D01*
X563202Y298008D01*
X563333Y299000D01*
X563202Y299992D01*
X562819Y300916D01*
X562210Y301710D01*
X561416Y302319D01*
X560492Y302702D01*
X559500Y302833D01*
D02*
G37*
G36*
X185500Y303829D02*
X180500D01*
X179639Y303715D01*
X178836Y303382D01*
X178146Y302854D01*
X177618Y302164D01*
X177285Y301361D01*
X177172Y300500D01*
X177285Y299639D01*
X177618Y298836D01*
X178146Y298146D01*
X178836Y297618D01*
X179639Y297285D01*
X180500Y297171D01*
X185500D01*
X186362Y297285D01*
X187164Y297618D01*
X187854Y298146D01*
X188382Y298836D01*
X188715Y299639D01*
X188829Y300500D01*
X188715Y301361D01*
X188382Y302164D01*
X187854Y302854D01*
X187164Y303382D01*
X186362Y303715D01*
X185500Y303829D01*
D02*
G37*
G36*
X573500Y302903D02*
X573456Y302897D01*
X572483Y302494D01*
X571647Y301853D01*
X571006Y301017D01*
X570603Y300044D01*
X570597Y300000D01*
X573500D01*
Y302903D01*
D02*
G37*
G36*
X575500D02*
Y300000D01*
X578403D01*
X578397Y300044D01*
X577994Y301017D01*
X577353Y301853D01*
X576517Y302494D01*
X575544Y302897D01*
X575500Y302903D01*
D02*
G37*
G36*
X578403Y298000D02*
X574500D01*
X570597D01*
X570603Y297956D01*
X571006Y296983D01*
X571647Y296147D01*
X572483Y295506D01*
X572920Y295325D01*
Y256500D01*
X573040Y255895D01*
X573286Y255527D01*
X573275Y255500D01*
X576500D01*
X579725D01*
X579437Y256196D01*
X578898Y256898D01*
X578196Y257437D01*
X577378Y257776D01*
X576500Y257891D01*
X576456Y257886D01*
X576080Y258215D01*
Y295325D01*
X576517Y295506D01*
X577353Y296147D01*
X577994Y296983D01*
X578397Y297956D01*
X578403Y298000D01*
D02*
G37*
G36*
X412047Y372783D02*
X407500D01*
Y368236D01*
X409812D01*
X412420Y365629D01*
Y302520D01*
X411000D01*
X410610Y302442D01*
X410279Y302221D01*
X410058Y301890D01*
X409980Y301500D01*
Y299500D01*
X414000D01*
X418020D01*
Y301500D01*
X417942Y301890D01*
X417721Y302221D01*
X417390Y302442D01*
X417000Y302520D01*
X415580D01*
Y366283D01*
X415460Y366888D01*
X415118Y367401D01*
X412047Y370471D01*
Y372783D01*
D02*
G37*
G36*
X664000Y284891D02*
X658000D01*
X656373Y284731D01*
X654808Y284257D01*
X653367Y283486D01*
X652103Y282449D01*
X651065Y281185D01*
X650295Y279743D01*
X649820Y278178D01*
X649660Y276551D01*
X649820Y274924D01*
X650295Y273360D01*
X651065Y271918D01*
X652103Y270654D01*
X653367Y269617D01*
X654808Y268846D01*
X656373Y268371D01*
X658000Y268211D01*
X664000D01*
X665627Y268371D01*
X667192Y268846D01*
X668634Y269617D01*
X669897Y270654D01*
X670935Y271918D01*
X671705Y273360D01*
X672180Y274924D01*
X672340Y276551D01*
X672180Y278178D01*
X671705Y279743D01*
X670935Y281185D01*
X669897Y282449D01*
X668634Y283486D01*
X667192Y284257D01*
X665627Y284731D01*
X664000Y284891D01*
D02*
G37*
G36*
X335500Y263828D02*
X330500D01*
X329639Y263715D01*
X328836Y263383D01*
X328146Y262854D01*
X327618Y262164D01*
X327285Y261362D01*
X327171Y260500D01*
X327285Y259639D01*
X327618Y258836D01*
X328146Y258146D01*
X328836Y257617D01*
X329639Y257285D01*
X330500Y257172D01*
X335500D01*
X336362Y257285D01*
X337164Y257617D01*
X337854Y258146D01*
X338383Y258836D01*
X338715Y259639D01*
X338828Y260500D01*
X338715Y261362D01*
X338383Y262164D01*
X337854Y262854D01*
X337164Y263383D01*
X336362Y263715D01*
X335500Y263828D01*
D02*
G37*
G36*
X185500Y273829D02*
X180500D01*
X179639Y273715D01*
X178836Y273382D01*
X178146Y272854D01*
X177618Y272164D01*
X177285Y271361D01*
X177172Y270500D01*
X177285Y269638D01*
X177618Y268836D01*
X178146Y268146D01*
X178836Y267618D01*
X179639Y267285D01*
X180500Y267172D01*
X185500D01*
X186362Y267285D01*
X187164Y267618D01*
X187854Y268146D01*
X188382Y268836D01*
X188715Y269638D01*
X188829Y270500D01*
X188715Y271361D01*
X188382Y272164D01*
X187854Y272854D01*
X187164Y273382D01*
X186362Y273715D01*
X185500Y273829D01*
D02*
G37*
G36*
X335500D02*
X330500D01*
X329639Y273715D01*
X328836Y273382D01*
X328146Y272854D01*
X327618Y272164D01*
X327285Y271361D01*
X327171Y270500D01*
X327285Y269638D01*
X327618Y268836D01*
X328146Y268146D01*
X328836Y267618D01*
X329639Y267285D01*
X330500Y267172D01*
X335500D01*
X336362Y267285D01*
X337164Y267618D01*
X337854Y268146D01*
X338383Y268836D01*
X338715Y269638D01*
X338828Y270500D01*
X338715Y271361D01*
X338383Y272164D01*
X337854Y272854D01*
X337164Y273382D01*
X336362Y273715D01*
X335500Y273829D01*
D02*
G37*
G36*
X185500Y283828D02*
X180500D01*
X179639Y283715D01*
X178836Y283383D01*
X178146Y282854D01*
X177618Y282164D01*
X177285Y281362D01*
X177172Y280500D01*
X177285Y279639D01*
X177618Y278836D01*
X178146Y278146D01*
X178836Y277618D01*
X179639Y277285D01*
X180500Y277171D01*
X185500D01*
X186362Y277285D01*
X187164Y277618D01*
X187854Y278146D01*
X188382Y278836D01*
X188715Y279639D01*
X188829Y280500D01*
X188715Y281362D01*
X188382Y282164D01*
X187854Y282854D01*
X187164Y283383D01*
X186362Y283715D01*
X185500Y283828D01*
D02*
G37*
G36*
X318300Y432592D02*
X317577Y432497D01*
X316904Y432218D01*
X316325Y431775D01*
X315882Y431196D01*
X315603Y430523D01*
X315508Y429800D01*
X315603Y429077D01*
X315882Y428404D01*
X316325Y427825D01*
X316744Y427504D01*
X318220Y290483D01*
X318281Y290189D01*
X318340Y289895D01*
X318345Y289888D01*
X318347Y289879D01*
X318516Y289632D01*
X318683Y289383D01*
X318690Y289378D01*
X318695Y289370D01*
X318946Y289207D01*
X319195Y289040D01*
X319204Y289038D01*
X319211Y289034D01*
X319506Y288978D01*
X319800Y288920D01*
X327583D01*
X327618Y288836D01*
X328146Y288146D01*
X328836Y287617D01*
X329639Y287285D01*
X330500Y287172D01*
X335500D01*
X336362Y287285D01*
X337164Y287617D01*
X337854Y288146D01*
X338383Y288836D01*
X338715Y289638D01*
X338828Y290500D01*
X338715Y291361D01*
X338383Y292164D01*
X337854Y292854D01*
X337164Y293383D01*
X336362Y293715D01*
X335500Y293829D01*
X330500D01*
X329639Y293715D01*
X328836Y293383D01*
X328146Y292854D01*
X327618Y292164D01*
X327583Y292080D01*
X321363D01*
X319905Y427542D01*
X320274Y427825D01*
X320718Y428404D01*
X320997Y429077D01*
X321092Y429800D01*
X320997Y430523D01*
X320718Y431196D01*
X320274Y431775D01*
X319696Y432218D01*
X319023Y432497D01*
X318300Y432592D01*
D02*
G37*
G36*
X185500Y263828D02*
X180500D01*
X179639Y263715D01*
X178836Y263383D01*
X178146Y262854D01*
X177618Y262164D01*
X177285Y261362D01*
X177172Y260500D01*
X177285Y259639D01*
X177618Y258836D01*
X178146Y258146D01*
X178836Y257617D01*
X179639Y257285D01*
X180500Y257172D01*
X185500D01*
X186362Y257285D01*
X187164Y257617D01*
X187854Y258146D01*
X188382Y258836D01*
X188715Y259639D01*
X188829Y260500D01*
X188715Y261362D01*
X188382Y262164D01*
X187854Y262854D01*
X187164Y263383D01*
X186362Y263715D01*
X185500Y263828D01*
D02*
G37*
G36*
X335500Y283828D02*
X330500D01*
X329639Y283715D01*
X328836Y283383D01*
X328146Y282854D01*
X327618Y282164D01*
X327285Y281362D01*
X327171Y280500D01*
X327285Y279639D01*
X327618Y278836D01*
X328146Y278146D01*
X328836Y277618D01*
X329639Y277285D01*
X330500Y277171D01*
X335500D01*
X336362Y277285D01*
X337164Y277618D01*
X337854Y278146D01*
X338383Y278836D01*
X338715Y279639D01*
X338828Y280500D01*
X338715Y281362D01*
X338383Y282164D01*
X337854Y282854D01*
X337164Y283383D01*
X336362Y283715D01*
X335500Y283828D01*
D02*
G37*
G36*
X185500Y293829D02*
X180500D01*
X179639Y293715D01*
X178836Y293383D01*
X178146Y292854D01*
X177618Y292164D01*
X177285Y291361D01*
X177172Y290500D01*
X177285Y289638D01*
X177618Y288836D01*
X178146Y288146D01*
X178836Y287617D01*
X179639Y287285D01*
X180500Y287172D01*
X185500D01*
X186362Y287285D01*
X187164Y287617D01*
X187854Y288146D01*
X188382Y288836D01*
X188715Y289638D01*
X188829Y290500D01*
X188715Y291361D01*
X188382Y292164D01*
X187854Y292854D01*
X187164Y293383D01*
X186362Y293715D01*
X185500Y293829D01*
D02*
G37*
G36*
X569000Y326587D02*
X568072Y326464D01*
X567207Y326106D01*
X566464Y325536D01*
X565894Y324793D01*
X565536Y323928D01*
X565413Y323000D01*
X565536Y322072D01*
X565894Y321207D01*
X566464Y320464D01*
X567207Y319894D01*
X568072Y319536D01*
X569000Y319413D01*
X569928Y319536D01*
X570793Y319894D01*
X571536Y320464D01*
X572106Y321207D01*
X572464Y322072D01*
X572587Y323000D01*
X572464Y323928D01*
X572106Y324793D01*
X571536Y325536D01*
X570793Y326106D01*
X569928Y326464D01*
X569000Y326587D01*
D02*
G37*
G36*
X185500Y333828D02*
X180500D01*
X179639Y333715D01*
X178836Y333383D01*
X178146Y332854D01*
X177618Y332164D01*
X177285Y331362D01*
X177172Y330500D01*
X177285Y329639D01*
X177618Y328836D01*
X178146Y328146D01*
X178836Y327618D01*
X179639Y327285D01*
X180500Y327171D01*
X185500D01*
X186362Y327285D01*
X187164Y327618D01*
X187854Y328146D01*
X188382Y328836D01*
X188715Y329639D01*
X188829Y330500D01*
X188715Y331362D01*
X188382Y332164D01*
X187854Y332854D01*
X187164Y333383D01*
X186362Y333715D01*
X185500Y333828D01*
D02*
G37*
G36*
Y323829D02*
X180500D01*
X179639Y323715D01*
X178836Y323382D01*
X178146Y322854D01*
X177618Y322164D01*
X177285Y321361D01*
X177172Y320500D01*
X177285Y319638D01*
X177618Y318836D01*
X178146Y318146D01*
X178836Y317618D01*
X179639Y317285D01*
X180500Y317172D01*
X185500D01*
X186362Y317285D01*
X187164Y317618D01*
X187854Y318146D01*
X188382Y318836D01*
X188715Y319638D01*
X188829Y320500D01*
X188715Y321361D01*
X188382Y322164D01*
X187854Y322854D01*
X187164Y323382D01*
X186362Y323715D01*
X185500Y323829D01*
D02*
G37*
G36*
X547500Y302816D02*
X541500D01*
X541188Y302754D01*
X540923Y302577D01*
X540746Y302312D01*
X540684Y302000D01*
Y296000D01*
X540746Y295688D01*
X540923Y295423D01*
X541188Y295246D01*
X541500Y295184D01*
X542920D01*
Y278800D01*
X543040Y278195D01*
X543383Y277682D01*
X544920Y276145D01*
Y257678D01*
X544138D01*
X543826Y257616D01*
X543561Y257439D01*
X543384Y257174D01*
X543322Y256862D01*
Y252138D01*
X543384Y251826D01*
X543561Y251561D01*
X543826Y251384D01*
X544138Y251322D01*
X548862D01*
X549174Y251384D01*
X549439Y251561D01*
X549616Y251826D01*
X549678Y252138D01*
Y256862D01*
X549616Y257174D01*
X549439Y257439D01*
X549174Y257616D01*
X548862Y257678D01*
X548080D01*
Y276800D01*
X547960Y277405D01*
X547617Y277918D01*
X546080Y279455D01*
Y295184D01*
X547500D01*
X547812Y295246D01*
X548077Y295423D01*
X548254Y295688D01*
X548316Y296000D01*
Y302000D01*
X548254Y302312D01*
X548077Y302577D01*
X547812Y302754D01*
X547500Y302816D01*
D02*
G37*
G36*
X185500Y343829D02*
X180500D01*
X179639Y343715D01*
X178836Y343383D01*
X178146Y342854D01*
X177618Y342164D01*
X177285Y341361D01*
X177172Y340500D01*
X177285Y339638D01*
X177618Y338836D01*
X178146Y338146D01*
X178836Y337617D01*
X179639Y337285D01*
X180500Y337172D01*
X185500D01*
X186362Y337285D01*
X187164Y337617D01*
X187854Y338146D01*
X188382Y338836D01*
X188715Y339638D01*
X188829Y340500D01*
X188715Y341361D01*
X188382Y342164D01*
X187854Y342854D01*
X187164Y343383D01*
X186362Y343715D01*
X185500Y343829D01*
D02*
G37*
G36*
X440185Y359392D02*
X439462Y359297D01*
X438789Y359018D01*
X438210Y358575D01*
X437767Y357996D01*
X437488Y357323D01*
X437393Y356600D01*
X437488Y355877D01*
X437767Y355204D01*
X438210Y354626D01*
X438605Y354323D01*
Y353768D01*
X437429D01*
X437117Y353706D01*
X436852Y353530D01*
X436676Y353265D01*
X436613Y352953D01*
Y347047D01*
X436676Y346735D01*
X436852Y346470D01*
X437117Y346294D01*
X437429Y346232D01*
X442941D01*
X443253Y346294D01*
X443518Y346470D01*
X443694Y346735D01*
X443757Y347047D01*
Y352953D01*
X443694Y353265D01*
X443518Y353530D01*
X443253Y353706D01*
X442941Y353768D01*
X441765D01*
Y354323D01*
X442160Y354626D01*
X442603Y355204D01*
X442882Y355877D01*
X442977Y356600D01*
X442882Y357323D01*
X442603Y357996D01*
X442160Y358575D01*
X441581Y359018D01*
X440908Y359297D01*
X440185Y359392D01*
D02*
G37*
G36*
X448100Y397192D02*
X447377Y397097D01*
X446704Y396818D01*
X446126Y396375D01*
X445682Y395796D01*
X445403Y395123D01*
X445308Y394400D01*
X445403Y393677D01*
X445682Y393004D01*
X446126Y392425D01*
X446479Y392155D01*
Y353768D01*
X445303D01*
X444991Y353706D01*
X444726Y353530D01*
X444550Y353265D01*
X444487Y352953D01*
Y347047D01*
X444550Y346735D01*
X444726Y346470D01*
X444991Y346294D01*
X445303Y346232D01*
X450815D01*
X451127Y346294D01*
X451392Y346470D01*
X451569Y346735D01*
X451631Y347047D01*
Y352953D01*
X451569Y353265D01*
X451392Y353530D01*
X451127Y353706D01*
X450815Y353768D01*
X449639D01*
Y392092D01*
X450074Y392425D01*
X450518Y393004D01*
X450797Y393677D01*
X450892Y394400D01*
X450797Y395123D01*
X450518Y395796D01*
X450074Y396375D01*
X449496Y396818D01*
X448823Y397097D01*
X448100Y397192D01*
D02*
G37*
G36*
X568500Y415392D02*
X567777Y415297D01*
X567104Y415018D01*
X566526Y414574D01*
X566082Y413996D01*
X565803Y413323D01*
X565708Y412600D01*
X565803Y411877D01*
X566082Y411204D01*
X566526Y410626D01*
X566920Y410323D01*
Y348694D01*
X566707Y348606D01*
X565964Y348036D01*
X565394Y347293D01*
X565036Y346428D01*
X564913Y345500D01*
X565036Y344572D01*
X565394Y343707D01*
X565964Y342964D01*
X566707Y342394D01*
X567572Y342036D01*
X568500Y341913D01*
X569428Y342036D01*
X570293Y342394D01*
X571036Y342964D01*
X571606Y343707D01*
X571964Y344572D01*
X572087Y345500D01*
X571964Y346428D01*
X571606Y347293D01*
X571036Y348036D01*
X570293Y348606D01*
X570080Y348694D01*
Y410323D01*
X570474Y410626D01*
X570918Y411204D01*
X571197Y411877D01*
X571292Y412600D01*
X571197Y413323D01*
X570918Y413996D01*
X570474Y414574D01*
X569896Y415018D01*
X569223Y415297D01*
X568500Y415392D01*
D02*
G37*
G36*
X498000Y353816D02*
X492000D01*
X491688Y353754D01*
X491423Y353577D01*
X491246Y353312D01*
X491184Y353000D01*
Y347000D01*
X491246Y346688D01*
X491423Y346423D01*
X491688Y346246D01*
X492000Y346184D01*
X498000D01*
X498312Y346246D01*
X498577Y346423D01*
X498754Y346688D01*
X498816Y347000D01*
Y353000D01*
X498754Y353312D01*
X498577Y353577D01*
X498312Y353754D01*
X498000Y353816D01*
D02*
G37*
G36*
X362953Y308902D02*
X361000D01*
Y306126D01*
X363972D01*
Y307882D01*
X363895Y308272D01*
X363674Y308603D01*
X363343Y308824D01*
X362953Y308902D01*
D02*
G37*
G36*
X359000D02*
X357047D01*
X356657Y308824D01*
X356326Y308603D01*
X356105Y308272D01*
X356028Y307882D01*
Y306706D01*
X354200D01*
X353595Y306586D01*
X353082Y306243D01*
X353045Y306206D01*
X351972D01*
Y307382D01*
X351895Y307772D01*
X351674Y308103D01*
X351343Y308324D01*
X350953Y308401D01*
X349000D01*
Y304626D01*
Y300851D01*
X350953D01*
X351343Y300928D01*
X351674Y301149D01*
X351895Y301480D01*
X351972Y301870D01*
Y303046D01*
X353700D01*
X354305Y303166D01*
X354818Y303508D01*
X354855Y303546D01*
X356028D01*
Y302370D01*
X356105Y301980D01*
X356326Y301649D01*
X356657Y301428D01*
X357047Y301350D01*
X359000D01*
Y305126D01*
Y308902D01*
D02*
G37*
G36*
X363972Y304126D02*
X361000D01*
Y301350D01*
X362953D01*
X363343Y301428D01*
X363674Y301649D01*
X363895Y301980D01*
X363972Y302370D01*
Y304126D01*
D02*
G37*
G36*
X424000Y438333D02*
X422667Y438202D01*
X421385Y437813D01*
X420204Y437181D01*
X419168Y436332D01*
X418319Y435296D01*
X417687Y434115D01*
X417298Y432833D01*
X417167Y431500D01*
X417298Y430167D01*
X417687Y428885D01*
X418319Y427704D01*
X419168Y426668D01*
X420204Y425819D01*
X421385Y425187D01*
X422667Y424798D01*
X424000Y424667D01*
X425333Y424798D01*
X426615Y425187D01*
X427568Y425697D01*
X458520Y394745D01*
Y327377D01*
X458125Y327075D01*
X457682Y326496D01*
X457403Y325823D01*
X457308Y325100D01*
X457403Y324377D01*
X457682Y323704D01*
X458125Y323126D01*
X458704Y322682D01*
X459377Y322403D01*
X460100Y322308D01*
X460823Y322403D01*
X461496Y322682D01*
X462075Y323126D01*
X462518Y323704D01*
X462797Y324377D01*
X462892Y325100D01*
X462797Y325823D01*
X462518Y326496D01*
X462075Y327075D01*
X461680Y327377D01*
Y337930D01*
X462180Y338176D01*
X462304Y338082D01*
X462977Y337803D01*
X463700Y337708D01*
X464193Y337772D01*
X497649Y304316D01*
X497442Y303816D01*
X492000D01*
X491688Y303754D01*
X491423Y303577D01*
X491246Y303312D01*
X491184Y303000D01*
Y301580D01*
X486009D01*
Y302953D01*
X485947Y303265D01*
X485770Y303530D01*
X485505Y303706D01*
X485193Y303768D01*
X479681D01*
X479369Y303706D01*
X479104Y303530D01*
X478928Y303265D01*
X478865Y302953D01*
Y297047D01*
X478928Y296735D01*
X479104Y296470D01*
X479369Y296294D01*
X479681Y296232D01*
X485193D01*
X485505Y296294D01*
X485770Y296470D01*
X485947Y296735D01*
X486009Y297047D01*
Y298420D01*
X491184D01*
Y297000D01*
X491246Y296688D01*
X491423Y296423D01*
X491688Y296246D01*
X492000Y296184D01*
X498000D01*
X498020Y296188D01*
X498520Y295830D01*
Y260332D01*
X498500Y260316D01*
X493919D01*
X493118Y261118D01*
X492605Y261460D01*
X492000Y261580D01*
X486887D01*
Y262953D01*
X486825Y263265D01*
X486648Y263529D01*
X486383Y263706D01*
X486071Y263768D01*
X480559D01*
X480247Y263706D01*
X479982Y263529D01*
X479806Y263265D01*
X479743Y262953D01*
Y257047D01*
X479806Y256735D01*
X479982Y256470D01*
X480247Y256294D01*
X480559Y256232D01*
X486071D01*
X486383Y256294D01*
X486648Y256470D01*
X486825Y256735D01*
X486887Y257047D01*
Y258420D01*
X491345D01*
X491684Y258081D01*
Y253500D01*
X491746Y253188D01*
X491923Y252923D01*
X492188Y252746D01*
X492500Y252684D01*
X498500D01*
X498520Y252668D01*
Y214171D01*
X498020Y213812D01*
X498000Y213816D01*
X492000D01*
X491688Y213754D01*
X491423Y213577D01*
X491246Y213312D01*
X491184Y213000D01*
Y211580D01*
X484387D01*
Y212953D01*
X484325Y213265D01*
X484148Y213529D01*
X483883Y213706D01*
X483571Y213768D01*
X478059D01*
X477747Y213706D01*
X477482Y213529D01*
X477306Y213265D01*
X477243Y212953D01*
Y207047D01*
X477306Y206735D01*
X477482Y206470D01*
X477747Y206294D01*
X478059Y206232D01*
X483571D01*
X483883Y206294D01*
X484148Y206470D01*
X484325Y206735D01*
X484387Y207047D01*
Y208420D01*
X491184D01*
Y207000D01*
X491246Y206688D01*
X491423Y206423D01*
X491688Y206246D01*
X492000Y206184D01*
X498000D01*
X498020Y206188D01*
X498520Y205830D01*
Y164171D01*
X498020Y163812D01*
X498000Y163816D01*
X492000D01*
X491688Y163754D01*
X491423Y163577D01*
X491246Y163312D01*
X491184Y163000D01*
Y158419D01*
X484060Y151295D01*
X481581D01*
X481334Y151795D01*
X481418Y151904D01*
X481697Y152577D01*
X481792Y153300D01*
X481718Y153864D01*
X481897Y154132D01*
X482017Y154737D01*
Y156732D01*
X483193D01*
X483505Y156794D01*
X483770Y156971D01*
X483947Y157235D01*
X484009Y157547D01*
Y163453D01*
X483947Y163765D01*
X483770Y164030D01*
X483505Y164206D01*
X483193Y164268D01*
X477681D01*
X477369Y164206D01*
X477104Y164030D01*
X476928Y163765D01*
X476865Y163453D01*
Y157547D01*
X476928Y157235D01*
X477104Y156971D01*
X477369Y156794D01*
X477681Y156732D01*
X478857D01*
Y156073D01*
X478277Y155997D01*
X477604Y155718D01*
X477026Y155274D01*
X476582Y154696D01*
X476303Y154023D01*
X476208Y153300D01*
X476303Y152577D01*
X476582Y151904D01*
X476665Y151795D01*
X476419Y151295D01*
X474503D01*
X474143Y151655D01*
Y156732D01*
X475319D01*
X475631Y156794D01*
X475896Y156971D01*
X476073Y157235D01*
X476135Y157547D01*
Y163453D01*
X476073Y163765D01*
X475896Y164030D01*
X475631Y164206D01*
X475319Y164268D01*
X469807D01*
X469495Y164206D01*
X469230Y164030D01*
X469054Y163765D01*
X468991Y163453D01*
Y157547D01*
X469054Y157235D01*
X469230Y156971D01*
X469495Y156794D01*
X469807Y156732D01*
X470983D01*
Y151000D01*
X471103Y150395D01*
X471446Y149882D01*
X472731Y148597D01*
X473244Y148254D01*
X473849Y148134D01*
X484714D01*
X485319Y148254D01*
X485832Y148597D01*
X493419Y156184D01*
X498000D01*
X498020Y156188D01*
X498520Y155830D01*
Y112300D01*
X498640Y111695D01*
X498982Y111182D01*
X502882Y107282D01*
X503395Y106940D01*
X504000Y106820D01*
X534000D01*
X534605Y106940D01*
X535117Y107282D01*
X536433Y108598D01*
X536775Y109110D01*
X536799Y109232D01*
X538071D01*
X538383Y109294D01*
X538648Y109470D01*
X538825Y109735D01*
X538887Y110047D01*
Y115953D01*
X538825Y116265D01*
X538648Y116530D01*
X538383Y116706D01*
X538071Y116768D01*
X536895D01*
Y121732D01*
X538071D01*
X538383Y121794D01*
X538648Y121970D01*
X538872Y121993D01*
X542483Y118383D01*
X542995Y118040D01*
X543049Y118029D01*
X543053Y118007D01*
X543230Y117742D01*
X543495Y117565D01*
X543807Y117503D01*
X548335D01*
X548647Y117565D01*
X548911Y117742D01*
X549088Y118007D01*
X549150Y118319D01*
Y120681D01*
X549088Y120993D01*
X548911Y121258D01*
X548647Y121435D01*
X548335Y121497D01*
X543838D01*
X538887Y126448D01*
Y128453D01*
X538825Y128765D01*
X538648Y129030D01*
X538383Y129206D01*
X538071Y129268D01*
X532559D01*
X532247Y129206D01*
X531982Y129030D01*
X531806Y128765D01*
X531743Y128453D01*
Y122547D01*
X531806Y122235D01*
X531982Y121970D01*
X532247Y121794D01*
X532559Y121732D01*
X533735D01*
Y116768D01*
X532559D01*
X532247Y116706D01*
X531982Y116530D01*
X531806Y116265D01*
X531743Y115953D01*
Y110047D01*
X531736Y110039D01*
X531713D01*
X531216Y110536D01*
Y112000D01*
X527441D01*
X523666D01*
Y110047D01*
X523611Y109980D01*
X504655D01*
X501680Y112955D01*
Y156989D01*
X501950Y157080D01*
X502180Y157122D01*
X502983Y156506D01*
X503956Y156103D01*
X504000Y156097D01*
Y160000D01*
X505000D01*
Y161000D01*
X508903D01*
X508897Y161044D01*
X508494Y162017D01*
X507853Y162853D01*
X507017Y163494D01*
X506580Y163675D01*
Y206325D01*
X507017Y206506D01*
X507853Y207147D01*
X508494Y207983D01*
X508897Y208956D01*
X508903Y209000D01*
X505000D01*
Y211000D01*
X508903D01*
X508897Y211044D01*
X508494Y212017D01*
X507853Y212853D01*
X507017Y213494D01*
X506657Y213643D01*
X507080Y233767D01*
X507077Y233783D01*
X507080Y233800D01*
Y252825D01*
X507517Y253006D01*
X508353Y253647D01*
X508994Y254483D01*
X509397Y255456D01*
X509403Y255500D01*
X505500D01*
Y257500D01*
X509403D01*
X509397Y257544D01*
X508994Y258517D01*
X508353Y259353D01*
X507517Y259994D01*
X506998Y260209D01*
X506580Y278818D01*
Y296325D01*
X507017Y296506D01*
X507853Y297147D01*
X508494Y297983D01*
X508897Y298956D01*
X508903Y299000D01*
X505000D01*
Y301000D01*
X508903D01*
X508897Y301044D01*
X508494Y302017D01*
X507853Y302853D01*
X507017Y303494D01*
X506580Y303675D01*
Y346325D01*
X507017Y346506D01*
X507853Y347147D01*
X508494Y347983D01*
X508897Y348956D01*
X508903Y349000D01*
X505000D01*
X501097D01*
X501103Y348956D01*
X501506Y347983D01*
X502147Y347147D01*
X502983Y346506D01*
X503420Y346325D01*
Y303675D01*
X502983Y303494D01*
X502180Y302878D01*
X501950Y302920D01*
X501680Y303011D01*
Y304100D01*
X501560Y304705D01*
X501218Y305218D01*
X466428Y340007D01*
X466492Y340500D01*
X466397Y341223D01*
X466118Y341896D01*
X465674Y342475D01*
X465096Y342918D01*
X464423Y343197D01*
X463700Y343292D01*
X462977Y343197D01*
X462304Y342918D01*
X462180Y342824D01*
X461680Y343070D01*
Y395400D01*
X461560Y396005D01*
X461217Y396517D01*
X429803Y427932D01*
X430313Y428885D01*
X430702Y430167D01*
X430833Y431500D01*
X430702Y432833D01*
X430313Y434115D01*
X429681Y435296D01*
X428832Y436332D01*
X427796Y437181D01*
X426615Y437813D01*
X425333Y438202D01*
X424000Y438333D01*
D02*
G37*
G36*
X664000Y337084D02*
X658000D01*
X656352Y336954D01*
X654745Y336568D01*
X653218Y335936D01*
X651809Y335072D01*
X650552Y333999D01*
X649479Y332742D01*
X648616Y331333D01*
X647983Y329806D01*
X647597Y328199D01*
X647468Y326551D01*
X647597Y324904D01*
X647983Y323296D01*
X648616Y321770D01*
X649479Y320360D01*
X650552Y319104D01*
X651809Y318030D01*
X653218Y317167D01*
X654745Y316534D01*
X656352Y316148D01*
X658000Y316019D01*
X664000D01*
X665648Y316148D01*
X667255Y316534D01*
X668782Y317167D01*
X670191Y318030D01*
X671448Y319104D01*
X672521Y320360D01*
X673385Y321770D01*
X674017Y323296D01*
X674403Y324904D01*
X674533Y326551D01*
X674403Y328199D01*
X674017Y329806D01*
X673385Y331333D01*
X672521Y332742D01*
X671448Y333999D01*
X670191Y335072D01*
X668782Y335936D01*
X667255Y336568D01*
X665648Y336954D01*
X664000Y337084D01*
D02*
G37*
G36*
X660000Y260092D02*
X658000D01*
X656334Y259928D01*
X654732Y259442D01*
X653255Y258653D01*
X651961Y257591D01*
X650898Y256296D01*
X650109Y254820D01*
X649623Y253218D01*
X649557Y252551D01*
X660000D01*
Y260092D01*
D02*
G37*
G36*
X664000D02*
X662000D01*
Y252551D01*
X672443D01*
X672377Y253218D01*
X671891Y254820D01*
X671102Y256296D01*
X670040Y257591D01*
X668745Y258653D01*
X667269Y259442D01*
X665666Y259928D01*
X664000Y260092D01*
D02*
G37*
G36*
X185500Y313828D02*
X180500D01*
X179639Y313715D01*
X178836Y313383D01*
X178146Y312854D01*
X177618Y312164D01*
X177285Y311362D01*
X177172Y310500D01*
X177285Y309639D01*
X177618Y308836D01*
X178146Y308146D01*
X178836Y307617D01*
X179639Y307285D01*
X180500Y307172D01*
X185500D01*
X186362Y307285D01*
X187164Y307617D01*
X187854Y308146D01*
X188382Y308836D01*
X188715Y309639D01*
X188829Y310500D01*
X188715Y311362D01*
X188382Y312164D01*
X187854Y312854D01*
X187164Y313383D01*
X186362Y313715D01*
X185500Y313828D01*
D02*
G37*
%LPD*%
G36*
X407920Y269141D02*
Y250000D01*
X408040Y249395D01*
X408383Y248883D01*
X409382Y247883D01*
X409895Y247540D01*
X410500Y247420D01*
X411545D01*
X419939Y239026D01*
X419706Y238552D01*
X419401Y238592D01*
X418679Y238497D01*
X418005Y238218D01*
X417427Y237774D01*
X416983Y237196D01*
X416704Y236523D01*
X416609Y235800D01*
X416704Y235077D01*
X416983Y234404D01*
X417427Y233825D01*
X418005Y233382D01*
X418679Y233103D01*
X419401Y233008D01*
X419894Y233072D01*
X420920Y232047D01*
Y206997D01*
X418280D01*
Y230563D01*
X418160Y231168D01*
X417817Y231680D01*
X407280Y242217D01*
Y268950D01*
X407780Y269228D01*
X407920Y269141D01*
D02*
G37*
G36*
X377003Y393236D02*
X376895Y392860D01*
X376382Y392517D01*
X374142Y390277D01*
X373800Y389765D01*
X373779Y389662D01*
X373767Y389659D01*
X373502Y389482D01*
X373325Y389218D01*
X373263Y388906D01*
Y384378D01*
X372832Y383980D01*
X366472D01*
Y385063D01*
X362500D01*
Y386063D01*
X361500D01*
Y389839D01*
X359547D01*
X359157Y389761D01*
X358826Y389540D01*
X358605Y389209D01*
X358528Y388819D01*
Y387643D01*
X356355D01*
X356317Y387681D01*
X355805Y388023D01*
X355200Y388143D01*
X352472D01*
Y389319D01*
X352395Y389709D01*
X352174Y390040D01*
X351843Y390261D01*
X351453Y390338D01*
X349500D01*
Y386563D01*
X347500D01*
Y390338D01*
X345547D01*
X345157Y390261D01*
X344880Y390076D01*
X344638Y390138D01*
X344380Y390272D01*
Y391088D01*
X344880Y391239D01*
X344970Y391104D01*
X345235Y390928D01*
X345547Y390865D01*
X351453D01*
X351765Y390928D01*
X352029Y391104D01*
X352206Y391369D01*
X352268Y391681D01*
Y392857D01*
X354545D01*
X354583Y392819D01*
X355095Y392477D01*
X355700Y392357D01*
X358732D01*
Y391181D01*
X358794Y390869D01*
X358970Y390604D01*
X359235Y390427D01*
X359547Y390365D01*
X365453D01*
X365765Y390427D01*
X366030Y390604D01*
X366206Y390869D01*
X366268Y391181D01*
Y392357D01*
X369900D01*
X370505Y392477D01*
X371018Y392819D01*
X372118Y393920D01*
X377003D01*
Y393236D01*
D02*
G37*
G36*
X345157Y382865D02*
X345547Y382787D01*
X346920D01*
Y325655D01*
X338345Y317080D01*
X337174D01*
X337075Y317580D01*
X337164Y317618D01*
X337854Y318146D01*
X338383Y318836D01*
X338715Y319638D01*
X338828Y320500D01*
X338715Y321361D01*
X338383Y322164D01*
X337854Y322854D01*
X337164Y323382D01*
X336362Y323715D01*
X335500Y323829D01*
X330500D01*
X329639Y323715D01*
X328836Y323382D01*
X328146Y322854D01*
X327618Y322164D01*
X327285Y321361D01*
X327171Y320500D01*
X327285Y319638D01*
X327618Y318836D01*
X328146Y318146D01*
X328836Y317618D01*
X328925Y317580D01*
X328826Y317080D01*
X327900D01*
X327295Y316960D01*
X326782Y316617D01*
X326142Y315977D01*
X325680Y316169D01*
Y322345D01*
X327755Y324420D01*
X341800D01*
X342405Y324540D01*
X342917Y324883D01*
X343917Y325883D01*
X344260Y326395D01*
X344380Y327000D01*
Y382854D01*
X344638Y382988D01*
X344880Y383050D01*
X345157Y382865D01*
D02*
G37*
G36*
X404120Y308786D02*
Y241563D01*
X404240Y240958D01*
X404583Y240445D01*
X415120Y229908D01*
Y206997D01*
X412272D01*
X411960Y206935D01*
X411695Y206758D01*
X411518Y206493D01*
X411456Y206181D01*
Y203819D01*
X411518Y203507D01*
X411695Y203242D01*
X411960Y203065D01*
X412272Y203003D01*
X420920D01*
Y202158D01*
X420420Y201887D01*
X419752Y202020D01*
X413453D01*
X412680Y201866D01*
X412252Y201580D01*
X394000D01*
X393395Y201460D01*
X392882Y201117D01*
X391882Y200117D01*
X391540Y199605D01*
X391420Y199000D01*
Y186131D01*
X390047D01*
X389735Y186068D01*
X389471Y185892D01*
X389294Y185627D01*
X389232Y185315D01*
Y184139D01*
X384722D01*
X384117Y184019D01*
X384115Y184017D01*
X380268D01*
Y185193D01*
X380206Y185505D01*
X380030Y185770D01*
X379765Y185947D01*
X379453Y186009D01*
X373547D01*
X373235Y185947D01*
X372971Y185770D01*
X372794Y185505D01*
X372732Y185193D01*
Y184017D01*
X369722D01*
X369117Y183897D01*
X368604Y183554D01*
X368445Y183395D01*
X366268D01*
Y184571D01*
X366206Y184883D01*
X366030Y185148D01*
X365765Y185325D01*
X365453Y185387D01*
X359547D01*
X359480Y185442D01*
Y270045D01*
X376717Y287282D01*
X377060Y287795D01*
X377180Y288400D01*
Y299178D01*
X377680Y299385D01*
X377883Y299183D01*
X378395Y298840D01*
X379000Y298720D01*
X393000D01*
X393605Y298840D01*
X394117Y299183D01*
X395618Y300682D01*
X395866Y301054D01*
X397453D01*
X397765Y301116D01*
X398029Y301293D01*
X398206Y301558D01*
X398268Y301870D01*
Y307382D01*
X398206Y307694D01*
X398029Y307959D01*
X397765Y308136D01*
X397453Y308198D01*
X391676D01*
X391672Y308201D01*
X391484Y308551D01*
X391459Y308686D01*
X391648Y308928D01*
X397453D01*
X397765Y308991D01*
X398029Y309167D01*
X398206Y309432D01*
X398268Y309744D01*
Y313984D01*
X398730Y314176D01*
X404120Y308786D01*
D02*
G37*
%LPC*%
G36*
X365453Y389839D02*
X363500D01*
Y387063D01*
X366472D01*
Y388819D01*
X366395Y389209D01*
X366174Y389540D01*
X365843Y389761D01*
X365453Y389839D01*
D02*
G37*
%LPD*%
G36*
X610179Y432586D02*
Y417601D01*
X610002Y417482D01*
X609825Y417218D01*
X609763Y416906D01*
Y412378D01*
X609825Y412066D01*
X610002Y411801D01*
X610267Y411624D01*
X610579Y411562D01*
X612941D01*
X613253Y411624D01*
X613420Y411736D01*
X613771Y411620D01*
X613920Y411514D01*
Y399900D01*
X614040Y399295D01*
X614383Y398782D01*
X622520Y390645D01*
Y381080D01*
X622020Y381048D01*
X621923Y381783D01*
X621621Y382513D01*
X621140Y383140D01*
X620513Y383621D01*
X619783Y383923D01*
X619000Y384026D01*
X612323D01*
X600932Y395417D01*
Y431529D01*
X601348Y431806D01*
X601703Y431659D01*
X603000Y431489D01*
X604297Y431659D01*
X605506Y432160D01*
X606544Y432956D01*
X607340Y433994D01*
X607587Y434590D01*
X608077Y434688D01*
X610179Y432586D01*
D02*
G37*
G36*
X502983Y296506D02*
X503420Y296325D01*
Y278800D01*
X503423Y278782D01*
X503420Y278765D01*
X503838Y260141D01*
X503483Y259994D01*
X502647Y259353D01*
X502180Y258745D01*
X501680Y258914D01*
Y296989D01*
X501950Y297080D01*
X502180Y297122D01*
X502983Y296506D01*
D02*
G37*
G36*
Y206506D02*
X503420Y206325D01*
Y163675D01*
X502983Y163494D01*
X502180Y162878D01*
X501950Y162920D01*
X501680Y163011D01*
Y206989D01*
X501950Y207080D01*
X502180Y207122D01*
X502983Y206506D01*
D02*
G37*
G36*
X502647Y253647D02*
X503483Y253006D01*
X503920Y252825D01*
Y233817D01*
X503497Y213707D01*
X502983Y213494D01*
X502180Y212878D01*
X501950Y212920D01*
X501680Y213011D01*
Y254086D01*
X502180Y254256D01*
X502647Y253647D01*
D02*
G37*
D10*
X383500Y304626D02*
D03*
Y312500D02*
D03*
X584000Y206437D02*
D03*
Y198563D02*
D03*
X360000Y305126D02*
D03*
Y313000D02*
D03*
X371000Y305126D02*
D03*
Y313000D02*
D03*
X394500Y304626D02*
D03*
Y312500D02*
D03*
X376500Y174563D02*
D03*
Y182437D02*
D03*
X362500Y181815D02*
D03*
Y173941D02*
D03*
X348500Y386563D02*
D03*
Y394437D02*
D03*
X392000Y386441D02*
D03*
Y394315D02*
D03*
X348500Y428941D02*
D03*
Y436815D02*
D03*
X348000Y304626D02*
D03*
Y312500D02*
D03*
X393000Y174685D02*
D03*
Y182559D02*
D03*
X362500Y386063D02*
D03*
Y393937D02*
D03*
X172500Y147937D02*
D03*
Y140063D02*
D03*
X363000Y429063D02*
D03*
Y436937D02*
D03*
X392000Y427441D02*
D03*
Y435315D02*
D03*
D11*
X373142Y433240D02*
D03*
X382000Y436980D02*
D03*
Y429500D02*
D03*
X546071Y119500D02*
D03*
X554929Y123240D02*
D03*
Y115760D02*
D03*
X546571Y145000D02*
D03*
X555429Y148740D02*
D03*
Y141260D02*
D03*
X398429Y477051D02*
D03*
X389571Y473311D02*
D03*
Y480791D02*
D03*
D12*
X527185Y139000D02*
D03*
X535059D02*
D03*
X527441Y113000D02*
D03*
X535315D02*
D03*
X480437Y160500D02*
D03*
X472563D02*
D03*
X472941Y210000D02*
D03*
X480815D02*
D03*
X475441Y260000D02*
D03*
X483315D02*
D03*
X474563Y300000D02*
D03*
X482437D02*
D03*
X378937Y480500D02*
D03*
X371063D02*
D03*
X448059Y350000D02*
D03*
X440185D02*
D03*
X527063Y148500D02*
D03*
X534937D02*
D03*
X527441Y125500D02*
D03*
X535315D02*
D03*
D13*
X416602Y205000D02*
D03*
D14*
Y200000D02*
D03*
Y195000D02*
D03*
Y190000D02*
D03*
X435500Y205000D02*
D03*
Y200000D02*
D03*
Y195000D02*
D03*
Y190000D02*
D03*
X645051Y210500D02*
D03*
Y205500D02*
D03*
Y200500D02*
D03*
Y195500D02*
D03*
X663949Y210500D02*
D03*
Y205500D02*
D03*
Y200500D02*
D03*
Y195500D02*
D03*
D15*
X406500Y438717D02*
D03*
Y421000D02*
D03*
Y391500D02*
D03*
Y373783D02*
D03*
D16*
X615500Y423500D02*
D03*
X619240Y414642D02*
D03*
X611760D02*
D03*
X379000Y395500D02*
D03*
X382740Y386642D02*
D03*
X375260D02*
D03*
D17*
X419000Y161000D02*
D03*
X436717D02*
D03*
D18*
Y190000D01*
X389600Y441900D02*
Y473311D01*
X379650Y424450D02*
X392000D01*
X348500Y429063D02*
X363000D01*
X172500Y150500D02*
X183000D01*
X505000Y160000D02*
Y210000D01*
X484714Y149714D02*
X495000Y160000D01*
X584000Y161400D02*
Y183700D01*
X183000Y140500D02*
X189500Y134000D01*
X203500D01*
X218500Y119000D01*
X163437Y157000D02*
X172500Y147937D01*
X156500Y157000D02*
X163437D01*
X142500Y171000D02*
X156500Y157000D01*
X142500Y171000D02*
Y181000D01*
X584000Y183700D02*
Y198563D01*
X645100Y210500D02*
Y240700D01*
X375037Y429063D02*
X378100Y426000D01*
X376500Y151600D02*
Y161000D01*
X392000Y394315D02*
X406500D01*
X377500Y391400D02*
X392000D01*
X392874Y312500D02*
X394500D01*
X390000D02*
X392874D01*
X416700Y205000D02*
Y230563D01*
X367950Y308100D02*
X371000D01*
X631000Y200500D02*
X645051D01*
X615437D02*
X631000D01*
X613500Y198563D02*
X615437Y200500D01*
X584000Y198563D02*
X613500D01*
X615500Y399900D02*
Y423500D01*
Y399900D02*
X624100Y391300D01*
Y207400D02*
Y391300D01*
Y207400D02*
X631000Y200500D01*
X584000Y161400D02*
X613500Y131900D01*
Y118000D02*
Y131900D01*
X645051Y210500D02*
X645100D01*
X642500Y243300D02*
X645100Y240700D01*
X544500Y278800D02*
Y299000D01*
Y278800D02*
X546500Y276800D01*
Y254500D02*
Y276800D01*
X416602Y190000D02*
X421500D01*
X422500Y191000D01*
Y232701D01*
X419401Y235800D02*
X422500Y232701D01*
X444000Y276300D02*
Y298500D01*
X443500Y253000D02*
X444000Y276300D01*
X661000Y213449D02*
Y251551D01*
Y213449D02*
X663949Y210500D01*
X172500Y147937D02*
Y150500D01*
X435500Y190000D02*
X436717D01*
X375400Y150500D02*
X376500Y151600D01*
X574500Y256500D02*
Y299000D01*
Y256500D02*
X576500Y254500D01*
Y207937D02*
Y254500D01*
Y207937D02*
X584000Y206437D01*
X567263D02*
X584000D01*
X547500Y208000D02*
X567263Y206437D01*
X505500Y233800D02*
Y256500D01*
X505000Y210000D02*
X505500Y233800D01*
X505000Y278800D02*
Y300000D01*
Y278800D02*
X505500Y256500D01*
X414000Y276300D02*
Y298500D01*
X413500Y253000D02*
X414000Y276300D01*
Y298500D02*
Y366283D01*
X406500Y373783D02*
X414000Y366283D01*
X392000Y427441D02*
X400059D01*
X406500Y421000D01*
X392000Y424450D02*
Y427441D01*
X363000Y429063D02*
X375037D01*
X333000Y460500D02*
X338100D01*
X341218Y457382D01*
Y430000D02*
Y457382D01*
Y430000D02*
X348500Y428941D01*
X319800Y290500D02*
X333000D01*
X318300Y429800D02*
X319800Y290500D01*
X348100Y443100D02*
X348500Y442700D01*
Y436815D02*
Y442700D01*
X344000Y394437D02*
X348500D01*
X342800Y393237D02*
X344000Y394437D01*
X342800Y327000D02*
Y393237D01*
X341800Y326000D02*
X342800Y327000D01*
X327100Y326000D02*
X341800D01*
X324100Y323000D02*
X327100Y326000D01*
X324100Y302000D02*
Y323000D01*
Y302000D02*
X325600Y300500D01*
X333000D01*
X534937Y148500D02*
Y287263D01*
X513100Y309100D02*
X534937Y287263D01*
X597150Y464150D02*
X604000Y471000D01*
X597150Y393850D02*
Y464150D01*
Y393850D02*
X614500Y376500D01*
X624000Y471000D02*
X639549Y455451D01*
Y353000D02*
Y455451D01*
Y353000D02*
X661000Y351551D01*
X424000Y431500D02*
X460100Y395400D01*
Y325100D02*
Y395400D01*
X424000Y456500D02*
X570300Y310200D01*
X578300D01*
X589500Y299000D01*
X424000Y303500D02*
Y371500D01*
Y303500D02*
X429000Y298500D01*
X431600Y325900D02*
X459000Y298500D01*
X431600Y325900D02*
Y388900D01*
X424000Y396500D02*
X431600Y388900D01*
X406500Y382700D02*
Y391500D01*
X375260Y386642D02*
Y389160D01*
X377500Y391400D01*
X392000D02*
Y394315D01*
X418749Y477051D02*
X454800Y441000D01*
X398429Y477051D02*
X418749D01*
X419000Y161000D02*
X424800Y166800D01*
Y236400D01*
X412200Y249000D02*
X424800Y236400D01*
X410500Y249000D02*
X412200D01*
X409500Y250000D02*
X410500Y249000D01*
X409500Y250000D02*
Y271800D01*
X387300Y318000D02*
X389000Y316300D01*
Y313500D02*
Y316300D01*
Y313500D02*
X390000Y312500D01*
X483315Y260000D02*
X492000D01*
X495500Y256500D01*
X327000Y410500D02*
X333000D01*
X326000Y409500D02*
X327000Y410500D01*
X326000Y335000D02*
Y409500D01*
X470400Y301000D02*
Y308400D01*
Y301000D02*
X471400Y300000D01*
X474563D01*
X475441Y260000D02*
Y276159D01*
X464800Y286800D02*
X475441Y276159D01*
X464800Y286800D02*
Y307000D01*
X455000Y316800D02*
X464800Y307000D01*
X455000Y316800D02*
Y393600D01*
X446900Y231200D02*
X468100Y210000D01*
X472941D01*
X480437Y154737D02*
Y160500D01*
X479000Y153300D02*
X480437Y154737D01*
X258000Y135800D02*
Y219500D01*
X183000Y220500D02*
X258000Y219500D01*
X416602Y205000D02*
X416700D01*
X405700Y241563D02*
X416700Y230563D01*
X405700Y241563D02*
Y309441D01*
X393598Y321543D02*
X405700Y309441D01*
X385000Y321543D02*
X393598D01*
X383500Y320043D02*
X385000Y321543D01*
X383500Y312500D02*
Y320043D01*
X360000Y313000D02*
Y316400D01*
X361000Y317400D01*
X378000D01*
X378300Y317100D01*
Y301000D02*
Y317100D01*
Y301000D02*
X379000Y300300D01*
X393000D01*
X394500Y301800D01*
Y304626D01*
X360000Y313000D02*
X363050D01*
X367950Y308100D01*
X371000Y305126D02*
Y308100D01*
X309400Y238300D02*
Y378800D01*
Y238300D02*
X322200Y225500D01*
X406300Y195000D02*
X416602D01*
X348500Y428941D02*
Y429063D01*
X473849Y149714D02*
X484714D01*
X472563Y151000D02*
X473849Y149714D01*
X472563Y151000D02*
Y160500D01*
X328300Y480500D02*
X371063D01*
X448059Y350000D02*
Y394359D01*
X448100Y394400D01*
X428100Y190000D02*
X435500D01*
X427100Y191000D02*
X428100Y190000D01*
X427100Y191000D02*
Y239400D01*
X413500Y253000D02*
X427100Y239400D01*
X393000Y182559D02*
Y199000D01*
X394000Y200000D01*
X416602D01*
X376500Y161000D02*
Y174563D01*
X426800Y161000D02*
X436717D01*
X406500Y438717D02*
X412400Y432817D01*
Y428300D02*
Y432817D01*
X568500Y345500D02*
Y412600D01*
X535315Y109715D02*
Y113000D01*
X534000Y108400D02*
X535315Y109715D01*
X504000Y108400D02*
X534000D01*
X500100Y112300D02*
X504000Y108400D01*
X500100Y112300D02*
Y304100D01*
X463700Y340500D02*
X500100Y304100D01*
X358959Y173941D02*
X362500D01*
X357900Y175000D02*
X358959Y173941D01*
X357900Y175000D02*
Y270700D01*
X375600Y288400D01*
Y312000D01*
X374600Y313000D02*
X375600Y312000D01*
X371000Y313000D02*
X374600D01*
X600950Y436500D02*
X603000D01*
X599450Y438000D02*
X600950Y436500D01*
X599450Y438000D02*
Y444650D01*
X608600Y453800D01*
Y476400D01*
X604000Y481000D02*
X608600Y476400D01*
X440185Y350000D02*
Y356600D01*
X645051Y195500D02*
X663949D01*
X635500Y205500D02*
X645051D01*
X583800Y183500D02*
X584000Y183700D01*
X572000Y164000D02*
Y183500D01*
X547500Y208000D02*
X572000Y183500D01*
X435500Y205000D02*
Y236000D01*
X439500Y240000D01*
X389571Y473311D02*
X389600D01*
X387400Y439700D02*
X389600Y441900D01*
X387400Y436153D02*
Y439700D01*
X384474Y433227D02*
X387400Y436153D01*
X379327Y433227D02*
X384474D01*
X378100Y432000D02*
X379327Y433227D01*
X378100Y426000D02*
Y432000D01*
Y426000D02*
X379650Y424450D01*
X611760Y414642D02*
Y433240D01*
X604000Y441000D02*
X611760Y433240D01*
X406500Y373783D02*
X412600Y379883D01*
Y414900D01*
X406500Y421000D02*
X412600Y414900D01*
X406500Y391500D02*
Y394315D01*
X399300Y380983D02*
X406500Y373783D01*
X399300Y380983D02*
Y385141D01*
X398000Y386441D02*
X399300Y385141D01*
X392000Y386441D02*
X398000D01*
X362500Y382900D02*
Y386063D01*
Y382900D02*
X363000Y382400D01*
X391000D01*
X392000Y383400D01*
Y386441D01*
X362500Y142000D02*
Y173941D01*
X361000Y140500D02*
X362500Y142000D01*
X333000Y140500D02*
X361000D01*
X554929Y115760D02*
X557760D01*
X572000Y130000D01*
X516500Y148500D02*
X527063D01*
X505000Y160000D02*
X516500Y148500D01*
X615500Y423500D02*
X623000D01*
X624000Y424500D01*
Y441000D01*
X650000Y401551D02*
X661000D01*
X648900Y402651D02*
X650000Y401551D01*
X648900Y402651D02*
Y456100D01*
X624000Y481000D02*
X648900Y456100D01*
X555429Y141260D02*
X557600D01*
X569640Y153300D01*
X581300D01*
X588300Y146300D01*
X389815Y435315D02*
X392000D01*
X384000Y429500D02*
X389815Y435315D01*
X382000Y429500D02*
X384000D01*
X342500Y312500D02*
X348000D01*
X340500Y310500D02*
X342500Y312500D01*
X333000Y310500D02*
X340500D01*
X348500Y325000D02*
Y386563D01*
X339000Y315500D02*
X348500Y325000D01*
X327900Y315500D02*
X339000D01*
X326400Y314000D02*
X327900Y315500D01*
X326400Y306000D02*
Y314000D01*
Y306000D02*
X327774Y304626D01*
X348000D01*
X177937Y140500D02*
X183000D01*
X177500Y140063D02*
X177937Y140500D01*
X172500Y140063D02*
X177500D01*
X663949Y195500D02*
Y200500D01*
Y205500D01*
Y210500D01*
X436717Y149883D02*
Y161000D01*
Y149883D02*
X439000Y147600D01*
Y136551D02*
Y147600D01*
X384722Y174685D02*
X393000D01*
X384600Y174563D02*
X384722Y174685D01*
X376500Y174563D02*
X384600D01*
X527441Y113000D02*
Y125500D01*
X527185Y132356D02*
Y139000D01*
Y132356D02*
X527441Y132100D01*
Y125500D02*
Y132100D01*
X527063Y143722D02*
Y148500D01*
Y143722D02*
X527185Y143600D01*
Y139000D02*
Y143600D01*
X505000Y300000D02*
Y350000D01*
X354200Y305126D02*
X360000D01*
X353700Y304626D02*
X354200Y305126D01*
X348000Y304626D02*
X353700D01*
X355700Y386063D02*
X362500D01*
X355200Y386563D02*
X355700Y386063D01*
X348500Y386563D02*
X355200D01*
X355722Y436937D02*
X363000D01*
X355600Y436815D02*
X355722Y436937D01*
X348500Y436815D02*
X355600D01*
X369897Y433240D02*
X373142D01*
X366200Y436937D02*
X369897Y433240D01*
X363000Y436937D02*
X366200D01*
X371463Y395500D02*
X379000D01*
X369900Y393937D02*
X371463Y395500D01*
X362500Y393937D02*
X369900D01*
X355700D02*
X362500D01*
X355200Y394437D02*
X355700Y393937D01*
X348500Y394437D02*
X355200D01*
X543600Y119500D02*
X546071D01*
X537600Y125500D02*
X543600Y119500D01*
X535315Y125500D02*
X537600D01*
X535315Y113000D02*
Y125500D01*
X542500Y145000D02*
X546571D01*
X539000Y148500D02*
X542500Y145000D01*
X534937Y148500D02*
X539000D01*
X534937Y143722D02*
Y148500D01*
Y143722D02*
X535059Y143600D01*
Y139000D02*
Y143600D01*
X384722Y182559D02*
X393000D01*
X384600Y182437D02*
X384722Y182559D01*
X376500Y182437D02*
X384600D01*
X369722D02*
X376500D01*
X369100Y181815D02*
X369722Y182437D01*
X362500Y181815D02*
X369100D01*
X400902Y438717D02*
X406500D01*
X397500Y435315D02*
X400902Y438717D01*
X392000Y435315D02*
X397500D01*
X419000Y150600D02*
Y161000D01*
Y150600D02*
X422700Y146900D01*
Y136551D02*
Y146900D01*
X385000Y304626D02*
X392874Y312500D01*
X383500Y304626D02*
X385000D01*
X482437Y300000D02*
X495000D01*
X480815Y210000D02*
X495000D01*
X384391Y480791D02*
X389571D01*
X384100Y480500D02*
X384391Y480791D01*
X378937Y480500D02*
X384100D01*
X552000Y396500D02*
Y431500D01*
X435500Y195000D02*
Y200000D01*
X354200Y313000D02*
X360000D01*
X353700Y312500D02*
X354200Y313000D01*
X348000Y312500D02*
X353700D01*
D19*
X218500Y119000D02*
D03*
X142500Y181000D02*
D03*
X505000Y350000D02*
D03*
Y300000D02*
D03*
X505500Y256500D02*
D03*
X505000Y210000D02*
D03*
Y160000D02*
D03*
X624000Y461000D02*
D03*
Y471000D02*
D03*
Y481000D02*
D03*
X604000Y441000D02*
D03*
Y461000D02*
D03*
Y471000D02*
D03*
Y481000D02*
D03*
X429000Y298500D02*
D03*
X444000D02*
D03*
X459000D02*
D03*
X559500Y299000D02*
D03*
X574500D02*
D03*
X589500D02*
D03*
D20*
X613500Y118000D02*
D03*
Y178000D02*
D03*
X635500Y176000D02*
D03*
Y116000D02*
D03*
X629000Y323000D02*
D03*
X569000D02*
D03*
X628500Y345500D02*
D03*
X568500D02*
D03*
D21*
X547500Y197500D02*
D03*
D22*
Y208000D02*
D03*
D23*
X413500Y253000D02*
D03*
X546500Y254500D02*
D03*
D24*
X443500Y253000D02*
D03*
X576500Y254500D02*
D03*
D25*
X552000Y371500D02*
D03*
D26*
Y396500D02*
D03*
X424000Y371500D02*
D03*
Y396500D02*
D03*
Y456500D02*
D03*
Y431500D02*
D03*
X552000Y456500D02*
D03*
Y431500D02*
D03*
D27*
X495000Y350000D02*
D03*
Y300000D02*
D03*
X495500Y256500D02*
D03*
X495000Y210000D02*
D03*
Y160000D02*
D03*
X414000Y298500D02*
D03*
X544500Y299000D02*
D03*
D28*
X422700Y136551D02*
D03*
X572000Y130000D02*
D03*
D29*
X439000Y136551D02*
D03*
X455300D02*
D03*
X588300Y130000D02*
D03*
X572000Y146300D02*
D03*
X588300D02*
D03*
D30*
X472700Y136551D02*
D03*
D31*
X675000Y125000D02*
D03*
Y475000D02*
D03*
X150000D02*
D03*
Y125000D02*
D03*
D32*
X624000Y441000D02*
D03*
D33*
X594500Y376500D02*
D03*
D34*
X614500D02*
D03*
D35*
X333000Y140500D02*
D03*
D36*
Y150500D02*
D03*
Y160500D02*
D03*
Y170500D02*
D03*
Y180500D02*
D03*
Y190500D02*
D03*
Y200500D02*
D03*
Y210500D02*
D03*
Y220500D02*
D03*
Y230500D02*
D03*
Y240500D02*
D03*
Y250500D02*
D03*
Y260500D02*
D03*
Y270500D02*
D03*
Y280500D02*
D03*
Y290500D02*
D03*
Y300500D02*
D03*
Y310500D02*
D03*
Y320500D02*
D03*
Y330500D02*
D03*
Y340500D02*
D03*
Y350500D02*
D03*
Y360500D02*
D03*
Y370500D02*
D03*
Y380500D02*
D03*
Y390500D02*
D03*
Y400500D02*
D03*
Y410500D02*
D03*
Y420500D02*
D03*
Y430500D02*
D03*
Y440500D02*
D03*
Y450500D02*
D03*
Y460500D02*
D03*
X183000Y140500D02*
D03*
Y150500D02*
D03*
Y160500D02*
D03*
Y170500D02*
D03*
Y180500D02*
D03*
Y190500D02*
D03*
Y200500D02*
D03*
Y210500D02*
D03*
Y220500D02*
D03*
Y230500D02*
D03*
Y240500D02*
D03*
Y250500D02*
D03*
Y260500D02*
D03*
Y270500D02*
D03*
Y280500D02*
D03*
Y290500D02*
D03*
Y300500D02*
D03*
Y310500D02*
D03*
Y320500D02*
D03*
Y330500D02*
D03*
Y340500D02*
D03*
Y350500D02*
D03*
Y360500D02*
D03*
Y370500D02*
D03*
Y380500D02*
D03*
Y390500D02*
D03*
Y400500D02*
D03*
Y410500D02*
D03*
Y420500D02*
D03*
Y430500D02*
D03*
Y440500D02*
D03*
Y450500D02*
D03*
Y460500D02*
D03*
D37*
X572000Y164000D02*
D03*
D38*
X661000Y251551D02*
D03*
Y276551D02*
D03*
Y301551D02*
D03*
Y326551D02*
D03*
Y351551D02*
D03*
Y376551D02*
D03*
Y401551D02*
D03*
D39*
Y426551D02*
D03*
D40*
X642500Y243300D02*
D03*
X419401Y235800D02*
D03*
X375400Y150500D02*
D03*
X318300Y429800D02*
D03*
X348100Y443100D02*
D03*
X513100Y309100D02*
D03*
X460100Y325100D02*
D03*
X406500Y382700D02*
D03*
X454800Y441000D02*
D03*
X409500Y271800D02*
D03*
X387300Y318000D02*
D03*
X326000Y335000D02*
D03*
X470400Y308400D02*
D03*
X455000Y393600D02*
D03*
X446900Y231200D02*
D03*
X479000Y153300D02*
D03*
X258000Y135800D02*
D03*
X309400Y378800D02*
D03*
X322200Y225500D02*
D03*
X406300Y195000D02*
D03*
X328300Y480500D02*
D03*
X448100Y394400D02*
D03*
X376500Y161000D02*
D03*
X426800D02*
D03*
X412400Y428300D02*
D03*
X568500Y412600D02*
D03*
X463700Y340500D02*
D03*
X603000Y436500D02*
D03*
X440185Y356600D02*
D03*
X635500Y205500D02*
D03*
X583800Y183500D02*
D03*
X439500Y240000D02*
D03*
M02*
