G04 Layer_Color=16711935*
%FSLAX25Y25*%
%MOIN*%
G70*
G01*
G75*
%ADD60R,0.06706X0.06706*%
%ADD61C,0.06706*%
%ADD62R,0.10800X0.05800*%
%ADD63O,0.10800X0.05800*%
%ADD64C,0.09800*%
%ADD65R,0.09800X0.09800*%
%ADD66C,0.16800*%
%ADD67C,0.10800*%
%ADD68R,0.10800X0.10800*%
%ADD69C,0.15800*%
%ADD70R,0.12800X0.12800*%
%ADD71C,0.12800*%
%ADD72R,0.06800X0.06800*%
%ADD73C,0.06800*%
%ADD74O,0.21800X0.15800*%
%ADD75R,0.21800X0.15800*%
%ADD76R,0.06800X0.06800*%
%ADD77R,0.08800X0.08800*%
%ADD78C,0.08800*%
%ADD79R,0.05800X0.05800*%
%ADD80C,0.05800*%
%ADD81C,0.06312*%
%ADD82R,0.08800X0.08800*%
%ADD83C,0.40800*%
%ADD84C,0.04737*%
D60*
X26500Y117000D02*
D03*
D61*
Y127000D02*
D03*
Y137000D02*
D03*
Y147000D02*
D03*
Y157000D02*
D03*
Y167000D02*
D03*
D62*
X209000Y40500D02*
D03*
D63*
Y50500D02*
D03*
Y60500D02*
D03*
Y70500D02*
D03*
Y80500D02*
D03*
Y90500D02*
D03*
Y100500D02*
D03*
Y110500D02*
D03*
Y120500D02*
D03*
Y130500D02*
D03*
Y140500D02*
D03*
Y150500D02*
D03*
Y160500D02*
D03*
Y170500D02*
D03*
Y180500D02*
D03*
Y190500D02*
D03*
Y200500D02*
D03*
Y210500D02*
D03*
Y220500D02*
D03*
Y230500D02*
D03*
Y240500D02*
D03*
Y250500D02*
D03*
Y260500D02*
D03*
Y270500D02*
D03*
Y280500D02*
D03*
Y290500D02*
D03*
Y300500D02*
D03*
Y310500D02*
D03*
Y320500D02*
D03*
Y330500D02*
D03*
Y340500D02*
D03*
Y350500D02*
D03*
Y360500D02*
D03*
X59000Y40500D02*
D03*
Y50500D02*
D03*
Y60500D02*
D03*
Y70500D02*
D03*
Y80500D02*
D03*
Y90500D02*
D03*
Y100500D02*
D03*
Y110500D02*
D03*
Y120500D02*
D03*
Y130500D02*
D03*
Y140500D02*
D03*
Y150500D02*
D03*
Y160500D02*
D03*
Y170500D02*
D03*
Y180500D02*
D03*
Y190500D02*
D03*
Y200500D02*
D03*
Y210500D02*
D03*
Y220500D02*
D03*
Y230500D02*
D03*
Y240500D02*
D03*
Y250500D02*
D03*
Y260500D02*
D03*
Y270500D02*
D03*
Y280500D02*
D03*
Y290500D02*
D03*
Y300500D02*
D03*
Y310500D02*
D03*
Y320500D02*
D03*
Y330500D02*
D03*
Y340500D02*
D03*
Y350500D02*
D03*
Y360500D02*
D03*
D64*
X470500Y276500D02*
D03*
D65*
X490500D02*
D03*
D66*
X448000Y64000D02*
D03*
D67*
X464300Y46300D02*
D03*
X448000D02*
D03*
X464300Y30000D02*
D03*
X298200Y32500D02*
D03*
X314500D02*
D03*
D68*
X448000Y30000D02*
D03*
X330800Y32500D02*
D03*
D69*
X280800D02*
D03*
D70*
X428000Y271500D02*
D03*
D71*
Y296500D02*
D03*
X300000Y271500D02*
D03*
Y296500D02*
D03*
Y356500D02*
D03*
Y331500D02*
D03*
X428000Y356500D02*
D03*
Y331500D02*
D03*
D72*
X371000Y250000D02*
D03*
Y200000D02*
D03*
X371500Y156500D02*
D03*
X371000Y110000D02*
D03*
Y60000D02*
D03*
D73*
X381000Y250000D02*
D03*
Y200000D02*
D03*
X381500Y156500D02*
D03*
X381000Y110000D02*
D03*
Y60000D02*
D03*
X500000Y361000D02*
D03*
Y371000D02*
D03*
Y381000D02*
D03*
X480000Y341000D02*
D03*
Y361000D02*
D03*
Y371000D02*
D03*
Y381000D02*
D03*
X94500Y19000D02*
D03*
X18500Y81000D02*
D03*
D74*
X537000Y151551D02*
D03*
Y176551D02*
D03*
Y201551D02*
D03*
Y226551D02*
D03*
Y251551D02*
D03*
Y276551D02*
D03*
Y301551D02*
D03*
D75*
Y326551D02*
D03*
D76*
X500000Y341000D02*
D03*
D77*
X420500Y199000D02*
D03*
X290000Y198500D02*
D03*
D78*
X435500Y199000D02*
D03*
X450500D02*
D03*
X465500D02*
D03*
X335000Y198500D02*
D03*
X320000D02*
D03*
X305000D02*
D03*
X319500Y153000D02*
D03*
X452500Y154500D02*
D03*
D79*
X423500Y97500D02*
D03*
D80*
Y108000D02*
D03*
X294500Y79500D02*
D03*
X318000D02*
D03*
X119000Y381000D02*
D03*
D81*
X489500Y18000D02*
D03*
Y78000D02*
D03*
X511500Y76000D02*
D03*
Y16000D02*
D03*
X505000Y223000D02*
D03*
X445000D02*
D03*
X504500Y245500D02*
D03*
X444500D02*
D03*
D82*
X289500Y153000D02*
D03*
X422500Y154500D02*
D03*
D83*
X576000Y25000D02*
D03*
Y375000D02*
D03*
X26000D02*
D03*
Y25000D02*
D03*
D84*
X265000Y219000D02*
D03*
X290000Y330358D02*
D03*
X283000Y180000D02*
D03*
X518500Y143300D02*
D03*
X295401Y135800D02*
D03*
X251400Y50500D02*
D03*
X194300Y329800D02*
D03*
X224100Y343100D02*
D03*
X389100Y209100D02*
D03*
X336100Y225100D02*
D03*
X282500Y282700D02*
D03*
X330800Y341000D02*
D03*
X202000Y235000D02*
D03*
X346400Y208400D02*
D03*
X331000Y293600D02*
D03*
X322900Y131200D02*
D03*
X355000Y53300D02*
D03*
X134000Y35800D02*
D03*
X198200Y125500D02*
D03*
X282300Y95000D02*
D03*
X324100Y294400D02*
D03*
X252500Y61000D02*
D03*
X302800D02*
D03*
X444500Y312600D02*
D03*
X339700Y240500D02*
D03*
X316185Y256600D02*
D03*
X511500Y105500D02*
D03*
X459800Y83500D02*
D03*
X315500Y140000D02*
D03*
M02*
